<?xml version="1.0" encoding="UTF-8" standalone="no"?>
<!DOCTYPE svg PUBLIC "-//W3C//DTD SVG 1.1//EN"
 "http://www.w3.org/Graphics/SVG/1.1/DTD/svg11.dtd">
<!-- Generated by graphviz version 2.36.0 (20140111.2315)
 -->
<!-- Title: compiler.Compiler Pages: 1 -->
<svg width="588pt" height="297pt"
 viewBox="0.00 0.00 588.00 297.00" xmlns="http://www.w3.org/2000/svg" xmlns:xlink="http://www.w3.org/1999/xlink">
<g id="graph0" class="graph" transform="scale(1 1) rotate(0) translate(4 293)">
<title>compiler.Compiler</title>
<polygon fill="white" stroke="none" points="-4,4 -4,-293 584,-293 584,4 -4,4"/>
<!-- Node1 -->
<g id="node1" class="node"><title>Node1</title>
<polygon fill="#bfbfbf" stroke="black" points="476.5,-139.5 476.5,-158.5 579.5,-158.5 579.5,-139.5 476.5,-139.5"/>
<text text-anchor="middle" x="528" y="-146.5" font-family="Helvetica,sans-Serif" font-size="10.00">compiler.Compiler</text>
</g>
<!-- Node2 -->
<g id="node2" class="node"><title>Node2</title>
<polygon fill="white" stroke="#bfbfbf" points="246,-269.5 246,-288.5 346,-288.5 346,-269.5 246,-269.5"/>
<text text-anchor="middle" x="296" y="-276.5" font-family="Helvetica,sans-Serif" font-size="10.00">Stack&lt; Integer &gt;</text>
</g>
<!-- Node2&#45;&gt;Node1 -->
<g id="edge1" class="edge"><title>Node2&#45;&gt;Node1</title>
<path fill="none" stroke="#9a32cd" stroke-dasharray="5,2" d="M356.405,-274.823C388.607,-270.245 427.86,-260.727 458,-241 490.575,-219.679 513.559,-177.459 522.663,-158.55"/>
<polygon fill="#9a32cd" stroke="#9a32cd" points="355.686,-271.387 346.218,-276.142 356.585,-278.329 355.686,-271.387"/>
<text text-anchor="middle" x="423" y="-271" font-family="Helvetica,sans-Serif" font-size="10.00"> state</text>
</g>
<!-- Node3 -->
<g id="node3" class="node"><title>Node3</title>
<polygon fill="white" stroke="#bfbfbf" points="222.5,-228.5 222.5,-247.5 369.5,-247.5 369.5,-228.5 222.5,-228.5"/>
<text text-anchor="middle" x="296" y="-235.5" font-family="Helvetica,sans-Serif" font-size="10.00">HashMap&lt; String, String &gt;</text>
</g>
<!-- Node3&#45;&gt;Node1 -->
<g id="edge2" class="edge"><title>Node3&#45;&gt;Node1</title>
<path fill="none" stroke="#9a32cd" stroke-dasharray="5,2" d="M351.903,-225.98C383.669,-218.048 423.967,-206.29 458,-191 478.34,-181.862 500.031,-167.873 513.549,-158.584"/>
<polygon fill="#9a32cd" stroke="#9a32cd" points="350.792,-222.648 341.908,-228.421 352.453,-229.449 350.792,-222.648"/>
<text text-anchor="middle" x="423" y="-229" font-family="Helvetica,sans-Serif" font-size="10.00"> grammar</text>
<text text-anchor="middle" x="423" y="-218" font-family="Helvetica,sans-Serif" font-size="10.00">dictionary</text>
</g>
<!-- Node4 -->
<g id="node4" class="node"><title>Node4</title>
<polygon fill="white" stroke="#bfbfbf" points="222,-179 222,-209 370,-209 370,-179 222,-179"/>
<text text-anchor="start" x="230" y="-197" font-family="Helvetica,sans-Serif" font-size="10.00">List&lt; compiler.SymbolTable</text>
<text text-anchor="middle" x="296" y="-186" font-family="Helvetica,sans-Serif" font-size="10.00">Entry &gt;</text>
</g>
<!-- Node4&#45;&gt;Node1 -->
<g id="edge3" class="edge"><title>Node4&#45;&gt;Node1</title>
<path fill="none" stroke="#9a32cd" stroke-dasharray="5,2" d="M380.188,-178.146C405.211,-173.333 432.732,-167.996 458,-163 465.195,-161.577 472.807,-160.053 480.246,-158.552"/>
<polygon fill="#9a32cd" stroke="#9a32cd" points="379.526,-174.709 370.366,-180.033 380.846,-181.584 379.526,-174.709"/>
<text text-anchor="middle" x="423" y="-179" font-family="Helvetica,sans-Serif" font-size="10.00"> symbolTable</text>
</g>
<!-- Node5 -->
<g id="node5" class="node"><title>Node5</title>
<g id="a_node5"><a xlink:href="../../dd/db3/classcompiler_1_1_parse_table.html" target="_top" xlink:title="compiler.ParseTable">
<polygon fill="white" stroke="black" points="241,-93.5 241,-112.5 351,-112.5 351,-93.5 241,-93.5"/>
<text text-anchor="middle" x="296" y="-100.5" font-family="Helvetica,sans-Serif" font-size="10.00">compiler.ParseTable</text>
</a>
</g>
</g>
<!-- Node5&#45;&gt;Node1 -->
<g id="edge4" class="edge"><title>Node5&#45;&gt;Node1</title>
<path fill="none" stroke="#9a32cd" stroke-dasharray="5,2" d="M361.445,-108.162C391.124,-111.365 426.639,-116.37 458,-124 473.847,-127.855 491.097,-134.105 504.385,-139.391"/>
<polygon fill="#9a32cd" stroke="#9a32cd" points="361.513,-104.65 351.206,-107.103 360.793,-111.613 361.513,-104.65"/>
<text text-anchor="middle" x="423" y="-127" font-family="Helvetica,sans-Serif" font-size="10.00"> myParseTable</text>
</g>
<!-- Node6 -->
<g id="node6" class="node"><title>Node6</title>
<polygon fill="white" stroke="#bfbfbf" points="0.5,-120 0.5,-150 119.5,-150 119.5,-120 0.5,-120"/>
<text text-anchor="start" x="8.5" y="-138" font-family="Helvetica,sans-Serif" font-size="10.00">ArrayList&lt; HashMap</text>
<text text-anchor="middle" x="60" y="-127" font-family="Helvetica,sans-Serif" font-size="10.00">&lt; String, Integer &gt; &gt;</text>
</g>
<!-- Node6&#45;&gt;Node1 -->
<g id="edge7" class="edge"><title>Node6&#45;&gt;Node1</title>
<path fill="none" stroke="#9a32cd" stroke-dasharray="5,2" d="M129.575,-137.06C224.063,-139.899 392.121,-144.948 476.178,-147.473"/>
<polygon fill="#9a32cd" stroke="#9a32cd" points="129.648,-133.561 119.547,-136.759 129.438,-140.558 129.648,-133.561"/>
<text text-anchor="middle" x="296" y="-148" font-family="Helvetica,sans-Serif" font-size="10.00"> nextState</text>
</g>
<!-- Node6&#45;&gt;Node5 -->
<g id="edge5" class="edge"><title>Node6&#45;&gt;Node5</title>
<path fill="none" stroke="#9a32cd" stroke-dasharray="5,2" d="M129.869,-125.131C132.615,-124.747 135.333,-124.369 138,-124 172.187,-119.272 210.586,-114.133 240.852,-110.122"/>
<polygon fill="#9a32cd" stroke="#9a32cd" points="129.265,-121.681 119.849,-126.538 130.239,-128.613 129.265,-121.681"/>
<text text-anchor="middle" x="171" y="-127" font-family="Helvetica,sans-Serif" font-size="10.00"> nextState</text>
</g>
<!-- Node7 -->
<g id="node7" class="node"><title>Node7</title>
<polygon fill="white" stroke="#bfbfbf" points="2.5,-62 2.5,-92 117.5,-92 117.5,-62 2.5,-62"/>
<text text-anchor="start" x="10.5" y="-80" font-family="Helvetica,sans-Serif" font-size="10.00">ArrayList&lt; HashMap</text>
<text text-anchor="middle" x="60" y="-69" font-family="Helvetica,sans-Serif" font-size="10.00">&lt; String, String &gt; &gt;</text>
</g>
<!-- Node7&#45;&gt;Node1 -->
<g id="edge8" class="edge"><title>Node7&#45;&gt;Node1</title>
<path fill="none" stroke="#9a32cd" stroke-dasharray="5,2" d="M127.91,-68.445C190.961,-62.1872 287.767,-57.2471 370,-73 427.402,-83.9962 487.487,-121.609 513.584,-139.455"/>
<polygon fill="#9a32cd" stroke="#9a32cd" points="127.29,-64.9903 117.702,-69.499 128.009,-71.9533 127.29,-64.9903"/>
<text text-anchor="middle" x="296" y="-76" font-family="Helvetica,sans-Serif" font-size="10.00"> move</text>
</g>
<!-- Node7&#45;&gt;Node5 -->
<g id="edge6" class="edge"><title>Node7&#45;&gt;Node5</title>
<path fill="none" stroke="#9a32cd" stroke-dasharray="5,2" d="M127.868,-82.365C151.901,-84.4817 179.193,-87.1024 204,-90 215.888,-91.3886 228.622,-93.0794 240.684,-94.7761"/>
<polygon fill="#9a32cd" stroke="#9a32cd" points="128.05,-78.8677 117.785,-81.4894 127.445,-85.8415 128.05,-78.8677"/>
<text text-anchor="middle" x="171" y="-93" font-family="Helvetica,sans-Serif" font-size="10.00"> myOperation</text>
</g>
<!-- Node8 -->
<g id="node8" class="node"><title>Node8</title>
<polygon fill="white" stroke="#bfbfbf" points="248.5,-0.5 248.5,-19.5 343.5,-19.5 343.5,-0.5 248.5,-0.5"/>
<text text-anchor="middle" x="296" y="-7.5" font-family="Helvetica,sans-Serif" font-size="10.00">Stack&lt; String &gt;</text>
</g>
<!-- Node8&#45;&gt;Node1 -->
<g id="edge9" class="edge"><title>Node8&#45;&gt;Node1</title>
<path fill="none" stroke="#9a32cd" stroke-dasharray="5,2" d="M354.157,-5.53624C387.031,-5.72161 427.689,-10.8943 458,-31 498.146,-57.6296 518.01,-116.225 524.514,-139.345"/>
<polygon fill="#9a32cd" stroke="#9a32cd" points="353.745,-2.04004 343.78,-5.6387 353.814,-9.0397 353.745,-2.04004"/>
<text text-anchor="middle" x="423" y="-34" font-family="Helvetica,sans-Serif" font-size="10.00"> symbol</text>
</g>
</g>
</svg>
