<?xml version="1.0" encoding="UTF-8" standalone="no"?>
<!DOCTYPE svg PUBLIC "-//W3C//DTD SVG 1.1//EN"
 "http://www.w3.org/Graphics/SVG/1.1/DTD/svg11.dtd">
<!-- Generated by graphviz version 2.36.0 (20140111.2315)
 -->
<!-- Title: simulationObjects.Turtle Pages: 1 -->
<!--zoomable 778 -->
<svg id="main" version="1.1" xmlns="http://www.w3.org/2000/svg" xmlns:xlink="http://www.w3.org/1999/xlink" xml:space="preserve" onload="init(evt)">
<style type="text/css"><![CDATA[
.edge:hover path { stroke: red; }
.edge:hover polygon { stroke: red; fill: red; }
]]></style>
<script type="text/javascript"><![CDATA[
var edges = document.getElementsByTagName('g');
if (edges && edges.length) {
  for (var i=0;i<edges.length;i++) {
    if (edges[i].id.substr(0,4)=='edge') {
      edges[i].setAttribute('class','edge');
    }
  }
}
]]></script>
        <defs>
                <circle id="rim" cx="0" cy="0" r="7"/>
                <circle id="rim2" cx="0" cy="0" r="3.5"/>
                <g id="zoomPlus">
                        <use xlink:href="#rim" fill="#404040">
                                <set attributeName="fill" to="#808080" begin="zoomplus.mouseover" end="zoomplus.mouseout"/>
                        </use>
                        <path d="M-4,0h8M0,-4v8" fill="none" stroke="white" stroke-width="1.5" pointer-events="none"/>
                </g>
                <g id="zoomMin">
                        <use xlink:href="#rim" fill="#404040">
                                <set attributeName="fill" to="#808080" begin="zoomminus.mouseover" end="zoomminus.mouseout"/>
                        </use>
                        <path d="M-4,0h8" fill="none" stroke="white" stroke-width="1.5" pointer-events="none"/>
                </g>
                <g id="dirArrow">
                        <path fill="none" stroke="white" stroke-width="1.5" d="M0,-3.0v7 M-2.5,-0.5L0,-3.0L2.5,-0.5"/>
                </g>
               <g id="resetDef">
                       <use xlink:href="#rim2" fill="#404040">
                               <set attributeName="fill" to="#808080" begin="reset.mouseover" end="reset.mouseout"/>
                       </use>
               </g>
        </defs>

<script type="text/javascript">
var viewWidth = 1678;
var viewHeight = 778;
var sectionId = 'dynsection-0';
</script>
<script xlink:href="../../svgpan.js"/>
<svg id="graph" class="graph">
<g id="viewport">
<title>simulationObjects.Turtle</title>
<polygon fill="white" stroke="none" points="-4,4 -4,-774 1674,-774 1674,4 -4,4"/>
<!-- Node1 -->
<g id="node1" class="node"><title>Node1</title>
<polygon fill="#bfbfbf" stroke="black" points="0.5,-372.5 0.5,-391.5 131.5,-391.5 131.5,-372.5 0.5,-372.5"/>
<text text-anchor="middle" x="66" y="-379.5" font-family="Helvetica,sans-Serif" font-size="10.00">simulationObjects.Turtle</text>
</g>
<!-- Node2 -->
<g id="node2" class="node"><title>Node2</title>
<g id="a_node2"><a xlink:href="../../dd/d5b/classsimulation_objects_1_1_turtle_list.html#a91a24189b24b9867d6f2507c7d4e3ab0" target="_top" xlink:title="simulationObjects.Turtle\lList.addStamp">
<polygon fill="white" stroke="black" points="196.5,-740 196.5,-770 327.5,-770 327.5,-740 196.5,-740"/>
<text text-anchor="start" x="204.5" y="-758" font-family="Helvetica,sans-Serif" font-size="10.00">simulationObjects.Turtle</text>
<text text-anchor="middle" x="262" y="-747" font-family="Helvetica,sans-Serif" font-size="10.00">List.addStamp</text>
</a>
</g>
</g>
<!-- Node1&#45;&gt;Node2 -->
<g id="edge1" class="edge"><title>Node1&#45;&gt;Node2</title>
<path fill="none" stroke="midnightblue" d="M66.4783,-401.917C66.0672,-461.026 73.2396,-637.103 168,-730 175.88,-737.725 185.878,-743.128 196.378,-746.894"/>
<polygon fill="midnightblue" stroke="midnightblue" points="69.9809,-401.768 66.6379,-391.714 62.9818,-401.658 69.9809,-401.768"/>
</g>
<!-- Node3 -->
<g id="node3" class="node"><title>Node3</title>
<g id="a_node3"><a xlink:href="../../de/d00/classcommands_1_1_command_list.html#a3fa6072b15e6e34c66f5d4e264460553" target="_top" xlink:title="commands.CommandList.clear\lScreen">
<polygon fill="white" stroke="black" points="178.5,-526 178.5,-556 345.5,-556 345.5,-526 178.5,-526"/>
<text text-anchor="start" x="186.5" y="-544" font-family="Helvetica,sans-Serif" font-size="10.00">commands.CommandList.clear</text>
<text text-anchor="middle" x="262" y="-533" font-family="Helvetica,sans-Serif" font-size="10.00">Screen</text>
</a>
</g>
</g>
<!-- Node1&#45;&gt;Node3 -->
<g id="edge2" class="edge"><title>Node1&#45;&gt;Node3</title>
<path fill="none" stroke="midnightblue" d="M76.0823,-401.016C91.0534,-430.285 123.722,-486.111 168,-516 173.682,-519.835 179.929,-523.083 186.415,-525.834"/>
<polygon fill="midnightblue" stroke="midnightblue" points="79.1168,-399.258 71.5348,-391.857 72.8471,-402.371 79.1168,-399.258"/>
</g>
<!-- Node17 -->
<g id="node17" class="node"><title>Node17</title>
<g id="a_node17"><a xlink:href="../../dd/d5b/classsimulation_objects_1_1_turtle_list.html#ad06d2036ca5498681bed071040fb5e3c" target="_top" xlink:title="simulationObjects.Turtle\lList.createTurtle">
<polygon fill="white" stroke="black" points="196.5,-49 196.5,-79 327.5,-79 327.5,-49 196.5,-49"/>
<text text-anchor="start" x="204.5" y="-67" font-family="Helvetica,sans-Serif" font-size="10.00">simulationObjects.Turtle</text>
<text text-anchor="middle" x="262" y="-56" font-family="Helvetica,sans-Serif" font-size="10.00">List.createTurtle</text>
</a>
</g>
</g>
<!-- Node1&#45;&gt;Node17 -->
<g id="edge18" class="edge"><title>Node1&#45;&gt;Node17</title>
<path fill="none" stroke="midnightblue" d="M68.0877,-362.347C72.0061,-310.783 89.7027,-170.345 168,-94 175.895,-86.3016 185.777,-80.5785 196.127,-76.3239"/>
<polygon fill="midnightblue" stroke="midnightblue" points="64.5868,-362.244 67.4148,-372.455 71.5714,-362.709 64.5868,-362.244"/>
</g>
<!-- Node19 -->
<g id="node19" class="node"><title>Node19</title>
<g id="a_node19"><a xlink:href="../../de/d00/classcommands_1_1_command_list.html#a5b320e3a2018fde1a425658bf6f76f71" target="_top" xlink:title="commands.CommandList.forward\lCommand">
<polygon fill="white" stroke="black" points="172.5,-477 172.5,-507 351.5,-507 351.5,-477 172.5,-477"/>
<text text-anchor="start" x="180.5" y="-495" font-family="Helvetica,sans-Serif" font-size="10.00">commands.CommandList.forward</text>
<text text-anchor="middle" x="262" y="-484" font-family="Helvetica,sans-Serif" font-size="10.00">Command</text>
</a>
</g>
</g>
<!-- Node1&#45;&gt;Node19 -->
<g id="edge20" class="edge"><title>Node1&#45;&gt;Node19</title>
<path fill="none" stroke="midnightblue" d="M82.7901,-399.212C101.379,-418.467 134.046,-449.276 168,-467 175.262,-470.791 183.152,-474.047 191.162,-476.833"/>
<polygon fill="midnightblue" stroke="midnightblue" points="85.1366,-396.6 75.7224,-391.739 80.0508,-401.409 85.1366,-396.6"/>
</g>
<!-- Node20 -->
<g id="node20" class="node"><title>Node20</title>
<g id="a_node20"><a xlink:href="../../db/d32/classcontroller_1_1_main_controller.html#a422fc72151a8108190c4c945f3f5cd7a" target="_top" xlink:title="controller.MainController.get\lTurtle">
<polygon fill="white" stroke="black" points="392.5,-123 392.5,-153 543.5,-153 543.5,-123 392.5,-123"/>
<text text-anchor="start" x="400.5" y="-141" font-family="Helvetica,sans-Serif" font-size="10.00">controller.MainController.get</text>
<text text-anchor="middle" x="468" y="-130" font-family="Helvetica,sans-Serif" font-size="10.00">Turtle</text>
</a>
</g>
</g>
<!-- Node1&#45;&gt;Node20 -->
<g id="edge22" class="edge"><title>Node1&#45;&gt;Node20</title>
<path fill="none" stroke="midnightblue" d="M67.8139,-362.224C71.0597,-312.415 87.2496,-181.87 168,-127 246.84,-73.428 366.281,-102.308 427.61,-122.963"/>
<polygon fill="midnightblue" stroke="midnightblue" points="64.3131,-362.146 67.2666,-372.321 71.3028,-362.525 64.3131,-362.146"/>
</g>
<!-- Node25 -->
<g id="node25" class="node"><title>Node25</title>
<g id="a_node25"><a xlink:href="../../de/d00/classcommands_1_1_command_list.html#a10e5a16b6560987b4c7deefa4a12fbdb" target="_top" xlink:title="commands.CommandList.heading">
<polygon fill="white" stroke="black" points="171,-438.5 171,-457.5 353,-457.5 353,-438.5 171,-438.5"/>
<text text-anchor="middle" x="262" y="-445.5" font-family="Helvetica,sans-Serif" font-size="10.00">commands.CommandList.heading</text>
</a>
</g>
</g>
<!-- Node1&#45;&gt;Node25 -->
<g id="edge34" class="edge"><title>Node1&#45;&gt;Node25</title>
<path fill="none" stroke="midnightblue" d="M93.8812,-396.171C113.872,-406.229 142.063,-419.416 168,-428 180.386,-432.099 193.984,-435.573 206.866,-438.417"/>
<polygon fill="midnightblue" stroke="midnightblue" points="95.2699,-392.95 84.7722,-391.519 92.086,-399.184 95.2699,-392.95"/>
</g>
<!-- Node26 -->
<g id="node26" class="node"><title>Node26</title>
<g id="a_node26"><a xlink:href="../../de/d00/classcommands_1_1_command_list.html#a787a3850e0d0584213bfe7fdcd011985" target="_top" xlink:title="commands.CommandList.hide\lTurtle">
<polygon fill="white" stroke="black" points="180,-389 180,-419 344,-419 344,-389 180,-389"/>
<text text-anchor="start" x="188" y="-407" font-family="Helvetica,sans-Serif" font-size="10.00">commands.CommandList.hide</text>
<text text-anchor="middle" x="262" y="-396" font-family="Helvetica,sans-Serif" font-size="10.00">Turtle</text>
</a>
</g>
</g>
<!-- Node1&#45;&gt;Node26 -->
<g id="edge36" class="edge"><title>Node1&#45;&gt;Node26</title>
<path fill="none" stroke="midnightblue" d="M141.884,-390.492C154.294,-391.899 167.214,-393.364 179.772,-394.789"/>
<polygon fill="midnightblue" stroke="midnightblue" points="141.93,-386.975 131.599,-389.326 141.141,-393.93 141.93,-386.975"/>
</g>
<!-- Node27 -->
<g id="node27" class="node"><title>Node27</title>
<g id="a_node27"><a xlink:href="../../de/d00/classcommands_1_1_command_list.html#a982e66bba41ac1d0773d4dcb92aab824" target="_top" xlink:title="commands.CommandList.penDown">
<polygon fill="white" stroke="black" points="168,-350.5 168,-369.5 356,-369.5 356,-350.5 168,-350.5"/>
<text text-anchor="middle" x="262" y="-357.5" font-family="Helvetica,sans-Serif" font-size="10.00">commands.CommandList.penDown</text>
</a>
</g>
</g>
<!-- Node1&#45;&gt;Node27 -->
<g id="edge38" class="edge"><title>Node1&#45;&gt;Node27</title>
<path fill="none" stroke="midnightblue" d="M141.64,-373.536C153.217,-372.223 165.244,-370.859 177.011,-369.525"/>
<polygon fill="midnightblue" stroke="midnightblue" points="141.141,-370.07 131.599,-374.674 141.93,-377.025 141.141,-370.07"/>
</g>
<!-- Node28 -->
<g id="node28" class="node"><title>Node28</title>
<g id="a_node28"><a xlink:href="../../de/d00/classcommands_1_1_command_list.html#aef01a8e42196fc5ae6685ba9f3991e5e" target="_top" xlink:title="commands.CommandList.pen\lDownP">
<polygon fill="white" stroke="black" points="181.5,-301 181.5,-331 342.5,-331 342.5,-301 181.5,-301"/>
<text text-anchor="start" x="189.5" y="-319" font-family="Helvetica,sans-Serif" font-size="10.00">commands.CommandList.pen</text>
<text text-anchor="middle" x="262" y="-308" font-family="Helvetica,sans-Serif" font-size="10.00">DownP</text>
</a>
</g>
</g>
<!-- Node1&#45;&gt;Node28 -->
<g id="edge40" class="edge"><title>Node1&#45;&gt;Node28</title>
<path fill="none" stroke="midnightblue" d="M97.8169,-368.338C117.632,-359.842 144.06,-349.043 168,-341 178.46,-337.486 189.708,-334.122 200.643,-331.065"/>
<polygon fill="midnightblue" stroke="midnightblue" points="96.1694,-365.238 88.3835,-372.423 98.9509,-371.661 96.1694,-365.238"/>
</g>
<!-- Node29 -->
<g id="node29" class="node"><title>Node29</title>
<g id="a_node29"><a xlink:href="../../de/d00/classcommands_1_1_command_list.html#a62ca3466760389089ab8a1474d7649da" target="_top" xlink:title="commands.CommandList.penUp">
<polygon fill="white" stroke="black" points="174.5,-262.5 174.5,-281.5 349.5,-281.5 349.5,-262.5 174.5,-262.5"/>
<text text-anchor="middle" x="262" y="-269.5" font-family="Helvetica,sans-Serif" font-size="10.00">commands.CommandList.penUp</text>
</a>
</g>
</g>
<!-- Node1&#45;&gt;Node29 -->
<g id="edge42" class="edge"><title>Node1&#45;&gt;Node29</title>
<path fill="none" stroke="midnightblue" d="M81.3223,-364.658C99.346,-344.035 132.294,-310.131 168,-292 176.541,-287.663 185.985,-284.265 195.485,-281.603"/>
<polygon fill="midnightblue" stroke="midnightblue" points="78.5863,-362.473 74.7542,-372.35 83.9096,-367.018 78.5863,-362.473"/>
</g>
<!-- Node30 -->
<g id="node30" class="node"><title>Node30</title>
<g id="a_node30"><a xlink:href="../../de/d00/classcommands_1_1_command_list.html#a9163a5e5924ed91db96ea586ca3e35d2" target="_top" xlink:title="commands.CommandList.set\lPenWidth">
<polygon fill="white" stroke="black" points="183,-0 183,-30 341,-30 341,-0 183,-0"/>
<text text-anchor="start" x="191" y="-18" font-family="Helvetica,sans-Serif" font-size="10.00">commands.CommandList.set</text>
<text text-anchor="middle" x="262" y="-7" font-family="Helvetica,sans-Serif" font-size="10.00">PenWidth</text>
</a>
</g>
</g>
<!-- Node1&#45;&gt;Node30 -->
<g id="edge44" class="edge"><title>Node1&#45;&gt;Node30</title>
<path fill="none" stroke="midnightblue" d="M66.5357,-362.318C66.2847,-303.915 73.8574,-130.012 168,-39 172.316,-34.8277 177.257,-31.3542 182.562,-28.4655"/>
<polygon fill="midnightblue" stroke="midnightblue" points="63.037,-362.446 66.6669,-372.4 70.0364,-362.355 63.037,-362.446"/>
</g>
<!-- Node31 -->
<g id="node31" class="node"><title>Node31</title>
<g id="a_node31"><a xlink:href="../../de/d00/classcommands_1_1_command_list.html#adeb55ad1a5d59a59b3a19582f885d55a" target="_top" xlink:title="commands.CommandList.SetXY">
<polygon fill="white" stroke="black" points="176.5,-224.5 176.5,-243.5 347.5,-243.5 347.5,-224.5 176.5,-224.5"/>
<text text-anchor="middle" x="262" y="-231.5" font-family="Helvetica,sans-Serif" font-size="10.00">commands.CommandList.SetXY</text>
</a>
</g>
</g>
<!-- Node1&#45;&gt;Node31 -->
<g id="edge45" class="edge"><title>Node1&#45;&gt;Node31</title>
<path fill="none" stroke="midnightblue" d="M76.0633,-363.372C91.0089,-334.762 123.643,-280.442 168,-253 174.166,-249.185 180.96,-246.12 187.984,-243.66"/>
<polygon fill="midnightblue" stroke="midnightblue" points="72.9206,-361.831 71.5243,-372.333 79.1652,-364.994 72.9206,-361.831"/>
</g>
<!-- Node32 -->
<g id="node32" class="node"><title>Node32</title>
<g id="a_node32"><a xlink:href="../../de/d00/classcommands_1_1_command_list.html#a56d90f6038375159ddd4381483313eba" target="_top" xlink:title="commands.CommandList.showingP">
<polygon fill="white" stroke="black" points="168,-186.5 168,-205.5 356,-205.5 356,-186.5 168,-186.5"/>
<text text-anchor="middle" x="262" y="-193.5" font-family="Helvetica,sans-Serif" font-size="10.00">commands.CommandList.showingP</text>
</a>
</g>
</g>
<!-- Node1&#45;&gt;Node32 -->
<g id="edge47" class="edge"><title>Node1&#45;&gt;Node32</title>
<path fill="none" stroke="midnightblue" d="M72.9575,-362.504C84.851,-327.072 115.05,-252.339 168,-215 173.387,-211.201 179.361,-208.126 185.607,-205.64"/>
<polygon fill="midnightblue" stroke="midnightblue" points="69.584,-361.561 69.8492,-372.153 76.2468,-363.708 69.584,-361.561"/>
</g>
<!-- Node33 -->
<g id="node33" class="node"><title>Node33</title>
<g id="a_node33"><a xlink:href="../../de/d00/classcommands_1_1_command_list.html#a84ca20352feab138c22ab7ed8b32f0d1" target="_top" xlink:title="commands.CommandList.show\lTurtle">
<polygon fill="white" stroke="black" points="178.5,-137 178.5,-167 345.5,-167 345.5,-137 178.5,-137"/>
<text text-anchor="start" x="186.5" y="-155" font-family="Helvetica,sans-Serif" font-size="10.00">commands.CommandList.show</text>
<text text-anchor="middle" x="262" y="-144" font-family="Helvetica,sans-Serif" font-size="10.00">Turtle</text>
</a>
</g>
</g>
<!-- Node1&#45;&gt;Node33 -->
<g id="edge49" class="edge"><title>Node1&#45;&gt;Node33</title>
<path fill="none" stroke="midnightblue" d="M71.0065,-362.224C80.3699,-321.214 107.628,-226.606 168,-177 172.65,-173.179 177.832,-169.938 183.303,-167.19"/>
<polygon fill="midnightblue" stroke="midnightblue" points="67.5688,-361.562 68.8706,-372.077 74.4099,-363.045 67.5688,-361.562"/>
</g>
<!-- Node34 -->
<g id="node34" class="node"><title>Node34</title>
<g id="a_node34"><a xlink:href="../../de/d00/classcommands_1_1_command_list.html#af0d3ea536d38493b14ee45fe04848286" target="_top" xlink:title="commands.CommandList.towards">
<polygon fill="white" stroke="black" points="171.5,-701.5 171.5,-720.5 352.5,-720.5 352.5,-701.5 171.5,-701.5"/>
<text text-anchor="middle" x="262" y="-708.5" font-family="Helvetica,sans-Serif" font-size="10.00">commands.CommandList.towards</text>
</a>
</g>
</g>
<!-- Node1&#45;&gt;Node34 -->
<g id="edge51" class="edge"><title>Node1&#45;&gt;Node34</title>
<path fill="none" stroke="midnightblue" d="M67.1085,-401.706C68.5424,-456.564 80.5091,-612.173 168,-691 172.662,-695.201 177.99,-698.595 183.682,-701.33"/>
<polygon fill="midnightblue" stroke="midnightblue" points="70.6062,-401.533 66.939,-391.594 63.6071,-401.651 70.6062,-401.533"/>
</g>
<!-- Node35 -->
<g id="node35" class="node"><title>Node35</title>
<g id="a_node35"><a xlink:href="../../de/d00/classcommands_1_1_command_list.html#a19cc311e99a6fa5e95d0966c09bdc907" target="_top" xlink:title="commands.CommandList.turn\lCommand">
<polygon fill="white" stroke="black" points="180.5,-652 180.5,-682 343.5,-682 343.5,-652 180.5,-652"/>
<text text-anchor="start" x="188.5" y="-670" font-family="Helvetica,sans-Serif" font-size="10.00">commands.CommandList.turn</text>
<text text-anchor="middle" x="262" y="-659" font-family="Helvetica,sans-Serif" font-size="10.00">Command</text>
</a>
</g>
</g>
<!-- Node1&#45;&gt;Node35 -->
<g id="edge53" class="edge"><title>Node1&#45;&gt;Node35</title>
<path fill="none" stroke="midnightblue" d="M68.7343,-401.891C74.0632,-450.496 94.5997,-576.122 168,-642 172.23,-645.797 176.978,-649.026 182.03,-651.772"/>
<polygon fill="midnightblue" stroke="midnightblue" points="72.199,-401.362 67.7265,-391.757 65.2334,-402.054 72.199,-401.362"/>
</g>
<!-- Node36 -->
<g id="node36" class="node"><title>Node36</title>
<g id="a_node36"><a xlink:href="../../de/d00/classcommands_1_1_command_list.html#a59070aee1fd5b3efa68c63fb3ab6ed6e" target="_top" xlink:title="commands.CommandList.xCor">
<polygon fill="white" stroke="black" points="179.5,-613.5 179.5,-632.5 344.5,-632.5 344.5,-613.5 179.5,-613.5"/>
<text text-anchor="middle" x="262" y="-620.5" font-family="Helvetica,sans-Serif" font-size="10.00">commands.CommandList.xCor</text>
</a>
</g>
</g>
<!-- Node1&#45;&gt;Node36 -->
<g id="edge55" class="edge"><title>Node1&#45;&gt;Node36</title>
<path fill="none" stroke="midnightblue" d="M69.9185,-401.895C77.4676,-445.815 101.887,-551.333 168,-604 172.769,-607.799 178.102,-610.897 183.737,-613.417"/>
<polygon fill="midnightblue" stroke="midnightblue" points="73.355,-401.22 68.3141,-391.901 66.4435,-402.329 73.355,-401.22"/>
</g>
<!-- Node37 -->
<g id="node37" class="node"><title>Node37</title>
<g id="a_node37"><a xlink:href="../../de/d00/classcommands_1_1_command_list.html#a4d30a46927f84016abe3bc1051baf62c" target="_top" xlink:title="commands.CommandList.yCor">
<polygon fill="white" stroke="black" points="179.5,-575.5 179.5,-594.5 344.5,-594.5 344.5,-575.5 179.5,-575.5"/>
<text text-anchor="middle" x="262" y="-582.5" font-family="Helvetica,sans-Serif" font-size="10.00">commands.CommandList.yCor</text>
</a>
</g>
</g>
<!-- Node1&#45;&gt;Node37 -->
<g id="edge57" class="edge"><title>Node1&#45;&gt;Node37</title>
<path fill="none" stroke="midnightblue" d="M71.983,-401.693C82.67,-439.683 111.537,-523.035 168,-565 173.832,-569.335 180.407,-572.77 187.296,-575.487"/>
<polygon fill="midnightblue" stroke="midnightblue" points="75.3142,-400.602 69.3406,-391.852 68.5537,-402.418 75.3142,-400.602"/>
</g>
<!-- Node4 -->
<g id="node4" class="node"><title>Node4</title>
<g id="a_node4"><a xlink:href="../../d5/dcd/classcompiler_1_1_a_s_t.html#a8f54e642baf772b6269010527c61f7f7" target="_top" xlink:title="compiler.AST.traverse">
<polygon fill="white" stroke="black" points="408,-394.5 408,-413.5 528,-413.5 528,-394.5 408,-394.5"/>
<text text-anchor="middle" x="468" y="-401.5" font-family="Helvetica,sans-Serif" font-size="10.00">compiler.AST.traverse</text>
</a>
</g>
</g>
<!-- Node3&#45;&gt;Node4 -->
<g id="edge3" class="edge"><title>Node3&#45;&gt;Node4</title>
<path fill="none" stroke="midnightblue" d="M343.936,-522.133C348.106,-520.272 352.155,-518.233 356,-516 403.344,-488.498 444.462,-435.609 460.186,-413.785"/>
<polygon fill="midnightblue" stroke="midnightblue" points="342.579,-518.907 334.646,-525.93 345.227,-525.387 342.579,-518.907"/>
</g>
<!-- Node5 -->
<g id="node5" class="node"><title>Node5</title>
<g id="a_node5"><a xlink:href="../../db/d93/classcompiler_1_1_compiler.html#a8a90aa273bacff724a034959914a4c2d" target="_top" xlink:title="compiler.Compiler.compile">
<polygon fill="white" stroke="black" points="595.5,-374.5 595.5,-393.5 738.5,-393.5 738.5,-374.5 595.5,-374.5"/>
<text text-anchor="middle" x="667" y="-381.5" font-family="Helvetica,sans-Serif" font-size="10.00">compiler.Compiler.compile</text>
</a>
</g>
</g>
<!-- Node4&#45;&gt;Node5 -->
<g id="edge4" class="edge"><title>Node4&#45;&gt;Node5</title>
<path fill="none" stroke="midnightblue" d="M538.235,-396.971C556.784,-395.088 576.855,-393.05 595.472,-391.16"/>
<polygon fill="midnightblue" stroke="midnightblue" points="537.702,-393.507 528.106,-397.999 538.409,-400.471 537.702,-393.507"/>
</g>
<!-- Node6 -->
<g id="node6" class="node"><title>Node6</title>
<g id="a_node6"><a xlink:href="../../db/d93/classcompiler_1_1_compiler.html#a90d16b98c8e950bbaf772f5b93092a3f" target="_top" xlink:title="compiler.Compiler.main">
<polygon fill="white" stroke="black" points="804.5,-418.5 804.5,-437.5 933.5,-437.5 933.5,-418.5 804.5,-418.5"/>
<text text-anchor="middle" x="869" y="-425.5" font-family="Helvetica,sans-Serif" font-size="10.00">compiler.Compiler.main</text>
</a>
</g>
</g>
<!-- Node5&#45;&gt;Node6 -->
<g id="edge5" class="edge"><title>Node5&#45;&gt;Node6</title>
<path fill="none" stroke="midnightblue" d="M721.564,-395.784C753.85,-402.887 794.436,-411.816 824.688,-418.471"/>
<polygon fill="midnightblue" stroke="midnightblue" points="721.916,-392.278 711.397,-393.547 720.411,-399.114 721.916,-392.278"/>
</g>
<!-- Node7 -->
<g id="node7" class="node"><title>Node7</title>
<g id="a_node7"><a xlink:href="../../db/d32/classcontroller_1_1_main_controller.html#a6badeb343877f4b50f069b47afed495c" target="_top" xlink:title="controller.MainController.pass\lInput">
<polygon fill="white" stroke="black" points="790,-261 790,-291 948,-291 948,-261 790,-261"/>
<text text-anchor="start" x="798" y="-279" font-family="Helvetica,sans-Serif" font-size="10.00">controller.MainController.pass</text>
<text text-anchor="middle" x="869" y="-268" font-family="Helvetica,sans-Serif" font-size="10.00">Input</text>
</a>
</g>
</g>
<!-- Node5&#45;&gt;Node7 -->
<g id="edge6" class="edge"><title>Node5&#45;&gt;Node7</title>
<path fill="none" stroke="midnightblue" d="M691.202,-369.001C715.406,-353.621 754.677,-329.412 790,-311 803.425,-304.002 818.535,-297.025 831.855,-291.162"/>
<polygon fill="midnightblue" stroke="midnightblue" points="689.244,-366.098 682.703,-374.432 693.014,-371.996 689.244,-366.098"/>
</g>
<!-- Node15 -->
<g id="node15" class="node"><title>Node15</title>
<g id="a_node15"><a xlink:href="../../d8/ded/class_j_unit_test_1_1_compiler_test.html#a4132f77013965dda40f6d62699de349a" target="_top" xlink:title="JUnitTest.CompilerTest.test\lGrammarException">
<polygon fill="white" stroke="black" points="797.5,-369 797.5,-399 940.5,-399 940.5,-369 797.5,-369"/>
<text text-anchor="start" x="805.5" y="-387" font-family="Helvetica,sans-Serif" font-size="10.00">JUnitTest.CompilerTest.test</text>
<text text-anchor="middle" x="869" y="-376" font-family="Helvetica,sans-Serif" font-size="10.00">GrammarException</text>
</a>
</g>
</g>
<!-- Node5&#45;&gt;Node15 -->
<g id="edge16" class="edge"><title>Node5&#45;&gt;Node15</title>
<path fill="none" stroke="midnightblue" d="M748.953,-384C765.019,-384 781.765,-384 797.45,-384"/>
<polygon fill="midnightblue" stroke="midnightblue" points="748.513,-380.5 738.513,-384 748.512,-387.5 748.513,-380.5"/>
</g>
<!-- Node16 -->
<g id="node16" class="node"><title>Node16</title>
<g id="a_node16"><a xlink:href="../../d8/ded/class_j_unit_test_1_1_compiler_test.html#accbcdde8d934dd7acc552820845d6b0f" target="_top" xlink:title="JUnitTest.CompilerTest.test\lSyntaxException">
<polygon fill="white" stroke="black" points="797.5,-320 797.5,-350 940.5,-350 940.5,-320 797.5,-320"/>
<text text-anchor="start" x="805.5" y="-338" font-family="Helvetica,sans-Serif" font-size="10.00">JUnitTest.CompilerTest.test</text>
<text text-anchor="middle" x="869" y="-327" font-family="Helvetica,sans-Serif" font-size="10.00">SyntaxException</text>
</a>
</g>
</g>
<!-- Node5&#45;&gt;Node16 -->
<g id="edge17" class="edge"><title>Node5&#45;&gt;Node16</title>
<path fill="none" stroke="midnightblue" d="M717.038,-371.986C744.061,-365.365 777.862,-357.084 806.625,-350.037"/>
<polygon fill="midnightblue" stroke="midnightblue" points="715.917,-368.657 707.037,-374.436 717.582,-375.456 715.917,-368.657"/>
</g>
<!-- Node8 -->
<g id="node8" class="node"><title>Node8</title>
<g id="a_node8"><a xlink:href="../../dd/dea/classgui_1_1_g_u_i_scene.html#a7cb2b00ed820aecde169a5e14cf0d468" target="_top" xlink:title="gui.GUIScene.createGUI">
<polygon fill="white" stroke="black" points="1178,-147.5 1178,-166.5 1310,-166.5 1310,-147.5 1178,-147.5"/>
<text text-anchor="middle" x="1244" y="-154.5" font-family="Helvetica,sans-Serif" font-size="10.00">gui.GUIScene.createGUI</text>
</a>
</g>
</g>
<!-- Node7&#45;&gt;Node8 -->
<g id="edge7" class="edge"><title>Node7&#45;&gt;Node8</title>
<path fill="none" stroke="midnightblue" d="M958.25,-283.061C1013.36,-284.024 1084.52,-278.822 1142,-253 1185.69,-233.373 1222.22,-186.679 1236.52,-166.528"/>
<polygon fill="midnightblue" stroke="midnightblue" points="958.235,-279.559 948.152,-282.813 958.063,-286.557 958.235,-279.559"/>
</g>
<!-- Node13 -->
<g id="node13" class="node"><title>Node13</title>
<g id="a_node13"><a xlink:href="../../dd/dea/classgui_1_1_g_u_i_scene.html#a47e424a495817f5806f45064f77a632b" target="_top" xlink:title="gui.GUIScene.getRightBox">
<polygon fill="white" stroke="black" points="992,-185.5 992,-204.5 1134,-204.5 1134,-185.5 992,-185.5"/>
<text text-anchor="middle" x="1063" y="-192.5" font-family="Helvetica,sans-Serif" font-size="10.00">gui.GUIScene.getRightBox</text>
</a>
</g>
</g>
<!-- Node7&#45;&gt;Node13 -->
<g id="edge13" class="edge"><title>Node7&#45;&gt;Node13</title>
<path fill="none" stroke="midnightblue" d="M902.797,-255.721C925.052,-242.652 955.503,-226.091 984,-215 994.553,-210.893 1006.24,-207.383 1017.28,-204.503"/>
<polygon fill="midnightblue" stroke="midnightblue" points="900.896,-252.779 894.092,-260.9 904.475,-258.795 900.896,-252.779"/>
</g>
<!-- Node14 -->
<g id="node14" class="node"><title>Node14</title>
<g id="a_node14"><a xlink:href="../../d6/d6a/class_j_unit_test_1_1_backend_a_p_i_test.html#a86dd50c40468e1647c7c01614dc7d30d" target="_top" xlink:title="JUnitTest.BackendAPITest.test">
<polygon fill="white" stroke="black" points="984.5,-224.5 984.5,-243.5 1141.5,-243.5 1141.5,-224.5 984.5,-224.5"/>
<text text-anchor="middle" x="1063" y="-231.5" font-family="Helvetica,sans-Serif" font-size="10.00">JUnitTest.BackendAPITest.test</text>
</a>
</g>
</g>
<!-- Node7&#45;&gt;Node14 -->
<g id="edge15" class="edge"><title>Node7&#45;&gt;Node14</title>
<path fill="none" stroke="midnightblue" d="M948.547,-258.818C972.435,-253.592 997.815,-248.041 1018.5,-243.516"/>
<polygon fill="midnightblue" stroke="midnightblue" points="947.795,-255.399 938.774,-260.956 949.291,-262.238 947.795,-255.399"/>
</g>
<!-- Node9 -->
<g id="node9" class="node"><title>Node9</title>
<g id="a_node9"><a xlink:href="../../dd/dea/classgui_1_1_g_u_i_scene.html#a16324ddc026310495f84e77bbb311b2c" target="_top" xlink:title="gui.GUIScene.addButtons">
<polygon fill="white" stroke="black" points="1349,-147.5 1349,-166.5 1489,-166.5 1489,-147.5 1349,-147.5"/>
<text text-anchor="middle" x="1419" y="-154.5" font-family="Helvetica,sans-Serif" font-size="10.00">gui.GUIScene.addButtons</text>
</a>
</g>
</g>
<!-- Node8&#45;&gt;Node9 -->
<g id="edge8" class="edge"><title>Node8&#45;&gt;Node9</title>
<path fill="none" stroke="midnightblue" d="M1320.5,-150.299C1329.9,-150.215 1339.46,-150.239 1348.75,-150.371"/>
<polygon fill="midnightblue" stroke="midnightblue" points="1320.36,-146.8 1310.4,-150.432 1320.45,-153.8 1320.36,-146.8"/>
</g>
<!-- Node10 -->
<g id="node10" class="node"><title>Node10</title>
<g id="a_node10"><a xlink:href="../../dd/dea/classgui_1_1_g_u_i_scene.html#a74967ac937baee81b9eec1b2bc38167c" target="_top" xlink:title="gui.GUIScene.createScene">
<polygon fill="white" stroke="black" points="1346.5,-90.5 1346.5,-109.5 1491.5,-109.5 1491.5,-90.5 1346.5,-90.5"/>
<text text-anchor="middle" x="1419" y="-97.5" font-family="Helvetica,sans-Serif" font-size="10.00">gui.GUIScene.createScene</text>
</a>
</g>
</g>
<!-- Node8&#45;&gt;Node10 -->
<g id="edge10" class="edge"><title>Node8&#45;&gt;Node10</title>
<path fill="none" stroke="midnightblue" d="M1283.82,-144.208C1315.69,-133.71 1360.1,-119.077 1388.95,-109.572"/>
<polygon fill="midnightblue" stroke="midnightblue" points="1282.36,-141.006 1273.96,-147.459 1284.55,-147.654 1282.36,-141.006"/>
</g>
<!-- Node9&#45;&gt;Node8 -->
<g id="edge9" class="edge"><title>Node9&#45;&gt;Node8</title>
<path fill="none" stroke="midnightblue" d="M1338.59,-163.73C1329.15,-163.784 1319.61,-163.73 1310.4,-163.568"/>
<polygon fill="midnightblue" stroke="midnightblue" points="1338.79,-167.228 1348.75,-163.629 1338.72,-160.228 1338.79,-167.228"/>
</g>
<!-- Node11 -->
<g id="node11" class="node"><title>Node11</title>
<g id="a_node11"><a xlink:href="../../dd/d48/classgui_1_1_g_u_i_start.html#a82d08814fef5331d82c4763a2426ffce" target="_top" xlink:title="gui.GUIStart.start">
<polygon fill="white" stroke="black" points="1548.5,-109.5 1548.5,-128.5 1649.5,-128.5 1649.5,-109.5 1548.5,-109.5"/>
<text text-anchor="middle" x="1599" y="-116.5" font-family="Helvetica,sans-Serif" font-size="10.00">gui.GUIStart.start</text>
</a>
</g>
</g>
<!-- Node10&#45;&gt;Node11 -->
<g id="edge11" class="edge"><title>Node10&#45;&gt;Node11</title>
<path fill="none" stroke="midnightblue" d="M1501.97,-108.75C1517.81,-110.441 1533.95,-112.163 1548.36,-113.702"/>
<polygon fill="midnightblue" stroke="midnightblue" points="1501.95,-105.227 1491.63,-107.646 1501.2,-112.188 1501.95,-105.227"/>
</g>
<!-- Node12 -->
<g id="node12" class="node"><title>Node12</title>
<g id="a_node12"><a xlink:href="../../d6/d0e/classcontroller_1_1_s_logo_main.html#ab5379c32fef791f21ad51abde7d268c0" target="_top" xlink:title="controller.SLogoMain.start">
<polygon fill="white" stroke="black" points="1528,-71.5 1528,-90.5 1670,-90.5 1670,-71.5 1528,-71.5"/>
<text text-anchor="middle" x="1599" y="-78.5" font-family="Helvetica,sans-Serif" font-size="10.00">controller.SLogoMain.start</text>
</a>
</g>
</g>
<!-- Node10&#45;&gt;Node12 -->
<g id="edge12" class="edge"><title>Node10&#45;&gt;Node12</title>
<path fill="none" stroke="midnightblue" d="M1501.82,-91.2663C1510.56,-90.334 1519.38,-89.3918 1527.96,-88.4759"/>
<polygon fill="midnightblue" stroke="midnightblue" points="1501.2,-87.8124 1491.63,-92.3541 1501.95,-94.7729 1501.2,-87.8124"/>
</g>
<!-- Node13&#45;&gt;Node8 -->
<g id="edge14" class="edge"><title>Node13&#45;&gt;Node8</title>
<path fill="none" stroke="midnightblue" d="M1119.02,-183.319C1144.41,-177.93 1174.16,-171.614 1198.16,-166.52"/>
<polygon fill="midnightblue" stroke="midnightblue" points="1118.22,-179.911 1109.17,-185.411 1119.68,-186.758 1118.22,-179.911"/>
</g>
<!-- Node18 -->
<g id="node18" class="node"><title>Node18</title>
<g id="a_node18"><a xlink:href="../../dd/d5b/classsimulation_objects_1_1_turtle_list.html#ac5bdf8603fc8ffee5f54929a1c7c6610" target="_top" xlink:title="simulationObjects.Turtle\lList.init">
<polygon fill="white" stroke="black" points="402.5,-49 402.5,-79 533.5,-79 533.5,-49 402.5,-49"/>
<text text-anchor="start" x="410.5" y="-67" font-family="Helvetica,sans-Serif" font-size="10.00">simulationObjects.Turtle</text>
<text text-anchor="middle" x="468" y="-56" font-family="Helvetica,sans-Serif" font-size="10.00">List.init</text>
</a>
</g>
</g>
<!-- Node17&#45;&gt;Node18 -->
<g id="edge19" class="edge"><title>Node17&#45;&gt;Node18</title>
<path fill="none" stroke="midnightblue" d="M337.763,-64C358.885,-64 381.687,-64 402.173,-64"/>
<polygon fill="midnightblue" stroke="midnightblue" points="337.547,-60.5001 327.547,-64 337.547,-67.5001 337.547,-60.5001"/>
</g>
<!-- Node19&#45;&gt;Node4 -->
<g id="edge21" class="edge"><title>Node19&#45;&gt;Node4</title>
<path fill="none" stroke="midnightblue" d="M337.644,-473.747C343.92,-471.666 350.113,-469.416 356,-467 392.694,-451.942 432.342,-427.14 452.874,-413.583"/>
<polygon fill="midnightblue" stroke="midnightblue" points="336.223,-470.525 327.742,-476.875 338.332,-477.199 336.223,-470.525"/>
</g>
<!-- Node20&#45;&gt;Node10 -->
<g id="edge25" class="edge"><title>Node20&#45;&gt;Node10</title>
<path fill="none" stroke="midnightblue" d="M543.868,-120.832C623.711,-104.048 754.091,-81 868,-81 868,-81 868,-81 1064,-81 1161.86,-81 1274.72,-88.3294 1346.19,-93.8837"/>
<polygon fill="midnightblue" stroke="midnightblue" points="542.96,-117.447 533.906,-122.949 544.415,-124.294 542.96,-117.447"/>
</g>
<!-- Node21 -->
<g id="node21" class="node"><title>Node21</title>
<g id="a_node21"><a xlink:href="../../dd/dea/classgui_1_1_g_u_i_scene.html#aec9d26a4fa0613c7c5834bad2392eea1" target="_top" xlink:title="gui.GUIScene.addGrid">
<polygon fill="white" stroke="black" points="1002,-109.5 1002,-128.5 1124,-128.5 1124,-109.5 1002,-109.5"/>
<text text-anchor="middle" x="1063" y="-116.5" font-family="Helvetica,sans-Serif" font-size="10.00">gui.GUIScene.addGrid</text>
</a>
</g>
</g>
<!-- Node20&#45;&gt;Node21 -->
<g id="edge23" class="edge"><title>Node20&#45;&gt;Node21</title>
<path fill="none" stroke="midnightblue" d="M553.862,-135.281C675.27,-131.391 895.563,-124.333 1001.68,-120.933"/>
<polygon fill="midnightblue" stroke="midnightblue" points="553.386,-131.794 543.503,-135.613 553.61,-138.791 553.386,-131.794"/>
</g>
<!-- Node22 -->
<g id="node22" class="node"><title>Node22</title>
<g id="a_node22"><a xlink:href="../../dd/dea/classgui_1_1_g_u_i_scene.html#a2476ac9be7551f4637e28aa12d3800e4" target="_top" xlink:title="gui.GUIScene.draw">
<polygon fill="white" stroke="black" points="613.5,-147.5 613.5,-166.5 720.5,-166.5 720.5,-147.5 613.5,-147.5"/>
<text text-anchor="middle" x="667" y="-154.5" font-family="Helvetica,sans-Serif" font-size="10.00">gui.GUIScene.draw</text>
</a>
</g>
</g>
<!-- Node20&#45;&gt;Node22 -->
<g id="edge26" class="edge"><title>Node20&#45;&gt;Node22</title>
<path fill="none" stroke="midnightblue" d="M553.911,-146.189C574.107,-148.137 595.079,-150.16 613.345,-151.922"/>
<polygon fill="midnightblue" stroke="midnightblue" points="554.048,-142.686 543.758,-145.21 553.376,-149.654 554.048,-142.686"/>
</g>
<!-- Node23 -->
<g id="node23" class="node"><title>Node23</title>
<g id="a_node23"><a xlink:href="../../dd/dea/classgui_1_1_g_u_i_scene.html#a21fe0ea8ff67b7c2da45e6ad786eab56" target="_top" xlink:title="gui.GUIScene.update">
<polygon fill="white" stroke="black" points="810,-147.5 810,-166.5 928,-166.5 928,-147.5 810,-147.5"/>
<text text-anchor="middle" x="869" y="-154.5" font-family="Helvetica,sans-Serif" font-size="10.00">gui.GUIScene.update</text>
</a>
</g>
</g>
<!-- Node20&#45;&gt;Node23 -->
<g id="edge33" class="edge"><title>Node20&#45;&gt;Node23</title>
<path fill="none" stroke="midnightblue" d="M512.725,-156.699C532.82,-164.314 557.208,-172.207 580,-176 664.647,-190.088 764.922,-176.825 822.038,-166.5"/>
<polygon fill="midnightblue" stroke="midnightblue" points="513.82,-153.37 503.232,-153.003 511.28,-159.893 513.82,-153.37"/>
</g>
<!-- Node24 -->
<g id="node24" class="node"><title>Node24</title>
<g id="a_node24"><a xlink:href="../../d6/d6a/class_j_unit_test_1_1_backend_a_p_i_test.html#ad203b8b21fc5e5a28bd19bf5219ff7d6" target="_top" xlink:title="JUnitTest.BackendAPITest.testPos">
<polygon fill="white" stroke="black" points="580,-223.5 580,-242.5 754,-242.5 754,-223.5 580,-223.5"/>
<text text-anchor="middle" x="667" y="-230.5" font-family="Helvetica,sans-Serif" font-size="10.00">JUnitTest.BackendAPITest.testPos</text>
</a>
</g>
</g>
<!-- Node20&#45;&gt;Node24 -->
<g id="edge31" class="edge"><title>Node20&#45;&gt;Node24</title>
<path fill="none" stroke="midnightblue" d="M496.927,-159.188C518.612,-174.796 549.951,-195.559 580,-209 593.301,-214.949 608.429,-219.766 622.249,-223.479"/>
<polygon fill="midnightblue" stroke="midnightblue" points="498.968,-156.344 488.827,-153.274 494.84,-161.998 498.968,-156.344"/>
</g>
<!-- Node21&#45;&gt;Node8 -->
<g id="edge24" class="edge"><title>Node21&#45;&gt;Node8</title>
<path fill="none" stroke="midnightblue" d="M1119.02,-130.681C1144.41,-136.07 1174.16,-142.386 1198.16,-147.48"/>
<polygon fill="midnightblue" stroke="midnightblue" points="1119.68,-127.242 1109.17,-128.589 1118.22,-134.089 1119.68,-127.242"/>
</g>
<!-- Node22&#45;&gt;Node23 -->
<g id="edge27" class="edge"><title>Node22&#45;&gt;Node23</title>
<path fill="none" stroke="midnightblue" d="M730.764,-157C756.042,-157 785.023,-157 809.82,-157"/>
<polygon fill="midnightblue" stroke="midnightblue" points="730.548,-153.5 720.548,-157 730.548,-160.5 730.548,-153.5"/>
</g>
<!-- Node23&#45;&gt;Node8 -->
<g id="edge29" class="edge"><title>Node23&#45;&gt;Node8</title>
<path fill="none" stroke="midnightblue" d="M938.504,-157C1006.78,-157 1110.87,-157 1177.92,-157"/>
<polygon fill="midnightblue" stroke="midnightblue" points="938.281,-153.5 928.281,-157 938.281,-160.5 938.281,-153.5"/>
</g>
<!-- Node23&#45;&gt;Node13 -->
<g id="edge30" class="edge"><title>Node23&#45;&gt;Node13</title>
<path fill="none" stroke="midnightblue" d="M928.298,-168.538C955.683,-173.958 987.933,-180.341 1013.9,-185.48"/>
<polygon fill="midnightblue" stroke="midnightblue" points="928.939,-165.097 918.45,-166.589 927.58,-171.964 928.939,-165.097"/>
</g>
<!-- Node23&#45;&gt;Node21 -->
<g id="edge28" class="edge"><title>Node23&#45;&gt;Node21</title>
<path fill="none" stroke="midnightblue" d="M928.298,-145.462C955.683,-140.042 987.933,-133.659 1013.9,-128.52"/>
<polygon fill="midnightblue" stroke="midnightblue" points="927.58,-142.036 918.45,-147.411 928.939,-148.903 927.58,-142.036"/>
</g>
<!-- Node24&#45;&gt;Node14 -->
<g id="edge32" class="edge"><title>Node24&#45;&gt;Node14</title>
<path fill="none" stroke="midnightblue" d="M764.702,-233.245C832.32,-233.417 921.439,-233.643 984.414,-233.803"/>
<polygon fill="midnightblue" stroke="midnightblue" points="764.474,-229.745 754.465,-233.219 764.456,-236.745 764.474,-229.745"/>
</g>
<!-- Node25&#45;&gt;Node4 -->
<g id="edge35" class="edge"><title>Node25&#45;&gt;Node4</title>
<path fill="none" stroke="midnightblue" d="M317.427,-436.306C330.089,-433.582 343.516,-430.692 356,-428 378.068,-423.241 402.6,-417.938 422.978,-413.53"/>
<polygon fill="midnightblue" stroke="midnightblue" points="316.509,-432.923 307.469,-438.447 317.981,-439.767 316.509,-432.923"/>
</g>
<!-- Node26&#45;&gt;Node4 -->
<g id="edge37" class="edge"><title>Node26&#45;&gt;Node4</title>
<path fill="none" stroke="midnightblue" d="M354.237,-404C372.394,-404 391.011,-404 407.752,-404"/>
<polygon fill="midnightblue" stroke="midnightblue" points="354.212,-400.5 344.212,-404 354.212,-407.5 354.212,-400.5"/>
</g>
<!-- Node27&#45;&gt;Node4 -->
<g id="edge39" class="edge"><title>Node27&#45;&gt;Node4</title>
<path fill="none" stroke="midnightblue" d="M317.427,-371.694C330.089,-374.418 343.516,-377.308 356,-380 378.068,-384.759 402.6,-390.062 422.978,-394.47"/>
<polygon fill="midnightblue" stroke="midnightblue" points="317.981,-368.233 307.469,-369.553 316.509,-375.077 317.981,-368.233"/>
</g>
<!-- Node28&#45;&gt;Node4 -->
<g id="edge41" class="edge"><title>Node28&#45;&gt;Node4</title>
<path fill="none" stroke="midnightblue" d="M337.644,-334.253C343.92,-336.334 350.113,-338.584 356,-341 392.694,-356.058 432.342,-380.86 452.874,-394.417"/>
<polygon fill="midnightblue" stroke="midnightblue" points="338.332,-330.801 327.742,-331.125 336.223,-337.475 338.332,-330.801"/>
</g>
<!-- Node29&#45;&gt;Node4 -->
<g id="edge43" class="edge"><title>Node29&#45;&gt;Node4</title>
<path fill="none" stroke="midnightblue" d="M339.812,-284.734C345.435,-286.802 350.896,-289.206 356,-292 404.267,-318.422 445.168,-372.398 460.515,-394.371"/>
<polygon fill="midnightblue" stroke="midnightblue" points="340.825,-281.382 330.231,-281.561 338.624,-288.027 340.825,-281.382"/>
</g>
<!-- Node31&#45;&gt;Node4 -->
<g id="edge46" class="edge"><title>Node31&#45;&gt;Node4</title>
<path fill="none" stroke="midnightblue" d="M346.02,-247.524C349.484,-249.153 352.829,-250.971 356,-253 413.279,-289.65 451.016,-367.102 462.942,-394.306"/>
<polygon fill="midnightblue" stroke="midnightblue" points="347.193,-244.222 336.614,-243.64 344.521,-250.692 347.193,-244.222"/>
</g>
<!-- Node32&#45;&gt;Node4 -->
<g id="edge48" class="edge"><title>Node32&#45;&gt;Node4</title>
<path fill="none" stroke="midnightblue" d="M347.55,-209.783C350.489,-211.35 353.319,-213.083 356,-215 422.246,-262.358 455.303,-362.611 464.366,-394.232"/>
<polygon fill="midnightblue" stroke="midnightblue" points="348.99,-206.593 338.445,-205.566 346.048,-212.945 348.99,-206.593"/>
</g>
<!-- Node33&#45;&gt;Node4 -->
<g id="edge50" class="edge"><title>Node33&#45;&gt;Node4</title>
<path fill="none" stroke="midnightblue" d="M349.618,-172.303C351.834,-173.762 353.968,-175.325 356,-177 429.462,-237.545 458.139,-358.551 465.171,-394.016"/>
<polygon fill="midnightblue" stroke="midnightblue" points="351.122,-169.13 340.709,-167.175 347.63,-175.197 351.122,-169.13"/>
</g>
<!-- Node34&#45;&gt;Node4 -->
<g id="edge52" class="edge"><title>Node34&#45;&gt;Node4</title>
<path fill="none" stroke="midnightblue" d="M348.246,-696.652C350.969,-694.956 353.567,-693.078 356,-691 446.189,-613.982 463.43,-454.714 466.419,-413.767"/>
<polygon fill="midnightblue" stroke="midnightblue" points="346.358,-693.692 339.169,-701.474 349.642,-699.874 346.358,-693.692"/>
</g>
<!-- Node35&#45;&gt;Node4 -->
<g id="edge54" class="edge"><title>Node35&#45;&gt;Node4</title>
<path fill="none" stroke="midnightblue" d="M349.659,-646.746C351.863,-645.273 353.983,-643.693 356,-642 432.114,-578.084 459.089,-450.437 465.42,-413.95"/>
<polygon fill="midnightblue" stroke="midnightblue" points="347.663,-643.859 340.788,-651.92 351.189,-649.906 347.663,-643.859"/>
</g>
<!-- Node36&#45;&gt;Node4 -->
<g id="edge56" class="edge"><title>Node36&#45;&gt;Node4</title>
<path fill="none" stroke="midnightblue" d="M348.095,-609.033C350.844,-607.514 353.49,-605.841 356,-604 424.847,-553.504 456.345,-446.758 464.668,-413.861"/>
<polygon fill="midnightblue" stroke="midnightblue" points="346.52,-605.907 339.011,-613.382 349.542,-612.221 346.52,-605.907"/>
</g>
<!-- Node37&#45;&gt;Node4 -->
<g id="edge58" class="edge"><title>Node37&#45;&gt;Node4</title>
<path fill="none" stroke="midnightblue" d="M344.139,-571.608C348.284,-569.685 352.27,-567.495 356,-565 415.262,-525.363 451.991,-442.416 463.277,-413.887"/>
<polygon fill="midnightblue" stroke="midnightblue" points="342.78,-568.382 334.846,-575.404 345.427,-574.862 342.78,-568.382"/>
</g>
</g>
</svg>
        <g id="navigator" transform="translate(0 0)" fill="#404254">
                <rect fill="#f2f5e9" fill-opacity="0.5" stroke="#606060" stroke-width=".5" x="0" y="0" width="60" height="60"/>
                <use id="zoomplus" xlink:href="#zoomPlus" x="17" y="9" onmousedown="handleZoom(evt,'in')"/>
                <use id="zoomminus" xlink:href="#zoomMin" x="42" y="9" onmousedown="handleZoom(evt,'out')"/>
                <use id="reset" xlink:href="#resetDef" x="30" y="36" onmousedown="handleReset()"/>
                <g id="arrowUp" xlink:href="#dirArrow" transform="translate(30 24)" onmousedown="handlePan(0,-1)">
                  <use xlink:href="#rim" fill="#404040">
                        <set attributeName="fill" to="#808080" begin="arrowUp.mouseover" end="arrowUp.mouseout"/>
                  </use>
                  <path fill="none" stroke="white" stroke-width="1.5" d="M0,-3.0v7 M-2.5,-0.5L0,-3.0L2.5,-0.5"/>
                </g>
                <g id="arrowRight" xlink:href="#dirArrow" transform="rotate(90) translate(36 -43)" onmousedown="handlePan(1,0)">
                  <use xlink:href="#rim" fill="#404040">
                        <set attributeName="fill" to="#808080" begin="arrowRight.mouseover" end="arrowRight.mouseout"/>
                  </use>
                  <path fill="none" stroke="white" stroke-width="1.5" d="M0,-3.0v7 M-2.5,-0.5L0,-3.0L2.5,-0.5"/>
                </g>
                <g id="arrowDown" xlink:href="#dirArrow" transform="rotate(180) translate(-30 -48)" onmousedown="handlePan(0,1)">
                  <use xlink:href="#rim" fill="#404040">
                        <set attributeName="fill" to="#808080" begin="arrowDown.mouseover" end="arrowDown.mouseout"/>
                  </use>
                  <path fill="none" stroke="white" stroke-width="1.5" d="M0,-3.0v7 M-2.5,-0.5L0,-3.0L2.5,-0.5"/>
                </g>
                <g id="arrowLeft" xlink:href="#dirArrow" transform="rotate(270) translate(-36 17)" onmousedown="handlePan(-1,0)">
                  <use xlink:href="#rim" fill="#404040">
                        <set attributeName="fill" to="#808080" begin="arrowLeft.mouseover" end="arrowLeft.mouseout"/>
                  </use>
                  <path fill="none" stroke="white" stroke-width="1.5" d="M0,-3.0v7 M-2.5,-0.5L0,-3.0L2.5,-0.5"/>
                </g>
        </g>
        <svg viewBox="0 0 15 15" width="100%" height="30px" preserveAspectRatio="xMaxYMin meet">
         <g id="arrow_out" transform="scale(0.3 0.3)">
          <a xlink:href="namespacesimulation_objects_a02779129356465b8d266330b211f83f1_icgraph_org.svg" target="_base">
           <rect id="button" ry="5" rx="5" y="6" x="6" height="38" width="38"
                fill="#f2f5e9" fill-opacity="0.5" stroke="#606060" stroke-width="1.0"/>
           <path id="arrow"
             d="M 11.500037,31.436501 C 11.940474,20.09759 22.043105,11.32322 32.158766,21.979434 L 37.068811,17.246167 C 37.068811,17.246167 37.088388,32 37.088388,32 L 22.160133,31.978069 C 22.160133,31.978069 26.997745,27.140456 26.997745,27.140456 C 18.528582,18.264221 13.291696,25.230495 11.500037,31.436501 z"
             style="fill:#404040;"/>
          </a>
         </g>
        </svg>
</svg>
