<?xml version="1.0" encoding="UTF-8" standalone="no"?>
<!DOCTYPE svg PUBLIC "-//W3C//DTD SVG 1.1//EN"
 "http://www.w3.org/Graphics/SVG/1.1/DTD/svg11.dtd">
<!-- Generated by graphviz version 2.36.0 (20140111.2315)
 -->
<!-- Title: gui.GUIScene.draw Pages: 1 -->
<svg width="472pt" height="234pt"
 viewBox="0.00 0.00 472.00 234.00" xmlns="http://www.w3.org/2000/svg" xmlns:xlink="http://www.w3.org/1999/xlink">
<g id="graph0" class="graph" transform="scale(1 1) rotate(0) translate(4 230)">
<title>gui.GUIScene.draw</title>
<polygon fill="white" stroke="none" points="-4,4 -4,-230 468,-230 468,4 -4,4"/>
<!-- Node1 -->
<g id="node1" class="node"><title>Node1</title>
<polygon fill="#bfbfbf" stroke="black" points="0.5,-103.5 0.5,-122.5 107.5,-122.5 107.5,-103.5 0.5,-103.5"/>
<text text-anchor="middle" x="54" y="-110.5" font-family="Helvetica,sans-Serif" font-size="10.00">gui.GUIScene.draw</text>
</g>
<!-- Node2 -->
<g id="node2" class="node"><title>Node2</title>
<g id="a_node2"><a xlink:href="../../dd/dd2/classsimulation_objects_1_1_pen.html#a6ce8186088005083ce0700c771879a0d" target="_top" xlink:title="simulationObjects.Pen.get\lActive">
<polygon fill="white" stroke="black" points="149,-196 149,-226 291,-226 291,-196 149,-196"/>
<text text-anchor="start" x="157" y="-214" font-family="Helvetica,sans-Serif" font-size="10.00">simulationObjects.Pen.get</text>
<text text-anchor="middle" x="220" y="-203" font-family="Helvetica,sans-Serif" font-size="10.00">Active</text>
</a>
</g>
</g>
<!-- Node1&#45;&gt;Node2 -->
<g id="edge1" class="edge"><title>Node1&#45;&gt;Node2</title>
<path fill="none" stroke="midnightblue" d="M64.5207,-122.858C79.9142,-138.293 111.808,-168.231 144,-186 147.89,-188.147 151.996,-190.151 156.201,-192.014"/>
<polygon fill="midnightblue" stroke="midnightblue" points="154.939,-195.28 165.518,-195.866 157.614,-188.811 154.939,-195.28"/>
</g>
<!-- Node3 -->
<g id="node3" class="node"><title>Node3</title>
<g id="a_node3"><a xlink:href="../../dd/dd2/classsimulation_objects_1_1_pen.html#aee57d795b9bd15dfda8d2bd01c20b00e" target="_top" xlink:title="simulationObjects.Pen.get\lColor">
<polygon fill="white" stroke="black" points="149,-147 149,-177 291,-177 291,-147 149,-147"/>
<text text-anchor="start" x="157" y="-165" font-family="Helvetica,sans-Serif" font-size="10.00">simulationObjects.Pen.get</text>
<text text-anchor="middle" x="220" y="-154" font-family="Helvetica,sans-Serif" font-size="10.00">Color</text>
</a>
</g>
</g>
<!-- Node1&#45;&gt;Node3 -->
<g id="edge2" class="edge"><title>Node1&#45;&gt;Node3</title>
<path fill="none" stroke="midnightblue" d="M87.0102,-122.564C107.41,-128.659 134.486,-136.749 158.803,-144.014"/>
<polygon fill="midnightblue" stroke="midnightblue" points="158.089,-147.454 168.672,-146.963 160.093,-140.747 158.089,-147.454"/>
</g>
<!-- Node4 -->
<g id="node4" class="node"><title>Node4</title>
<g id="a_node4"><a xlink:href="../../dd/dd2/classsimulation_objects_1_1_pen.html#a2926d21b406268e8c516a67dad943437" target="_top" xlink:title="simulationObjects.Pen.get\lStyle">
<polygon fill="white" stroke="black" points="149,-98 149,-128 291,-128 291,-98 149,-98"/>
<text text-anchor="start" x="157" y="-116" font-family="Helvetica,sans-Serif" font-size="10.00">simulationObjects.Pen.get</text>
<text text-anchor="middle" x="220" y="-105" font-family="Helvetica,sans-Serif" font-size="10.00">Style</text>
</a>
</g>
</g>
<!-- Node1&#45;&gt;Node4 -->
<g id="edge3" class="edge"><title>Node1&#45;&gt;Node4</title>
<path fill="none" stroke="midnightblue" d="M107.793,-113C117.728,-113 128.32,-113 138.871,-113"/>
<polygon fill="midnightblue" stroke="midnightblue" points="138.951,-116.5 148.951,-113 138.951,-109.5 138.951,-116.5"/>
</g>
<!-- Node5 -->
<g id="node5" class="node"><title>Node5</title>
<g id="a_node5"><a xlink:href="../../db/d32/classcontroller_1_1_main_controller.html#a422fc72151a8108190c4c945f3f5cd7a" target="_top" xlink:title="controller.MainController.get\lTurtle">
<polygon fill="white" stroke="black" points="144.5,-49 144.5,-79 295.5,-79 295.5,-49 144.5,-49"/>
<text text-anchor="start" x="152.5" y="-67" font-family="Helvetica,sans-Serif" font-size="10.00">controller.MainController.get</text>
<text text-anchor="middle" x="220" y="-56" font-family="Helvetica,sans-Serif" font-size="10.00">Turtle</text>
</a>
</g>
</g>
<!-- Node1&#45;&gt;Node5 -->
<g id="edge4" class="edge"><title>Node1&#45;&gt;Node5</title>
<path fill="none" stroke="midnightblue" d="M87.0102,-103.436C107.41,-97.3408 134.486,-89.2512 158.803,-81.9857"/>
<polygon fill="midnightblue" stroke="midnightblue" points="160.093,-85.2533 168.672,-79.037 158.089,-78.5463 160.093,-85.2533"/>
</g>
<!-- Node7 -->
<g id="node7" class="node"><title>Node7</title>
<g id="a_node7"><a xlink:href="../../dd/dd2/classsimulation_objects_1_1_pen.html#ac2beabc7113d01d4f5d3a136575f7295" target="_top" xlink:title="simulationObjects.Pen.get\lWidth">
<polygon fill="white" stroke="black" points="149,-0 149,-30 291,-30 291,-0 149,-0"/>
<text text-anchor="start" x="157" y="-18" font-family="Helvetica,sans-Serif" font-size="10.00">simulationObjects.Pen.get</text>
<text text-anchor="middle" x="220" y="-7" font-family="Helvetica,sans-Serif" font-size="10.00">Width</text>
</a>
</g>
</g>
<!-- Node1&#45;&gt;Node7 -->
<g id="edge6" class="edge"><title>Node1&#45;&gt;Node7</title>
<path fill="none" stroke="midnightblue" d="M64.5207,-103.142C79.9142,-87.707 111.808,-57.7691 144,-40 147.89,-37.8527 151.996,-35.8487 156.201,-33.9861"/>
<polygon fill="midnightblue" stroke="midnightblue" points="157.614,-37.1891 165.518,-30.1336 154.939,-30.7203 157.614,-37.1891"/>
</g>
<!-- Node6 -->
<g id="node6" class="node"><title>Node6</title>
<g id="a_node6"><a xlink:href="../../de/d1c/namespacesimulation_objects.html#a02779129356465b8d266330b211f83f1" target="_top" xlink:title="simulationObjects.Turtle">
<polygon fill="white" stroke="black" points="332.5,-54.5 332.5,-73.5 463.5,-73.5 463.5,-54.5 332.5,-54.5"/>
<text text-anchor="middle" x="398" y="-61.5" font-family="Helvetica,sans-Serif" font-size="10.00">simulationObjects.Turtle</text>
</a>
</g>
</g>
<!-- Node5&#45;&gt;Node6 -->
<g id="edge5" class="edge"><title>Node5&#45;&gt;Node6</title>
<path fill="none" stroke="midnightblue" d="M295.64,-64C304.394,-64 313.329,-64 322.086,-64"/>
<polygon fill="midnightblue" stroke="midnightblue" points="322.265,-67.5001 332.265,-64 322.265,-60.5001 322.265,-67.5001"/>
</g>
</g>
</svg>
