<?xml version="1.0" encoding="UTF-8" standalone="no"?>
<!DOCTYPE svg PUBLIC "-//W3C//DTD SVG 1.1//EN"
 "http://www.w3.org/Graphics/SVG/1.1/DTD/svg11.dtd">
<!-- Generated by graphviz version 2.36.0 (20140111.2315)
 -->
<!-- Title: gui.GUIScene.getTopToolBar Pages: 1 -->
<svg width="686pt" height="85pt"
 viewBox="0.00 0.00 686.00 85.00" xmlns="http://www.w3.org/2000/svg" xmlns:xlink="http://www.w3.org/1999/xlink">
<g id="graph0" class="graph" transform="scale(1 1) rotate(0) translate(4 81)">
<title>gui.GUIScene.getTopToolBar</title>
<polygon fill="white" stroke="none" points="-4,4 -4,-81 682,-81 682,4 -4,4"/>
<!-- Node1 -->
<g id="node1" class="node"><title>Node1</title>
<polygon fill="#bfbfbf" stroke="black" points="0,-57.5 0,-76.5 150,-76.5 150,-57.5 0,-57.5"/>
<text text-anchor="middle" x="75" y="-64.5" font-family="Helvetica,sans-Serif" font-size="10.00">gui.GUIScene.getTopToolBar</text>
</g>
<!-- Node2 -->
<g id="node2" class="node"><title>Node2</title>
<g id="a_node2"><a xlink:href="../../dd/dea/classgui_1_1_g_u_i_scene.html#a7cb2b00ed820aecde169a5e14cf0d468" target="_top" xlink:title="gui.GUIScene.createGUI">
<polygon fill="white" stroke="black" points="186,-57.5 186,-76.5 318,-76.5 318,-57.5 186,-57.5"/>
<text text-anchor="middle" x="252" y="-64.5" font-family="Helvetica,sans-Serif" font-size="10.00">gui.GUIScene.createGUI</text>
</a>
</g>
</g>
<!-- Node1&#45;&gt;Node2 -->
<g id="edge1" class="edge"><title>Node1&#45;&gt;Node2</title>
<path fill="none" stroke="midnightblue" d="M160.257,-67C168.844,-67 177.472,-67 185.811,-67"/>
<polygon fill="midnightblue" stroke="midnightblue" points="160.216,-63.5001 150.216,-67 160.216,-70.5001 160.216,-63.5001"/>
</g>
<!-- Node3 -->
<g id="node3" class="node"><title>Node3</title>
<g id="a_node3"><a xlink:href="../../dd/dea/classgui_1_1_g_u_i_scene.html#a16324ddc026310495f84e77bbb311b2c" target="_top" xlink:title="gui.GUIScene.addButtons">
<polygon fill="white" stroke="black" points="357,-57.5 357,-76.5 497,-76.5 497,-57.5 357,-57.5"/>
<text text-anchor="middle" x="427" y="-64.5" font-family="Helvetica,sans-Serif" font-size="10.00">gui.GUIScene.addButtons</text>
</a>
</g>
</g>
<!-- Node2&#45;&gt;Node3 -->
<g id="edge2" class="edge"><title>Node2&#45;&gt;Node3</title>
<path fill="none" stroke="midnightblue" d="M328.504,-60.2987C337.896,-60.2151 347.463,-60.2391 356.754,-60.3708"/>
<polygon fill="midnightblue" stroke="midnightblue" points="328.357,-56.8002 318.404,-60.4317 328.449,-63.7996 328.357,-56.8002"/>
</g>
<!-- Node4 -->
<g id="node4" class="node"><title>Node4</title>
<g id="a_node4"><a xlink:href="../../dd/dea/classgui_1_1_g_u_i_scene.html#a74967ac937baee81b9eec1b2bc38167c" target="_top" xlink:title="gui.GUIScene.createScene">
<polygon fill="white" stroke="black" points="354.5,-19.5 354.5,-38.5 499.5,-38.5 499.5,-19.5 354.5,-19.5"/>
<text text-anchor="middle" x="427" y="-26.5" font-family="Helvetica,sans-Serif" font-size="10.00">gui.GUIScene.createScene</text>
</a>
</g>
</g>
<!-- Node2&#45;&gt;Node4 -->
<g id="edge4" class="edge"><title>Node2&#45;&gt;Node4</title>
<path fill="none" stroke="midnightblue" d="M306.505,-55.2474C330.967,-49.8742 359.571,-43.5914 382.659,-38.5201"/>
<polygon fill="midnightblue" stroke="midnightblue" points="305.671,-51.847 296.655,-57.411 307.173,-58.684 305.671,-51.847"/>
</g>
<!-- Node3&#45;&gt;Node2 -->
<g id="edge3" class="edge"><title>Node3&#45;&gt;Node2</title>
<path fill="none" stroke="midnightblue" d="M346.585,-73.7298C337.154,-73.7836 327.609,-73.7298 318.404,-73.5683"/>
<polygon fill="midnightblue" stroke="midnightblue" points="346.789,-77.2281 356.754,-73.6292 346.719,-70.2284 346.789,-77.2281"/>
</g>
<!-- Node5 -->
<g id="node5" class="node"><title>Node5</title>
<g id="a_node5"><a xlink:href="../../dd/d48/classgui_1_1_g_u_i_start.html#a82d08814fef5331d82c4763a2426ffce" target="_top" xlink:title="gui.GUIStart.start">
<polygon fill="white" stroke="black" points="556.5,-38.5 556.5,-57.5 657.5,-57.5 657.5,-38.5 556.5,-38.5"/>
<text text-anchor="middle" x="607" y="-45.5" font-family="Helvetica,sans-Serif" font-size="10.00">gui.GUIStart.start</text>
</a>
</g>
</g>
<!-- Node4&#45;&gt;Node5 -->
<g id="edge5" class="edge"><title>Node4&#45;&gt;Node5</title>
<path fill="none" stroke="midnightblue" d="M509.974,-37.7501C525.814,-39.4408 541.952,-41.1634 556.365,-42.7019"/>
<polygon fill="midnightblue" stroke="midnightblue" points="509.945,-34.2271 499.63,-36.6459 509.202,-41.1876 509.945,-34.2271"/>
</g>
<!-- Node6 -->
<g id="node6" class="node"><title>Node6</title>
<g id="a_node6"><a xlink:href="../../d6/d0e/classcontroller_1_1_s_logo_main.html#ab5379c32fef791f21ad51abde7d268c0" target="_top" xlink:title="controller.SLogoMain.start">
<polygon fill="white" stroke="black" points="536,-0.5 536,-19.5 678,-19.5 678,-0.5 536,-0.5"/>
<text text-anchor="middle" x="607" y="-7.5" font-family="Helvetica,sans-Serif" font-size="10.00">controller.SLogoMain.start</text>
</a>
</g>
</g>
<!-- Node4&#45;&gt;Node6 -->
<g id="edge6" class="edge"><title>Node4&#45;&gt;Node6</title>
<path fill="none" stroke="midnightblue" d="M509.821,-20.2663C518.555,-19.334 527.382,-18.3918 535.963,-17.4759"/>
<polygon fill="midnightblue" stroke="midnightblue" points="509.202,-16.8124 499.63,-21.3541 509.945,-23.7729 509.202,-16.8124"/>
</g>
</g>
</svg>
