<?xml version="1.0" encoding="UTF-8" standalone="no"?>
<!DOCTYPE svg PUBLIC "-//W3C//DTD SVG 1.1//EN"
 "http://www.w3.org/Graphics/SVG/1.1/DTD/svg11.dtd">
<!-- Generated by graphviz version 2.36.0 (20140111.2315)
 -->
<!-- Title: gui.GUIScene.addButtons Pages: 1 -->
<svg width="676pt" height="66pt"
 viewBox="0.00 0.00 676.00 66.00" xmlns="http://www.w3.org/2000/svg" xmlns:xlink="http://www.w3.org/1999/xlink">
<g id="graph0" class="graph" transform="scale(1 1) rotate(0) translate(4 62)">
<title>gui.GUIScene.addButtons</title>
<polygon fill="white" stroke="none" points="-4,4 -4,-62 672,-62 672,4 -4,4"/>
<!-- Node1 -->
<g id="node1" class="node"><title>Node1</title>
<polygon fill="#bfbfbf" stroke="black" points="0,-19.5 0,-38.5 140,-38.5 140,-19.5 0,-19.5"/>
<text text-anchor="middle" x="70" y="-26.5" font-family="Helvetica,sans-Serif" font-size="10.00">gui.GUIScene.addButtons</text>
</g>
<!-- Node2 -->
<g id="node2" class="node"><title>Node2</title>
<g id="a_node2"><a xlink:href="../../dd/dea/classgui_1_1_g_u_i_scene.html#a7cb2b00ed820aecde169a5e14cf0d468" target="_top" xlink:title="gui.GUIScene.createGUI">
<polygon fill="white" stroke="black" points="176,-19.5 176,-38.5 308,-38.5 308,-19.5 176,-19.5"/>
<text text-anchor="middle" x="242" y="-26.5" font-family="Helvetica,sans-Serif" font-size="10.00">gui.GUIScene.createGUI</text>
</a>
</g>
</g>
<!-- Node1&#45;&gt;Node2 -->
<g id="edge1" class="edge"><title>Node1&#45;&gt;Node2</title>
<path fill="none" stroke="midnightblue" d="M150.152,-22.2642C158.725,-22.2225 167.378,-22.2727 175.76,-22.4148"/>
<polygon fill="midnightblue" stroke="midnightblue" points="150.113,-18.7643 140.146,-22.3555 150.177,-25.764 150.113,-18.7643"/>
</g>
<!-- Node2&#45;&gt;Node1 -->
<g id="edge5" class="edge"><title>Node2&#45;&gt;Node1</title>
<path fill="none" stroke="midnightblue" d="M165.538,-35.7121C157.088,-35.7795 148.511,-35.757 140.146,-35.6445"/>
<polygon fill="midnightblue" stroke="midnightblue" points="165.804,-39.2092 175.76,-35.5852 165.717,-32.2097 165.804,-39.2092"/>
</g>
<!-- Node3 -->
<g id="node3" class="node"><title>Node3</title>
<g id="a_node3"><a xlink:href="../../dd/dea/classgui_1_1_g_u_i_scene.html#a74967ac937baee81b9eec1b2bc38167c" target="_top" xlink:title="gui.GUIScene.createScene">
<polygon fill="white" stroke="black" points="344.5,-19.5 344.5,-38.5 489.5,-38.5 489.5,-19.5 344.5,-19.5"/>
<text text-anchor="middle" x="417" y="-26.5" font-family="Helvetica,sans-Serif" font-size="10.00">gui.GUIScene.createScene</text>
</a>
</g>
</g>
<!-- Node2&#45;&gt;Node3 -->
<g id="edge2" class="edge"><title>Node2&#45;&gt;Node3</title>
<path fill="none" stroke="midnightblue" d="M318.445,-29C327.074,-29 335.853,-29 344.43,-29"/>
<polygon fill="midnightblue" stroke="midnightblue" points="318.404,-25.5001 308.404,-29 318.404,-32.5001 318.404,-25.5001"/>
</g>
<!-- Node4 -->
<g id="node4" class="node"><title>Node4</title>
<g id="a_node4"><a xlink:href="../../d6/d0e/classcontroller_1_1_s_logo_main.html#ab5379c32fef791f21ad51abde7d268c0" target="_top" xlink:title="controller.SLogoMain.start">
<polygon fill="white" stroke="black" points="526,-38.5 526,-57.5 668,-57.5 668,-38.5 526,-38.5"/>
<text text-anchor="middle" x="597" y="-45.5" font-family="Helvetica,sans-Serif" font-size="10.00">controller.SLogoMain.start</text>
</a>
</g>
</g>
<!-- Node3&#45;&gt;Node4 -->
<g id="edge3" class="edge"><title>Node3&#45;&gt;Node4</title>
<path fill="none" stroke="midnightblue" d="M499.821,-37.7337C508.555,-38.666 517.382,-39.6082 525.963,-40.5241"/>
<polygon fill="midnightblue" stroke="midnightblue" points="499.945,-34.2271 489.63,-36.6459 499.202,-41.1876 499.945,-34.2271"/>
</g>
<!-- Node5 -->
<g id="node5" class="node"><title>Node5</title>
<g id="a_node5"><a xlink:href="../../dd/d48/classgui_1_1_g_u_i_start.html#a82d08814fef5331d82c4763a2426ffce" target="_top" xlink:title="gui.GUIStart.start">
<polygon fill="white" stroke="black" points="546.5,-0.5 546.5,-19.5 647.5,-19.5 647.5,-0.5 546.5,-0.5"/>
<text text-anchor="middle" x="597" y="-7.5" font-family="Helvetica,sans-Serif" font-size="10.00">gui.GUIStart.start</text>
</a>
</g>
</g>
<!-- Node3&#45;&gt;Node5 -->
<g id="edge4" class="edge"><title>Node3&#45;&gt;Node5</title>
<path fill="none" stroke="midnightblue" d="M499.974,-20.2499C515.814,-18.5592 531.952,-16.8366 546.365,-15.2981"/>
<polygon fill="midnightblue" stroke="midnightblue" points="499.202,-16.8124 489.63,-21.3541 499.945,-23.7729 499.202,-16.8124"/>
</g>
</g>
</svg>
