<?xml version="1.0" encoding="UTF-8" standalone="no"?>
<!DOCTYPE svg PUBLIC "-//W3C//DTD SVG 1.1//EN"
 "http://www.w3.org/Graphics/SVG/1.1/DTD/svg11.dtd">
<!-- Generated by graphviz version 2.36.0 (20140111.2315)
 -->
<!-- Title: gui.GUIScene.getTopToolBar Pages: 1 -->
<svg width="320pt" height="66pt"
 viewBox="0.00 0.00 320.00 66.00" xmlns="http://www.w3.org/2000/svg" xmlns:xlink="http://www.w3.org/1999/xlink">
<g id="graph0" class="graph" transform="scale(1 1) rotate(0) translate(4 62)">
<title>gui.GUIScene.getTopToolBar</title>
<polygon fill="white" stroke="none" points="-4,4 -4,-62 316,-62 316,4 -4,4"/>
<!-- Node1 -->
<g id="node1" class="node"><title>Node1</title>
<polygon fill="#bfbfbf" stroke="black" points="0,-19.5 0,-38.5 150,-38.5 150,-19.5 0,-19.5"/>
<text text-anchor="middle" x="75" y="-26.5" font-family="Helvetica,sans-Serif" font-size="10.00">gui.GUIScene.getTopToolBar</text>
</g>
<!-- Node2 -->
<g id="node2" class="node"><title>Node2</title>
<g id="a_node2"><a xlink:href="../../dd/d5e/classgui_1_1_read_and_write.html#a8ee19c8e12eba8ab078cff616ab68867" target="_top" xlink:title="gui.ReadAndWrite.read">
<polygon fill="white" stroke="black" points="187,-38.5 187,-57.5 311,-57.5 311,-38.5 187,-38.5"/>
<text text-anchor="middle" x="249" y="-45.5" font-family="Helvetica,sans-Serif" font-size="10.00">gui.ReadAndWrite.read</text>
</a>
</g>
</g>
<!-- Node1&#45;&gt;Node2 -->
<g id="edge1" class="edge"><title>Node1&#45;&gt;Node2</title>
<path fill="none" stroke="midnightblue" d="M150.191,-37.1956C159.014,-38.1701 168.005,-39.1633 176.784,-40.1331"/>
<polygon fill="midnightblue" stroke="midnightblue" points="176.646,-43.6391 186.97,-41.2583 177.415,-36.6814 176.646,-43.6391"/>
</g>
<!-- Node3 -->
<g id="node3" class="node"><title>Node3</title>
<g id="a_node3"><a xlink:href="../../dd/d5e/classgui_1_1_read_and_write.html#aee8fdd8c07c5f90bc6a134c8040eee70" target="_top" xlink:title="gui.ReadAndWrite.write">
<polygon fill="white" stroke="black" points="186.5,-0.5 186.5,-19.5 311.5,-19.5 311.5,-0.5 186.5,-0.5"/>
<text text-anchor="middle" x="249" y="-7.5" font-family="Helvetica,sans-Serif" font-size="10.00">gui.ReadAndWrite.write</text>
</a>
</g>
</g>
<!-- Node1&#45;&gt;Node3 -->
<g id="edge2" class="edge"><title>Node1&#45;&gt;Node3</title>
<path fill="none" stroke="midnightblue" d="M150.191,-20.8044C158.883,-19.8443 167.738,-18.8661 176.394,-17.91"/>
<polygon fill="midnightblue" stroke="midnightblue" points="176.885,-21.3771 186.441,-16.8002 176.117,-14.4194 176.885,-21.3771"/>
</g>
</g>
</svg>
