<?xml version="1.0" encoding="UTF-8" standalone="no"?>
<!DOCTYPE svg PUBLIC "-//W3C//DTD SVG 1.1//EN"
 "http://www.w3.org/Graphics/SVG/1.1/DTD/svg11.dtd">
<!-- Generated by graphviz version 2.36.0 (20140111.2315)
 -->
<!-- Title: gui.GUIScene.update Pages: 1 -->
<svg width="832pt" height="123pt"
 viewBox="0.00 0.00 832.00 123.00" xmlns="http://www.w3.org/2000/svg" xmlns:xlink="http://www.w3.org/1999/xlink">
<g id="graph0" class="graph" transform="scale(1 1) rotate(0) translate(4 119)">
<title>gui.GUIScene.update</title>
<polygon fill="white" stroke="none" points="-4,4 -4,-119 828,-119 828,4 -4,4"/>
<!-- Node1 -->
<g id="node1" class="node"><title>Node1</title>
<polygon fill="#bfbfbf" stroke="black" points="0,-57.5 0,-76.5 118,-76.5 118,-57.5 0,-57.5"/>
<text text-anchor="middle" x="59" y="-64.5" font-family="Helvetica,sans-Serif" font-size="10.00">gui.GUIScene.update</text>
</g>
<!-- Node2 -->
<g id="node2" class="node"><title>Node2</title>
<g id="a_node2"><a xlink:href="../../dd/dea/classgui_1_1_g_u_i_scene.html#aec9d26a4fa0613c7c5834bad2392eea1" target="_top" xlink:title="gui.GUIScene.addGrid">
<polygon fill="white" stroke="black" points="164,-95.5 164,-114.5 286,-114.5 286,-95.5 164,-95.5"/>
<text text-anchor="middle" x="225" y="-102.5" font-family="Helvetica,sans-Serif" font-size="10.00">gui.GUIScene.addGrid</text>
</a>
</g>
</g>
<!-- Node1&#45;&gt;Node2 -->
<g id="edge1" class="edge"><title>Node1&#45;&gt;Node2</title>
<path fill="none" stroke="midnightblue" d="M111.341,-78.8961C134.393,-84.2374 161.221,-90.4537 182.913,-95.4799"/>
<polygon fill="midnightblue" stroke="midnightblue" points="111.916,-75.4367 101.384,-76.589 110.336,-82.256 111.916,-75.4367"/>
</g>
<!-- Node3 -->
<g id="node3" class="node"><title>Node3</title>
<g id="a_node3"><a xlink:href="../../dd/dea/classgui_1_1_g_u_i_scene.html#a7cb2b00ed820aecde169a5e14cf0d468" target="_top" xlink:title="gui.GUIScene.createGUI">
<polygon fill="white" stroke="black" points="332,-57.5 332,-76.5 464,-76.5 464,-57.5 332,-57.5"/>
<text text-anchor="middle" x="398" y="-64.5" font-family="Helvetica,sans-Serif" font-size="10.00">gui.GUIScene.createGUI</text>
</a>
</g>
</g>
<!-- Node1&#45;&gt;Node3 -->
<g id="edge8" class="edge"><title>Node1&#45;&gt;Node3</title>
<path fill="none" stroke="midnightblue" d="M128.366,-67C187.84,-67 273.434,-67 331.92,-67"/>
<polygon fill="midnightblue" stroke="midnightblue" points="128.316,-63.5001 118.316,-67 128.316,-70.5001 128.316,-63.5001"/>
</g>
<!-- Node8 -->
<g id="node8" class="node"><title>Node8</title>
<g id="a_node8"><a xlink:href="../../dd/dea/classgui_1_1_g_u_i_scene.html#a47e424a495817f5806f45064f77a632b" target="_top" xlink:title="gui.GUIScene.getRightBox">
<polygon fill="white" stroke="black" points="154,-19.5 154,-38.5 296,-38.5 296,-19.5 154,-19.5"/>
<text text-anchor="middle" x="225" y="-26.5" font-family="Helvetica,sans-Serif" font-size="10.00">gui.GUIScene.getRightBox</text>
</a>
</g>
</g>
<!-- Node1&#45;&gt;Node8 -->
<g id="edge9" class="edge"><title>Node1&#45;&gt;Node8</title>
<path fill="none" stroke="midnightblue" d="M111.341,-55.1039C134.393,-49.7626 161.221,-43.5463 182.913,-38.5201"/>
<polygon fill="midnightblue" stroke="midnightblue" points="110.336,-51.744 101.384,-57.411 111.916,-58.5633 110.336,-51.744"/>
</g>
<!-- Node2&#45;&gt;Node3 -->
<g id="edge2" class="edge"><title>Node2&#45;&gt;Node3</title>
<path fill="none" stroke="midnightblue" d="M279.209,-93.1757C303.317,-87.8184 331.44,-81.5689 354.16,-76.5201"/>
<polygon fill="midnightblue" stroke="midnightblue" points="278.153,-89.825 269.151,-95.411 279.672,-96.6583 278.153,-89.825"/>
</g>
<!-- Node4 -->
<g id="node4" class="node"><title>Node4</title>
<g id="a_node4"><a xlink:href="../../dd/dea/classgui_1_1_g_u_i_scene.html#a16324ddc026310495f84e77bbb311b2c" target="_top" xlink:title="gui.GUIScene.addButtons">
<polygon fill="white" stroke="black" points="503,-57.5 503,-76.5 643,-76.5 643,-57.5 503,-57.5"/>
<text text-anchor="middle" x="573" y="-64.5" font-family="Helvetica,sans-Serif" font-size="10.00">gui.GUIScene.addButtons</text>
</a>
</g>
</g>
<!-- Node3&#45;&gt;Node4 -->
<g id="edge3" class="edge"><title>Node3&#45;&gt;Node4</title>
<path fill="none" stroke="midnightblue" d="M474.504,-60.2987C483.896,-60.2151 493.463,-60.2391 502.754,-60.3708"/>
<polygon fill="midnightblue" stroke="midnightblue" points="474.357,-56.8002 464.404,-60.4317 474.449,-63.7996 474.357,-56.8002"/>
</g>
<!-- Node5 -->
<g id="node5" class="node"><title>Node5</title>
<g id="a_node5"><a xlink:href="../../dd/dea/classgui_1_1_g_u_i_scene.html#a74967ac937baee81b9eec1b2bc38167c" target="_top" xlink:title="gui.GUIScene.createScene">
<polygon fill="white" stroke="black" points="500.5,-19.5 500.5,-38.5 645.5,-38.5 645.5,-19.5 500.5,-19.5"/>
<text text-anchor="middle" x="573" y="-26.5" font-family="Helvetica,sans-Serif" font-size="10.00">gui.GUIScene.createScene</text>
</a>
</g>
</g>
<!-- Node3&#45;&gt;Node5 -->
<g id="edge5" class="edge"><title>Node3&#45;&gt;Node5</title>
<path fill="none" stroke="midnightblue" d="M452.505,-55.2474C476.967,-49.8742 505.571,-43.5914 528.659,-38.5201"/>
<polygon fill="midnightblue" stroke="midnightblue" points="451.671,-51.847 442.655,-57.411 453.173,-58.684 451.671,-51.847"/>
</g>
<!-- Node4&#45;&gt;Node3 -->
<g id="edge4" class="edge"><title>Node4&#45;&gt;Node3</title>
<path fill="none" stroke="midnightblue" d="M492.585,-73.7298C483.154,-73.7836 473.609,-73.7298 464.404,-73.5683"/>
<polygon fill="midnightblue" stroke="midnightblue" points="492.789,-77.2281 502.754,-73.6292 492.719,-70.2284 492.789,-77.2281"/>
</g>
<!-- Node6 -->
<g id="node6" class="node"><title>Node6</title>
<g id="a_node6"><a xlink:href="../../dd/d48/classgui_1_1_g_u_i_start.html#a82d08814fef5331d82c4763a2426ffce" target="_top" xlink:title="gui.GUIStart.start">
<polygon fill="white" stroke="black" points="702.5,-38.5 702.5,-57.5 803.5,-57.5 803.5,-38.5 702.5,-38.5"/>
<text text-anchor="middle" x="753" y="-45.5" font-family="Helvetica,sans-Serif" font-size="10.00">gui.GUIStart.start</text>
</a>
</g>
</g>
<!-- Node5&#45;&gt;Node6 -->
<g id="edge6" class="edge"><title>Node5&#45;&gt;Node6</title>
<path fill="none" stroke="midnightblue" d="M655.974,-37.7501C671.814,-39.4408 687.952,-41.1634 702.365,-42.7019"/>
<polygon fill="midnightblue" stroke="midnightblue" points="655.945,-34.2271 645.63,-36.6459 655.202,-41.1876 655.945,-34.2271"/>
</g>
<!-- Node7 -->
<g id="node7" class="node"><title>Node7</title>
<g id="a_node7"><a xlink:href="../../d6/d0e/classcontroller_1_1_s_logo_main.html#ab5379c32fef791f21ad51abde7d268c0" target="_top" xlink:title="controller.SLogoMain.start">
<polygon fill="white" stroke="black" points="682,-0.5 682,-19.5 824,-19.5 824,-0.5 682,-0.5"/>
<text text-anchor="middle" x="753" y="-7.5" font-family="Helvetica,sans-Serif" font-size="10.00">controller.SLogoMain.start</text>
</a>
</g>
</g>
<!-- Node5&#45;&gt;Node7 -->
<g id="edge7" class="edge"><title>Node5&#45;&gt;Node7</title>
<path fill="none" stroke="midnightblue" d="M655.821,-20.2663C664.555,-19.334 673.382,-18.3918 681.963,-17.4759"/>
<polygon fill="midnightblue" stroke="midnightblue" points="655.202,-16.8124 645.63,-21.3541 655.945,-23.7729 655.202,-16.8124"/>
</g>
<!-- Node8&#45;&gt;Node3 -->
<g id="edge10" class="edge"><title>Node8&#45;&gt;Node3</title>
<path fill="none" stroke="midnightblue" d="M279.209,-40.8243C303.317,-46.1816 331.44,-52.4311 354.16,-57.4799"/>
<polygon fill="midnightblue" stroke="midnightblue" points="279.672,-37.3417 269.151,-38.589 278.153,-44.175 279.672,-37.3417"/>
</g>
</g>
</svg>
