<?xml version="1.0" encoding="UTF-8" standalone="no"?>
<!DOCTYPE svg PUBLIC "-//W3C//DTD SVG 1.1//EN"
 "http://www.w3.org/Graphics/SVG/1.1/DTD/svg11.dtd">
<!-- Generated by graphviz version 2.36.0 (20140111.2315)
 -->
<!-- Title: gui.GUIScene.getRightBox Pages: 1 -->
<svg width="1168pt" height="1065pt"
 viewBox="0.00 0.00 1168.00 1065.41" xmlns="http://www.w3.org/2000/svg" xmlns:xlink="http://www.w3.org/1999/xlink">
<g id="graph0" class="graph" transform="scale(1 1) rotate(0) translate(4 1061.41)">
<title>gui.GUIScene.getRightBox</title>
<polygon fill="white" stroke="none" points="-4,4 -4,-1061.41 1164,-1061.41 1164,4 -4,4"/>
<!-- Node1 -->
<g id="node1" class="node"><title>Node1</title>
<polygon fill="#bfbfbf" stroke="black" points="0,-419.913 0,-438.913 142,-438.913 142,-419.913 0,-419.913"/>
<text text-anchor="middle" x="71" y="-426.913" font-family="Helvetica,sans-Serif" font-size="10.00">gui.GUIScene.getRightBox</text>
</g>
<!-- Node2 -->
<g id="node2" class="node"><title>Node2</title>
<g id="a_node2"><a xlink:href="../../db/d32/classcontroller_1_1_main_controller.html#a996f20f005cf8efd0ed4e49ac1e9a18b" target="_top" xlink:title="controller.MainController.get\lHistory">
<polygon fill="white" stroke="black" points="181.5,-485.413 181.5,-515.413 332.5,-515.413 332.5,-485.413 181.5,-485.413"/>
<text text-anchor="start" x="189.5" y="-503.413" font-family="Helvetica,sans-Serif" font-size="10.00">controller.MainController.get</text>
<text text-anchor="middle" x="257" y="-492.413" font-family="Helvetica,sans-Serif" font-size="10.00">History</text>
</a>
</g>
</g>
<!-- Node1&#45;&gt;Node2 -->
<g id="edge1" class="edge"><title>Node1&#45;&gt;Node2</title>
<path fill="none" stroke="midnightblue" d="M92.4691,-439.017C113.638,-448.779 147.77,-464.041 178,-475.413 184.027,-477.68 190.362,-479.927 196.708,-482.091"/>
<polygon fill="midnightblue" stroke="midnightblue" points="196.052,-485.562 206.646,-485.413 198.271,-478.923 196.052,-485.562"/>
</g>
<!-- Node3 -->
<g id="node3" class="node"><title>Node3</title>
<g id="a_node3"><a xlink:href="../../db/d32/classcontroller_1_1_main_controller.html#a6badeb343877f4b50f069b47afed495c" target="_top" xlink:title="controller.MainController.pass\lInput">
<polygon fill="white" stroke="black" points="178,-436.413 178,-466.413 336,-466.413 336,-436.413 178,-436.413"/>
<text text-anchor="start" x="186" y="-454.413" font-family="Helvetica,sans-Serif" font-size="10.00">controller.MainController.pass</text>
<text text-anchor="middle" x="257" y="-443.413" font-family="Helvetica,sans-Serif" font-size="10.00">Input</text>
</a>
</g>
</g>
<!-- Node1&#45;&gt;Node3 -->
<g id="edge2" class="edge"><title>Node1&#45;&gt;Node3</title>
<path fill="none" stroke="midnightblue" d="M142.087,-437.793C150.482,-438.797 159.135,-439.831 167.744,-440.861"/>
<polygon fill="midnightblue" stroke="midnightblue" points="167.467,-444.352 177.812,-442.064 168.298,-437.402 167.467,-444.352"/>
</g>
<!-- Node39 -->
<g id="node39" class="node"><title>Node39</title>
<g id="a_node39"><a xlink:href="../../dd/d74/classgui_1_1_buttons.html#a5e11ba700f1ac1070b67390b7e61056e" target="_top" xlink:title="gui.Buttons.status">
<polygon fill="white" stroke="black" points="205,-397.913 205,-416.913 309,-416.913 309,-397.913 205,-397.913"/>
<text text-anchor="middle" x="257" y="-404.913" font-family="Helvetica,sans-Serif" font-size="10.00">gui.Buttons.status</text>
</a>
</g>
</g>
<!-- Node1&#45;&gt;Node39 -->
<g id="edge51" class="edge"><title>Node1&#45;&gt;Node39</title>
<path fill="none" stroke="midnightblue" d="M142.087,-421.033C159.413,-418.961 177.839,-416.758 194.709,-414.741"/>
<polygon fill="midnightblue" stroke="midnightblue" points="195.474,-418.175 204.988,-413.512 194.643,-411.224 195.474,-418.175"/>
</g>
<!-- Node40 -->
<g id="node40" class="node"><title>Node40</title>
<g id="a_node40"><a xlink:href="../../dd/dea/classgui_1_1_g_u_i_scene.html#a21fe0ea8ff67b7c2da45e6ad786eab56" target="_top" xlink:title="gui.GUIScene.update">
<polygon fill="white" stroke="black" points="198,-120.913 198,-139.913 316,-139.913 316,-120.913 198,-120.913"/>
<text text-anchor="middle" x="257" y="-127.913" font-family="Helvetica,sans-Serif" font-size="10.00">gui.GUIScene.update</text>
</a>
</g>
</g>
<!-- Node1&#45;&gt;Node40 -->
<g id="edge52" class="edge"><title>Node1&#45;&gt;Node40</title>
<path fill="none" stroke="midnightblue" d="M77.9136,-419.803C104.08,-377.282 209.699,-205.652 244.683,-148.804"/>
<polygon fill="midnightblue" stroke="midnightblue" points="247.756,-150.488 250.016,-140.137 241.794,-146.819 247.756,-150.488"/>
</g>
<!-- Node4 -->
<g id="node4" class="node"><title>Node4</title>
<g id="a_node4"><a xlink:href="../../db/d93/classcompiler_1_1_compiler.html#a8a90aa273bacff724a034959914a4c2d" target="_top" xlink:title="compiler.Compiler.compile">
<polygon fill="white" stroke="black" points="372.5,-706.913 372.5,-725.913 515.5,-725.913 515.5,-706.913 372.5,-706.913"/>
<text text-anchor="middle" x="444" y="-713.913" font-family="Helvetica,sans-Serif" font-size="10.00">compiler.Compiler.compile</text>
</a>
</g>
</g>
<!-- Node3&#45;&gt;Node4 -->
<g id="edge3" class="edge"><title>Node3&#45;&gt;Node4</title>
<path fill="none" stroke="midnightblue" d="M321.452,-466.46C326.707,-469.235 331.658,-472.521 336,-476.413 404.271,-537.607 431.294,-650.629 439.757,-696.393"/>
<polygon fill="midnightblue" stroke="midnightblue" points="436.355,-697.257 441.522,-706.506 443.25,-696.053 436.355,-697.257"/>
</g>
<!-- Node5 -->
<g id="node5" class="node"><title>Node5</title>
<g id="a_node5"><a xlink:href="../../d5/dcd/classcompiler_1_1_a_s_t.html#a554574e2680c721782f0df2694512842" target="_top" xlink:title="compiler.AST.generate">
<polygon fill="white" stroke="black" points="568,-966.913 568,-985.913 692,-985.913 692,-966.913 568,-966.913"/>
<text text-anchor="middle" x="630" y="-973.913" font-family="Helvetica,sans-Serif" font-size="10.00">compiler.AST.generate</text>
</a>
</g>
</g>
<!-- Node4&#45;&gt;Node5 -->
<g id="edge4" class="edge"><title>Node4&#45;&gt;Node5</title>
<path fill="none" stroke="midnightblue" d="M449.986,-725.917C464.309,-752.891 507.408,-831.823 552,-891.413 570.761,-916.485 595.531,-942.83 611.846,-959.423"/>
<polygon fill="midnightblue" stroke="midnightblue" points="609.582,-962.11 619.113,-966.736 614.547,-957.176 609.582,-962.11"/>
</g>
<!-- Node7 -->
<g id="node7" class="node"><title>Node7</title>
<g id="a_node7"><a xlink:href="../../db/d93/classcompiler_1_1_compiler.html#afb38c21dd4d72f5fb04bc01dc892621a" target="_top" xlink:title="compiler.Compiler.initialize">
<polygon fill="white" stroke="black" points="558.5,-862.913 558.5,-881.913 701.5,-881.913 701.5,-862.913 558.5,-862.913"/>
<text text-anchor="middle" x="630" y="-869.913" font-family="Helvetica,sans-Serif" font-size="10.00">compiler.Compiler.initialize</text>
</a>
</g>
</g>
<!-- Node4&#45;&gt;Node7 -->
<g id="edge6" class="edge"><title>Node4&#45;&gt;Node7</title>
<path fill="none" stroke="midnightblue" d="M456.233,-725.937C486.7,-751.767 571.18,-823.391 609.568,-855.938"/>
<polygon fill="midnightblue" stroke="midnightblue" points="607.553,-858.818 617.444,-862.616 612.08,-853.479 607.553,-858.818"/>
</g>
<!-- Node14 -->
<g id="node14" class="node"><title>Node14</title>
<g id="a_node14"><a xlink:href="../../db/d93/classcompiler_1_1_compiler.html#a21b0cbd48524326ae956fec14de6a853" target="_top" xlink:title="compiler.Compiler.interpreter">
<polygon fill="white" stroke="black" points="552,-725.913 552,-744.913 708,-744.913 708,-725.913 552,-725.913"/>
<text text-anchor="middle" x="630" y="-732.913" font-family="Helvetica,sans-Serif" font-size="10.00">compiler.Compiler.interpreter</text>
</a>
</g>
</g>
<!-- Node4&#45;&gt;Node14 -->
<g id="edge13" class="edge"><title>Node4&#45;&gt;Node14</title>
<path fill="none" stroke="midnightblue" d="M515.613,-723.704C524.136,-724.585 532.917,-725.491 541.643,-726.392"/>
<polygon fill="midnightblue" stroke="midnightblue" points="541.535,-729.9 551.842,-727.446 542.255,-722.937 541.535,-729.9"/>
</g>
<!-- Node15 -->
<g id="node15" class="node"><title>Node15</title>
<g id="a_node15"><a xlink:href="../../db/d93/classcompiler_1_1_compiler.html#ab49c76c1486c30d921d07022a1be4971" target="_top" xlink:title="compiler.Compiler.scanner">
<polygon fill="white" stroke="black" points="558.5,-687.913 558.5,-706.913 701.5,-706.913 701.5,-687.913 558.5,-687.913"/>
<text text-anchor="middle" x="630" y="-694.913" font-family="Helvetica,sans-Serif" font-size="10.00">compiler.Compiler.scanner</text>
</a>
</g>
</g>
<!-- Node4&#45;&gt;Node15 -->
<g id="edge14" class="edge"><title>Node4&#45;&gt;Node15</title>
<path fill="none" stroke="midnightblue" d="M515.613,-709.121C526.212,-708.027 537.211,-706.891 548.005,-705.777"/>
<polygon fill="midnightblue" stroke="midnightblue" points="548.684,-709.225 558.272,-704.716 547.965,-702.262 548.684,-709.225"/>
</g>
<!-- Node23 -->
<g id="node23" class="node"><title>Node23</title>
<g id="a_node23"><a xlink:href="../../d5/dcd/classcompiler_1_1_a_s_t.html#a8f54e642baf772b6269010527c61f7f7" target="_top" xlink:title="compiler.AST.traverse">
<polygon fill="white" stroke="black" points="570,-325.913 570,-344.913 690,-344.913 690,-325.913 570,-325.913"/>
<text text-anchor="middle" x="630" y="-332.913" font-family="Helvetica,sans-Serif" font-size="10.00">compiler.AST.traverse</text>
</a>
</g>
</g>
<!-- Node4&#45;&gt;Node23 -->
<g id="edge22" class="edge"><title>Node4&#45;&gt;Node23</title>
<path fill="none" stroke="midnightblue" d="M449.733,-706.612C474.238,-655.871 586.823,-422.746 619.862,-354.335"/>
<polygon fill="midnightblue" stroke="midnightblue" points="623.101,-355.676 624.298,-345.149 616.797,-352.632 623.101,-355.676"/>
</g>
<!-- Node6 -->
<g id="node6" class="node"><title>Node6</title>
<g id="a_node6"><a xlink:href="../../db/d93/classcompiler_1_1_compiler.html#a4a475133005c58a3a3846315d2f116e4" target="_top" xlink:title="compiler.Compiler.getSymbol\lTable">
<polygon fill="white" stroke="black" points="759.5,-1027.41 759.5,-1057.41 916.5,-1057.41 916.5,-1027.41 759.5,-1027.41"/>
<text text-anchor="start" x="767.5" y="-1045.41" font-family="Helvetica,sans-Serif" font-size="10.00">compiler.Compiler.getSymbol</text>
<text text-anchor="middle" x="838" y="-1034.41" font-family="Helvetica,sans-Serif" font-size="10.00">Table</text>
</a>
</g>
</g>
<!-- Node5&#45;&gt;Node6 -->
<g id="edge5" class="edge"><title>Node5&#45;&gt;Node6</title>
<path fill="none" stroke="midnightblue" d="M655.482,-985.982C678.231,-994.71 713.149,-1007.69 744,-1017.41 751.709,-1019.84 759.823,-1022.25 767.914,-1024.55"/>
<polygon fill="midnightblue" stroke="midnightblue" points="767.169,-1027.97 777.743,-1027.3 769.056,-1021.23 767.169,-1027.97"/>
</g>
<!-- Node8 -->
<g id="node8" class="node"><title>Node8</title>
<g id="a_node8"><a xlink:href="../../dd/db3/classcompiler_1_1_parse_table.html#a573884bf9b9680a677625168b1b431fc" target="_top" xlink:title="compiler.ParseTable.getLHS">
<polygon fill="white" stroke="black" points="763.5,-988.913 763.5,-1007.91 912.5,-1007.91 912.5,-988.913 763.5,-988.913"/>
<text text-anchor="middle" x="838" y="-995.913" font-family="Helvetica,sans-Serif" font-size="10.00">compiler.ParseTable.getLHS</text>
</a>
</g>
</g>
<!-- Node7&#45;&gt;Node8 -->
<g id="edge7" class="edge"><title>Node7&#45;&gt;Node8</title>
<path fill="none" stroke="midnightblue" d="M638.26,-882.143C654.604,-903.298 696.586,-953.57 744,-978.413 749.472,-981.28 755.33,-983.736 761.346,-985.841"/>
<polygon fill="midnightblue" stroke="midnightblue" points="760.304,-989.182 770.894,-988.866 762.418,-982.509 760.304,-989.182"/>
</g>
<!-- Node9 -->
<g id="node9" class="node"><title>Node9</title>
<g id="a_node9"><a xlink:href="../../dd/db3/classcompiler_1_1_parse_table.html#ac4940ea308ddda4d90965b17c578da4a" target="_top" xlink:title="compiler.ParseTable.getNext\lState">
<polygon fill="white" stroke="black" points="762,-939.413 762,-969.413 914,-969.413 914,-939.413 762,-939.413"/>
<text text-anchor="start" x="770" y="-957.413" font-family="Helvetica,sans-Serif" font-size="10.00">compiler.ParseTable.getNext</text>
<text text-anchor="middle" x="838" y="-946.413" font-family="Helvetica,sans-Serif" font-size="10.00">State</text>
</a>
</g>
</g>
<!-- Node7&#45;&gt;Node9 -->
<g id="edge8" class="edge"><title>Node7&#45;&gt;Node9</title>
<path fill="none" stroke="midnightblue" d="M647.361,-882.012C668.917,-894.34 708.285,-915.77 744,-929.413 750.401,-931.858 757.136,-934.161 763.934,-936.305"/>
<polygon fill="midnightblue" stroke="midnightblue" points="763.323,-939.777 773.908,-939.33 765.354,-933.078 763.323,-939.777"/>
</g>
<!-- Node10 -->
<g id="node10" class="node"><title>Node10</title>
<g id="a_node10"><a xlink:href="../../dd/db3/classcompiler_1_1_parse_table.html#a1ed63064154778c1dbb59a50178ab98b" target="_top" xlink:title="compiler.ParseTable.getOperation">
<polygon fill="white" stroke="black" points="750,-900.913 750,-919.913 926,-919.913 926,-900.913 750,-900.913"/>
<text text-anchor="middle" x="838" y="-907.913" font-family="Helvetica,sans-Serif" font-size="10.00">compiler.ParseTable.getOperation</text>
</a>
</g>
</g>
<!-- Node7&#45;&gt;Node10 -->
<g id="edge9" class="edge"><title>Node7&#45;&gt;Node10</title>
<path fill="none" stroke="midnightblue" d="M682.717,-881.953C710.756,-887.125 745.602,-893.553 775.079,-898.991"/>
<polygon fill="midnightblue" stroke="midnightblue" points="774.793,-902.497 785.262,-900.869 776.063,-895.613 774.793,-902.497"/>
</g>
<!-- Node11 -->
<g id="node11" class="node"><title>Node11</title>
<g id="a_node11"><a xlink:href="../../dd/db3/classcompiler_1_1_parse_table.html#a6f640afe05fef1c7b36a858e3d831a18" target="_top" xlink:title="compiler.ParseTable.getRHS">
<polygon fill="white" stroke="black" points="763.5,-862.913 763.5,-881.913 912.5,-881.913 912.5,-862.913 763.5,-862.913"/>
<text text-anchor="middle" x="838" y="-869.913" font-family="Helvetica,sans-Serif" font-size="10.00">compiler.ParseTable.getRHS</text>
</a>
</g>
</g>
<!-- Node7&#45;&gt;Node11 -->
<g id="edge10" class="edge"><title>Node7&#45;&gt;Node11</title>
<path fill="none" stroke="midnightblue" d="M701.605,-872.413C718.254,-872.413 736.16,-872.413 753.324,-872.413"/>
<polygon fill="midnightblue" stroke="midnightblue" points="753.329,-875.913 763.329,-872.413 753.329,-868.913 753.329,-875.913"/>
</g>
<!-- Node12 -->
<g id="node12" class="node"><title>Node12</title>
<g id="a_node12"><a xlink:href="../../db/d93/classcompiler_1_1_compiler.html#aedc19549c4ed689c6d984394716f563c" target="_top" xlink:title="compiler.Compiler.initGrammar">
<polygon fill="white" stroke="black" points="755,-824.913 755,-843.913 921,-843.913 921,-824.913 755,-824.913"/>
<text text-anchor="middle" x="838" y="-831.913" font-family="Helvetica,sans-Serif" font-size="10.00">compiler.Compiler.initGrammar</text>
</a>
</g>
</g>
<!-- Node7&#45;&gt;Node12 -->
<g id="edge11" class="edge"><title>Node7&#45;&gt;Node12</title>
<path fill="none" stroke="midnightblue" d="M682.717,-862.873C710.756,-857.701 745.602,-851.273 775.079,-845.835"/>
<polygon fill="midnightblue" stroke="midnightblue" points="776.063,-849.213 785.262,-843.957 774.793,-842.329 776.063,-849.213"/>
</g>
<!-- Node13 -->
<g id="node13" class="node"><title>Node13</title>
<g id="a_node13"><a xlink:href="../../dd/db3/classcompiler_1_1_parse_table.html#a077f2722d8fa84bc8903407ee482697a" target="_top" xlink:title="compiler.ParseTable.initialize\lTable">
<polygon fill="white" stroke="black" points="762,-775.413 762,-805.413 914,-805.413 914,-775.413 762,-775.413"/>
<text text-anchor="start" x="770" y="-793.413" font-family="Helvetica,sans-Serif" font-size="10.00">compiler.ParseTable.initialize</text>
<text text-anchor="middle" x="838" y="-782.413" font-family="Helvetica,sans-Serif" font-size="10.00">Table</text>
</a>
</g>
</g>
<!-- Node7&#45;&gt;Node13 -->
<g id="edge12" class="edge"><title>Node7&#45;&gt;Node13</title>
<path fill="none" stroke="midnightblue" d="M647.361,-862.814C668.917,-850.486 708.285,-829.056 744,-815.413 750.401,-812.968 757.136,-810.665 763.934,-808.521"/>
<polygon fill="midnightblue" stroke="midnightblue" points="765.354,-811.748 773.908,-805.496 763.323,-805.049 765.354,-811.748"/>
</g>
<!-- Node16 -->
<g id="node16" class="node"><title>Node16</title>
<g id="a_node16"><a xlink:href="../../db/d93/classcompiler_1_1_compiler.html#ae6504512c09bb3ab9064f3b12f0a51ff" target="_top" xlink:title="compiler.Compiler.symbol\lTableGeneration">
<polygon fill="white" stroke="black" points="768,-726.413 768,-756.413 908,-756.413 908,-726.413 768,-726.413"/>
<text text-anchor="start" x="776" y="-744.413" font-family="Helvetica,sans-Serif" font-size="10.00">compiler.Compiler.symbol</text>
<text text-anchor="middle" x="838" y="-733.413" font-family="Helvetica,sans-Serif" font-size="10.00">TableGeneration</text>
</a>
</g>
</g>
<!-- Node15&#45;&gt;Node16 -->
<g id="edge15" class="edge"><title>Node15&#45;&gt;Node16</title>
<path fill="none" stroke="midnightblue" d="M675.699,-706.96C699.622,-712.07 729.803,-718.516 757.569,-724.447"/>
<polygon fill="midnightblue" stroke="midnightblue" points="757.162,-727.939 767.673,-726.605 758.624,-721.093 757.162,-727.939"/>
</g>
<!-- Node20 -->
<g id="node20" class="node"><title>Node20</title>
<g id="a_node20"><a xlink:href="../../de/d03/classcompiler_1_1_token_finder.html#a8f4fdc09f838a5cee92938ae555a93dc" target="_top" xlink:title="compiler.TokenFinder.tokenize">
<polygon fill="white" stroke="black" points="759,-687.913 759,-706.913 917,-706.913 917,-687.913 759,-687.913"/>
<text text-anchor="middle" x="838" y="-694.913" font-family="Helvetica,sans-Serif" font-size="10.00">compiler.TokenFinder.tokenize</text>
</a>
</g>
</g>
<!-- Node15&#45;&gt;Node20 -->
<g id="edge19" class="edge"><title>Node15&#45;&gt;Node20</title>
<path fill="none" stroke="midnightblue" d="M701.605,-697.413C716.701,-697.413 732.83,-697.413 748.502,-697.413"/>
<polygon fill="midnightblue" stroke="midnightblue" points="748.72,-700.913 758.72,-697.413 748.72,-693.913 748.72,-700.913"/>
</g>
<!-- Node22 -->
<g id="node22" class="node"><title>Node22</title>
<g id="a_node22"><a xlink:href="../../db/d93/classcompiler_1_1_compiler.html#a490860dbdd9c5c56fe3c578a8bd55c5a" target="_top" xlink:title="compiler.Compiler.translate\lToEnglish">
<polygon fill="white" stroke="black" points="764,-638.413 764,-668.413 912,-668.413 912,-638.413 764,-638.413"/>
<text text-anchor="start" x="772" y="-656.413" font-family="Helvetica,sans-Serif" font-size="10.00">compiler.Compiler.translate</text>
<text text-anchor="middle" x="838" y="-645.413" font-family="Helvetica,sans-Serif" font-size="10.00">ToEnglish</text>
</a>
</g>
</g>
<!-- Node15&#45;&gt;Node22 -->
<g id="edge21" class="edge"><title>Node15&#45;&gt;Node22</title>
<path fill="none" stroke="midnightblue" d="M675.699,-687.866C699.306,-682.823 729.006,-676.48 756.467,-670.614"/>
<polygon fill="midnightblue" stroke="midnightblue" points="757.418,-673.99 766.467,-668.478 755.956,-667.144 757.418,-673.99"/>
</g>
<!-- Node17 -->
<g id="node17" class="node"><title>Node17</title>
<g id="a_node17"><a xlink:href="../../dd/d18/classcompiler_1_1_symbol_table_entry.html#a12657cfb875265be8e008315d81f65bf" target="_top" xlink:title="compiler.SymbolTableEntry.setName">
<polygon fill="white" stroke="black" points="968.5,-791.913 968.5,-810.913 1159.5,-810.913 1159.5,-791.913 968.5,-791.913"/>
<text text-anchor="middle" x="1064" y="-798.913" font-family="Helvetica,sans-Serif" font-size="10.00">compiler.SymbolTableEntry.setName</text>
</a>
</g>
</g>
<!-- Node16&#45;&gt;Node17 -->
<g id="edge16" class="edge"><title>Node16&#45;&gt;Node17</title>
<path fill="none" stroke="midnightblue" d="M900.448,-756.478C911.058,-759.492 921.914,-762.84 932,-766.413 948.504,-772.259 951.314,-777.108 968,-782.413 976.593,-785.145 985.753,-787.566 994.866,-789.686"/>
<polygon fill="midnightblue" stroke="midnightblue" points="994.186,-793.12 1004.71,-791.869 995.703,-786.286 994.186,-793.12"/>
</g>
<!-- Node18 -->
<g id="node18" class="node"><title>Node18</title>
<g id="a_node18"><a xlink:href="../../dd/d18/classcompiler_1_1_symbol_table_entry.html#a77ced9095e334cd236a57ba558a03e73" target="_top" xlink:title="compiler.SymbolTableEntry.setType">
<polygon fill="white" stroke="black" points="973,-753.913 973,-772.913 1155,-772.913 1155,-753.913 973,-753.913"/>
<text text-anchor="middle" x="1064" y="-760.913" font-family="Helvetica,sans-Serif" font-size="10.00">compiler.SymbolTableEntry.setType</text>
</a>
</g>
</g>
<!-- Node16&#45;&gt;Node18 -->
<g id="edge17" class="edge"><title>Node16&#45;&gt;Node18</title>
<path fill="none" stroke="midnightblue" d="M908.035,-748.193C925.281,-749.887 944.128,-751.738 962.554,-753.548"/>
<polygon fill="midnightblue" stroke="midnightblue" points="962.44,-757.053 972.734,-754.548 963.124,-750.087 962.44,-757.053"/>
</g>
<!-- Node19 -->
<g id="node19" class="node"><title>Node19</title>
<g id="a_node19"><a xlink:href="../../dd/d18/classcompiler_1_1_symbol_table_entry.html#a9c52435da30816b629f211c707ebbafe" target="_top" xlink:title="compiler.SymbolTableEntry.set\lValue">
<polygon fill="white" stroke="black" points="983.5,-704.413 983.5,-734.413 1144.5,-734.413 1144.5,-704.413 983.5,-704.413"/>
<text text-anchor="start" x="991.5" y="-722.413" font-family="Helvetica,sans-Serif" font-size="10.00">compiler.SymbolTableEntry.set</text>
<text text-anchor="middle" x="1064" y="-711.413" font-family="Helvetica,sans-Serif" font-size="10.00">Value</text>
</a>
</g>
</g>
<!-- Node16&#45;&gt;Node19 -->
<g id="edge18" class="edge"><title>Node16&#45;&gt;Node19</title>
<path fill="none" stroke="midnightblue" d="M908.035,-734.633C928.565,-732.616 951.365,-730.377 973.022,-728.25"/>
<polygon fill="midnightblue" stroke="midnightblue" points="973.602,-731.71 983.212,-727.249 972.917,-724.744 973.602,-731.71"/>
</g>
<!-- Node21 -->
<g id="node21" class="node"><title>Node21</title>
<g id="a_node21"><a xlink:href="../../de/d03/classcompiler_1_1_token_finder.html#a17a5eca5ffc7312f5eb38cf1504f7b86" target="_top" xlink:title="compiler.TokenFinder.stringType">
<polygon fill="white" stroke="black" points="981,-665.913 981,-684.913 1147,-684.913 1147,-665.913 981,-665.913"/>
<text text-anchor="middle" x="1064" y="-672.913" font-family="Helvetica,sans-Serif" font-size="10.00">compiler.TokenFinder.stringType</text>
</a>
</g>
</g>
<!-- Node20&#45;&gt;Node21 -->
<g id="edge20" class="edge"><title>Node20&#45;&gt;Node21</title>
<path fill="none" stroke="midnightblue" d="M917.03,-689.749C934.234,-688.06 952.619,-686.254 970.339,-684.514"/>
<polygon fill="midnightblue" stroke="midnightblue" points="971.071,-687.959 980.681,-683.498 970.387,-680.992 971.071,-687.959"/>
</g>
<!-- Node24 -->
<g id="node24" class="node"><title>Node24</title>
<g id="a_node24"><a xlink:href="../../de/d00/classcommands_1_1_command_list.html#a3fa6072b15e6e34c66f5d4e264460553" target="_top" xlink:title="commands.CommandList.clear\lScreen">
<polygon fill="white" stroke="black" points="754.5,-589.413 754.5,-619.413 921.5,-619.413 921.5,-589.413 754.5,-589.413"/>
<text text-anchor="start" x="762.5" y="-607.413" font-family="Helvetica,sans-Serif" font-size="10.00">commands.CommandList.clear</text>
<text text-anchor="middle" x="838" y="-596.413" font-family="Helvetica,sans-Serif" font-size="10.00">Screen</text>
</a>
</g>
</g>
<!-- Node23&#45;&gt;Node24 -->
<g id="edge23" class="edge"><title>Node23&#45;&gt;Node24</title>
<path fill="none" stroke="midnightblue" d="M632.498,-345.104C638.698,-381.812 665.795,-513.562 744,-579.413 746.014,-581.109 748.133,-582.691 750.335,-584.167"/>
<polygon fill="midnightblue" stroke="midnightblue" points="748.801,-587.324 759.201,-589.346 752.332,-581.28 748.801,-587.324"/>
</g>
<!-- Node26 -->
<g id="node26" class="node"><title>Node26</title>
<g id="a_node26"><a xlink:href="../../de/d00/classcommands_1_1_command_list.html#a5b320e3a2018fde1a425658bf6f76f71" target="_top" xlink:title="commands.CommandList.forward\lCommand">
<polygon fill="white" stroke="black" points="748.5,-540.413 748.5,-570.413 927.5,-570.413 927.5,-540.413 748.5,-540.413"/>
<text text-anchor="start" x="756.5" y="-558.413" font-family="Helvetica,sans-Serif" font-size="10.00">commands.CommandList.forward</text>
<text text-anchor="middle" x="838" y="-547.413" font-family="Helvetica,sans-Serif" font-size="10.00">Command</text>
</a>
</g>
</g>
<!-- Node23&#45;&gt;Node26 -->
<g id="edge25" class="edge"><title>Node23&#45;&gt;Node26</title>
<path fill="none" stroke="midnightblue" d="M633.761,-345.323C643.233,-377.432 677.55,-479.466 744,-530.413 746.363,-532.225 748.848,-533.906 751.426,-535.465"/>
<polygon fill="midnightblue" stroke="midnightblue" points="750.037,-538.691 760.508,-540.311 753.333,-532.516 750.037,-538.691"/>
</g>
<!-- Node27 -->
<g id="node27" class="node"><title>Node27</title>
<g id="a_node27"><a xlink:href="../../de/d00/classcommands_1_1_command_list.html#a10e5a16b6560987b4c7deefa4a12fbdb" target="_top" xlink:title="commands.CommandList.heading">
<polygon fill="white" stroke="black" points="747,-501.913 747,-520.913 929,-520.913 929,-501.913 747,-501.913"/>
<text text-anchor="middle" x="838" y="-508.913" font-family="Helvetica,sans-Serif" font-size="10.00">commands.CommandList.heading</text>
</a>
</g>
</g>
<!-- Node23&#45;&gt;Node27 -->
<g id="edge27" class="edge"><title>Node23&#45;&gt;Node27</title>
<path fill="none" stroke="midnightblue" d="M634.936,-344.998C646.821,-372.652 685.175,-453.051 744,-491.413 747.839,-493.916 751.938,-496.112 756.196,-498.037"/>
<polygon fill="midnightblue" stroke="midnightblue" points="755.148,-501.387 765.733,-501.834 757.737,-494.883 755.148,-501.387"/>
</g>
<!-- Node28 -->
<g id="node28" class="node"><title>Node28</title>
<g id="a_node28"><a xlink:href="../../de/d00/classcommands_1_1_command_list.html#a787a3850e0d0584213bfe7fdcd011985" target="_top" xlink:title="commands.CommandList.hide\lTurtle">
<polygon fill="white" stroke="black" points="756,-452.413 756,-482.413 920,-482.413 920,-452.413 756,-452.413"/>
<text text-anchor="start" x="764" y="-470.413" font-family="Helvetica,sans-Serif" font-size="10.00">commands.CommandList.hide</text>
<text text-anchor="middle" x="838" y="-459.413" font-family="Helvetica,sans-Serif" font-size="10.00">Turtle</text>
</a>
</g>
</g>
<!-- Node23&#45;&gt;Node28 -->
<g id="edge29" class="edge"><title>Node23&#45;&gt;Node28</title>
<path fill="none" stroke="midnightblue" d="M638.334,-345.058C654.827,-366.061 697.087,-416.149 744,-442.413 747.964,-444.632 752.134,-446.662 756.422,-448.517"/>
<polygon fill="midnightblue" stroke="midnightblue" points="755.377,-451.868 765.963,-452.307 757.961,-445.363 755.377,-451.868"/>
</g>
<!-- Node29 -->
<g id="node29" class="node"><title>Node29</title>
<g id="a_node29"><a xlink:href="../../de/d00/classcommands_1_1_command_list.html#a982e66bba41ac1d0773d4dcb92aab824" target="_top" xlink:title="commands.CommandList.penDown">
<polygon fill="white" stroke="black" points="744,-413.913 744,-432.913 932,-432.913 932,-413.913 744,-413.913"/>
<text text-anchor="middle" x="838" y="-420.913" font-family="Helvetica,sans-Serif" font-size="10.00">commands.CommandList.penDown</text>
</a>
</g>
</g>
<!-- Node23&#45;&gt;Node29 -->
<g id="edge31" class="edge"><title>Node23&#45;&gt;Node29</title>
<path fill="none" stroke="midnightblue" d="M643.821,-345.087C664.037,-359.873 705.039,-387.997 744,-403.413 751.726,-406.47 760.008,-409.098 768.328,-411.347"/>
<polygon fill="midnightblue" stroke="midnightblue" points="767.528,-414.755 778.082,-413.817 769.247,-407.97 767.528,-414.755"/>
</g>
<!-- Node30 -->
<g id="node30" class="node"><title>Node30</title>
<g id="a_node30"><a xlink:href="../../de/d00/classcommands_1_1_command_list.html#aef01a8e42196fc5ae6685ba9f3991e5e" target="_top" xlink:title="commands.CommandList.pen\lDownP">
<polygon fill="white" stroke="black" points="757.5,-364.413 757.5,-394.413 918.5,-394.413 918.5,-364.413 757.5,-364.413"/>
<text text-anchor="start" x="765.5" y="-382.413" font-family="Helvetica,sans-Serif" font-size="10.00">commands.CommandList.pen</text>
<text text-anchor="middle" x="838" y="-371.413" font-family="Helvetica,sans-Serif" font-size="10.00">DownP</text>
</a>
</g>
</g>
<!-- Node23&#45;&gt;Node30 -->
<g id="edge33" class="edge"><title>Node23&#45;&gt;Node30</title>
<path fill="none" stroke="midnightblue" d="M675.699,-344.96C699.306,-350.003 729.006,-356.346 756.467,-362.212"/>
<polygon fill="midnightblue" stroke="midnightblue" points="755.956,-365.681 766.467,-364.348 757.418,-358.836 755.956,-365.681"/>
</g>
<!-- Node31 -->
<g id="node31" class="node"><title>Node31</title>
<g id="a_node31"><a xlink:href="../../de/d00/classcommands_1_1_command_list.html#a62ca3466760389089ab8a1474d7649da" target="_top" xlink:title="commands.CommandList.penUp">
<polygon fill="white" stroke="black" points="750.5,-325.913 750.5,-344.913 925.5,-344.913 925.5,-325.913 750.5,-325.913"/>
<text text-anchor="middle" x="838" y="-332.913" font-family="Helvetica,sans-Serif" font-size="10.00">commands.CommandList.penUp</text>
</a>
</g>
</g>
<!-- Node23&#45;&gt;Node31 -->
<g id="edge35" class="edge"><title>Node23&#45;&gt;Node31</title>
<path fill="none" stroke="midnightblue" d="M690.031,-335.413C705.734,-335.413 723.116,-335.413 740.265,-335.413"/>
<polygon fill="midnightblue" stroke="midnightblue" points="740.321,-338.913 750.321,-335.413 740.321,-331.913 740.321,-338.913"/>
</g>
<!-- Node32 -->
<g id="node32" class="node"><title>Node32</title>
<g id="a_node32"><a xlink:href="../../de/d00/classcommands_1_1_command_list.html#adeb55ad1a5d59a59b3a19582f885d55a" target="_top" xlink:title="commands.CommandList.SetXY">
<polygon fill="white" stroke="black" points="752.5,-287.913 752.5,-306.913 923.5,-306.913 923.5,-287.913 752.5,-287.913"/>
<text text-anchor="middle" x="838" y="-294.913" font-family="Helvetica,sans-Serif" font-size="10.00">commands.CommandList.SetXY</text>
</a>
</g>
</g>
<!-- Node23&#45;&gt;Node32 -->
<g id="edge37" class="edge"><title>Node23&#45;&gt;Node32</title>
<path fill="none" stroke="midnightblue" d="M682.717,-325.873C710.756,-320.701 745.602,-314.273 775.079,-308.835"/>
<polygon fill="midnightblue" stroke="midnightblue" points="776.063,-312.213 785.262,-306.957 774.793,-305.329 776.063,-312.213"/>
</g>
<!-- Node33 -->
<g id="node33" class="node"><title>Node33</title>
<g id="a_node33"><a xlink:href="../../de/d00/classcommands_1_1_command_list.html#a56d90f6038375159ddd4381483313eba" target="_top" xlink:title="commands.CommandList.showingP">
<polygon fill="white" stroke="black" points="744,-249.913 744,-268.913 932,-268.913 932,-249.913 744,-249.913"/>
<text text-anchor="middle" x="838" y="-256.913" font-family="Helvetica,sans-Serif" font-size="10.00">commands.CommandList.showingP</text>
</a>
</g>
</g>
<!-- Node23&#45;&gt;Node33 -->
<g id="edge39" class="edge"><title>Node23&#45;&gt;Node33</title>
<path fill="none" stroke="midnightblue" d="M646.506,-325.911C667.758,-313.286 707.47,-291.103 744,-278.413 751.832,-275.692 760.178,-273.307 768.533,-271.23"/>
<polygon fill="midnightblue" stroke="midnightblue" points="769.38,-274.627 778.315,-268.933 767.779,-267.812 769.38,-274.627"/>
</g>
<!-- Node34 -->
<g id="node34" class="node"><title>Node34</title>
<g id="a_node34"><a xlink:href="../../de/d00/classcommands_1_1_command_list.html#a84ca20352feab138c22ab7ed8b32f0d1" target="_top" xlink:title="commands.CommandList.show\lTurtle">
<polygon fill="white" stroke="black" points="754.5,-200.413 754.5,-230.413 921.5,-230.413 921.5,-200.413 754.5,-200.413"/>
<text text-anchor="start" x="762.5" y="-218.413" font-family="Helvetica,sans-Serif" font-size="10.00">commands.CommandList.show</text>
<text text-anchor="middle" x="838" y="-207.413" font-family="Helvetica,sans-Serif" font-size="10.00">Turtle</text>
</a>
</g>
</g>
<!-- Node23&#45;&gt;Node34 -->
<g id="edge41" class="edge"><title>Node23&#45;&gt;Node34</title>
<path fill="none" stroke="midnightblue" d="M642.794,-325.718C657.949,-313.235 685.042,-290.836 708,-271.413 724.12,-257.775 725.338,-250.29 744,-240.413 748.299,-238.138 752.822,-236.057 757.463,-234.155"/>
<polygon fill="midnightblue" stroke="midnightblue" points="759.007,-237.313 767.12,-230.499 756.528,-230.767 759.007,-237.313"/>
</g>
<!-- Node35 -->
<g id="node35" class="node"><title>Node35</title>
<g id="a_node35"><a xlink:href="../../de/d00/classcommands_1_1_command_list.html#af0d3ea536d38493b14ee45fe04848286" target="_top" xlink:title="commands.CommandList.towards">
<polygon fill="white" stroke="black" points="747.5,-161.913 747.5,-180.913 928.5,-180.913 928.5,-161.913 747.5,-161.913"/>
<text text-anchor="middle" x="838" y="-168.913" font-family="Helvetica,sans-Serif" font-size="10.00">commands.CommandList.towards</text>
</a>
</g>
</g>
<!-- Node23&#45;&gt;Node35 -->
<g id="edge43" class="edge"><title>Node23&#45;&gt;Node35</title>
<path fill="none" stroke="midnightblue" d="M646.403,-325.776C663.381,-314.502 690.588,-294.423 708,-271.413 731.772,-239.998 713.294,-215.094 744,-190.413 746.079,-188.742 748.267,-187.206 750.542,-185.795"/>
<polygon fill="midnightblue" stroke="midnightblue" points="752.498,-188.72 759.7,-180.95 749.224,-182.533 752.498,-188.72"/>
</g>
<!-- Node36 -->
<g id="node36" class="node"><title>Node36</title>
<g id="a_node36"><a xlink:href="../../de/d00/classcommands_1_1_command_list.html#a19cc311e99a6fa5e95d0966c09bdc907" target="_top" xlink:title="commands.CommandList.turn\lCommand">
<polygon fill="white" stroke="black" points="756.5,-112.413 756.5,-142.413 919.5,-142.413 919.5,-112.413 756.5,-112.413"/>
<text text-anchor="start" x="764.5" y="-130.413" font-family="Helvetica,sans-Serif" font-size="10.00">commands.CommandList.turn</text>
<text text-anchor="middle" x="838" y="-119.413" font-family="Helvetica,sans-Serif" font-size="10.00">Command</text>
</a>
</g>
</g>
<!-- Node23&#45;&gt;Node36 -->
<g id="edge45" class="edge"><title>Node23&#45;&gt;Node36</title>
<path fill="none" stroke="midnightblue" d="M647.582,-325.762C665.075,-314.755 692.245,-295.172 708,-271.413 738.538,-225.362 704.324,-190.871 744,-152.413 745.486,-150.973 747.045,-149.614 748.667,-148.331"/>
<polygon fill="midnightblue" stroke="midnightblue" points="750.926,-151.029 757.256,-142.532 747.01,-145.227 750.926,-151.029"/>
</g>
<!-- Node37 -->
<g id="node37" class="node"><title>Node37</title>
<g id="a_node37"><a xlink:href="../../de/d00/classcommands_1_1_command_list.html#a59070aee1fd5b3efa68c63fb3ab6ed6e" target="_top" xlink:title="commands.CommandList.xCor">
<polygon fill="white" stroke="black" points="755.5,-73.9129 755.5,-92.9129 920.5,-92.9129 920.5,-73.9129 755.5,-73.9129"/>
<text text-anchor="middle" x="838" y="-80.9129" font-family="Helvetica,sans-Serif" font-size="10.00">commands.CommandList.xCor</text>
</a>
</g>
</g>
<!-- Node23&#45;&gt;Node37 -->
<g id="edge47" class="edge"><title>Node23&#45;&gt;Node37</title>
<path fill="none" stroke="midnightblue" d="M648.3,-325.812C666.136,-314.978 693.345,-295.662 708,-271.413 747.721,-205.687 689.47,-156.489 744,-102.413 745.287,-101.136 746.635,-99.9347 748.037,-98.8034"/>
<polygon fill="midnightblue" stroke="midnightblue" points="750.238,-101.542 756.596,-93.0677 746.341,-95.7269 750.238,-101.542"/>
</g>
<!-- Node38 -->
<g id="node38" class="node"><title>Node38</title>
<g id="a_node38"><a xlink:href="../../de/d00/classcommands_1_1_command_list.html#a4d30a46927f84016abe3bc1051baf62c" target="_top" xlink:title="commands.CommandList.yCor">
<polygon fill="white" stroke="black" points="755.5,-35.9129 755.5,-54.9129 920.5,-54.9129 920.5,-35.9129 755.5,-35.9129"/>
<text text-anchor="middle" x="838" y="-42.9129" font-family="Helvetica,sans-Serif" font-size="10.00">commands.CommandList.yCor</text>
</a>
</g>
</g>
<!-- Node23&#45;&gt;Node38 -->
<g id="edge49" class="edge"><title>Node23&#45;&gt;Node38</title>
<path fill="none" stroke="midnightblue" d="M648.814,-325.721C666.804,-314.939 693.892,-295.784 708,-271.413 754.785,-190.597 678.945,-131.405 744,-64.4129 745.112,-63.2676 746.273,-62.1818 747.478,-61.1526"/>
<polygon fill="midnightblue" stroke="midnightblue" points="749.844,-63.7679 756.009,-55.1514 745.816,-58.0428 749.844,-63.7679"/>
</g>
<!-- Node25 -->
<g id="node25" class="node"><title>Node25</title>
<g id="a_node25"><a xlink:href="../../de/d1c/namespacesimulation_objects.html#a02779129356465b8d266330b211f83f1" target="_top" xlink:title="simulationObjects.Turtle">
<polygon fill="white" stroke="black" points="998.5,-287.913 998.5,-306.913 1129.5,-306.913 1129.5,-287.913 998.5,-287.913"/>
<text text-anchor="middle" x="1064" y="-294.913" font-family="Helvetica,sans-Serif" font-size="10.00">simulationObjects.Turtle</text>
</a>
</g>
</g>
<!-- Node24&#45;&gt;Node25 -->
<g id="edge24" class="edge"><title>Node24&#45;&gt;Node25</title>
<path fill="none" stroke="midnightblue" d="M916.794,-589.34C922.244,-586.566 927.394,-583.287 932,-579.413 1017.27,-507.7 1050.2,-368.324 1059.75,-316.999"/>
<polygon fill="midnightblue" stroke="midnightblue" points="1063.24,-317.389 1061.54,-306.932 1056.35,-316.17 1063.24,-317.389"/>
</g>
<!-- Node26&#45;&gt;Node25 -->
<g id="edge26" class="edge"><title>Node26&#45;&gt;Node25</title>
<path fill="none" stroke="midnightblue" d="M915.547,-540.383C921.407,-537.603 926.983,-534.311 932,-530.413 1005.8,-473.066 1044.56,-361.746 1057.73,-316.866"/>
<polygon fill="midnightblue" stroke="midnightblue" points="1061.12,-317.763 1060.48,-307.187 1054.38,-315.854 1061.12,-317.763"/>
</g>
<!-- Node27&#45;&gt;Node25 -->
<g id="edge28" class="edge"><title>Node27&#45;&gt;Node25</title>
<path fill="none" stroke="midnightblue" d="M910.888,-501.879C918.365,-499.184 925.569,-495.759 932,-491.413 998.313,-446.594 1040.13,-355.918 1055.89,-316.467"/>
<polygon fill="midnightblue" stroke="midnightblue" points="1059.21,-317.571 1059.57,-306.982 1052.69,-315.041 1059.21,-317.571"/>
</g>
<!-- Node28&#45;&gt;Node25 -->
<g id="edge30" class="edge"><title>Node28&#45;&gt;Node25</title>
<path fill="none" stroke="midnightblue" d="M911.794,-452.277C918.861,-449.513 925.726,-446.254 932,-442.413 986.279,-409.183 1031.35,-346.792 1051.56,-315.822"/>
<polygon fill="midnightblue" stroke="midnightblue" points="1054.58,-317.597 1057.02,-307.286 1048.69,-313.826 1054.58,-317.597"/>
</g>
<!-- Node29&#45;&gt;Node25 -->
<g id="edge32" class="edge"><title>Node29&#45;&gt;Node25</title>
<path fill="none" stroke="midnightblue" d="M902.856,-413.844C912.874,-411.17 922.912,-407.759 932,-403.413 979.188,-380.847 1024.36,-338.099 1047.32,-314.365"/>
<polygon fill="midnightblue" stroke="midnightblue" points="1049.87,-316.762 1054.22,-307.102 1044.79,-311.939 1049.87,-316.762"/>
</g>
<!-- Node30&#45;&gt;Node25 -->
<g id="edge34" class="edge"><title>Node30&#45;&gt;Node25</title>
<path fill="none" stroke="midnightblue" d="M900.425,-364.281C911.037,-361.275 921.9,-357.946 932,-354.413 967.914,-341.85 1007.83,-323.876 1034.05,-311.487"/>
<polygon fill="midnightblue" stroke="midnightblue" points="1035.87,-314.496 1043.39,-307.035 1032.86,-308.177 1035.87,-314.496"/>
</g>
<!-- Node31&#45;&gt;Node25 -->
<g id="edge36" class="edge"><title>Node31&#45;&gt;Node25</title>
<path fill="none" stroke="midnightblue" d="M895.236,-325.873C925.991,-320.656 964.278,-314.16 996.507,-308.693"/>
<polygon fill="midnightblue" stroke="midnightblue" points="997.468,-312.08 1006.74,-306.957 996.297,-305.179 997.468,-312.08"/>
</g>
<!-- Node32&#45;&gt;Node25 -->
<g id="edge38" class="edge"><title>Node32&#45;&gt;Node25</title>
<path fill="none" stroke="midnightblue" d="M923.685,-297.413C944.979,-297.413 967.676,-297.413 988.434,-297.413"/>
<polygon fill="midnightblue" stroke="midnightblue" points="988.454,-300.913 998.454,-297.413 988.454,-293.913 988.454,-300.913"/>
</g>
<!-- Node33&#45;&gt;Node25 -->
<g id="edge40" class="edge"><title>Node33&#45;&gt;Node25</title>
<path fill="none" stroke="midnightblue" d="M895.236,-268.953C925.991,-274.17 964.278,-280.665 996.507,-286.133"/>
<polygon fill="midnightblue" stroke="midnightblue" points="996.297,-289.647 1006.74,-287.869 997.468,-282.746 996.297,-289.647"/>
</g>
<!-- Node34&#45;&gt;Node25 -->
<g id="edge42" class="edge"><title>Node34&#45;&gt;Node25</title>
<path fill="none" stroke="midnightblue" d="M900.425,-230.545C911.037,-233.551 921.9,-236.88 932,-240.413 967.914,-252.976 1007.83,-270.95 1034.05,-283.339"/>
<polygon fill="midnightblue" stroke="midnightblue" points="1032.86,-286.649 1043.39,-287.791 1035.87,-280.33 1032.86,-286.649"/>
</g>
<!-- Node35&#45;&gt;Node25 -->
<g id="edge44" class="edge"><title>Node35&#45;&gt;Node25</title>
<path fill="none" stroke="midnightblue" d="M905.824,-180.97C914.85,-183.432 923.812,-186.526 932,-190.413 979.668,-213.041 1024.96,-256.619 1047.73,-280.59"/>
<polygon fill="midnightblue" stroke="midnightblue" points="1045.17,-282.984 1054.55,-287.908 1050.29,-278.209 1045.17,-282.984"/>
</g>
<!-- Node36&#45;&gt;Node25 -->
<g id="edge46" class="edge"><title>Node36&#45;&gt;Node25</title>
<path fill="none" stroke="midnightblue" d="M911.794,-142.549C918.861,-145.313 925.726,-148.572 932,-152.413 986.279,-185.643 1031.35,-248.033 1051.56,-279.004"/>
<polygon fill="midnightblue" stroke="midnightblue" points="1048.69,-281 1057.02,-287.54 1054.58,-277.229 1048.69,-281"/>
</g>
<!-- Node37&#45;&gt;Node25 -->
<g id="edge48" class="edge"><title>Node37&#45;&gt;Node25</title>
<path fill="none" stroke="midnightblue" d="M913.258,-92.9692C919.884,-95.4598 926.25,-98.5599 932,-102.413 998.725,-147.127 1040.32,-238.451 1055.95,-278.207"/>
<polygon fill="midnightblue" stroke="midnightblue" points="1052.77,-279.67 1059.6,-287.766 1059.31,-277.175 1052.77,-279.67"/>
</g>
<!-- Node38&#45;&gt;Node25 -->
<g id="edge50" class="edge"><title>Node38&#45;&gt;Node25</title>
<path fill="none" stroke="midnightblue" d="M914.989,-55.0618C921.038,-57.5522 926.807,-60.6262 932,-64.4129 1007.51,-119.48 1045.29,-232.107 1057.97,-277.649"/>
<polygon fill="midnightblue" stroke="midnightblue" points="1054.63,-278.721 1060.6,-287.476 1061.39,-276.911 1054.63,-278.721"/>
</g>
<!-- Node41 -->
<g id="node41" class="node"><title>Node41</title>
<g id="a_node41"><a xlink:href="../../dd/dea/classgui_1_1_g_u_i_scene.html#a2476ac9be7551f4637e28aa12d3800e4" target="_top" xlink:title="gui.GUIScene.draw">
<polygon fill="white" stroke="black" points="390.5,-139.913 390.5,-158.913 497.5,-158.913 497.5,-139.913 390.5,-139.913"/>
<text text-anchor="middle" x="444" y="-146.913" font-family="Helvetica,sans-Serif" font-size="10.00">gui.GUIScene.draw</text>
</a>
</g>
</g>
<!-- Node40&#45;&gt;Node41 -->
<g id="edge53" class="edge"><title>Node40&#45;&gt;Node41</title>
<path fill="none" stroke="midnightblue" d="M316.028,-136.373C336.426,-138.467 359.434,-140.831 380.207,-142.964"/>
<polygon fill="midnightblue" stroke="midnightblue" points="379.898,-146.45 390.203,-143.991 380.613,-139.487 379.898,-146.45"/>
</g>
<!-- Node45 -->
<g id="node45" class="node"><title>Node45</title>
<g id="a_node45"><a xlink:href="../../db/d32/classcontroller_1_1_main_controller.html#a422fc72151a8108190c4c945f3f5cd7a" target="_top" xlink:title="controller.MainController.get\lTurtle">
<polygon fill="white" stroke="black" points="554.5,-36.4129 554.5,-66.4129 705.5,-66.4129 705.5,-36.4129 554.5,-36.4129"/>
<text text-anchor="start" x="562.5" y="-54.4129" font-family="Helvetica,sans-Serif" font-size="10.00">controller.MainController.get</text>
<text text-anchor="middle" x="630" y="-43.4129" font-family="Helvetica,sans-Serif" font-size="10.00">Turtle</text>
</a>
</g>
</g>
<!-- Node40&#45;&gt;Node45 -->
<g id="edge61" class="edge"><title>Node40&#45;&gt;Node45</title>
<path fill="none" stroke="midnightblue" d="M316.194,-126.757C369.195,-122.281 449.154,-112.631 516,-92.4129 532.937,-87.2904 535.514,-81.8389 552,-75.4129 557.055,-73.4424 562.345,-71.5186 567.681,-69.6724"/>
<polygon fill="midnightblue" stroke="midnightblue" points="568.934,-72.9439 577.297,-66.4399 566.703,-66.3087 568.934,-72.9439"/>
</g>
<!-- Node47 -->
<g id="node47" class="node"><title>Node47</title>
<g id="a_node47"><a xlink:href="../../d8/df7/classview_1_1_turtle_view.html#a0f52056bc1277fd80b3ff4f6eb368a98" target="_top" xlink:title="view.TurtleView.setData">
<polygon fill="white" stroke="black" points="380.5,-63.9129 380.5,-82.9129 507.5,-82.9129 507.5,-63.9129 380.5,-63.9129"/>
<text text-anchor="middle" x="444" y="-70.9129" font-family="Helvetica,sans-Serif" font-size="10.00">view.TurtleView.setData</text>
</a>
</g>
</g>
<!-- Node40&#45;&gt;Node47 -->
<g id="edge60" class="edge"><title>Node40&#45;&gt;Node47</title>
<path fill="none" stroke="midnightblue" d="M288.965,-120.872C320.047,-111.296 368.093,-96.4924 402.254,-85.9672"/>
<polygon fill="midnightblue" stroke="midnightblue" points="403.408,-89.274 411.934,-82.9846 401.347,-82.5843 403.408,-89.274"/>
</g>
<!-- Node42 -->
<g id="node42" class="node"><title>Node42</title>
<g id="a_node42"><a xlink:href="../../dd/dd2/classsimulation_objects_1_1_pen.html#a6ce8186088005083ce0700c771879a0d" target="_top" xlink:title="simulationObjects.Pen.get\lActive">
<polygon fill="white" stroke="black" points="559,-232.413 559,-262.413 701,-262.413 701,-232.413 559,-232.413"/>
<text text-anchor="start" x="567" y="-250.413" font-family="Helvetica,sans-Serif" font-size="10.00">simulationObjects.Pen.get</text>
<text text-anchor="middle" x="630" y="-239.413" font-family="Helvetica,sans-Serif" font-size="10.00">Active</text>
</a>
</g>
</g>
<!-- Node41&#45;&gt;Node42 -->
<g id="edge54" class="edge"><title>Node41&#45;&gt;Node42</title>
<path fill="none" stroke="midnightblue" d="M456.508,-158.913C475.406,-174.121 514.654,-204.081 552,-222.413 556.536,-224.64 561.317,-226.734 566.184,-228.689"/>
<polygon fill="midnightblue" stroke="midnightblue" points="565.018,-231.99 575.609,-232.276 567.508,-225.448 565.018,-231.99"/>
</g>
<!-- Node43 -->
<g id="node43" class="node"><title>Node43</title>
<g id="a_node43"><a xlink:href="../../dd/dd2/classsimulation_objects_1_1_pen.html#aee57d795b9bd15dfda8d2bd01c20b00e" target="_top" xlink:title="simulationObjects.Pen.get\lColor">
<polygon fill="white" stroke="black" points="559,-183.413 559,-213.413 701,-213.413 701,-183.413 559,-183.413"/>
<text text-anchor="start" x="567" y="-201.413" font-family="Helvetica,sans-Serif" font-size="10.00">simulationObjects.Pen.get</text>
<text text-anchor="middle" x="630" y="-190.413" font-family="Helvetica,sans-Serif" font-size="10.00">Color</text>
</a>
</g>
</g>
<!-- Node41&#45;&gt;Node43 -->
<g id="edge55" class="edge"><title>Node41&#45;&gt;Node43</title>
<path fill="none" stroke="midnightblue" d="M480.914,-158.977C504.107,-165.153 534.991,-173.378 562.551,-180.717"/>
<polygon fill="midnightblue" stroke="midnightblue" points="561.971,-184.185 572.535,-183.376 563.772,-177.42 561.971,-184.185"/>
</g>
<!-- Node44 -->
<g id="node44" class="node"><title>Node44</title>
<g id="a_node44"><a xlink:href="../../dd/dd2/classsimulation_objects_1_1_pen.html#a2926d21b406268e8c516a67dad943437" target="_top" xlink:title="simulationObjects.Pen.get\lStyle">
<polygon fill="white" stroke="black" points="559,-134.413 559,-164.413 701,-164.413 701,-134.413 559,-134.413"/>
<text text-anchor="start" x="567" y="-152.413" font-family="Helvetica,sans-Serif" font-size="10.00">simulationObjects.Pen.get</text>
<text text-anchor="middle" x="630" y="-141.413" font-family="Helvetica,sans-Serif" font-size="10.00">Style</text>
</a>
</g>
</g>
<!-- Node41&#45;&gt;Node44 -->
<g id="edge56" class="edge"><title>Node41&#45;&gt;Node44</title>
<path fill="none" stroke="midnightblue" d="M497.727,-149.413C513.617,-149.413 531.432,-149.413 548.689,-149.413"/>
<polygon fill="midnightblue" stroke="midnightblue" points="548.766,-152.913 558.766,-149.413 548.766,-145.913 548.766,-152.913"/>
</g>
<!-- Node41&#45;&gt;Node45 -->
<g id="edge57" class="edge"><title>Node41&#45;&gt;Node45</title>
<path fill="none" stroke="midnightblue" d="M487.291,-139.881C497.303,-136.379 507.524,-131.676 516,-125.413 538.023,-109.14 529.785,-91.4226 552,-75.4129 554.087,-73.9086 556.272,-72.4966 558.529,-71.1715"/>
<polygon fill="midnightblue" stroke="midnightblue" points="560.287,-74.202 567.54,-66.4788 557.054,-67.9934 560.287,-74.202"/>
</g>
<!-- Node46 -->
<g id="node46" class="node"><title>Node46</title>
<g id="a_node46"><a xlink:href="../../dd/dd2/classsimulation_objects_1_1_pen.html#ac2beabc7113d01d4f5d3a136575f7295" target="_top" xlink:title="simulationObjects.Pen.get\lWidth">
<polygon fill="white" stroke="black" points="559,-85.4129 559,-115.413 701,-115.413 701,-85.4129 559,-85.4129"/>
<text text-anchor="start" x="567" y="-103.413" font-family="Helvetica,sans-Serif" font-size="10.00">simulationObjects.Pen.get</text>
<text text-anchor="middle" x="630" y="-92.4129" font-family="Helvetica,sans-Serif" font-size="10.00">Width</text>
</a>
</g>
</g>
<!-- Node41&#45;&gt;Node46 -->
<g id="edge59" class="edge"><title>Node41&#45;&gt;Node46</title>
<path fill="none" stroke="midnightblue" d="M480.914,-139.849C504.107,-133.672 534.991,-125.448 562.551,-118.108"/>
<polygon fill="midnightblue" stroke="midnightblue" points="563.772,-121.405 572.535,-115.45 561.971,-114.641 563.772,-121.405"/>
</g>
<!-- Node45&#45;&gt;Node25 -->
<g id="edge58" class="edge"><title>Node45&#45;&gt;Node25</title>
<path fill="none" stroke="midnightblue" d="M664.809,-36.3498C723.992,-12.4723 848.046,26.2525 932,-26.4129 1023.76,-83.9771 1052.81,-226.002 1060.54,-277.965"/>
<polygon fill="midnightblue" stroke="midnightblue" points="1057.08,-278.455 1061.92,-287.88 1064.01,-277.494 1057.08,-278.455"/>
</g>
</g>
</svg>
