<?xml version="1.0" encoding="UTF-8" standalone="no"?>
<!DOCTYPE svg PUBLIC "-//W3C//DTD SVG 1.1//EN"
 "http://www.w3.org/Graphics/SVG/1.1/DTD/svg11.dtd">
<!-- Generated by graphviz version 2.36.0 (20140111.2315)
 -->
<!-- Title: gui.GUIScene.addGrid Pages: 1 -->
<svg width="804pt" height="234pt"
 viewBox="0.00 0.00 804.00 234.00" xmlns="http://www.w3.org/2000/svg" xmlns:xlink="http://www.w3.org/1999/xlink">
<g id="graph0" class="graph" transform="scale(1 1) rotate(0) translate(4 230)">
<title>gui.GUIScene.addGrid</title>
<polygon fill="white" stroke="none" points="-4,4 -4,-230 800,-230 800,4 -4,4"/>
<!-- Node1 -->
<g id="node1" class="node"><title>Node1</title>
<polygon fill="#bfbfbf" stroke="black" points="0,-179.5 0,-198.5 122,-198.5 122,-179.5 0,-179.5"/>
<text text-anchor="middle" x="61" y="-186.5" font-family="Helvetica,sans-Serif" font-size="10.00">gui.GUIScene.addGrid</text>
</g>
<!-- Node2 -->
<g id="node2" class="node"><title>Node2</title>
<g id="a_node2"><a xlink:href="../../db/d32/classcontroller_1_1_main_controller.html#a422fc72151a8108190c4c945f3f5cd7a" target="_top" xlink:title="controller.MainController.get\lTurtle">
<polygon fill="white" stroke="black" points="476.5,-196 476.5,-226 627.5,-226 627.5,-196 476.5,-196"/>
<text text-anchor="start" x="484.5" y="-214" font-family="Helvetica,sans-Serif" font-size="10.00">controller.MainController.get</text>
<text text-anchor="middle" x="552" y="-203" font-family="Helvetica,sans-Serif" font-size="10.00">Turtle</text>
</a>
</g>
</g>
<!-- Node1&#45;&gt;Node2 -->
<g id="edge1" class="edge"><title>Node1&#45;&gt;Node2</title>
<path fill="none" stroke="midnightblue" d="M120.003,-198.53C132.505,-200.284 145.669,-201.904 158,-203 263.714,-212.394 386.022,-213.327 465.749,-212.612"/>
<polygon fill="midnightblue" stroke="midnightblue" points="466.261,-216.107 476.225,-212.506 466.191,-209.108 466.261,-216.107"/>
</g>
<!-- Node4 -->
<g id="node4" class="node"><title>Node4</title>
<g id="a_node4"><a xlink:href="../../d8/df7/classview_1_1_turtle_view.html#a0f52056bc1277fd80b3ff4f6eb368a98" target="_top" xlink:title="view.TurtleView.setData">
<polygon fill="white" stroke="black" points="312.5,-179.5 312.5,-198.5 439.5,-198.5 439.5,-179.5 312.5,-179.5"/>
<text text-anchor="middle" x="376" y="-186.5" font-family="Helvetica,sans-Serif" font-size="10.00">view.TurtleView.setData</text>
</a>
</g>
</g>
<!-- Node1&#45;&gt;Node4 -->
<g id="edge3" class="edge"><title>Node1&#45;&gt;Node4</title>
<path fill="none" stroke="midnightblue" d="M122.35,-189C173.668,-189 247.507,-189 302.116,-189"/>
<polygon fill="midnightblue" stroke="midnightblue" points="302.424,-192.5 312.424,-189 302.424,-185.5 302.424,-192.5"/>
</g>
<!-- Node5 -->
<g id="node5" class="node"><title>Node5</title>
<g id="a_node5"><a xlink:href="../../dd/dea/classgui_1_1_g_u_i_scene.html#a21fe0ea8ff67b7c2da45e6ad786eab56" target="_top" xlink:title="gui.GUIScene.update">
<polygon fill="white" stroke="black" points="158,-141.5 158,-160.5 276,-160.5 276,-141.5 158,-141.5"/>
<text text-anchor="middle" x="217" y="-148.5" font-family="Helvetica,sans-Serif" font-size="10.00">gui.GUIScene.update</text>
</a>
</g>
</g>
<!-- Node1&#45;&gt;Node5 -->
<g id="edge4" class="edge"><title>Node1&#45;&gt;Node5</title>
<path fill="none" stroke="midnightblue" d="M100.861,-179.411C121.091,-174.419 146.021,-168.268 167.504,-162.967"/>
<polygon fill="midnightblue" stroke="midnightblue" points="168.548,-166.314 177.419,-160.52 166.871,-159.518 168.548,-166.314"/>
</g>
<!-- Node3 -->
<g id="node3" class="node"><title>Node3</title>
<g id="a_node3"><a xlink:href="../../de/d1c/namespacesimulation_objects.html#a02779129356465b8d266330b211f83f1" target="_top" xlink:title="simulationObjects.Turtle">
<polygon fill="white" stroke="black" points="664.5,-201.5 664.5,-220.5 795.5,-220.5 795.5,-201.5 664.5,-201.5"/>
<text text-anchor="middle" x="730" y="-208.5" font-family="Helvetica,sans-Serif" font-size="10.00">simulationObjects.Turtle</text>
</a>
</g>
</g>
<!-- Node2&#45;&gt;Node3 -->
<g id="edge2" class="edge"><title>Node2&#45;&gt;Node3</title>
<path fill="none" stroke="midnightblue" d="M627.64,-211C636.394,-211 645.329,-211 654.086,-211"/>
<polygon fill="midnightblue" stroke="midnightblue" points="654.265,-214.5 664.265,-211 654.265,-207.5 654.265,-214.5"/>
</g>
<!-- Node5&#45;&gt;Node2 -->
<g id="edge12" class="edge"><title>Node5&#45;&gt;Node2</title>
<path fill="none" stroke="midnightblue" d="M276.379,-150.737C321.672,-151.786 385.679,-156.025 440,-170 456.957,-174.362 459.676,-179.669 476,-186 481.794,-188.247 487.885,-190.482 493.987,-192.638"/>
<polygon fill="midnightblue" stroke="midnightblue" points="492.948,-195.982 503.542,-195.951 495.241,-189.368 492.948,-195.982"/>
</g>
<!-- Node5&#45;&gt;Node4 -->
<g id="edge11" class="edge"><title>Node5&#45;&gt;Node4</title>
<path fill="none" stroke="midnightblue" d="M257.618,-160.589C278.336,-165.604 303.888,-171.788 325.856,-177.105"/>
<polygon fill="midnightblue" stroke="midnightblue" points="325.124,-180.529 335.667,-179.48 326.771,-173.726 325.124,-180.529"/>
</g>
<!-- Node6 -->
<g id="node6" class="node"><title>Node6</title>
<g id="a_node6"><a xlink:href="../../dd/dea/classgui_1_1_g_u_i_scene.html#a2476ac9be7551f4637e28aa12d3800e4" target="_top" xlink:title="gui.GUIScene.draw">
<polygon fill="white" stroke="black" points="322.5,-103.5 322.5,-122.5 429.5,-122.5 429.5,-103.5 322.5,-103.5"/>
<text text-anchor="middle" x="376" y="-110.5" font-family="Helvetica,sans-Serif" font-size="10.00">gui.GUIScene.draw</text>
</a>
</g>
</g>
<!-- Node5&#45;&gt;Node6 -->
<g id="edge5" class="edge"><title>Node5&#45;&gt;Node6</title>
<path fill="none" stroke="midnightblue" d="M257.618,-141.411C278.336,-136.396 303.888,-130.212 325.856,-124.895"/>
<polygon fill="midnightblue" stroke="midnightblue" points="326.771,-128.274 335.667,-122.52 325.124,-121.471 326.771,-128.274"/>
</g>
<!-- Node6&#45;&gt;Node2 -->
<g id="edge7" class="edge"><title>Node6&#45;&gt;Node2</title>
<path fill="none" stroke="midnightblue" d="M412.523,-122.505C422.026,-126.086 431.897,-130.833 440,-137 461.504,-153.367 454.156,-170.091 476,-186 478.663,-187.939 481.485,-189.735 484.415,-191.396"/>
<polygon fill="midnightblue" stroke="midnightblue" points="482.967,-194.586 493.468,-195.988 486.133,-188.343 482.967,-194.586"/>
</g>
<!-- Node7 -->
<g id="node7" class="node"><title>Node7</title>
<g id="a_node7"><a xlink:href="../../dd/dd2/classsimulation_objects_1_1_pen.html#a6ce8186088005083ce0700c771879a0d" target="_top" xlink:title="simulationObjects.Pen.get\lActive">
<polygon fill="white" stroke="black" points="481,-147 481,-177 623,-177 623,-147 481,-147"/>
<text text-anchor="start" x="489" y="-165" font-family="Helvetica,sans-Serif" font-size="10.00">simulationObjects.Pen.get</text>
<text text-anchor="middle" x="552" y="-154" font-family="Helvetica,sans-Serif" font-size="10.00">Active</text>
</a>
</g>
</g>
<!-- Node6&#45;&gt;Node7 -->
<g id="edge6" class="edge"><title>Node6&#45;&gt;Node7</title>
<path fill="none" stroke="midnightblue" d="M410.962,-122.564C432.799,-128.713 461.844,-136.893 487.82,-144.208"/>
<polygon fill="midnightblue" stroke="midnightblue" points="487.029,-147.621 497.603,-146.963 488.927,-140.883 487.029,-147.621"/>
</g>
<!-- Node8 -->
<g id="node8" class="node"><title>Node8</title>
<g id="a_node8"><a xlink:href="../../dd/dd2/classsimulation_objects_1_1_pen.html#aee57d795b9bd15dfda8d2bd01c20b00e" target="_top" xlink:title="simulationObjects.Pen.get\lColor">
<polygon fill="white" stroke="black" points="481,-98 481,-128 623,-128 623,-98 481,-98"/>
<text text-anchor="start" x="489" y="-116" font-family="Helvetica,sans-Serif" font-size="10.00">simulationObjects.Pen.get</text>
<text text-anchor="middle" x="552" y="-105" font-family="Helvetica,sans-Serif" font-size="10.00">Color</text>
</a>
</g>
</g>
<!-- Node6&#45;&gt;Node8 -->
<g id="edge8" class="edge"><title>Node6&#45;&gt;Node8</title>
<path fill="none" stroke="midnightblue" d="M429.678,-113C442.637,-113 456.805,-113 470.742,-113"/>
<polygon fill="midnightblue" stroke="midnightblue" points="470.828,-116.5 480.828,-113 470.828,-109.5 470.828,-116.5"/>
</g>
<!-- Node9 -->
<g id="node9" class="node"><title>Node9</title>
<g id="a_node9"><a xlink:href="../../dd/dd2/classsimulation_objects_1_1_pen.html#a2926d21b406268e8c516a67dad943437" target="_top" xlink:title="simulationObjects.Pen.get\lStyle">
<polygon fill="white" stroke="black" points="481,-49 481,-79 623,-79 623,-49 481,-49"/>
<text text-anchor="start" x="489" y="-67" font-family="Helvetica,sans-Serif" font-size="10.00">simulationObjects.Pen.get</text>
<text text-anchor="middle" x="552" y="-56" font-family="Helvetica,sans-Serif" font-size="10.00">Style</text>
</a>
</g>
</g>
<!-- Node6&#45;&gt;Node9 -->
<g id="edge9" class="edge"><title>Node6&#45;&gt;Node9</title>
<path fill="none" stroke="midnightblue" d="M410.962,-103.436C432.799,-97.2866 461.844,-89.1072 487.82,-81.7922"/>
<polygon fill="midnightblue" stroke="midnightblue" points="488.927,-85.1167 497.603,-79.037 487.029,-78.3787 488.927,-85.1167"/>
</g>
<!-- Node10 -->
<g id="node10" class="node"><title>Node10</title>
<g id="a_node10"><a xlink:href="../../dd/dd2/classsimulation_objects_1_1_pen.html#ac2beabc7113d01d4f5d3a136575f7295" target="_top" xlink:title="simulationObjects.Pen.get\lWidth">
<polygon fill="white" stroke="black" points="481,-0 481,-30 623,-30 623,-0 481,-0"/>
<text text-anchor="start" x="489" y="-18" font-family="Helvetica,sans-Serif" font-size="10.00">simulationObjects.Pen.get</text>
<text text-anchor="middle" x="552" y="-7" font-family="Helvetica,sans-Serif" font-size="10.00">Width</text>
</a>
</g>
</g>
<!-- Node6&#45;&gt;Node10 -->
<g id="edge10" class="edge"><title>Node6&#45;&gt;Node10</title>
<path fill="none" stroke="midnightblue" d="M387.478,-103.277C404.725,-87.7313 440.711,-57.1834 476,-39 479.522,-37.185 483.209,-35.4733 486.976,-33.8649"/>
<polygon fill="midnightblue" stroke="midnightblue" points="488.473,-37.0363 496.463,-30.0792 485.878,-30.5348 488.473,-37.0363"/>
</g>
</g>
</svg>
