<?xml version="1.0" encoding="UTF-8" standalone="no"?>
<!DOCTYPE svg PUBLIC "-//W3C//DTD SVG 1.1//EN"
 "http://www.w3.org/Graphics/SVG/1.1/DTD/svg11.dtd">
<!-- Generated by graphviz version 2.36.0 (20140111.2315)
 -->
<!-- Title: gui.GUIScene.update Pages: 1 -->
<svg width="646pt" height="249pt"
 viewBox="0.00 0.00 646.00 249.00" xmlns="http://www.w3.org/2000/svg" xmlns:xlink="http://www.w3.org/1999/xlink">
<g id="graph0" class="graph" transform="scale(1 1) rotate(0) translate(4 245)">
<title>gui.GUIScene.update</title>
<polygon fill="white" stroke="none" points="-4,4 -4,-245 642,-245 642,4 -4,4"/>
<!-- Node1 -->
<g id="node1" class="node"><title>Node1</title>
<polygon fill="#bfbfbf" stroke="black" points="0,-38.5 0,-57.5 118,-57.5 118,-38.5 0,-38.5"/>
<text text-anchor="middle" x="59" y="-45.5" font-family="Helvetica,sans-Serif" font-size="10.00">gui.GUIScene.update</text>
</g>
<!-- Node2 -->
<g id="node2" class="node"><title>Node2</title>
<g id="a_node2"><a xlink:href="../../dd/dea/classgui_1_1_g_u_i_scene.html#a2476ac9be7551f4637e28aa12d3800e4" target="_top" xlink:title="gui.GUIScene.draw">
<polygon fill="white" stroke="black" points="164.5,-94.5 164.5,-113.5 271.5,-113.5 271.5,-94.5 164.5,-94.5"/>
<text text-anchor="middle" x="218" y="-101.5" font-family="Helvetica,sans-Serif" font-size="10.00">gui.GUIScene.draw</text>
</a>
</g>
</g>
<!-- Node1&#45;&gt;Node2 -->
<g id="edge1" class="edge"><title>Node1&#45;&gt;Node2</title>
<path fill="none" stroke="midnightblue" d="M86.9893,-57.6267C112.87,-66.8581 152.125,-80.8598 180.729,-91.0625"/>
<polygon fill="midnightblue" stroke="midnightblue" points="179.768,-94.4358 190.363,-94.4989 182.12,-87.8427 179.768,-94.4358"/>
</g>
<!-- Node6 -->
<g id="node6" class="node"><title>Node6</title>
<g id="a_node6"><a xlink:href="../../db/d32/classcontroller_1_1_main_controller.html#a422fc72151a8108190c4c945f3f5cd7a" target="_top" xlink:title="controller.MainController.get\lTurtle">
<polygon fill="white" stroke="black" points="318.5,-15 318.5,-45 469.5,-45 469.5,-15 318.5,-15"/>
<text text-anchor="start" x="326.5" y="-33" font-family="Helvetica,sans-Serif" font-size="10.00">controller.MainController.get</text>
<text text-anchor="middle" x="394" y="-22" font-family="Helvetica,sans-Serif" font-size="10.00">Turtle</text>
</a>
</g>
</g>
<!-- Node1&#45;&gt;Node6 -->
<g id="edge8" class="edge"><title>Node1&#45;&gt;Node6</title>
<path fill="none" stroke="midnightblue" d="M118.004,-44.8646C170.585,-42.0224 248.736,-37.7981 308.301,-34.5783"/>
<polygon fill="midnightblue" stroke="midnightblue" points="308.647,-38.0648 318.443,-34.0301 308.269,-31.075 308.647,-38.0648"/>
</g>
<!-- Node9 -->
<g id="node9" class="node"><title>Node9</title>
<g id="a_node9"><a xlink:href="../../d8/df7/classview_1_1_turtle_view.html#a0f52056bc1277fd80b3ff4f6eb368a98" target="_top" xlink:title="view.TurtleView.setData">
<polygon fill="white" stroke="black" points="154.5,-0.5 154.5,-19.5 281.5,-19.5 281.5,-0.5 154.5,-0.5"/>
<text text-anchor="middle" x="218" y="-7.5" font-family="Helvetica,sans-Serif" font-size="10.00">view.TurtleView.setData</text>
</a>
</g>
</g>
<!-- Node1&#45;&gt;Node9 -->
<g id="edge9" class="edge"><title>Node1&#45;&gt;Node9</title>
<path fill="none" stroke="midnightblue" d="M99.6177,-38.411C120.336,-33.3965 145.888,-27.2119 167.856,-21.8947"/>
<polygon fill="midnightblue" stroke="midnightblue" points="168.771,-25.2744 177.667,-19.5201 167.124,-18.4708 168.771,-25.2744"/>
</g>
<!-- Node3 -->
<g id="node3" class="node"><title>Node3</title>
<g id="a_node3"><a xlink:href="../../dd/dd2/classsimulation_objects_1_1_pen.html#a6ce8186088005083ce0700c771879a0d" target="_top" xlink:title="simulationObjects.Pen.get\lActive">
<polygon fill="white" stroke="black" points="323,-211 323,-241 465,-241 465,-211 323,-211"/>
<text text-anchor="start" x="331" y="-229" font-family="Helvetica,sans-Serif" font-size="10.00">simulationObjects.Pen.get</text>
<text text-anchor="middle" x="394" y="-218" font-family="Helvetica,sans-Serif" font-size="10.00">Active</text>
</a>
</g>
</g>
<!-- Node2&#45;&gt;Node3 -->
<g id="edge2" class="edge"><title>Node2&#45;&gt;Node3</title>
<path fill="none" stroke="midnightblue" d="M226.364,-113.731C241.477,-133.06 277.96,-176.536 318,-201 321.395,-203.074 324.982,-204.999 328.675,-206.782"/>
<polygon fill="midnightblue" stroke="midnightblue" points="327.462,-210.073 338.022,-210.926 330.299,-203.673 327.462,-210.073"/>
</g>
<!-- Node4 -->
<g id="node4" class="node"><title>Node4</title>
<g id="a_node4"><a xlink:href="../../dd/dd2/classsimulation_objects_1_1_pen.html#aee57d795b9bd15dfda8d2bd01c20b00e" target="_top" xlink:title="simulationObjects.Pen.get\lColor">
<polygon fill="white" stroke="black" points="323,-162 323,-192 465,-192 465,-162 323,-162"/>
<text text-anchor="start" x="331" y="-180" font-family="Helvetica,sans-Serif" font-size="10.00">simulationObjects.Pen.get</text>
<text text-anchor="middle" x="394" y="-169" font-family="Helvetica,sans-Serif" font-size="10.00">Color</text>
</a>
</g>
</g>
<!-- Node2&#45;&gt;Node4 -->
<g id="edge3" class="edge"><title>Node2&#45;&gt;Node4</title>
<path fill="none" stroke="midnightblue" d="M236.926,-113.566C256.517,-123.811 288.986,-140.189 318,-152 323.456,-154.221 329.191,-156.4 334.958,-158.489"/>
<polygon fill="midnightblue" stroke="midnightblue" points="334.055,-161.882 344.65,-161.91 336.385,-155.281 334.055,-161.882"/>
</g>
<!-- Node5 -->
<g id="node5" class="node"><title>Node5</title>
<g id="a_node5"><a xlink:href="../../dd/dd2/classsimulation_objects_1_1_pen.html#a2926d21b406268e8c516a67dad943437" target="_top" xlink:title="simulationObjects.Pen.get\lStyle">
<polygon fill="white" stroke="black" points="323,-113 323,-143 465,-143 465,-113 323,-113"/>
<text text-anchor="start" x="331" y="-131" font-family="Helvetica,sans-Serif" font-size="10.00">simulationObjects.Pen.get</text>
<text text-anchor="middle" x="394" y="-120" font-family="Helvetica,sans-Serif" font-size="10.00">Style</text>
</a>
</g>
</g>
<!-- Node2&#45;&gt;Node5 -->
<g id="edge4" class="edge"><title>Node2&#45;&gt;Node5</title>
<path fill="none" stroke="midnightblue" d="M271.678,-111.266C284.637,-113.053 298.805,-115.008 312.742,-116.93"/>
<polygon fill="midnightblue" stroke="midnightblue" points="312.443,-120.422 322.828,-118.321 313.4,-113.487 312.443,-120.422"/>
</g>
<!-- Node2&#45;&gt;Node6 -->
<g id="edge5" class="edge"><title>Node2&#45;&gt;Node6</title>
<path fill="none" stroke="midnightblue" d="M236.544,-94.395C256.072,-83.9224 288.741,-67.05 318,-55 323.447,-52.7566 329.176,-50.5627 334.939,-48.4647"/>
<polygon fill="midnightblue" stroke="midnightblue" points="336.369,-51.6713 344.627,-45.0329 334.032,-45.0731 336.369,-51.6713"/>
</g>
<!-- Node8 -->
<g id="node8" class="node"><title>Node8</title>
<g id="a_node8"><a xlink:href="../../dd/dd2/classsimulation_objects_1_1_pen.html#ac2beabc7113d01d4f5d3a136575f7295" target="_top" xlink:title="simulationObjects.Pen.get\lWidth">
<polygon fill="white" stroke="black" points="323,-64 323,-94 465,-94 465,-64 323,-64"/>
<text text-anchor="start" x="331" y="-82" font-family="Helvetica,sans-Serif" font-size="10.00">simulationObjects.Pen.get</text>
<text text-anchor="middle" x="394" y="-71" font-family="Helvetica,sans-Serif" font-size="10.00">Width</text>
</a>
</g>
</g>
<!-- Node2&#45;&gt;Node8 -->
<g id="edge7" class="edge"><title>Node2&#45;&gt;Node8</title>
<path fill="none" stroke="midnightblue" d="M271.678,-96.4313C284.637,-94.5695 298.805,-92.5337 312.742,-90.5314"/>
<polygon fill="midnightblue" stroke="midnightblue" points="313.427,-93.9689 322.828,-89.0822 312.432,-87.04 313.427,-93.9689"/>
</g>
<!-- Node7 -->
<g id="node7" class="node"><title>Node7</title>
<g id="a_node7"><a xlink:href="../../de/d1c/namespacesimulation_objects.html#a02779129356465b8d266330b211f83f1" target="_top" xlink:title="simulationObjects.Turtle">
<polygon fill="white" stroke="black" points="506.5,-20.5 506.5,-39.5 637.5,-39.5 637.5,-20.5 506.5,-20.5"/>
<text text-anchor="middle" x="572" y="-27.5" font-family="Helvetica,sans-Serif" font-size="10.00">simulationObjects.Turtle</text>
</a>
</g>
</g>
<!-- Node6&#45;&gt;Node7 -->
<g id="edge6" class="edge"><title>Node6&#45;&gt;Node7</title>
<path fill="none" stroke="midnightblue" d="M469.64,-30C478.394,-30 487.329,-30 496.086,-30"/>
<polygon fill="midnightblue" stroke="midnightblue" points="496.265,-33.5001 506.265,-30 496.265,-26.5001 496.265,-33.5001"/>
</g>
</g>
</svg>
