<?xml version="1.0" encoding="UTF-8" standalone="no"?>
<!DOCTYPE svg PUBLIC "-//W3C//DTD SVG 1.1//EN"
 "http://www.w3.org/Graphics/SVG/1.1/DTD/svg11.dtd">
<!-- Generated by graphviz version 2.36.0 (20140111.2315)
 -->
<!-- Title: gui.GUIScene.createGUI Pages: 1 -->
<svg width="500pt" height="85pt"
 viewBox="0.00 0.00 500.00 85.00" xmlns="http://www.w3.org/2000/svg" xmlns:xlink="http://www.w3.org/1999/xlink">
<g id="graph0" class="graph" transform="scale(1 1) rotate(0) translate(4 81)">
<title>gui.GUIScene.createGUI</title>
<polygon fill="white" stroke="none" points="-4,4 -4,-81 496,-81 496,4 -4,4"/>
<!-- Node1 -->
<g id="node1" class="node"><title>Node1</title>
<polygon fill="#bfbfbf" stroke="black" points="0,-57.5 0,-76.5 132,-76.5 132,-57.5 0,-57.5"/>
<text text-anchor="middle" x="66" y="-64.5" font-family="Helvetica,sans-Serif" font-size="10.00">gui.GUIScene.createGUI</text>
</g>
<!-- Node2 -->
<g id="node2" class="node"><title>Node2</title>
<g id="a_node2"><a xlink:href="../../dd/dea/classgui_1_1_g_u_i_scene.html#a16324ddc026310495f84e77bbb311b2c" target="_top" xlink:title="gui.GUIScene.addButtons">
<polygon fill="white" stroke="black" points="171,-57.5 171,-76.5 311,-76.5 311,-57.5 171,-57.5"/>
<text text-anchor="middle" x="241" y="-64.5" font-family="Helvetica,sans-Serif" font-size="10.00">gui.GUIScene.addButtons</text>
</a>
</g>
</g>
<!-- Node1&#45;&gt;Node2 -->
<g id="edge1" class="edge"><title>Node1&#45;&gt;Node2</title>
<path fill="none" stroke="midnightblue" d="M142.504,-60.2987C151.896,-60.2151 161.463,-60.2391 170.754,-60.3708"/>
<polygon fill="midnightblue" stroke="midnightblue" points="142.357,-56.8002 132.404,-60.4317 142.449,-63.7996 142.357,-56.8002"/>
</g>
<!-- Node3 -->
<g id="node3" class="node"><title>Node3</title>
<g id="a_node3"><a xlink:href="../../dd/dea/classgui_1_1_g_u_i_scene.html#a74967ac937baee81b9eec1b2bc38167c" target="_top" xlink:title="gui.GUIScene.createScene">
<polygon fill="white" stroke="black" points="168.5,-19.5 168.5,-38.5 313.5,-38.5 313.5,-19.5 168.5,-19.5"/>
<text text-anchor="middle" x="241" y="-26.5" font-family="Helvetica,sans-Serif" font-size="10.00">gui.GUIScene.createScene</text>
</a>
</g>
</g>
<!-- Node1&#45;&gt;Node3 -->
<g id="edge3" class="edge"><title>Node1&#45;&gt;Node3</title>
<path fill="none" stroke="midnightblue" d="M120.505,-55.2474C144.967,-49.8742 173.571,-43.5914 196.659,-38.5201"/>
<polygon fill="midnightblue" stroke="midnightblue" points="119.671,-51.847 110.655,-57.411 121.173,-58.684 119.671,-51.847"/>
</g>
<!-- Node2&#45;&gt;Node1 -->
<g id="edge2" class="edge"><title>Node2&#45;&gt;Node1</title>
<path fill="none" stroke="midnightblue" d="M160.585,-73.7298C151.154,-73.7836 141.609,-73.7298 132.404,-73.5683"/>
<polygon fill="midnightblue" stroke="midnightblue" points="160.789,-77.2281 170.754,-73.6292 160.719,-70.2284 160.789,-77.2281"/>
</g>
<!-- Node4 -->
<g id="node4" class="node"><title>Node4</title>
<g id="a_node4"><a xlink:href="../../d6/d0e/classcontroller_1_1_s_logo_main.html#ab5379c32fef791f21ad51abde7d268c0" target="_top" xlink:title="controller.SLogoMain.start">
<polygon fill="white" stroke="black" points="350,-38.5 350,-57.5 492,-57.5 492,-38.5 350,-38.5"/>
<text text-anchor="middle" x="421" y="-45.5" font-family="Helvetica,sans-Serif" font-size="10.00">controller.SLogoMain.start</text>
</a>
</g>
</g>
<!-- Node3&#45;&gt;Node4 -->
<g id="edge4" class="edge"><title>Node3&#45;&gt;Node4</title>
<path fill="none" stroke="midnightblue" d="M323.821,-37.7337C332.555,-38.666 341.382,-39.6082 349.963,-40.5241"/>
<polygon fill="midnightblue" stroke="midnightblue" points="323.945,-34.2271 313.63,-36.6459 323.202,-41.1876 323.945,-34.2271"/>
</g>
<!-- Node5 -->
<g id="node5" class="node"><title>Node5</title>
<g id="a_node5"><a xlink:href="../../dd/d48/classgui_1_1_g_u_i_start.html#a82d08814fef5331d82c4763a2426ffce" target="_top" xlink:title="gui.GUIStart.start">
<polygon fill="white" stroke="black" points="370.5,-0.5 370.5,-19.5 471.5,-19.5 471.5,-0.5 370.5,-0.5"/>
<text text-anchor="middle" x="421" y="-7.5" font-family="Helvetica,sans-Serif" font-size="10.00">gui.GUIStart.start</text>
</a>
</g>
</g>
<!-- Node3&#45;&gt;Node5 -->
<g id="edge5" class="edge"><title>Node3&#45;&gt;Node5</title>
<path fill="none" stroke="midnightblue" d="M323.974,-20.2499C339.814,-18.5592 355.952,-16.8366 370.365,-15.2981"/>
<polygon fill="midnightblue" stroke="midnightblue" points="323.202,-16.8124 313.63,-21.3541 323.945,-23.7729 323.202,-16.8124"/>
</g>
</g>
</svg>
