<?xml version="1.0" encoding="UTF-8" standalone="no"?>
<!DOCTYPE svg PUBLIC "-//W3C//DTD SVG 1.1//EN"
 "http://www.w3.org/Graphics/SVG/1.1/DTD/svg11.dtd">
<!-- Generated by graphviz version 2.36.0 (20140111.2315)
 -->
<!-- Title: gui.GUIScene.toRGBString Pages: 1 -->
<svg width="856pt" height="66pt"
 viewBox="0.00 0.00 856.00 66.00" xmlns="http://www.w3.org/2000/svg" xmlns:xlink="http://www.w3.org/1999/xlink">
<g id="graph0" class="graph" transform="scale(1 1) rotate(0) translate(4 62)">
<title>gui.GUIScene.toRGBString</title>
<polygon fill="white" stroke="none" points="-4,4 -4,-62 852,-62 852,4 -4,4"/>
<!-- Node1 -->
<g id="node1" class="node"><title>Node1</title>
<polygon fill="#bfbfbf" stroke="black" points="0.5,-19.5 0.5,-38.5 143.5,-38.5 143.5,-19.5 0.5,-19.5"/>
<text text-anchor="middle" x="72" y="-26.5" font-family="Helvetica,sans-Serif" font-size="10.00">gui.GUIScene.toRGBString</text>
</g>
<!-- Node2 -->
<g id="node2" class="node"><title>Node2</title>
<g id="a_node2"><a xlink:href="../../dd/dea/classgui_1_1_g_u_i_scene.html#a16324ddc026310495f84e77bbb311b2c" target="_top" xlink:title="gui.GUIScene.addButtons">
<polygon fill="white" stroke="black" points="180,-19.5 180,-38.5 320,-38.5 320,-19.5 180,-19.5"/>
<text text-anchor="middle" x="250" y="-26.5" font-family="Helvetica,sans-Serif" font-size="10.00">gui.GUIScene.addButtons</text>
</a>
</g>
</g>
<!-- Node1&#45;&gt;Node2 -->
<g id="edge1" class="edge"><title>Node1&#45;&gt;Node2</title>
<path fill="none" stroke="midnightblue" d="M153.744,-29C162.463,-29 171.279,-29 179.845,-29"/>
<polygon fill="midnightblue" stroke="midnightblue" points="153.572,-25.5001 143.572,-29 153.572,-32.5001 153.572,-25.5001"/>
</g>
<!-- Node3 -->
<g id="node3" class="node"><title>Node3</title>
<g id="a_node3"><a xlink:href="../../dd/dea/classgui_1_1_g_u_i_scene.html#a7cb2b00ed820aecde169a5e14cf0d468" target="_top" xlink:title="gui.GUIScene.createGUI">
<polygon fill="white" stroke="black" points="356,-19.5 356,-38.5 488,-38.5 488,-19.5 356,-19.5"/>
<text text-anchor="middle" x="422" y="-26.5" font-family="Helvetica,sans-Serif" font-size="10.00">gui.GUIScene.createGUI</text>
</a>
</g>
</g>
<!-- Node2&#45;&gt;Node3 -->
<g id="edge2" class="edge"><title>Node2&#45;&gt;Node3</title>
<path fill="none" stroke="midnightblue" d="M330.152,-22.2642C338.725,-22.2225 347.378,-22.2727 355.76,-22.4148"/>
<polygon fill="midnightblue" stroke="midnightblue" points="330.113,-18.7643 320.146,-22.3555 330.177,-25.764 330.113,-18.7643"/>
</g>
<!-- Node3&#45;&gt;Node2 -->
<g id="edge3" class="edge"><title>Node3&#45;&gt;Node2</title>
<path fill="none" stroke="midnightblue" d="M345.538,-35.7121C337.088,-35.7795 328.511,-35.757 320.146,-35.6445"/>
<polygon fill="midnightblue" stroke="midnightblue" points="345.804,-39.2092 355.76,-35.5852 345.717,-32.2097 345.804,-39.2092"/>
</g>
<!-- Node4 -->
<g id="node4" class="node"><title>Node4</title>
<g id="a_node4"><a xlink:href="../../dd/dea/classgui_1_1_g_u_i_scene.html#a74967ac937baee81b9eec1b2bc38167c" target="_top" xlink:title="gui.GUIScene.createScene">
<polygon fill="white" stroke="black" points="524.5,-19.5 524.5,-38.5 669.5,-38.5 669.5,-19.5 524.5,-19.5"/>
<text text-anchor="middle" x="597" y="-26.5" font-family="Helvetica,sans-Serif" font-size="10.00">gui.GUIScene.createScene</text>
</a>
</g>
</g>
<!-- Node3&#45;&gt;Node4 -->
<g id="edge4" class="edge"><title>Node3&#45;&gt;Node4</title>
<path fill="none" stroke="midnightblue" d="M498.445,-29C507.074,-29 515.853,-29 524.43,-29"/>
<polygon fill="midnightblue" stroke="midnightblue" points="498.404,-25.5001 488.404,-29 498.404,-32.5001 498.404,-25.5001"/>
</g>
<!-- Node5 -->
<g id="node5" class="node"><title>Node5</title>
<g id="a_node5"><a xlink:href="../../dd/d48/classgui_1_1_g_u_i_start.html#a82d08814fef5331d82c4763a2426ffce" target="_top" xlink:title="gui.GUIStart.start">
<polygon fill="white" stroke="black" points="726.5,-38.5 726.5,-57.5 827.5,-57.5 827.5,-38.5 726.5,-38.5"/>
<text text-anchor="middle" x="777" y="-45.5" font-family="Helvetica,sans-Serif" font-size="10.00">gui.GUIStart.start</text>
</a>
</g>
</g>
<!-- Node4&#45;&gt;Node5 -->
<g id="edge5" class="edge"><title>Node4&#45;&gt;Node5</title>
<path fill="none" stroke="midnightblue" d="M679.974,-37.7501C695.814,-39.4408 711.952,-41.1634 726.365,-42.7019"/>
<polygon fill="midnightblue" stroke="midnightblue" points="679.945,-34.2271 669.63,-36.6459 679.202,-41.1876 679.945,-34.2271"/>
</g>
<!-- Node6 -->
<g id="node6" class="node"><title>Node6</title>
<g id="a_node6"><a xlink:href="../../d6/d0e/classcontroller_1_1_s_logo_main.html#ab5379c32fef791f21ad51abde7d268c0" target="_top" xlink:title="controller.SLogoMain.start">
<polygon fill="white" stroke="black" points="706,-0.5 706,-19.5 848,-19.5 848,-0.5 706,-0.5"/>
<text text-anchor="middle" x="777" y="-7.5" font-family="Helvetica,sans-Serif" font-size="10.00">controller.SLogoMain.start</text>
</a>
</g>
</g>
<!-- Node4&#45;&gt;Node6 -->
<g id="edge6" class="edge"><title>Node4&#45;&gt;Node6</title>
<path fill="none" stroke="midnightblue" d="M679.821,-20.2663C688.555,-19.334 697.382,-18.3918 705.963,-17.4759"/>
<polygon fill="midnightblue" stroke="midnightblue" points="679.202,-16.8124 669.63,-21.3541 679.945,-23.7729 679.202,-16.8124"/>
</g>
</g>
</svg>
