<?xml version="1.0" encoding="UTF-8" standalone="no"?>
<!DOCTYPE svg PUBLIC "-//W3C//DTD SVG 1.1//EN"
 "http://www.w3.org/Graphics/SVG/1.1/DTD/svg11.dtd">
<!-- Generated by graphviz version 2.36.0 (20140111.2315)
 -->
<!-- Title: gui.GUIScene.addGrid Pages: 1 -->
<svg width="658pt" height="85pt"
 viewBox="0.00 0.00 658.00 85.00" xmlns="http://www.w3.org/2000/svg" xmlns:xlink="http://www.w3.org/1999/xlink">
<g id="graph0" class="graph" transform="scale(1 1) rotate(0) translate(4 81)">
<title>gui.GUIScene.addGrid</title>
<polygon fill="white" stroke="none" points="-4,4 -4,-81 654,-81 654,4 -4,4"/>
<!-- Node1 -->
<g id="node1" class="node"><title>Node1</title>
<polygon fill="#bfbfbf" stroke="black" points="0,-0.5 0,-19.5 122,-19.5 122,-0.5 0,-0.5"/>
<text text-anchor="middle" x="61" y="-7.5" font-family="Helvetica,sans-Serif" font-size="10.00">gui.GUIScene.addGrid</text>
</g>
<!-- Node2 -->
<g id="node2" class="node"><title>Node2</title>
<g id="a_node2"><a xlink:href="../../dd/dea/classgui_1_1_g_u_i_scene.html#a7cb2b00ed820aecde169a5e14cf0d468" target="_top" xlink:title="gui.GUIScene.createGUI">
<polygon fill="white" stroke="black" points="158,-0.5 158,-19.5 290,-19.5 290,-0.5 158,-0.5"/>
<text text-anchor="middle" x="224" y="-7.5" font-family="Helvetica,sans-Serif" font-size="10.00">gui.GUIScene.createGUI</text>
</a>
</g>
</g>
<!-- Node1&#45;&gt;Node2 -->
<g id="edge1" class="edge"><title>Node1&#45;&gt;Node2</title>
<path fill="none" stroke="midnightblue" d="M132.591,-10C141.02,-10 149.595,-10 157.941,-10"/>
<polygon fill="midnightblue" stroke="midnightblue" points="132.409,-6.5001 122.409,-10 132.408,-13.5001 132.409,-6.5001"/>
</g>
<!-- Node3 -->
<g id="node3" class="node"><title>Node3</title>
<g id="a_node3"><a xlink:href="../../dd/dea/classgui_1_1_g_u_i_scene.html#a74967ac937baee81b9eec1b2bc38167c" target="_top" xlink:title="gui.GUIScene.createScene">
<polygon fill="white" stroke="black" points="326.5,-38.5 326.5,-57.5 471.5,-57.5 471.5,-38.5 326.5,-38.5"/>
<text text-anchor="middle" x="399" y="-45.5" font-family="Helvetica,sans-Serif" font-size="10.00">gui.GUIScene.createScene</text>
</a>
</g>
</g>
<!-- Node2&#45;&gt;Node3 -->
<g id="edge2" class="edge"><title>Node2&#45;&gt;Node3</title>
<path fill="none" stroke="midnightblue" d="M278.505,-21.7526C302.967,-27.1258 331.571,-33.4086 354.659,-38.4799"/>
<polygon fill="midnightblue" stroke="midnightblue" points="279.173,-18.316 268.655,-19.589 277.671,-25.153 279.173,-18.316"/>
</g>
<!-- Node6 -->
<g id="node6" class="node"><title>Node6</title>
<g id="a_node6"><a xlink:href="../../dd/dea/classgui_1_1_g_u_i_scene.html#a16324ddc026310495f84e77bbb311b2c" target="_top" xlink:title="gui.GUIScene.addButtons">
<polygon fill="white" stroke="black" points="329,-0.5 329,-19.5 469,-19.5 469,-0.5 329,-0.5"/>
<text text-anchor="middle" x="399" y="-7.5" font-family="Helvetica,sans-Serif" font-size="10.00">gui.GUIScene.addButtons</text>
</a>
</g>
</g>
<!-- Node2&#45;&gt;Node6 -->
<g id="edge5" class="edge"><title>Node2&#45;&gt;Node6</title>
<path fill="none" stroke="midnightblue" d="M300.504,-3.29871C309.896,-3.2151 319.463,-3.23913 328.754,-3.37079"/>
<polygon fill="midnightblue" stroke="midnightblue" points="300.357,0.19975 290.404,-3.43169 300.449,-6.79964 300.357,0.19975"/>
</g>
<!-- Node4 -->
<g id="node4" class="node"><title>Node4</title>
<g id="a_node4"><a xlink:href="../../d6/d0e/classcontroller_1_1_s_logo_main.html#ab5379c32fef791f21ad51abde7d268c0" target="_top" xlink:title="controller.SLogoMain.start">
<polygon fill="white" stroke="black" points="508,-57.5 508,-76.5 650,-76.5 650,-57.5 508,-57.5"/>
<text text-anchor="middle" x="579" y="-64.5" font-family="Helvetica,sans-Serif" font-size="10.00">controller.SLogoMain.start</text>
</a>
</g>
</g>
<!-- Node3&#45;&gt;Node4 -->
<g id="edge3" class="edge"><title>Node3&#45;&gt;Node4</title>
<path fill="none" stroke="midnightblue" d="M481.821,-56.7337C490.555,-57.666 499.382,-58.6082 507.963,-59.5241"/>
<polygon fill="midnightblue" stroke="midnightblue" points="481.945,-53.2271 471.63,-55.6459 481.202,-60.1876 481.945,-53.2271"/>
</g>
<!-- Node5 -->
<g id="node5" class="node"><title>Node5</title>
<g id="a_node5"><a xlink:href="../../dd/d48/classgui_1_1_g_u_i_start.html#a82d08814fef5331d82c4763a2426ffce" target="_top" xlink:title="gui.GUIStart.start">
<polygon fill="white" stroke="black" points="528.5,-19.5 528.5,-38.5 629.5,-38.5 629.5,-19.5 528.5,-19.5"/>
<text text-anchor="middle" x="579" y="-26.5" font-family="Helvetica,sans-Serif" font-size="10.00">gui.GUIStart.start</text>
</a>
</g>
</g>
<!-- Node3&#45;&gt;Node5 -->
<g id="edge4" class="edge"><title>Node3&#45;&gt;Node5</title>
<path fill="none" stroke="midnightblue" d="M481.974,-39.2499C497.814,-37.5592 513.952,-35.8366 528.365,-34.2981"/>
<polygon fill="midnightblue" stroke="midnightblue" points="481.202,-35.8124 471.63,-40.3541 481.945,-42.7729 481.202,-35.8124"/>
</g>
<!-- Node6&#45;&gt;Node2 -->
<g id="edge6" class="edge"><title>Node6&#45;&gt;Node2</title>
<path fill="none" stroke="midnightblue" d="M318.585,-16.7298C309.154,-16.7836 299.609,-16.7298 290.404,-16.5683"/>
<polygon fill="midnightblue" stroke="midnightblue" points="318.789,-20.2281 328.754,-16.6292 318.719,-13.2284 318.789,-20.2281"/>
</g>
</g>
</svg>
