<?xml version="1.0" encoding="UTF-8" standalone="no"?>
<!DOCTYPE svg PUBLIC "-//W3C//DTD SVG 1.1//EN"
 "http://www.w3.org/Graphics/SVG/1.1/DTD/svg11.dtd">
<!-- Generated by graphviz version 2.36.0 (20140111.2315)
 -->
<!-- Title: gui.GUIScene.draw Pages: 1 -->
<svg width="976pt" height="99pt"
 viewBox="0.00 0.00 976.00 98.61" xmlns="http://www.w3.org/2000/svg" xmlns:xlink="http://www.w3.org/1999/xlink">
<g id="graph0" class="graph" transform="scale(1 1) rotate(0) translate(4 94.6063)">
<title>gui.GUIScene.draw</title>
<polygon fill="white" stroke="none" points="-4,4 -4,-94.6063 972,-94.6063 972,4 -4,4"/>
<!-- Node1 -->
<g id="node1" class="node"><title>Node1</title>
<polygon fill="#bfbfbf" stroke="black" points="0.5,-57.5 0.5,-76.5 107.5,-76.5 107.5,-57.5 0.5,-57.5"/>
<text text-anchor="middle" x="54" y="-64.5" font-family="Helvetica,sans-Serif" font-size="10.00">gui.GUIScene.draw</text>
</g>
<!-- Node2 -->
<g id="node2" class="node"><title>Node2</title>
<g id="a_node2"><a xlink:href="../../dd/dea/classgui_1_1_g_u_i_scene.html#a21fe0ea8ff67b7c2da45e6ad786eab56" target="_top" xlink:title="gui.GUIScene.update">
<polygon fill="white" stroke="black" points="144,-57.5 144,-76.5 262,-76.5 262,-57.5 144,-57.5"/>
<text text-anchor="middle" x="203" y="-64.5" font-family="Helvetica,sans-Serif" font-size="10.00">gui.GUIScene.update</text>
</a>
</g>
</g>
<!-- Node1&#45;&gt;Node2 -->
<g id="edge1" class="edge"><title>Node1&#45;&gt;Node2</title>
<path fill="none" stroke="midnightblue" d="M117.75,-67C126.455,-67 135.366,-67 143.98,-67"/>
<polygon fill="midnightblue" stroke="midnightblue" points="117.655,-63.5001 107.655,-67 117.655,-70.5001 117.655,-63.5001"/>
</g>
<!-- Node3 -->
<g id="node3" class="node"><title>Node3</title>
<g id="a_node3"><a xlink:href="../../dd/dea/classgui_1_1_g_u_i_scene.html#a7cb2b00ed820aecde169a5e14cf0d468" target="_top" xlink:title="gui.GUIScene.createGUI">
<polygon fill="white" stroke="black" points="476,-57.5 476,-76.5 608,-76.5 608,-57.5 476,-57.5"/>
<text text-anchor="middle" x="542" y="-64.5" font-family="Helvetica,sans-Serif" font-size="10.00">gui.GUIScene.createGUI</text>
</a>
</g>
</g>
<!-- Node2&#45;&gt;Node3 -->
<g id="edge2" class="edge"><title>Node2&#45;&gt;Node3</title>
<path fill="none" stroke="midnightblue" d="M252.023,-78.6246C266.689,-81.6548 282.924,-84.4916 298,-86 360.798,-92.283 377.161,-91.8592 440,-86 459.897,-84.1448 481.716,-80.2761 499.967,-76.5109"/>
<polygon fill="midnightblue" stroke="midnightblue" points="252.665,-75.1829 242.154,-76.5098 251.199,-82.0275 252.665,-75.1829"/>
</g>
<!-- Node8 -->
<g id="node8" class="node"><title>Node8</title>
<g id="a_node8"><a xlink:href="../../dd/dea/classgui_1_1_g_u_i_scene.html#a47e424a495817f5806f45064f77a632b" target="_top" xlink:title="gui.GUIScene.getRightBox">
<polygon fill="white" stroke="black" points="298,-57.5 298,-76.5 440,-76.5 440,-57.5 298,-57.5"/>
<text text-anchor="middle" x="369" y="-64.5" font-family="Helvetica,sans-Serif" font-size="10.00">gui.GUIScene.getRightBox</text>
</a>
</g>
</g>
<!-- Node2&#45;&gt;Node8 -->
<g id="edge8" class="edge"><title>Node2&#45;&gt;Node8</title>
<path fill="none" stroke="midnightblue" d="M272.408,-67C280.81,-67 289.407,-67 297.834,-67"/>
<polygon fill="midnightblue" stroke="midnightblue" points="272.282,-63.5001 262.282,-67 272.282,-70.5001 272.282,-63.5001"/>
</g>
<!-- Node9 -->
<g id="node9" class="node"><title>Node9</title>
<g id="a_node9"><a xlink:href="../../dd/dea/classgui_1_1_g_u_i_scene.html#aec9d26a4fa0613c7c5834bad2392eea1" target="_top" xlink:title="gui.GUIScene.addGrid">
<polygon fill="white" stroke="black" points="308,-19.5 308,-38.5 430,-38.5 430,-19.5 308,-19.5"/>
<text text-anchor="middle" x="369" y="-26.5" font-family="Helvetica,sans-Serif" font-size="10.00">gui.GUIScene.addGrid</text>
</a>
</g>
</g>
<!-- Node2&#45;&gt;Node9 -->
<g id="edge10" class="edge"><title>Node2&#45;&gt;Node9</title>
<path fill="none" stroke="midnightblue" d="M255.341,-55.1039C278.393,-49.7626 305.221,-43.5463 326.913,-38.5201"/>
<polygon fill="midnightblue" stroke="midnightblue" points="254.336,-51.744 245.384,-57.411 255.916,-58.5633 254.336,-51.744"/>
</g>
<!-- Node4 -->
<g id="node4" class="node"><title>Node4</title>
<g id="a_node4"><a xlink:href="../../dd/dea/classgui_1_1_g_u_i_scene.html#a16324ddc026310495f84e77bbb311b2c" target="_top" xlink:title="gui.GUIScene.addButtons">
<polygon fill="white" stroke="black" points="647,-57.5 647,-76.5 787,-76.5 787,-57.5 647,-57.5"/>
<text text-anchor="middle" x="717" y="-64.5" font-family="Helvetica,sans-Serif" font-size="10.00">gui.GUIScene.addButtons</text>
</a>
</g>
</g>
<!-- Node3&#45;&gt;Node4 -->
<g id="edge3" class="edge"><title>Node3&#45;&gt;Node4</title>
<path fill="none" stroke="midnightblue" d="M618.504,-60.2987C627.896,-60.2151 637.463,-60.2391 646.754,-60.3708"/>
<polygon fill="midnightblue" stroke="midnightblue" points="618.357,-56.8002 608.404,-60.4317 618.449,-63.7996 618.357,-56.8002"/>
</g>
<!-- Node5 -->
<g id="node5" class="node"><title>Node5</title>
<g id="a_node5"><a xlink:href="../../dd/dea/classgui_1_1_g_u_i_scene.html#a74967ac937baee81b9eec1b2bc38167c" target="_top" xlink:title="gui.GUIScene.createScene">
<polygon fill="white" stroke="black" points="644.5,-19.5 644.5,-38.5 789.5,-38.5 789.5,-19.5 644.5,-19.5"/>
<text text-anchor="middle" x="717" y="-26.5" font-family="Helvetica,sans-Serif" font-size="10.00">gui.GUIScene.createScene</text>
</a>
</g>
</g>
<!-- Node3&#45;&gt;Node5 -->
<g id="edge5" class="edge"><title>Node3&#45;&gt;Node5</title>
<path fill="none" stroke="midnightblue" d="M596.505,-55.2474C620.967,-49.8742 649.571,-43.5914 672.659,-38.5201"/>
<polygon fill="midnightblue" stroke="midnightblue" points="595.671,-51.847 586.655,-57.411 597.173,-58.684 595.671,-51.847"/>
</g>
<!-- Node4&#45;&gt;Node3 -->
<g id="edge4" class="edge"><title>Node4&#45;&gt;Node3</title>
<path fill="none" stroke="midnightblue" d="M636.585,-73.7298C627.154,-73.7836 617.609,-73.7298 608.404,-73.5683"/>
<polygon fill="midnightblue" stroke="midnightblue" points="636.789,-77.2281 646.754,-73.6292 636.719,-70.2284 636.789,-77.2281"/>
</g>
<!-- Node6 -->
<g id="node6" class="node"><title>Node6</title>
<g id="a_node6"><a xlink:href="../../dd/d48/classgui_1_1_g_u_i_start.html#a82d08814fef5331d82c4763a2426ffce" target="_top" xlink:title="gui.GUIStart.start">
<polygon fill="white" stroke="black" points="846.5,-38.5 846.5,-57.5 947.5,-57.5 947.5,-38.5 846.5,-38.5"/>
<text text-anchor="middle" x="897" y="-45.5" font-family="Helvetica,sans-Serif" font-size="10.00">gui.GUIStart.start</text>
</a>
</g>
</g>
<!-- Node5&#45;&gt;Node6 -->
<g id="edge6" class="edge"><title>Node5&#45;&gt;Node6</title>
<path fill="none" stroke="midnightblue" d="M799.974,-37.7501C815.814,-39.4408 831.952,-41.1634 846.365,-42.7019"/>
<polygon fill="midnightblue" stroke="midnightblue" points="799.945,-34.2271 789.63,-36.6459 799.202,-41.1876 799.945,-34.2271"/>
</g>
<!-- Node7 -->
<g id="node7" class="node"><title>Node7</title>
<g id="a_node7"><a xlink:href="../../d6/d0e/classcontroller_1_1_s_logo_main.html#ab5379c32fef791f21ad51abde7d268c0" target="_top" xlink:title="controller.SLogoMain.start">
<polygon fill="white" stroke="black" points="826,-0.5 826,-19.5 968,-19.5 968,-0.5 826,-0.5"/>
<text text-anchor="middle" x="897" y="-7.5" font-family="Helvetica,sans-Serif" font-size="10.00">controller.SLogoMain.start</text>
</a>
</g>
</g>
<!-- Node5&#45;&gt;Node7 -->
<g id="edge7" class="edge"><title>Node5&#45;&gt;Node7</title>
<path fill="none" stroke="midnightblue" d="M799.821,-20.2663C808.555,-19.334 817.382,-18.3918 825.963,-17.4759"/>
<polygon fill="midnightblue" stroke="midnightblue" points="799.202,-16.8124 789.63,-21.3541 799.945,-23.7729 799.202,-16.8124"/>
</g>
<!-- Node8&#45;&gt;Node3 -->
<g id="edge9" class="edge"><title>Node8&#45;&gt;Node3</title>
<path fill="none" stroke="midnightblue" d="M450.083,-67C458.679,-67 467.349,-67 475.742,-67"/>
<polygon fill="midnightblue" stroke="midnightblue" points="450.046,-63.5001 440.046,-67 450.046,-70.5001 450.046,-63.5001"/>
</g>
<!-- Node9&#45;&gt;Node3 -->
<g id="edge11" class="edge"><title>Node9&#45;&gt;Node3</title>
<path fill="none" stroke="midnightblue" d="M423.209,-40.8243C447.317,-46.1816 475.44,-52.4311 498.16,-57.4799"/>
<polygon fill="midnightblue" stroke="midnightblue" points="423.672,-37.3417 413.151,-38.589 422.153,-44.175 423.672,-37.3417"/>
</g>
</g>
</svg>
