<?xml version="1.0" encoding="UTF-8" standalone="no"?>
<!DOCTYPE svg PUBLIC "-//W3C//DTD SVG 1.1//EN"
 "http://www.w3.org/Graphics/SVG/1.1/DTD/svg11.dtd">
<!-- Generated by graphviz version 2.36.0 (20140111.2315)
 -->
<!-- Title: gui.Buttons.changeLang Pages: 1 -->
<svg width="846pt" height="66pt"
 viewBox="0.00 0.00 846.00 66.00" xmlns="http://www.w3.org/2000/svg" xmlns:xlink="http://www.w3.org/1999/xlink">
<g id="graph0" class="graph" transform="scale(1 1) rotate(0) translate(4 62)">
<title>gui.Buttons.changeLang</title>
<polygon fill="white" stroke="none" points="-4,4 -4,-62 842,-62 842,4 -4,4"/>
<!-- Node1 -->
<g id="node1" class="node"><title>Node1</title>
<polygon fill="#bfbfbf" stroke="black" points="0.5,-19.5 0.5,-38.5 133.5,-38.5 133.5,-19.5 0.5,-19.5"/>
<text text-anchor="middle" x="67" y="-26.5" font-family="Helvetica,sans-Serif" font-size="10.00">gui.Buttons.changeLang</text>
</g>
<!-- Node2 -->
<g id="node2" class="node"><title>Node2</title>
<g id="a_node2"><a xlink:href="../../dd/dea/classgui_1_1_g_u_i_scene.html#a16324ddc026310495f84e77bbb311b2c" target="_top" xlink:title="gui.GUIScene.addButtons">
<polygon fill="white" stroke="black" points="170,-19.5 170,-38.5 310,-38.5 310,-19.5 170,-19.5"/>
<text text-anchor="middle" x="240" y="-26.5" font-family="Helvetica,sans-Serif" font-size="10.00">gui.GUIScene.addButtons</text>
</a>
</g>
</g>
<!-- Node1&#45;&gt;Node2 -->
<g id="edge1" class="edge"><title>Node1&#45;&gt;Node2</title>
<path fill="none" stroke="midnightblue" d="M143.744,-29C152.436,-29 161.264,-29 169.864,-29"/>
<polygon fill="midnightblue" stroke="midnightblue" points="143.624,-25.5001 133.624,-29 143.624,-32.5001 143.624,-25.5001"/>
</g>
<!-- Node3 -->
<g id="node3" class="node"><title>Node3</title>
<g id="a_node3"><a xlink:href="../../dd/dea/classgui_1_1_g_u_i_scene.html#a7cb2b00ed820aecde169a5e14cf0d468" target="_top" xlink:title="gui.GUIScene.createGUI">
<polygon fill="white" stroke="black" points="346,-19.5 346,-38.5 478,-38.5 478,-19.5 346,-19.5"/>
<text text-anchor="middle" x="412" y="-26.5" font-family="Helvetica,sans-Serif" font-size="10.00">gui.GUIScene.createGUI</text>
</a>
</g>
</g>
<!-- Node2&#45;&gt;Node3 -->
<g id="edge2" class="edge"><title>Node2&#45;&gt;Node3</title>
<path fill="none" stroke="midnightblue" d="M320.152,-22.2642C328.725,-22.2225 337.378,-22.2727 345.76,-22.4148"/>
<polygon fill="midnightblue" stroke="midnightblue" points="320.113,-18.7643 310.146,-22.3555 320.177,-25.764 320.113,-18.7643"/>
</g>
<!-- Node3&#45;&gt;Node2 -->
<g id="edge6" class="edge"><title>Node3&#45;&gt;Node2</title>
<path fill="none" stroke="midnightblue" d="M335.538,-35.7121C327.088,-35.7795 318.511,-35.757 310.146,-35.6445"/>
<polygon fill="midnightblue" stroke="midnightblue" points="335.804,-39.2092 345.76,-35.5852 335.717,-32.2097 335.804,-39.2092"/>
</g>
<!-- Node4 -->
<g id="node4" class="node"><title>Node4</title>
<g id="a_node4"><a xlink:href="../../dd/dea/classgui_1_1_g_u_i_scene.html#a74967ac937baee81b9eec1b2bc38167c" target="_top" xlink:title="gui.GUIScene.createScene">
<polygon fill="white" stroke="black" points="514.5,-19.5 514.5,-38.5 659.5,-38.5 659.5,-19.5 514.5,-19.5"/>
<text text-anchor="middle" x="587" y="-26.5" font-family="Helvetica,sans-Serif" font-size="10.00">gui.GUIScene.createScene</text>
</a>
</g>
</g>
<!-- Node3&#45;&gt;Node4 -->
<g id="edge3" class="edge"><title>Node3&#45;&gt;Node4</title>
<path fill="none" stroke="midnightblue" d="M488.445,-29C497.074,-29 505.853,-29 514.43,-29"/>
<polygon fill="midnightblue" stroke="midnightblue" points="488.404,-25.5001 478.404,-29 488.404,-32.5001 488.404,-25.5001"/>
</g>
<!-- Node5 -->
<g id="node5" class="node"><title>Node5</title>
<g id="a_node5"><a xlink:href="../../d6/d0e/classcontroller_1_1_s_logo_main.html#ab5379c32fef791f21ad51abde7d268c0" target="_top" xlink:title="controller.SLogoMain.start">
<polygon fill="white" stroke="black" points="696,-38.5 696,-57.5 838,-57.5 838,-38.5 696,-38.5"/>
<text text-anchor="middle" x="767" y="-45.5" font-family="Helvetica,sans-Serif" font-size="10.00">controller.SLogoMain.start</text>
</a>
</g>
</g>
<!-- Node4&#45;&gt;Node5 -->
<g id="edge4" class="edge"><title>Node4&#45;&gt;Node5</title>
<path fill="none" stroke="midnightblue" d="M669.821,-37.7337C678.555,-38.666 687.382,-39.6082 695.963,-40.5241"/>
<polygon fill="midnightblue" stroke="midnightblue" points="669.945,-34.2271 659.63,-36.6459 669.202,-41.1876 669.945,-34.2271"/>
</g>
<!-- Node6 -->
<g id="node6" class="node"><title>Node6</title>
<g id="a_node6"><a xlink:href="../../dd/d48/classgui_1_1_g_u_i_start.html#a82d08814fef5331d82c4763a2426ffce" target="_top" xlink:title="gui.GUIStart.start">
<polygon fill="white" stroke="black" points="716.5,-0.5 716.5,-19.5 817.5,-19.5 817.5,-0.5 716.5,-0.5"/>
<text text-anchor="middle" x="767" y="-7.5" font-family="Helvetica,sans-Serif" font-size="10.00">gui.GUIStart.start</text>
</a>
</g>
</g>
<!-- Node4&#45;&gt;Node6 -->
<g id="edge5" class="edge"><title>Node4&#45;&gt;Node6</title>
<path fill="none" stroke="midnightblue" d="M669.974,-20.2499C685.814,-18.5592 701.952,-16.8366 716.365,-15.2981"/>
<polygon fill="midnightblue" stroke="midnightblue" points="669.202,-16.8124 659.63,-21.3541 669.945,-23.7729 669.202,-16.8124"/>
</g>
</g>
</svg>
