<?xml version="1.0" encoding="UTF-8" standalone="no"?>
<!DOCTYPE svg PUBLIC "-//W3C//DTD SVG 1.1//EN"
 "http://www.w3.org/Graphics/SVG/1.1/DTD/svg11.dtd">
<!-- Generated by graphviz version 2.36.0 (20140111.2315)
 -->
<!-- Title: gui.Buttons.factory Pages: 1 -->
<svg width="820pt" height="66pt"
 viewBox="0.00 0.00 820.00 66.00" xmlns="http://www.w3.org/2000/svg" xmlns:xlink="http://www.w3.org/1999/xlink">
<g id="graph0" class="graph" transform="scale(1 1) rotate(0) translate(4 62)">
<title>gui.Buttons.factory</title>
<polygon fill="white" stroke="none" points="-4,4 -4,-62 816,-62 816,4 -4,4"/>
<!-- Node1 -->
<g id="node1" class="node"><title>Node1</title>
<polygon fill="#bfbfbf" stroke="black" points="0.5,-19.5 0.5,-38.5 107.5,-38.5 107.5,-19.5 0.5,-19.5"/>
<text text-anchor="middle" x="54" y="-26.5" font-family="Helvetica,sans-Serif" font-size="10.00">gui.Buttons.factory</text>
</g>
<!-- Node2 -->
<g id="node2" class="node"><title>Node2</title>
<g id="a_node2"><a xlink:href="../../dd/dea/classgui_1_1_g_u_i_scene.html#a16324ddc026310495f84e77bbb311b2c" target="_top" xlink:title="gui.GUIScene.addButtons">
<polygon fill="white" stroke="black" points="144,-19.5 144,-38.5 284,-38.5 284,-19.5 144,-19.5"/>
<text text-anchor="middle" x="214" y="-26.5" font-family="Helvetica,sans-Serif" font-size="10.00">gui.GUIScene.addButtons</text>
</a>
</g>
</g>
<!-- Node1&#45;&gt;Node2 -->
<g id="edge1" class="edge"><title>Node1&#45;&gt;Node2</title>
<path fill="none" stroke="midnightblue" d="M117.84,-29C126.355,-29 135.132,-29 143.751,-29"/>
<polygon fill="midnightblue" stroke="midnightblue" points="117.612,-25.5001 107.612,-29 117.612,-32.5001 117.612,-25.5001"/>
</g>
<!-- Node3 -->
<g id="node3" class="node"><title>Node3</title>
<g id="a_node3"><a xlink:href="../../dd/dea/classgui_1_1_g_u_i_scene.html#a7cb2b00ed820aecde169a5e14cf0d468" target="_top" xlink:title="gui.GUIScene.createGUI">
<polygon fill="white" stroke="black" points="320,-19.5 320,-38.5 452,-38.5 452,-19.5 320,-19.5"/>
<text text-anchor="middle" x="386" y="-26.5" font-family="Helvetica,sans-Serif" font-size="10.00">gui.GUIScene.createGUI</text>
</a>
</g>
</g>
<!-- Node2&#45;&gt;Node3 -->
<g id="edge2" class="edge"><title>Node2&#45;&gt;Node3</title>
<path fill="none" stroke="midnightblue" d="M294.152,-22.2642C302.725,-22.2225 311.378,-22.2727 319.76,-22.4148"/>
<polygon fill="midnightblue" stroke="midnightblue" points="294.113,-18.7643 284.146,-22.3555 294.177,-25.764 294.113,-18.7643"/>
</g>
<!-- Node3&#45;&gt;Node2 -->
<g id="edge6" class="edge"><title>Node3&#45;&gt;Node2</title>
<path fill="none" stroke="midnightblue" d="M309.538,-35.7121C301.088,-35.7795 292.511,-35.757 284.146,-35.6445"/>
<polygon fill="midnightblue" stroke="midnightblue" points="309.804,-39.2092 319.76,-35.5852 309.717,-32.2097 309.804,-39.2092"/>
</g>
<!-- Node4 -->
<g id="node4" class="node"><title>Node4</title>
<g id="a_node4"><a xlink:href="../../dd/dea/classgui_1_1_g_u_i_scene.html#a74967ac937baee81b9eec1b2bc38167c" target="_top" xlink:title="gui.GUIScene.createScene">
<polygon fill="white" stroke="black" points="488.5,-19.5 488.5,-38.5 633.5,-38.5 633.5,-19.5 488.5,-19.5"/>
<text text-anchor="middle" x="561" y="-26.5" font-family="Helvetica,sans-Serif" font-size="10.00">gui.GUIScene.createScene</text>
</a>
</g>
</g>
<!-- Node3&#45;&gt;Node4 -->
<g id="edge3" class="edge"><title>Node3&#45;&gt;Node4</title>
<path fill="none" stroke="midnightblue" d="M462.445,-29C471.074,-29 479.853,-29 488.43,-29"/>
<polygon fill="midnightblue" stroke="midnightblue" points="462.404,-25.5001 452.404,-29 462.404,-32.5001 462.404,-25.5001"/>
</g>
<!-- Node5 -->
<g id="node5" class="node"><title>Node5</title>
<g id="a_node5"><a xlink:href="../../d6/d0e/classcontroller_1_1_s_logo_main.html#ab5379c32fef791f21ad51abde7d268c0" target="_top" xlink:title="controller.SLogoMain.start">
<polygon fill="white" stroke="black" points="670,-38.5 670,-57.5 812,-57.5 812,-38.5 670,-38.5"/>
<text text-anchor="middle" x="741" y="-45.5" font-family="Helvetica,sans-Serif" font-size="10.00">controller.SLogoMain.start</text>
</a>
</g>
</g>
<!-- Node4&#45;&gt;Node5 -->
<g id="edge4" class="edge"><title>Node4&#45;&gt;Node5</title>
<path fill="none" stroke="midnightblue" d="M643.821,-37.7337C652.555,-38.666 661.382,-39.6082 669.963,-40.5241"/>
<polygon fill="midnightblue" stroke="midnightblue" points="643.945,-34.2271 633.63,-36.6459 643.202,-41.1876 643.945,-34.2271"/>
</g>
<!-- Node6 -->
<g id="node6" class="node"><title>Node6</title>
<g id="a_node6"><a xlink:href="../../dd/d48/classgui_1_1_g_u_i_start.html#a82d08814fef5331d82c4763a2426ffce" target="_top" xlink:title="gui.GUIStart.start">
<polygon fill="white" stroke="black" points="690.5,-0.5 690.5,-19.5 791.5,-19.5 791.5,-0.5 690.5,-0.5"/>
<text text-anchor="middle" x="741" y="-7.5" font-family="Helvetica,sans-Serif" font-size="10.00">gui.GUIStart.start</text>
</a>
</g>
</g>
<!-- Node4&#45;&gt;Node6 -->
<g id="edge5" class="edge"><title>Node4&#45;&gt;Node6</title>
<path fill="none" stroke="midnightblue" d="M643.974,-20.2499C659.814,-18.5592 675.952,-16.8366 690.365,-15.2981"/>
<polygon fill="midnightblue" stroke="midnightblue" points="643.202,-16.8124 633.63,-21.3541 643.945,-23.7729 643.202,-16.8124"/>
</g>
</g>
</svg>
