<?xml version="1.0" encoding="UTF-8" standalone="no"?>
<!DOCTYPE svg PUBLIC "-//W3C//DTD SVG 1.1//EN"
 "http://www.w3.org/Graphics/SVG/1.1/DTD/svg11.dtd">
<!-- Generated by graphviz version 2.36.0 (20140111.2315)
 -->
<!-- Title: gui.Buttons.status Pages: 1 -->
<svg width="818pt" height="85pt"
 viewBox="0.00 0.00 818.00 85.00" xmlns="http://www.w3.org/2000/svg" xmlns:xlink="http://www.w3.org/1999/xlink">
<g id="graph0" class="graph" transform="scale(1 1) rotate(0) translate(4 81)">
<title>gui.Buttons.status</title>
<polygon fill="white" stroke="none" points="-4,4 -4,-81 814,-81 814,4 -4,4"/>
<!-- Node1 -->
<g id="node1" class="node"><title>Node1</title>
<polygon fill="#bfbfbf" stroke="black" points="0,-0.5 0,-19.5 104,-19.5 104,-0.5 0,-0.5"/>
<text text-anchor="middle" x="52" y="-7.5" font-family="Helvetica,sans-Serif" font-size="10.00">gui.Buttons.status</text>
</g>
<!-- Node2 -->
<g id="node2" class="node"><title>Node2</title>
<g id="a_node2"><a xlink:href="../../dd/dea/classgui_1_1_g_u_i_scene.html#a47e424a495817f5806f45064f77a632b" target="_top" xlink:title="gui.GUIScene.getRightBox">
<polygon fill="white" stroke="black" points="140,-0.5 140,-19.5 282,-19.5 282,-0.5 140,-0.5"/>
<text text-anchor="middle" x="211" y="-7.5" font-family="Helvetica,sans-Serif" font-size="10.00">gui.GUIScene.getRightBox</text>
</a>
</g>
</g>
<!-- Node1&#45;&gt;Node2 -->
<g id="edge1" class="edge"><title>Node1&#45;&gt;Node2</title>
<path fill="none" stroke="midnightblue" d="M114.446,-10C122.808,-10 131.441,-10 139.941,-10"/>
<polygon fill="midnightblue" stroke="midnightblue" points="114.408,-6.5001 104.408,-10 114.408,-13.5001 114.408,-6.5001"/>
</g>
<!-- Node3 -->
<g id="node3" class="node"><title>Node3</title>
<g id="a_node3"><a xlink:href="../../dd/dea/classgui_1_1_g_u_i_scene.html#a7cb2b00ed820aecde169a5e14cf0d468" target="_top" xlink:title="gui.GUIScene.createGUI">
<polygon fill="white" stroke="black" points="318,-0.5 318,-19.5 450,-19.5 450,-0.5 318,-0.5"/>
<text text-anchor="middle" x="384" y="-7.5" font-family="Helvetica,sans-Serif" font-size="10.00">gui.GUIScene.createGUI</text>
</a>
</g>
</g>
<!-- Node2&#45;&gt;Node3 -->
<g id="edge2" class="edge"><title>Node2&#45;&gt;Node3</title>
<path fill="none" stroke="midnightblue" d="M292.083,-10C300.679,-10 309.349,-10 317.742,-10"/>
<polygon fill="midnightblue" stroke="midnightblue" points="292.046,-6.5001 282.046,-10 292.046,-13.5001 292.046,-6.5001"/>
</g>
<!-- Node4 -->
<g id="node4" class="node"><title>Node4</title>
<g id="a_node4"><a xlink:href="../../dd/dea/classgui_1_1_g_u_i_scene.html#a74967ac937baee81b9eec1b2bc38167c" target="_top" xlink:title="gui.GUIScene.createScene">
<polygon fill="white" stroke="black" points="486.5,-38.5 486.5,-57.5 631.5,-57.5 631.5,-38.5 486.5,-38.5"/>
<text text-anchor="middle" x="559" y="-45.5" font-family="Helvetica,sans-Serif" font-size="10.00">gui.GUIScene.createScene</text>
</a>
</g>
</g>
<!-- Node3&#45;&gt;Node4 -->
<g id="edge3" class="edge"><title>Node3&#45;&gt;Node4</title>
<path fill="none" stroke="midnightblue" d="M438.505,-21.7526C462.967,-27.1258 491.571,-33.4086 514.659,-38.4799"/>
<polygon fill="midnightblue" stroke="midnightblue" points="439.173,-18.316 428.655,-19.589 437.671,-25.153 439.173,-18.316"/>
</g>
<!-- Node7 -->
<g id="node7" class="node"><title>Node7</title>
<g id="a_node7"><a xlink:href="../../dd/dea/classgui_1_1_g_u_i_scene.html#a16324ddc026310495f84e77bbb311b2c" target="_top" xlink:title="gui.GUIScene.addButtons">
<polygon fill="white" stroke="black" points="489,-0.5 489,-19.5 629,-19.5 629,-0.5 489,-0.5"/>
<text text-anchor="middle" x="559" y="-7.5" font-family="Helvetica,sans-Serif" font-size="10.00">gui.GUIScene.addButtons</text>
</a>
</g>
</g>
<!-- Node3&#45;&gt;Node7 -->
<g id="edge6" class="edge"><title>Node3&#45;&gt;Node7</title>
<path fill="none" stroke="midnightblue" d="M460.504,-3.29871C469.896,-3.2151 479.463,-3.23913 488.754,-3.37079"/>
<polygon fill="midnightblue" stroke="midnightblue" points="460.357,0.19975 450.404,-3.43169 460.449,-6.79964 460.357,0.19975"/>
</g>
<!-- Node5 -->
<g id="node5" class="node"><title>Node5</title>
<g id="a_node5"><a xlink:href="../../d6/d0e/classcontroller_1_1_s_logo_main.html#ab5379c32fef791f21ad51abde7d268c0" target="_top" xlink:title="controller.SLogoMain.start">
<polygon fill="white" stroke="black" points="668,-57.5 668,-76.5 810,-76.5 810,-57.5 668,-57.5"/>
<text text-anchor="middle" x="739" y="-64.5" font-family="Helvetica,sans-Serif" font-size="10.00">controller.SLogoMain.start</text>
</a>
</g>
</g>
<!-- Node4&#45;&gt;Node5 -->
<g id="edge4" class="edge"><title>Node4&#45;&gt;Node5</title>
<path fill="none" stroke="midnightblue" d="M641.821,-56.7337C650.555,-57.666 659.382,-58.6082 667.963,-59.5241"/>
<polygon fill="midnightblue" stroke="midnightblue" points="641.945,-53.2271 631.63,-55.6459 641.202,-60.1876 641.945,-53.2271"/>
</g>
<!-- Node6 -->
<g id="node6" class="node"><title>Node6</title>
<g id="a_node6"><a xlink:href="../../dd/d48/classgui_1_1_g_u_i_start.html#a82d08814fef5331d82c4763a2426ffce" target="_top" xlink:title="gui.GUIStart.start">
<polygon fill="white" stroke="black" points="688.5,-19.5 688.5,-38.5 789.5,-38.5 789.5,-19.5 688.5,-19.5"/>
<text text-anchor="middle" x="739" y="-26.5" font-family="Helvetica,sans-Serif" font-size="10.00">gui.GUIStart.start</text>
</a>
</g>
</g>
<!-- Node4&#45;&gt;Node6 -->
<g id="edge5" class="edge"><title>Node4&#45;&gt;Node6</title>
<path fill="none" stroke="midnightblue" d="M641.974,-39.2499C657.814,-37.5592 673.952,-35.8366 688.365,-34.2981"/>
<polygon fill="midnightblue" stroke="midnightblue" points="641.202,-35.8124 631.63,-40.3541 641.945,-42.7729 641.202,-35.8124"/>
</g>
<!-- Node7&#45;&gt;Node3 -->
<g id="edge7" class="edge"><title>Node7&#45;&gt;Node3</title>
<path fill="none" stroke="midnightblue" d="M478.585,-16.7298C469.154,-16.7836 459.609,-16.7298 450.404,-16.5683"/>
<polygon fill="midnightblue" stroke="midnightblue" points="478.789,-20.2281 488.754,-16.6292 478.719,-13.2284 478.789,-20.2281"/>
</g>
</g>
</svg>
