<?xml version="1.0" encoding="UTF-8" standalone="no"?>
<!DOCTYPE svg PUBLIC "-//W3C//DTD SVG 1.1//EN"
 "http://www.w3.org/Graphics/SVG/1.1/DTD/svg11.dtd">
<!-- Generated by graphviz version 2.36.0 (20140111.2315)
 -->
<!-- Title: gui.ReadAndWrite.write Pages: 1 -->
<svg width="848pt" height="85pt"
 viewBox="0.00 0.00 848.00 85.00" xmlns="http://www.w3.org/2000/svg" xmlns:xlink="http://www.w3.org/1999/xlink">
<g id="graph0" class="graph" transform="scale(1 1) rotate(0) translate(4 81)">
<title>gui.ReadAndWrite.write</title>
<polygon fill="white" stroke="none" points="-4,4 -4,-81 844,-81 844,4 -4,4"/>
<!-- Node1 -->
<g id="node1" class="node"><title>Node1</title>
<polygon fill="#bfbfbf" stroke="black" points="0.5,-57.5 0.5,-76.5 125.5,-76.5 125.5,-57.5 0.5,-57.5"/>
<text text-anchor="middle" x="63" y="-64.5" font-family="Helvetica,sans-Serif" font-size="10.00">gui.ReadAndWrite.write</text>
</g>
<!-- Node2 -->
<g id="node2" class="node"><title>Node2</title>
<g id="a_node2"><a xlink:href="../../dd/dea/classgui_1_1_g_u_i_scene.html#abd1f4039aa90fe7b555f850b2686d913" target="_top" xlink:title="gui.GUIScene.getTopToolBar">
<polygon fill="white" stroke="black" points="162,-57.5 162,-76.5 312,-76.5 312,-57.5 162,-57.5"/>
<text text-anchor="middle" x="237" y="-64.5" font-family="Helvetica,sans-Serif" font-size="10.00">gui.GUIScene.getTopToolBar</text>
</a>
</g>
</g>
<!-- Node1&#45;&gt;Node2 -->
<g id="edge1" class="edge"><title>Node1&#45;&gt;Node2</title>
<path fill="none" stroke="midnightblue" d="M135.668,-67C144.333,-67 153.197,-67 161.896,-67"/>
<polygon fill="midnightblue" stroke="midnightblue" points="135.61,-63.5001 125.61,-67 135.61,-70.5001 135.61,-63.5001"/>
</g>
<!-- Node3 -->
<g id="node3" class="node"><title>Node3</title>
<g id="a_node3"><a xlink:href="../../dd/dea/classgui_1_1_g_u_i_scene.html#a7cb2b00ed820aecde169a5e14cf0d468" target="_top" xlink:title="gui.GUIScene.createGUI">
<polygon fill="white" stroke="black" points="348,-57.5 348,-76.5 480,-76.5 480,-57.5 348,-57.5"/>
<text text-anchor="middle" x="414" y="-64.5" font-family="Helvetica,sans-Serif" font-size="10.00">gui.GUIScene.createGUI</text>
</a>
</g>
</g>
<!-- Node2&#45;&gt;Node3 -->
<g id="edge2" class="edge"><title>Node2&#45;&gt;Node3</title>
<path fill="none" stroke="midnightblue" d="M322.257,-67C330.844,-67 339.472,-67 347.811,-67"/>
<polygon fill="midnightblue" stroke="midnightblue" points="322.216,-63.5001 312.216,-67 322.216,-70.5001 322.216,-63.5001"/>
</g>
<!-- Node4 -->
<g id="node4" class="node"><title>Node4</title>
<g id="a_node4"><a xlink:href="../../dd/dea/classgui_1_1_g_u_i_scene.html#a16324ddc026310495f84e77bbb311b2c" target="_top" xlink:title="gui.GUIScene.addButtons">
<polygon fill="white" stroke="black" points="519,-57.5 519,-76.5 659,-76.5 659,-57.5 519,-57.5"/>
<text text-anchor="middle" x="589" y="-64.5" font-family="Helvetica,sans-Serif" font-size="10.00">gui.GUIScene.addButtons</text>
</a>
</g>
</g>
<!-- Node3&#45;&gt;Node4 -->
<g id="edge3" class="edge"><title>Node3&#45;&gt;Node4</title>
<path fill="none" stroke="midnightblue" d="M490.504,-60.2987C499.896,-60.2151 509.463,-60.2391 518.754,-60.3708"/>
<polygon fill="midnightblue" stroke="midnightblue" points="490.357,-56.8002 480.404,-60.4317 490.449,-63.7996 490.357,-56.8002"/>
</g>
<!-- Node5 -->
<g id="node5" class="node"><title>Node5</title>
<g id="a_node5"><a xlink:href="../../dd/dea/classgui_1_1_g_u_i_scene.html#a74967ac937baee81b9eec1b2bc38167c" target="_top" xlink:title="gui.GUIScene.createScene">
<polygon fill="white" stroke="black" points="516.5,-19.5 516.5,-38.5 661.5,-38.5 661.5,-19.5 516.5,-19.5"/>
<text text-anchor="middle" x="589" y="-26.5" font-family="Helvetica,sans-Serif" font-size="10.00">gui.GUIScene.createScene</text>
</a>
</g>
</g>
<!-- Node3&#45;&gt;Node5 -->
<g id="edge5" class="edge"><title>Node3&#45;&gt;Node5</title>
<path fill="none" stroke="midnightblue" d="M468.505,-55.2474C492.967,-49.8742 521.571,-43.5914 544.659,-38.5201"/>
<polygon fill="midnightblue" stroke="midnightblue" points="467.671,-51.847 458.655,-57.411 469.173,-58.684 467.671,-51.847"/>
</g>
<!-- Node4&#45;&gt;Node3 -->
<g id="edge4" class="edge"><title>Node4&#45;&gt;Node3</title>
<path fill="none" stroke="midnightblue" d="M508.585,-73.7298C499.154,-73.7836 489.609,-73.7298 480.404,-73.5683"/>
<polygon fill="midnightblue" stroke="midnightblue" points="508.789,-77.2281 518.754,-73.6292 508.719,-70.2284 508.789,-77.2281"/>
</g>
<!-- Node6 -->
<g id="node6" class="node"><title>Node6</title>
<g id="a_node6"><a xlink:href="../../dd/d48/classgui_1_1_g_u_i_start.html#a82d08814fef5331d82c4763a2426ffce" target="_top" xlink:title="gui.GUIStart.start">
<polygon fill="white" stroke="black" points="718.5,-38.5 718.5,-57.5 819.5,-57.5 819.5,-38.5 718.5,-38.5"/>
<text text-anchor="middle" x="769" y="-45.5" font-family="Helvetica,sans-Serif" font-size="10.00">gui.GUIStart.start</text>
</a>
</g>
</g>
<!-- Node5&#45;&gt;Node6 -->
<g id="edge6" class="edge"><title>Node5&#45;&gt;Node6</title>
<path fill="none" stroke="midnightblue" d="M671.974,-37.7501C687.814,-39.4408 703.952,-41.1634 718.365,-42.7019"/>
<polygon fill="midnightblue" stroke="midnightblue" points="671.945,-34.2271 661.63,-36.6459 671.202,-41.1876 671.945,-34.2271"/>
</g>
<!-- Node7 -->
<g id="node7" class="node"><title>Node7</title>
<g id="a_node7"><a xlink:href="../../d6/d0e/classcontroller_1_1_s_logo_main.html#ab5379c32fef791f21ad51abde7d268c0" target="_top" xlink:title="controller.SLogoMain.start">
<polygon fill="white" stroke="black" points="698,-0.5 698,-19.5 840,-19.5 840,-0.5 698,-0.5"/>
<text text-anchor="middle" x="769" y="-7.5" font-family="Helvetica,sans-Serif" font-size="10.00">controller.SLogoMain.start</text>
</a>
</g>
</g>
<!-- Node5&#45;&gt;Node7 -->
<g id="edge7" class="edge"><title>Node5&#45;&gt;Node7</title>
<path fill="none" stroke="midnightblue" d="M671.821,-20.2663C680.555,-19.334 689.382,-18.3918 697.963,-17.4759"/>
<polygon fill="midnightblue" stroke="midnightblue" points="671.202,-16.8124 661.63,-21.3541 671.945,-23.7729 671.202,-16.8124"/>
</g>
</g>
</svg>
