<?xml version="1.0" encoding="UTF-8" standalone="no"?>
<!DOCTYPE svg PUBLIC "-//W3C//DTD SVG 1.1//EN"
 "http://www.w3.org/Graphics/SVG/1.1/DTD/svg11.dtd">
<!-- Generated by graphviz version 2.36.0 (20140111.2315)
 -->
<!-- Title: gui.ReadAndWrite.read Pages: 1 -->
<svg width="846pt" height="85pt"
 viewBox="0.00 0.00 846.00 85.00" xmlns="http://www.w3.org/2000/svg" xmlns:xlink="http://www.w3.org/1999/xlink">
<g id="graph0" class="graph" transform="scale(1 1) rotate(0) translate(4 81)">
<title>gui.ReadAndWrite.read</title>
<polygon fill="white" stroke="none" points="-4,4 -4,-81 842,-81 842,4 -4,4"/>
<!-- Node1 -->
<g id="node1" class="node"><title>Node1</title>
<polygon fill="#bfbfbf" stroke="black" points="0,-57.5 0,-76.5 124,-76.5 124,-57.5 0,-57.5"/>
<text text-anchor="middle" x="62" y="-64.5" font-family="Helvetica,sans-Serif" font-size="10.00">gui.ReadAndWrite.read</text>
</g>
<!-- Node2 -->
<g id="node2" class="node"><title>Node2</title>
<g id="a_node2"><a xlink:href="../../dd/dea/classgui_1_1_g_u_i_scene.html#abd1f4039aa90fe7b555f850b2686d913" target="_top" xlink:title="gui.GUIScene.getTopToolBar">
<polygon fill="white" stroke="black" points="160,-57.5 160,-76.5 310,-76.5 310,-57.5 160,-57.5"/>
<text text-anchor="middle" x="235" y="-64.5" font-family="Helvetica,sans-Serif" font-size="10.00">gui.GUIScene.getTopToolBar</text>
</a>
</g>
</g>
<!-- Node1&#45;&gt;Node2 -->
<g id="edge1" class="edge"><title>Node1&#45;&gt;Node2</title>
<path fill="none" stroke="midnightblue" d="M134.362,-67C142.745,-67 151.314,-67 159.735,-67"/>
<polygon fill="midnightblue" stroke="midnightblue" points="134.252,-63.5001 124.252,-67 134.252,-70.5001 134.252,-63.5001"/>
</g>
<!-- Node3 -->
<g id="node3" class="node"><title>Node3</title>
<g id="a_node3"><a xlink:href="../../dd/dea/classgui_1_1_g_u_i_scene.html#a7cb2b00ed820aecde169a5e14cf0d468" target="_top" xlink:title="gui.GUIScene.createGUI">
<polygon fill="white" stroke="black" points="346,-57.5 346,-76.5 478,-76.5 478,-57.5 346,-57.5"/>
<text text-anchor="middle" x="412" y="-64.5" font-family="Helvetica,sans-Serif" font-size="10.00">gui.GUIScene.createGUI</text>
</a>
</g>
</g>
<!-- Node2&#45;&gt;Node3 -->
<g id="edge2" class="edge"><title>Node2&#45;&gt;Node3</title>
<path fill="none" stroke="midnightblue" d="M320.257,-67C328.844,-67 337.472,-67 345.811,-67"/>
<polygon fill="midnightblue" stroke="midnightblue" points="320.216,-63.5001 310.216,-67 320.216,-70.5001 320.216,-63.5001"/>
</g>
<!-- Node4 -->
<g id="node4" class="node"><title>Node4</title>
<g id="a_node4"><a xlink:href="../../dd/dea/classgui_1_1_g_u_i_scene.html#a16324ddc026310495f84e77bbb311b2c" target="_top" xlink:title="gui.GUIScene.addButtons">
<polygon fill="white" stroke="black" points="517,-57.5 517,-76.5 657,-76.5 657,-57.5 517,-57.5"/>
<text text-anchor="middle" x="587" y="-64.5" font-family="Helvetica,sans-Serif" font-size="10.00">gui.GUIScene.addButtons</text>
</a>
</g>
</g>
<!-- Node3&#45;&gt;Node4 -->
<g id="edge3" class="edge"><title>Node3&#45;&gt;Node4</title>
<path fill="none" stroke="midnightblue" d="M488.504,-60.2987C497.896,-60.2151 507.463,-60.2391 516.754,-60.3708"/>
<polygon fill="midnightblue" stroke="midnightblue" points="488.357,-56.8002 478.404,-60.4317 488.449,-63.7996 488.357,-56.8002"/>
</g>
<!-- Node5 -->
<g id="node5" class="node"><title>Node5</title>
<g id="a_node5"><a xlink:href="../../dd/dea/classgui_1_1_g_u_i_scene.html#a74967ac937baee81b9eec1b2bc38167c" target="_top" xlink:title="gui.GUIScene.createScene">
<polygon fill="white" stroke="black" points="514.5,-19.5 514.5,-38.5 659.5,-38.5 659.5,-19.5 514.5,-19.5"/>
<text text-anchor="middle" x="587" y="-26.5" font-family="Helvetica,sans-Serif" font-size="10.00">gui.GUIScene.createScene</text>
</a>
</g>
</g>
<!-- Node3&#45;&gt;Node5 -->
<g id="edge5" class="edge"><title>Node3&#45;&gt;Node5</title>
<path fill="none" stroke="midnightblue" d="M466.505,-55.2474C490.967,-49.8742 519.571,-43.5914 542.659,-38.5201"/>
<polygon fill="midnightblue" stroke="midnightblue" points="465.671,-51.847 456.655,-57.411 467.173,-58.684 465.671,-51.847"/>
</g>
<!-- Node4&#45;&gt;Node3 -->
<g id="edge4" class="edge"><title>Node4&#45;&gt;Node3</title>
<path fill="none" stroke="midnightblue" d="M506.585,-73.7298C497.154,-73.7836 487.609,-73.7298 478.404,-73.5683"/>
<polygon fill="midnightblue" stroke="midnightblue" points="506.789,-77.2281 516.754,-73.6292 506.719,-70.2284 506.789,-77.2281"/>
</g>
<!-- Node6 -->
<g id="node6" class="node"><title>Node6</title>
<g id="a_node6"><a xlink:href="../../dd/d48/classgui_1_1_g_u_i_start.html#a82d08814fef5331d82c4763a2426ffce" target="_top" xlink:title="gui.GUIStart.start">
<polygon fill="white" stroke="black" points="716.5,-38.5 716.5,-57.5 817.5,-57.5 817.5,-38.5 716.5,-38.5"/>
<text text-anchor="middle" x="767" y="-45.5" font-family="Helvetica,sans-Serif" font-size="10.00">gui.GUIStart.start</text>
</a>
</g>
</g>
<!-- Node5&#45;&gt;Node6 -->
<g id="edge6" class="edge"><title>Node5&#45;&gt;Node6</title>
<path fill="none" stroke="midnightblue" d="M669.974,-37.7501C685.814,-39.4408 701.952,-41.1634 716.365,-42.7019"/>
<polygon fill="midnightblue" stroke="midnightblue" points="669.945,-34.2271 659.63,-36.6459 669.202,-41.1876 669.945,-34.2271"/>
</g>
<!-- Node7 -->
<g id="node7" class="node"><title>Node7</title>
<g id="a_node7"><a xlink:href="../../d6/d0e/classcontroller_1_1_s_logo_main.html#ab5379c32fef791f21ad51abde7d268c0" target="_top" xlink:title="controller.SLogoMain.start">
<polygon fill="white" stroke="black" points="696,-0.5 696,-19.5 838,-19.5 838,-0.5 696,-0.5"/>
<text text-anchor="middle" x="767" y="-7.5" font-family="Helvetica,sans-Serif" font-size="10.00">controller.SLogoMain.start</text>
</a>
</g>
</g>
<!-- Node5&#45;&gt;Node7 -->
<g id="edge7" class="edge"><title>Node5&#45;&gt;Node7</title>
<path fill="none" stroke="midnightblue" d="M669.821,-20.2663C678.555,-19.334 687.382,-18.3918 695.963,-17.4759"/>
<polygon fill="midnightblue" stroke="midnightblue" points="669.202,-16.8124 659.63,-21.3541 669.945,-23.7729 669.202,-16.8124"/>
</g>
</g>
</svg>
