<?xml version="1.0" encoding="UTF-8" standalone="no"?>
<!DOCTYPE svg PUBLIC "-//W3C//DTD SVG 1.1//EN"
 "http://www.w3.org/Graphics/SVG/1.1/DTD/svg11.dtd">
<!-- Generated by graphviz version 2.36.0 (20140111.2315)
 -->
<!-- Title: simulationObjects.TurtleList Pages: 1 -->
<svg width="154pt" height="118pt"
 viewBox="0.00 0.00 154.00 118.00" xmlns="http://www.w3.org/2000/svg" xmlns:xlink="http://www.w3.org/1999/xlink">
<g id="graph0" class="graph" transform="scale(1 1) rotate(0) translate(4 114)">
<title>simulationObjects.TurtleList</title>
<polygon fill="white" stroke="none" points="-4,4 -4,-114 150,-114 150,4 -4,4"/>
<!-- Node1 -->
<g id="node1" class="node"><title>Node1</title>
<polygon fill="#bfbfbf" stroke="black" points="-0.5,-0.5 -0.5,-19.5 146.5,-19.5 146.5,-0.5 -0.5,-0.5"/>
<text text-anchor="middle" x="73" y="-7.5" font-family="Helvetica,sans-Serif" font-size="10.00">simulationObjects.TurtleList</text>
</g>
<!-- Node2 -->
<g id="node2" class="node"><title>Node2</title>
<polygon fill="white" stroke="#bfbfbf" points="32.5,-90.5 32.5,-109.5 113.5,-109.5 113.5,-90.5 32.5,-90.5"/>
<text text-anchor="middle" x="73" y="-97.5" font-family="Helvetica,sans-Serif" font-size="10.00">List&lt; Turtle &gt;</text>
</g>
<!-- Node2&#45;&gt;Node1 -->
<g id="edge1" class="edge"><title>Node2&#45;&gt;Node1</title>
<path fill="none" stroke="#9a32cd" stroke-dasharray="5,2" d="M73,-79.9784C73,-61.3096 73,-33.6696 73,-19.7241"/>
<polygon fill="#9a32cd" stroke="#9a32cd" points="69.5001,-80.2405 73,-90.2405 76.5001,-80.2405 69.5001,-80.2405"/>
<text text-anchor="middle" x="103" y="-63.5" font-family="Helvetica,sans-Serif" font-size="10.00"> turtles</text>
<text text-anchor="middle" x="103" y="-52.5" font-family="Helvetica,sans-Serif" font-size="10.00">activeTurtles</text>
<text text-anchor="middle" x="103" y="-41.5" font-family="Helvetica,sans-Serif" font-size="10.00">stamps</text>
</g>
</g>
</svg>
