<?xml version="1.0" encoding="UTF-8" standalone="no"?>
<!DOCTYPE svg PUBLIC "-//W3C//DTD SVG 1.1//EN"
 "http://www.w3.org/Graphics/SVG/1.1/DTD/svg11.dtd">
<!-- Generated by graphviz version 2.36.0 (20140111.2315)
 -->
<!-- Title: compiler.SymbolTableEntry.setName Pages: 1 -->
<!--zoomable 207 -->
<svg id="main" version="1.1" xmlns="http://www.w3.org/2000/svg" xmlns:xlink="http://www.w3.org/1999/xlink" xml:space="preserve" onload="init(evt)">
<style type="text/css"><![CDATA[
.edge:hover path { stroke: red; }
.edge:hover polygon { stroke: red; fill: red; }
]]></style>
<script type="text/javascript"><![CDATA[
var edges = document.getElementsByTagName('g');
if (edges && edges.length) {
  for (var i=0;i<edges.length;i++) {
    if (edges[i].id.substr(0,4)=='edge') {
      edges[i].setAttribute('class','edge');
    }
  }
}
]]></script>
        <defs>
                <circle id="rim" cx="0" cy="0" r="7"/>
                <circle id="rim2" cx="0" cy="0" r="3.5"/>
                <g id="zoomPlus">
                        <use xlink:href="#rim" fill="#404040">
                                <set attributeName="fill" to="#808080" begin="zoomplus.mouseover" end="zoomplus.mouseout"/>
                        </use>
                        <path d="M-4,0h8M0,-4v8" fill="none" stroke="white" stroke-width="1.5" pointer-events="none"/>
                </g>
                <g id="zoomMin">
                        <use xlink:href="#rim" fill="#404040">
                                <set attributeName="fill" to="#808080" begin="zoomminus.mouseover" end="zoomminus.mouseout"/>
                        </use>
                        <path d="M-4,0h8" fill="none" stroke="white" stroke-width="1.5" pointer-events="none"/>
                </g>
                <g id="dirArrow">
                        <path fill="none" stroke="white" stroke-width="1.5" d="M0,-3.0v7 M-2.5,-0.5L0,-3.0L2.5,-0.5"/>
                </g>
               <g id="resetDef">
                       <use xlink:href="#rim2" fill="#404040">
                               <set attributeName="fill" to="#808080" begin="reset.mouseover" end="reset.mouseout"/>
                       </use>
               </g>
        </defs>

<script type="text/javascript">
var viewWidth = 1652;
var viewHeight = 207;
var sectionId = 'dynsection-1';
</script>
<script xlink:href="../../svgpan.js"/>
<svg id="graph" class="graph">
<g id="viewport">
<title>compiler.SymbolTableEntry.setName</title>
<polygon fill="white" stroke="none" points="-4,4 -4,-203 1648,-203 1648,4 -4,4"/>
<!-- Node1 -->
<g id="node1" class="node"><title>Node1</title>
<polygon fill="#bfbfbf" stroke="black" points="0.5,-78.5 0.5,-97.5 191.5,-97.5 191.5,-78.5 0.5,-78.5"/>
<text text-anchor="middle" x="96" y="-85.5" font-family="Helvetica,sans-Serif" font-size="10.00">compiler.SymbolTableEntry.setName</text>
</g>
<!-- Node2 -->
<g id="node2" class="node"><title>Node2</title>
<g id="a_node2"><a xlink:href="../../db/d93/classcompiler_1_1_compiler.html#ae6504512c09bb3ab9064f3b12f0a51ff" target="_top" xlink:title="compiler.Compiler.symbol\lTableGeneration">
<polygon fill="white" stroke="black" points="228,-73 228,-103 368,-103 368,-73 228,-73"/>
<text text-anchor="start" x="236" y="-91" font-family="Helvetica,sans-Serif" font-size="10.00">compiler.Compiler.symbol</text>
<text text-anchor="middle" x="298" y="-80" font-family="Helvetica,sans-Serif" font-size="10.00">TableGeneration</text>
</a>
</g>
</g>
<!-- Node1&#45;&gt;Node2 -->
<g id="edge1" class="edge"><title>Node1&#45;&gt;Node2</title>
<path fill="none" stroke="midnightblue" d="M201.759,-88C210.637,-88 219.465,-88 227.962,-88"/>
<polygon fill="midnightblue" stroke="midnightblue" points="201.729,-84.5001 191.729,-88 201.729,-91.5001 201.729,-84.5001"/>
</g>
<!-- Node3 -->
<g id="node3" class="node"><title>Node3</title>
<g id="a_node3"><a xlink:href="../../db/d93/classcompiler_1_1_compiler.html#ab49c76c1486c30d921d07022a1be4971" target="_top" xlink:title="compiler.Compiler.scanner">
<polygon fill="white" stroke="black" points="404.5,-78.5 404.5,-97.5 547.5,-97.5 547.5,-78.5 404.5,-78.5"/>
<text text-anchor="middle" x="476" y="-85.5" font-family="Helvetica,sans-Serif" font-size="10.00">compiler.Compiler.scanner</text>
</a>
</g>
</g>
<!-- Node2&#45;&gt;Node3 -->
<g id="edge2" class="edge"><title>Node2&#45;&gt;Node3</title>
<path fill="none" stroke="midnightblue" d="M378.226,-88C386.953,-88 395.796,-88 404.408,-88"/>
<polygon fill="midnightblue" stroke="midnightblue" points="378.055,-84.5001 368.055,-88 378.055,-91.5001 378.055,-84.5001"/>
</g>
<!-- Node4 -->
<g id="node4" class="node"><title>Node4</title>
<g id="a_node4"><a xlink:href="../../db/d93/classcompiler_1_1_compiler.html#a8a90aa273bacff724a034959914a4c2d" target="_top" xlink:title="compiler.Compiler.compile">
<polygon fill="white" stroke="black" points="584.5,-78.5 584.5,-97.5 727.5,-97.5 727.5,-78.5 584.5,-78.5"/>
<text text-anchor="middle" x="656" y="-85.5" font-family="Helvetica,sans-Serif" font-size="10.00">compiler.Compiler.compile</text>
</a>
</g>
</g>
<!-- Node3&#45;&gt;Node4 -->
<g id="edge3" class="edge"><title>Node3&#45;&gt;Node4</title>
<path fill="none" stroke="midnightblue" d="M557.646,-88C566.599,-88 575.666,-88 584.479,-88"/>
<polygon fill="midnightblue" stroke="midnightblue" points="557.606,-84.5001 547.606,-88 557.606,-91.5001 557.606,-84.5001"/>
</g>
<!-- Node5 -->
<g id="node5" class="node"><title>Node5</title>
<g id="a_node5"><a xlink:href="../../db/d93/classcompiler_1_1_compiler.html#a90d16b98c8e950bbaf772f5b93092a3f" target="_top" xlink:title="compiler.Compiler.main">
<polygon fill="white" stroke="black" points="778.5,-147.5 778.5,-166.5 907.5,-166.5 907.5,-147.5 778.5,-147.5"/>
<text text-anchor="middle" x="843" y="-154.5" font-family="Helvetica,sans-Serif" font-size="10.00">compiler.Compiler.main</text>
</a>
</g>
</g>
<!-- Node4&#45;&gt;Node5 -->
<g id="edge4" class="edge"><title>Node4&#45;&gt;Node5</title>
<path fill="none" stroke="midnightblue" d="M684.232,-102.112C705.53,-112.743 736.107,-127.126 764,-137 775.202,-140.965 787.564,-144.502 799.081,-147.458"/>
<polygon fill="midnightblue" stroke="midnightblue" points="685.647,-98.9049 675.143,-97.5207 682.491,-105.153 685.647,-98.9049"/>
</g>
<!-- Node6 -->
<g id="node6" class="node"><title>Node6</title>
<g id="a_node6"><a xlink:href="../../db/d32/classcontroller_1_1_main_controller.html#a6badeb343877f4b50f069b47afed495c" target="_top" xlink:title="controller.MainController.pass\lInput">
<polygon fill="white" stroke="black" points="764,-98 764,-128 922,-128 922,-98 764,-98"/>
<text text-anchor="start" x="772" y="-116" font-family="Helvetica,sans-Serif" font-size="10.00">controller.MainController.pass</text>
<text text-anchor="middle" x="843" y="-105" font-family="Helvetica,sans-Serif" font-size="10.00">Input</text>
</a>
</g>
</g>
<!-- Node4&#45;&gt;Node6 -->
<g id="edge5" class="edge"><title>Node4&#45;&gt;Node6</title>
<path fill="none" stroke="midnightblue" d="M737.565,-98.8872C746.238,-100.059 755.053,-101.25 763.698,-102.419"/>
<polygon fill="midnightblue" stroke="midnightblue" points="737.847,-95.3935 727.468,-97.5227 736.909,-102.33 737.847,-95.3935"/>
</g>
<!-- Node14 -->
<g id="node14" class="node"><title>Node14</title>
<g id="a_node14"><a xlink:href="../../d8/ded/class_j_unit_test_1_1_compiler_test.html#a4132f77013965dda40f6d62699de349a" target="_top" xlink:title="JUnitTest.CompilerTest.test\lGrammarException">
<polygon fill="white" stroke="black" points="771.5,-49 771.5,-79 914.5,-79 914.5,-49 771.5,-49"/>
<text text-anchor="start" x="779.5" y="-67" font-family="Helvetica,sans-Serif" font-size="10.00">JUnitTest.CompilerTest.test</text>
<text text-anchor="middle" x="843" y="-56" font-family="Helvetica,sans-Serif" font-size="10.00">GrammarException</text>
</a>
</g>
</g>
<!-- Node4&#45;&gt;Node14 -->
<g id="edge15" class="edge"><title>Node4&#45;&gt;Node14</title>
<path fill="none" stroke="midnightblue" d="M737.876,-77.508C749.011,-76.0635 760.374,-74.5893 771.307,-73.171"/>
<polygon fill="midnightblue" stroke="midnightblue" points="737.199,-74.0664 727.732,-78.8239 738.1,-81.0082 737.199,-74.0664"/>
</g>
<!-- Node15 -->
<g id="node15" class="node"><title>Node15</title>
<g id="a_node15"><a xlink:href="../../d8/ded/class_j_unit_test_1_1_compiler_test.html#accbcdde8d934dd7acc552820845d6b0f" target="_top" xlink:title="JUnitTest.CompilerTest.test\lSyntaxException">
<polygon fill="white" stroke="black" points="771.5,-0 771.5,-30 914.5,-30 914.5,-0 771.5,-0"/>
<text text-anchor="start" x="779.5" y="-18" font-family="Helvetica,sans-Serif" font-size="10.00">JUnitTest.CompilerTest.test</text>
<text text-anchor="middle" x="843" y="-7" font-family="Helvetica,sans-Serif" font-size="10.00">SyntaxException</text>
</a>
</g>
</g>
<!-- Node4&#45;&gt;Node15 -->
<g id="edge16" class="edge"><title>Node4&#45;&gt;Node15</title>
<path fill="none" stroke="midnightblue" d="M685.598,-74.1227C706.942,-64.024 736.961,-50.3608 764,-40 773.03,-36.54 782.766,-33.1542 792.196,-30.0473"/>
<polygon fill="midnightblue" stroke="midnightblue" points="683.965,-71.0241 676.444,-78.4871 686.977,-77.3427 683.965,-71.0241"/>
</g>
<!-- Node7 -->
<g id="node7" class="node"><title>Node7</title>
<g id="a_node7"><a xlink:href="../../dd/dea/classgui_1_1_g_u_i_scene.html#a7cb2b00ed820aecde169a5e14cf0d468" target="_top" xlink:title="gui.GUIScene.createGUI">
<polygon fill="white" stroke="black" points="1152,-122.5 1152,-141.5 1284,-141.5 1284,-122.5 1152,-122.5"/>
<text text-anchor="middle" x="1218" y="-129.5" font-family="Helvetica,sans-Serif" font-size="10.00">gui.GUIScene.createGUI</text>
</a>
</g>
</g>
<!-- Node6&#45;&gt;Node7 -->
<g id="edge6" class="edge"><title>Node6&#45;&gt;Node7</title>
<path fill="none" stroke="midnightblue" d="M932.389,-129.202C941.02,-130.341 949.664,-131.31 958,-132 1023.87,-137.452 1099.49,-136.643 1151.95,-134.965"/>
<polygon fill="midnightblue" stroke="midnightblue" points="932.67,-125.707 922.283,-127.793 931.704,-132.64 932.67,-125.707"/>
</g>
<!-- Node12 -->
<g id="node12" class="node"><title>Node12</title>
<g id="a_node12"><a xlink:href="../../dd/dea/classgui_1_1_g_u_i_scene.html#a47e424a495817f5806f45064f77a632b" target="_top" xlink:title="gui.GUIScene.getRightBox">
<polygon fill="white" stroke="black" points="966,-103.5 966,-122.5 1108,-122.5 1108,-103.5 966,-103.5"/>
<text text-anchor="middle" x="1037" y="-110.5" font-family="Helvetica,sans-Serif" font-size="10.00">gui.GUIScene.getRightBox</text>
</a>
</g>
</g>
<!-- Node6&#45;&gt;Node12 -->
<g id="edge12" class="edge"><title>Node6&#45;&gt;Node12</title>
<path fill="none" stroke="midnightblue" d="M932.315,-113C943.507,-113 954.84,-113 965.699,-113"/>
<polygon fill="midnightblue" stroke="midnightblue" points="932.094,-109.5 922.094,-113 932.094,-116.5 932.094,-109.5"/>
</g>
<!-- Node13 -->
<g id="node13" class="node"><title>Node13</title>
<g id="a_node13"><a xlink:href="../../d6/d6a/class_j_unit_test_1_1_backend_a_p_i_test.html#a86dd50c40468e1647c7c01614dc7d30d" target="_top" xlink:title="JUnitTest.BackendAPITest.test">
<polygon fill="white" stroke="black" points="958.5,-65.5 958.5,-84.5 1115.5,-84.5 1115.5,-65.5 958.5,-65.5"/>
<text text-anchor="middle" x="1037" y="-72.5" font-family="Helvetica,sans-Serif" font-size="10.00">JUnitTest.BackendAPITest.test</text>
</a>
</g>
</g>
<!-- Node6&#45;&gt;Node13 -->
<g id="edge14" class="edge"><title>Node6&#45;&gt;Node13</title>
<path fill="none" stroke="midnightblue" d="M929.921,-95.9949C949.856,-92.0493 970.377,-87.9878 987.995,-84.5009"/>
<polygon fill="midnightblue" stroke="midnightblue" points="929.014,-92.6064 919.883,-97.9814 930.373,-99.4732 929.014,-92.6064"/>
</g>
<!-- Node8 -->
<g id="node8" class="node"><title>Node8</title>
<g id="a_node8"><a xlink:href="../../dd/dea/classgui_1_1_g_u_i_scene.html#a74967ac937baee81b9eec1b2bc38167c" target="_top" xlink:title="gui.GUIScene.createScene">
<polygon fill="white" stroke="black" points="1320.5,-160.5 1320.5,-179.5 1465.5,-179.5 1465.5,-160.5 1320.5,-160.5"/>
<text text-anchor="middle" x="1393" y="-167.5" font-family="Helvetica,sans-Serif" font-size="10.00">gui.GUIScene.createScene</text>
</a>
</g>
</g>
<!-- Node7&#45;&gt;Node8 -->
<g id="edge7" class="edge"><title>Node7&#45;&gt;Node8</title>
<path fill="none" stroke="midnightblue" d="M1272.51,-143.753C1296.97,-149.126 1325.57,-155.409 1348.66,-160.48"/>
<polygon fill="midnightblue" stroke="midnightblue" points="1273.17,-140.316 1262.66,-141.589 1271.67,-147.153 1273.17,-140.316"/>
</g>
<!-- Node11 -->
<g id="node11" class="node"><title>Node11</title>
<g id="a_node11"><a xlink:href="../../dd/dea/classgui_1_1_g_u_i_scene.html#a16324ddc026310495f84e77bbb311b2c" target="_top" xlink:title="gui.GUIScene.addButtons">
<polygon fill="white" stroke="black" points="1323,-122.5 1323,-141.5 1463,-141.5 1463,-122.5 1323,-122.5"/>
<text text-anchor="middle" x="1393" y="-129.5" font-family="Helvetica,sans-Serif" font-size="10.00">gui.GUIScene.addButtons</text>
</a>
</g>
</g>
<!-- Node7&#45;&gt;Node11 -->
<g id="edge10" class="edge"><title>Node7&#45;&gt;Node11</title>
<path fill="none" stroke="midnightblue" d="M1294.5,-125.299C1303.9,-125.215 1313.46,-125.239 1322.75,-125.371"/>
<polygon fill="midnightblue" stroke="midnightblue" points="1294.36,-121.8 1284.4,-125.432 1294.45,-128.8 1294.36,-121.8"/>
</g>
<!-- Node9 -->
<g id="node9" class="node"><title>Node9</title>
<g id="a_node9"><a xlink:href="../../d6/d0e/classcontroller_1_1_s_logo_main.html#ab5379c32fef791f21ad51abde7d268c0" target="_top" xlink:title="controller.SLogoMain.start">
<polygon fill="white" stroke="black" points="1502,-179.5 1502,-198.5 1644,-198.5 1644,-179.5 1502,-179.5"/>
<text text-anchor="middle" x="1573" y="-186.5" font-family="Helvetica,sans-Serif" font-size="10.00">controller.SLogoMain.start</text>
</a>
</g>
</g>
<!-- Node8&#45;&gt;Node9 -->
<g id="edge8" class="edge"><title>Node8&#45;&gt;Node9</title>
<path fill="none" stroke="midnightblue" d="M1475.82,-178.734C1484.56,-179.666 1493.38,-180.608 1501.96,-181.524"/>
<polygon fill="midnightblue" stroke="midnightblue" points="1475.95,-175.227 1465.63,-177.646 1475.2,-182.188 1475.95,-175.227"/>
</g>
<!-- Node10 -->
<g id="node10" class="node"><title>Node10</title>
<g id="a_node10"><a xlink:href="../../dd/d48/classgui_1_1_g_u_i_start.html#a82d08814fef5331d82c4763a2426ffce" target="_top" xlink:title="gui.GUIStart.start">
<polygon fill="white" stroke="black" points="1522.5,-141.5 1522.5,-160.5 1623.5,-160.5 1623.5,-141.5 1522.5,-141.5"/>
<text text-anchor="middle" x="1573" y="-148.5" font-family="Helvetica,sans-Serif" font-size="10.00">gui.GUIStart.start</text>
</a>
</g>
</g>
<!-- Node8&#45;&gt;Node10 -->
<g id="edge9" class="edge"><title>Node8&#45;&gt;Node10</title>
<path fill="none" stroke="midnightblue" d="M1475.97,-161.25C1491.81,-159.559 1507.95,-157.837 1522.36,-156.298"/>
<polygon fill="midnightblue" stroke="midnightblue" points="1475.2,-157.812 1465.63,-162.354 1475.95,-164.773 1475.2,-157.812"/>
</g>
<!-- Node11&#45;&gt;Node7 -->
<g id="edge11" class="edge"><title>Node11&#45;&gt;Node7</title>
<path fill="none" stroke="midnightblue" d="M1312.59,-138.73C1303.15,-138.784 1293.61,-138.73 1284.4,-138.568"/>
<polygon fill="midnightblue" stroke="midnightblue" points="1312.79,-142.228 1322.75,-138.629 1312.72,-135.228 1312.79,-142.228"/>
</g>
<!-- Node12&#45;&gt;Node7 -->
<g id="edge13" class="edge"><title>Node12&#45;&gt;Node7</title>
<path fill="none" stroke="midnightblue" d="M1118.45,-121.539C1129.66,-122.729 1141.06,-123.939 1151.93,-125.093"/>
<polygon fill="midnightblue" stroke="midnightblue" points="1118.55,-118.03 1108.23,-120.455 1117.81,-124.991 1118.55,-118.03"/>
</g>
</g>
</svg>
        <g id="navigator" transform="translate(0 0)" fill="#404254">
                <rect fill="#f2f5e9" fill-opacity="0.5" stroke="#606060" stroke-width=".5" x="0" y="0" width="60" height="60"/>
                <use id="zoomplus" xlink:href="#zoomPlus" x="17" y="9" onmousedown="handleZoom(evt,'in')"/>
                <use id="zoomminus" xlink:href="#zoomMin" x="42" y="9" onmousedown="handleZoom(evt,'out')"/>
                <use id="reset" xlink:href="#resetDef" x="30" y="36" onmousedown="handleReset()"/>
                <g id="arrowUp" xlink:href="#dirArrow" transform="translate(30 24)" onmousedown="handlePan(0,-1)">
                  <use xlink:href="#rim" fill="#404040">
                        <set attributeName="fill" to="#808080" begin="arrowUp.mouseover" end="arrowUp.mouseout"/>
                  </use>
                  <path fill="none" stroke="white" stroke-width="1.5" d="M0,-3.0v7 M-2.5,-0.5L0,-3.0L2.5,-0.5"/>
                </g>
                <g id="arrowRight" xlink:href="#dirArrow" transform="rotate(90) translate(36 -43)" onmousedown="handlePan(1,0)">
                  <use xlink:href="#rim" fill="#404040">
                        <set attributeName="fill" to="#808080" begin="arrowRight.mouseover" end="arrowRight.mouseout"/>
                  </use>
                  <path fill="none" stroke="white" stroke-width="1.5" d="M0,-3.0v7 M-2.5,-0.5L0,-3.0L2.5,-0.5"/>
                </g>
                <g id="arrowDown" xlink:href="#dirArrow" transform="rotate(180) translate(-30 -48)" onmousedown="handlePan(0,1)">
                  <use xlink:href="#rim" fill="#404040">
                        <set attributeName="fill" to="#808080" begin="arrowDown.mouseover" end="arrowDown.mouseout"/>
                  </use>
                  <path fill="none" stroke="white" stroke-width="1.5" d="M0,-3.0v7 M-2.5,-0.5L0,-3.0L2.5,-0.5"/>
                </g>
                <g id="arrowLeft" xlink:href="#dirArrow" transform="rotate(270) translate(-36 17)" onmousedown="handlePan(-1,0)">
                  <use xlink:href="#rim" fill="#404040">
                        <set attributeName="fill" to="#808080" begin="arrowLeft.mouseover" end="arrowLeft.mouseout"/>
                  </use>
                  <path fill="none" stroke="white" stroke-width="1.5" d="M0,-3.0v7 M-2.5,-0.5L0,-3.0L2.5,-0.5"/>
                </g>
        </g>
        <svg viewBox="0 0 15 15" width="100%" height="30px" preserveAspectRatio="xMaxYMin meet">
         <g id="arrow_out" transform="scale(0.3 0.3)">
          <a xlink:href="classcompiler_1_1_symbol_table_entry_a12657cfb875265be8e008315d81f65bf_icgraph_org.svg" target="_base">
           <rect id="button" ry="5" rx="5" y="6" x="6" height="38" width="38"
                fill="#f2f5e9" fill-opacity="0.5" stroke="#606060" stroke-width="1.0"/>
           <path id="arrow"
             d="M 11.500037,31.436501 C 11.940474,20.09759 22.043105,11.32322 32.158766,21.979434 L 37.068811,17.246167 C 37.068811,17.246167 37.088388,32 37.088388,32 L 22.160133,31.978069 C 22.160133,31.978069 26.997745,27.140456 26.997745,27.140456 C 18.528582,18.264221 13.291696,25.230495 11.500037,31.436501 z"
             style="fill:#404040;"/>
          </a>
         </g>
        </svg>
</svg>
