<?xml version="1.0" encoding="UTF-8" standalone="no"?>
<!DOCTYPE svg PUBLIC "-//W3C//DTD SVG 1.1//EN"
 "http://www.w3.org/Graphics/SVG/1.1/DTD/svg11.dtd">
<!-- Generated by graphviz version 2.36.0 (20140111.2315)
 -->
<!-- Title: compiler.SymbolTableEntry.setType Pages: 1 -->
<svg width="1642pt" height="207pt"
 viewBox="0.00 0.00 1642.00 207.00" xmlns="http://www.w3.org/2000/svg" xmlns:xlink="http://www.w3.org/1999/xlink">
<g id="graph0" class="graph" transform="scale(1 1) rotate(0) translate(4 203)">
<title>compiler.SymbolTableEntry.setType</title>
<polygon fill="white" stroke="none" points="-4,4 -4,-203 1638,-203 1638,4 -4,4"/>
<!-- Node1 -->
<g id="node1" class="node"><title>Node1</title>
<polygon fill="#bfbfbf" stroke="black" points="0,-78.5 0,-97.5 182,-97.5 182,-78.5 0,-78.5"/>
<text text-anchor="middle" x="91" y="-85.5" font-family="Helvetica,sans-Serif" font-size="10.00">compiler.SymbolTableEntry.setType</text>
</g>
<!-- Node2 -->
<g id="node2" class="node"><title>Node2</title>
<g id="a_node2"><a xlink:href="../../db/d93/classcompiler_1_1_compiler.html#ae6504512c09bb3ab9064f3b12f0a51ff" target="_top" xlink:title="compiler.Compiler.symbol\lTableGeneration">
<polygon fill="white" stroke="black" points="218,-73 218,-103 358,-103 358,-73 218,-73"/>
<text text-anchor="start" x="226" y="-91" font-family="Helvetica,sans-Serif" font-size="10.00">compiler.Compiler.symbol</text>
<text text-anchor="middle" x="288" y="-80" font-family="Helvetica,sans-Serif" font-size="10.00">TableGeneration</text>
</a>
</g>
</g>
<!-- Node1&#45;&gt;Node2 -->
<g id="edge1" class="edge"><title>Node1&#45;&gt;Node2</title>
<path fill="none" stroke="midnightblue" d="M192.203,-88C200.829,-88 209.427,-88 217.727,-88"/>
<polygon fill="midnightblue" stroke="midnightblue" points="192.08,-84.5001 182.08,-88 192.08,-91.5001 192.08,-84.5001"/>
</g>
<!-- Node3 -->
<g id="node3" class="node"><title>Node3</title>
<g id="a_node3"><a xlink:href="../../db/d93/classcompiler_1_1_compiler.html#ab49c76c1486c30d921d07022a1be4971" target="_top" xlink:title="compiler.Compiler.scanner">
<polygon fill="white" stroke="black" points="394.5,-78.5 394.5,-97.5 537.5,-97.5 537.5,-78.5 394.5,-78.5"/>
<text text-anchor="middle" x="466" y="-85.5" font-family="Helvetica,sans-Serif" font-size="10.00">compiler.Compiler.scanner</text>
</a>
</g>
</g>
<!-- Node2&#45;&gt;Node3 -->
<g id="edge2" class="edge"><title>Node2&#45;&gt;Node3</title>
<path fill="none" stroke="midnightblue" d="M368.226,-88C376.953,-88 385.796,-88 394.408,-88"/>
<polygon fill="midnightblue" stroke="midnightblue" points="368.055,-84.5001 358.055,-88 368.055,-91.5001 368.055,-84.5001"/>
</g>
<!-- Node4 -->
<g id="node4" class="node"><title>Node4</title>
<g id="a_node4"><a xlink:href="../../db/d93/classcompiler_1_1_compiler.html#a8a90aa273bacff724a034959914a4c2d" target="_top" xlink:title="compiler.Compiler.compile">
<polygon fill="white" stroke="black" points="574.5,-78.5 574.5,-97.5 717.5,-97.5 717.5,-78.5 574.5,-78.5"/>
<text text-anchor="middle" x="646" y="-85.5" font-family="Helvetica,sans-Serif" font-size="10.00">compiler.Compiler.compile</text>
</a>
</g>
</g>
<!-- Node3&#45;&gt;Node4 -->
<g id="edge3" class="edge"><title>Node3&#45;&gt;Node4</title>
<path fill="none" stroke="midnightblue" d="M547.646,-88C556.599,-88 565.666,-88 574.479,-88"/>
<polygon fill="midnightblue" stroke="midnightblue" points="547.606,-84.5001 537.606,-88 547.606,-91.5001 547.606,-84.5001"/>
</g>
<!-- Node5 -->
<g id="node5" class="node"><title>Node5</title>
<g id="a_node5"><a xlink:href="../../db/d93/classcompiler_1_1_compiler.html#a90d16b98c8e950bbaf772f5b93092a3f" target="_top" xlink:title="compiler.Compiler.main">
<polygon fill="white" stroke="black" points="768.5,-147.5 768.5,-166.5 897.5,-166.5 897.5,-147.5 768.5,-147.5"/>
<text text-anchor="middle" x="833" y="-154.5" font-family="Helvetica,sans-Serif" font-size="10.00">compiler.Compiler.main</text>
</a>
</g>
</g>
<!-- Node4&#45;&gt;Node5 -->
<g id="edge4" class="edge"><title>Node4&#45;&gt;Node5</title>
<path fill="none" stroke="midnightblue" d="M674.232,-102.112C695.53,-112.743 726.107,-127.126 754,-137 765.202,-140.965 777.564,-144.502 789.081,-147.458"/>
<polygon fill="midnightblue" stroke="midnightblue" points="675.647,-98.9049 665.143,-97.5207 672.491,-105.153 675.647,-98.9049"/>
</g>
<!-- Node6 -->
<g id="node6" class="node"><title>Node6</title>
<g id="a_node6"><a xlink:href="../../db/d32/classcontroller_1_1_main_controller.html#a6badeb343877f4b50f069b47afed495c" target="_top" xlink:title="controller.MainController.pass\lInput">
<polygon fill="white" stroke="black" points="754,-98 754,-128 912,-128 912,-98 754,-98"/>
<text text-anchor="start" x="762" y="-116" font-family="Helvetica,sans-Serif" font-size="10.00">controller.MainController.pass</text>
<text text-anchor="middle" x="833" y="-105" font-family="Helvetica,sans-Serif" font-size="10.00">Input</text>
</a>
</g>
</g>
<!-- Node4&#45;&gt;Node6 -->
<g id="edge5" class="edge"><title>Node4&#45;&gt;Node6</title>
<path fill="none" stroke="midnightblue" d="M727.565,-98.8872C736.238,-100.059 745.053,-101.25 753.698,-102.419"/>
<polygon fill="midnightblue" stroke="midnightblue" points="727.847,-95.3935 717.468,-97.5227 726.909,-102.33 727.847,-95.3935"/>
</g>
<!-- Node14 -->
<g id="node14" class="node"><title>Node14</title>
<g id="a_node14"><a xlink:href="../../d8/ded/class_j_unit_test_1_1_compiler_test.html#a4132f77013965dda40f6d62699de349a" target="_top" xlink:title="JUnitTest.CompilerTest.test\lGrammarException">
<polygon fill="white" stroke="black" points="761.5,-49 761.5,-79 904.5,-79 904.5,-49 761.5,-49"/>
<text text-anchor="start" x="769.5" y="-67" font-family="Helvetica,sans-Serif" font-size="10.00">JUnitTest.CompilerTest.test</text>
<text text-anchor="middle" x="833" y="-56" font-family="Helvetica,sans-Serif" font-size="10.00">GrammarException</text>
</a>
</g>
</g>
<!-- Node4&#45;&gt;Node14 -->
<g id="edge15" class="edge"><title>Node4&#45;&gt;Node14</title>
<path fill="none" stroke="midnightblue" d="M727.876,-77.508C739.011,-76.0635 750.374,-74.5893 761.307,-73.171"/>
<polygon fill="midnightblue" stroke="midnightblue" points="727.199,-74.0664 717.732,-78.8239 728.1,-81.0082 727.199,-74.0664"/>
</g>
<!-- Node15 -->
<g id="node15" class="node"><title>Node15</title>
<g id="a_node15"><a xlink:href="../../d8/ded/class_j_unit_test_1_1_compiler_test.html#accbcdde8d934dd7acc552820845d6b0f" target="_top" xlink:title="JUnitTest.CompilerTest.test\lSyntaxException">
<polygon fill="white" stroke="black" points="761.5,-0 761.5,-30 904.5,-30 904.5,-0 761.5,-0"/>
<text text-anchor="start" x="769.5" y="-18" font-family="Helvetica,sans-Serif" font-size="10.00">JUnitTest.CompilerTest.test</text>
<text text-anchor="middle" x="833" y="-7" font-family="Helvetica,sans-Serif" font-size="10.00">SyntaxException</text>
</a>
</g>
</g>
<!-- Node4&#45;&gt;Node15 -->
<g id="edge16" class="edge"><title>Node4&#45;&gt;Node15</title>
<path fill="none" stroke="midnightblue" d="M675.598,-74.1227C696.942,-64.024 726.961,-50.3608 754,-40 763.03,-36.54 772.766,-33.1542 782.196,-30.0473"/>
<polygon fill="midnightblue" stroke="midnightblue" points="673.965,-71.0241 666.444,-78.4871 676.977,-77.3427 673.965,-71.0241"/>
</g>
<!-- Node7 -->
<g id="node7" class="node"><title>Node7</title>
<g id="a_node7"><a xlink:href="../../dd/dea/classgui_1_1_g_u_i_scene.html#a7cb2b00ed820aecde169a5e14cf0d468" target="_top" xlink:title="gui.GUIScene.createGUI">
<polygon fill="white" stroke="black" points="1142,-122.5 1142,-141.5 1274,-141.5 1274,-122.5 1142,-122.5"/>
<text text-anchor="middle" x="1208" y="-129.5" font-family="Helvetica,sans-Serif" font-size="10.00">gui.GUIScene.createGUI</text>
</a>
</g>
</g>
<!-- Node6&#45;&gt;Node7 -->
<g id="edge6" class="edge"><title>Node6&#45;&gt;Node7</title>
<path fill="none" stroke="midnightblue" d="M922.389,-129.202C931.02,-130.341 939.664,-131.31 948,-132 1013.87,-137.452 1089.49,-136.643 1141.95,-134.965"/>
<polygon fill="midnightblue" stroke="midnightblue" points="922.67,-125.707 912.283,-127.793 921.704,-132.64 922.67,-125.707"/>
</g>
<!-- Node12 -->
<g id="node12" class="node"><title>Node12</title>
<g id="a_node12"><a xlink:href="../../dd/dea/classgui_1_1_g_u_i_scene.html#a47e424a495817f5806f45064f77a632b" target="_top" xlink:title="gui.GUIScene.getRightBox">
<polygon fill="white" stroke="black" points="956,-103.5 956,-122.5 1098,-122.5 1098,-103.5 956,-103.5"/>
<text text-anchor="middle" x="1027" y="-110.5" font-family="Helvetica,sans-Serif" font-size="10.00">gui.GUIScene.getRightBox</text>
</a>
</g>
</g>
<!-- Node6&#45;&gt;Node12 -->
<g id="edge12" class="edge"><title>Node6&#45;&gt;Node12</title>
<path fill="none" stroke="midnightblue" d="M922.315,-113C933.507,-113 944.84,-113 955.699,-113"/>
<polygon fill="midnightblue" stroke="midnightblue" points="922.094,-109.5 912.094,-113 922.094,-116.5 922.094,-109.5"/>
</g>
<!-- Node13 -->
<g id="node13" class="node"><title>Node13</title>
<g id="a_node13"><a xlink:href="../../d6/d6a/class_j_unit_test_1_1_backend_a_p_i_test.html#a86dd50c40468e1647c7c01614dc7d30d" target="_top" xlink:title="JUnitTest.BackendAPITest.test">
<polygon fill="white" stroke="black" points="948.5,-65.5 948.5,-84.5 1105.5,-84.5 1105.5,-65.5 948.5,-65.5"/>
<text text-anchor="middle" x="1027" y="-72.5" font-family="Helvetica,sans-Serif" font-size="10.00">JUnitTest.BackendAPITest.test</text>
</a>
</g>
</g>
<!-- Node6&#45;&gt;Node13 -->
<g id="edge14" class="edge"><title>Node6&#45;&gt;Node13</title>
<path fill="none" stroke="midnightblue" d="M919.921,-95.9949C939.856,-92.0493 960.377,-87.9878 977.995,-84.5009"/>
<polygon fill="midnightblue" stroke="midnightblue" points="919.014,-92.6064 909.883,-97.9814 920.373,-99.4732 919.014,-92.6064"/>
</g>
<!-- Node8 -->
<g id="node8" class="node"><title>Node8</title>
<g id="a_node8"><a xlink:href="../../dd/dea/classgui_1_1_g_u_i_scene.html#a74967ac937baee81b9eec1b2bc38167c" target="_top" xlink:title="gui.GUIScene.createScene">
<polygon fill="white" stroke="black" points="1310.5,-160.5 1310.5,-179.5 1455.5,-179.5 1455.5,-160.5 1310.5,-160.5"/>
<text text-anchor="middle" x="1383" y="-167.5" font-family="Helvetica,sans-Serif" font-size="10.00">gui.GUIScene.createScene</text>
</a>
</g>
</g>
<!-- Node7&#45;&gt;Node8 -->
<g id="edge7" class="edge"><title>Node7&#45;&gt;Node8</title>
<path fill="none" stroke="midnightblue" d="M1262.51,-143.753C1286.97,-149.126 1315.57,-155.409 1338.66,-160.48"/>
<polygon fill="midnightblue" stroke="midnightblue" points="1263.17,-140.316 1252.66,-141.589 1261.67,-147.153 1263.17,-140.316"/>
</g>
<!-- Node11 -->
<g id="node11" class="node"><title>Node11</title>
<g id="a_node11"><a xlink:href="../../dd/dea/classgui_1_1_g_u_i_scene.html#a16324ddc026310495f84e77bbb311b2c" target="_top" xlink:title="gui.GUIScene.addButtons">
<polygon fill="white" stroke="black" points="1313,-122.5 1313,-141.5 1453,-141.5 1453,-122.5 1313,-122.5"/>
<text text-anchor="middle" x="1383" y="-129.5" font-family="Helvetica,sans-Serif" font-size="10.00">gui.GUIScene.addButtons</text>
</a>
</g>
</g>
<!-- Node7&#45;&gt;Node11 -->
<g id="edge10" class="edge"><title>Node7&#45;&gt;Node11</title>
<path fill="none" stroke="midnightblue" d="M1284.5,-125.299C1293.9,-125.215 1303.46,-125.239 1312.75,-125.371"/>
<polygon fill="midnightblue" stroke="midnightblue" points="1284.36,-121.8 1274.4,-125.432 1284.45,-128.8 1284.36,-121.8"/>
</g>
<!-- Node9 -->
<g id="node9" class="node"><title>Node9</title>
<g id="a_node9"><a xlink:href="../../d6/d0e/classcontroller_1_1_s_logo_main.html#ab5379c32fef791f21ad51abde7d268c0" target="_top" xlink:title="controller.SLogoMain.start">
<polygon fill="white" stroke="black" points="1492,-179.5 1492,-198.5 1634,-198.5 1634,-179.5 1492,-179.5"/>
<text text-anchor="middle" x="1563" y="-186.5" font-family="Helvetica,sans-Serif" font-size="10.00">controller.SLogoMain.start</text>
</a>
</g>
</g>
<!-- Node8&#45;&gt;Node9 -->
<g id="edge8" class="edge"><title>Node8&#45;&gt;Node9</title>
<path fill="none" stroke="midnightblue" d="M1465.82,-178.734C1474.56,-179.666 1483.38,-180.608 1491.96,-181.524"/>
<polygon fill="midnightblue" stroke="midnightblue" points="1465.95,-175.227 1455.63,-177.646 1465.2,-182.188 1465.95,-175.227"/>
</g>
<!-- Node10 -->
<g id="node10" class="node"><title>Node10</title>
<g id="a_node10"><a xlink:href="../../dd/d48/classgui_1_1_g_u_i_start.html#a82d08814fef5331d82c4763a2426ffce" target="_top" xlink:title="gui.GUIStart.start">
<polygon fill="white" stroke="black" points="1512.5,-141.5 1512.5,-160.5 1613.5,-160.5 1613.5,-141.5 1512.5,-141.5"/>
<text text-anchor="middle" x="1563" y="-148.5" font-family="Helvetica,sans-Serif" font-size="10.00">gui.GUIStart.start</text>
</a>
</g>
</g>
<!-- Node8&#45;&gt;Node10 -->
<g id="edge9" class="edge"><title>Node8&#45;&gt;Node10</title>
<path fill="none" stroke="midnightblue" d="M1465.97,-161.25C1481.81,-159.559 1497.95,-157.837 1512.36,-156.298"/>
<polygon fill="midnightblue" stroke="midnightblue" points="1465.2,-157.812 1455.63,-162.354 1465.95,-164.773 1465.2,-157.812"/>
</g>
<!-- Node11&#45;&gt;Node7 -->
<g id="edge11" class="edge"><title>Node11&#45;&gt;Node7</title>
<path fill="none" stroke="midnightblue" d="M1302.59,-138.73C1293.15,-138.784 1283.61,-138.73 1274.4,-138.568"/>
<polygon fill="midnightblue" stroke="midnightblue" points="1302.79,-142.228 1312.75,-138.629 1302.72,-135.228 1302.79,-142.228"/>
</g>
<!-- Node12&#45;&gt;Node7 -->
<g id="edge13" class="edge"><title>Node12&#45;&gt;Node7</title>
<path fill="none" stroke="midnightblue" d="M1108.45,-121.539C1119.66,-122.729 1131.06,-123.939 1141.93,-125.093"/>
<polygon fill="midnightblue" stroke="midnightblue" points="1108.55,-118.03 1098.23,-120.455 1107.81,-124.991 1108.55,-118.03"/>
</g>
</g>
</svg>
