<?xml version="1.0" encoding="UTF-8" standalone="no"?>
<!DOCTYPE svg PUBLIC "-//W3C//DTD SVG 1.1//EN"
 "http://www.w3.org/Graphics/SVG/1.1/DTD/svg11.dtd">
<!-- Generated by graphviz version 2.36.0 (20140111.2315)
 -->
<!-- Title: simulationObjects.Pen.getColor Pages: 1 -->
<svg width="1154pt" height="142pt"
 viewBox="0.00 0.00 1154.00 142.00" xmlns="http://www.w3.org/2000/svg" xmlns:xlink="http://www.w3.org/1999/xlink">
<g id="graph0" class="graph" transform="scale(1 1) rotate(0) translate(4 138)">
<title>simulationObjects.Pen.getColor</title>
<polygon fill="white" stroke="none" points="-4,4 -4,-138 1150,-138 1150,4 -4,4"/>
<!-- Node1 -->
<g id="node1" class="node"><title>Node1</title>
<polygon fill="#bfbfbf" stroke="black" points="0,-80 0,-110 142,-110 142,-80 0,-80"/>
<text text-anchor="start" x="8" y="-98" font-family="Helvetica,sans-Serif" font-size="10.00">simulationObjects.Pen.get</text>
<text text-anchor="middle" x="71" y="-87" font-family="Helvetica,sans-Serif" font-size="10.00">Color</text>
</g>
<!-- Node2 -->
<g id="node2" class="node"><title>Node2</title>
<g id="a_node2"><a xlink:href="../../dd/dea/classgui_1_1_g_u_i_scene.html#a16324ddc026310495f84e77bbb311b2c" target="_top" xlink:title="gui.GUIScene.addButtons">
<polygon fill="white" stroke="black" points="477,-114.5 477,-133.5 617,-133.5 617,-114.5 477,-114.5"/>
<text text-anchor="middle" x="547" y="-121.5" font-family="Helvetica,sans-Serif" font-size="10.00">gui.GUIScene.addButtons</text>
</a>
</g>
</g>
<!-- Node1&#45;&gt;Node2 -->
<g id="edge1" class="edge"><title>Node1&#45;&gt;Node2</title>
<path fill="none" stroke="midnightblue" d="M152.193,-99.9063C243.248,-105.477 390.319,-114.475 476.626,-119.756"/>
<polygon fill="midnightblue" stroke="midnightblue" points="152.39,-96.412 142.195,-99.2947 151.963,-103.399 152.39,-96.412"/>
</g>
<!-- Node7 -->
<g id="node7" class="node"><title>Node7</title>
<g id="a_node7"><a xlink:href="../../dd/dea/classgui_1_1_g_u_i_scene.html#a2476ac9be7551f4637e28aa12d3800e4" target="_top" xlink:title="gui.GUIScene.draw">
<polygon fill="white" stroke="black" points="178.5,-62.5 178.5,-81.5 285.5,-81.5 285.5,-62.5 178.5,-62.5"/>
<text text-anchor="middle" x="232" y="-69.5" font-family="Helvetica,sans-Serif" font-size="10.00">gui.GUIScene.draw</text>
</a>
</g>
</g>
<!-- Node1&#45;&gt;Node7 -->
<g id="edge7" class="edge"><title>Node1&#45;&gt;Node7</title>
<path fill="none" stroke="midnightblue" d="M152.208,-83.3976C161.087,-82.1132 169.954,-80.8306 178.366,-79.6137"/>
<polygon fill="midnightblue" stroke="midnightblue" points="151.598,-79.9492 142.203,-84.8449 152.601,-86.8771 151.598,-79.9492"/>
</g>
<!-- Node3 -->
<g id="node3" class="node"><title>Node3</title>
<g id="a_node3"><a xlink:href="../../dd/dea/classgui_1_1_g_u_i_scene.html#a7cb2b00ed820aecde169a5e14cf0d468" target="_top" xlink:title="gui.GUIScene.createGUI">
<polygon fill="white" stroke="black" points="654,-76.5 654,-95.5 786,-95.5 786,-76.5 654,-76.5"/>
<text text-anchor="middle" x="720" y="-83.5" font-family="Helvetica,sans-Serif" font-size="10.00">gui.GUIScene.createGUI</text>
</a>
</g>
</g>
<!-- Node2&#45;&gt;Node3 -->
<g id="edge2" class="edge"><title>Node2&#45;&gt;Node3</title>
<path fill="none" stroke="midnightblue" d="M579.613,-111.596C600.451,-105.725 628.498,-99.0933 653.97,-93.876"/>
<polygon fill="midnightblue" stroke="midnightblue" points="578.62,-108.24 570.005,-114.408 580.586,-114.958 578.62,-108.24"/>
</g>
<!-- Node3&#45;&gt;Node2 -->
<g id="edge3" class="edge"><title>Node3&#45;&gt;Node2</title>
<path fill="none" stroke="midnightblue" d="M687.255,-98.4412C667.526,-103.995 641.371,-110.224 617.059,-115.291"/>
<polygon fill="midnightblue" stroke="midnightblue" points="688.327,-101.774 696.943,-95.6082 686.363,-95.0557 688.327,-101.774"/>
</g>
<!-- Node4 -->
<g id="node4" class="node"><title>Node4</title>
<g id="a_node4"><a xlink:href="../../dd/dea/classgui_1_1_g_u_i_scene.html#a74967ac937baee81b9eec1b2bc38167c" target="_top" xlink:title="gui.GUIScene.createScene">
<polygon fill="white" stroke="black" points="822.5,-76.5 822.5,-95.5 967.5,-95.5 967.5,-76.5 822.5,-76.5"/>
<text text-anchor="middle" x="895" y="-83.5" font-family="Helvetica,sans-Serif" font-size="10.00">gui.GUIScene.createScene</text>
</a>
</g>
</g>
<!-- Node3&#45;&gt;Node4 -->
<g id="edge4" class="edge"><title>Node3&#45;&gt;Node4</title>
<path fill="none" stroke="midnightblue" d="M796.445,-86C805.074,-86 813.853,-86 822.43,-86"/>
<polygon fill="midnightblue" stroke="midnightblue" points="796.404,-82.5001 786.404,-86 796.404,-89.5001 796.404,-82.5001"/>
</g>
<!-- Node5 -->
<g id="node5" class="node"><title>Node5</title>
<g id="a_node5"><a xlink:href="../../dd/d48/classgui_1_1_g_u_i_start.html#a82d08814fef5331d82c4763a2426ffce" target="_top" xlink:title="gui.GUIStart.start">
<polygon fill="white" stroke="black" points="1024.5,-95.5 1024.5,-114.5 1125.5,-114.5 1125.5,-95.5 1024.5,-95.5"/>
<text text-anchor="middle" x="1075" y="-102.5" font-family="Helvetica,sans-Serif" font-size="10.00">gui.GUIStart.start</text>
</a>
</g>
</g>
<!-- Node4&#45;&gt;Node5 -->
<g id="edge5" class="edge"><title>Node4&#45;&gt;Node5</title>
<path fill="none" stroke="midnightblue" d="M977.974,-94.7501C993.814,-96.4408 1009.95,-98.1634 1024.36,-99.7019"/>
<polygon fill="midnightblue" stroke="midnightblue" points="977.945,-91.2271 967.63,-93.6459 977.202,-98.1876 977.945,-91.2271"/>
</g>
<!-- Node6 -->
<g id="node6" class="node"><title>Node6</title>
<g id="a_node6"><a xlink:href="../../d6/d0e/classcontroller_1_1_s_logo_main.html#ab5379c32fef791f21ad51abde7d268c0" target="_top" xlink:title="controller.SLogoMain.start">
<polygon fill="white" stroke="black" points="1004,-57.5 1004,-76.5 1146,-76.5 1146,-57.5 1004,-57.5"/>
<text text-anchor="middle" x="1075" y="-64.5" font-family="Helvetica,sans-Serif" font-size="10.00">controller.SLogoMain.start</text>
</a>
</g>
</g>
<!-- Node4&#45;&gt;Node6 -->
<g id="edge6" class="edge"><title>Node4&#45;&gt;Node6</title>
<path fill="none" stroke="midnightblue" d="M977.821,-77.2663C986.555,-76.334 995.382,-75.3918 1003.96,-74.4759"/>
<polygon fill="midnightblue" stroke="midnightblue" points="977.202,-73.8124 967.63,-78.3541 977.945,-80.7729 977.202,-73.8124"/>
</g>
<!-- Node8 -->
<g id="node8" class="node"><title>Node8</title>
<g id="a_node8"><a xlink:href="../../dd/dea/classgui_1_1_g_u_i_scene.html#a21fe0ea8ff67b7c2da45e6ad786eab56" target="_top" xlink:title="gui.GUIScene.update">
<polygon fill="white" stroke="black" points="322,-43.5 322,-62.5 440,-62.5 440,-43.5 322,-43.5"/>
<text text-anchor="middle" x="381" y="-50.5" font-family="Helvetica,sans-Serif" font-size="10.00">gui.GUIScene.update</text>
</a>
</g>
</g>
<!-- Node7&#45;&gt;Node8 -->
<g id="edge8" class="edge"><title>Node7&#45;&gt;Node8</title>
<path fill="none" stroke="midnightblue" d="M295.75,-63.8895C304.455,-62.7643 313.366,-61.6125 321.98,-60.4992"/>
<polygon fill="midnightblue" stroke="midnightblue" points="295.124,-60.4412 285.655,-65.1942 296.021,-67.3834 295.124,-60.4412"/>
</g>
<!-- Node8&#45;&gt;Node3 -->
<g id="edge11" class="edge"><title>Node8&#45;&gt;Node3</title>
<path fill="none" stroke="midnightblue" d="M450.194,-63.7279C458.868,-64.9242 467.634,-66.0511 476,-67 536.127,-73.8197 604.903,-78.9491 653.905,-82.1485"/>
<polygon fill="midnightblue" stroke="midnightblue" points="450.475,-60.2329 440.083,-62.2983 449.494,-67.1639 450.475,-60.2329"/>
</g>
<!-- Node9 -->
<g id="node9" class="node"><title>Node9</title>
<g id="a_node9"><a xlink:href="../../dd/dea/classgui_1_1_g_u_i_scene.html#aec9d26a4fa0613c7c5834bad2392eea1" target="_top" xlink:title="gui.GUIScene.addGrid">
<polygon fill="white" stroke="black" points="486,-38.5 486,-57.5 608,-57.5 608,-38.5 486,-38.5"/>
<text text-anchor="middle" x="547" y="-45.5" font-family="Helvetica,sans-Serif" font-size="10.00">gui.GUIScene.addGrid</text>
</a>
</g>
</g>
<!-- Node8&#45;&gt;Node9 -->
<g id="edge9" class="edge"><title>Node8&#45;&gt;Node9</title>
<path fill="none" stroke="midnightblue" d="M450.506,-50.9114C462.28,-50.5524 474.437,-50.1818 485.967,-49.8303"/>
<polygon fill="midnightblue" stroke="midnightblue" points="450.171,-47.4199 440.282,-51.2231 450.384,-54.4167 450.171,-47.4199"/>
</g>
<!-- Node10 -->
<g id="node10" class="node"><title>Node10</title>
<g id="a_node10"><a xlink:href="../../dd/dea/classgui_1_1_g_u_i_scene.html#a47e424a495817f5806f45064f77a632b" target="_top" xlink:title="gui.GUIScene.getRightBox">
<polygon fill="white" stroke="black" points="476,-0.5 476,-19.5 618,-19.5 618,-0.5 476,-0.5"/>
<text text-anchor="middle" x="547" y="-7.5" font-family="Helvetica,sans-Serif" font-size="10.00">gui.GUIScene.getRightBox</text>
</a>
</g>
</g>
<!-- Node8&#45;&gt;Node10 -->
<g id="edge12" class="edge"><title>Node8&#45;&gt;Node10</title>
<path fill="none" stroke="midnightblue" d="M428.324,-40.8542C454.106,-34.0941 485.734,-25.8015 509.705,-19.5164"/>
<polygon fill="midnightblue" stroke="midnightblue" points="427.182,-37.535 418.397,-43.4569 428.958,-44.3062 427.182,-37.535"/>
</g>
<!-- Node9&#45;&gt;Node3 -->
<g id="edge10" class="edge"><title>Node9&#45;&gt;Node3</title>
<path fill="none" stroke="midnightblue" d="M601.209,-59.8243C625.317,-65.1816 653.44,-71.4311 676.16,-76.4799"/>
<polygon fill="midnightblue" stroke="midnightblue" points="601.672,-56.3417 591.151,-57.589 600.153,-63.175 601.672,-56.3417"/>
</g>
<!-- Node10&#45;&gt;Node3 -->
<g id="edge13" class="edge"><title>Node10&#45;&gt;Node3</title>
<path fill="none" stroke="midnightblue" d="M599.764,-22.48C605.986,-24.4391 612.19,-26.6156 618,-29 650.411,-42.3007 685.423,-63.8533 704.527,-76.2958"/>
<polygon fill="midnightblue" stroke="midnightblue" points="600.606,-19.079 590.023,-19.5817 598.61,-25.7883 600.606,-19.079"/>
</g>
</g>
</svg>
