<?xml version="1.0" encoding="UTF-8" standalone="no"?>
<!DOCTYPE svg PUBLIC "-//W3C//DTD SVG 1.1//EN"
 "http://www.w3.org/Graphics/SVG/1.1/DTD/svg11.dtd">
<!-- Generated by graphviz version 2.36.0 (20140111.2315)
 -->
<!-- Title: simulationObjects.Pen.setStyle Pages: 1 -->
<svg width="854pt" height="66pt"
 viewBox="0.00 0.00 854.00 66.00" xmlns="http://www.w3.org/2000/svg" xmlns:xlink="http://www.w3.org/1999/xlink">
<g id="graph0" class="graph" transform="scale(1 1) rotate(0) translate(4 62)">
<title>simulationObjects.Pen.setStyle</title>
<polygon fill="white" stroke="none" points="-4,4 -4,-62 850,-62 850,4 -4,4"/>
<!-- Node1 -->
<g id="node1" class="node"><title>Node1</title>
<polygon fill="#bfbfbf" stroke="black" points="0.5,-14 0.5,-44 141.5,-44 141.5,-14 0.5,-14"/>
<text text-anchor="start" x="8.5" y="-32" font-family="Helvetica,sans-Serif" font-size="10.00">simulationObjects.Pen.set</text>
<text text-anchor="middle" x="71" y="-21" font-family="Helvetica,sans-Serif" font-size="10.00">Style</text>
</g>
<!-- Node2 -->
<g id="node2" class="node"><title>Node2</title>
<g id="a_node2"><a xlink:href="../../dd/dea/classgui_1_1_g_u_i_scene.html#a16324ddc026310495f84e77bbb311b2c" target="_top" xlink:title="gui.GUIScene.addButtons">
<polygon fill="white" stroke="black" points="178,-19.5 178,-38.5 318,-38.5 318,-19.5 178,-19.5"/>
<text text-anchor="middle" x="248" y="-26.5" font-family="Helvetica,sans-Serif" font-size="10.00">gui.GUIScene.addButtons</text>
</a>
</g>
</g>
<!-- Node1&#45;&gt;Node2 -->
<g id="edge1" class="edge"><title>Node1&#45;&gt;Node2</title>
<path fill="none" stroke="midnightblue" d="M151.809,-29C160.506,-29 169.304,-29 177.858,-29"/>
<polygon fill="midnightblue" stroke="midnightblue" points="151.668,-25.5001 141.667,-29 151.667,-32.5001 151.668,-25.5001"/>
</g>
<!-- Node3 -->
<g id="node3" class="node"><title>Node3</title>
<g id="a_node3"><a xlink:href="../../dd/dea/classgui_1_1_g_u_i_scene.html#a7cb2b00ed820aecde169a5e14cf0d468" target="_top" xlink:title="gui.GUIScene.createGUI">
<polygon fill="white" stroke="black" points="354,-19.5 354,-38.5 486,-38.5 486,-19.5 354,-19.5"/>
<text text-anchor="middle" x="420" y="-26.5" font-family="Helvetica,sans-Serif" font-size="10.00">gui.GUIScene.createGUI</text>
</a>
</g>
</g>
<!-- Node2&#45;&gt;Node3 -->
<g id="edge2" class="edge"><title>Node2&#45;&gt;Node3</title>
<path fill="none" stroke="midnightblue" d="M328.152,-22.2642C336.725,-22.2225 345.378,-22.2727 353.76,-22.4148"/>
<polygon fill="midnightblue" stroke="midnightblue" points="328.113,-18.7643 318.146,-22.3555 328.177,-25.764 328.113,-18.7643"/>
</g>
<!-- Node3&#45;&gt;Node2 -->
<g id="edge3" class="edge"><title>Node3&#45;&gt;Node2</title>
<path fill="none" stroke="midnightblue" d="M343.538,-35.7121C335.088,-35.7795 326.511,-35.757 318.146,-35.6445"/>
<polygon fill="midnightblue" stroke="midnightblue" points="343.804,-39.2092 353.76,-35.5852 343.717,-32.2097 343.804,-39.2092"/>
</g>
<!-- Node4 -->
<g id="node4" class="node"><title>Node4</title>
<g id="a_node4"><a xlink:href="../../dd/dea/classgui_1_1_g_u_i_scene.html#a74967ac937baee81b9eec1b2bc38167c" target="_top" xlink:title="gui.GUIScene.createScene">
<polygon fill="white" stroke="black" points="522.5,-19.5 522.5,-38.5 667.5,-38.5 667.5,-19.5 522.5,-19.5"/>
<text text-anchor="middle" x="595" y="-26.5" font-family="Helvetica,sans-Serif" font-size="10.00">gui.GUIScene.createScene</text>
</a>
</g>
</g>
<!-- Node3&#45;&gt;Node4 -->
<g id="edge4" class="edge"><title>Node3&#45;&gt;Node4</title>
<path fill="none" stroke="midnightblue" d="M496.445,-29C505.074,-29 513.853,-29 522.43,-29"/>
<polygon fill="midnightblue" stroke="midnightblue" points="496.404,-25.5001 486.404,-29 496.404,-32.5001 496.404,-25.5001"/>
</g>
<!-- Node5 -->
<g id="node5" class="node"><title>Node5</title>
<g id="a_node5"><a xlink:href="../../dd/d48/classgui_1_1_g_u_i_start.html#a82d08814fef5331d82c4763a2426ffce" target="_top" xlink:title="gui.GUIStart.start">
<polygon fill="white" stroke="black" points="724.5,-38.5 724.5,-57.5 825.5,-57.5 825.5,-38.5 724.5,-38.5"/>
<text text-anchor="middle" x="775" y="-45.5" font-family="Helvetica,sans-Serif" font-size="10.00">gui.GUIStart.start</text>
</a>
</g>
</g>
<!-- Node4&#45;&gt;Node5 -->
<g id="edge5" class="edge"><title>Node4&#45;&gt;Node5</title>
<path fill="none" stroke="midnightblue" d="M677.974,-37.7501C693.814,-39.4408 709.952,-41.1634 724.365,-42.7019"/>
<polygon fill="midnightblue" stroke="midnightblue" points="677.945,-34.2271 667.63,-36.6459 677.202,-41.1876 677.945,-34.2271"/>
</g>
<!-- Node6 -->
<g id="node6" class="node"><title>Node6</title>
<g id="a_node6"><a xlink:href="../../d6/d0e/classcontroller_1_1_s_logo_main.html#ab5379c32fef791f21ad51abde7d268c0" target="_top" xlink:title="controller.SLogoMain.start">
<polygon fill="white" stroke="black" points="704,-0.5 704,-19.5 846,-19.5 846,-0.5 704,-0.5"/>
<text text-anchor="middle" x="775" y="-7.5" font-family="Helvetica,sans-Serif" font-size="10.00">controller.SLogoMain.start</text>
</a>
</g>
</g>
<!-- Node4&#45;&gt;Node6 -->
<g id="edge6" class="edge"><title>Node4&#45;&gt;Node6</title>
<path fill="none" stroke="midnightblue" d="M677.821,-20.2663C686.555,-19.334 695.382,-18.3918 703.963,-17.4759"/>
<polygon fill="midnightblue" stroke="midnightblue" points="677.202,-16.8124 667.63,-21.3541 677.945,-23.7729 677.202,-16.8124"/>
</g>
</g>
</svg>
