<?xml version="1.0" encoding="UTF-8" standalone="no"?>
<!DOCTYPE svg PUBLIC "-//W3C//DTD SVG 1.1//EN"
 "http://www.w3.org/Graphics/SVG/1.1/DTD/svg11.dtd">
<!-- Generated by graphviz version 2.36.0 (20140111.2315)
 -->
<!-- Title: controller.MainController.passInput Pages: 1 -->
<!--zoomable 1030 -->
<svg id="main" version="1.1" xmlns="http://www.w3.org/2000/svg" xmlns:xlink="http://www.w3.org/1999/xlink" xml:space="preserve" onload="init(evt)">
<style type="text/css"><![CDATA[
.edge:hover path { stroke: red; }
.edge:hover polygon { stroke: red; fill: red; }
]]></style>
<script type="text/javascript"><![CDATA[
var edges = document.getElementsByTagName('g');
if (edges && edges.length) {
  for (var i=0;i<edges.length;i++) {
    if (edges[i].id.substr(0,4)=='edge') {
      edges[i].setAttribute('class','edge');
    }
  }
}
]]></script>
        <defs>
                <circle id="rim" cx="0" cy="0" r="7"/>
                <circle id="rim2" cx="0" cy="0" r="3.5"/>
                <g id="zoomPlus">
                        <use xlink:href="#rim" fill="#404040">
                                <set attributeName="fill" to="#808080" begin="zoomplus.mouseover" end="zoomplus.mouseout"/>
                        </use>
                        <path d="M-4,0h8M0,-4v8" fill="none" stroke="white" stroke-width="1.5" pointer-events="none"/>
                </g>
                <g id="zoomMin">
                        <use xlink:href="#rim" fill="#404040">
                                <set attributeName="fill" to="#808080" begin="zoomminus.mouseover" end="zoomminus.mouseout"/>
                        </use>
                        <path d="M-4,0h8" fill="none" stroke="white" stroke-width="1.5" pointer-events="none"/>
                </g>
                <g id="dirArrow">
                        <path fill="none" stroke="white" stroke-width="1.5" d="M0,-3.0v7 M-2.5,-0.5L0,-3.0L2.5,-0.5"/>
                </g>
               <g id="resetDef">
                       <use xlink:href="#rim2" fill="#404040">
                               <set attributeName="fill" to="#808080" begin="reset.mouseover" end="reset.mouseout"/>
                       </use>
               </g>
        </defs>

<script type="text/javascript">
var viewWidth = 990;
var viewHeight = 1030;
var sectionId = 'dynsection-4';
</script>
<script xlink:href="../../svgpan.js"/>
<svg id="graph" class="graph">
<g id="viewport">
<title>controller.MainController.passInput</title>
<polygon fill="white" stroke="none" points="-4,4 -4,-1026 986,-1026 986,4 -4,4"/>
<!-- Node1 -->
<g id="node1" class="node"><title>Node1</title>
<polygon fill="#bfbfbf" stroke="black" points="0,-756 0,-786 158,-786 158,-756 0,-756"/>
<text text-anchor="start" x="8" y="-774" font-family="Helvetica,sans-Serif" font-size="10.00">controller.MainController.pass</text>
<text text-anchor="middle" x="79" y="-763" font-family="Helvetica,sans-Serif" font-size="10.00">Input</text>
</g>
<!-- Node2 -->
<g id="node2" class="node"><title>Node2</title>
<g id="a_node2"><a xlink:href="../../db/d93/classcompiler_1_1_compiler.html#a8a90aa273bacff724a034959914a4c2d" target="_top" xlink:title="compiler.Compiler.compile">
<polygon fill="white" stroke="black" points="194.5,-761.5 194.5,-780.5 337.5,-780.5 337.5,-761.5 194.5,-761.5"/>
<text text-anchor="middle" x="266" y="-768.5" font-family="Helvetica,sans-Serif" font-size="10.00">compiler.Compiler.compile</text>
</a>
</g>
</g>
<!-- Node1&#45;&gt;Node2 -->
<g id="edge1" class="edge"><title>Node1&#45;&gt;Node2</title>
<path fill="none" stroke="midnightblue" d="M158.189,-771C166.836,-771 175.654,-771 184.331,-771"/>
<polygon fill="midnightblue" stroke="midnightblue" points="184.434,-774.5 194.434,-771 184.434,-767.5 184.434,-774.5"/>
</g>
<!-- Node3 -->
<g id="node3" class="node"><title>Node3</title>
<g id="a_node3"><a xlink:href="../../d5/dcd/classcompiler_1_1_a_s_t.html#a554574e2680c721782f0df2694512842" target="_top" xlink:title="compiler.AST.generate">
<polygon fill="white" stroke="black" points="390,-931.5 390,-950.5 514,-950.5 514,-931.5 390,-931.5"/>
<text text-anchor="middle" x="452" y="-938.5" font-family="Helvetica,sans-Serif" font-size="10.00">compiler.AST.generate</text>
</a>
</g>
</g>
<!-- Node2&#45;&gt;Node3 -->
<g id="edge2" class="edge"><title>Node2&#45;&gt;Node3</title>
<path fill="none" stroke="midnightblue" d="M277.42,-780.627C307.529,-808.445 394.919,-889.186 432.957,-924.33"/>
<polygon fill="midnightblue" stroke="midnightblue" points="430.974,-927.263 440.694,-931.479 435.725,-922.122 430.974,-927.263"/>
</g>
<!-- Node5 -->
<g id="node5" class="node"><title>Node5</title>
<g id="a_node5"><a xlink:href="../../db/d93/classcompiler_1_1_compiler.html#afb38c21dd4d72f5fb04bc01dc892621a" target="_top" xlink:title="compiler.Compiler.initialize">
<polygon fill="white" stroke="black" points="380.5,-827.5 380.5,-846.5 523.5,-846.5 523.5,-827.5 380.5,-827.5"/>
<text text-anchor="middle" x="452" y="-834.5" font-family="Helvetica,sans-Serif" font-size="10.00">compiler.Compiler.initialize</text>
</a>
</g>
</g>
<!-- Node2&#45;&gt;Node5 -->
<g id="edge4" class="edge"><title>Node2&#45;&gt;Node5</title>
<path fill="none" stroke="midnightblue" d="M293.755,-780.597C325.733,-792.067 379.38,-811.31 414.981,-824.08"/>
<polygon fill="midnightblue" stroke="midnightblue" points="413.917,-827.417 424.511,-827.499 416.28,-820.828 413.917,-827.417"/>
</g>
<!-- Node12 -->
<g id="node12" class="node"><title>Node12</title>
<g id="a_node12"><a xlink:href="../../db/d93/classcompiler_1_1_compiler.html#a21b0cbd48524326ae956fec14de6a853" target="_top" xlink:title="compiler.Compiler.interpreter">
<polygon fill="white" stroke="black" points="374,-761.5 374,-780.5 530,-780.5 530,-761.5 374,-761.5"/>
<text text-anchor="middle" x="452" y="-768.5" font-family="Helvetica,sans-Serif" font-size="10.00">compiler.Compiler.interpreter</text>
</a>
</g>
</g>
<!-- Node2&#45;&gt;Node12 -->
<g id="edge11" class="edge"><title>Node2&#45;&gt;Node12</title>
<path fill="none" stroke="midnightblue" d="M337.613,-771C346.136,-771 354.917,-771 363.643,-771"/>
<polygon fill="midnightblue" stroke="midnightblue" points="363.842,-774.5 373.842,-771 363.842,-767.5 363.842,-774.5"/>
</g>
<!-- Node13 -->
<g id="node13" class="node"><title>Node13</title>
<g id="a_node13"><a xlink:href="../../db/d93/classcompiler_1_1_compiler.html#ab49c76c1486c30d921d07022a1be4971" target="_top" xlink:title="compiler.Compiler.scanner">
<polygon fill="white" stroke="black" points="380.5,-674.5 380.5,-693.5 523.5,-693.5 523.5,-674.5 380.5,-674.5"/>
<text text-anchor="middle" x="452" y="-681.5" font-family="Helvetica,sans-Serif" font-size="10.00">compiler.Compiler.scanner</text>
</a>
</g>
</g>
<!-- Node2&#45;&gt;Node13 -->
<g id="edge12" class="edge"><title>Node2&#45;&gt;Node13</title>
<path fill="none" stroke="midnightblue" d="M287.394,-761.357C319.947,-745.965 383.803,-715.773 421.389,-698.001"/>
<polygon fill="midnightblue" stroke="midnightblue" points="423.251,-700.992 430.795,-693.554 420.258,-694.664 423.251,-700.992"/>
</g>
<!-- Node21 -->
<g id="node21" class="node"><title>Node21</title>
<g id="a_node21"><a xlink:href="../../d5/dcd/classcompiler_1_1_a_s_t.html#a8f54e642baf772b6269010527c61f7f7" target="_top" xlink:title="compiler.AST.traverse">
<polygon fill="white" stroke="black" points="392,-290.5 392,-309.5 512,-309.5 512,-290.5 392,-290.5"/>
<text text-anchor="middle" x="452" y="-297.5" font-family="Helvetica,sans-Serif" font-size="10.00">compiler.AST.traverse</text>
</a>
</g>
</g>
<!-- Node2&#45;&gt;Node21 -->
<g id="edge20" class="edge"><title>Node2&#45;&gt;Node21</title>
<path fill="none" stroke="midnightblue" d="M270.843,-761.162C293.76,-702.5 412.443,-398.696 443.536,-319.105"/>
<polygon fill="midnightblue" stroke="midnightblue" points="446.799,-320.371 447.178,-309.783 440.279,-317.824 446.799,-320.371"/>
</g>
<!-- Node4 -->
<g id="node4" class="node"><title>Node4</title>
<g id="a_node4"><a xlink:href="../../db/d93/classcompiler_1_1_compiler.html#a4a475133005c58a3a3846315d2f116e4" target="_top" xlink:title="compiler.Compiler.getSymbol\lTable">
<polygon fill="white" stroke="black" points="581.5,-992 581.5,-1022 738.5,-1022 738.5,-992 581.5,-992"/>
<text text-anchor="start" x="589.5" y="-1010" font-family="Helvetica,sans-Serif" font-size="10.00">compiler.Compiler.getSymbol</text>
<text text-anchor="middle" x="660" y="-999" font-family="Helvetica,sans-Serif" font-size="10.00">Table</text>
</a>
</g>
</g>
<!-- Node3&#45;&gt;Node4 -->
<g id="edge3" class="edge"><title>Node3&#45;&gt;Node4</title>
<path fill="none" stroke="midnightblue" d="M477.482,-950.569C500.231,-959.297 535.149,-972.276 566,-982 573.709,-984.43 581.823,-986.833 589.914,-989.134"/>
<polygon fill="midnightblue" stroke="midnightblue" points="589.169,-992.56 599.743,-991.884 591.056,-985.819 589.169,-992.56"/>
</g>
<!-- Node6 -->
<g id="node6" class="node"><title>Node6</title>
<g id="a_node6"><a xlink:href="../../dd/db3/classcompiler_1_1_parse_table.html#a573884bf9b9680a677625168b1b431fc" target="_top" xlink:title="compiler.ParseTable.getLHS">
<polygon fill="white" stroke="black" points="585.5,-953.5 585.5,-972.5 734.5,-972.5 734.5,-953.5 585.5,-953.5"/>
<text text-anchor="middle" x="660" y="-960.5" font-family="Helvetica,sans-Serif" font-size="10.00">compiler.ParseTable.getLHS</text>
</a>
</g>
</g>
<!-- Node5&#45;&gt;Node6 -->
<g id="edge5" class="edge"><title>Node5&#45;&gt;Node6</title>
<path fill="none" stroke="midnightblue" d="M460.26,-846.73C476.604,-867.885 518.586,-918.157 566,-943 571.472,-945.867 577.33,-948.323 583.346,-950.428"/>
<polygon fill="midnightblue" stroke="midnightblue" points="582.304,-953.769 592.894,-953.453 584.418,-947.096 582.304,-953.769"/>
</g>
<!-- Node7 -->
<g id="node7" class="node"><title>Node7</title>
<g id="a_node7"><a xlink:href="../../dd/db3/classcompiler_1_1_parse_table.html#ac4940ea308ddda4d90965b17c578da4a" target="_top" xlink:title="compiler.ParseTable.getNext\lState">
<polygon fill="white" stroke="black" points="584,-904 584,-934 736,-934 736,-904 584,-904"/>
<text text-anchor="start" x="592" y="-922" font-family="Helvetica,sans-Serif" font-size="10.00">compiler.ParseTable.getNext</text>
<text text-anchor="middle" x="660" y="-911" font-family="Helvetica,sans-Serif" font-size="10.00">State</text>
</a>
</g>
</g>
<!-- Node5&#45;&gt;Node7 -->
<g id="edge6" class="edge"><title>Node5&#45;&gt;Node7</title>
<path fill="none" stroke="midnightblue" d="M469.361,-846.599C490.917,-858.927 530.285,-880.357 566,-894 572.401,-896.445 579.136,-898.748 585.934,-900.892"/>
<polygon fill="midnightblue" stroke="midnightblue" points="585.323,-904.364 595.908,-903.917 587.354,-897.665 585.323,-904.364"/>
</g>
<!-- Node8 -->
<g id="node8" class="node"><title>Node8</title>
<g id="a_node8"><a xlink:href="../../dd/db3/classcompiler_1_1_parse_table.html#a1ed63064154778c1dbb59a50178ab98b" target="_top" xlink:title="compiler.ParseTable.getOperation">
<polygon fill="white" stroke="black" points="572,-865.5 572,-884.5 748,-884.5 748,-865.5 572,-865.5"/>
<text text-anchor="middle" x="660" y="-872.5" font-family="Helvetica,sans-Serif" font-size="10.00">compiler.ParseTable.getOperation</text>
</a>
</g>
</g>
<!-- Node5&#45;&gt;Node8 -->
<g id="edge7" class="edge"><title>Node5&#45;&gt;Node8</title>
<path fill="none" stroke="midnightblue" d="M504.717,-846.54C532.756,-851.712 567.602,-858.14 597.079,-863.578"/>
<polygon fill="midnightblue" stroke="midnightblue" points="596.793,-867.084 607.262,-865.456 598.063,-860.2 596.793,-867.084"/>
</g>
<!-- Node9 -->
<g id="node9" class="node"><title>Node9</title>
<g id="a_node9"><a xlink:href="../../dd/db3/classcompiler_1_1_parse_table.html#a6f640afe05fef1c7b36a858e3d831a18" target="_top" xlink:title="compiler.ParseTable.getRHS">
<polygon fill="white" stroke="black" points="585.5,-827.5 585.5,-846.5 734.5,-846.5 734.5,-827.5 585.5,-827.5"/>
<text text-anchor="middle" x="660" y="-834.5" font-family="Helvetica,sans-Serif" font-size="10.00">compiler.ParseTable.getRHS</text>
</a>
</g>
</g>
<!-- Node5&#45;&gt;Node9 -->
<g id="edge8" class="edge"><title>Node5&#45;&gt;Node9</title>
<path fill="none" stroke="midnightblue" d="M523.605,-837C540.254,-837 558.16,-837 575.324,-837"/>
<polygon fill="midnightblue" stroke="midnightblue" points="575.329,-840.5 585.329,-837 575.329,-833.5 575.329,-840.5"/>
</g>
<!-- Node10 -->
<g id="node10" class="node"><title>Node10</title>
<g id="a_node10"><a xlink:href="../../db/d93/classcompiler_1_1_compiler.html#aedc19549c4ed689c6d984394716f563c" target="_top" xlink:title="compiler.Compiler.initGrammar">
<polygon fill="white" stroke="black" points="577,-789.5 577,-808.5 743,-808.5 743,-789.5 577,-789.5"/>
<text text-anchor="middle" x="660" y="-796.5" font-family="Helvetica,sans-Serif" font-size="10.00">compiler.Compiler.initGrammar</text>
</a>
</g>
</g>
<!-- Node5&#45;&gt;Node10 -->
<g id="edge9" class="edge"><title>Node5&#45;&gt;Node10</title>
<path fill="none" stroke="midnightblue" d="M504.717,-827.46C532.756,-822.288 567.602,-815.86 597.079,-810.422"/>
<polygon fill="midnightblue" stroke="midnightblue" points="598.063,-813.8 607.262,-808.544 596.793,-806.916 598.063,-813.8"/>
</g>
<!-- Node11 -->
<g id="node11" class="node"><title>Node11</title>
<g id="a_node11"><a xlink:href="../../dd/db3/classcompiler_1_1_parse_table.html#a077f2722d8fa84bc8903407ee482697a" target="_top" xlink:title="compiler.ParseTable.initialize\lTable">
<polygon fill="white" stroke="black" points="584,-740 584,-770 736,-770 736,-740 584,-740"/>
<text text-anchor="start" x="592" y="-758" font-family="Helvetica,sans-Serif" font-size="10.00">compiler.ParseTable.initialize</text>
<text text-anchor="middle" x="660" y="-747" font-family="Helvetica,sans-Serif" font-size="10.00">Table</text>
</a>
</g>
</g>
<!-- Node5&#45;&gt;Node11 -->
<g id="edge10" class="edge"><title>Node5&#45;&gt;Node11</title>
<path fill="none" stroke="midnightblue" d="M469.361,-827.401C490.917,-815.073 530.285,-793.643 566,-780 572.401,-777.555 579.136,-775.252 585.934,-773.108"/>
<polygon fill="midnightblue" stroke="midnightblue" points="587.354,-776.335 595.908,-770.083 585.323,-769.636 587.354,-776.335"/>
</g>
<!-- Node14 -->
<g id="node14" class="node"><title>Node14</title>
<g id="a_node14"><a xlink:href="../../db/d93/classcompiler_1_1_compiler.html#ae6504512c09bb3ab9064f3b12f0a51ff" target="_top" xlink:title="compiler.Compiler.symbol\lTableGeneration">
<polygon fill="white" stroke="black" points="590,-691 590,-721 730,-721 730,-691 590,-691"/>
<text text-anchor="start" x="598" y="-709" font-family="Helvetica,sans-Serif" font-size="10.00">compiler.Compiler.symbol</text>
<text text-anchor="middle" x="660" y="-698" font-family="Helvetica,sans-Serif" font-size="10.00">TableGeneration</text>
</a>
</g>
</g>
<!-- Node13&#45;&gt;Node14 -->
<g id="edge13" class="edge"><title>Node13&#45;&gt;Node14</title>
<path fill="none" stroke="midnightblue" d="M523.605,-691.54C541.687,-693.471 561.252,-695.561 579.738,-697.535"/>
<polygon fill="midnightblue" stroke="midnightblue" points="579.566,-701.037 589.881,-698.618 580.309,-694.076 579.566,-701.037"/>
</g>
<!-- Node18 -->
<g id="node18" class="node"><title>Node18</title>
<g id="a_node18"><a xlink:href="../../de/d03/classcompiler_1_1_token_finder.html#a8f4fdc09f838a5cee92938ae555a93dc" target="_top" xlink:title="compiler.TokenFinder.tokenize">
<polygon fill="white" stroke="black" points="581,-652.5 581,-671.5 739,-671.5 739,-652.5 581,-652.5"/>
<text text-anchor="middle" x="660" y="-659.5" font-family="Helvetica,sans-Serif" font-size="10.00">compiler.TokenFinder.tokenize</text>
</a>
</g>
</g>
<!-- Node13&#45;&gt;Node18 -->
<g id="edge17" class="edge"><title>Node13&#45;&gt;Node18</title>
<path fill="none" stroke="midnightblue" d="M523.605,-676.46C538.701,-674.847 554.83,-673.125 570.502,-671.451"/>
<polygon fill="midnightblue" stroke="midnightblue" points="571.148,-674.902 580.72,-670.36 570.405,-667.942 571.148,-674.902"/>
</g>
<!-- Node20 -->
<g id="node20" class="node"><title>Node20</title>
<g id="a_node20"><a xlink:href="../../db/d93/classcompiler_1_1_compiler.html#a490860dbdd9c5c56fe3c578a8bd55c5a" target="_top" xlink:title="compiler.Compiler.translate\lToEnglish">
<polygon fill="white" stroke="black" points="586,-603 586,-633 734,-633 734,-603 586,-603"/>
<text text-anchor="start" x="594" y="-621" font-family="Helvetica,sans-Serif" font-size="10.00">compiler.Compiler.translate</text>
<text text-anchor="middle" x="660" y="-610" font-family="Helvetica,sans-Serif" font-size="10.00">ToEnglish</text>
</a>
</g>
</g>
<!-- Node13&#45;&gt;Node20 -->
<g id="edge19" class="edge"><title>Node13&#45;&gt;Node20</title>
<path fill="none" stroke="midnightblue" d="M477.482,-674.431C500.231,-665.703 535.149,-652.724 566,-643 573.709,-640.57 581.823,-638.167 589.914,-635.866"/>
<polygon fill="midnightblue" stroke="midnightblue" points="591.056,-639.181 599.743,-633.116 589.169,-632.44 591.056,-639.181"/>
</g>
<!-- Node15 -->
<g id="node15" class="node"><title>Node15</title>
<g id="a_node15"><a xlink:href="../../dd/d18/classcompiler_1_1_symbol_table_entry.html#a12657cfb875265be8e008315d81f65bf" target="_top" xlink:title="compiler.SymbolTableEntry.setName">
<polygon fill="white" stroke="black" points="790.5,-756.5 790.5,-775.5 981.5,-775.5 981.5,-756.5 790.5,-756.5"/>
<text text-anchor="middle" x="886" y="-763.5" font-family="Helvetica,sans-Serif" font-size="10.00">compiler.SymbolTableEntry.setName</text>
</a>
</g>
</g>
<!-- Node14&#45;&gt;Node15 -->
<g id="edge14" class="edge"><title>Node14&#45;&gt;Node15</title>
<path fill="none" stroke="midnightblue" d="M722.448,-721.065C733.058,-724.079 743.914,-727.427 754,-731 770.504,-736.846 773.314,-741.695 790,-747 798.593,-749.732 807.753,-752.153 816.866,-754.273"/>
<polygon fill="midnightblue" stroke="midnightblue" points="816.186,-757.707 826.707,-756.457 817.703,-750.874 816.186,-757.707"/>
</g>
<!-- Node16 -->
<g id="node16" class="node"><title>Node16</title>
<g id="a_node16"><a xlink:href="../../dd/d18/classcompiler_1_1_symbol_table_entry.html#a77ced9095e334cd236a57ba558a03e73" target="_top" xlink:title="compiler.SymbolTableEntry.setType">
<polygon fill="white" stroke="black" points="795,-718.5 795,-737.5 977,-737.5 977,-718.5 795,-718.5"/>
<text text-anchor="middle" x="886" y="-725.5" font-family="Helvetica,sans-Serif" font-size="10.00">compiler.SymbolTableEntry.setType</text>
</a>
</g>
</g>
<!-- Node14&#45;&gt;Node16 -->
<g id="edge15" class="edge"><title>Node14&#45;&gt;Node16</title>
<path fill="none" stroke="midnightblue" d="M730.035,-712.78C747.281,-714.474 766.128,-716.325 784.554,-718.135"/>
<polygon fill="midnightblue" stroke="midnightblue" points="784.44,-721.64 794.734,-719.135 785.124,-714.674 784.44,-721.64"/>
</g>
<!-- Node17 -->
<g id="node17" class="node"><title>Node17</title>
<g id="a_node17"><a xlink:href="../../dd/d18/classcompiler_1_1_symbol_table_entry.html#a9c52435da30816b629f211c707ebbafe" target="_top" xlink:title="compiler.SymbolTableEntry.set\lValue">
<polygon fill="white" stroke="black" points="805.5,-669 805.5,-699 966.5,-699 966.5,-669 805.5,-669"/>
<text text-anchor="start" x="813.5" y="-687" font-family="Helvetica,sans-Serif" font-size="10.00">compiler.SymbolTableEntry.set</text>
<text text-anchor="middle" x="886" y="-676" font-family="Helvetica,sans-Serif" font-size="10.00">Value</text>
</a>
</g>
</g>
<!-- Node14&#45;&gt;Node17 -->
<g id="edge16" class="edge"><title>Node14&#45;&gt;Node17</title>
<path fill="none" stroke="midnightblue" d="M730.035,-699.22C750.565,-697.203 773.365,-694.964 795.022,-692.837"/>
<polygon fill="midnightblue" stroke="midnightblue" points="795.602,-696.297 805.212,-691.836 794.917,-689.331 795.602,-696.297"/>
</g>
<!-- Node19 -->
<g id="node19" class="node"><title>Node19</title>
<g id="a_node19"><a xlink:href="../../de/d03/classcompiler_1_1_token_finder.html#a17a5eca5ffc7312f5eb38cf1504f7b86" target="_top" xlink:title="compiler.TokenFinder.stringType">
<polygon fill="white" stroke="black" points="803,-630.5 803,-649.5 969,-649.5 969,-630.5 803,-630.5"/>
<text text-anchor="middle" x="886" y="-637.5" font-family="Helvetica,sans-Serif" font-size="10.00">compiler.TokenFinder.stringType</text>
</a>
</g>
</g>
<!-- Node18&#45;&gt;Node19 -->
<g id="edge18" class="edge"><title>Node18&#45;&gt;Node19</title>
<path fill="none" stroke="midnightblue" d="M739.03,-654.336C756.234,-652.647 774.619,-650.841 792.339,-649.101"/>
<polygon fill="midnightblue" stroke="midnightblue" points="793.071,-652.546 802.681,-648.085 792.387,-645.579 793.071,-652.546"/>
</g>
<!-- Node22 -->
<g id="node22" class="node"><title>Node22</title>
<g id="a_node22"><a xlink:href="../../de/d00/classcommands_1_1_command_list.html#a3fa6072b15e6e34c66f5d4e264460553" target="_top" xlink:title="commands.CommandList.clear\lScreen">
<polygon fill="white" stroke="black" points="576.5,-554 576.5,-584 743.5,-584 743.5,-554 576.5,-554"/>
<text text-anchor="start" x="584.5" y="-572" font-family="Helvetica,sans-Serif" font-size="10.00">commands.CommandList.clear</text>
<text text-anchor="middle" x="660" y="-561" font-family="Helvetica,sans-Serif" font-size="10.00">Screen</text>
</a>
</g>
</g>
<!-- Node21&#45;&gt;Node22 -->
<g id="edge21" class="edge"><title>Node21&#45;&gt;Node22</title>
<path fill="none" stroke="midnightblue" d="M454.498,-309.691C460.698,-346.399 487.795,-478.149 566,-544 568.014,-545.696 570.133,-547.278 572.335,-548.754"/>
<polygon fill="midnightblue" stroke="midnightblue" points="570.801,-551.911 581.201,-553.933 574.332,-545.867 570.801,-551.911"/>
</g>
<!-- Node24 -->
<g id="node24" class="node"><title>Node24</title>
<g id="a_node24"><a xlink:href="../../de/d00/classcommands_1_1_command_list.html#a5b320e3a2018fde1a425658bf6f76f71" target="_top" xlink:title="commands.CommandList.forward\lCommand">
<polygon fill="white" stroke="black" points="570.5,-505 570.5,-535 749.5,-535 749.5,-505 570.5,-505"/>
<text text-anchor="start" x="578.5" y="-523" font-family="Helvetica,sans-Serif" font-size="10.00">commands.CommandList.forward</text>
<text text-anchor="middle" x="660" y="-512" font-family="Helvetica,sans-Serif" font-size="10.00">Command</text>
</a>
</g>
</g>
<!-- Node21&#45;&gt;Node24 -->
<g id="edge23" class="edge"><title>Node21&#45;&gt;Node24</title>
<path fill="none" stroke="midnightblue" d="M455.761,-309.91C465.233,-342.019 499.55,-444.053 566,-495 568.363,-496.812 570.848,-498.493 573.426,-500.052"/>
<polygon fill="midnightblue" stroke="midnightblue" points="572.037,-503.278 582.508,-504.899 575.333,-497.103 572.037,-503.278"/>
</g>
<!-- Node25 -->
<g id="node25" class="node"><title>Node25</title>
<g id="a_node25"><a xlink:href="../../de/d00/classcommands_1_1_command_list.html#a10e5a16b6560987b4c7deefa4a12fbdb" target="_top" xlink:title="commands.CommandList.heading">
<polygon fill="white" stroke="black" points="569,-466.5 569,-485.5 751,-485.5 751,-466.5 569,-466.5"/>
<text text-anchor="middle" x="660" y="-473.5" font-family="Helvetica,sans-Serif" font-size="10.00">commands.CommandList.heading</text>
</a>
</g>
</g>
<!-- Node21&#45;&gt;Node25 -->
<g id="edge25" class="edge"><title>Node21&#45;&gt;Node25</title>
<path fill="none" stroke="midnightblue" d="M456.936,-309.585C468.821,-337.239 507.175,-417.638 566,-456 569.839,-458.503 573.938,-460.699 578.196,-462.624"/>
<polygon fill="midnightblue" stroke="midnightblue" points="577.148,-465.974 587.733,-466.421 579.737,-459.47 577.148,-465.974"/>
</g>
<!-- Node26 -->
<g id="node26" class="node"><title>Node26</title>
<g id="a_node26"><a xlink:href="../../de/d00/classcommands_1_1_command_list.html#a787a3850e0d0584213bfe7fdcd011985" target="_top" xlink:title="commands.CommandList.hide\lTurtle">
<polygon fill="white" stroke="black" points="578,-417 578,-447 742,-447 742,-417 578,-417"/>
<text text-anchor="start" x="586" y="-435" font-family="Helvetica,sans-Serif" font-size="10.00">commands.CommandList.hide</text>
<text text-anchor="middle" x="660" y="-424" font-family="Helvetica,sans-Serif" font-size="10.00">Turtle</text>
</a>
</g>
</g>
<!-- Node21&#45;&gt;Node26 -->
<g id="edge27" class="edge"><title>Node21&#45;&gt;Node26</title>
<path fill="none" stroke="midnightblue" d="M460.334,-309.645C476.827,-330.648 519.087,-380.736 566,-407 569.964,-409.219 574.134,-411.249 578.422,-413.104"/>
<polygon fill="midnightblue" stroke="midnightblue" points="577.377,-416.455 587.963,-416.894 579.961,-409.95 577.377,-416.455"/>
</g>
<!-- Node27 -->
<g id="node27" class="node"><title>Node27</title>
<g id="a_node27"><a xlink:href="../../de/d00/classcommands_1_1_command_list.html#a982e66bba41ac1d0773d4dcb92aab824" target="_top" xlink:title="commands.CommandList.penDown">
<polygon fill="white" stroke="black" points="566,-378.5 566,-397.5 754,-397.5 754,-378.5 566,-378.5"/>
<text text-anchor="middle" x="660" y="-385.5" font-family="Helvetica,sans-Serif" font-size="10.00">commands.CommandList.penDown</text>
</a>
</g>
</g>
<!-- Node21&#45;&gt;Node27 -->
<g id="edge29" class="edge"><title>Node21&#45;&gt;Node27</title>
<path fill="none" stroke="midnightblue" d="M465.821,-309.674C486.037,-324.46 527.039,-352.584 566,-368 573.726,-371.057 582.008,-373.685 590.328,-375.934"/>
<polygon fill="midnightblue" stroke="midnightblue" points="589.528,-379.342 600.082,-378.404 591.247,-372.557 589.528,-379.342"/>
</g>
<!-- Node28 -->
<g id="node28" class="node"><title>Node28</title>
<g id="a_node28"><a xlink:href="../../de/d00/classcommands_1_1_command_list.html#aef01a8e42196fc5ae6685ba9f3991e5e" target="_top" xlink:title="commands.CommandList.pen\lDownP">
<polygon fill="white" stroke="black" points="579.5,-329 579.5,-359 740.5,-359 740.5,-329 579.5,-329"/>
<text text-anchor="start" x="587.5" y="-347" font-family="Helvetica,sans-Serif" font-size="10.00">commands.CommandList.pen</text>
<text text-anchor="middle" x="660" y="-336" font-family="Helvetica,sans-Serif" font-size="10.00">DownP</text>
</a>
</g>
</g>
<!-- Node21&#45;&gt;Node28 -->
<g id="edge31" class="edge"><title>Node21&#45;&gt;Node28</title>
<path fill="none" stroke="midnightblue" d="M497.699,-309.547C521.306,-314.59 551.006,-320.933 578.467,-326.799"/>
<polygon fill="midnightblue" stroke="midnightblue" points="577.956,-330.269 588.467,-328.935 579.418,-323.423 577.956,-330.269"/>
</g>
<!-- Node29 -->
<g id="node29" class="node"><title>Node29</title>
<g id="a_node29"><a xlink:href="../../de/d00/classcommands_1_1_command_list.html#a62ca3466760389089ab8a1474d7649da" target="_top" xlink:title="commands.CommandList.penUp">
<polygon fill="white" stroke="black" points="572.5,-290.5 572.5,-309.5 747.5,-309.5 747.5,-290.5 572.5,-290.5"/>
<text text-anchor="middle" x="660" y="-297.5" font-family="Helvetica,sans-Serif" font-size="10.00">commands.CommandList.penUp</text>
</a>
</g>
</g>
<!-- Node21&#45;&gt;Node29 -->
<g id="edge33" class="edge"><title>Node21&#45;&gt;Node29</title>
<path fill="none" stroke="midnightblue" d="M512.031,-300C527.734,-300 545.116,-300 562.265,-300"/>
<polygon fill="midnightblue" stroke="midnightblue" points="562.321,-303.5 572.321,-300 562.321,-296.5 562.321,-303.5"/>
</g>
<!-- Node30 -->
<g id="node30" class="node"><title>Node30</title>
<g id="a_node30"><a xlink:href="../../de/d00/classcommands_1_1_command_list.html#adeb55ad1a5d59a59b3a19582f885d55a" target="_top" xlink:title="commands.CommandList.SetXY">
<polygon fill="white" stroke="black" points="574.5,-252.5 574.5,-271.5 745.5,-271.5 745.5,-252.5 574.5,-252.5"/>
<text text-anchor="middle" x="660" y="-259.5" font-family="Helvetica,sans-Serif" font-size="10.00">commands.CommandList.SetXY</text>
</a>
</g>
</g>
<!-- Node21&#45;&gt;Node30 -->
<g id="edge35" class="edge"><title>Node21&#45;&gt;Node30</title>
<path fill="none" stroke="midnightblue" d="M504.717,-290.46C532.756,-285.288 567.602,-278.86 597.079,-273.422"/>
<polygon fill="midnightblue" stroke="midnightblue" points="598.063,-276.8 607.262,-271.544 596.793,-269.916 598.063,-276.8"/>
</g>
<!-- Node31 -->
<g id="node31" class="node"><title>Node31</title>
<g id="a_node31"><a xlink:href="../../de/d00/classcommands_1_1_command_list.html#a56d90f6038375159ddd4381483313eba" target="_top" xlink:title="commands.CommandList.showingP">
<polygon fill="white" stroke="black" points="566,-214.5 566,-233.5 754,-233.5 754,-214.5 566,-214.5"/>
<text text-anchor="middle" x="660" y="-221.5" font-family="Helvetica,sans-Serif" font-size="10.00">commands.CommandList.showingP</text>
</a>
</g>
</g>
<!-- Node21&#45;&gt;Node31 -->
<g id="edge37" class="edge"><title>Node21&#45;&gt;Node31</title>
<path fill="none" stroke="midnightblue" d="M468.506,-290.498C489.758,-277.873 529.47,-255.691 566,-243 573.832,-240.279 582.178,-237.894 590.533,-235.817"/>
<polygon fill="midnightblue" stroke="midnightblue" points="591.38,-239.214 600.315,-233.52 589.779,-232.399 591.38,-239.214"/>
</g>
<!-- Node32 -->
<g id="node32" class="node"><title>Node32</title>
<g id="a_node32"><a xlink:href="../../de/d00/classcommands_1_1_command_list.html#a84ca20352feab138c22ab7ed8b32f0d1" target="_top" xlink:title="commands.CommandList.show\lTurtle">
<polygon fill="white" stroke="black" points="576.5,-165 576.5,-195 743.5,-195 743.5,-165 576.5,-165"/>
<text text-anchor="start" x="584.5" y="-183" font-family="Helvetica,sans-Serif" font-size="10.00">commands.CommandList.show</text>
<text text-anchor="middle" x="660" y="-172" font-family="Helvetica,sans-Serif" font-size="10.00">Turtle</text>
</a>
</g>
</g>
<!-- Node21&#45;&gt;Node32 -->
<g id="edge39" class="edge"><title>Node21&#45;&gt;Node32</title>
<path fill="none" stroke="midnightblue" d="M461.642,-290.326C479.319,-271.137 521.689,-228.116 566,-205 570.516,-202.644 575.275,-200.494 580.155,-198.536"/>
<polygon fill="midnightblue" stroke="midnightblue" points="581.503,-201.769 589.655,-195.001 579.062,-195.208 581.503,-201.769"/>
</g>
<!-- Node33 -->
<g id="node33" class="node"><title>Node33</title>
<g id="a_node33"><a xlink:href="../../de/d00/classcommands_1_1_command_list.html#af0d3ea536d38493b14ee45fe04848286" target="_top" xlink:title="commands.CommandList.towards">
<polygon fill="white" stroke="black" points="569.5,-126.5 569.5,-145.5 750.5,-145.5 750.5,-126.5 569.5,-126.5"/>
<text text-anchor="middle" x="660" y="-133.5" font-family="Helvetica,sans-Serif" font-size="10.00">commands.CommandList.towards</text>
</a>
</g>
</g>
<!-- Node21&#45;&gt;Node33 -->
<g id="edge41" class="edge"><title>Node21&#45;&gt;Node33</title>
<path fill="none" stroke="midnightblue" d="M457.478,-290.309C470.247,-263.844 509.586,-189.99 566,-155 569.37,-152.91 572.928,-151.045 576.609,-149.381"/>
<polygon fill="midnightblue" stroke="midnightblue" points="577.983,-152.601 585.975,-145.646 575.39,-146.099 577.983,-152.601"/>
</g>
<!-- Node34 -->
<g id="node34" class="node"><title>Node34</title>
<g id="a_node34"><a xlink:href="../../de/d00/classcommands_1_1_command_list.html#a19cc311e99a6fa5e95d0966c09bdc907" target="_top" xlink:title="commands.CommandList.turn\lCommand">
<polygon fill="white" stroke="black" points="578.5,-77 578.5,-107 741.5,-107 741.5,-77 578.5,-77"/>
<text text-anchor="start" x="586.5" y="-95" font-family="Helvetica,sans-Serif" font-size="10.00">commands.CommandList.turn</text>
<text text-anchor="middle" x="660" y="-84" font-family="Helvetica,sans-Serif" font-size="10.00">Command</text>
</a>
</g>
</g>
<!-- Node21&#45;&gt;Node34 -->
<g id="edge43" class="edge"><title>Node21&#45;&gt;Node34</title>
<path fill="none" stroke="midnightblue" d="M456.094,-290.266C466.344,-259.645 502.212,-164.504 566,-117 568.533,-115.114 571.199,-113.369 573.964,-111.757"/>
<polygon fill="midnightblue" stroke="midnightblue" points="575.813,-114.741 583.09,-107.041 572.599,-108.522 575.813,-114.741"/>
</g>
<!-- Node35 -->
<g id="node35" class="node"><title>Node35</title>
<g id="a_node35"><a xlink:href="../../de/d00/classcommands_1_1_command_list.html#a59070aee1fd5b3efa68c63fb3ab6ed6e" target="_top" xlink:title="commands.CommandList.xCor">
<polygon fill="white" stroke="black" points="577.5,-38.5 577.5,-57.5 742.5,-57.5 742.5,-38.5 577.5,-38.5"/>
<text text-anchor="middle" x="660" y="-45.5" font-family="Helvetica,sans-Serif" font-size="10.00">commands.CommandList.xCor</text>
</a>
</g>
</g>
<!-- Node21&#45;&gt;Node35 -->
<g id="edge45" class="edge"><title>Node21&#45;&gt;Node35</title>
<path fill="none" stroke="midnightblue" d="M454.614,-290.097C461.078,-253.81 488.598,-127.12 566,-67 568.318,-65.1994 570.764,-63.5573 573.309,-62.0606"/>
<polygon fill="midnightblue" stroke="midnightblue" points="574.956,-65.1498 582.298,-57.5117 571.795,-58.9039 574.956,-65.1498"/>
</g>
<!-- Node36 -->
<g id="node36" class="node"><title>Node36</title>
<g id="a_node36"><a xlink:href="../../de/d00/classcommands_1_1_command_list.html#a4d30a46927f84016abe3bc1051baf62c" target="_top" xlink:title="commands.CommandList.yCor">
<polygon fill="white" stroke="black" points="577.5,-0.5 577.5,-19.5 742.5,-19.5 742.5,-0.5 577.5,-0.5"/>
<text text-anchor="middle" x="660" y="-7.5" font-family="Helvetica,sans-Serif" font-size="10.00">commands.CommandList.yCor</text>
</a>
</g>
</g>
<!-- Node21&#45;&gt;Node36 -->
<g id="edge47" class="edge"><title>Node21&#45;&gt;Node36</title>
<path fill="none" stroke="midnightblue" d="M453.854,-290.471C457.907,-251.218 478.821,-100.752 566,-29 568.004,-27.3506 570.113,-25.8322 572.308,-24.435"/>
<polygon fill="midnightblue" stroke="midnightblue" points="574.037,-27.4788 581.149,-19.6256 570.692,-21.3297 574.037,-27.4788"/>
</g>
<!-- Node23 -->
<g id="node23" class="node"><title>Node23</title>
<g id="a_node23"><a xlink:href="../../de/d1c/namespacesimulation_objects.html#a02779129356465b8d266330b211f83f1" target="_top" xlink:title="simulationObjects.Turtle">
<polygon fill="white" stroke="black" points="820.5,-271.5 820.5,-290.5 951.5,-290.5 951.5,-271.5 820.5,-271.5"/>
<text text-anchor="middle" x="886" y="-278.5" font-family="Helvetica,sans-Serif" font-size="10.00">simulationObjects.Turtle</text>
</a>
</g>
</g>
<!-- Node22&#45;&gt;Node23 -->
<g id="edge22" class="edge"><title>Node22&#45;&gt;Node23</title>
<path fill="none" stroke="midnightblue" d="M738.678,-553.788C744.154,-551.044 749.341,-547.811 754,-544 834.768,-477.929 870.103,-349.516 881.042,-300.582"/>
<polygon fill="midnightblue" stroke="midnightblue" points="884.495,-301.172 883.164,-290.661 877.65,-299.708 884.495,-301.172"/>
</g>
<!-- Node24&#45;&gt;Node23 -->
<g id="edge24" class="edge"><title>Node24&#45;&gt;Node23</title>
<path fill="none" stroke="midnightblue" d="M736.926,-504.981C742.989,-502.2 748.778,-498.905 754,-495 823.321,-443.166 863.953,-342.871 878.668,-300.572"/>
<polygon fill="midnightblue" stroke="midnightblue" points="882.046,-301.508 881.924,-290.914 875.413,-299.272 882.046,-301.508"/>
</g>
<!-- Node25&#45;&gt;Node23 -->
<g id="edge26" class="edge"><title>Node25&#45;&gt;Node23</title>
<path fill="none" stroke="midnightblue" d="M731.72,-466.483C739.575,-463.795 747.187,-460.367 754,-456 815.65,-416.482 858.787,-337.118 876.295,-300.424"/>
<polygon fill="midnightblue" stroke="midnightblue" points="879.687,-301.428 880.724,-290.884 873.338,-298.481 879.687,-301.428"/>
</g>
<!-- Node26&#45;&gt;Node23 -->
<g id="edge28" class="edge"><title>Node26&#45;&gt;Node23</title>
<path fill="none" stroke="midnightblue" d="M732.067,-416.948C739.694,-414.154 747.158,-410.865 754,-407 804.573,-378.427 850.149,-325.798 871.766,-298.482"/>
<polygon fill="midnightblue" stroke="midnightblue" points="874.545,-300.608 877.918,-290.565 869.018,-296.313 874.545,-300.608"/>
</g>
<!-- Node27&#45;&gt;Node23 -->
<g id="edge30" class="edge"><title>Node27&#45;&gt;Node23</title>
<path fill="none" stroke="midnightblue" d="M721.552,-378.422C732.575,-375.718 743.804,-372.299 754,-368 797.207,-349.782 841.403,-316.85 865.813,-297.147"/>
<polygon fill="midnightblue" stroke="midnightblue" points="868.072,-299.821 873.588,-290.775 863.635,-294.406 868.072,-299.821"/>
</g>
<!-- Node28&#45;&gt;Node23 -->
<g id="edge32" class="edge"><title>Node28&#45;&gt;Node23</title>
<path fill="none" stroke="midnightblue" d="M717.606,-328.974C729.632,-325.729 742.245,-322.284 754,-319 783.799,-310.674 817.304,-300.948 842.97,-293.42"/>
<polygon fill="midnightblue" stroke="midnightblue" points="844.141,-296.724 852.749,-290.547 842.168,-290.008 844.141,-296.724"/>
</g>
<!-- Node29&#45;&gt;Node23 -->
<g id="edge34" class="edge"><title>Node29&#45;&gt;Node23</title>
<path fill="none" stroke="midnightblue" d="M747.604,-292.654C768.247,-290.903 790.104,-289.049 810.167,-287.347"/>
<polygon fill="midnightblue" stroke="midnightblue" points="810.499,-290.832 820.168,-286.499 809.908,-283.857 810.499,-290.832"/>
</g>
<!-- Node30&#45;&gt;Node23 -->
<g id="edge36" class="edge"><title>Node30&#45;&gt;Node23</title>
<path fill="none" stroke="midnightblue" d="M745.685,-269.183C766.979,-270.989 789.676,-272.914 810.434,-274.675"/>
<polygon fill="midnightblue" stroke="midnightblue" points="810.194,-278.167 820.454,-275.525 810.786,-271.192 810.194,-278.167"/>
</g>
<!-- Node31&#45;&gt;Node23 -->
<g id="edge38" class="edge"><title>Node31&#45;&gt;Node23</title>
<path fill="none" stroke="midnightblue" d="M711.362,-233.516C725.23,-236.346 740.24,-239.605 754,-243 784.75,-250.588 819.125,-260.619 844.946,-268.47"/>
<polygon fill="midnightblue" stroke="midnightblue" points="844.161,-271.89 854.747,-271.47 846.21,-265.196 844.161,-271.89"/>
</g>
<!-- Node32&#45;&gt;Node23 -->
<g id="edge40" class="edge"><title>Node32&#45;&gt;Node23</title>
<path fill="none" stroke="midnightblue" d="M725.774,-195.049C735.376,-197.956 745.047,-201.276 754,-205 794.217,-221.727 837.239,-248.63 862.596,-265.535"/>
<polygon fill="midnightblue" stroke="midnightblue" points="860.854,-268.581 871.101,-271.273 864.769,-262.779 860.854,-268.581"/>
</g>
<!-- Node33&#45;&gt;Node23 -->
<g id="edge42" class="edge"><title>Node33&#45;&gt;Node23</title>
<path fill="none" stroke="midnightblue" d="M730.085,-145.519C738.393,-147.986 746.56,-151.091 754,-155 805.422,-182.016 850.626,-235.327 871.967,-263.15"/>
<polygon fill="midnightblue" stroke="midnightblue" points="869.228,-265.331 878.035,-271.222 874.823,-261.125 869.228,-265.331"/>
</g>
<!-- Node34&#45;&gt;Node23 -->
<g id="edge44" class="edge"><title>Node34&#45;&gt;Node23</title>
<path fill="none" stroke="midnightblue" d="M734.996,-107.138C741.675,-109.896 748.125,-113.154 754,-117 812.548,-155.334 856.975,-228.446 875.519,-262.584"/>
<polygon fill="midnightblue" stroke="midnightblue" points="872.463,-264.291 880.243,-271.483 878.646,-261.01 872.463,-264.291"/>
</g>
<!-- Node35&#45;&gt;Node23 -->
<g id="edge46" class="edge"><title>Node35&#45;&gt;Node23</title>
<path fill="none" stroke="midnightblue" d="M736.371,-57.671C742.622,-60.1501 748.603,-63.2157 754,-67 825.2,-116.923 865.015,-219.112 879.098,-261.699"/>
<polygon fill="midnightblue" stroke="midnightblue" points="875.817,-262.931 882.194,-271.392 882.485,-260.801 875.817,-262.931"/>
</g>
<!-- Node36&#45;&gt;Node23 -->
<g id="edge48" class="edge"><title>Node36&#45;&gt;Node23</title>
<path fill="none" stroke="midnightblue" d="M737.587,-19.6622C743.438,-22.157 749.001,-25.2279 754,-29 834.163,-89.4941 869.691,-213.239 880.865,-261.3"/>
<polygon fill="midnightblue" stroke="midnightblue" points="877.508,-262.325 883.094,-271.328 884.341,-260.807 877.508,-262.325"/>
</g>
</g>
</svg>
        <g id="navigator" transform="translate(0 0)" fill="#404254">
                <rect fill="#f2f5e9" fill-opacity="0.5" stroke="#606060" stroke-width=".5" x="0" y="0" width="60" height="60"/>
                <use id="zoomplus" xlink:href="#zoomPlus" x="17" y="9" onmousedown="handleZoom(evt,'in')"/>
                <use id="zoomminus" xlink:href="#zoomMin" x="42" y="9" onmousedown="handleZoom(evt,'out')"/>
                <use id="reset" xlink:href="#resetDef" x="30" y="36" onmousedown="handleReset()"/>
                <g id="arrowUp" xlink:href="#dirArrow" transform="translate(30 24)" onmousedown="handlePan(0,-1)">
                  <use xlink:href="#rim" fill="#404040">
                        <set attributeName="fill" to="#808080" begin="arrowUp.mouseover" end="arrowUp.mouseout"/>
                  </use>
                  <path fill="none" stroke="white" stroke-width="1.5" d="M0,-3.0v7 M-2.5,-0.5L0,-3.0L2.5,-0.5"/>
                </g>
                <g id="arrowRight" xlink:href="#dirArrow" transform="rotate(90) translate(36 -43)" onmousedown="handlePan(1,0)">
                  <use xlink:href="#rim" fill="#404040">
                        <set attributeName="fill" to="#808080" begin="arrowRight.mouseover" end="arrowRight.mouseout"/>
                  </use>
                  <path fill="none" stroke="white" stroke-width="1.5" d="M0,-3.0v7 M-2.5,-0.5L0,-3.0L2.5,-0.5"/>
                </g>
                <g id="arrowDown" xlink:href="#dirArrow" transform="rotate(180) translate(-30 -48)" onmousedown="handlePan(0,1)">
                  <use xlink:href="#rim" fill="#404040">
                        <set attributeName="fill" to="#808080" begin="arrowDown.mouseover" end="arrowDown.mouseout"/>
                  </use>
                  <path fill="none" stroke="white" stroke-width="1.5" d="M0,-3.0v7 M-2.5,-0.5L0,-3.0L2.5,-0.5"/>
                </g>
                <g id="arrowLeft" xlink:href="#dirArrow" transform="rotate(270) translate(-36 17)" onmousedown="handlePan(-1,0)">
                  <use xlink:href="#rim" fill="#404040">
                        <set attributeName="fill" to="#808080" begin="arrowLeft.mouseover" end="arrowLeft.mouseout"/>
                  </use>
                  <path fill="none" stroke="white" stroke-width="1.5" d="M0,-3.0v7 M-2.5,-0.5L0,-3.0L2.5,-0.5"/>
                </g>
        </g>
        <svg viewBox="0 0 15 15" width="100%" height="30px" preserveAspectRatio="xMaxYMin meet">
         <g id="arrow_out" transform="scale(0.3 0.3)">
          <a xlink:href="classcontroller_1_1_main_controller_a6badeb343877f4b50f069b47afed495c_cgraph_org.svg" target="_base">
           <rect id="button" ry="5" rx="5" y="6" x="6" height="38" width="38"
                fill="#f2f5e9" fill-opacity="0.5" stroke="#606060" stroke-width="1.0"/>
           <path id="arrow"
             d="M 11.500037,31.436501 C 11.940474,20.09759 22.043105,11.32322 32.158766,21.979434 L 37.068811,17.246167 C 37.068811,17.246167 37.088388,32 37.088388,32 L 22.160133,31.978069 C 22.160133,31.978069 26.997745,27.140456 26.997745,27.140456 C 18.528582,18.264221 13.291696,25.230495 11.500037,31.436501 z"
             style="fill:#404040;"/>
          </a>
         </g>
        </svg>
</svg>
