<?xml version="1.0" encoding="UTF-8" standalone="no"?>
<!DOCTYPE svg PUBLIC "-//W3C//DTD SVG 1.1//EN"
 "http://www.w3.org/Graphics/SVG/1.1/DTD/svg11.dtd">
<!-- Generated by graphviz version 2.36.0 (20140111.2315)
 -->
<!-- Title: controller.MainController.getTurtle Pages: 1 -->
<svg width="1270pt" height="189pt"
 viewBox="0.00 0.00 1270.00 189.00" xmlns="http://www.w3.org/2000/svg" xmlns:xlink="http://www.w3.org/1999/xlink">
<g id="graph0" class="graph" transform="scale(1 1) rotate(0) translate(4 185)">
<title>controller.MainController.getTurtle</title>
<polygon fill="white" stroke="none" points="-4,4 -4,-185 1266,-185 1266,4 -4,4"/>
<!-- Node1 -->
<g id="node1" class="node"><title>Node1</title>
<polygon fill="#bfbfbf" stroke="black" points="0.5,-71 0.5,-101 151.5,-101 151.5,-71 0.5,-71"/>
<text text-anchor="start" x="8.5" y="-89" font-family="Helvetica,sans-Serif" font-size="10.00">controller.MainController.get</text>
<text text-anchor="middle" x="76" y="-78" font-family="Helvetica,sans-Serif" font-size="10.00">Turtle</text>
</g>
<!-- Node2 -->
<g id="node2" class="node"><title>Node2</title>
<g id="a_node2"><a xlink:href="../../dd/dea/classgui_1_1_g_u_i_scene.html#aec9d26a4fa0613c7c5834bad2392eea1" target="_top" xlink:title="gui.GUIScene.addGrid">
<polygon fill="white" stroke="black" points="602,-38.5 602,-57.5 724,-57.5 724,-38.5 602,-38.5"/>
<text text-anchor="middle" x="663" y="-45.5" font-family="Helvetica,sans-Serif" font-size="10.00">gui.GUIScene.addGrid</text>
</a>
</g>
</g>
<!-- Node1&#45;&gt;Node2 -->
<g id="edge1" class="edge"><title>Node1&#45;&gt;Node2</title>
<path fill="none" stroke="midnightblue" d="M161.715,-70.3385C170.569,-69.0494 179.453,-67.899 188,-67 336.25,-51.407 511.814,-48.3655 601.96,-47.9217"/>
<polygon fill="midnightblue" stroke="midnightblue" points="161.114,-66.8894 151.751,-71.8467 162.162,-73.8105 161.114,-66.8894"/>
</g>
<!-- Node4 -->
<g id="node4" class="node"><title>Node4</title>
<g id="a_node4"><a xlink:href="../../dd/dea/classgui_1_1_g_u_i_scene.html#a74967ac937baee81b9eec1b2bc38167c" target="_top" xlink:title="gui.GUIScene.createScene">
<polygon fill="white" stroke="black" points="938.5,-142.5 938.5,-161.5 1083.5,-161.5 1083.5,-142.5 938.5,-142.5"/>
<text text-anchor="middle" x="1011" y="-149.5" font-family="Helvetica,sans-Serif" font-size="10.00">gui.GUIScene.createScene</text>
</a>
</g>
</g>
<!-- Node1&#45;&gt;Node4 -->
<g id="edge8" class="edge"><title>Node1&#45;&gt;Node4</title>
<path fill="none" stroke="midnightblue" d="M128.693,-104.236C147.219,-110.253 168.375,-116.541 188,-121 314.077,-149.648 346.709,-162 476,-162 476,-162 476,-162 664,-162 758.949,-162 868.494,-158.191 938.45,-155.274"/>
<polygon fill="midnightblue" stroke="midnightblue" points="129.577,-100.842 118.984,-101.029 127.382,-107.489 129.577,-100.842"/>
</g>
<!-- Node8 -->
<g id="node8" class="node"><title>Node8</title>
<g id="a_node8"><a xlink:href="../../dd/dea/classgui_1_1_g_u_i_scene.html#a2476ac9be7551f4637e28aa12d3800e4" target="_top" xlink:title="gui.GUIScene.draw">
<polygon fill="white" stroke="black" points="221.5,-76.5 221.5,-95.5 328.5,-95.5 328.5,-76.5 221.5,-76.5"/>
<text text-anchor="middle" x="275" y="-83.5" font-family="Helvetica,sans-Serif" font-size="10.00">gui.GUIScene.draw</text>
</a>
</g>
</g>
<!-- Node1&#45;&gt;Node8 -->
<g id="edge9" class="edge"><title>Node1&#45;&gt;Node8</title>
<path fill="none" stroke="midnightblue" d="M161.911,-86C182.107,-86 203.079,-86 221.345,-86"/>
<polygon fill="midnightblue" stroke="midnightblue" points="161.758,-82.5001 151.758,-86 161.758,-89.5001 161.758,-82.5001"/>
</g>
<!-- Node9 -->
<g id="node9" class="node"><title>Node9</title>
<g id="a_node9"><a xlink:href="../../dd/dea/classgui_1_1_g_u_i_scene.html#a21fe0ea8ff67b7c2da45e6ad786eab56" target="_top" xlink:title="gui.GUIScene.update">
<polygon fill="white" stroke="black" points="418,-76.5 418,-95.5 536,-95.5 536,-76.5 418,-76.5"/>
<text text-anchor="middle" x="477" y="-83.5" font-family="Helvetica,sans-Serif" font-size="10.00">gui.GUIScene.update</text>
</a>
</g>
</g>
<!-- Node1&#45;&gt;Node9 -->
<g id="edge17" class="edge"><title>Node1&#45;&gt;Node9</title>
<path fill="none" stroke="midnightblue" d="M161.681,-102.014C170.542,-103.234 179.437,-104.272 188,-105 265.056,-111.547 284.93,-111.378 362,-105 384.396,-103.146 409.016,-99.2781 429.627,-95.5126"/>
<polygon fill="midnightblue" stroke="midnightblue" points="162.111,-98.54 151.711,-100.566 161.104,-105.467 162.111,-98.54"/>
</g>
<!-- Node11 -->
<g id="node11" class="node"><title>Node11</title>
<g id="a_node11"><a xlink:href="../../d6/d6a/class_j_unit_test_1_1_backend_a_p_i_test.html#ad203b8b21fc5e5a28bd19bf5219ff7d6" target="_top" xlink:title="JUnitTest.BackendAPITest.testPos">
<polygon fill="white" stroke="black" points="188,-0.5 188,-19.5 362,-19.5 362,-0.5 188,-0.5"/>
<text text-anchor="middle" x="275" y="-7.5" font-family="Helvetica,sans-Serif" font-size="10.00">JUnitTest.BackendAPITest.testPos</text>
</a>
</g>
</g>
<!-- Node1&#45;&gt;Node11 -->
<g id="edge15" class="edge"><title>Node1&#45;&gt;Node11</title>
<path fill="none" stroke="midnightblue" d="M114.636,-66.4621C135.821,-55.9522 162.972,-43.2817 188,-34 202.97,-28.4485 219.815,-23.479 234.604,-19.522"/>
<polygon fill="midnightblue" stroke="midnightblue" points="113.02,-63.3571 105.649,-70.968 116.158,-69.6146 113.02,-63.3571"/>
</g>
<!-- Node3 -->
<g id="node3" class="node"><title>Node3</title>
<g id="a_node3"><a xlink:href="../../dd/dea/classgui_1_1_g_u_i_scene.html#a7cb2b00ed820aecde169a5e14cf0d468" target="_top" xlink:title="gui.GUIScene.createGUI">
<polygon fill="white" stroke="black" points="770,-85.5 770,-104.5 902,-104.5 902,-85.5 770,-85.5"/>
<text text-anchor="middle" x="836" y="-92.5" font-family="Helvetica,sans-Serif" font-size="10.00">gui.GUIScene.createGUI</text>
</a>
</g>
</g>
<!-- Node2&#45;&gt;Node3 -->
<g id="edge2" class="edge"><title>Node2&#45;&gt;Node3</title>
<path fill="none" stroke="midnightblue" d="M708.357,-60.1916C736.964,-68.0545 773.641,-78.1351 800.154,-85.4224"/>
<polygon fill="midnightblue" stroke="midnightblue" points="709.174,-56.7866 698.604,-57.5112 707.319,-63.5363 709.174,-56.7866"/>
</g>
<!-- Node3&#45;&gt;Node4 -->
<g id="edge3" class="edge"><title>Node3&#45;&gt;Node4</title>
<path fill="none" stroke="midnightblue" d="M875.824,-107.792C907.686,-118.29 952.099,-132.923 980.949,-142.428"/>
<polygon fill="midnightblue" stroke="midnightblue" points="876.549,-104.346 865.956,-104.541 874.359,-110.994 876.549,-104.346"/>
</g>
<!-- Node7 -->
<g id="node7" class="node"><title>Node7</title>
<g id="a_node7"><a xlink:href="../../dd/dea/classgui_1_1_g_u_i_scene.html#a16324ddc026310495f84e77bbb311b2c" target="_top" xlink:title="gui.GUIScene.addButtons">
<polygon fill="white" stroke="black" points="941,-85.5 941,-104.5 1081,-104.5 1081,-85.5 941,-85.5"/>
<text text-anchor="middle" x="1011" y="-92.5" font-family="Helvetica,sans-Serif" font-size="10.00">gui.GUIScene.addButtons</text>
</a>
</g>
</g>
<!-- Node3&#45;&gt;Node7 -->
<g id="edge6" class="edge"><title>Node3&#45;&gt;Node7</title>
<path fill="none" stroke="midnightblue" d="M912.504,-88.2987C921.896,-88.2151 931.463,-88.2391 940.754,-88.3708"/>
<polygon fill="midnightblue" stroke="midnightblue" points="912.357,-84.8002 902.404,-88.4317 912.449,-91.7996 912.357,-84.8002"/>
</g>
<!-- Node5 -->
<g id="node5" class="node"><title>Node5</title>
<g id="a_node5"><a xlink:href="../../d6/d0e/classcontroller_1_1_s_logo_main.html#ab5379c32fef791f21ad51abde7d268c0" target="_top" xlink:title="controller.SLogoMain.start">
<polygon fill="white" stroke="black" points="1120,-161.5 1120,-180.5 1262,-180.5 1262,-161.5 1120,-161.5"/>
<text text-anchor="middle" x="1191" y="-168.5" font-family="Helvetica,sans-Serif" font-size="10.00">controller.SLogoMain.start</text>
</a>
</g>
</g>
<!-- Node4&#45;&gt;Node5 -->
<g id="edge4" class="edge"><title>Node4&#45;&gt;Node5</title>
<path fill="none" stroke="midnightblue" d="M1093.82,-160.734C1102.56,-161.666 1111.38,-162.608 1119.96,-163.524"/>
<polygon fill="midnightblue" stroke="midnightblue" points="1093.95,-157.227 1083.63,-159.646 1093.2,-164.188 1093.95,-157.227"/>
</g>
<!-- Node6 -->
<g id="node6" class="node"><title>Node6</title>
<g id="a_node6"><a xlink:href="../../dd/d48/classgui_1_1_g_u_i_start.html#a82d08814fef5331d82c4763a2426ffce" target="_top" xlink:title="gui.GUIStart.start">
<polygon fill="white" stroke="black" points="1140.5,-123.5 1140.5,-142.5 1241.5,-142.5 1241.5,-123.5 1140.5,-123.5"/>
<text text-anchor="middle" x="1191" y="-130.5" font-family="Helvetica,sans-Serif" font-size="10.00">gui.GUIStart.start</text>
</a>
</g>
</g>
<!-- Node4&#45;&gt;Node6 -->
<g id="edge5" class="edge"><title>Node4&#45;&gt;Node6</title>
<path fill="none" stroke="midnightblue" d="M1093.97,-143.25C1109.81,-141.559 1125.95,-139.837 1140.36,-138.298"/>
<polygon fill="midnightblue" stroke="midnightblue" points="1093.2,-139.812 1083.63,-144.354 1093.95,-146.773 1093.2,-139.812"/>
</g>
<!-- Node7&#45;&gt;Node3 -->
<g id="edge7" class="edge"><title>Node7&#45;&gt;Node3</title>
<path fill="none" stroke="midnightblue" d="M930.585,-101.73C921.154,-101.784 911.609,-101.73 902.404,-101.568"/>
<polygon fill="midnightblue" stroke="midnightblue" points="930.789,-105.228 940.754,-101.629 930.719,-98.2284 930.789,-105.228"/>
</g>
<!-- Node8&#45;&gt;Node9 -->
<g id="edge10" class="edge"><title>Node8&#45;&gt;Node9</title>
<path fill="none" stroke="midnightblue" d="M338.764,-86C364.042,-86 393.023,-86 417.82,-86"/>
<polygon fill="midnightblue" stroke="midnightblue" points="338.548,-82.5001 328.548,-86 338.548,-89.5001 338.548,-82.5001"/>
</g>
<!-- Node9&#45;&gt;Node2 -->
<g id="edge14" class="edge"><title>Node9&#45;&gt;Node2</title>
<path fill="none" stroke="midnightblue" d="M534.561,-74.319C560.654,-68.9301 591.238,-62.6139 615.903,-57.5201"/>
<polygon fill="midnightblue" stroke="midnightblue" points="533.516,-70.9607 524.431,-76.411 534.932,-77.816 533.516,-70.9607"/>
</g>
<!-- Node9&#45;&gt;Node3 -->
<g id="edge11" class="edge"><title>Node9&#45;&gt;Node3</title>
<path fill="none" stroke="midnightblue" d="M546.21,-87.7196C610.623,-89.3434 706.545,-91.7616 769.914,-93.3592"/>
<polygon fill="midnightblue" stroke="midnightblue" points="546.238,-84.2193 536.153,-87.466 546.061,-91.217 546.238,-84.2193"/>
</g>
<!-- Node10 -->
<g id="node10" class="node"><title>Node10</title>
<g id="a_node10"><a xlink:href="../../dd/dea/classgui_1_1_g_u_i_scene.html#a47e424a495817f5806f45064f77a632b" target="_top" xlink:title="gui.GUIScene.getRightBox">
<polygon fill="white" stroke="black" points="592,-114.5 592,-133.5 734,-133.5 734,-114.5 592,-114.5"/>
<text text-anchor="middle" x="663" y="-121.5" font-family="Helvetica,sans-Serif" font-size="10.00">gui.GUIScene.getRightBox</text>
</a>
</g>
</g>
<!-- Node9&#45;&gt;Node10 -->
<g id="edge12" class="edge"><title>Node9&#45;&gt;Node10</title>
<path fill="none" stroke="midnightblue" d="M534.561,-97.681C560.654,-103.07 591.238,-109.386 615.903,-114.48"/>
<polygon fill="midnightblue" stroke="midnightblue" points="534.932,-94.184 524.431,-95.589 533.516,-101.039 534.932,-94.184"/>
</g>
<!-- Node10&#45;&gt;Node3 -->
<g id="edge13" class="edge"><title>Node10&#45;&gt;Node3</title>
<path fill="none" stroke="midnightblue" d="M730.767,-112.677C746.681,-109.978 763.505,-107.125 778.885,-104.517"/>
<polygon fill="midnightblue" stroke="midnightblue" points="729.74,-109.301 720.466,-114.424 730.91,-116.203 729.74,-109.301"/>
</g>
<!-- Node12 -->
<g id="node12" class="node"><title>Node12</title>
<g id="a_node12"><a xlink:href="../../d6/d6a/class_j_unit_test_1_1_backend_a_p_i_test.html#a86dd50c40468e1647c7c01614dc7d30d" target="_top" xlink:title="JUnitTest.BackendAPITest.test">
<polygon fill="white" stroke="black" points="398.5,-0.5 398.5,-19.5 555.5,-19.5 555.5,-0.5 398.5,-0.5"/>
<text text-anchor="middle" x="477" y="-7.5" font-family="Helvetica,sans-Serif" font-size="10.00">JUnitTest.BackendAPITest.test</text>
</a>
</g>
</g>
<!-- Node11&#45;&gt;Node12 -->
<g id="edge16" class="edge"><title>Node11&#45;&gt;Node12</title>
<path fill="none" stroke="midnightblue" d="M372.397,-10C381.051,-10 389.742,-10 398.209,-10"/>
<polygon fill="midnightblue" stroke="midnightblue" points="372.269,-6.5001 362.269,-10 372.269,-13.5001 372.269,-6.5001"/>
</g>
</g>
</svg>
