<?xml version="1.0" encoding="UTF-8" standalone="no"?>
<!DOCTYPE svg PUBLIC "-//W3C//DTD SVG 1.1//EN"
 "http://www.w3.org/Graphics/SVG/1.1/DTD/svg11.dtd">
<!-- Generated by graphviz version 2.36.0 (20140111.2315)
 -->
<!-- Title: controller.MainController.getHistory Pages: 1 -->
<svg width="866pt" height="90pt"
 viewBox="0.00 0.00 866.00 90.00" xmlns="http://www.w3.org/2000/svg" xmlns:xlink="http://www.w3.org/1999/xlink">
<g id="graph0" class="graph" transform="scale(1 1) rotate(0) translate(4 86)">
<title>controller.MainController.getHistory</title>
<polygon fill="white" stroke="none" points="-4,4 -4,-86 862,-86 862,4 -4,4"/>
<!-- Node1 -->
<g id="node1" class="node"><title>Node1</title>
<polygon fill="#bfbfbf" stroke="black" points="0.5,-0 0.5,-30 151.5,-30 151.5,-0 0.5,-0"/>
<text text-anchor="start" x="8.5" y="-18" font-family="Helvetica,sans-Serif" font-size="10.00">controller.MainController.get</text>
<text text-anchor="middle" x="76" y="-7" font-family="Helvetica,sans-Serif" font-size="10.00">History</text>
</g>
<!-- Node2 -->
<g id="node2" class="node"><title>Node2</title>
<g id="a_node2"><a xlink:href="../../dd/dea/classgui_1_1_g_u_i_scene.html#a47e424a495817f5806f45064f77a632b" target="_top" xlink:title="gui.GUIScene.getRightBox">
<polygon fill="white" stroke="black" points="188,-5.5 188,-24.5 330,-24.5 330,-5.5 188,-5.5"/>
<text text-anchor="middle" x="259" y="-12.5" font-family="Helvetica,sans-Serif" font-size="10.00">gui.GUIScene.getRightBox</text>
</a>
</g>
</g>
<!-- Node1&#45;&gt;Node2 -->
<g id="edge1" class="edge"><title>Node1&#45;&gt;Node2</title>
<path fill="none" stroke="midnightblue" d="M161.842,-15C170.556,-15 179.34,-15 187.869,-15"/>
<polygon fill="midnightblue" stroke="midnightblue" points="161.665,-11.5001 151.665,-15 161.665,-18.5001 161.665,-11.5001"/>
</g>
<!-- Node3 -->
<g id="node3" class="node"><title>Node3</title>
<g id="a_node3"><a xlink:href="../../dd/dea/classgui_1_1_g_u_i_scene.html#a7cb2b00ed820aecde169a5e14cf0d468" target="_top" xlink:title="gui.GUIScene.createGUI">
<polygon fill="white" stroke="black" points="366,-5.5 366,-24.5 498,-24.5 498,-5.5 366,-5.5"/>
<text text-anchor="middle" x="432" y="-12.5" font-family="Helvetica,sans-Serif" font-size="10.00">gui.GUIScene.createGUI</text>
</a>
</g>
</g>
<!-- Node2&#45;&gt;Node3 -->
<g id="edge2" class="edge"><title>Node2&#45;&gt;Node3</title>
<path fill="none" stroke="midnightblue" d="M340.083,-15C348.679,-15 357.349,-15 365.742,-15"/>
<polygon fill="midnightblue" stroke="midnightblue" points="340.046,-11.5001 330.046,-15 340.046,-18.5001 340.046,-11.5001"/>
</g>
<!-- Node4 -->
<g id="node4" class="node"><title>Node4</title>
<g id="a_node4"><a xlink:href="../../dd/dea/classgui_1_1_g_u_i_scene.html#a74967ac937baee81b9eec1b2bc38167c" target="_top" xlink:title="gui.GUIScene.createScene">
<polygon fill="white" stroke="black" points="534.5,-43.5 534.5,-62.5 679.5,-62.5 679.5,-43.5 534.5,-43.5"/>
<text text-anchor="middle" x="607" y="-50.5" font-family="Helvetica,sans-Serif" font-size="10.00">gui.GUIScene.createScene</text>
</a>
</g>
</g>
<!-- Node3&#45;&gt;Node4 -->
<g id="edge3" class="edge"><title>Node3&#45;&gt;Node4</title>
<path fill="none" stroke="midnightblue" d="M486.505,-26.7526C510.967,-32.1258 539.571,-38.4086 562.659,-43.4799"/>
<polygon fill="midnightblue" stroke="midnightblue" points="487.173,-23.316 476.655,-24.589 485.671,-30.153 487.173,-23.316"/>
</g>
<!-- Node7 -->
<g id="node7" class="node"><title>Node7</title>
<g id="a_node7"><a xlink:href="../../dd/dea/classgui_1_1_g_u_i_scene.html#a16324ddc026310495f84e77bbb311b2c" target="_top" xlink:title="gui.GUIScene.addButtons">
<polygon fill="white" stroke="black" points="537,-5.5 537,-24.5 677,-24.5 677,-5.5 537,-5.5"/>
<text text-anchor="middle" x="607" y="-12.5" font-family="Helvetica,sans-Serif" font-size="10.00">gui.GUIScene.addButtons</text>
</a>
</g>
</g>
<!-- Node3&#45;&gt;Node7 -->
<g id="edge6" class="edge"><title>Node3&#45;&gt;Node7</title>
<path fill="none" stroke="midnightblue" d="M508.504,-8.29871C517.896,-8.2151 527.463,-8.23913 536.754,-8.37079"/>
<polygon fill="midnightblue" stroke="midnightblue" points="508.357,-4.80025 498.404,-8.43169 508.449,-11.7996 508.357,-4.80025"/>
</g>
<!-- Node5 -->
<g id="node5" class="node"><title>Node5</title>
<g id="a_node5"><a xlink:href="../../d6/d0e/classcontroller_1_1_s_logo_main.html#ab5379c32fef791f21ad51abde7d268c0" target="_top" xlink:title="controller.SLogoMain.start">
<polygon fill="white" stroke="black" points="716,-62.5 716,-81.5 858,-81.5 858,-62.5 716,-62.5"/>
<text text-anchor="middle" x="787" y="-69.5" font-family="Helvetica,sans-Serif" font-size="10.00">controller.SLogoMain.start</text>
</a>
</g>
</g>
<!-- Node4&#45;&gt;Node5 -->
<g id="edge4" class="edge"><title>Node4&#45;&gt;Node5</title>
<path fill="none" stroke="midnightblue" d="M689.821,-61.7337C698.555,-62.666 707.382,-63.6082 715.963,-64.5241"/>
<polygon fill="midnightblue" stroke="midnightblue" points="689.945,-58.2271 679.63,-60.6459 689.202,-65.1876 689.945,-58.2271"/>
</g>
<!-- Node6 -->
<g id="node6" class="node"><title>Node6</title>
<g id="a_node6"><a xlink:href="../../dd/d48/classgui_1_1_g_u_i_start.html#a82d08814fef5331d82c4763a2426ffce" target="_top" xlink:title="gui.GUIStart.start">
<polygon fill="white" stroke="black" points="736.5,-24.5 736.5,-43.5 837.5,-43.5 837.5,-24.5 736.5,-24.5"/>
<text text-anchor="middle" x="787" y="-31.5" font-family="Helvetica,sans-Serif" font-size="10.00">gui.GUIStart.start</text>
</a>
</g>
</g>
<!-- Node4&#45;&gt;Node6 -->
<g id="edge5" class="edge"><title>Node4&#45;&gt;Node6</title>
<path fill="none" stroke="midnightblue" d="M689.974,-44.2499C705.814,-42.5592 721.952,-40.8366 736.365,-39.2981"/>
<polygon fill="midnightblue" stroke="midnightblue" points="689.202,-40.8124 679.63,-45.3541 689.945,-47.7729 689.202,-40.8124"/>
</g>
<!-- Node7&#45;&gt;Node3 -->
<g id="edge7" class="edge"><title>Node7&#45;&gt;Node3</title>
<path fill="none" stroke="midnightblue" d="M526.585,-21.7298C517.154,-21.7836 507.609,-21.7298 498.404,-21.5683"/>
<polygon fill="midnightblue" stroke="midnightblue" points="526.789,-25.2281 536.754,-21.6292 526.719,-18.2284 526.789,-25.2281"/>
</g>
</g>
</svg>
