<?xml version="1.0" encoding="UTF-8" standalone="no"?>
<!DOCTYPE svg PUBLIC "-//W3C//DTD SVG 1.1//EN"
 "http://www.w3.org/Graphics/SVG/1.1/DTD/svg11.dtd">
<!-- Generated by graphviz version 2.36.0 (20140111.2315)
 -->
<!-- Title: controller.MainController.passInput Pages: 1 -->
<!--zoomable 142 -->
<svg id="main" version="1.1" xmlns="http://www.w3.org/2000/svg" xmlns:xlink="http://www.w3.org/1999/xlink" xml:space="preserve" onload="init(evt)">
<style type="text/css"><![CDATA[
.edge:hover path { stroke: red; }
.edge:hover polygon { stroke: red; fill: red; }
]]></style>
<script type="text/javascript"><![CDATA[
var edges = document.getElementsByTagName('g');
if (edges && edges.length) {
  for (var i=0;i<edges.length;i++) {
    if (edges[i].id.substr(0,4)=='edge') {
      edges[i].setAttribute('class','edge');
    }
  }
}
]]></script>
        <defs>
                <circle id="rim" cx="0" cy="0" r="7"/>
                <circle id="rim2" cx="0" cy="0" r="3.5"/>
                <g id="zoomPlus">
                        <use xlink:href="#rim" fill="#404040">
                                <set attributeName="fill" to="#808080" begin="zoomplus.mouseover" end="zoomplus.mouseout"/>
                        </use>
                        <path d="M-4,0h8M0,-4v8" fill="none" stroke="white" stroke-width="1.5" pointer-events="none"/>
                </g>
                <g id="zoomMin">
                        <use xlink:href="#rim" fill="#404040">
                                <set attributeName="fill" to="#808080" begin="zoomminus.mouseover" end="zoomminus.mouseout"/>
                        </use>
                        <path d="M-4,0h8" fill="none" stroke="white" stroke-width="1.5" pointer-events="none"/>
                </g>
                <g id="dirArrow">
                        <path fill="none" stroke="white" stroke-width="1.5" d="M0,-3.0v7 M-2.5,-0.5L0,-3.0L2.5,-0.5"/>
                </g>
               <g id="resetDef">
                       <use xlink:href="#rim2" fill="#404040">
                               <set attributeName="fill" to="#808080" begin="reset.mouseover" end="reset.mouseout"/>
                       </use>
               </g>
        </defs>

<script type="text/javascript">
var viewWidth = 888;
var viewHeight = 142;
var sectionId = 'dynsection-5';
</script>
<script xlink:href="../../svgpan.js"/>
<svg id="graph" class="graph">
<g id="viewport">
<title>controller.MainController.passInput</title>
<polygon fill="white" stroke="none" points="-4,4 -4,-138 884,-138 884,4 -4,4"/>
<!-- Node1 -->
<g id="node1" class="node"><title>Node1</title>
<polygon fill="#bfbfbf" stroke="black" points="0,-33 0,-63 158,-63 158,-33 0,-33"/>
<text text-anchor="start" x="8" y="-51" font-family="Helvetica,sans-Serif" font-size="10.00">controller.MainController.pass</text>
<text text-anchor="middle" x="79" y="-40" font-family="Helvetica,sans-Serif" font-size="10.00">Input</text>
</g>
<!-- Node2 -->
<g id="node2" class="node"><title>Node2</title>
<g id="a_node2"><a xlink:href="../../dd/dea/classgui_1_1_g_u_i_scene.html#a7cb2b00ed820aecde169a5e14cf0d468" target="_top" xlink:title="gui.GUIScene.createGUI">
<polygon fill="white" stroke="black" points="388,-57.5 388,-76.5 520,-76.5 520,-57.5 388,-57.5"/>
<text text-anchor="middle" x="454" y="-64.5" font-family="Helvetica,sans-Serif" font-size="10.00">gui.GUIScene.createGUI</text>
</a>
</g>
</g>
<!-- Node1&#45;&gt;Node2 -->
<g id="edge1" class="edge"><title>Node1&#45;&gt;Node2</title>
<path fill="none" stroke="midnightblue" d="M168.389,-64.2021C177.02,-65.341 185.664,-66.3101 194,-67 259.874,-72.4519 335.495,-71.6426 387.949,-69.9651"/>
<polygon fill="midnightblue" stroke="midnightblue" points="168.67,-60.7075 158.283,-62.7935 167.704,-67.6405 168.67,-60.7075"/>
</g>
<!-- Node7 -->
<g id="node7" class="node"><title>Node7</title>
<g id="a_node7"><a xlink:href="../../dd/dea/classgui_1_1_g_u_i_scene.html#a47e424a495817f5806f45064f77a632b" target="_top" xlink:title="gui.GUIScene.getRightBox">
<polygon fill="white" stroke="black" points="202,-38.5 202,-57.5 344,-57.5 344,-38.5 202,-38.5"/>
<text text-anchor="middle" x="273" y="-45.5" font-family="Helvetica,sans-Serif" font-size="10.00">gui.GUIScene.getRightBox</text>
</a>
</g>
</g>
<!-- Node1&#45;&gt;Node7 -->
<g id="edge7" class="edge"><title>Node1&#45;&gt;Node7</title>
<path fill="none" stroke="midnightblue" d="M168.315,-48C179.507,-48 190.84,-48 201.699,-48"/>
<polygon fill="midnightblue" stroke="midnightblue" points="168.094,-44.5001 158.094,-48 168.094,-51.5001 168.094,-44.5001"/>
</g>
<!-- Node8 -->
<g id="node8" class="node"><title>Node8</title>
<g id="a_node8"><a xlink:href="../../d6/d6a/class_j_unit_test_1_1_backend_a_p_i_test.html#a86dd50c40468e1647c7c01614dc7d30d" target="_top" xlink:title="JUnitTest.BackendAPITest.test">
<polygon fill="white" stroke="black" points="194.5,-0.5 194.5,-19.5 351.5,-19.5 351.5,-0.5 194.5,-0.5"/>
<text text-anchor="middle" x="273" y="-7.5" font-family="Helvetica,sans-Serif" font-size="10.00">JUnitTest.BackendAPITest.test</text>
</a>
</g>
</g>
<!-- Node1&#45;&gt;Node8 -->
<g id="edge9" class="edge"><title>Node1&#45;&gt;Node8</title>
<path fill="none" stroke="midnightblue" d="M165.921,-30.9949C185.856,-27.0493 206.377,-22.9878 223.995,-19.5009"/>
<polygon fill="midnightblue" stroke="midnightblue" points="165.014,-27.6064 155.883,-32.9814 166.373,-34.4732 165.014,-27.6064"/>
</g>
<!-- Node3 -->
<g id="node3" class="node"><title>Node3</title>
<g id="a_node3"><a xlink:href="../../dd/dea/classgui_1_1_g_u_i_scene.html#a74967ac937baee81b9eec1b2bc38167c" target="_top" xlink:title="gui.GUIScene.createScene">
<polygon fill="white" stroke="black" points="556.5,-95.5 556.5,-114.5 701.5,-114.5 701.5,-95.5 556.5,-95.5"/>
<text text-anchor="middle" x="629" y="-102.5" font-family="Helvetica,sans-Serif" font-size="10.00">gui.GUIScene.createScene</text>
</a>
</g>
</g>
<!-- Node2&#45;&gt;Node3 -->
<g id="edge2" class="edge"><title>Node2&#45;&gt;Node3</title>
<path fill="none" stroke="midnightblue" d="M508.505,-78.7526C532.967,-84.1258 561.571,-90.4086 584.659,-95.4799"/>
<polygon fill="midnightblue" stroke="midnightblue" points="509.173,-75.316 498.655,-76.589 507.671,-82.153 509.173,-75.316"/>
</g>
<!-- Node6 -->
<g id="node6" class="node"><title>Node6</title>
<g id="a_node6"><a xlink:href="../../dd/dea/classgui_1_1_g_u_i_scene.html#a16324ddc026310495f84e77bbb311b2c" target="_top" xlink:title="gui.GUIScene.addButtons">
<polygon fill="white" stroke="black" points="559,-57.5 559,-76.5 699,-76.5 699,-57.5 559,-57.5"/>
<text text-anchor="middle" x="629" y="-64.5" font-family="Helvetica,sans-Serif" font-size="10.00">gui.GUIScene.addButtons</text>
</a>
</g>
</g>
<!-- Node2&#45;&gt;Node6 -->
<g id="edge5" class="edge"><title>Node2&#45;&gt;Node6</title>
<path fill="none" stroke="midnightblue" d="M530.504,-60.2987C539.896,-60.2151 549.463,-60.2391 558.754,-60.3708"/>
<polygon fill="midnightblue" stroke="midnightblue" points="530.357,-56.8002 520.404,-60.4317 530.449,-63.7996 530.357,-56.8002"/>
</g>
<!-- Node4 -->
<g id="node4" class="node"><title>Node4</title>
<g id="a_node4"><a xlink:href="../../d6/d0e/classcontroller_1_1_s_logo_main.html#ab5379c32fef791f21ad51abde7d268c0" target="_top" xlink:title="controller.SLogoMain.start">
<polygon fill="white" stroke="black" points="738,-114.5 738,-133.5 880,-133.5 880,-114.5 738,-114.5"/>
<text text-anchor="middle" x="809" y="-121.5" font-family="Helvetica,sans-Serif" font-size="10.00">controller.SLogoMain.start</text>
</a>
</g>
</g>
<!-- Node3&#45;&gt;Node4 -->
<g id="edge3" class="edge"><title>Node3&#45;&gt;Node4</title>
<path fill="none" stroke="midnightblue" d="M711.821,-113.734C720.555,-114.666 729.382,-115.608 737.963,-116.524"/>
<polygon fill="midnightblue" stroke="midnightblue" points="711.945,-110.227 701.63,-112.646 711.202,-117.188 711.945,-110.227"/>
</g>
<!-- Node5 -->
<g id="node5" class="node"><title>Node5</title>
<g id="a_node5"><a xlink:href="../../dd/d48/classgui_1_1_g_u_i_start.html#a82d08814fef5331d82c4763a2426ffce" target="_top" xlink:title="gui.GUIStart.start">
<polygon fill="white" stroke="black" points="758.5,-76.5 758.5,-95.5 859.5,-95.5 859.5,-76.5 758.5,-76.5"/>
<text text-anchor="middle" x="809" y="-83.5" font-family="Helvetica,sans-Serif" font-size="10.00">gui.GUIStart.start</text>
</a>
</g>
</g>
<!-- Node3&#45;&gt;Node5 -->
<g id="edge4" class="edge"><title>Node3&#45;&gt;Node5</title>
<path fill="none" stroke="midnightblue" d="M711.974,-96.2499C727.814,-94.5592 743.952,-92.8366 758.365,-91.2981"/>
<polygon fill="midnightblue" stroke="midnightblue" points="711.202,-92.8124 701.63,-97.3541 711.945,-99.7729 711.202,-92.8124"/>
</g>
<!-- Node6&#45;&gt;Node2 -->
<g id="edge6" class="edge"><title>Node6&#45;&gt;Node2</title>
<path fill="none" stroke="midnightblue" d="M548.585,-73.7298C539.154,-73.7836 529.609,-73.7298 520.404,-73.5683"/>
<polygon fill="midnightblue" stroke="midnightblue" points="548.789,-77.2281 558.754,-73.6292 548.719,-70.2284 548.789,-77.2281"/>
</g>
<!-- Node7&#45;&gt;Node2 -->
<g id="edge8" class="edge"><title>Node7&#45;&gt;Node2</title>
<path fill="none" stroke="midnightblue" d="M354.45,-56.5394C365.657,-57.729 377.056,-58.9389 387.933,-60.0934"/>
<polygon fill="midnightblue" stroke="midnightblue" points="354.545,-53.0299 344.232,-55.4548 353.806,-59.9908 354.545,-53.0299"/>
</g>
</g>
</svg>
        <g id="navigator" transform="translate(0 0)" fill="#404254">
                <rect fill="#f2f5e9" fill-opacity="0.5" stroke="#606060" stroke-width=".5" x="0" y="0" width="60" height="60"/>
                <use id="zoomplus" xlink:href="#zoomPlus" x="17" y="9" onmousedown="handleZoom(evt,'in')"/>
                <use id="zoomminus" xlink:href="#zoomMin" x="42" y="9" onmousedown="handleZoom(evt,'out')"/>
                <use id="reset" xlink:href="#resetDef" x="30" y="36" onmousedown="handleReset()"/>
                <g id="arrowUp" xlink:href="#dirArrow" transform="translate(30 24)" onmousedown="handlePan(0,-1)">
                  <use xlink:href="#rim" fill="#404040">
                        <set attributeName="fill" to="#808080" begin="arrowUp.mouseover" end="arrowUp.mouseout"/>
                  </use>
                  <path fill="none" stroke="white" stroke-width="1.5" d="M0,-3.0v7 M-2.5,-0.5L0,-3.0L2.5,-0.5"/>
                </g>
                <g id="arrowRight" xlink:href="#dirArrow" transform="rotate(90) translate(36 -43)" onmousedown="handlePan(1,0)">
                  <use xlink:href="#rim" fill="#404040">
                        <set attributeName="fill" to="#808080" begin="arrowRight.mouseover" end="arrowRight.mouseout"/>
                  </use>
                  <path fill="none" stroke="white" stroke-width="1.5" d="M0,-3.0v7 M-2.5,-0.5L0,-3.0L2.5,-0.5"/>
                </g>
                <g id="arrowDown" xlink:href="#dirArrow" transform="rotate(180) translate(-30 -48)" onmousedown="handlePan(0,1)">
                  <use xlink:href="#rim" fill="#404040">
                        <set attributeName="fill" to="#808080" begin="arrowDown.mouseover" end="arrowDown.mouseout"/>
                  </use>
                  <path fill="none" stroke="white" stroke-width="1.5" d="M0,-3.0v7 M-2.5,-0.5L0,-3.0L2.5,-0.5"/>
                </g>
                <g id="arrowLeft" xlink:href="#dirArrow" transform="rotate(270) translate(-36 17)" onmousedown="handlePan(-1,0)">
                  <use xlink:href="#rim" fill="#404040">
                        <set attributeName="fill" to="#808080" begin="arrowLeft.mouseover" end="arrowLeft.mouseout"/>
                  </use>
                  <path fill="none" stroke="white" stroke-width="1.5" d="M0,-3.0v7 M-2.5,-0.5L0,-3.0L2.5,-0.5"/>
                </g>
        </g>
        <svg viewBox="0 0 15 15" width="100%" height="30px" preserveAspectRatio="xMaxYMin meet">
         <g id="arrow_out" transform="scale(0.3 0.3)">
          <a xlink:href="classcontroller_1_1_main_controller_a6badeb343877f4b50f069b47afed495c_icgraph_org.svg" target="_base">
           <rect id="button" ry="5" rx="5" y="6" x="6" height="38" width="38"
                fill="#f2f5e9" fill-opacity="0.5" stroke="#606060" stroke-width="1.0"/>
           <path id="arrow"
             d="M 11.500037,31.436501 C 11.940474,20.09759 22.043105,11.32322 32.158766,21.979434 L 37.068811,17.246167 C 37.068811,17.246167 37.088388,32 37.088388,32 L 22.160133,31.978069 C 22.160133,31.978069 26.997745,27.140456 26.997745,27.140456 C 18.528582,18.264221 13.291696,25.230495 11.500037,31.436501 z"
             style="fill:#404040;"/>
          </a>
         </g>
        </svg>
</svg>
