<?xml version="1.0" encoding="UTF-8" standalone="no"?>
<!DOCTYPE svg PUBLIC "-//W3C//DTD SVG 1.1//EN"
 "http://www.w3.org/Graphics/SVG/1.1/DTD/svg11.dtd">
<!-- Generated by graphviz version 2.36.0 (20140111.2315)
 -->
<!-- Title: compiler.ParseTable.getRHS Pages: 1 -->
<svg width="1434pt" height="207pt"
 viewBox="0.00 0.00 1434.00 207.00" xmlns="http://www.w3.org/2000/svg" xmlns:xlink="http://www.w3.org/1999/xlink">
<g id="graph0" class="graph" transform="scale(1 1) rotate(0) translate(4 203)">
<title>compiler.ParseTable.getRHS</title>
<polygon fill="white" stroke="none" points="-4,4 -4,-203 1430,-203 1430,4 -4,4"/>
<!-- Node1 -->
<g id="node1" class="node"><title>Node1</title>
<polygon fill="#bfbfbf" stroke="black" points="0.5,-78.5 0.5,-97.5 149.5,-97.5 149.5,-78.5 0.5,-78.5"/>
<text text-anchor="middle" x="75" y="-85.5" font-family="Helvetica,sans-Serif" font-size="10.00">compiler.ParseTable.getRHS</text>
</g>
<!-- Node2 -->
<g id="node2" class="node"><title>Node2</title>
<g id="a_node2"><a xlink:href="../../db/d93/classcompiler_1_1_compiler.html#afb38c21dd4d72f5fb04bc01dc892621a" target="_top" xlink:title="compiler.Compiler.initialize">
<polygon fill="white" stroke="black" points="186.5,-78.5 186.5,-97.5 329.5,-97.5 329.5,-78.5 186.5,-78.5"/>
<text text-anchor="middle" x="258" y="-85.5" font-family="Helvetica,sans-Serif" font-size="10.00">compiler.Compiler.initialize</text>
</a>
</g>
</g>
<!-- Node1&#45;&gt;Node2 -->
<g id="edge1" class="edge"><title>Node1&#45;&gt;Node2</title>
<path fill="none" stroke="midnightblue" d="M159.651,-88C168.585,-88 177.61,-88 186.373,-88"/>
<polygon fill="midnightblue" stroke="midnightblue" points="159.62,-84.5001 149.62,-88 159.62,-91.5001 159.62,-84.5001"/>
</g>
<!-- Node3 -->
<g id="node3" class="node"><title>Node3</title>
<g id="a_node3"><a xlink:href="../../db/d93/classcompiler_1_1_compiler.html#a8a90aa273bacff724a034959914a4c2d" target="_top" xlink:title="compiler.Compiler.compile">
<polygon fill="white" stroke="black" points="366.5,-78.5 366.5,-97.5 509.5,-97.5 509.5,-78.5 366.5,-78.5"/>
<text text-anchor="middle" x="438" y="-85.5" font-family="Helvetica,sans-Serif" font-size="10.00">compiler.Compiler.compile</text>
</a>
</g>
</g>
<!-- Node2&#45;&gt;Node3 -->
<g id="edge2" class="edge"><title>Node2&#45;&gt;Node3</title>
<path fill="none" stroke="midnightblue" d="M339.646,-88C348.599,-88 357.666,-88 366.479,-88"/>
<polygon fill="midnightblue" stroke="midnightblue" points="339.606,-84.5001 329.606,-88 339.606,-91.5001 339.606,-84.5001"/>
</g>
<!-- Node4 -->
<g id="node4" class="node"><title>Node4</title>
<g id="a_node4"><a xlink:href="../../db/d93/classcompiler_1_1_compiler.html#a90d16b98c8e950bbaf772f5b93092a3f" target="_top" xlink:title="compiler.Compiler.main">
<polygon fill="white" stroke="black" points="560.5,-147.5 560.5,-166.5 689.5,-166.5 689.5,-147.5 560.5,-147.5"/>
<text text-anchor="middle" x="625" y="-154.5" font-family="Helvetica,sans-Serif" font-size="10.00">compiler.Compiler.main</text>
</a>
</g>
</g>
<!-- Node3&#45;&gt;Node4 -->
<g id="edge3" class="edge"><title>Node3&#45;&gt;Node4</title>
<path fill="none" stroke="midnightblue" d="M466.232,-102.112C487.53,-112.743 518.107,-127.126 546,-137 557.202,-140.965 569.564,-144.502 581.081,-147.458"/>
<polygon fill="midnightblue" stroke="midnightblue" points="467.647,-98.9049 457.143,-97.5207 464.491,-105.153 467.647,-98.9049"/>
</g>
<!-- Node5 -->
<g id="node5" class="node"><title>Node5</title>
<g id="a_node5"><a xlink:href="../../db/d32/classcontroller_1_1_main_controller.html#a6badeb343877f4b50f069b47afed495c" target="_top" xlink:title="controller.MainController.pass\lInput">
<polygon fill="white" stroke="black" points="546,-98 546,-128 704,-128 704,-98 546,-98"/>
<text text-anchor="start" x="554" y="-116" font-family="Helvetica,sans-Serif" font-size="10.00">controller.MainController.pass</text>
<text text-anchor="middle" x="625" y="-105" font-family="Helvetica,sans-Serif" font-size="10.00">Input</text>
</a>
</g>
</g>
<!-- Node3&#45;&gt;Node5 -->
<g id="edge4" class="edge"><title>Node3&#45;&gt;Node5</title>
<path fill="none" stroke="midnightblue" d="M519.565,-98.8872C528.238,-100.059 537.053,-101.25 545.698,-102.419"/>
<polygon fill="midnightblue" stroke="midnightblue" points="519.847,-95.3935 509.468,-97.5227 518.909,-102.33 519.847,-95.3935"/>
</g>
<!-- Node13 -->
<g id="node13" class="node"><title>Node13</title>
<g id="a_node13"><a xlink:href="../../d8/ded/class_j_unit_test_1_1_compiler_test.html#a4132f77013965dda40f6d62699de349a" target="_top" xlink:title="JUnitTest.CompilerTest.test\lGrammarException">
<polygon fill="white" stroke="black" points="553.5,-49 553.5,-79 696.5,-79 696.5,-49 553.5,-49"/>
<text text-anchor="start" x="561.5" y="-67" font-family="Helvetica,sans-Serif" font-size="10.00">JUnitTest.CompilerTest.test</text>
<text text-anchor="middle" x="625" y="-56" font-family="Helvetica,sans-Serif" font-size="10.00">GrammarException</text>
</a>
</g>
</g>
<!-- Node3&#45;&gt;Node13 -->
<g id="edge14" class="edge"><title>Node3&#45;&gt;Node13</title>
<path fill="none" stroke="midnightblue" d="M519.876,-77.508C531.011,-76.0635 542.374,-74.5893 553.307,-73.171"/>
<polygon fill="midnightblue" stroke="midnightblue" points="519.199,-74.0664 509.732,-78.8239 520.1,-81.0082 519.199,-74.0664"/>
</g>
<!-- Node14 -->
<g id="node14" class="node"><title>Node14</title>
<g id="a_node14"><a xlink:href="../../d8/ded/class_j_unit_test_1_1_compiler_test.html#accbcdde8d934dd7acc552820845d6b0f" target="_top" xlink:title="JUnitTest.CompilerTest.test\lSyntaxException">
<polygon fill="white" stroke="black" points="553.5,-0 553.5,-30 696.5,-30 696.5,-0 553.5,-0"/>
<text text-anchor="start" x="561.5" y="-18" font-family="Helvetica,sans-Serif" font-size="10.00">JUnitTest.CompilerTest.test</text>
<text text-anchor="middle" x="625" y="-7" font-family="Helvetica,sans-Serif" font-size="10.00">SyntaxException</text>
</a>
</g>
</g>
<!-- Node3&#45;&gt;Node14 -->
<g id="edge15" class="edge"><title>Node3&#45;&gt;Node14</title>
<path fill="none" stroke="midnightblue" d="M467.598,-74.1227C488.942,-64.024 518.961,-50.3608 546,-40 555.03,-36.54 564.766,-33.1542 574.196,-30.0473"/>
<polygon fill="midnightblue" stroke="midnightblue" points="465.965,-71.0241 458.444,-78.4871 468.977,-77.3427 465.965,-71.0241"/>
</g>
<!-- Node6 -->
<g id="node6" class="node"><title>Node6</title>
<g id="a_node6"><a xlink:href="../../dd/dea/classgui_1_1_g_u_i_scene.html#a7cb2b00ed820aecde169a5e14cf0d468" target="_top" xlink:title="gui.GUIScene.createGUI">
<polygon fill="white" stroke="black" points="934,-122.5 934,-141.5 1066,-141.5 1066,-122.5 934,-122.5"/>
<text text-anchor="middle" x="1000" y="-129.5" font-family="Helvetica,sans-Serif" font-size="10.00">gui.GUIScene.createGUI</text>
</a>
</g>
</g>
<!-- Node5&#45;&gt;Node6 -->
<g id="edge5" class="edge"><title>Node5&#45;&gt;Node6</title>
<path fill="none" stroke="midnightblue" d="M714.389,-129.202C723.02,-130.341 731.664,-131.31 740,-132 805.874,-137.452 881.495,-136.643 933.949,-134.965"/>
<polygon fill="midnightblue" stroke="midnightblue" points="714.67,-125.707 704.283,-127.793 713.704,-132.64 714.67,-125.707"/>
</g>
<!-- Node11 -->
<g id="node11" class="node"><title>Node11</title>
<g id="a_node11"><a xlink:href="../../dd/dea/classgui_1_1_g_u_i_scene.html#a47e424a495817f5806f45064f77a632b" target="_top" xlink:title="gui.GUIScene.getRightBox">
<polygon fill="white" stroke="black" points="748,-103.5 748,-122.5 890,-122.5 890,-103.5 748,-103.5"/>
<text text-anchor="middle" x="819" y="-110.5" font-family="Helvetica,sans-Serif" font-size="10.00">gui.GUIScene.getRightBox</text>
</a>
</g>
</g>
<!-- Node5&#45;&gt;Node11 -->
<g id="edge11" class="edge"><title>Node5&#45;&gt;Node11</title>
<path fill="none" stroke="midnightblue" d="M714.315,-113C725.507,-113 736.84,-113 747.699,-113"/>
<polygon fill="midnightblue" stroke="midnightblue" points="714.094,-109.5 704.094,-113 714.094,-116.5 714.094,-109.5"/>
</g>
<!-- Node12 -->
<g id="node12" class="node"><title>Node12</title>
<g id="a_node12"><a xlink:href="../../d6/d6a/class_j_unit_test_1_1_backend_a_p_i_test.html#a86dd50c40468e1647c7c01614dc7d30d" target="_top" xlink:title="JUnitTest.BackendAPITest.test">
<polygon fill="white" stroke="black" points="740.5,-65.5 740.5,-84.5 897.5,-84.5 897.5,-65.5 740.5,-65.5"/>
<text text-anchor="middle" x="819" y="-72.5" font-family="Helvetica,sans-Serif" font-size="10.00">JUnitTest.BackendAPITest.test</text>
</a>
</g>
</g>
<!-- Node5&#45;&gt;Node12 -->
<g id="edge13" class="edge"><title>Node5&#45;&gt;Node12</title>
<path fill="none" stroke="midnightblue" d="M711.921,-95.9949C731.856,-92.0493 752.377,-87.9878 769.995,-84.5009"/>
<polygon fill="midnightblue" stroke="midnightblue" points="711.014,-92.6064 701.883,-97.9814 712.373,-99.4732 711.014,-92.6064"/>
</g>
<!-- Node7 -->
<g id="node7" class="node"><title>Node7</title>
<g id="a_node7"><a xlink:href="../../dd/dea/classgui_1_1_g_u_i_scene.html#a74967ac937baee81b9eec1b2bc38167c" target="_top" xlink:title="gui.GUIScene.createScene">
<polygon fill="white" stroke="black" points="1102.5,-160.5 1102.5,-179.5 1247.5,-179.5 1247.5,-160.5 1102.5,-160.5"/>
<text text-anchor="middle" x="1175" y="-167.5" font-family="Helvetica,sans-Serif" font-size="10.00">gui.GUIScene.createScene</text>
</a>
</g>
</g>
<!-- Node6&#45;&gt;Node7 -->
<g id="edge6" class="edge"><title>Node6&#45;&gt;Node7</title>
<path fill="none" stroke="midnightblue" d="M1054.51,-143.753C1078.97,-149.126 1107.57,-155.409 1130.66,-160.48"/>
<polygon fill="midnightblue" stroke="midnightblue" points="1055.17,-140.316 1044.66,-141.589 1053.67,-147.153 1055.17,-140.316"/>
</g>
<!-- Node10 -->
<g id="node10" class="node"><title>Node10</title>
<g id="a_node10"><a xlink:href="../../dd/dea/classgui_1_1_g_u_i_scene.html#a16324ddc026310495f84e77bbb311b2c" target="_top" xlink:title="gui.GUIScene.addButtons">
<polygon fill="white" stroke="black" points="1105,-122.5 1105,-141.5 1245,-141.5 1245,-122.5 1105,-122.5"/>
<text text-anchor="middle" x="1175" y="-129.5" font-family="Helvetica,sans-Serif" font-size="10.00">gui.GUIScene.addButtons</text>
</a>
</g>
</g>
<!-- Node6&#45;&gt;Node10 -->
<g id="edge9" class="edge"><title>Node6&#45;&gt;Node10</title>
<path fill="none" stroke="midnightblue" d="M1076.5,-125.299C1085.9,-125.215 1095.46,-125.239 1104.75,-125.371"/>
<polygon fill="midnightblue" stroke="midnightblue" points="1076.36,-121.8 1066.4,-125.432 1076.45,-128.8 1076.36,-121.8"/>
</g>
<!-- Node8 -->
<g id="node8" class="node"><title>Node8</title>
<g id="a_node8"><a xlink:href="../../d6/d0e/classcontroller_1_1_s_logo_main.html#ab5379c32fef791f21ad51abde7d268c0" target="_top" xlink:title="controller.SLogoMain.start">
<polygon fill="white" stroke="black" points="1284,-179.5 1284,-198.5 1426,-198.5 1426,-179.5 1284,-179.5"/>
<text text-anchor="middle" x="1355" y="-186.5" font-family="Helvetica,sans-Serif" font-size="10.00">controller.SLogoMain.start</text>
</a>
</g>
</g>
<!-- Node7&#45;&gt;Node8 -->
<g id="edge7" class="edge"><title>Node7&#45;&gt;Node8</title>
<path fill="none" stroke="midnightblue" d="M1257.82,-178.734C1266.56,-179.666 1275.38,-180.608 1283.96,-181.524"/>
<polygon fill="midnightblue" stroke="midnightblue" points="1257.95,-175.227 1247.63,-177.646 1257.2,-182.188 1257.95,-175.227"/>
</g>
<!-- Node9 -->
<g id="node9" class="node"><title>Node9</title>
<g id="a_node9"><a xlink:href="../../dd/d48/classgui_1_1_g_u_i_start.html#a82d08814fef5331d82c4763a2426ffce" target="_top" xlink:title="gui.GUIStart.start">
<polygon fill="white" stroke="black" points="1304.5,-141.5 1304.5,-160.5 1405.5,-160.5 1405.5,-141.5 1304.5,-141.5"/>
<text text-anchor="middle" x="1355" y="-148.5" font-family="Helvetica,sans-Serif" font-size="10.00">gui.GUIStart.start</text>
</a>
</g>
</g>
<!-- Node7&#45;&gt;Node9 -->
<g id="edge8" class="edge"><title>Node7&#45;&gt;Node9</title>
<path fill="none" stroke="midnightblue" d="M1257.97,-161.25C1273.81,-159.559 1289.95,-157.837 1304.36,-156.298"/>
<polygon fill="midnightblue" stroke="midnightblue" points="1257.2,-157.812 1247.63,-162.354 1257.95,-164.773 1257.2,-157.812"/>
</g>
<!-- Node10&#45;&gt;Node6 -->
<g id="edge10" class="edge"><title>Node10&#45;&gt;Node6</title>
<path fill="none" stroke="midnightblue" d="M1094.59,-138.73C1085.15,-138.784 1075.61,-138.73 1066.4,-138.568"/>
<polygon fill="midnightblue" stroke="midnightblue" points="1094.79,-142.228 1104.75,-138.629 1094.72,-135.228 1094.79,-142.228"/>
</g>
<!-- Node11&#45;&gt;Node6 -->
<g id="edge12" class="edge"><title>Node11&#45;&gt;Node6</title>
<path fill="none" stroke="midnightblue" d="M900.45,-121.539C911.657,-122.729 923.056,-123.939 933.933,-125.093"/>
<polygon fill="midnightblue" stroke="midnightblue" points="900.545,-118.03 890.232,-120.455 899.806,-124.991 900.545,-118.03"/>
</g>
</g>
</svg>
