<?xml version="1.0" encoding="UTF-8" standalone="no"?>
<!DOCTYPE svg PUBLIC "-//W3C//DTD SVG 1.1//EN"
 "http://www.w3.org/Graphics/SVG/1.1/DTD/svg11.dtd">
<!-- Generated by graphviz version 2.36.0 (20140111.2315)
 -->
<!-- Title: compiler.ParseTable.getOperation Pages: 1 -->
<svg width="1460pt" height="207pt"
 viewBox="0.00 0.00 1460.00 207.00" xmlns="http://www.w3.org/2000/svg" xmlns:xlink="http://www.w3.org/1999/xlink">
<g id="graph0" class="graph" transform="scale(1 1) rotate(0) translate(4 203)">
<title>compiler.ParseTable.getOperation</title>
<polygon fill="white" stroke="none" points="-4,4 -4,-203 1456,-203 1456,4 -4,4"/>
<!-- Node1 -->
<g id="node1" class="node"><title>Node1</title>
<polygon fill="#bfbfbf" stroke="black" points="0,-78.5 0,-97.5 176,-97.5 176,-78.5 0,-78.5"/>
<text text-anchor="middle" x="88" y="-85.5" font-family="Helvetica,sans-Serif" font-size="10.00">compiler.ParseTable.getOperation</text>
</g>
<!-- Node2 -->
<g id="node2" class="node"><title>Node2</title>
<g id="a_node2"><a xlink:href="../../db/d93/classcompiler_1_1_compiler.html#afb38c21dd4d72f5fb04bc01dc892621a" target="_top" xlink:title="compiler.Compiler.initialize">
<polygon fill="white" stroke="black" points="212.5,-78.5 212.5,-97.5 355.5,-97.5 355.5,-78.5 212.5,-78.5"/>
<text text-anchor="middle" x="284" y="-85.5" font-family="Helvetica,sans-Serif" font-size="10.00">compiler.Compiler.initialize</text>
</a>
</g>
</g>
<!-- Node1&#45;&gt;Node2 -->
<g id="edge1" class="edge"><title>Node1&#45;&gt;Node2</title>
<path fill="none" stroke="midnightblue" d="M186.099,-88C194.996,-88 203.892,-88 212.487,-88"/>
<polygon fill="midnightblue" stroke="midnightblue" points="186.069,-84.5001 176.069,-88 186.069,-91.5001 186.069,-84.5001"/>
</g>
<!-- Node3 -->
<g id="node3" class="node"><title>Node3</title>
<g id="a_node3"><a xlink:href="../../db/d93/classcompiler_1_1_compiler.html#a8a90aa273bacff724a034959914a4c2d" target="_top" xlink:title="compiler.Compiler.compile">
<polygon fill="white" stroke="black" points="392.5,-78.5 392.5,-97.5 535.5,-97.5 535.5,-78.5 392.5,-78.5"/>
<text text-anchor="middle" x="464" y="-85.5" font-family="Helvetica,sans-Serif" font-size="10.00">compiler.Compiler.compile</text>
</a>
</g>
</g>
<!-- Node2&#45;&gt;Node3 -->
<g id="edge2" class="edge"><title>Node2&#45;&gt;Node3</title>
<path fill="none" stroke="midnightblue" d="M365.646,-88C374.599,-88 383.666,-88 392.479,-88"/>
<polygon fill="midnightblue" stroke="midnightblue" points="365.606,-84.5001 355.606,-88 365.606,-91.5001 365.606,-84.5001"/>
</g>
<!-- Node4 -->
<g id="node4" class="node"><title>Node4</title>
<g id="a_node4"><a xlink:href="../../db/d93/classcompiler_1_1_compiler.html#a90d16b98c8e950bbaf772f5b93092a3f" target="_top" xlink:title="compiler.Compiler.main">
<polygon fill="white" stroke="black" points="586.5,-147.5 586.5,-166.5 715.5,-166.5 715.5,-147.5 586.5,-147.5"/>
<text text-anchor="middle" x="651" y="-154.5" font-family="Helvetica,sans-Serif" font-size="10.00">compiler.Compiler.main</text>
</a>
</g>
</g>
<!-- Node3&#45;&gt;Node4 -->
<g id="edge3" class="edge"><title>Node3&#45;&gt;Node4</title>
<path fill="none" stroke="midnightblue" d="M492.232,-102.112C513.53,-112.743 544.107,-127.126 572,-137 583.202,-140.965 595.564,-144.502 607.081,-147.458"/>
<polygon fill="midnightblue" stroke="midnightblue" points="493.647,-98.9049 483.143,-97.5207 490.491,-105.153 493.647,-98.9049"/>
</g>
<!-- Node5 -->
<g id="node5" class="node"><title>Node5</title>
<g id="a_node5"><a xlink:href="../../db/d32/classcontroller_1_1_main_controller.html#a6badeb343877f4b50f069b47afed495c" target="_top" xlink:title="controller.MainController.pass\lInput">
<polygon fill="white" stroke="black" points="572,-98 572,-128 730,-128 730,-98 572,-98"/>
<text text-anchor="start" x="580" y="-116" font-family="Helvetica,sans-Serif" font-size="10.00">controller.MainController.pass</text>
<text text-anchor="middle" x="651" y="-105" font-family="Helvetica,sans-Serif" font-size="10.00">Input</text>
</a>
</g>
</g>
<!-- Node3&#45;&gt;Node5 -->
<g id="edge4" class="edge"><title>Node3&#45;&gt;Node5</title>
<path fill="none" stroke="midnightblue" d="M545.565,-98.8872C554.238,-100.059 563.053,-101.25 571.698,-102.419"/>
<polygon fill="midnightblue" stroke="midnightblue" points="545.847,-95.3935 535.468,-97.5227 544.909,-102.33 545.847,-95.3935"/>
</g>
<!-- Node13 -->
<g id="node13" class="node"><title>Node13</title>
<g id="a_node13"><a xlink:href="../../d8/ded/class_j_unit_test_1_1_compiler_test.html#a4132f77013965dda40f6d62699de349a" target="_top" xlink:title="JUnitTest.CompilerTest.test\lGrammarException">
<polygon fill="white" stroke="black" points="579.5,-49 579.5,-79 722.5,-79 722.5,-49 579.5,-49"/>
<text text-anchor="start" x="587.5" y="-67" font-family="Helvetica,sans-Serif" font-size="10.00">JUnitTest.CompilerTest.test</text>
<text text-anchor="middle" x="651" y="-56" font-family="Helvetica,sans-Serif" font-size="10.00">GrammarException</text>
</a>
</g>
</g>
<!-- Node3&#45;&gt;Node13 -->
<g id="edge14" class="edge"><title>Node3&#45;&gt;Node13</title>
<path fill="none" stroke="midnightblue" d="M545.876,-77.508C557.011,-76.0635 568.374,-74.5893 579.307,-73.171"/>
<polygon fill="midnightblue" stroke="midnightblue" points="545.199,-74.0664 535.732,-78.8239 546.1,-81.0082 545.199,-74.0664"/>
</g>
<!-- Node14 -->
<g id="node14" class="node"><title>Node14</title>
<g id="a_node14"><a xlink:href="../../d8/ded/class_j_unit_test_1_1_compiler_test.html#accbcdde8d934dd7acc552820845d6b0f" target="_top" xlink:title="JUnitTest.CompilerTest.test\lSyntaxException">
<polygon fill="white" stroke="black" points="579.5,-0 579.5,-30 722.5,-30 722.5,-0 579.5,-0"/>
<text text-anchor="start" x="587.5" y="-18" font-family="Helvetica,sans-Serif" font-size="10.00">JUnitTest.CompilerTest.test</text>
<text text-anchor="middle" x="651" y="-7" font-family="Helvetica,sans-Serif" font-size="10.00">SyntaxException</text>
</a>
</g>
</g>
<!-- Node3&#45;&gt;Node14 -->
<g id="edge15" class="edge"><title>Node3&#45;&gt;Node14</title>
<path fill="none" stroke="midnightblue" d="M493.598,-74.1227C514.942,-64.024 544.961,-50.3608 572,-40 581.03,-36.54 590.766,-33.1542 600.196,-30.0473"/>
<polygon fill="midnightblue" stroke="midnightblue" points="491.965,-71.0241 484.444,-78.4871 494.977,-77.3427 491.965,-71.0241"/>
</g>
<!-- Node6 -->
<g id="node6" class="node"><title>Node6</title>
<g id="a_node6"><a xlink:href="../../dd/dea/classgui_1_1_g_u_i_scene.html#a7cb2b00ed820aecde169a5e14cf0d468" target="_top" xlink:title="gui.GUIScene.createGUI">
<polygon fill="white" stroke="black" points="960,-122.5 960,-141.5 1092,-141.5 1092,-122.5 960,-122.5"/>
<text text-anchor="middle" x="1026" y="-129.5" font-family="Helvetica,sans-Serif" font-size="10.00">gui.GUIScene.createGUI</text>
</a>
</g>
</g>
<!-- Node5&#45;&gt;Node6 -->
<g id="edge5" class="edge"><title>Node5&#45;&gt;Node6</title>
<path fill="none" stroke="midnightblue" d="M740.389,-129.202C749.02,-130.341 757.664,-131.31 766,-132 831.874,-137.452 907.495,-136.643 959.949,-134.965"/>
<polygon fill="midnightblue" stroke="midnightblue" points="740.67,-125.707 730.283,-127.793 739.704,-132.64 740.67,-125.707"/>
</g>
<!-- Node11 -->
<g id="node11" class="node"><title>Node11</title>
<g id="a_node11"><a xlink:href="../../dd/dea/classgui_1_1_g_u_i_scene.html#a47e424a495817f5806f45064f77a632b" target="_top" xlink:title="gui.GUIScene.getRightBox">
<polygon fill="white" stroke="black" points="774,-103.5 774,-122.5 916,-122.5 916,-103.5 774,-103.5"/>
<text text-anchor="middle" x="845" y="-110.5" font-family="Helvetica,sans-Serif" font-size="10.00">gui.GUIScene.getRightBox</text>
</a>
</g>
</g>
<!-- Node5&#45;&gt;Node11 -->
<g id="edge11" class="edge"><title>Node5&#45;&gt;Node11</title>
<path fill="none" stroke="midnightblue" d="M740.315,-113C751.507,-113 762.84,-113 773.699,-113"/>
<polygon fill="midnightblue" stroke="midnightblue" points="740.094,-109.5 730.094,-113 740.094,-116.5 740.094,-109.5"/>
</g>
<!-- Node12 -->
<g id="node12" class="node"><title>Node12</title>
<g id="a_node12"><a xlink:href="../../d6/d6a/class_j_unit_test_1_1_backend_a_p_i_test.html#a86dd50c40468e1647c7c01614dc7d30d" target="_top" xlink:title="JUnitTest.BackendAPITest.test">
<polygon fill="white" stroke="black" points="766.5,-65.5 766.5,-84.5 923.5,-84.5 923.5,-65.5 766.5,-65.5"/>
<text text-anchor="middle" x="845" y="-72.5" font-family="Helvetica,sans-Serif" font-size="10.00">JUnitTest.BackendAPITest.test</text>
</a>
</g>
</g>
<!-- Node5&#45;&gt;Node12 -->
<g id="edge13" class="edge"><title>Node5&#45;&gt;Node12</title>
<path fill="none" stroke="midnightblue" d="M737.921,-95.9949C757.856,-92.0493 778.377,-87.9878 795.995,-84.5009"/>
<polygon fill="midnightblue" stroke="midnightblue" points="737.014,-92.6064 727.883,-97.9814 738.373,-99.4732 737.014,-92.6064"/>
</g>
<!-- Node7 -->
<g id="node7" class="node"><title>Node7</title>
<g id="a_node7"><a xlink:href="../../dd/dea/classgui_1_1_g_u_i_scene.html#a74967ac937baee81b9eec1b2bc38167c" target="_top" xlink:title="gui.GUIScene.createScene">
<polygon fill="white" stroke="black" points="1128.5,-160.5 1128.5,-179.5 1273.5,-179.5 1273.5,-160.5 1128.5,-160.5"/>
<text text-anchor="middle" x="1201" y="-167.5" font-family="Helvetica,sans-Serif" font-size="10.00">gui.GUIScene.createScene</text>
</a>
</g>
</g>
<!-- Node6&#45;&gt;Node7 -->
<g id="edge6" class="edge"><title>Node6&#45;&gt;Node7</title>
<path fill="none" stroke="midnightblue" d="M1080.51,-143.753C1104.97,-149.126 1133.57,-155.409 1156.66,-160.48"/>
<polygon fill="midnightblue" stroke="midnightblue" points="1081.17,-140.316 1070.66,-141.589 1079.67,-147.153 1081.17,-140.316"/>
</g>
<!-- Node10 -->
<g id="node10" class="node"><title>Node10</title>
<g id="a_node10"><a xlink:href="../../dd/dea/classgui_1_1_g_u_i_scene.html#a16324ddc026310495f84e77bbb311b2c" target="_top" xlink:title="gui.GUIScene.addButtons">
<polygon fill="white" stroke="black" points="1131,-122.5 1131,-141.5 1271,-141.5 1271,-122.5 1131,-122.5"/>
<text text-anchor="middle" x="1201" y="-129.5" font-family="Helvetica,sans-Serif" font-size="10.00">gui.GUIScene.addButtons</text>
</a>
</g>
</g>
<!-- Node6&#45;&gt;Node10 -->
<g id="edge9" class="edge"><title>Node6&#45;&gt;Node10</title>
<path fill="none" stroke="midnightblue" d="M1102.5,-125.299C1111.9,-125.215 1121.46,-125.239 1130.75,-125.371"/>
<polygon fill="midnightblue" stroke="midnightblue" points="1102.36,-121.8 1092.4,-125.432 1102.45,-128.8 1102.36,-121.8"/>
</g>
<!-- Node8 -->
<g id="node8" class="node"><title>Node8</title>
<g id="a_node8"><a xlink:href="../../d6/d0e/classcontroller_1_1_s_logo_main.html#ab5379c32fef791f21ad51abde7d268c0" target="_top" xlink:title="controller.SLogoMain.start">
<polygon fill="white" stroke="black" points="1310,-179.5 1310,-198.5 1452,-198.5 1452,-179.5 1310,-179.5"/>
<text text-anchor="middle" x="1381" y="-186.5" font-family="Helvetica,sans-Serif" font-size="10.00">controller.SLogoMain.start</text>
</a>
</g>
</g>
<!-- Node7&#45;&gt;Node8 -->
<g id="edge7" class="edge"><title>Node7&#45;&gt;Node8</title>
<path fill="none" stroke="midnightblue" d="M1283.82,-178.734C1292.56,-179.666 1301.38,-180.608 1309.96,-181.524"/>
<polygon fill="midnightblue" stroke="midnightblue" points="1283.95,-175.227 1273.63,-177.646 1283.2,-182.188 1283.95,-175.227"/>
</g>
<!-- Node9 -->
<g id="node9" class="node"><title>Node9</title>
<g id="a_node9"><a xlink:href="../../dd/d48/classgui_1_1_g_u_i_start.html#a82d08814fef5331d82c4763a2426ffce" target="_top" xlink:title="gui.GUIStart.start">
<polygon fill="white" stroke="black" points="1330.5,-141.5 1330.5,-160.5 1431.5,-160.5 1431.5,-141.5 1330.5,-141.5"/>
<text text-anchor="middle" x="1381" y="-148.5" font-family="Helvetica,sans-Serif" font-size="10.00">gui.GUIStart.start</text>
</a>
</g>
</g>
<!-- Node7&#45;&gt;Node9 -->
<g id="edge8" class="edge"><title>Node7&#45;&gt;Node9</title>
<path fill="none" stroke="midnightblue" d="M1283.97,-161.25C1299.81,-159.559 1315.95,-157.837 1330.36,-156.298"/>
<polygon fill="midnightblue" stroke="midnightblue" points="1283.2,-157.812 1273.63,-162.354 1283.95,-164.773 1283.2,-157.812"/>
</g>
<!-- Node10&#45;&gt;Node6 -->
<g id="edge10" class="edge"><title>Node10&#45;&gt;Node6</title>
<path fill="none" stroke="midnightblue" d="M1120.59,-138.73C1111.15,-138.784 1101.61,-138.73 1092.4,-138.568"/>
<polygon fill="midnightblue" stroke="midnightblue" points="1120.79,-142.228 1130.75,-138.629 1120.72,-135.228 1120.79,-142.228"/>
</g>
<!-- Node11&#45;&gt;Node6 -->
<g id="edge12" class="edge"><title>Node11&#45;&gt;Node6</title>
<path fill="none" stroke="midnightblue" d="M926.45,-121.539C937.657,-122.729 949.056,-123.939 959.933,-125.093"/>
<polygon fill="midnightblue" stroke="midnightblue" points="926.545,-118.03 916.232,-120.455 925.806,-124.991 926.545,-118.03"/>
</g>
</g>
</svg>
