<?xml version="1.0" encoding="UTF-8" standalone="no"?>
<!DOCTYPE svg PUBLIC "-//W3C//DTD SVG 1.1//EN"
 "http://www.w3.org/Graphics/SVG/1.1/DTD/svg11.dtd">
<!-- Generated by graphviz version 2.36.0 (20140111.2315)
 -->
<!-- Title: simulationObjects.SLogoLine Pages: 1 -->
<svg width="250pt" height="106pt"
 viewBox="0.00 0.00 250.00 106.00" xmlns="http://www.w3.org/2000/svg" xmlns:xlink="http://www.w3.org/1999/xlink">
<g id="graph0" class="graph" transform="scale(1 1) rotate(0) translate(4 102)">
<title>simulationObjects.SLogoLine</title>
<polygon fill="white" stroke="none" points="-4,4 -4,-102 246,-102 246,4 -4,4"/>
<!-- Node1 -->
<g id="node1" class="node"><title>Node1</title>
<polygon fill="#bfbfbf" stroke="black" points="41.5,-0.5 41.5,-19.5 196.5,-19.5 196.5,-0.5 41.5,-0.5"/>
<text text-anchor="middle" x="119" y="-7.5" font-family="Helvetica,sans-Serif" font-size="10.00">simulationObjects.SLogoLine</text>
</g>
<!-- Node2 -->
<g id="node2" class="node"><title>Node2</title>
<polygon fill="white" stroke="#bfbfbf" points="0,-78.5 0,-97.5 36,-97.5 36,-78.5 0,-78.5"/>
<text text-anchor="middle" x="18" y="-85.5" font-family="Helvetica,sans-Serif" font-size="10.00">Line</text>
</g>
<!-- Node2&#45;&gt;Node1 -->
<g id="edge1" class="edge"><title>Node2&#45;&gt;Node1</title>
<path fill="none" stroke="midnightblue" d="M37.7342,-72.1505C58.533,-56.4999 90.5816,-32.3841 107.549,-19.6165"/>
<polygon fill="midnightblue" stroke="midnightblue" points="35.4721,-69.4725 29.586,-78.2818 39.6809,-75.0658 35.4721,-69.4725"/>
</g>
<!-- Node3 -->
<g id="node3" class="node"><title>Node3</title>
<g id="a_node3"><a xlink:href="../../d8/d2e/classsimulation_objects_1_1_point.html" target="_top" xlink:title="simulationObjects.Point">
<polygon fill="white" stroke="black" points="54.5,-78.5 54.5,-97.5 183.5,-97.5 183.5,-78.5 54.5,-78.5"/>
<text text-anchor="middle" x="119" y="-85.5" font-family="Helvetica,sans-Serif" font-size="10.00">simulationObjects.Point</text>
</a>
</g>
</g>
<!-- Node3&#45;&gt;Node1 -->
<g id="edge2" class="edge"><title>Node3&#45;&gt;Node1</title>
<path fill="none" stroke="#9a32cd" stroke-dasharray="5,2" d="M119,-68.2239C119,-52.6974 119,-31.3582 119,-19.6165"/>
<polygon fill="#9a32cd" stroke="#9a32cd" points="115.5,-68.2818 119,-78.2818 122.5,-68.2819 115.5,-68.2818"/>
<text text-anchor="middle" x="124" y="-52" font-family="Helvetica,sans-Serif" font-size="10.00"> a</text>
<text text-anchor="middle" x="124" y="-41" font-family="Helvetica,sans-Serif" font-size="10.00">b</text>
</g>
<!-- Node4 -->
<g id="node4" class="node"><title>Node4</title>
<polygon fill="white" stroke="#bfbfbf" points="201.5,-78.5 201.5,-97.5 242.5,-97.5 242.5,-78.5 201.5,-78.5"/>
<text text-anchor="middle" x="222" y="-85.5" font-family="Helvetica,sans-Serif" font-size="10.00">Color</text>
</g>
<!-- Node4&#45;&gt;Node1 -->
<g id="edge3" class="edge"><title>Node4&#45;&gt;Node1</title>
<path fill="none" stroke="#9a32cd" stroke-dasharray="5,2" d="M201.875,-72.1505C180.664,-56.4999 147.981,-32.3841 130.678,-19.6165"/>
<polygon fill="#9a32cd" stroke="#9a32cd" points="200.06,-75.1608 210.185,-78.2818 204.216,-69.5281 200.06,-75.1608"/>
<text text-anchor="middle" x="196.5" y="-46.5" font-family="Helvetica,sans-Serif" font-size="10.00"> color</text>
</g>
</g>
</svg>
