<?xml version="1.0" encoding="UTF-8" standalone="no"?>
<!DOCTYPE svg PUBLIC "-//W3C//DTD SVG 1.1//EN"
 "http://www.w3.org/Graphics/SVG/1.1/DTD/svg11.dtd">
<!-- Generated by graphviz version 2.36.0 (20140111.2315)
 -->
<!-- Title: /tmp/git/duke&#45;compsci308&#45;fall2014/slogo_team05/repository/src Pages: 1 -->
<svg width="865pt" height="111pt"
 viewBox="0.00 0.00 865.00 111.00" xmlns="http://www.w3.org/2000/svg" xmlns:xlink="http://www.w3.org/1999/xlink">
<g id="graph0" class="graph" transform="scale(1 1) rotate(0) translate(4 107)">
<title>/tmp/git/duke&#45;compsci308&#45;fall2014/slogo_team05/repository/src</title>
<polygon fill="white" stroke="none" points="-4,4 -4,-107 861,-107 861,4 -4,4"/>
<g id="clust1" class="cluster"><title>clusterdir_1b37b8c70a53c02a85f698967e54f1d5</title>
<g id="a_clust1"><a xlink:href="dir_1b37b8c70a53c02a85f698967e54f1d5.html" target="_top" xlink:title="repository">
<polygon fill="#ddddee" stroke="black" points="8,-8 8,-95 849,-95 849,-8 8,-8"/>
<text text-anchor="middle" x="428.5" y="-83" font-family="Helvetica,sans-Serif" font-size="10.00">repository</text>
</a>
</g>
</g>
<g id="clust2" class="cluster"><title>clusterdir_2de252140cbffb060645d6ebe19fc999</title>
<g id="a_clust2"><a xlink:href="dir_2de252140cbffb060645d6ebe19fc999.html" target="_top">
<polygon fill="#eeeeff" stroke="black" points="16,-16 16,-68 841,-68 841,-16 16,-16"/>
</a>
</g>
</g>
<!-- dir_2de252140cbffb060645d6ebe19fc999 -->
<g id="node1" class="node"><title>dir_2de252140cbffb060645d6ebe19fc999</title>
<text text-anchor="middle" x="806" y="-39.5" font-family="Helvetica,sans-Serif" font-size="10.00">src</text>
</g>
<!-- dir_a09930088842cba3de465113b7a48272 -->
<g id="node2" class="node"><title>dir_a09930088842cba3de465113b7a48272</title>
<g id="a_node2"><a xlink:href="dir_a09930088842cba3de465113b7a48272.html" target="_top" xlink:title="commands">
<polygon fill="white" stroke="black" points="760.25,-60 689.75,-60 689.75,-24 760.25,-24 760.25,-60"/>
<text text-anchor="middle" x="725" y="-39.5" font-family="Helvetica,sans-Serif" font-size="10.00">commands</text>
</a>
</g>
</g>
<!-- dir_b98ce25e76c7dfed70d4d8dc756e2f5a -->
<g id="node3" class="node"><title>dir_b98ce25e76c7dfed70d4d8dc756e2f5a</title>
<g id="a_node3"><a xlink:href="dir_b98ce25e76c7dfed70d4d8dc756e2f5a.html" target="_top" xlink:title="compiler">
<polygon fill="white" stroke="black" points="670.5,-60 613.5,-60 613.5,-24 670.5,-24 670.5,-60"/>
<text text-anchor="middle" x="642" y="-39.5" font-family="Helvetica,sans-Serif" font-size="10.00">compiler</text>
</a>
</g>
</g>
<!-- dir_59ad4953701041211c544b7af506d0ae -->
<g id="node4" class="node"><title>dir_59ad4953701041211c544b7af506d0ae</title>
<g id="a_node4"><a xlink:href="dir_59ad4953701041211c544b7af506d0ae.html" target="_top" xlink:title="controller">
<polygon fill="white" stroke="black" points="594.5,-60 533.5,-60 533.5,-24 594.5,-24 594.5,-60"/>
<text text-anchor="middle" x="564" y="-39.5" font-family="Helvetica,sans-Serif" font-size="10.00">controller</text>
</a>
</g>
</g>
<!-- dir_9ef16cc441e9a7270ddc29968cf7d056 -->
<g id="node5" class="node"><title>dir_9ef16cc441e9a7270ddc29968cf7d056</title>
<g id="a_node5"><a xlink:href="dir_9ef16cc441e9a7270ddc29968cf7d056.html" target="_top" xlink:title="exceptions">
<polygon fill="white" stroke="black" points="515,-60 447,-60 447,-24 515,-24 515,-60"/>
<text text-anchor="middle" x="481" y="-39.5" font-family="Helvetica,sans-Serif" font-size="10.00">exceptions</text>
</a>
</g>
</g>
<!-- dir_aac248c8ec2a7f3efb3ff3d1cfc7e97a -->
<g id="node6" class="node"><title>dir_aac248c8ec2a7f3efb3ff3d1cfc7e97a</title>
<g id="a_node6"><a xlink:href="dir_aac248c8ec2a7f3efb3ff3d1cfc7e97a.html" target="_top" xlink:title="gui">
<polygon fill="white" stroke="black" points="429,-60 375,-60 375,-24 429,-24 429,-60"/>
<text text-anchor="middle" x="402" y="-39.5" font-family="Helvetica,sans-Serif" font-size="10.00">gui</text>
</a>
</g>
</g>
<!-- dir_ff784e31d437d68844132f3530f730bd -->
<g id="node7" class="node"><title>dir_ff784e31d437d68844132f3530f730bd</title>
<g id="a_node7"><a xlink:href="dir_ff784e31d437d68844132f3530f730bd.html" target="_top" xlink:title="JUnitTest">
<polygon fill="white" stroke="black" points="356.25,-60 299.75,-60 299.75,-24 356.25,-24 356.25,-60"/>
<text text-anchor="middle" x="328" y="-39.5" font-family="Helvetica,sans-Serif" font-size="10.00">JUnitTest</text>
</a>
</g>
</g>
<!-- dir_85f6f0964705b46c9796c69860f199da -->
<g id="node8" class="node"><title>dir_85f6f0964705b46c9796c69860f199da</title>
<g id="a_node8"><a xlink:href="dir_85f6f0964705b46c9796c69860f199da.html" target="_top" xlink:title="properties">
<polygon fill="white" stroke="black" points="281.25,-60 216.75,-60 216.75,-24 281.25,-24 281.25,-60"/>
<text text-anchor="middle" x="249" y="-39.5" font-family="Helvetica,sans-Serif" font-size="10.00">properties</text>
</a>
</g>
</g>
<!-- dir_f4a8b77e222c9bbf9cd9df08c1b244ae -->
<g id="node9" class="node"><title>dir_f4a8b77e222c9bbf9cd9df08c1b244ae</title>
<g id="a_node9"><a xlink:href="dir_f4a8b77e222c9bbf9cd9df08c1b244ae.html" target="_top" xlink:title="simulationObjects">
<polygon fill="white" stroke="black" points="197.5,-60 96.5,-60 96.5,-24 197.5,-24 197.5,-60"/>
<text text-anchor="middle" x="147" y="-39.5" font-family="Helvetica,sans-Serif" font-size="10.00">simulationObjects</text>
</a>
</g>
</g>
<!-- dir_d77ab884c1b22326bd4a0878d36cb31e -->
<g id="node10" class="node"><title>dir_d77ab884c1b22326bd4a0878d36cb31e</title>
<g id="a_node10"><a xlink:href="dir_d77ab884c1b22326bd4a0878d36cb31e.html" target="_top" xlink:title="view">
<polygon fill="white" stroke="black" points="78,-60 24,-60 24,-24 78,-24 78,-60"/>
<text text-anchor="middle" x="51" y="-39.5" font-family="Helvetica,sans-Serif" font-size="10.00">view</text>
</a>
</g>
</g>
</g>
</svg>
