<?xml version="1.0" encoding="UTF-8" standalone="no"?>
<!DOCTYPE svg PUBLIC "-//W3C//DTD SVG 1.1//EN"
 "http://www.w3.org/Graphics/SVG/1.1/DTD/svg11.dtd">
<!-- Generated by graphviz version 2.36.0 (20140111.2315)
 -->
<!-- Title: Graphical Class Hierarchy Pages: 1 -->
<svg width="308pt" height="87pt"
 viewBox="0.00 0.00 308.00 87.00" xmlns="http://www.w3.org/2000/svg" xmlns:xlink="http://www.w3.org/1999/xlink">
<g id="graph0" class="graph" transform="scale(1 1) rotate(0) translate(4 83)">
<title>Graphical Class Hierarchy</title>
<polygon fill="white" stroke="none" points="-4,4 -4,-83 304,-83 304,4 -4,4"/>
<!-- Node1 -->
<g id="node1" class="node"><title>Node1</title>
<polygon fill="white" stroke="#bfbfbf" points="0,-29.5 0,-48.5 110,-48.5 110,-29.5 0,-29.5"/>
<text text-anchor="middle" x="55" y="-36.5" font-family="Helvetica,sans-Serif" font-size="10.00">ListResourceBundle</text>
</g>
<!-- Node2 -->
<g id="node2" class="node"><title>Node2</title>
<g id="a_node2"><a xlink:href="da/d6f/classproperties_1_1_languages_bundle__en___u_s.html" target="_top" xlink:title="properties.LanguagesBundle\l_en_US">
<polygon fill="white" stroke="black" points="146,-49 146,-79 300,-79 300,-49 146,-49"/>
<text text-anchor="start" x="154" y="-67" font-family="Helvetica,sans-Serif" font-size="10.00">properties.LanguagesBundle</text>
<text text-anchor="middle" x="223" y="-56" font-family="Helvetica,sans-Serif" font-size="10.00">_en_US</text>
</a>
</g>
</g>
<!-- Node1&#45;&gt;Node2 -->
<g id="edge1" class="edge"><title>Node1&#45;&gt;Node2</title>
<path fill="none" stroke="midnightblue" d="M120.374,-48.6949C128.716,-49.9512 137.322,-51.2473 145.832,-52.5289"/>
<polygon fill="midnightblue" stroke="midnightblue" points="120.764,-45.2143 110.355,-47.1859 119.722,-52.1362 120.764,-45.2143"/>
</g>
<!-- Node3 -->
<g id="node3" class="node"><title>Node3</title>
<g id="a_node3"><a xlink:href="d4/d5b/classproperties_1_1_languages_bundle__fr___f_r.html" target="_top" xlink:title="properties.LanguagesBundle\l_fr_FR">
<polygon fill="white" stroke="black" points="146,-0 146,-30 300,-30 300,-0 146,-0"/>
<text text-anchor="start" x="154" y="-18" font-family="Helvetica,sans-Serif" font-size="10.00">properties.LanguagesBundle</text>
<text text-anchor="middle" x="223" y="-7" font-family="Helvetica,sans-Serif" font-size="10.00">_fr_FR</text>
</a>
</g>
</g>
<!-- Node1&#45;&gt;Node3 -->
<g id="edge2" class="edge"><title>Node1&#45;&gt;Node3</title>
<path fill="none" stroke="midnightblue" d="M120.374,-29.6929C128.716,-28.4869 137.322,-27.2426 145.832,-26.0122"/>
<polygon fill="midnightblue" stroke="midnightblue" points="119.751,-26.2465 110.355,-31.1415 120.753,-33.1745 119.751,-26.2465"/>
</g>
</g>
</svg>
