<?xml version="1.0" encoding="UTF-8" standalone="no"?>
<!DOCTYPE svg PUBLIC "-//W3C//DTD SVG 1.1//EN"
 "http://www.w3.org/Graphics/SVG/1.1/DTD/svg11.dtd">
<!-- Generated by graphviz version 2.36.0 (20140111.2315)
 -->
<!-- Title: Graphical Class Hierarchy Pages: 1 -->
<svg width="230pt" height="66pt"
 viewBox="0.00 0.00 230.00 66.00" xmlns="http://www.w3.org/2000/svg" xmlns:xlink="http://www.w3.org/1999/xlink">
<g id="graph0" class="graph" transform="scale(1 1) rotate(0) translate(4 62)">
<title>Graphical Class Hierarchy</title>
<polygon fill="white" stroke="none" points="-4,4 -4,-62 226,-62 226,4 -4,4"/>
<!-- Node1 -->
<g id="node1" class="node"><title>Node1</title>
<polygon fill="white" stroke="#bfbfbf" points="0.5,-19.5 0.5,-38.5 69.5,-38.5 69.5,-19.5 0.5,-19.5"/>
<text text-anchor="middle" x="35" y="-26.5" font-family="Helvetica,sans-Serif" font-size="10.00">Application</text>
</g>
<!-- Node2 -->
<g id="node2" class="node"><title>Node2</title>
<g id="a_node2"><a xlink:href="d6/d0e/classcontroller_1_1_s_logo_main.html" target="_top" xlink:title="controller.SLogoMain">
<polygon fill="white" stroke="black" points="106,-38.5 106,-57.5 222,-57.5 222,-38.5 106,-38.5"/>
<text text-anchor="middle" x="164" y="-45.5" font-family="Helvetica,sans-Serif" font-size="10.00">controller.SLogoMain</text>
</a>
</g>
</g>
<!-- Node1&#45;&gt;Node2 -->
<g id="edge1" class="edge"><title>Node1&#45;&gt;Node2</title>
<path fill="none" stroke="midnightblue" d="M79.6026,-35.5232C87.9658,-36.7744 96.8412,-38.1022 105.563,-39.407"/>
<polygon fill="midnightblue" stroke="midnightblue" points="80.1081,-32.06 69.7002,-34.0418 79.0723,-38.9829 80.1081,-32.06"/>
</g>
<!-- Node3 -->
<g id="node3" class="node"><title>Node3</title>
<g id="a_node3"><a xlink:href="dd/d48/classgui_1_1_g_u_i_start.html" target="_top" xlink:title="gui.GUIStart">
<polygon fill="white" stroke="black" points="126.5,-0.5 126.5,-19.5 201.5,-19.5 201.5,-0.5 126.5,-0.5"/>
<text text-anchor="middle" x="164" y="-7.5" font-family="Helvetica,sans-Serif" font-size="10.00">gui.GUIStart</text>
</a>
</g>
</g>
<!-- Node1&#45;&gt;Node3 -->
<g id="edge2" class="edge"><title>Node1&#45;&gt;Node3</title>
<path fill="none" stroke="midnightblue" d="M79.9006,-22.4322C95.0877,-20.1601 111.933,-17.6399 126.465,-15.4659"/>
<polygon fill="midnightblue" stroke="midnightblue" points="79.0723,-19.0171 69.7002,-23.9582 80.1081,-25.94 79.0723,-19.0171"/>
</g>
</g>
</svg>
