<?xml version="1.0" encoding="UTF-8" standalone="no"?>
<!DOCTYPE svg PUBLIC "-//W3C//DTD SVG 1.1//EN"
 "http://www.w3.org/Graphics/SVG/1.1/DTD/svg11.dtd">
<!-- Generated by graphviz version 2.36.0 (20140111.2315)
 -->
<!-- Title: compiler.Compiler.interpreter Pages: 1 -->
<svg width="1260pt" height="207pt"
 viewBox="0.00 0.00 1260.00 207.00" xmlns="http://www.w3.org/2000/svg" xmlns:xlink="http://www.w3.org/1999/xlink">
<g id="graph0" class="graph" transform="scale(1 1) rotate(0) translate(4 203)">
<title>compiler.Compiler.interpreter</title>
<polygon fill="white" stroke="none" points="-4,4 -4,-203 1256,-203 1256,4 -4,4"/>
<!-- Node1 -->
<g id="node1" class="node"><title>Node1</title>
<polygon fill="#bfbfbf" stroke="black" points="0,-78.5 0,-97.5 156,-97.5 156,-78.5 0,-78.5"/>
<text text-anchor="middle" x="78" y="-85.5" font-family="Helvetica,sans-Serif" font-size="10.00">compiler.Compiler.interpreter</text>
</g>
<!-- Node2 -->
<g id="node2" class="node"><title>Node2</title>
<g id="a_node2"><a xlink:href="../../db/d93/classcompiler_1_1_compiler.html#a8a90aa273bacff724a034959914a4c2d" target="_top" xlink:title="compiler.Compiler.compile">
<polygon fill="white" stroke="black" points="192.5,-78.5 192.5,-97.5 335.5,-97.5 335.5,-78.5 192.5,-78.5"/>
<text text-anchor="middle" x="264" y="-85.5" font-family="Helvetica,sans-Serif" font-size="10.00">compiler.Compiler.compile</text>
</a>
</g>
</g>
<!-- Node1&#45;&gt;Node2 -->
<g id="edge1" class="edge"><title>Node1&#45;&gt;Node2</title>
<path fill="none" stroke="midnightblue" d="M166.419,-88C175.134,-88 183.904,-88 192.415,-88"/>
<polygon fill="midnightblue" stroke="midnightblue" points="166.233,-84.5001 156.233,-88 166.233,-91.5001 166.233,-84.5001"/>
</g>
<!-- Node3 -->
<g id="node3" class="node"><title>Node3</title>
<g id="a_node3"><a xlink:href="../../db/d93/classcompiler_1_1_compiler.html#a90d16b98c8e950bbaf772f5b93092a3f" target="_top" xlink:title="compiler.Compiler.main">
<polygon fill="white" stroke="black" points="386.5,-147.5 386.5,-166.5 515.5,-166.5 515.5,-147.5 386.5,-147.5"/>
<text text-anchor="middle" x="451" y="-154.5" font-family="Helvetica,sans-Serif" font-size="10.00">compiler.Compiler.main</text>
</a>
</g>
</g>
<!-- Node2&#45;&gt;Node3 -->
<g id="edge2" class="edge"><title>Node2&#45;&gt;Node3</title>
<path fill="none" stroke="midnightblue" d="M292.232,-102.112C313.53,-112.743 344.107,-127.126 372,-137 383.202,-140.965 395.564,-144.502 407.081,-147.458"/>
<polygon fill="midnightblue" stroke="midnightblue" points="293.647,-98.9049 283.143,-97.5207 290.491,-105.153 293.647,-98.9049"/>
</g>
<!-- Node4 -->
<g id="node4" class="node"><title>Node4</title>
<g id="a_node4"><a xlink:href="../../db/d32/classcontroller_1_1_main_controller.html#a6badeb343877f4b50f069b47afed495c" target="_top" xlink:title="controller.MainController.pass\lInput">
<polygon fill="white" stroke="black" points="372,-98 372,-128 530,-128 530,-98 372,-98"/>
<text text-anchor="start" x="380" y="-116" font-family="Helvetica,sans-Serif" font-size="10.00">controller.MainController.pass</text>
<text text-anchor="middle" x="451" y="-105" font-family="Helvetica,sans-Serif" font-size="10.00">Input</text>
</a>
</g>
</g>
<!-- Node2&#45;&gt;Node4 -->
<g id="edge3" class="edge"><title>Node2&#45;&gt;Node4</title>
<path fill="none" stroke="midnightblue" d="M345.565,-98.8872C354.238,-100.059 363.053,-101.25 371.698,-102.419"/>
<polygon fill="midnightblue" stroke="midnightblue" points="345.847,-95.3935 335.468,-97.5227 344.909,-102.33 345.847,-95.3935"/>
</g>
<!-- Node12 -->
<g id="node12" class="node"><title>Node12</title>
<g id="a_node12"><a xlink:href="../../d8/ded/class_j_unit_test_1_1_compiler_test.html#a4132f77013965dda40f6d62699de349a" target="_top" xlink:title="JUnitTest.CompilerTest.test\lGrammarException">
<polygon fill="white" stroke="black" points="379.5,-49 379.5,-79 522.5,-79 522.5,-49 379.5,-49"/>
<text text-anchor="start" x="387.5" y="-67" font-family="Helvetica,sans-Serif" font-size="10.00">JUnitTest.CompilerTest.test</text>
<text text-anchor="middle" x="451" y="-56" font-family="Helvetica,sans-Serif" font-size="10.00">GrammarException</text>
</a>
</g>
</g>
<!-- Node2&#45;&gt;Node12 -->
<g id="edge13" class="edge"><title>Node2&#45;&gt;Node12</title>
<path fill="none" stroke="midnightblue" d="M345.876,-77.508C357.011,-76.0635 368.374,-74.5893 379.307,-73.171"/>
<polygon fill="midnightblue" stroke="midnightblue" points="345.199,-74.0664 335.732,-78.8239 346.1,-81.0082 345.199,-74.0664"/>
</g>
<!-- Node13 -->
<g id="node13" class="node"><title>Node13</title>
<g id="a_node13"><a xlink:href="../../d8/ded/class_j_unit_test_1_1_compiler_test.html#accbcdde8d934dd7acc552820845d6b0f" target="_top" xlink:title="JUnitTest.CompilerTest.test\lSyntaxException">
<polygon fill="white" stroke="black" points="379.5,-0 379.5,-30 522.5,-30 522.5,-0 379.5,-0"/>
<text text-anchor="start" x="387.5" y="-18" font-family="Helvetica,sans-Serif" font-size="10.00">JUnitTest.CompilerTest.test</text>
<text text-anchor="middle" x="451" y="-7" font-family="Helvetica,sans-Serif" font-size="10.00">SyntaxException</text>
</a>
</g>
</g>
<!-- Node2&#45;&gt;Node13 -->
<g id="edge14" class="edge"><title>Node2&#45;&gt;Node13</title>
<path fill="none" stroke="midnightblue" d="M293.598,-74.1227C314.942,-64.024 344.961,-50.3608 372,-40 381.03,-36.54 390.766,-33.1542 400.196,-30.0473"/>
<polygon fill="midnightblue" stroke="midnightblue" points="291.965,-71.0241 284.444,-78.4871 294.977,-77.3427 291.965,-71.0241"/>
</g>
<!-- Node5 -->
<g id="node5" class="node"><title>Node5</title>
<g id="a_node5"><a xlink:href="../../dd/dea/classgui_1_1_g_u_i_scene.html#a7cb2b00ed820aecde169a5e14cf0d468" target="_top" xlink:title="gui.GUIScene.createGUI">
<polygon fill="white" stroke="black" points="760,-122.5 760,-141.5 892,-141.5 892,-122.5 760,-122.5"/>
<text text-anchor="middle" x="826" y="-129.5" font-family="Helvetica,sans-Serif" font-size="10.00">gui.GUIScene.createGUI</text>
</a>
</g>
</g>
<!-- Node4&#45;&gt;Node5 -->
<g id="edge4" class="edge"><title>Node4&#45;&gt;Node5</title>
<path fill="none" stroke="midnightblue" d="M540.389,-129.202C549.02,-130.341 557.664,-131.31 566,-132 631.874,-137.452 707.495,-136.643 759.949,-134.965"/>
<polygon fill="midnightblue" stroke="midnightblue" points="540.67,-125.707 530.283,-127.793 539.704,-132.64 540.67,-125.707"/>
</g>
<!-- Node10 -->
<g id="node10" class="node"><title>Node10</title>
<g id="a_node10"><a xlink:href="../../dd/dea/classgui_1_1_g_u_i_scene.html#a47e424a495817f5806f45064f77a632b" target="_top" xlink:title="gui.GUIScene.getRightBox">
<polygon fill="white" stroke="black" points="574,-103.5 574,-122.5 716,-122.5 716,-103.5 574,-103.5"/>
<text text-anchor="middle" x="645" y="-110.5" font-family="Helvetica,sans-Serif" font-size="10.00">gui.GUIScene.getRightBox</text>
</a>
</g>
</g>
<!-- Node4&#45;&gt;Node10 -->
<g id="edge10" class="edge"><title>Node4&#45;&gt;Node10</title>
<path fill="none" stroke="midnightblue" d="M540.315,-113C551.507,-113 562.84,-113 573.699,-113"/>
<polygon fill="midnightblue" stroke="midnightblue" points="540.094,-109.5 530.094,-113 540.094,-116.5 540.094,-109.5"/>
</g>
<!-- Node11 -->
<g id="node11" class="node"><title>Node11</title>
<g id="a_node11"><a xlink:href="../../d6/d6a/class_j_unit_test_1_1_backend_a_p_i_test.html#a86dd50c40468e1647c7c01614dc7d30d" target="_top" xlink:title="JUnitTest.BackendAPITest.test">
<polygon fill="white" stroke="black" points="566.5,-65.5 566.5,-84.5 723.5,-84.5 723.5,-65.5 566.5,-65.5"/>
<text text-anchor="middle" x="645" y="-72.5" font-family="Helvetica,sans-Serif" font-size="10.00">JUnitTest.BackendAPITest.test</text>
</a>
</g>
</g>
<!-- Node4&#45;&gt;Node11 -->
<g id="edge12" class="edge"><title>Node4&#45;&gt;Node11</title>
<path fill="none" stroke="midnightblue" d="M537.921,-95.9949C557.856,-92.0493 578.377,-87.9878 595.995,-84.5009"/>
<polygon fill="midnightblue" stroke="midnightblue" points="537.014,-92.6064 527.883,-97.9814 538.373,-99.4732 537.014,-92.6064"/>
</g>
<!-- Node6 -->
<g id="node6" class="node"><title>Node6</title>
<g id="a_node6"><a xlink:href="../../dd/dea/classgui_1_1_g_u_i_scene.html#a74967ac937baee81b9eec1b2bc38167c" target="_top" xlink:title="gui.GUIScene.createScene">
<polygon fill="white" stroke="black" points="928.5,-160.5 928.5,-179.5 1073.5,-179.5 1073.5,-160.5 928.5,-160.5"/>
<text text-anchor="middle" x="1001" y="-167.5" font-family="Helvetica,sans-Serif" font-size="10.00">gui.GUIScene.createScene</text>
</a>
</g>
</g>
<!-- Node5&#45;&gt;Node6 -->
<g id="edge5" class="edge"><title>Node5&#45;&gt;Node6</title>
<path fill="none" stroke="midnightblue" d="M880.505,-143.753C904.967,-149.126 933.571,-155.409 956.659,-160.48"/>
<polygon fill="midnightblue" stroke="midnightblue" points="881.173,-140.316 870.655,-141.589 879.671,-147.153 881.173,-140.316"/>
</g>
<!-- Node9 -->
<g id="node9" class="node"><title>Node9</title>
<g id="a_node9"><a xlink:href="../../dd/dea/classgui_1_1_g_u_i_scene.html#a16324ddc026310495f84e77bbb311b2c" target="_top" xlink:title="gui.GUIScene.addButtons">
<polygon fill="white" stroke="black" points="931,-122.5 931,-141.5 1071,-141.5 1071,-122.5 931,-122.5"/>
<text text-anchor="middle" x="1001" y="-129.5" font-family="Helvetica,sans-Serif" font-size="10.00">gui.GUIScene.addButtons</text>
</a>
</g>
</g>
<!-- Node5&#45;&gt;Node9 -->
<g id="edge8" class="edge"><title>Node5&#45;&gt;Node9</title>
<path fill="none" stroke="midnightblue" d="M902.504,-125.299C911.896,-125.215 921.463,-125.239 930.754,-125.371"/>
<polygon fill="midnightblue" stroke="midnightblue" points="902.357,-121.8 892.404,-125.432 902.449,-128.8 902.357,-121.8"/>
</g>
<!-- Node7 -->
<g id="node7" class="node"><title>Node7</title>
<g id="a_node7"><a xlink:href="../../d6/d0e/classcontroller_1_1_s_logo_main.html#ab5379c32fef791f21ad51abde7d268c0" target="_top" xlink:title="controller.SLogoMain.start">
<polygon fill="white" stroke="black" points="1110,-179.5 1110,-198.5 1252,-198.5 1252,-179.5 1110,-179.5"/>
<text text-anchor="middle" x="1181" y="-186.5" font-family="Helvetica,sans-Serif" font-size="10.00">controller.SLogoMain.start</text>
</a>
</g>
</g>
<!-- Node6&#45;&gt;Node7 -->
<g id="edge6" class="edge"><title>Node6&#45;&gt;Node7</title>
<path fill="none" stroke="midnightblue" d="M1083.82,-178.734C1092.56,-179.666 1101.38,-180.608 1109.96,-181.524"/>
<polygon fill="midnightblue" stroke="midnightblue" points="1083.95,-175.227 1073.63,-177.646 1083.2,-182.188 1083.95,-175.227"/>
</g>
<!-- Node8 -->
<g id="node8" class="node"><title>Node8</title>
<g id="a_node8"><a xlink:href="../../dd/d48/classgui_1_1_g_u_i_start.html#a82d08814fef5331d82c4763a2426ffce" target="_top" xlink:title="gui.GUIStart.start">
<polygon fill="white" stroke="black" points="1130.5,-141.5 1130.5,-160.5 1231.5,-160.5 1231.5,-141.5 1130.5,-141.5"/>
<text text-anchor="middle" x="1181" y="-148.5" font-family="Helvetica,sans-Serif" font-size="10.00">gui.GUIStart.start</text>
</a>
</g>
</g>
<!-- Node6&#45;&gt;Node8 -->
<g id="edge7" class="edge"><title>Node6&#45;&gt;Node8</title>
<path fill="none" stroke="midnightblue" d="M1083.97,-161.25C1099.81,-159.559 1115.95,-157.837 1130.36,-156.298"/>
<polygon fill="midnightblue" stroke="midnightblue" points="1083.2,-157.812 1073.63,-162.354 1083.95,-164.773 1083.2,-157.812"/>
</g>
<!-- Node9&#45;&gt;Node5 -->
<g id="edge9" class="edge"><title>Node9&#45;&gt;Node5</title>
<path fill="none" stroke="midnightblue" d="M920.585,-138.73C911.154,-138.784 901.609,-138.73 892.404,-138.568"/>
<polygon fill="midnightblue" stroke="midnightblue" points="920.789,-142.228 930.754,-138.629 920.719,-135.228 920.789,-142.228"/>
</g>
<!-- Node10&#45;&gt;Node5 -->
<g id="edge11" class="edge"><title>Node10&#45;&gt;Node5</title>
<path fill="none" stroke="midnightblue" d="M726.45,-121.539C737.657,-122.729 749.056,-123.939 759.933,-125.093"/>
<polygon fill="midnightblue" stroke="midnightblue" points="726.545,-118.03 716.232,-120.455 725.806,-124.991 726.545,-118.03"/>
</g>
</g>
</svg>
