<?xml version="1.0" encoding="UTF-8" standalone="no"?>
<!DOCTYPE svg PUBLIC "-//W3C//DTD SVG 1.1//EN"
 "http://www.w3.org/Graphics/SVG/1.1/DTD/svg11.dtd">
<!-- Generated by graphviz version 2.36.0 (20140111.2315)
 -->
<!-- Title: compiler.Compiler.symbolTableGeneration Pages: 1 -->
<!--zoomable 207 -->
<svg id="main" version="1.1" xmlns="http://www.w3.org/2000/svg" xmlns:xlink="http://www.w3.org/1999/xlink" xml:space="preserve" onload="init(evt)">
<style type="text/css"><![CDATA[
.edge:hover path { stroke: red; }
.edge:hover polygon { stroke: red; fill: red; }
]]></style>
<script type="text/javascript"><![CDATA[
var edges = document.getElementsByTagName('g');
if (edges && edges.length) {
  for (var i=0;i<edges.length;i++) {
    if (edges[i].id.substr(0,4)=='edge') {
      edges[i].setAttribute('class','edge');
    }
  }
}
]]></script>
        <defs>
                <circle id="rim" cx="0" cy="0" r="7"/>
                <circle id="rim2" cx="0" cy="0" r="3.5"/>
                <g id="zoomPlus">
                        <use xlink:href="#rim" fill="#404040">
                                <set attributeName="fill" to="#808080" begin="zoomplus.mouseover" end="zoomplus.mouseout"/>
                        </use>
                        <path d="M-4,0h8M0,-4v8" fill="none" stroke="white" stroke-width="1.5" pointer-events="none"/>
                </g>
                <g id="zoomMin">
                        <use xlink:href="#rim" fill="#404040">
                                <set attributeName="fill" to="#808080" begin="zoomminus.mouseover" end="zoomminus.mouseout"/>
                        </use>
                        <path d="M-4,0h8" fill="none" stroke="white" stroke-width="1.5" pointer-events="none"/>
                </g>
                <g id="dirArrow">
                        <path fill="none" stroke="white" stroke-width="1.5" d="M0,-3.0v7 M-2.5,-0.5L0,-3.0L2.5,-0.5"/>
                </g>
               <g id="resetDef">
                       <use xlink:href="#rim2" fill="#404040">
                               <set attributeName="fill" to="#808080" begin="reset.mouseover" end="reset.mouseout"/>
                       </use>
               </g>
        </defs>

<script type="text/javascript">
var viewWidth = 1424;
var viewHeight = 207;
var sectionId = 'dynsection-13';
</script>
<script xlink:href="../../svgpan.js"/>
<svg id="graph" class="graph">
<g id="viewport">
<title>compiler.Compiler.symbolTableGeneration</title>
<polygon fill="white" stroke="none" points="-4,4 -4,-203 1420,-203 1420,4 -4,4"/>
<!-- Node1 -->
<g id="node1" class="node"><title>Node1</title>
<polygon fill="#bfbfbf" stroke="black" points="0,-73 0,-103 140,-103 140,-73 0,-73"/>
<text text-anchor="start" x="8" y="-91" font-family="Helvetica,sans-Serif" font-size="10.00">compiler.Compiler.symbol</text>
<text text-anchor="middle" x="70" y="-80" font-family="Helvetica,sans-Serif" font-size="10.00">TableGeneration</text>
</g>
<!-- Node2 -->
<g id="node2" class="node"><title>Node2</title>
<g id="a_node2"><a xlink:href="../../db/d93/classcompiler_1_1_compiler.html#ab49c76c1486c30d921d07022a1be4971" target="_top" xlink:title="compiler.Compiler.scanner">
<polygon fill="white" stroke="black" points="176.5,-78.5 176.5,-97.5 319.5,-97.5 319.5,-78.5 176.5,-78.5"/>
<text text-anchor="middle" x="248" y="-85.5" font-family="Helvetica,sans-Serif" font-size="10.00">compiler.Compiler.scanner</text>
</a>
</g>
</g>
<!-- Node1&#45;&gt;Node2 -->
<g id="edge1" class="edge"><title>Node1&#45;&gt;Node2</title>
<path fill="none" stroke="midnightblue" d="M150.226,-88C158.953,-88 167.796,-88 176.408,-88"/>
<polygon fill="midnightblue" stroke="midnightblue" points="150.055,-84.5001 140.055,-88 150.055,-91.5001 150.055,-84.5001"/>
</g>
<!-- Node3 -->
<g id="node3" class="node"><title>Node3</title>
<g id="a_node3"><a xlink:href="../../db/d93/classcompiler_1_1_compiler.html#a8a90aa273bacff724a034959914a4c2d" target="_top" xlink:title="compiler.Compiler.compile">
<polygon fill="white" stroke="black" points="356.5,-78.5 356.5,-97.5 499.5,-97.5 499.5,-78.5 356.5,-78.5"/>
<text text-anchor="middle" x="428" y="-85.5" font-family="Helvetica,sans-Serif" font-size="10.00">compiler.Compiler.compile</text>
</a>
</g>
</g>
<!-- Node2&#45;&gt;Node3 -->
<g id="edge2" class="edge"><title>Node2&#45;&gt;Node3</title>
<path fill="none" stroke="midnightblue" d="M329.646,-88C338.599,-88 347.666,-88 356.479,-88"/>
<polygon fill="midnightblue" stroke="midnightblue" points="329.606,-84.5001 319.606,-88 329.606,-91.5001 329.606,-84.5001"/>
</g>
<!-- Node4 -->
<g id="node4" class="node"><title>Node4</title>
<g id="a_node4"><a xlink:href="../../db/d93/classcompiler_1_1_compiler.html#a90d16b98c8e950bbaf772f5b93092a3f" target="_top" xlink:title="compiler.Compiler.main">
<polygon fill="white" stroke="black" points="550.5,-147.5 550.5,-166.5 679.5,-166.5 679.5,-147.5 550.5,-147.5"/>
<text text-anchor="middle" x="615" y="-154.5" font-family="Helvetica,sans-Serif" font-size="10.00">compiler.Compiler.main</text>
</a>
</g>
</g>
<!-- Node3&#45;&gt;Node4 -->
<g id="edge3" class="edge"><title>Node3&#45;&gt;Node4</title>
<path fill="none" stroke="midnightblue" d="M456.232,-102.112C477.53,-112.743 508.107,-127.126 536,-137 547.202,-140.965 559.564,-144.502 571.081,-147.458"/>
<polygon fill="midnightblue" stroke="midnightblue" points="457.647,-98.9049 447.143,-97.5207 454.491,-105.153 457.647,-98.9049"/>
</g>
<!-- Node5 -->
<g id="node5" class="node"><title>Node5</title>
<g id="a_node5"><a xlink:href="../../db/d32/classcontroller_1_1_main_controller.html#a6badeb343877f4b50f069b47afed495c" target="_top" xlink:title="controller.MainController.pass\lInput">
<polygon fill="white" stroke="black" points="536,-98 536,-128 694,-128 694,-98 536,-98"/>
<text text-anchor="start" x="544" y="-116" font-family="Helvetica,sans-Serif" font-size="10.00">controller.MainController.pass</text>
<text text-anchor="middle" x="615" y="-105" font-family="Helvetica,sans-Serif" font-size="10.00">Input</text>
</a>
</g>
</g>
<!-- Node3&#45;&gt;Node5 -->
<g id="edge4" class="edge"><title>Node3&#45;&gt;Node5</title>
<path fill="none" stroke="midnightblue" d="M509.565,-98.8872C518.238,-100.059 527.053,-101.25 535.698,-102.419"/>
<polygon fill="midnightblue" stroke="midnightblue" points="509.847,-95.3935 499.468,-97.5227 508.909,-102.33 509.847,-95.3935"/>
</g>
<!-- Node13 -->
<g id="node13" class="node"><title>Node13</title>
<g id="a_node13"><a xlink:href="../../d8/ded/class_j_unit_test_1_1_compiler_test.html#a4132f77013965dda40f6d62699de349a" target="_top" xlink:title="JUnitTest.CompilerTest.test\lGrammarException">
<polygon fill="white" stroke="black" points="543.5,-49 543.5,-79 686.5,-79 686.5,-49 543.5,-49"/>
<text text-anchor="start" x="551.5" y="-67" font-family="Helvetica,sans-Serif" font-size="10.00">JUnitTest.CompilerTest.test</text>
<text text-anchor="middle" x="615" y="-56" font-family="Helvetica,sans-Serif" font-size="10.00">GrammarException</text>
</a>
</g>
</g>
<!-- Node3&#45;&gt;Node13 -->
<g id="edge14" class="edge"><title>Node3&#45;&gt;Node13</title>
<path fill="none" stroke="midnightblue" d="M509.876,-77.508C521.011,-76.0635 532.374,-74.5893 543.307,-73.171"/>
<polygon fill="midnightblue" stroke="midnightblue" points="509.199,-74.0664 499.732,-78.8239 510.1,-81.0082 509.199,-74.0664"/>
</g>
<!-- Node14 -->
<g id="node14" class="node"><title>Node14</title>
<g id="a_node14"><a xlink:href="../../d8/ded/class_j_unit_test_1_1_compiler_test.html#accbcdde8d934dd7acc552820845d6b0f" target="_top" xlink:title="JUnitTest.CompilerTest.test\lSyntaxException">
<polygon fill="white" stroke="black" points="543.5,-0 543.5,-30 686.5,-30 686.5,-0 543.5,-0"/>
<text text-anchor="start" x="551.5" y="-18" font-family="Helvetica,sans-Serif" font-size="10.00">JUnitTest.CompilerTest.test</text>
<text text-anchor="middle" x="615" y="-7" font-family="Helvetica,sans-Serif" font-size="10.00">SyntaxException</text>
</a>
</g>
</g>
<!-- Node3&#45;&gt;Node14 -->
<g id="edge15" class="edge"><title>Node3&#45;&gt;Node14</title>
<path fill="none" stroke="midnightblue" d="M457.598,-74.1227C478.942,-64.024 508.961,-50.3608 536,-40 545.03,-36.54 554.766,-33.1542 564.196,-30.0473"/>
<polygon fill="midnightblue" stroke="midnightblue" points="455.965,-71.0241 448.444,-78.4871 458.977,-77.3427 455.965,-71.0241"/>
</g>
<!-- Node6 -->
<g id="node6" class="node"><title>Node6</title>
<g id="a_node6"><a xlink:href="../../dd/dea/classgui_1_1_g_u_i_scene.html#a7cb2b00ed820aecde169a5e14cf0d468" target="_top" xlink:title="gui.GUIScene.createGUI">
<polygon fill="white" stroke="black" points="924,-122.5 924,-141.5 1056,-141.5 1056,-122.5 924,-122.5"/>
<text text-anchor="middle" x="990" y="-129.5" font-family="Helvetica,sans-Serif" font-size="10.00">gui.GUIScene.createGUI</text>
</a>
</g>
</g>
<!-- Node5&#45;&gt;Node6 -->
<g id="edge5" class="edge"><title>Node5&#45;&gt;Node6</title>
<path fill="none" stroke="midnightblue" d="M704.389,-129.202C713.02,-130.341 721.664,-131.31 730,-132 795.874,-137.452 871.495,-136.643 923.949,-134.965"/>
<polygon fill="midnightblue" stroke="midnightblue" points="704.67,-125.707 694.283,-127.793 703.704,-132.64 704.67,-125.707"/>
</g>
<!-- Node11 -->
<g id="node11" class="node"><title>Node11</title>
<g id="a_node11"><a xlink:href="../../dd/dea/classgui_1_1_g_u_i_scene.html#a47e424a495817f5806f45064f77a632b" target="_top" xlink:title="gui.GUIScene.getRightBox">
<polygon fill="white" stroke="black" points="738,-103.5 738,-122.5 880,-122.5 880,-103.5 738,-103.5"/>
<text text-anchor="middle" x="809" y="-110.5" font-family="Helvetica,sans-Serif" font-size="10.00">gui.GUIScene.getRightBox</text>
</a>
</g>
</g>
<!-- Node5&#45;&gt;Node11 -->
<g id="edge11" class="edge"><title>Node5&#45;&gt;Node11</title>
<path fill="none" stroke="midnightblue" d="M704.315,-113C715.507,-113 726.84,-113 737.699,-113"/>
<polygon fill="midnightblue" stroke="midnightblue" points="704.094,-109.5 694.094,-113 704.094,-116.5 704.094,-109.5"/>
</g>
<!-- Node12 -->
<g id="node12" class="node"><title>Node12</title>
<g id="a_node12"><a xlink:href="../../d6/d6a/class_j_unit_test_1_1_backend_a_p_i_test.html#a86dd50c40468e1647c7c01614dc7d30d" target="_top" xlink:title="JUnitTest.BackendAPITest.test">
<polygon fill="white" stroke="black" points="730.5,-65.5 730.5,-84.5 887.5,-84.5 887.5,-65.5 730.5,-65.5"/>
<text text-anchor="middle" x="809" y="-72.5" font-family="Helvetica,sans-Serif" font-size="10.00">JUnitTest.BackendAPITest.test</text>
</a>
</g>
</g>
<!-- Node5&#45;&gt;Node12 -->
<g id="edge13" class="edge"><title>Node5&#45;&gt;Node12</title>
<path fill="none" stroke="midnightblue" d="M701.921,-95.9949C721.856,-92.0493 742.377,-87.9878 759.995,-84.5009"/>
<polygon fill="midnightblue" stroke="midnightblue" points="701.014,-92.6064 691.883,-97.9814 702.373,-99.4732 701.014,-92.6064"/>
</g>
<!-- Node7 -->
<g id="node7" class="node"><title>Node7</title>
<g id="a_node7"><a xlink:href="../../dd/dea/classgui_1_1_g_u_i_scene.html#a74967ac937baee81b9eec1b2bc38167c" target="_top" xlink:title="gui.GUIScene.createScene">
<polygon fill="white" stroke="black" points="1092.5,-160.5 1092.5,-179.5 1237.5,-179.5 1237.5,-160.5 1092.5,-160.5"/>
<text text-anchor="middle" x="1165" y="-167.5" font-family="Helvetica,sans-Serif" font-size="10.00">gui.GUIScene.createScene</text>
</a>
</g>
</g>
<!-- Node6&#45;&gt;Node7 -->
<g id="edge6" class="edge"><title>Node6&#45;&gt;Node7</title>
<path fill="none" stroke="midnightblue" d="M1044.51,-143.753C1068.97,-149.126 1097.57,-155.409 1120.66,-160.48"/>
<polygon fill="midnightblue" stroke="midnightblue" points="1045.17,-140.316 1034.66,-141.589 1043.67,-147.153 1045.17,-140.316"/>
</g>
<!-- Node10 -->
<g id="node10" class="node"><title>Node10</title>
<g id="a_node10"><a xlink:href="../../dd/dea/classgui_1_1_g_u_i_scene.html#a16324ddc026310495f84e77bbb311b2c" target="_top" xlink:title="gui.GUIScene.addButtons">
<polygon fill="white" stroke="black" points="1095,-122.5 1095,-141.5 1235,-141.5 1235,-122.5 1095,-122.5"/>
<text text-anchor="middle" x="1165" y="-129.5" font-family="Helvetica,sans-Serif" font-size="10.00">gui.GUIScene.addButtons</text>
</a>
</g>
</g>
<!-- Node6&#45;&gt;Node10 -->
<g id="edge9" class="edge"><title>Node6&#45;&gt;Node10</title>
<path fill="none" stroke="midnightblue" d="M1066.5,-125.299C1075.9,-125.215 1085.46,-125.239 1094.75,-125.371"/>
<polygon fill="midnightblue" stroke="midnightblue" points="1066.36,-121.8 1056.4,-125.432 1066.45,-128.8 1066.36,-121.8"/>
</g>
<!-- Node8 -->
<g id="node8" class="node"><title>Node8</title>
<g id="a_node8"><a xlink:href="../../d6/d0e/classcontroller_1_1_s_logo_main.html#ab5379c32fef791f21ad51abde7d268c0" target="_top" xlink:title="controller.SLogoMain.start">
<polygon fill="white" stroke="black" points="1274,-179.5 1274,-198.5 1416,-198.5 1416,-179.5 1274,-179.5"/>
<text text-anchor="middle" x="1345" y="-186.5" font-family="Helvetica,sans-Serif" font-size="10.00">controller.SLogoMain.start</text>
</a>
</g>
</g>
<!-- Node7&#45;&gt;Node8 -->
<g id="edge7" class="edge"><title>Node7&#45;&gt;Node8</title>
<path fill="none" stroke="midnightblue" d="M1247.82,-178.734C1256.56,-179.666 1265.38,-180.608 1273.96,-181.524"/>
<polygon fill="midnightblue" stroke="midnightblue" points="1247.95,-175.227 1237.63,-177.646 1247.2,-182.188 1247.95,-175.227"/>
</g>
<!-- Node9 -->
<g id="node9" class="node"><title>Node9</title>
<g id="a_node9"><a xlink:href="../../dd/d48/classgui_1_1_g_u_i_start.html#a82d08814fef5331d82c4763a2426ffce" target="_top" xlink:title="gui.GUIStart.start">
<polygon fill="white" stroke="black" points="1294.5,-141.5 1294.5,-160.5 1395.5,-160.5 1395.5,-141.5 1294.5,-141.5"/>
<text text-anchor="middle" x="1345" y="-148.5" font-family="Helvetica,sans-Serif" font-size="10.00">gui.GUIStart.start</text>
</a>
</g>
</g>
<!-- Node7&#45;&gt;Node9 -->
<g id="edge8" class="edge"><title>Node7&#45;&gt;Node9</title>
<path fill="none" stroke="midnightblue" d="M1247.97,-161.25C1263.81,-159.559 1279.95,-157.837 1294.36,-156.298"/>
<polygon fill="midnightblue" stroke="midnightblue" points="1247.2,-157.812 1237.63,-162.354 1247.95,-164.773 1247.2,-157.812"/>
</g>
<!-- Node10&#45;&gt;Node6 -->
<g id="edge10" class="edge"><title>Node10&#45;&gt;Node6</title>
<path fill="none" stroke="midnightblue" d="M1084.59,-138.73C1075.15,-138.784 1065.61,-138.73 1056.4,-138.568"/>
<polygon fill="midnightblue" stroke="midnightblue" points="1084.79,-142.228 1094.75,-138.629 1084.72,-135.228 1084.79,-142.228"/>
</g>
<!-- Node11&#45;&gt;Node6 -->
<g id="edge12" class="edge"><title>Node11&#45;&gt;Node6</title>
<path fill="none" stroke="midnightblue" d="M890.45,-121.539C901.657,-122.729 913.056,-123.939 923.933,-125.093"/>
<polygon fill="midnightblue" stroke="midnightblue" points="890.545,-118.03 880.232,-120.455 889.806,-124.991 890.545,-118.03"/>
</g>
</g>
</svg>
        <g id="navigator" transform="translate(0 0)" fill="#404254">
                <rect fill="#f2f5e9" fill-opacity="0.5" stroke="#606060" stroke-width=".5" x="0" y="0" width="60" height="60"/>
                <use id="zoomplus" xlink:href="#zoomPlus" x="17" y="9" onmousedown="handleZoom(evt,'in')"/>
                <use id="zoomminus" xlink:href="#zoomMin" x="42" y="9" onmousedown="handleZoom(evt,'out')"/>
                <use id="reset" xlink:href="#resetDef" x="30" y="36" onmousedown="handleReset()"/>
                <g id="arrowUp" xlink:href="#dirArrow" transform="translate(30 24)" onmousedown="handlePan(0,-1)">
                  <use xlink:href="#rim" fill="#404040">
                        <set attributeName="fill" to="#808080" begin="arrowUp.mouseover" end="arrowUp.mouseout"/>
                  </use>
                  <path fill="none" stroke="white" stroke-width="1.5" d="M0,-3.0v7 M-2.5,-0.5L0,-3.0L2.5,-0.5"/>
                </g>
                <g id="arrowRight" xlink:href="#dirArrow" transform="rotate(90) translate(36 -43)" onmousedown="handlePan(1,0)">
                  <use xlink:href="#rim" fill="#404040">
                        <set attributeName="fill" to="#808080" begin="arrowRight.mouseover" end="arrowRight.mouseout"/>
                  </use>
                  <path fill="none" stroke="white" stroke-width="1.5" d="M0,-3.0v7 M-2.5,-0.5L0,-3.0L2.5,-0.5"/>
                </g>
                <g id="arrowDown" xlink:href="#dirArrow" transform="rotate(180) translate(-30 -48)" onmousedown="handlePan(0,1)">
                  <use xlink:href="#rim" fill="#404040">
                        <set attributeName="fill" to="#808080" begin="arrowDown.mouseover" end="arrowDown.mouseout"/>
                  </use>
                  <path fill="none" stroke="white" stroke-width="1.5" d="M0,-3.0v7 M-2.5,-0.5L0,-3.0L2.5,-0.5"/>
                </g>
                <g id="arrowLeft" xlink:href="#dirArrow" transform="rotate(270) translate(-36 17)" onmousedown="handlePan(-1,0)">
                  <use xlink:href="#rim" fill="#404040">
                        <set attributeName="fill" to="#808080" begin="arrowLeft.mouseover" end="arrowLeft.mouseout"/>
                  </use>
                  <path fill="none" stroke="white" stroke-width="1.5" d="M0,-3.0v7 M-2.5,-0.5L0,-3.0L2.5,-0.5"/>
                </g>
        </g>
        <svg viewBox="0 0 15 15" width="100%" height="30px" preserveAspectRatio="xMaxYMin meet">
         <g id="arrow_out" transform="scale(0.3 0.3)">
          <a xlink:href="classcompiler_1_1_compiler_ae6504512c09bb3ab9064f3b12f0a51ff_icgraph_org.svg" target="_base">
           <rect id="button" ry="5" rx="5" y="6" x="6" height="38" width="38"
                fill="#f2f5e9" fill-opacity="0.5" stroke="#606060" stroke-width="1.0"/>
           <path id="arrow"
             d="M 11.500037,31.436501 C 11.940474,20.09759 22.043105,11.32322 32.158766,21.979434 L 37.068811,17.246167 C 37.068811,17.246167 37.088388,32 37.088388,32 L 22.160133,31.978069 C 22.160133,31.978069 26.997745,27.140456 26.997745,27.140456 C 18.528582,18.264221 13.291696,25.230495 11.500037,31.436501 z"
             style="fill:#404040;"/>
          </a>
         </g>
        </svg>
</svg>
