<?xml version="1.0" encoding="UTF-8" standalone="no"?>
<!DOCTYPE svg PUBLIC "-//W3C//DTD SVG 1.1//EN"
 "http://www.w3.org/Graphics/SVG/1.1/DTD/svg11.dtd">
<!-- Generated by graphviz version 2.36.0 (20140111.2315)
 -->
<!-- Title: compiler.Compiler.compile Pages: 1 -->
<svg width="1068pt" height="207pt"
 viewBox="0.00 0.00 1068.00 207.00" xmlns="http://www.w3.org/2000/svg" xmlns:xlink="http://www.w3.org/1999/xlink">
<g id="graph0" class="graph" transform="scale(1 1) rotate(0) translate(4 203)">
<title>compiler.Compiler.compile</title>
<polygon fill="white" stroke="none" points="-4,4 -4,-203 1064,-203 1064,4 -4,4"/>
<!-- Node1 -->
<g id="node1" class="node"><title>Node1</title>
<polygon fill="#bfbfbf" stroke="black" points="0.5,-78.5 0.5,-97.5 143.5,-97.5 143.5,-78.5 0.5,-78.5"/>
<text text-anchor="middle" x="72" y="-85.5" font-family="Helvetica,sans-Serif" font-size="10.00">compiler.Compiler.compile</text>
</g>
<!-- Node2 -->
<g id="node2" class="node"><title>Node2</title>
<g id="a_node2"><a xlink:href="../../db/d93/classcompiler_1_1_compiler.html#a90d16b98c8e950bbaf772f5b93092a3f" target="_top" xlink:title="compiler.Compiler.main">
<polygon fill="white" stroke="black" points="194.5,-147.5 194.5,-166.5 323.5,-166.5 323.5,-147.5 194.5,-147.5"/>
<text text-anchor="middle" x="259" y="-154.5" font-family="Helvetica,sans-Serif" font-size="10.00">compiler.Compiler.main</text>
</a>
</g>
</g>
<!-- Node1&#45;&gt;Node2 -->
<g id="edge1" class="edge"><title>Node1&#45;&gt;Node2</title>
<path fill="none" stroke="midnightblue" d="M100.232,-102.112C121.53,-112.743 152.107,-127.126 180,-137 191.202,-140.965 203.564,-144.502 215.081,-147.458"/>
<polygon fill="midnightblue" stroke="midnightblue" points="101.647,-98.9049 91.1426,-97.5207 98.4908,-105.153 101.647,-98.9049"/>
</g>
<!-- Node3 -->
<g id="node3" class="node"><title>Node3</title>
<g id="a_node3"><a xlink:href="../../db/d32/classcontroller_1_1_main_controller.html#a6badeb343877f4b50f069b47afed495c" target="_top" xlink:title="controller.MainController.pass\lInput">
<polygon fill="white" stroke="black" points="180,-98 180,-128 338,-128 338,-98 180,-98"/>
<text text-anchor="start" x="188" y="-116" font-family="Helvetica,sans-Serif" font-size="10.00">controller.MainController.pass</text>
<text text-anchor="middle" x="259" y="-105" font-family="Helvetica,sans-Serif" font-size="10.00">Input</text>
</a>
</g>
</g>
<!-- Node1&#45;&gt;Node3 -->
<g id="edge2" class="edge"><title>Node1&#45;&gt;Node3</title>
<path fill="none" stroke="midnightblue" d="M153.565,-98.8872C162.238,-100.059 171.053,-101.25 179.698,-102.419"/>
<polygon fill="midnightblue" stroke="midnightblue" points="153.847,-95.3935 143.468,-97.5227 152.909,-102.33 153.847,-95.3935"/>
</g>
<!-- Node11 -->
<g id="node11" class="node"><title>Node11</title>
<g id="a_node11"><a xlink:href="../../d8/ded/class_j_unit_test_1_1_compiler_test.html#a4132f77013965dda40f6d62699de349a" target="_top" xlink:title="JUnitTest.CompilerTest.test\lGrammarException">
<polygon fill="white" stroke="black" points="187.5,-49 187.5,-79 330.5,-79 330.5,-49 187.5,-49"/>
<text text-anchor="start" x="195.5" y="-67" font-family="Helvetica,sans-Serif" font-size="10.00">JUnitTest.CompilerTest.test</text>
<text text-anchor="middle" x="259" y="-56" font-family="Helvetica,sans-Serif" font-size="10.00">GrammarException</text>
</a>
</g>
</g>
<!-- Node1&#45;&gt;Node11 -->
<g id="edge12" class="edge"><title>Node1&#45;&gt;Node11</title>
<path fill="none" stroke="midnightblue" d="M153.876,-77.508C165.011,-76.0635 176.374,-74.5893 187.307,-73.171"/>
<polygon fill="midnightblue" stroke="midnightblue" points="153.199,-74.0664 143.732,-78.8239 154.1,-81.0082 153.199,-74.0664"/>
</g>
<!-- Node12 -->
<g id="node12" class="node"><title>Node12</title>
<g id="a_node12"><a xlink:href="../../d8/ded/class_j_unit_test_1_1_compiler_test.html#accbcdde8d934dd7acc552820845d6b0f" target="_top" xlink:title="JUnitTest.CompilerTest.test\lSyntaxException">
<polygon fill="white" stroke="black" points="187.5,-0 187.5,-30 330.5,-30 330.5,-0 187.5,-0"/>
<text text-anchor="start" x="195.5" y="-18" font-family="Helvetica,sans-Serif" font-size="10.00">JUnitTest.CompilerTest.test</text>
<text text-anchor="middle" x="259" y="-7" font-family="Helvetica,sans-Serif" font-size="10.00">SyntaxException</text>
</a>
</g>
</g>
<!-- Node1&#45;&gt;Node12 -->
<g id="edge13" class="edge"><title>Node1&#45;&gt;Node12</title>
<path fill="none" stroke="midnightblue" d="M101.598,-74.1227C122.942,-64.024 152.961,-50.3608 180,-40 189.03,-36.54 198.766,-33.1542 208.196,-30.0473"/>
<polygon fill="midnightblue" stroke="midnightblue" points="99.9645,-71.0241 92.4442,-78.4871 102.977,-77.3427 99.9645,-71.0241"/>
</g>
<!-- Node4 -->
<g id="node4" class="node"><title>Node4</title>
<g id="a_node4"><a xlink:href="../../dd/dea/classgui_1_1_g_u_i_scene.html#a7cb2b00ed820aecde169a5e14cf0d468" target="_top" xlink:title="gui.GUIScene.createGUI">
<polygon fill="white" stroke="black" points="568,-122.5 568,-141.5 700,-141.5 700,-122.5 568,-122.5"/>
<text text-anchor="middle" x="634" y="-129.5" font-family="Helvetica,sans-Serif" font-size="10.00">gui.GUIScene.createGUI</text>
</a>
</g>
</g>
<!-- Node3&#45;&gt;Node4 -->
<g id="edge3" class="edge"><title>Node3&#45;&gt;Node4</title>
<path fill="none" stroke="midnightblue" d="M348.389,-129.202C357.02,-130.341 365.664,-131.31 374,-132 439.874,-137.452 515.495,-136.643 567.949,-134.965"/>
<polygon fill="midnightblue" stroke="midnightblue" points="348.67,-125.707 338.283,-127.793 347.704,-132.64 348.67,-125.707"/>
</g>
<!-- Node9 -->
<g id="node9" class="node"><title>Node9</title>
<g id="a_node9"><a xlink:href="../../dd/dea/classgui_1_1_g_u_i_scene.html#a47e424a495817f5806f45064f77a632b" target="_top" xlink:title="gui.GUIScene.getRightBox">
<polygon fill="white" stroke="black" points="382,-103.5 382,-122.5 524,-122.5 524,-103.5 382,-103.5"/>
<text text-anchor="middle" x="453" y="-110.5" font-family="Helvetica,sans-Serif" font-size="10.00">gui.GUIScene.getRightBox</text>
</a>
</g>
</g>
<!-- Node3&#45;&gt;Node9 -->
<g id="edge9" class="edge"><title>Node3&#45;&gt;Node9</title>
<path fill="none" stroke="midnightblue" d="M348.315,-113C359.507,-113 370.84,-113 381.699,-113"/>
<polygon fill="midnightblue" stroke="midnightblue" points="348.094,-109.5 338.094,-113 348.094,-116.5 348.094,-109.5"/>
</g>
<!-- Node10 -->
<g id="node10" class="node"><title>Node10</title>
<g id="a_node10"><a xlink:href="../../d6/d6a/class_j_unit_test_1_1_backend_a_p_i_test.html#a86dd50c40468e1647c7c01614dc7d30d" target="_top" xlink:title="JUnitTest.BackendAPITest.test">
<polygon fill="white" stroke="black" points="374.5,-65.5 374.5,-84.5 531.5,-84.5 531.5,-65.5 374.5,-65.5"/>
<text text-anchor="middle" x="453" y="-72.5" font-family="Helvetica,sans-Serif" font-size="10.00">JUnitTest.BackendAPITest.test</text>
</a>
</g>
</g>
<!-- Node3&#45;&gt;Node10 -->
<g id="edge11" class="edge"><title>Node3&#45;&gt;Node10</title>
<path fill="none" stroke="midnightblue" d="M345.921,-95.9949C365.856,-92.0493 386.377,-87.9878 403.995,-84.5009"/>
<polygon fill="midnightblue" stroke="midnightblue" points="345.014,-92.6064 335.883,-97.9814 346.373,-99.4732 345.014,-92.6064"/>
</g>
<!-- Node5 -->
<g id="node5" class="node"><title>Node5</title>
<g id="a_node5"><a xlink:href="../../dd/dea/classgui_1_1_g_u_i_scene.html#a74967ac937baee81b9eec1b2bc38167c" target="_top" xlink:title="gui.GUIScene.createScene">
<polygon fill="white" stroke="black" points="736.5,-160.5 736.5,-179.5 881.5,-179.5 881.5,-160.5 736.5,-160.5"/>
<text text-anchor="middle" x="809" y="-167.5" font-family="Helvetica,sans-Serif" font-size="10.00">gui.GUIScene.createScene</text>
</a>
</g>
</g>
<!-- Node4&#45;&gt;Node5 -->
<g id="edge4" class="edge"><title>Node4&#45;&gt;Node5</title>
<path fill="none" stroke="midnightblue" d="M688.505,-143.753C712.967,-149.126 741.571,-155.409 764.659,-160.48"/>
<polygon fill="midnightblue" stroke="midnightblue" points="689.173,-140.316 678.655,-141.589 687.671,-147.153 689.173,-140.316"/>
</g>
<!-- Node8 -->
<g id="node8" class="node"><title>Node8</title>
<g id="a_node8"><a xlink:href="../../dd/dea/classgui_1_1_g_u_i_scene.html#a16324ddc026310495f84e77bbb311b2c" target="_top" xlink:title="gui.GUIScene.addButtons">
<polygon fill="white" stroke="black" points="739,-122.5 739,-141.5 879,-141.5 879,-122.5 739,-122.5"/>
<text text-anchor="middle" x="809" y="-129.5" font-family="Helvetica,sans-Serif" font-size="10.00">gui.GUIScene.addButtons</text>
</a>
</g>
</g>
<!-- Node4&#45;&gt;Node8 -->
<g id="edge7" class="edge"><title>Node4&#45;&gt;Node8</title>
<path fill="none" stroke="midnightblue" d="M710.504,-125.299C719.896,-125.215 729.463,-125.239 738.754,-125.371"/>
<polygon fill="midnightblue" stroke="midnightblue" points="710.357,-121.8 700.404,-125.432 710.449,-128.8 710.357,-121.8"/>
</g>
<!-- Node6 -->
<g id="node6" class="node"><title>Node6</title>
<g id="a_node6"><a xlink:href="../../d6/d0e/classcontroller_1_1_s_logo_main.html#ab5379c32fef791f21ad51abde7d268c0" target="_top" xlink:title="controller.SLogoMain.start">
<polygon fill="white" stroke="black" points="918,-179.5 918,-198.5 1060,-198.5 1060,-179.5 918,-179.5"/>
<text text-anchor="middle" x="989" y="-186.5" font-family="Helvetica,sans-Serif" font-size="10.00">controller.SLogoMain.start</text>
</a>
</g>
</g>
<!-- Node5&#45;&gt;Node6 -->
<g id="edge5" class="edge"><title>Node5&#45;&gt;Node6</title>
<path fill="none" stroke="midnightblue" d="M891.821,-178.734C900.555,-179.666 909.382,-180.608 917.963,-181.524"/>
<polygon fill="midnightblue" stroke="midnightblue" points="891.945,-175.227 881.63,-177.646 891.202,-182.188 891.945,-175.227"/>
</g>
<!-- Node7 -->
<g id="node7" class="node"><title>Node7</title>
<g id="a_node7"><a xlink:href="../../dd/d48/classgui_1_1_g_u_i_start.html#a82d08814fef5331d82c4763a2426ffce" target="_top" xlink:title="gui.GUIStart.start">
<polygon fill="white" stroke="black" points="938.5,-141.5 938.5,-160.5 1039.5,-160.5 1039.5,-141.5 938.5,-141.5"/>
<text text-anchor="middle" x="989" y="-148.5" font-family="Helvetica,sans-Serif" font-size="10.00">gui.GUIStart.start</text>
</a>
</g>
</g>
<!-- Node5&#45;&gt;Node7 -->
<g id="edge6" class="edge"><title>Node5&#45;&gt;Node7</title>
<path fill="none" stroke="midnightblue" d="M891.974,-161.25C907.814,-159.559 923.952,-157.837 938.365,-156.298"/>
<polygon fill="midnightblue" stroke="midnightblue" points="891.202,-157.812 881.63,-162.354 891.945,-164.773 891.202,-157.812"/>
</g>
<!-- Node8&#45;&gt;Node4 -->
<g id="edge8" class="edge"><title>Node8&#45;&gt;Node4</title>
<path fill="none" stroke="midnightblue" d="M728.585,-138.73C719.154,-138.784 709.609,-138.73 700.404,-138.568"/>
<polygon fill="midnightblue" stroke="midnightblue" points="728.789,-142.228 738.754,-138.629 728.719,-135.228 728.789,-142.228"/>
</g>
<!-- Node9&#45;&gt;Node4 -->
<g id="edge10" class="edge"><title>Node9&#45;&gt;Node4</title>
<path fill="none" stroke="midnightblue" d="M534.45,-121.539C545.657,-122.729 557.056,-123.939 567.933,-125.093"/>
<polygon fill="midnightblue" stroke="midnightblue" points="534.545,-118.03 524.232,-120.455 533.806,-124.991 534.545,-118.03"/>
</g>
</g>
</svg>
