<?xml version="1.0" encoding="UTF-8" standalone="no"?>
<!DOCTYPE svg PUBLIC "-//W3C//DTD SVG 1.1//EN"
 "http://www.w3.org/Graphics/SVG/1.1/DTD/svg11.dtd">
<!-- Generated by graphviz version 2.36.0 (20140111.2315)
 -->
<!-- Title: compiler.Compiler.initGrammar Pages: 1 -->
<svg width="1450pt" height="207pt"
 viewBox="0.00 0.00 1450.00 207.00" xmlns="http://www.w3.org/2000/svg" xmlns:xlink="http://www.w3.org/1999/xlink">
<g id="graph0" class="graph" transform="scale(1 1) rotate(0) translate(4 203)">
<title>compiler.Compiler.initGrammar</title>
<polygon fill="white" stroke="none" points="-4,4 -4,-203 1446,-203 1446,4 -4,4"/>
<!-- Node1 -->
<g id="node1" class="node"><title>Node1</title>
<polygon fill="#bfbfbf" stroke="black" points="0,-78.5 0,-97.5 166,-97.5 166,-78.5 0,-78.5"/>
<text text-anchor="middle" x="83" y="-85.5" font-family="Helvetica,sans-Serif" font-size="10.00">compiler.Compiler.initGrammar</text>
</g>
<!-- Node2 -->
<g id="node2" class="node"><title>Node2</title>
<g id="a_node2"><a xlink:href="../../db/d93/classcompiler_1_1_compiler.html#afb38c21dd4d72f5fb04bc01dc892621a" target="_top" xlink:title="compiler.Compiler.initialize">
<polygon fill="white" stroke="black" points="202.5,-78.5 202.5,-97.5 345.5,-97.5 345.5,-78.5 202.5,-78.5"/>
<text text-anchor="middle" x="274" y="-85.5" font-family="Helvetica,sans-Serif" font-size="10.00">compiler.Compiler.initialize</text>
</a>
</g>
</g>
<!-- Node1&#45;&gt;Node2 -->
<g id="edge1" class="edge"><title>Node1&#45;&gt;Node2</title>
<path fill="none" stroke="midnightblue" d="M176.292,-88C185.021,-88 193.775,-88 202.256,-88"/>
<polygon fill="midnightblue" stroke="midnightblue" points="176.074,-84.5001 166.074,-88 176.074,-91.5001 176.074,-84.5001"/>
</g>
<!-- Node3 -->
<g id="node3" class="node"><title>Node3</title>
<g id="a_node3"><a xlink:href="../../db/d93/classcompiler_1_1_compiler.html#a8a90aa273bacff724a034959914a4c2d" target="_top" xlink:title="compiler.Compiler.compile">
<polygon fill="white" stroke="black" points="382.5,-78.5 382.5,-97.5 525.5,-97.5 525.5,-78.5 382.5,-78.5"/>
<text text-anchor="middle" x="454" y="-85.5" font-family="Helvetica,sans-Serif" font-size="10.00">compiler.Compiler.compile</text>
</a>
</g>
</g>
<!-- Node2&#45;&gt;Node3 -->
<g id="edge2" class="edge"><title>Node2&#45;&gt;Node3</title>
<path fill="none" stroke="midnightblue" d="M355.646,-88C364.599,-88 373.666,-88 382.479,-88"/>
<polygon fill="midnightblue" stroke="midnightblue" points="355.606,-84.5001 345.606,-88 355.606,-91.5001 355.606,-84.5001"/>
</g>
<!-- Node4 -->
<g id="node4" class="node"><title>Node4</title>
<g id="a_node4"><a xlink:href="../../db/d93/classcompiler_1_1_compiler.html#a90d16b98c8e950bbaf772f5b93092a3f" target="_top" xlink:title="compiler.Compiler.main">
<polygon fill="white" stroke="black" points="576.5,-147.5 576.5,-166.5 705.5,-166.5 705.5,-147.5 576.5,-147.5"/>
<text text-anchor="middle" x="641" y="-154.5" font-family="Helvetica,sans-Serif" font-size="10.00">compiler.Compiler.main</text>
</a>
</g>
</g>
<!-- Node3&#45;&gt;Node4 -->
<g id="edge3" class="edge"><title>Node3&#45;&gt;Node4</title>
<path fill="none" stroke="midnightblue" d="M482.232,-102.112C503.53,-112.743 534.107,-127.126 562,-137 573.202,-140.965 585.564,-144.502 597.081,-147.458"/>
<polygon fill="midnightblue" stroke="midnightblue" points="483.647,-98.9049 473.143,-97.5207 480.491,-105.153 483.647,-98.9049"/>
</g>
<!-- Node5 -->
<g id="node5" class="node"><title>Node5</title>
<g id="a_node5"><a xlink:href="../../db/d32/classcontroller_1_1_main_controller.html#a6badeb343877f4b50f069b47afed495c" target="_top" xlink:title="controller.MainController.pass\lInput">
<polygon fill="white" stroke="black" points="562,-98 562,-128 720,-128 720,-98 562,-98"/>
<text text-anchor="start" x="570" y="-116" font-family="Helvetica,sans-Serif" font-size="10.00">controller.MainController.pass</text>
<text text-anchor="middle" x="641" y="-105" font-family="Helvetica,sans-Serif" font-size="10.00">Input</text>
</a>
</g>
</g>
<!-- Node3&#45;&gt;Node5 -->
<g id="edge4" class="edge"><title>Node3&#45;&gt;Node5</title>
<path fill="none" stroke="midnightblue" d="M535.565,-98.8872C544.238,-100.059 553.053,-101.25 561.698,-102.419"/>
<polygon fill="midnightblue" stroke="midnightblue" points="535.847,-95.3935 525.468,-97.5227 534.909,-102.33 535.847,-95.3935"/>
</g>
<!-- Node13 -->
<g id="node13" class="node"><title>Node13</title>
<g id="a_node13"><a xlink:href="../../d8/ded/class_j_unit_test_1_1_compiler_test.html#a4132f77013965dda40f6d62699de349a" target="_top" xlink:title="JUnitTest.CompilerTest.test\lGrammarException">
<polygon fill="white" stroke="black" points="569.5,-49 569.5,-79 712.5,-79 712.5,-49 569.5,-49"/>
<text text-anchor="start" x="577.5" y="-67" font-family="Helvetica,sans-Serif" font-size="10.00">JUnitTest.CompilerTest.test</text>
<text text-anchor="middle" x="641" y="-56" font-family="Helvetica,sans-Serif" font-size="10.00">GrammarException</text>
</a>
</g>
</g>
<!-- Node3&#45;&gt;Node13 -->
<g id="edge14" class="edge"><title>Node3&#45;&gt;Node13</title>
<path fill="none" stroke="midnightblue" d="M535.876,-77.508C547.011,-76.0635 558.374,-74.5893 569.307,-73.171"/>
<polygon fill="midnightblue" stroke="midnightblue" points="535.199,-74.0664 525.732,-78.8239 536.1,-81.0082 535.199,-74.0664"/>
</g>
<!-- Node14 -->
<g id="node14" class="node"><title>Node14</title>
<g id="a_node14"><a xlink:href="../../d8/ded/class_j_unit_test_1_1_compiler_test.html#accbcdde8d934dd7acc552820845d6b0f" target="_top" xlink:title="JUnitTest.CompilerTest.test\lSyntaxException">
<polygon fill="white" stroke="black" points="569.5,-0 569.5,-30 712.5,-30 712.5,-0 569.5,-0"/>
<text text-anchor="start" x="577.5" y="-18" font-family="Helvetica,sans-Serif" font-size="10.00">JUnitTest.CompilerTest.test</text>
<text text-anchor="middle" x="641" y="-7" font-family="Helvetica,sans-Serif" font-size="10.00">SyntaxException</text>
</a>
</g>
</g>
<!-- Node3&#45;&gt;Node14 -->
<g id="edge15" class="edge"><title>Node3&#45;&gt;Node14</title>
<path fill="none" stroke="midnightblue" d="M483.598,-74.1227C504.942,-64.024 534.961,-50.3608 562,-40 571.03,-36.54 580.766,-33.1542 590.196,-30.0473"/>
<polygon fill="midnightblue" stroke="midnightblue" points="481.965,-71.0241 474.444,-78.4871 484.977,-77.3427 481.965,-71.0241"/>
</g>
<!-- Node6 -->
<g id="node6" class="node"><title>Node6</title>
<g id="a_node6"><a xlink:href="../../dd/dea/classgui_1_1_g_u_i_scene.html#a7cb2b00ed820aecde169a5e14cf0d468" target="_top" xlink:title="gui.GUIScene.createGUI">
<polygon fill="white" stroke="black" points="950,-122.5 950,-141.5 1082,-141.5 1082,-122.5 950,-122.5"/>
<text text-anchor="middle" x="1016" y="-129.5" font-family="Helvetica,sans-Serif" font-size="10.00">gui.GUIScene.createGUI</text>
</a>
</g>
</g>
<!-- Node5&#45;&gt;Node6 -->
<g id="edge5" class="edge"><title>Node5&#45;&gt;Node6</title>
<path fill="none" stroke="midnightblue" d="M730.389,-129.202C739.02,-130.341 747.664,-131.31 756,-132 821.874,-137.452 897.495,-136.643 949.949,-134.965"/>
<polygon fill="midnightblue" stroke="midnightblue" points="730.67,-125.707 720.283,-127.793 729.704,-132.64 730.67,-125.707"/>
</g>
<!-- Node11 -->
<g id="node11" class="node"><title>Node11</title>
<g id="a_node11"><a xlink:href="../../dd/dea/classgui_1_1_g_u_i_scene.html#a47e424a495817f5806f45064f77a632b" target="_top" xlink:title="gui.GUIScene.getRightBox">
<polygon fill="white" stroke="black" points="764,-103.5 764,-122.5 906,-122.5 906,-103.5 764,-103.5"/>
<text text-anchor="middle" x="835" y="-110.5" font-family="Helvetica,sans-Serif" font-size="10.00">gui.GUIScene.getRightBox</text>
</a>
</g>
</g>
<!-- Node5&#45;&gt;Node11 -->
<g id="edge11" class="edge"><title>Node5&#45;&gt;Node11</title>
<path fill="none" stroke="midnightblue" d="M730.315,-113C741.507,-113 752.84,-113 763.699,-113"/>
<polygon fill="midnightblue" stroke="midnightblue" points="730.094,-109.5 720.094,-113 730.094,-116.5 730.094,-109.5"/>
</g>
<!-- Node12 -->
<g id="node12" class="node"><title>Node12</title>
<g id="a_node12"><a xlink:href="../../d6/d6a/class_j_unit_test_1_1_backend_a_p_i_test.html#a86dd50c40468e1647c7c01614dc7d30d" target="_top" xlink:title="JUnitTest.BackendAPITest.test">
<polygon fill="white" stroke="black" points="756.5,-65.5 756.5,-84.5 913.5,-84.5 913.5,-65.5 756.5,-65.5"/>
<text text-anchor="middle" x="835" y="-72.5" font-family="Helvetica,sans-Serif" font-size="10.00">JUnitTest.BackendAPITest.test</text>
</a>
</g>
</g>
<!-- Node5&#45;&gt;Node12 -->
<g id="edge13" class="edge"><title>Node5&#45;&gt;Node12</title>
<path fill="none" stroke="midnightblue" d="M727.921,-95.9949C747.856,-92.0493 768.377,-87.9878 785.995,-84.5009"/>
<polygon fill="midnightblue" stroke="midnightblue" points="727.014,-92.6064 717.883,-97.9814 728.373,-99.4732 727.014,-92.6064"/>
</g>
<!-- Node7 -->
<g id="node7" class="node"><title>Node7</title>
<g id="a_node7"><a xlink:href="../../dd/dea/classgui_1_1_g_u_i_scene.html#a74967ac937baee81b9eec1b2bc38167c" target="_top" xlink:title="gui.GUIScene.createScene">
<polygon fill="white" stroke="black" points="1118.5,-160.5 1118.5,-179.5 1263.5,-179.5 1263.5,-160.5 1118.5,-160.5"/>
<text text-anchor="middle" x="1191" y="-167.5" font-family="Helvetica,sans-Serif" font-size="10.00">gui.GUIScene.createScene</text>
</a>
</g>
</g>
<!-- Node6&#45;&gt;Node7 -->
<g id="edge6" class="edge"><title>Node6&#45;&gt;Node7</title>
<path fill="none" stroke="midnightblue" d="M1070.51,-143.753C1094.97,-149.126 1123.57,-155.409 1146.66,-160.48"/>
<polygon fill="midnightblue" stroke="midnightblue" points="1071.17,-140.316 1060.66,-141.589 1069.67,-147.153 1071.17,-140.316"/>
</g>
<!-- Node10 -->
<g id="node10" class="node"><title>Node10</title>
<g id="a_node10"><a xlink:href="../../dd/dea/classgui_1_1_g_u_i_scene.html#a16324ddc026310495f84e77bbb311b2c" target="_top" xlink:title="gui.GUIScene.addButtons">
<polygon fill="white" stroke="black" points="1121,-122.5 1121,-141.5 1261,-141.5 1261,-122.5 1121,-122.5"/>
<text text-anchor="middle" x="1191" y="-129.5" font-family="Helvetica,sans-Serif" font-size="10.00">gui.GUIScene.addButtons</text>
</a>
</g>
</g>
<!-- Node6&#45;&gt;Node10 -->
<g id="edge9" class="edge"><title>Node6&#45;&gt;Node10</title>
<path fill="none" stroke="midnightblue" d="M1092.5,-125.299C1101.9,-125.215 1111.46,-125.239 1120.75,-125.371"/>
<polygon fill="midnightblue" stroke="midnightblue" points="1092.36,-121.8 1082.4,-125.432 1092.45,-128.8 1092.36,-121.8"/>
</g>
<!-- Node8 -->
<g id="node8" class="node"><title>Node8</title>
<g id="a_node8"><a xlink:href="../../d6/d0e/classcontroller_1_1_s_logo_main.html#ab5379c32fef791f21ad51abde7d268c0" target="_top" xlink:title="controller.SLogoMain.start">
<polygon fill="white" stroke="black" points="1300,-179.5 1300,-198.5 1442,-198.5 1442,-179.5 1300,-179.5"/>
<text text-anchor="middle" x="1371" y="-186.5" font-family="Helvetica,sans-Serif" font-size="10.00">controller.SLogoMain.start</text>
</a>
</g>
</g>
<!-- Node7&#45;&gt;Node8 -->
<g id="edge7" class="edge"><title>Node7&#45;&gt;Node8</title>
<path fill="none" stroke="midnightblue" d="M1273.82,-178.734C1282.56,-179.666 1291.38,-180.608 1299.96,-181.524"/>
<polygon fill="midnightblue" stroke="midnightblue" points="1273.95,-175.227 1263.63,-177.646 1273.2,-182.188 1273.95,-175.227"/>
</g>
<!-- Node9 -->
<g id="node9" class="node"><title>Node9</title>
<g id="a_node9"><a xlink:href="../../dd/d48/classgui_1_1_g_u_i_start.html#a82d08814fef5331d82c4763a2426ffce" target="_top" xlink:title="gui.GUIStart.start">
<polygon fill="white" stroke="black" points="1320.5,-141.5 1320.5,-160.5 1421.5,-160.5 1421.5,-141.5 1320.5,-141.5"/>
<text text-anchor="middle" x="1371" y="-148.5" font-family="Helvetica,sans-Serif" font-size="10.00">gui.GUIStart.start</text>
</a>
</g>
</g>
<!-- Node7&#45;&gt;Node9 -->
<g id="edge8" class="edge"><title>Node7&#45;&gt;Node9</title>
<path fill="none" stroke="midnightblue" d="M1273.97,-161.25C1289.81,-159.559 1305.95,-157.837 1320.36,-156.298"/>
<polygon fill="midnightblue" stroke="midnightblue" points="1273.2,-157.812 1263.63,-162.354 1273.95,-164.773 1273.2,-157.812"/>
</g>
<!-- Node10&#45;&gt;Node6 -->
<g id="edge10" class="edge"><title>Node10&#45;&gt;Node6</title>
<path fill="none" stroke="midnightblue" d="M1110.59,-138.73C1101.15,-138.784 1091.61,-138.73 1082.4,-138.568"/>
<polygon fill="midnightblue" stroke="midnightblue" points="1110.79,-142.228 1120.75,-138.629 1110.72,-135.228 1110.79,-142.228"/>
</g>
<!-- Node11&#45;&gt;Node6 -->
<g id="edge12" class="edge"><title>Node11&#45;&gt;Node6</title>
<path fill="none" stroke="midnightblue" d="M916.45,-121.539C927.657,-122.729 939.056,-123.939 949.933,-125.093"/>
<polygon fill="midnightblue" stroke="midnightblue" points="916.545,-118.03 906.232,-120.455 915.806,-124.991 916.545,-118.03"/>
</g>
</g>
</svg>
