<?xml version="1.0" encoding="UTF-8" standalone="no"?>
<!DOCTYPE svg PUBLIC "-//W3C//DTD SVG 1.1//EN"
 "http://www.w3.org/Graphics/SVG/1.1/DTD/svg11.dtd">
<!-- Generated by graphviz version 2.36.0 (20140111.2315)
 -->
<!-- Title: compiler.Compiler.compile Pages: 1 -->
<!--zoomable 1031 -->
<svg id="main" version="1.1" xmlns="http://www.w3.org/2000/svg" xmlns:xlink="http://www.w3.org/1999/xlink" xml:space="preserve" onload="init(evt)">
<style type="text/css"><![CDATA[
.edge:hover path { stroke: red; }
.edge:hover polygon { stroke: red; fill: red; }
]]></style>
<script type="text/javascript"><![CDATA[
var edges = document.getElementsByTagName('g');
if (edges && edges.length) {
  for (var i=0;i<edges.length;i++) {
    if (edges[i].id.substr(0,4)=='edge') {
      edges[i].setAttribute('class','edge');
    }
  }
}
]]></script>
        <defs>
                <circle id="rim" cx="0" cy="0" r="7"/>
                <circle id="rim2" cx="0" cy="0" r="3.5"/>
                <g id="zoomPlus">
                        <use xlink:href="#rim" fill="#404040">
                                <set attributeName="fill" to="#808080" begin="zoomplus.mouseover" end="zoomplus.mouseout"/>
                        </use>
                        <path d="M-4,0h8M0,-4v8" fill="none" stroke="white" stroke-width="1.5" pointer-events="none"/>
                </g>
                <g id="zoomMin">
                        <use xlink:href="#rim" fill="#404040">
                                <set attributeName="fill" to="#808080" begin="zoomminus.mouseover" end="zoomminus.mouseout"/>
                        </use>
                        <path d="M-4,0h8" fill="none" stroke="white" stroke-width="1.5" pointer-events="none"/>
                </g>
                <g id="dirArrow">
                        <path fill="none" stroke="white" stroke-width="1.5" d="M0,-3.0v7 M-2.5,-0.5L0,-3.0L2.5,-0.5"/>
                </g>
               <g id="resetDef">
                       <use xlink:href="#rim2" fill="#404040">
                               <set attributeName="fill" to="#808080" begin="reset.mouseover" end="reset.mouseout"/>
                       </use>
               </g>
        </defs>

<script type="text/javascript">
var viewWidth = 796;
var viewHeight = 1031;
var sectionId = 'dynsection-2';
</script>
<script xlink:href="../../svgpan.js"/>
<svg id="graph" class="graph">
<g id="viewport">
<title>compiler.Compiler.compile</title>
<polygon fill="white" stroke="none" points="-4,4 -4,-1027 792,-1027 792,4 -4,4"/>
<!-- Node1 -->
<g id="node1" class="node"><title>Node1</title>
<polygon fill="#bfbfbf" stroke="black" points="0.5,-759.5 0.5,-778.5 143.5,-778.5 143.5,-759.5 0.5,-759.5"/>
<text text-anchor="middle" x="72" y="-766.5" font-family="Helvetica,sans-Serif" font-size="10.00">compiler.Compiler.compile</text>
</g>
<!-- Node2 -->
<g id="node2" class="node"><title>Node2</title>
<g id="a_node2"><a xlink:href="../../d5/dcd/classcompiler_1_1_a_s_t.html#a554574e2680c721782f0df2694512842" target="_top" xlink:title="compiler.AST.generate">
<polygon fill="white" stroke="black" points="196,-929.5 196,-948.5 320,-948.5 320,-929.5 196,-929.5"/>
<text text-anchor="middle" x="258" y="-936.5" font-family="Helvetica,sans-Serif" font-size="10.00">compiler.AST.generate</text>
</a>
</g>
</g>
<!-- Node1&#45;&gt;Node2 -->
<g id="edge1" class="edge"><title>Node1&#45;&gt;Node2</title>
<path fill="none" stroke="midnightblue" d="M83.4198,-778.627C113.529,-806.445 200.919,-887.186 238.957,-922.33"/>
<polygon fill="midnightblue" stroke="midnightblue" points="236.974,-925.263 246.694,-929.479 241.725,-920.122 236.974,-925.263"/>
</g>
<!-- Node4 -->
<g id="node4" class="node"><title>Node4</title>
<g id="a_node4"><a xlink:href="../../db/d93/classcompiler_1_1_compiler.html#afb38c21dd4d72f5fb04bc01dc892621a" target="_top" xlink:title="compiler.Compiler.initialize">
<polygon fill="white" stroke="black" points="186.5,-822.5 186.5,-841.5 329.5,-841.5 329.5,-822.5 186.5,-822.5"/>
<text text-anchor="middle" x="258" y="-829.5" font-family="Helvetica,sans-Serif" font-size="10.00">compiler.Compiler.initialize</text>
</a>
</g>
</g>
<!-- Node1&#45;&gt;Node4 -->
<g id="edge3" class="edge"><title>Node1&#45;&gt;Node4</title>
<path fill="none" stroke="midnightblue" d="M100.946,-778.568C132.514,-789.377 184.057,-807.025 219.2,-819.058"/>
<polygon fill="midnightblue" stroke="midnightblue" points="218.499,-822.517 229.093,-822.445 220.766,-815.894 218.499,-822.517"/>
</g>
<!-- Node11 -->
<g id="node11" class="node"><title>Node11</title>
<g id="a_node11"><a xlink:href="../../db/d93/classcompiler_1_1_compiler.html#a21b0cbd48524326ae956fec14de6a853" target="_top" xlink:title="compiler.Compiler.interpreter">
<polygon fill="white" stroke="black" points="180,-759.5 180,-778.5 336,-778.5 336,-759.5 180,-759.5"/>
<text text-anchor="middle" x="258" y="-766.5" font-family="Helvetica,sans-Serif" font-size="10.00">compiler.Compiler.interpreter</text>
</a>
</g>
</g>
<!-- Node1&#45;&gt;Node11 -->
<g id="edge10" class="edge"><title>Node1&#45;&gt;Node11</title>
<path fill="none" stroke="midnightblue" d="M143.613,-769C152.136,-769 160.917,-769 169.643,-769"/>
<polygon fill="midnightblue" stroke="midnightblue" points="169.842,-772.5 179.842,-769 169.842,-765.5 169.842,-772.5"/>
</g>
<!-- Node12 -->
<g id="node12" class="node"><title>Node12</title>
<g id="a_node12"><a xlink:href="../../db/d93/classcompiler_1_1_compiler.html#ab49c76c1486c30d921d07022a1be4971" target="_top" xlink:title="compiler.Compiler.scanner">
<polygon fill="white" stroke="black" points="186.5,-674.5 186.5,-693.5 329.5,-693.5 329.5,-674.5 186.5,-674.5"/>
<text text-anchor="middle" x="258" y="-681.5" font-family="Helvetica,sans-Serif" font-size="10.00">compiler.Compiler.scanner</text>
</a>
</g>
</g>
<!-- Node1&#45;&gt;Node12 -->
<g id="edge11" class="edge"><title>Node1&#45;&gt;Node12</title>
<path fill="none" stroke="midnightblue" d="M93.7495,-759.415C126.275,-744.389 189.416,-715.221 226.925,-697.893"/>
<polygon fill="midnightblue" stroke="midnightblue" points="228.716,-700.921 236.326,-693.55 225.78,-694.567 228.716,-700.921"/>
</g>
<!-- Node20 -->
<g id="node20" class="node"><title>Node20</title>
<g id="a_node20"><a xlink:href="../../d5/dcd/classcompiler_1_1_a_s_t.html#a8f54e642baf772b6269010527c61f7f7" target="_top" xlink:title="compiler.AST.traverse">
<polygon fill="white" stroke="black" points="198,-290.5 198,-309.5 318,-309.5 318,-290.5 198,-290.5"/>
<text text-anchor="middle" x="258" y="-297.5" font-family="Helvetica,sans-Serif" font-size="10.00">compiler.AST.traverse</text>
</a>
</g>
</g>
<!-- Node1&#45;&gt;Node20 -->
<g id="edge19" class="edge"><title>Node1&#45;&gt;Node20</title>
<path fill="none" stroke="midnightblue" d="M76.8431,-759.204C99.7133,-700.91 217.959,-399.511 249.345,-319.512"/>
<polygon fill="midnightblue" stroke="midnightblue" points="252.784,-320.329 253.178,-309.742 246.268,-317.773 252.784,-320.329"/>
</g>
<!-- Node3 -->
<g id="node3" class="node"><title>Node3</title>
<g id="a_node3"><a xlink:href="../../db/d93/classcompiler_1_1_compiler.html#a4a475133005c58a3a3846315d2f116e4" target="_top" xlink:title="compiler.Compiler.getSymbol\lTable">
<polygon fill="white" stroke="black" points="387.5,-993 387.5,-1023 544.5,-1023 544.5,-993 387.5,-993"/>
<text text-anchor="start" x="395.5" y="-1011" font-family="Helvetica,sans-Serif" font-size="10.00">compiler.Compiler.getSymbol</text>
<text text-anchor="middle" x="466" y="-1000" font-family="Helvetica,sans-Serif" font-size="10.00">Table</text>
</a>
</g>
</g>
<!-- Node2&#45;&gt;Node3 -->
<g id="edge2" class="edge"><title>Node2&#45;&gt;Node3</title>
<path fill="none" stroke="midnightblue" d="M281.677,-948.67C304.306,-958.12 340.194,-972.567 372,-983 379.567,-985.482 387.538,-987.906 395.5,-990.208"/>
<polygon fill="midnightblue" stroke="midnightblue" points="394.605,-993.592 405.181,-992.95 396.513,-986.857 394.605,-993.592"/>
</g>
<!-- Node5 -->
<g id="node5" class="node"><title>Node5</title>
<g id="a_node5"><a xlink:href="../../db/d93/classcompiler_1_1_compiler.html#aedc19549c4ed689c6d984394716f563c" target="_top" xlink:title="compiler.Compiler.initGrammar">
<polygon fill="white" stroke="black" points="383,-954.5 383,-973.5 549,-973.5 549,-954.5 383,-954.5"/>
<text text-anchor="middle" x="466" y="-961.5" font-family="Helvetica,sans-Serif" font-size="10.00">compiler.Compiler.initGrammar</text>
</a>
</g>
</g>
<!-- Node4&#45;&gt;Node5 -->
<g id="edge4" class="edge"><title>Node4&#45;&gt;Node5</title>
<path fill="none" stroke="midnightblue" d="M265.646,-841.626C281.362,-863.594 323.181,-917.559 372,-944 377.117,-946.771 382.587,-949.159 388.216,-951.215"/>
<polygon fill="midnightblue" stroke="midnightblue" points="387.212,-954.569 397.805,-954.373 389.401,-947.921 387.212,-954.569"/>
</g>
<!-- Node6 -->
<g id="node6" class="node"><title>Node6</title>
<g id="a_node6"><a xlink:href="../../dd/db3/classcompiler_1_1_parse_table.html#a077f2722d8fa84bc8903407ee482697a" target="_top" xlink:title="compiler.ParseTable.initialize\lTable">
<polygon fill="white" stroke="black" points="390,-905 390,-935 542,-935 542,-905 390,-905"/>
<text text-anchor="start" x="398" y="-923" font-family="Helvetica,sans-Serif" font-size="10.00">compiler.ParseTable.initialize</text>
<text text-anchor="middle" x="466" y="-912" font-family="Helvetica,sans-Serif" font-size="10.00">Table</text>
</a>
</g>
</g>
<!-- Node4&#45;&gt;Node6 -->
<g id="edge5" class="edge"><title>Node4&#45;&gt;Node6</title>
<path fill="none" stroke="midnightblue" d="M273.409,-841.566C294.344,-855.102 334.747,-879.878 372,-895 378.141,-897.493 384.61,-899.813 391.158,-901.954"/>
<polygon fill="midnightblue" stroke="midnightblue" points="390.191,-905.319 400.78,-904.963 392.28,-898.638 390.191,-905.319"/>
</g>
<!-- Node7 -->
<g id="node7" class="node"><title>Node7</title>
<g id="a_node7"><a xlink:href="../../dd/db3/classcompiler_1_1_parse_table.html#a1ed63064154778c1dbb59a50178ab98b" target="_top" xlink:title="compiler.ParseTable.getOperation">
<polygon fill="white" stroke="black" points="378,-866.5 378,-885.5 554,-885.5 554,-866.5 378,-866.5"/>
<text text-anchor="middle" x="466" y="-873.5" font-family="Helvetica,sans-Serif" font-size="10.00">compiler.ParseTable.getOperation</text>
</a>
</g>
</g>
<!-- Node4&#45;&gt;Node7 -->
<g id="edge6" class="edge"><title>Node4&#45;&gt;Node7</title>
<path fill="none" stroke="midnightblue" d="M303.699,-841.547C335.013,-848.236 377.046,-857.214 410.353,-864.328"/>
<polygon fill="midnightblue" stroke="midnightblue" points="409.878,-867.805 420.388,-866.471 411.34,-860.96 409.878,-867.805"/>
</g>
<!-- Node8 -->
<g id="node8" class="node"><title>Node8</title>
<g id="a_node8"><a xlink:href="../../dd/db3/classcompiler_1_1_parse_table.html#ac4940ea308ddda4d90965b17c578da4a" target="_top" xlink:title="compiler.ParseTable.getNext\lState">
<polygon fill="white" stroke="black" points="390,-817 390,-847 542,-847 542,-817 390,-817"/>
<text text-anchor="start" x="398" y="-835" font-family="Helvetica,sans-Serif" font-size="10.00">compiler.ParseTable.getNext</text>
<text text-anchor="middle" x="466" y="-824" font-family="Helvetica,sans-Serif" font-size="10.00">State</text>
</a>
</g>
</g>
<!-- Node4&#45;&gt;Node8 -->
<g id="edge7" class="edge"><title>Node4&#45;&gt;Node8</title>
<path fill="none" stroke="midnightblue" d="M329.605,-832C345.713,-832 362.997,-832 379.647,-832"/>
<polygon fill="midnightblue" stroke="midnightblue" points="379.916,-835.5 389.916,-832 379.916,-828.5 379.916,-835.5"/>
</g>
<!-- Node9 -->
<g id="node9" class="node"><title>Node9</title>
<g id="a_node9"><a xlink:href="../../dd/db3/classcompiler_1_1_parse_table.html#a573884bf9b9680a677625168b1b431fc" target="_top" xlink:title="compiler.ParseTable.getLHS">
<polygon fill="white" stroke="black" points="391.5,-778.5 391.5,-797.5 540.5,-797.5 540.5,-778.5 391.5,-778.5"/>
<text text-anchor="middle" x="466" y="-785.5" font-family="Helvetica,sans-Serif" font-size="10.00">compiler.ParseTable.getLHS</text>
</a>
</g>
</g>
<!-- Node4&#45;&gt;Node9 -->
<g id="edge8" class="edge"><title>Node4&#45;&gt;Node9</title>
<path fill="none" stroke="midnightblue" d="M303.699,-822.453C335.013,-815.764 377.046,-806.786 410.353,-799.672"/>
<polygon fill="midnightblue" stroke="midnightblue" points="411.34,-803.04 420.388,-797.529 409.878,-796.195 411.34,-803.04"/>
</g>
<!-- Node10 -->
<g id="node10" class="node"><title>Node10</title>
<g id="a_node10"><a xlink:href="../../dd/db3/classcompiler_1_1_parse_table.html#a6f640afe05fef1c7b36a858e3d831a18" target="_top" xlink:title="compiler.ParseTable.getRHS">
<polygon fill="white" stroke="black" points="391.5,-740.5 391.5,-759.5 540.5,-759.5 540.5,-740.5 391.5,-740.5"/>
<text text-anchor="middle" x="466" y="-747.5" font-family="Helvetica,sans-Serif" font-size="10.00">compiler.ParseTable.getRHS</text>
</a>
</g>
</g>
<!-- Node4&#45;&gt;Node10 -->
<g id="edge9" class="edge"><title>Node4&#45;&gt;Node10</title>
<path fill="none" stroke="midnightblue" d="M276.183,-822.239C306.545,-805.016 366.972,-770.864 372,-769 379.279,-766.301 387.028,-763.952 394.829,-761.916"/>
<polygon fill="midnightblue" stroke="midnightblue" points="395.822,-765.276 404.704,-759.5 394.159,-758.476 395.822,-765.276"/>
</g>
<!-- Node13 -->
<g id="node13" class="node"><title>Node13</title>
<g id="a_node13"><a xlink:href="../../db/d93/classcompiler_1_1_compiler.html#a490860dbdd9c5c56fe3c578a8bd55c5a" target="_top" xlink:title="compiler.Compiler.translate\lToEnglish">
<polygon fill="white" stroke="black" points="392,-691 392,-721 540,-721 540,-691 392,-691"/>
<text text-anchor="start" x="400" y="-709" font-family="Helvetica,sans-Serif" font-size="10.00">compiler.Compiler.translate</text>
<text text-anchor="middle" x="466" y="-698" font-family="Helvetica,sans-Serif" font-size="10.00">ToEnglish</text>
</a>
</g>
</g>
<!-- Node12&#45;&gt;Node13 -->
<g id="edge12" class="edge"><title>Node12&#45;&gt;Node13</title>
<path fill="none" stroke="midnightblue" d="M329.605,-691.54C346.352,-693.329 364.37,-695.253 381.625,-697.096"/>
<polygon fill="midnightblue" stroke="midnightblue" points="381.366,-700.588 391.681,-698.17 382.109,-693.628 381.366,-700.588"/>
</g>
<!-- Node14 -->
<g id="node14" class="node"><title>Node14</title>
<g id="a_node14"><a xlink:href="../../de/d03/classcompiler_1_1_token_finder.html#a8f4fdc09f838a5cee92938ae555a93dc" target="_top" xlink:title="compiler.TokenFinder.tokenize">
<polygon fill="white" stroke="black" points="387,-652.5 387,-671.5 545,-671.5 545,-652.5 387,-652.5"/>
<text text-anchor="middle" x="466" y="-659.5" font-family="Helvetica,sans-Serif" font-size="10.00">compiler.TokenFinder.tokenize</text>
</a>
</g>
</g>
<!-- Node12&#45;&gt;Node14 -->
<g id="edge13" class="edge"><title>Node12&#45;&gt;Node14</title>
<path fill="none" stroke="midnightblue" d="M329.605,-676.46C344.701,-674.847 360.83,-673.125 376.502,-671.451"/>
<polygon fill="midnightblue" stroke="midnightblue" points="377.148,-674.902 386.72,-670.36 376.405,-667.942 377.148,-674.902"/>
</g>
<!-- Node16 -->
<g id="node16" class="node"><title>Node16</title>
<g id="a_node16"><a xlink:href="../../db/d93/classcompiler_1_1_compiler.html#ae6504512c09bb3ab9064f3b12f0a51ff" target="_top" xlink:title="compiler.Compiler.symbol\lTableGeneration">
<polygon fill="white" stroke="black" points="396,-603 396,-633 536,-633 536,-603 396,-603"/>
<text text-anchor="start" x="404" y="-621" font-family="Helvetica,sans-Serif" font-size="10.00">compiler.Compiler.symbol</text>
<text text-anchor="middle" x="466" y="-610" font-family="Helvetica,sans-Serif" font-size="10.00">TableGeneration</text>
</a>
</g>
</g>
<!-- Node12&#45;&gt;Node16 -->
<g id="edge15" class="edge"><title>Node12&#45;&gt;Node16</title>
<path fill="none" stroke="midnightblue" d="M283.482,-674.431C306.231,-665.703 341.149,-652.724 372,-643 379.709,-640.57 387.823,-638.167 395.914,-635.866"/>
<polygon fill="midnightblue" stroke="midnightblue" points="397.056,-639.181 405.743,-633.116 395.169,-632.44 397.056,-639.181"/>
</g>
<!-- Node15 -->
<g id="node15" class="node"><title>Node15</title>
<g id="a_node15"><a xlink:href="../../de/d03/classcompiler_1_1_token_finder.html#a17a5eca5ffc7312f5eb38cf1504f7b86" target="_top" xlink:title="compiler.TokenFinder.stringType">
<polygon fill="white" stroke="black" points="609,-668.5 609,-687.5 775,-687.5 775,-668.5 609,-668.5"/>
<text text-anchor="middle" x="692" y="-675.5" font-family="Helvetica,sans-Serif" font-size="10.00">compiler.TokenFinder.stringType</text>
</a>
</g>
</g>
<!-- Node14&#45;&gt;Node15 -->
<g id="edge14" class="edge"><title>Node14&#45;&gt;Node15</title>
<path fill="none" stroke="midnightblue" d="M545.03,-667.574C562.234,-668.802 580.619,-670.116 598.339,-671.381"/>
<polygon fill="midnightblue" stroke="midnightblue" points="598.457,-674.899 608.681,-672.12 598.956,-667.916 598.457,-674.899"/>
</g>
<!-- Node17 -->
<g id="node17" class="node"><title>Node17</title>
<g id="a_node17"><a xlink:href="../../dd/d18/classcompiler_1_1_symbol_table_entry.html#a77ced9095e334cd236a57ba558a03e73" target="_top" xlink:title="compiler.SymbolTableEntry.setType">
<polygon fill="white" stroke="black" points="601,-630.5 601,-649.5 783,-649.5 783,-630.5 601,-630.5"/>
<text text-anchor="middle" x="692" y="-637.5" font-family="Helvetica,sans-Serif" font-size="10.00">compiler.SymbolTableEntry.setType</text>
</a>
</g>
</g>
<!-- Node16&#45;&gt;Node17 -->
<g id="edge16" class="edge"><title>Node16&#45;&gt;Node17</title>
<path fill="none" stroke="midnightblue" d="M536.035,-624.78C553.281,-626.474 572.128,-628.325 590.554,-630.135"/>
<polygon fill="midnightblue" stroke="midnightblue" points="590.44,-633.64 600.734,-631.135 591.124,-626.674 590.44,-633.64"/>
</g>
<!-- Node18 -->
<g id="node18" class="node"><title>Node18</title>
<g id="a_node18"><a xlink:href="../../dd/d18/classcompiler_1_1_symbol_table_entry.html#a12657cfb875265be8e008315d81f65bf" target="_top" xlink:title="compiler.SymbolTableEntry.setName">
<polygon fill="white" stroke="black" points="596.5,-592.5 596.5,-611.5 787.5,-611.5 787.5,-592.5 596.5,-592.5"/>
<text text-anchor="middle" x="692" y="-599.5" font-family="Helvetica,sans-Serif" font-size="10.00">compiler.SymbolTableEntry.setName</text>
</a>
</g>
</g>
<!-- Node16&#45;&gt;Node18 -->
<g id="edge17" class="edge"><title>Node16&#45;&gt;Node18</title>
<path fill="none" stroke="midnightblue" d="M536.035,-613.069C551.939,-611.933 569.205,-610.7 586.246,-609.482"/>
<polygon fill="midnightblue" stroke="midnightblue" points="586.517,-612.972 596.242,-608.768 586.018,-605.99 586.517,-612.972"/>
</g>
<!-- Node19 -->
<g id="node19" class="node"><title>Node19</title>
<g id="a_node19"><a xlink:href="../../dd/d18/classcompiler_1_1_symbol_table_entry.html#a9c52435da30816b629f211c707ebbafe" target="_top" xlink:title="compiler.SymbolTableEntry.set\lValue">
<polygon fill="white" stroke="black" points="611.5,-543 611.5,-573 772.5,-573 772.5,-543 611.5,-543"/>
<text text-anchor="start" x="619.5" y="-561" font-family="Helvetica,sans-Serif" font-size="10.00">compiler.SymbolTableEntry.set</text>
<text text-anchor="middle" x="692" y="-550" font-family="Helvetica,sans-Serif" font-size="10.00">Value</text>
</a>
</g>
</g>
<!-- Node16&#45;&gt;Node19 -->
<g id="edge18" class="edge"><title>Node16&#45;&gt;Node19</title>
<path fill="none" stroke="midnightblue" d="M523.578,-602.872C535.606,-599.633 548.227,-596.218 560,-593 576.018,-588.622 579.97,-587.335 596,-583 604.886,-580.597 614.249,-578.095 623.491,-575.644"/>
<polygon fill="midnightblue" stroke="midnightblue" points="624.673,-578.952 633.445,-573.011 622.883,-572.185 624.673,-578.952"/>
</g>
<!-- Node21 -->
<g id="node21" class="node"><title>Node21</title>
<g id="a_node21"><a xlink:href="../../de/d00/classcommands_1_1_command_list.html#a3fa6072b15e6e34c66f5d4e264460553" target="_top" xlink:title="commands.CommandList.clear\lScreen">
<polygon fill="white" stroke="black" points="382.5,-554 382.5,-584 549.5,-584 549.5,-554 382.5,-554"/>
<text text-anchor="start" x="390.5" y="-572" font-family="Helvetica,sans-Serif" font-size="10.00">commands.CommandList.clear</text>
<text text-anchor="middle" x="466" y="-561" font-family="Helvetica,sans-Serif" font-size="10.00">Screen</text>
</a>
</g>
</g>
<!-- Node20&#45;&gt;Node21 -->
<g id="edge20" class="edge"><title>Node20&#45;&gt;Node21</title>
<path fill="none" stroke="midnightblue" d="M260.498,-309.691C266.698,-346.399 293.795,-478.149 372,-544 374.014,-545.696 376.133,-547.278 378.335,-548.754"/>
<polygon fill="midnightblue" stroke="midnightblue" points="376.801,-551.911 387.201,-553.933 380.332,-545.867 376.801,-551.911"/>
</g>
<!-- Node23 -->
<g id="node23" class="node"><title>Node23</title>
<g id="a_node23"><a xlink:href="../../de/d00/classcommands_1_1_command_list.html#a5b320e3a2018fde1a425658bf6f76f71" target="_top" xlink:title="commands.CommandList.forward\lCommand">
<polygon fill="white" stroke="black" points="376.5,-505 376.5,-535 555.5,-535 555.5,-505 376.5,-505"/>
<text text-anchor="start" x="384.5" y="-523" font-family="Helvetica,sans-Serif" font-size="10.00">commands.CommandList.forward</text>
<text text-anchor="middle" x="466" y="-512" font-family="Helvetica,sans-Serif" font-size="10.00">Command</text>
</a>
</g>
</g>
<!-- Node20&#45;&gt;Node23 -->
<g id="edge22" class="edge"><title>Node20&#45;&gt;Node23</title>
<path fill="none" stroke="midnightblue" d="M261.761,-309.91C271.233,-342.019 305.55,-444.053 372,-495 374.363,-496.812 376.848,-498.493 379.426,-500.052"/>
<polygon fill="midnightblue" stroke="midnightblue" points="378.037,-503.278 388.508,-504.899 381.333,-497.103 378.037,-503.278"/>
</g>
<!-- Node24 -->
<g id="node24" class="node"><title>Node24</title>
<g id="a_node24"><a xlink:href="../../de/d00/classcommands_1_1_command_list.html#a10e5a16b6560987b4c7deefa4a12fbdb" target="_top" xlink:title="commands.CommandList.heading">
<polygon fill="white" stroke="black" points="375,-466.5 375,-485.5 557,-485.5 557,-466.5 375,-466.5"/>
<text text-anchor="middle" x="466" y="-473.5" font-family="Helvetica,sans-Serif" font-size="10.00">commands.CommandList.heading</text>
</a>
</g>
</g>
<!-- Node20&#45;&gt;Node24 -->
<g id="edge24" class="edge"><title>Node20&#45;&gt;Node24</title>
<path fill="none" stroke="midnightblue" d="M262.936,-309.585C274.821,-337.239 313.175,-417.638 372,-456 375.839,-458.503 379.938,-460.699 384.196,-462.624"/>
<polygon fill="midnightblue" stroke="midnightblue" points="383.148,-465.974 393.733,-466.421 385.737,-459.47 383.148,-465.974"/>
</g>
<!-- Node25 -->
<g id="node25" class="node"><title>Node25</title>
<g id="a_node25"><a xlink:href="../../de/d00/classcommands_1_1_command_list.html#a787a3850e0d0584213bfe7fdcd011985" target="_top" xlink:title="commands.CommandList.hide\lTurtle">
<polygon fill="white" stroke="black" points="384,-417 384,-447 548,-447 548,-417 384,-417"/>
<text text-anchor="start" x="392" y="-435" font-family="Helvetica,sans-Serif" font-size="10.00">commands.CommandList.hide</text>
<text text-anchor="middle" x="466" y="-424" font-family="Helvetica,sans-Serif" font-size="10.00">Turtle</text>
</a>
</g>
</g>
<!-- Node20&#45;&gt;Node25 -->
<g id="edge26" class="edge"><title>Node20&#45;&gt;Node25</title>
<path fill="none" stroke="midnightblue" d="M266.334,-309.645C282.827,-330.648 325.087,-380.736 372,-407 375.964,-409.219 380.134,-411.249 384.422,-413.104"/>
<polygon fill="midnightblue" stroke="midnightblue" points="383.377,-416.455 393.963,-416.894 385.961,-409.95 383.377,-416.455"/>
</g>
<!-- Node26 -->
<g id="node26" class="node"><title>Node26</title>
<g id="a_node26"><a xlink:href="../../de/d00/classcommands_1_1_command_list.html#a982e66bba41ac1d0773d4dcb92aab824" target="_top" xlink:title="commands.CommandList.penDown">
<polygon fill="white" stroke="black" points="372,-378.5 372,-397.5 560,-397.5 560,-378.5 372,-378.5"/>
<text text-anchor="middle" x="466" y="-385.5" font-family="Helvetica,sans-Serif" font-size="10.00">commands.CommandList.penDown</text>
</a>
</g>
</g>
<!-- Node20&#45;&gt;Node26 -->
<g id="edge28" class="edge"><title>Node20&#45;&gt;Node26</title>
<path fill="none" stroke="midnightblue" d="M271.821,-309.674C292.037,-324.46 333.039,-352.584 372,-368 379.726,-371.057 388.008,-373.685 396.328,-375.934"/>
<polygon fill="midnightblue" stroke="midnightblue" points="395.528,-379.342 406.082,-378.404 397.247,-372.557 395.528,-379.342"/>
</g>
<!-- Node27 -->
<g id="node27" class="node"><title>Node27</title>
<g id="a_node27"><a xlink:href="../../de/d00/classcommands_1_1_command_list.html#aef01a8e42196fc5ae6685ba9f3991e5e" target="_top" xlink:title="commands.CommandList.pen\lDownP">
<polygon fill="white" stroke="black" points="385.5,-329 385.5,-359 546.5,-359 546.5,-329 385.5,-329"/>
<text text-anchor="start" x="393.5" y="-347" font-family="Helvetica,sans-Serif" font-size="10.00">commands.CommandList.pen</text>
<text text-anchor="middle" x="466" y="-336" font-family="Helvetica,sans-Serif" font-size="10.00">DownP</text>
</a>
</g>
</g>
<!-- Node20&#45;&gt;Node27 -->
<g id="edge30" class="edge"><title>Node20&#45;&gt;Node27</title>
<path fill="none" stroke="midnightblue" d="M303.699,-309.547C327.306,-314.59 357.006,-320.933 384.467,-326.799"/>
<polygon fill="midnightblue" stroke="midnightblue" points="383.956,-330.269 394.467,-328.935 385.418,-323.423 383.956,-330.269"/>
</g>
<!-- Node28 -->
<g id="node28" class="node"><title>Node28</title>
<g id="a_node28"><a xlink:href="../../de/d00/classcommands_1_1_command_list.html#a62ca3466760389089ab8a1474d7649da" target="_top" xlink:title="commands.CommandList.penUp">
<polygon fill="white" stroke="black" points="378.5,-290.5 378.5,-309.5 553.5,-309.5 553.5,-290.5 378.5,-290.5"/>
<text text-anchor="middle" x="466" y="-297.5" font-family="Helvetica,sans-Serif" font-size="10.00">commands.CommandList.penUp</text>
</a>
</g>
</g>
<!-- Node20&#45;&gt;Node28 -->
<g id="edge32" class="edge"><title>Node20&#45;&gt;Node28</title>
<path fill="none" stroke="midnightblue" d="M318.031,-300C333.734,-300 351.116,-300 368.265,-300"/>
<polygon fill="midnightblue" stroke="midnightblue" points="368.321,-303.5 378.321,-300 368.321,-296.5 368.321,-303.5"/>
</g>
<!-- Node29 -->
<g id="node29" class="node"><title>Node29</title>
<g id="a_node29"><a xlink:href="../../de/d00/classcommands_1_1_command_list.html#adeb55ad1a5d59a59b3a19582f885d55a" target="_top" xlink:title="commands.CommandList.SetXY">
<polygon fill="white" stroke="black" points="380.5,-252.5 380.5,-271.5 551.5,-271.5 551.5,-252.5 380.5,-252.5"/>
<text text-anchor="middle" x="466" y="-259.5" font-family="Helvetica,sans-Serif" font-size="10.00">commands.CommandList.SetXY</text>
</a>
</g>
</g>
<!-- Node20&#45;&gt;Node29 -->
<g id="edge34" class="edge"><title>Node20&#45;&gt;Node29</title>
<path fill="none" stroke="midnightblue" d="M310.717,-290.46C338.756,-285.288 373.602,-278.86 403.079,-273.422"/>
<polygon fill="midnightblue" stroke="midnightblue" points="404.063,-276.8 413.262,-271.544 402.793,-269.916 404.063,-276.8"/>
</g>
<!-- Node30 -->
<g id="node30" class="node"><title>Node30</title>
<g id="a_node30"><a xlink:href="../../de/d00/classcommands_1_1_command_list.html#a56d90f6038375159ddd4381483313eba" target="_top" xlink:title="commands.CommandList.showingP">
<polygon fill="white" stroke="black" points="372,-214.5 372,-233.5 560,-233.5 560,-214.5 372,-214.5"/>
<text text-anchor="middle" x="466" y="-221.5" font-family="Helvetica,sans-Serif" font-size="10.00">commands.CommandList.showingP</text>
</a>
</g>
</g>
<!-- Node20&#45;&gt;Node30 -->
<g id="edge36" class="edge"><title>Node20&#45;&gt;Node30</title>
<path fill="none" stroke="midnightblue" d="M274.506,-290.498C295.758,-277.873 335.47,-255.691 372,-243 379.832,-240.279 388.178,-237.894 396.533,-235.817"/>
<polygon fill="midnightblue" stroke="midnightblue" points="397.38,-239.214 406.315,-233.52 395.779,-232.399 397.38,-239.214"/>
</g>
<!-- Node31 -->
<g id="node31" class="node"><title>Node31</title>
<g id="a_node31"><a xlink:href="../../de/d00/classcommands_1_1_command_list.html#a84ca20352feab138c22ab7ed8b32f0d1" target="_top" xlink:title="commands.CommandList.show\lTurtle">
<polygon fill="white" stroke="black" points="382.5,-165 382.5,-195 549.5,-195 549.5,-165 382.5,-165"/>
<text text-anchor="start" x="390.5" y="-183" font-family="Helvetica,sans-Serif" font-size="10.00">commands.CommandList.show</text>
<text text-anchor="middle" x="466" y="-172" font-family="Helvetica,sans-Serif" font-size="10.00">Turtle</text>
</a>
</g>
</g>
<!-- Node20&#45;&gt;Node31 -->
<g id="edge38" class="edge"><title>Node20&#45;&gt;Node31</title>
<path fill="none" stroke="midnightblue" d="M267.642,-290.326C285.319,-271.137 327.689,-228.116 372,-205 376.516,-202.644 381.275,-200.494 386.155,-198.536"/>
<polygon fill="midnightblue" stroke="midnightblue" points="387.503,-201.769 395.655,-195.001 385.062,-195.208 387.503,-201.769"/>
</g>
<!-- Node32 -->
<g id="node32" class="node"><title>Node32</title>
<g id="a_node32"><a xlink:href="../../de/d00/classcommands_1_1_command_list.html#af0d3ea536d38493b14ee45fe04848286" target="_top" xlink:title="commands.CommandList.towards">
<polygon fill="white" stroke="black" points="375.5,-126.5 375.5,-145.5 556.5,-145.5 556.5,-126.5 375.5,-126.5"/>
<text text-anchor="middle" x="466" y="-133.5" font-family="Helvetica,sans-Serif" font-size="10.00">commands.CommandList.towards</text>
</a>
</g>
</g>
<!-- Node20&#45;&gt;Node32 -->
<g id="edge40" class="edge"><title>Node20&#45;&gt;Node32</title>
<path fill="none" stroke="midnightblue" d="M263.478,-290.309C276.247,-263.844 315.586,-189.99 372,-155 375.37,-152.91 378.928,-151.045 382.609,-149.381"/>
<polygon fill="midnightblue" stroke="midnightblue" points="383.983,-152.601 391.975,-145.646 381.39,-146.099 383.983,-152.601"/>
</g>
<!-- Node33 -->
<g id="node33" class="node"><title>Node33</title>
<g id="a_node33"><a xlink:href="../../de/d00/classcommands_1_1_command_list.html#a19cc311e99a6fa5e95d0966c09bdc907" target="_top" xlink:title="commands.CommandList.turn\lCommand">
<polygon fill="white" stroke="black" points="384.5,-77 384.5,-107 547.5,-107 547.5,-77 384.5,-77"/>
<text text-anchor="start" x="392.5" y="-95" font-family="Helvetica,sans-Serif" font-size="10.00">commands.CommandList.turn</text>
<text text-anchor="middle" x="466" y="-84" font-family="Helvetica,sans-Serif" font-size="10.00">Command</text>
</a>
</g>
</g>
<!-- Node20&#45;&gt;Node33 -->
<g id="edge42" class="edge"><title>Node20&#45;&gt;Node33</title>
<path fill="none" stroke="midnightblue" d="M262.094,-290.266C272.344,-259.645 308.212,-164.504 372,-117 374.533,-115.114 377.199,-113.369 379.964,-111.757"/>
<polygon fill="midnightblue" stroke="midnightblue" points="381.813,-114.741 389.09,-107.041 378.599,-108.522 381.813,-114.741"/>
</g>
<!-- Node34 -->
<g id="node34" class="node"><title>Node34</title>
<g id="a_node34"><a xlink:href="../../de/d00/classcommands_1_1_command_list.html#a59070aee1fd5b3efa68c63fb3ab6ed6e" target="_top" xlink:title="commands.CommandList.xCor">
<polygon fill="white" stroke="black" points="383.5,-38.5 383.5,-57.5 548.5,-57.5 548.5,-38.5 383.5,-38.5"/>
<text text-anchor="middle" x="466" y="-45.5" font-family="Helvetica,sans-Serif" font-size="10.00">commands.CommandList.xCor</text>
</a>
</g>
</g>
<!-- Node20&#45;&gt;Node34 -->
<g id="edge44" class="edge"><title>Node20&#45;&gt;Node34</title>
<path fill="none" stroke="midnightblue" d="M260.614,-290.097C267.078,-253.81 294.598,-127.12 372,-67 374.318,-65.1994 376.764,-63.5573 379.309,-62.0606"/>
<polygon fill="midnightblue" stroke="midnightblue" points="380.956,-65.1498 388.298,-57.5117 377.795,-58.9039 380.956,-65.1498"/>
</g>
<!-- Node35 -->
<g id="node35" class="node"><title>Node35</title>
<g id="a_node35"><a xlink:href="../../de/d00/classcommands_1_1_command_list.html#a4d30a46927f84016abe3bc1051baf62c" target="_top" xlink:title="commands.CommandList.yCor">
<polygon fill="white" stroke="black" points="383.5,-0.5 383.5,-19.5 548.5,-19.5 548.5,-0.5 383.5,-0.5"/>
<text text-anchor="middle" x="466" y="-7.5" font-family="Helvetica,sans-Serif" font-size="10.00">commands.CommandList.yCor</text>
</a>
</g>
</g>
<!-- Node20&#45;&gt;Node35 -->
<g id="edge46" class="edge"><title>Node20&#45;&gt;Node35</title>
<path fill="none" stroke="midnightblue" d="M259.854,-290.471C263.907,-251.218 284.821,-100.752 372,-29 374.004,-27.3506 376.113,-25.8322 378.308,-24.435"/>
<polygon fill="midnightblue" stroke="midnightblue" points="380.037,-27.4788 387.149,-19.6256 376.692,-21.3297 380.037,-27.4788"/>
</g>
<!-- Node22 -->
<g id="node22" class="node"><title>Node22</title>
<g id="a_node22"><a xlink:href="../../de/d1c/namespacesimulation_objects.html#a02779129356465b8d266330b211f83f1" target="_top" xlink:title="simulationObjects.Turtle">
<polygon fill="white" stroke="black" points="626.5,-271.5 626.5,-290.5 757.5,-290.5 757.5,-271.5 626.5,-271.5"/>
<text text-anchor="middle" x="692" y="-278.5" font-family="Helvetica,sans-Serif" font-size="10.00">simulationObjects.Turtle</text>
</a>
</g>
</g>
<!-- Node21&#45;&gt;Node22 -->
<g id="edge21" class="edge"><title>Node21&#45;&gt;Node22</title>
<path fill="none" stroke="midnightblue" d="M544.678,-553.788C550.154,-551.044 555.341,-547.811 560,-544 640.768,-477.929 676.103,-349.516 687.042,-300.582"/>
<polygon fill="midnightblue" stroke="midnightblue" points="690.495,-301.172 689.164,-290.661 683.65,-299.708 690.495,-301.172"/>
</g>
<!-- Node23&#45;&gt;Node22 -->
<g id="edge23" class="edge"><title>Node23&#45;&gt;Node22</title>
<path fill="none" stroke="midnightblue" d="M542.926,-504.981C548.989,-502.2 554.778,-498.905 560,-495 629.321,-443.166 669.953,-342.871 684.668,-300.572"/>
<polygon fill="midnightblue" stroke="midnightblue" points="688.046,-301.508 687.924,-290.914 681.413,-299.272 688.046,-301.508"/>
</g>
<!-- Node24&#45;&gt;Node22 -->
<g id="edge25" class="edge"><title>Node24&#45;&gt;Node22</title>
<path fill="none" stroke="midnightblue" d="M537.72,-466.483C545.575,-463.795 553.187,-460.367 560,-456 621.65,-416.482 664.787,-337.118 682.295,-300.424"/>
<polygon fill="midnightblue" stroke="midnightblue" points="685.687,-301.428 686.724,-290.884 679.338,-298.481 685.687,-301.428"/>
</g>
<!-- Node25&#45;&gt;Node22 -->
<g id="edge27" class="edge"><title>Node25&#45;&gt;Node22</title>
<path fill="none" stroke="midnightblue" d="M538.067,-416.948C545.694,-414.154 553.158,-410.865 560,-407 610.573,-378.427 656.149,-325.798 677.766,-298.482"/>
<polygon fill="midnightblue" stroke="midnightblue" points="680.545,-300.608 683.918,-290.565 675.018,-296.313 680.545,-300.608"/>
</g>
<!-- Node26&#45;&gt;Node22 -->
<g id="edge29" class="edge"><title>Node26&#45;&gt;Node22</title>
<path fill="none" stroke="midnightblue" d="M527.552,-378.422C538.575,-375.718 549.804,-372.299 560,-368 603.207,-349.782 647.403,-316.85 671.813,-297.147"/>
<polygon fill="midnightblue" stroke="midnightblue" points="674.072,-299.821 679.588,-290.775 669.635,-294.406 674.072,-299.821"/>
</g>
<!-- Node27&#45;&gt;Node22 -->
<g id="edge31" class="edge"><title>Node27&#45;&gt;Node22</title>
<path fill="none" stroke="midnightblue" d="M523.606,-328.974C535.632,-325.729 548.245,-322.284 560,-319 589.799,-310.674 623.304,-300.948 648.97,-293.42"/>
<polygon fill="midnightblue" stroke="midnightblue" points="650.141,-296.724 658.749,-290.547 648.168,-290.008 650.141,-296.724"/>
</g>
<!-- Node28&#45;&gt;Node22 -->
<g id="edge33" class="edge"><title>Node28&#45;&gt;Node22</title>
<path fill="none" stroke="midnightblue" d="M553.604,-292.654C574.247,-290.903 596.104,-289.049 616.167,-287.347"/>
<polygon fill="midnightblue" stroke="midnightblue" points="616.499,-290.832 626.168,-286.499 615.908,-283.857 616.499,-290.832"/>
</g>
<!-- Node29&#45;&gt;Node22 -->
<g id="edge35" class="edge"><title>Node29&#45;&gt;Node22</title>
<path fill="none" stroke="midnightblue" d="M551.685,-269.183C572.979,-270.989 595.676,-272.914 616.434,-274.675"/>
<polygon fill="midnightblue" stroke="midnightblue" points="616.194,-278.167 626.454,-275.525 616.786,-271.192 616.194,-278.167"/>
</g>
<!-- Node30&#45;&gt;Node22 -->
<g id="edge37" class="edge"><title>Node30&#45;&gt;Node22</title>
<path fill="none" stroke="midnightblue" d="M517.362,-233.516C531.23,-236.346 546.24,-239.605 560,-243 590.75,-250.588 625.125,-260.619 650.946,-268.47"/>
<polygon fill="midnightblue" stroke="midnightblue" points="650.161,-271.89 660.747,-271.47 652.21,-265.196 650.161,-271.89"/>
</g>
<!-- Node31&#45;&gt;Node22 -->
<g id="edge39" class="edge"><title>Node31&#45;&gt;Node22</title>
<path fill="none" stroke="midnightblue" d="M531.774,-195.049C541.376,-197.956 551.047,-201.276 560,-205 600.217,-221.727 643.239,-248.63 668.596,-265.535"/>
<polygon fill="midnightblue" stroke="midnightblue" points="666.854,-268.581 677.101,-271.273 670.769,-262.779 666.854,-268.581"/>
</g>
<!-- Node32&#45;&gt;Node22 -->
<g id="edge41" class="edge"><title>Node32&#45;&gt;Node22</title>
<path fill="none" stroke="midnightblue" d="M536.085,-145.519C544.393,-147.986 552.56,-151.091 560,-155 611.422,-182.016 656.626,-235.327 677.967,-263.15"/>
<polygon fill="midnightblue" stroke="midnightblue" points="675.228,-265.331 684.035,-271.222 680.823,-261.125 675.228,-265.331"/>
</g>
<!-- Node33&#45;&gt;Node22 -->
<g id="edge43" class="edge"><title>Node33&#45;&gt;Node22</title>
<path fill="none" stroke="midnightblue" d="M540.996,-107.138C547.675,-109.896 554.125,-113.154 560,-117 618.548,-155.334 662.975,-228.446 681.519,-262.584"/>
<polygon fill="midnightblue" stroke="midnightblue" points="678.463,-264.291 686.243,-271.483 684.646,-261.01 678.463,-264.291"/>
</g>
<!-- Node34&#45;&gt;Node22 -->
<g id="edge45" class="edge"><title>Node34&#45;&gt;Node22</title>
<path fill="none" stroke="midnightblue" d="M542.371,-57.671C548.622,-60.1501 554.603,-63.2157 560,-67 631.2,-116.923 671.015,-219.112 685.098,-261.699"/>
<polygon fill="midnightblue" stroke="midnightblue" points="681.817,-262.931 688.194,-271.392 688.485,-260.801 681.817,-262.931"/>
</g>
<!-- Node35&#45;&gt;Node22 -->
<g id="edge47" class="edge"><title>Node35&#45;&gt;Node22</title>
<path fill="none" stroke="midnightblue" d="M543.587,-19.6622C549.438,-22.157 555.001,-25.2279 560,-29 640.163,-89.4941 675.691,-213.239 686.865,-261.3"/>
<polygon fill="midnightblue" stroke="midnightblue" points="683.508,-262.325 689.094,-271.328 690.341,-260.807 683.508,-262.325"/>
</g>
</g>
</svg>
        <g id="navigator" transform="translate(0 0)" fill="#404254">
                <rect fill="#f2f5e9" fill-opacity="0.5" stroke="#606060" stroke-width=".5" x="0" y="0" width="60" height="60"/>
                <use id="zoomplus" xlink:href="#zoomPlus" x="17" y="9" onmousedown="handleZoom(evt,'in')"/>
                <use id="zoomminus" xlink:href="#zoomMin" x="42" y="9" onmousedown="handleZoom(evt,'out')"/>
                <use id="reset" xlink:href="#resetDef" x="30" y="36" onmousedown="handleReset()"/>
                <g id="arrowUp" xlink:href="#dirArrow" transform="translate(30 24)" onmousedown="handlePan(0,-1)">
                  <use xlink:href="#rim" fill="#404040">
                        <set attributeName="fill" to="#808080" begin="arrowUp.mouseover" end="arrowUp.mouseout"/>
                  </use>
                  <path fill="none" stroke="white" stroke-width="1.5" d="M0,-3.0v7 M-2.5,-0.5L0,-3.0L2.5,-0.5"/>
                </g>
                <g id="arrowRight" xlink:href="#dirArrow" transform="rotate(90) translate(36 -43)" onmousedown="handlePan(1,0)">
                  <use xlink:href="#rim" fill="#404040">
                        <set attributeName="fill" to="#808080" begin="arrowRight.mouseover" end="arrowRight.mouseout"/>
                  </use>
                  <path fill="none" stroke="white" stroke-width="1.5" d="M0,-3.0v7 M-2.5,-0.5L0,-3.0L2.5,-0.5"/>
                </g>
                <g id="arrowDown" xlink:href="#dirArrow" transform="rotate(180) translate(-30 -48)" onmousedown="handlePan(0,1)">
                  <use xlink:href="#rim" fill="#404040">
                        <set attributeName="fill" to="#808080" begin="arrowDown.mouseover" end="arrowDown.mouseout"/>
                  </use>
                  <path fill="none" stroke="white" stroke-width="1.5" d="M0,-3.0v7 M-2.5,-0.5L0,-3.0L2.5,-0.5"/>
                </g>
                <g id="arrowLeft" xlink:href="#dirArrow" transform="rotate(270) translate(-36 17)" onmousedown="handlePan(-1,0)">
                  <use xlink:href="#rim" fill="#404040">
                        <set attributeName="fill" to="#808080" begin="arrowLeft.mouseover" end="arrowLeft.mouseout"/>
                  </use>
                  <path fill="none" stroke="white" stroke-width="1.5" d="M0,-3.0v7 M-2.5,-0.5L0,-3.0L2.5,-0.5"/>
                </g>
        </g>
        <svg viewBox="0 0 15 15" width="100%" height="30px" preserveAspectRatio="xMaxYMin meet">
         <g id="arrow_out" transform="scale(0.3 0.3)">
          <a xlink:href="classcompiler_1_1_compiler_a8a90aa273bacff724a034959914a4c2d_cgraph_org.svg" target="_base">
           <rect id="button" ry="5" rx="5" y="6" x="6" height="38" width="38"
                fill="#f2f5e9" fill-opacity="0.5" stroke="#606060" stroke-width="1.0"/>
           <path id="arrow"
             d="M 11.500037,31.436501 C 11.940474,20.09759 22.043105,11.32322 32.158766,21.979434 L 37.068811,17.246167 C 37.068811,17.246167 37.088388,32 37.088388,32 L 22.160133,31.978069 C 22.160133,31.978069 26.997745,27.140456 26.997745,27.140456 C 18.528582,18.264221 13.291696,25.230495 11.500037,31.436501 z"
             style="fill:#404040;"/>
          </a>
         </g>
        </svg>
</svg>
