<?xml version="1.0" encoding="UTF-8" standalone="no"?>
<!DOCTYPE svg PUBLIC "-//W3C//DTD SVG 1.1//EN"
 "http://www.w3.org/Graphics/SVG/1.1/DTD/svg11.dtd">
<!-- Generated by graphviz version 2.36.0 (20140111.2315)
 -->
<!-- Title: compiler.Compiler.translateToEnglish Pages: 1 -->
<svg width="1432pt" height="207pt"
 viewBox="0.00 0.00 1432.00 207.00" xmlns="http://www.w3.org/2000/svg" xmlns:xlink="http://www.w3.org/1999/xlink">
<g id="graph0" class="graph" transform="scale(1 1) rotate(0) translate(4 203)">
<title>compiler.Compiler.translateToEnglish</title>
<polygon fill="white" stroke="none" points="-4,4 -4,-203 1428,-203 1428,4 -4,4"/>
<!-- Node1 -->
<g id="node1" class="node"><title>Node1</title>
<polygon fill="#bfbfbf" stroke="black" points="0,-73 0,-103 148,-103 148,-73 0,-73"/>
<text text-anchor="start" x="8" y="-91" font-family="Helvetica,sans-Serif" font-size="10.00">compiler.Compiler.translate</text>
<text text-anchor="middle" x="74" y="-80" font-family="Helvetica,sans-Serif" font-size="10.00">ToEnglish</text>
</g>
<!-- Node2 -->
<g id="node2" class="node"><title>Node2</title>
<g id="a_node2"><a xlink:href="../../db/d93/classcompiler_1_1_compiler.html#ab49c76c1486c30d921d07022a1be4971" target="_top" xlink:title="compiler.Compiler.scanner">
<polygon fill="white" stroke="black" points="184.5,-78.5 184.5,-97.5 327.5,-97.5 327.5,-78.5 184.5,-78.5"/>
<text text-anchor="middle" x="256" y="-85.5" font-family="Helvetica,sans-Serif" font-size="10.00">compiler.Compiler.scanner</text>
</a>
</g>
</g>
<!-- Node1&#45;&gt;Node2 -->
<g id="edge1" class="edge"><title>Node1&#45;&gt;Node2</title>
<path fill="none" stroke="midnightblue" d="M158.392,-88C167.112,-88 175.916,-88 184.473,-88"/>
<polygon fill="midnightblue" stroke="midnightblue" points="158.213,-84.5001 148.213,-88 158.213,-91.5001 158.213,-84.5001"/>
</g>
<!-- Node3 -->
<g id="node3" class="node"><title>Node3</title>
<g id="a_node3"><a xlink:href="../../db/d93/classcompiler_1_1_compiler.html#a8a90aa273bacff724a034959914a4c2d" target="_top" xlink:title="compiler.Compiler.compile">
<polygon fill="white" stroke="black" points="364.5,-78.5 364.5,-97.5 507.5,-97.5 507.5,-78.5 364.5,-78.5"/>
<text text-anchor="middle" x="436" y="-85.5" font-family="Helvetica,sans-Serif" font-size="10.00">compiler.Compiler.compile</text>
</a>
</g>
</g>
<!-- Node2&#45;&gt;Node3 -->
<g id="edge2" class="edge"><title>Node2&#45;&gt;Node3</title>
<path fill="none" stroke="midnightblue" d="M337.646,-88C346.599,-88 355.666,-88 364.479,-88"/>
<polygon fill="midnightblue" stroke="midnightblue" points="337.606,-84.5001 327.606,-88 337.606,-91.5001 337.606,-84.5001"/>
</g>
<!-- Node4 -->
<g id="node4" class="node"><title>Node4</title>
<g id="a_node4"><a xlink:href="../../db/d93/classcompiler_1_1_compiler.html#a90d16b98c8e950bbaf772f5b93092a3f" target="_top" xlink:title="compiler.Compiler.main">
<polygon fill="white" stroke="black" points="558.5,-147.5 558.5,-166.5 687.5,-166.5 687.5,-147.5 558.5,-147.5"/>
<text text-anchor="middle" x="623" y="-154.5" font-family="Helvetica,sans-Serif" font-size="10.00">compiler.Compiler.main</text>
</a>
</g>
</g>
<!-- Node3&#45;&gt;Node4 -->
<g id="edge3" class="edge"><title>Node3&#45;&gt;Node4</title>
<path fill="none" stroke="midnightblue" d="M464.232,-102.112C485.53,-112.743 516.107,-127.126 544,-137 555.202,-140.965 567.564,-144.502 579.081,-147.458"/>
<polygon fill="midnightblue" stroke="midnightblue" points="465.647,-98.9049 455.143,-97.5207 462.491,-105.153 465.647,-98.9049"/>
</g>
<!-- Node5 -->
<g id="node5" class="node"><title>Node5</title>
<g id="a_node5"><a xlink:href="../../db/d32/classcontroller_1_1_main_controller.html#a6badeb343877f4b50f069b47afed495c" target="_top" xlink:title="controller.MainController.pass\lInput">
<polygon fill="white" stroke="black" points="544,-98 544,-128 702,-128 702,-98 544,-98"/>
<text text-anchor="start" x="552" y="-116" font-family="Helvetica,sans-Serif" font-size="10.00">controller.MainController.pass</text>
<text text-anchor="middle" x="623" y="-105" font-family="Helvetica,sans-Serif" font-size="10.00">Input</text>
</a>
</g>
</g>
<!-- Node3&#45;&gt;Node5 -->
<g id="edge4" class="edge"><title>Node3&#45;&gt;Node5</title>
<path fill="none" stroke="midnightblue" d="M517.565,-98.8872C526.238,-100.059 535.053,-101.25 543.698,-102.419"/>
<polygon fill="midnightblue" stroke="midnightblue" points="517.847,-95.3935 507.468,-97.5227 516.909,-102.33 517.847,-95.3935"/>
</g>
<!-- Node13 -->
<g id="node13" class="node"><title>Node13</title>
<g id="a_node13"><a xlink:href="../../d8/ded/class_j_unit_test_1_1_compiler_test.html#a4132f77013965dda40f6d62699de349a" target="_top" xlink:title="JUnitTest.CompilerTest.test\lGrammarException">
<polygon fill="white" stroke="black" points="551.5,-49 551.5,-79 694.5,-79 694.5,-49 551.5,-49"/>
<text text-anchor="start" x="559.5" y="-67" font-family="Helvetica,sans-Serif" font-size="10.00">JUnitTest.CompilerTest.test</text>
<text text-anchor="middle" x="623" y="-56" font-family="Helvetica,sans-Serif" font-size="10.00">GrammarException</text>
</a>
</g>
</g>
<!-- Node3&#45;&gt;Node13 -->
<g id="edge14" class="edge"><title>Node3&#45;&gt;Node13</title>
<path fill="none" stroke="midnightblue" d="M517.876,-77.508C529.011,-76.0635 540.374,-74.5893 551.307,-73.171"/>
<polygon fill="midnightblue" stroke="midnightblue" points="517.199,-74.0664 507.732,-78.8239 518.1,-81.0082 517.199,-74.0664"/>
</g>
<!-- Node14 -->
<g id="node14" class="node"><title>Node14</title>
<g id="a_node14"><a xlink:href="../../d8/ded/class_j_unit_test_1_1_compiler_test.html#accbcdde8d934dd7acc552820845d6b0f" target="_top" xlink:title="JUnitTest.CompilerTest.test\lSyntaxException">
<polygon fill="white" stroke="black" points="551.5,-0 551.5,-30 694.5,-30 694.5,-0 551.5,-0"/>
<text text-anchor="start" x="559.5" y="-18" font-family="Helvetica,sans-Serif" font-size="10.00">JUnitTest.CompilerTest.test</text>
<text text-anchor="middle" x="623" y="-7" font-family="Helvetica,sans-Serif" font-size="10.00">SyntaxException</text>
</a>
</g>
</g>
<!-- Node3&#45;&gt;Node14 -->
<g id="edge15" class="edge"><title>Node3&#45;&gt;Node14</title>
<path fill="none" stroke="midnightblue" d="M465.598,-74.1227C486.942,-64.024 516.961,-50.3608 544,-40 553.03,-36.54 562.766,-33.1542 572.196,-30.0473"/>
<polygon fill="midnightblue" stroke="midnightblue" points="463.965,-71.0241 456.444,-78.4871 466.977,-77.3427 463.965,-71.0241"/>
</g>
<!-- Node6 -->
<g id="node6" class="node"><title>Node6</title>
<g id="a_node6"><a xlink:href="../../dd/dea/classgui_1_1_g_u_i_scene.html#a7cb2b00ed820aecde169a5e14cf0d468" target="_top" xlink:title="gui.GUIScene.createGUI">
<polygon fill="white" stroke="black" points="932,-122.5 932,-141.5 1064,-141.5 1064,-122.5 932,-122.5"/>
<text text-anchor="middle" x="998" y="-129.5" font-family="Helvetica,sans-Serif" font-size="10.00">gui.GUIScene.createGUI</text>
</a>
</g>
</g>
<!-- Node5&#45;&gt;Node6 -->
<g id="edge5" class="edge"><title>Node5&#45;&gt;Node6</title>
<path fill="none" stroke="midnightblue" d="M712.389,-129.202C721.02,-130.341 729.664,-131.31 738,-132 803.874,-137.452 879.495,-136.643 931.949,-134.965"/>
<polygon fill="midnightblue" stroke="midnightblue" points="712.67,-125.707 702.283,-127.793 711.704,-132.64 712.67,-125.707"/>
</g>
<!-- Node11 -->
<g id="node11" class="node"><title>Node11</title>
<g id="a_node11"><a xlink:href="../../dd/dea/classgui_1_1_g_u_i_scene.html#a47e424a495817f5806f45064f77a632b" target="_top" xlink:title="gui.GUIScene.getRightBox">
<polygon fill="white" stroke="black" points="746,-103.5 746,-122.5 888,-122.5 888,-103.5 746,-103.5"/>
<text text-anchor="middle" x="817" y="-110.5" font-family="Helvetica,sans-Serif" font-size="10.00">gui.GUIScene.getRightBox</text>
</a>
</g>
</g>
<!-- Node5&#45;&gt;Node11 -->
<g id="edge11" class="edge"><title>Node5&#45;&gt;Node11</title>
<path fill="none" stroke="midnightblue" d="M712.315,-113C723.507,-113 734.84,-113 745.699,-113"/>
<polygon fill="midnightblue" stroke="midnightblue" points="712.094,-109.5 702.094,-113 712.094,-116.5 712.094,-109.5"/>
</g>
<!-- Node12 -->
<g id="node12" class="node"><title>Node12</title>
<g id="a_node12"><a xlink:href="../../d6/d6a/class_j_unit_test_1_1_backend_a_p_i_test.html#a86dd50c40468e1647c7c01614dc7d30d" target="_top" xlink:title="JUnitTest.BackendAPITest.test">
<polygon fill="white" stroke="black" points="738.5,-65.5 738.5,-84.5 895.5,-84.5 895.5,-65.5 738.5,-65.5"/>
<text text-anchor="middle" x="817" y="-72.5" font-family="Helvetica,sans-Serif" font-size="10.00">JUnitTest.BackendAPITest.test</text>
</a>
</g>
</g>
<!-- Node5&#45;&gt;Node12 -->
<g id="edge13" class="edge"><title>Node5&#45;&gt;Node12</title>
<path fill="none" stroke="midnightblue" d="M709.921,-95.9949C729.856,-92.0493 750.377,-87.9878 767.995,-84.5009"/>
<polygon fill="midnightblue" stroke="midnightblue" points="709.014,-92.6064 699.883,-97.9814 710.373,-99.4732 709.014,-92.6064"/>
</g>
<!-- Node7 -->
<g id="node7" class="node"><title>Node7</title>
<g id="a_node7"><a xlink:href="../../dd/dea/classgui_1_1_g_u_i_scene.html#a74967ac937baee81b9eec1b2bc38167c" target="_top" xlink:title="gui.GUIScene.createScene">
<polygon fill="white" stroke="black" points="1100.5,-160.5 1100.5,-179.5 1245.5,-179.5 1245.5,-160.5 1100.5,-160.5"/>
<text text-anchor="middle" x="1173" y="-167.5" font-family="Helvetica,sans-Serif" font-size="10.00">gui.GUIScene.createScene</text>
</a>
</g>
</g>
<!-- Node6&#45;&gt;Node7 -->
<g id="edge6" class="edge"><title>Node6&#45;&gt;Node7</title>
<path fill="none" stroke="midnightblue" d="M1052.51,-143.753C1076.97,-149.126 1105.57,-155.409 1128.66,-160.48"/>
<polygon fill="midnightblue" stroke="midnightblue" points="1053.17,-140.316 1042.66,-141.589 1051.67,-147.153 1053.17,-140.316"/>
</g>
<!-- Node10 -->
<g id="node10" class="node"><title>Node10</title>
<g id="a_node10"><a xlink:href="../../dd/dea/classgui_1_1_g_u_i_scene.html#a16324ddc026310495f84e77bbb311b2c" target="_top" xlink:title="gui.GUIScene.addButtons">
<polygon fill="white" stroke="black" points="1103,-122.5 1103,-141.5 1243,-141.5 1243,-122.5 1103,-122.5"/>
<text text-anchor="middle" x="1173" y="-129.5" font-family="Helvetica,sans-Serif" font-size="10.00">gui.GUIScene.addButtons</text>
</a>
</g>
</g>
<!-- Node6&#45;&gt;Node10 -->
<g id="edge9" class="edge"><title>Node6&#45;&gt;Node10</title>
<path fill="none" stroke="midnightblue" d="M1074.5,-125.299C1083.9,-125.215 1093.46,-125.239 1102.75,-125.371"/>
<polygon fill="midnightblue" stroke="midnightblue" points="1074.36,-121.8 1064.4,-125.432 1074.45,-128.8 1074.36,-121.8"/>
</g>
<!-- Node8 -->
<g id="node8" class="node"><title>Node8</title>
<g id="a_node8"><a xlink:href="../../d6/d0e/classcontroller_1_1_s_logo_main.html#ab5379c32fef791f21ad51abde7d268c0" target="_top" xlink:title="controller.SLogoMain.start">
<polygon fill="white" stroke="black" points="1282,-179.5 1282,-198.5 1424,-198.5 1424,-179.5 1282,-179.5"/>
<text text-anchor="middle" x="1353" y="-186.5" font-family="Helvetica,sans-Serif" font-size="10.00">controller.SLogoMain.start</text>
</a>
</g>
</g>
<!-- Node7&#45;&gt;Node8 -->
<g id="edge7" class="edge"><title>Node7&#45;&gt;Node8</title>
<path fill="none" stroke="midnightblue" d="M1255.82,-178.734C1264.56,-179.666 1273.38,-180.608 1281.96,-181.524"/>
<polygon fill="midnightblue" stroke="midnightblue" points="1255.95,-175.227 1245.63,-177.646 1255.2,-182.188 1255.95,-175.227"/>
</g>
<!-- Node9 -->
<g id="node9" class="node"><title>Node9</title>
<g id="a_node9"><a xlink:href="../../dd/d48/classgui_1_1_g_u_i_start.html#a82d08814fef5331d82c4763a2426ffce" target="_top" xlink:title="gui.GUIStart.start">
<polygon fill="white" stroke="black" points="1302.5,-141.5 1302.5,-160.5 1403.5,-160.5 1403.5,-141.5 1302.5,-141.5"/>
<text text-anchor="middle" x="1353" y="-148.5" font-family="Helvetica,sans-Serif" font-size="10.00">gui.GUIStart.start</text>
</a>
</g>
</g>
<!-- Node7&#45;&gt;Node9 -->
<g id="edge8" class="edge"><title>Node7&#45;&gt;Node9</title>
<path fill="none" stroke="midnightblue" d="M1255.97,-161.25C1271.81,-159.559 1287.95,-157.837 1302.36,-156.298"/>
<polygon fill="midnightblue" stroke="midnightblue" points="1255.2,-157.812 1245.63,-162.354 1255.95,-164.773 1255.2,-157.812"/>
</g>
<!-- Node10&#45;&gt;Node6 -->
<g id="edge10" class="edge"><title>Node10&#45;&gt;Node6</title>
<path fill="none" stroke="midnightblue" d="M1092.59,-138.73C1083.15,-138.784 1073.61,-138.73 1064.4,-138.568"/>
<polygon fill="midnightblue" stroke="midnightblue" points="1092.79,-142.228 1102.75,-138.629 1092.72,-135.228 1092.79,-142.228"/>
</g>
<!-- Node11&#45;&gt;Node6 -->
<g id="edge12" class="edge"><title>Node11&#45;&gt;Node6</title>
<path fill="none" stroke="midnightblue" d="M898.45,-121.539C909.657,-122.729 921.056,-123.939 931.933,-125.093"/>
<polygon fill="midnightblue" stroke="midnightblue" points="898.545,-118.03 888.232,-120.455 897.806,-124.991 898.545,-118.03"/>
</g>
</g>
</svg>
