<?xml version="1.0" encoding="UTF-8" standalone="no"?>
<!DOCTYPE svg PUBLIC "-//W3C//DTD SVG 1.1//EN"
 "http://www.w3.org/Graphics/SVG/1.1/DTD/svg11.dtd">
<!-- Generated by graphviz version 2.36.0 (20140111.2315)
 -->
<!-- Title: compiler.Compiler.scanner Pages: 1 -->
<svg width="1248pt" height="207pt"
 viewBox="0.00 0.00 1248.00 207.00" xmlns="http://www.w3.org/2000/svg" xmlns:xlink="http://www.w3.org/1999/xlink">
<g id="graph0" class="graph" transform="scale(1 1) rotate(0) translate(4 203)">
<title>compiler.Compiler.scanner</title>
<polygon fill="white" stroke="none" points="-4,4 -4,-203 1244,-203 1244,4 -4,4"/>
<!-- Node1 -->
<g id="node1" class="node"><title>Node1</title>
<polygon fill="#bfbfbf" stroke="black" points="0.5,-78.5 0.5,-97.5 143.5,-97.5 143.5,-78.5 0.5,-78.5"/>
<text text-anchor="middle" x="72" y="-85.5" font-family="Helvetica,sans-Serif" font-size="10.00">compiler.Compiler.scanner</text>
</g>
<!-- Node2 -->
<g id="node2" class="node"><title>Node2</title>
<g id="a_node2"><a xlink:href="../../db/d93/classcompiler_1_1_compiler.html#a8a90aa273bacff724a034959914a4c2d" target="_top" xlink:title="compiler.Compiler.compile">
<polygon fill="white" stroke="black" points="180.5,-78.5 180.5,-97.5 323.5,-97.5 323.5,-78.5 180.5,-78.5"/>
<text text-anchor="middle" x="252" y="-85.5" font-family="Helvetica,sans-Serif" font-size="10.00">compiler.Compiler.compile</text>
</a>
</g>
</g>
<!-- Node1&#45;&gt;Node2 -->
<g id="edge1" class="edge"><title>Node1&#45;&gt;Node2</title>
<path fill="none" stroke="midnightblue" d="M153.646,-88C162.599,-88 171.666,-88 180.479,-88"/>
<polygon fill="midnightblue" stroke="midnightblue" points="153.606,-84.5001 143.606,-88 153.606,-91.5001 153.606,-84.5001"/>
</g>
<!-- Node3 -->
<g id="node3" class="node"><title>Node3</title>
<g id="a_node3"><a xlink:href="../../db/d93/classcompiler_1_1_compiler.html#a90d16b98c8e950bbaf772f5b93092a3f" target="_top" xlink:title="compiler.Compiler.main">
<polygon fill="white" stroke="black" points="374.5,-147.5 374.5,-166.5 503.5,-166.5 503.5,-147.5 374.5,-147.5"/>
<text text-anchor="middle" x="439" y="-154.5" font-family="Helvetica,sans-Serif" font-size="10.00">compiler.Compiler.main</text>
</a>
</g>
</g>
<!-- Node2&#45;&gt;Node3 -->
<g id="edge2" class="edge"><title>Node2&#45;&gt;Node3</title>
<path fill="none" stroke="midnightblue" d="M280.232,-102.112C301.53,-112.743 332.107,-127.126 360,-137 371.202,-140.965 383.564,-144.502 395.081,-147.458"/>
<polygon fill="midnightblue" stroke="midnightblue" points="281.647,-98.9049 271.143,-97.5207 278.491,-105.153 281.647,-98.9049"/>
</g>
<!-- Node4 -->
<g id="node4" class="node"><title>Node4</title>
<g id="a_node4"><a xlink:href="../../db/d32/classcontroller_1_1_main_controller.html#a6badeb343877f4b50f069b47afed495c" target="_top" xlink:title="controller.MainController.pass\lInput">
<polygon fill="white" stroke="black" points="360,-98 360,-128 518,-128 518,-98 360,-98"/>
<text text-anchor="start" x="368" y="-116" font-family="Helvetica,sans-Serif" font-size="10.00">controller.MainController.pass</text>
<text text-anchor="middle" x="439" y="-105" font-family="Helvetica,sans-Serif" font-size="10.00">Input</text>
</a>
</g>
</g>
<!-- Node2&#45;&gt;Node4 -->
<g id="edge3" class="edge"><title>Node2&#45;&gt;Node4</title>
<path fill="none" stroke="midnightblue" d="M333.565,-98.8872C342.238,-100.059 351.053,-101.25 359.698,-102.419"/>
<polygon fill="midnightblue" stroke="midnightblue" points="333.847,-95.3935 323.468,-97.5227 332.909,-102.33 333.847,-95.3935"/>
</g>
<!-- Node12 -->
<g id="node12" class="node"><title>Node12</title>
<g id="a_node12"><a xlink:href="../../d8/ded/class_j_unit_test_1_1_compiler_test.html#a4132f77013965dda40f6d62699de349a" target="_top" xlink:title="JUnitTest.CompilerTest.test\lGrammarException">
<polygon fill="white" stroke="black" points="367.5,-49 367.5,-79 510.5,-79 510.5,-49 367.5,-49"/>
<text text-anchor="start" x="375.5" y="-67" font-family="Helvetica,sans-Serif" font-size="10.00">JUnitTest.CompilerTest.test</text>
<text text-anchor="middle" x="439" y="-56" font-family="Helvetica,sans-Serif" font-size="10.00">GrammarException</text>
</a>
</g>
</g>
<!-- Node2&#45;&gt;Node12 -->
<g id="edge13" class="edge"><title>Node2&#45;&gt;Node12</title>
<path fill="none" stroke="midnightblue" d="M333.876,-77.508C345.011,-76.0635 356.374,-74.5893 367.307,-73.171"/>
<polygon fill="midnightblue" stroke="midnightblue" points="333.199,-74.0664 323.732,-78.8239 334.1,-81.0082 333.199,-74.0664"/>
</g>
<!-- Node13 -->
<g id="node13" class="node"><title>Node13</title>
<g id="a_node13"><a xlink:href="../../d8/ded/class_j_unit_test_1_1_compiler_test.html#accbcdde8d934dd7acc552820845d6b0f" target="_top" xlink:title="JUnitTest.CompilerTest.test\lSyntaxException">
<polygon fill="white" stroke="black" points="367.5,-0 367.5,-30 510.5,-30 510.5,-0 367.5,-0"/>
<text text-anchor="start" x="375.5" y="-18" font-family="Helvetica,sans-Serif" font-size="10.00">JUnitTest.CompilerTest.test</text>
<text text-anchor="middle" x="439" y="-7" font-family="Helvetica,sans-Serif" font-size="10.00">SyntaxException</text>
</a>
</g>
</g>
<!-- Node2&#45;&gt;Node13 -->
<g id="edge14" class="edge"><title>Node2&#45;&gt;Node13</title>
<path fill="none" stroke="midnightblue" d="M281.598,-74.1227C302.942,-64.024 332.961,-50.3608 360,-40 369.03,-36.54 378.766,-33.1542 388.196,-30.0473"/>
<polygon fill="midnightblue" stroke="midnightblue" points="279.965,-71.0241 272.444,-78.4871 282.977,-77.3427 279.965,-71.0241"/>
</g>
<!-- Node5 -->
<g id="node5" class="node"><title>Node5</title>
<g id="a_node5"><a xlink:href="../../dd/dea/classgui_1_1_g_u_i_scene.html#a7cb2b00ed820aecde169a5e14cf0d468" target="_top" xlink:title="gui.GUIScene.createGUI">
<polygon fill="white" stroke="black" points="748,-122.5 748,-141.5 880,-141.5 880,-122.5 748,-122.5"/>
<text text-anchor="middle" x="814" y="-129.5" font-family="Helvetica,sans-Serif" font-size="10.00">gui.GUIScene.createGUI</text>
</a>
</g>
</g>
<!-- Node4&#45;&gt;Node5 -->
<g id="edge4" class="edge"><title>Node4&#45;&gt;Node5</title>
<path fill="none" stroke="midnightblue" d="M528.389,-129.202C537.02,-130.341 545.664,-131.31 554,-132 619.874,-137.452 695.495,-136.643 747.949,-134.965"/>
<polygon fill="midnightblue" stroke="midnightblue" points="528.67,-125.707 518.283,-127.793 527.704,-132.64 528.67,-125.707"/>
</g>
<!-- Node10 -->
<g id="node10" class="node"><title>Node10</title>
<g id="a_node10"><a xlink:href="../../dd/dea/classgui_1_1_g_u_i_scene.html#a47e424a495817f5806f45064f77a632b" target="_top" xlink:title="gui.GUIScene.getRightBox">
<polygon fill="white" stroke="black" points="562,-103.5 562,-122.5 704,-122.5 704,-103.5 562,-103.5"/>
<text text-anchor="middle" x="633" y="-110.5" font-family="Helvetica,sans-Serif" font-size="10.00">gui.GUIScene.getRightBox</text>
</a>
</g>
</g>
<!-- Node4&#45;&gt;Node10 -->
<g id="edge10" class="edge"><title>Node4&#45;&gt;Node10</title>
<path fill="none" stroke="midnightblue" d="M528.315,-113C539.507,-113 550.84,-113 561.699,-113"/>
<polygon fill="midnightblue" stroke="midnightblue" points="528.094,-109.5 518.094,-113 528.094,-116.5 528.094,-109.5"/>
</g>
<!-- Node11 -->
<g id="node11" class="node"><title>Node11</title>
<g id="a_node11"><a xlink:href="../../d6/d6a/class_j_unit_test_1_1_backend_a_p_i_test.html#a86dd50c40468e1647c7c01614dc7d30d" target="_top" xlink:title="JUnitTest.BackendAPITest.test">
<polygon fill="white" stroke="black" points="554.5,-65.5 554.5,-84.5 711.5,-84.5 711.5,-65.5 554.5,-65.5"/>
<text text-anchor="middle" x="633" y="-72.5" font-family="Helvetica,sans-Serif" font-size="10.00">JUnitTest.BackendAPITest.test</text>
</a>
</g>
</g>
<!-- Node4&#45;&gt;Node11 -->
<g id="edge12" class="edge"><title>Node4&#45;&gt;Node11</title>
<path fill="none" stroke="midnightblue" d="M525.921,-95.9949C545.856,-92.0493 566.377,-87.9878 583.995,-84.5009"/>
<polygon fill="midnightblue" stroke="midnightblue" points="525.014,-92.6064 515.883,-97.9814 526.373,-99.4732 525.014,-92.6064"/>
</g>
<!-- Node6 -->
<g id="node6" class="node"><title>Node6</title>
<g id="a_node6"><a xlink:href="../../dd/dea/classgui_1_1_g_u_i_scene.html#a74967ac937baee81b9eec1b2bc38167c" target="_top" xlink:title="gui.GUIScene.createScene">
<polygon fill="white" stroke="black" points="916.5,-160.5 916.5,-179.5 1061.5,-179.5 1061.5,-160.5 916.5,-160.5"/>
<text text-anchor="middle" x="989" y="-167.5" font-family="Helvetica,sans-Serif" font-size="10.00">gui.GUIScene.createScene</text>
</a>
</g>
</g>
<!-- Node5&#45;&gt;Node6 -->
<g id="edge5" class="edge"><title>Node5&#45;&gt;Node6</title>
<path fill="none" stroke="midnightblue" d="M868.505,-143.753C892.967,-149.126 921.571,-155.409 944.659,-160.48"/>
<polygon fill="midnightblue" stroke="midnightblue" points="869.173,-140.316 858.655,-141.589 867.671,-147.153 869.173,-140.316"/>
</g>
<!-- Node9 -->
<g id="node9" class="node"><title>Node9</title>
<g id="a_node9"><a xlink:href="../../dd/dea/classgui_1_1_g_u_i_scene.html#a16324ddc026310495f84e77bbb311b2c" target="_top" xlink:title="gui.GUIScene.addButtons">
<polygon fill="white" stroke="black" points="919,-122.5 919,-141.5 1059,-141.5 1059,-122.5 919,-122.5"/>
<text text-anchor="middle" x="989" y="-129.5" font-family="Helvetica,sans-Serif" font-size="10.00">gui.GUIScene.addButtons</text>
</a>
</g>
</g>
<!-- Node5&#45;&gt;Node9 -->
<g id="edge8" class="edge"><title>Node5&#45;&gt;Node9</title>
<path fill="none" stroke="midnightblue" d="M890.504,-125.299C899.896,-125.215 909.463,-125.239 918.754,-125.371"/>
<polygon fill="midnightblue" stroke="midnightblue" points="890.357,-121.8 880.404,-125.432 890.449,-128.8 890.357,-121.8"/>
</g>
<!-- Node7 -->
<g id="node7" class="node"><title>Node7</title>
<g id="a_node7"><a xlink:href="../../d6/d0e/classcontroller_1_1_s_logo_main.html#ab5379c32fef791f21ad51abde7d268c0" target="_top" xlink:title="controller.SLogoMain.start">
<polygon fill="white" stroke="black" points="1098,-179.5 1098,-198.5 1240,-198.5 1240,-179.5 1098,-179.5"/>
<text text-anchor="middle" x="1169" y="-186.5" font-family="Helvetica,sans-Serif" font-size="10.00">controller.SLogoMain.start</text>
</a>
</g>
</g>
<!-- Node6&#45;&gt;Node7 -->
<g id="edge6" class="edge"><title>Node6&#45;&gt;Node7</title>
<path fill="none" stroke="midnightblue" d="M1071.82,-178.734C1080.56,-179.666 1089.38,-180.608 1097.96,-181.524"/>
<polygon fill="midnightblue" stroke="midnightblue" points="1071.95,-175.227 1061.63,-177.646 1071.2,-182.188 1071.95,-175.227"/>
</g>
<!-- Node8 -->
<g id="node8" class="node"><title>Node8</title>
<g id="a_node8"><a xlink:href="../../dd/d48/classgui_1_1_g_u_i_start.html#a82d08814fef5331d82c4763a2426ffce" target="_top" xlink:title="gui.GUIStart.start">
<polygon fill="white" stroke="black" points="1118.5,-141.5 1118.5,-160.5 1219.5,-160.5 1219.5,-141.5 1118.5,-141.5"/>
<text text-anchor="middle" x="1169" y="-148.5" font-family="Helvetica,sans-Serif" font-size="10.00">gui.GUIStart.start</text>
</a>
</g>
</g>
<!-- Node6&#45;&gt;Node8 -->
<g id="edge7" class="edge"><title>Node6&#45;&gt;Node8</title>
<path fill="none" stroke="midnightblue" d="M1071.97,-161.25C1087.81,-159.559 1103.95,-157.837 1118.36,-156.298"/>
<polygon fill="midnightblue" stroke="midnightblue" points="1071.2,-157.812 1061.63,-162.354 1071.95,-164.773 1071.2,-157.812"/>
</g>
<!-- Node9&#45;&gt;Node5 -->
<g id="edge9" class="edge"><title>Node9&#45;&gt;Node5</title>
<path fill="none" stroke="midnightblue" d="M908.585,-138.73C899.154,-138.784 889.609,-138.73 880.404,-138.568"/>
<polygon fill="midnightblue" stroke="midnightblue" points="908.789,-142.228 918.754,-138.629 908.719,-135.228 908.789,-142.228"/>
</g>
<!-- Node10&#45;&gt;Node5 -->
<g id="edge11" class="edge"><title>Node10&#45;&gt;Node5</title>
<path fill="none" stroke="midnightblue" d="M714.45,-121.539C725.657,-122.729 737.056,-123.939 747.933,-125.093"/>
<polygon fill="midnightblue" stroke="midnightblue" points="714.545,-118.03 704.232,-120.455 713.806,-124.991 714.545,-118.03"/>
</g>
</g>
</svg>
