<?xml version="1.0" encoding="UTF-8" standalone="no"?>
<!DOCTYPE svg PUBLIC "-//W3C//DTD SVG 1.1//EN"
 "http://www.w3.org/Graphics/SVG/1.1/DTD/svg11.dtd">
<!-- Generated by graphviz version 2.36.0 (20140111.2315)
 -->
<!-- Title: compiler.Compiler.scanner Pages: 1 -->
<!--zoomable 181 -->
<svg id="main" version="1.1" xmlns="http://www.w3.org/2000/svg" xmlns:xlink="http://www.w3.org/1999/xlink" xml:space="preserve" onload="init(evt)">
<style type="text/css"><![CDATA[
.edge:hover path { stroke: red; }
.edge:hover polygon { stroke: red; fill: red; }
]]></style>
<script type="text/javascript"><![CDATA[
var edges = document.getElementsByTagName('g');
if (edges && edges.length) {
  for (var i=0;i<edges.length;i++) {
    if (edges[i].id.substr(0,4)=='edge') {
      edges[i].setAttribute('class','edge');
    }
  }
}
]]></script>
        <defs>
                <circle id="rim" cx="0" cy="0" r="7"/>
                <circle id="rim2" cx="0" cy="0" r="3.5"/>
                <g id="zoomPlus">
                        <use xlink:href="#rim" fill="#404040">
                                <set attributeName="fill" to="#808080" begin="zoomplus.mouseover" end="zoomplus.mouseout"/>
                        </use>
                        <path d="M-4,0h8M0,-4v8" fill="none" stroke="white" stroke-width="1.5" pointer-events="none"/>
                </g>
                <g id="zoomMin">
                        <use xlink:href="#rim" fill="#404040">
                                <set attributeName="fill" to="#808080" begin="zoomminus.mouseover" end="zoomminus.mouseout"/>
                        </use>
                        <path d="M-4,0h8" fill="none" stroke="white" stroke-width="1.5" pointer-events="none"/>
                </g>
                <g id="dirArrow">
                        <path fill="none" stroke="white" stroke-width="1.5" d="M0,-3.0v7 M-2.5,-0.5L0,-3.0L2.5,-0.5"/>
                </g>
               <g id="resetDef">
                       <use xlink:href="#rim2" fill="#404040">
                               <set attributeName="fill" to="#808080" begin="reset.mouseover" end="reset.mouseout"/>
                       </use>
               </g>
        </defs>

<script type="text/javascript">
var viewWidth = 574;
var viewHeight = 181;
var sectionId = 'dynsection-10';
</script>
<script xlink:href="../../svgpan.js"/>
<svg id="graph" class="graph">
<g id="viewport">
<title>compiler.Compiler.scanner</title>
<polygon fill="white" stroke="none" points="-4,4 -4,-177 570,-177 570,4 -4,4"/>
<!-- Node1 -->
<g id="node1" class="node"><title>Node1</title>
<polygon fill="#bfbfbf" stroke="black" points="0.5,-49.5 0.5,-68.5 143.5,-68.5 143.5,-49.5 0.5,-49.5"/>
<text text-anchor="middle" x="72" y="-56.5" font-family="Helvetica,sans-Serif" font-size="10.00">compiler.Compiler.scanner</text>
</g>
<!-- Node2 -->
<g id="node2" class="node"><title>Node2</title>
<g id="a_node2"><a xlink:href="../../db/d93/classcompiler_1_1_compiler.html#ae6504512c09bb3ab9064f3b12f0a51ff" target="_top" xlink:title="compiler.Compiler.symbol\lTableGeneration">
<polygon fill="white" stroke="black" points="189,-99 189,-129 329,-129 329,-99 189,-99"/>
<text text-anchor="start" x="197" y="-117" font-family="Helvetica,sans-Serif" font-size="10.00">compiler.Compiler.symbol</text>
<text text-anchor="middle" x="259" y="-106" font-family="Helvetica,sans-Serif" font-size="10.00">TableGeneration</text>
</a>
</g>
</g>
<!-- Node1&#45;&gt;Node2 -->
<g id="edge1" class="edge"><title>Node1&#45;&gt;Node2</title>
<path fill="none" stroke="midnightblue" d="M105.225,-68.5803C130.633,-76.1341 166.788,-86.883 197.549,-96.028"/>
<polygon fill="midnightblue" stroke="midnightblue" points="196.743,-99.4398 207.326,-98.9346 198.738,-92.73 196.743,-99.4398"/>
</g>
<!-- Node6 -->
<g id="node6" class="node"><title>Node6</title>
<g id="a_node6"><a xlink:href="../../de/d03/classcompiler_1_1_token_finder.html#a8f4fdc09f838a5cee92938ae555a93dc" target="_top" xlink:title="compiler.TokenFinder.tokenize">
<polygon fill="white" stroke="black" points="180,-49.5 180,-68.5 338,-68.5 338,-49.5 180,-49.5"/>
<text text-anchor="middle" x="259" y="-56.5" font-family="Helvetica,sans-Serif" font-size="10.00">compiler.TokenFinder.tokenize</text>
</a>
</g>
</g>
<!-- Node1&#45;&gt;Node6 -->
<g id="edge5" class="edge"><title>Node1&#45;&gt;Node6</title>
<path fill="none" stroke="midnightblue" d="M143.732,-59C152.237,-59 161.002,-59 169.717,-59"/>
<polygon fill="midnightblue" stroke="midnightblue" points="169.906,-62.5001 179.906,-59 169.906,-55.5001 169.906,-62.5001"/>
</g>
<!-- Node8 -->
<g id="node8" class="node"><title>Node8</title>
<g id="a_node8"><a xlink:href="../../db/d93/classcompiler_1_1_compiler.html#a490860dbdd9c5c56fe3c578a8bd55c5a" target="_top" xlink:title="compiler.Compiler.translate\lToEnglish">
<polygon fill="white" stroke="black" points="185,-0 185,-30 333,-30 333,-0 185,-0"/>
<text text-anchor="start" x="193" y="-18" font-family="Helvetica,sans-Serif" font-size="10.00">compiler.Compiler.translate</text>
<text text-anchor="middle" x="259" y="-7" font-family="Helvetica,sans-Serif" font-size="10.00">ToEnglish</text>
</a>
</g>
</g>
<!-- Node1&#45;&gt;Node8 -->
<g id="edge7" class="edge"><title>Node1&#45;&gt;Node8</title>
<path fill="none" stroke="midnightblue" d="M113.142,-49.4527C134.064,-44.4767 160.314,-38.2334 184.702,-32.4331"/>
<polygon fill="midnightblue" stroke="midnightblue" points="185.738,-35.7843 194.657,-30.0654 184.118,-28.9743 185.738,-35.7843"/>
</g>
<!-- Node3 -->
<g id="node3" class="node"><title>Node3</title>
<g id="a_node3"><a xlink:href="../../dd/d18/classcompiler_1_1_symbol_table_entry.html#a77ced9095e334cd236a57ba558a03e73" target="_top" xlink:title="compiler.SymbolTableEntry.setType">
<polygon fill="white" stroke="black" points="379,-153.5 379,-172.5 561,-172.5 561,-153.5 379,-153.5"/>
<text text-anchor="middle" x="470" y="-160.5" font-family="Helvetica,sans-Serif" font-size="10.00">compiler.SymbolTableEntry.setType</text>
</a>
</g>
</g>
<!-- Node2&#45;&gt;Node3 -->
<g id="edge2" class="edge"><title>Node2&#45;&gt;Node3</title>
<path fill="none" stroke="midnightblue" d="M314.343,-129.011C333.174,-134.023 354.46,-139.479 374,-144 385.027,-146.551 396.82,-149.074 408.215,-151.407"/>
<polygon fill="midnightblue" stroke="midnightblue" points="407.602,-154.854 418.098,-153.404 408.989,-147.992 407.602,-154.854"/>
</g>
<!-- Node4 -->
<g id="node4" class="node"><title>Node4</title>
<g id="a_node4"><a xlink:href="../../dd/d18/classcompiler_1_1_symbol_table_entry.html#a12657cfb875265be8e008315d81f65bf" target="_top" xlink:title="compiler.SymbolTableEntry.setName">
<polygon fill="white" stroke="black" points="374.5,-115.5 374.5,-134.5 565.5,-134.5 565.5,-115.5 374.5,-115.5"/>
<text text-anchor="middle" x="470" y="-122.5" font-family="Helvetica,sans-Serif" font-size="10.00">compiler.SymbolTableEntry.setName</text>
</a>
</g>
</g>
<!-- Node2&#45;&gt;Node4 -->
<g id="edge3" class="edge"><title>Node2&#45;&gt;Node4</title>
<path fill="none" stroke="midnightblue" d="M329.014,-117.632C340.346,-118.229 352.311,-118.858 364.279,-119.488"/>
<polygon fill="midnightblue" stroke="midnightblue" points="364.15,-122.986 374.32,-120.017 364.518,-115.996 364.15,-122.986"/>
</g>
<!-- Node5 -->
<g id="node5" class="node"><title>Node5</title>
<g id="a_node5"><a xlink:href="../../dd/d18/classcompiler_1_1_symbol_table_entry.html#a9c52435da30816b629f211c707ebbafe" target="_top" xlink:title="compiler.SymbolTableEntry.set\lValue">
<polygon fill="white" stroke="black" points="389.5,-66 389.5,-96 550.5,-96 550.5,-66 389.5,-66"/>
<text text-anchor="start" x="397.5" y="-84" font-family="Helvetica,sans-Serif" font-size="10.00">compiler.SymbolTableEntry.set</text>
<text text-anchor="middle" x="470" y="-73" font-family="Helvetica,sans-Serif" font-size="10.00">Value</text>
</a>
</g>
</g>
<!-- Node2&#45;&gt;Node5 -->
<g id="edge4" class="edge"><title>Node2&#45;&gt;Node5</title>
<path fill="none" stroke="midnightblue" d="M329.014,-103.103C344.965,-100.584 362.168,-97.8682 378.872,-95.2308"/>
<polygon fill="midnightblue" stroke="midnightblue" points="379.86,-98.6182 389.192,-93.6013 378.768,-91.7038 379.86,-98.6182"/>
</g>
<!-- Node7 -->
<g id="node7" class="node"><title>Node7</title>
<g id="a_node7"><a xlink:href="../../de/d03/classcompiler_1_1_token_finder.html#a17a5eca5ffc7312f5eb38cf1504f7b86" target="_top" xlink:title="compiler.TokenFinder.stringType">
<polygon fill="white" stroke="black" points="387,-27.5 387,-46.5 553,-46.5 553,-27.5 387,-27.5"/>
<text text-anchor="middle" x="470" y="-34.5" font-family="Helvetica,sans-Serif" font-size="10.00">compiler.TokenFinder.stringType</text>
</a>
</g>
</g>
<!-- Node6&#45;&gt;Node7 -->
<g id="edge6" class="edge"><title>Node6&#45;&gt;Node7</title>
<path fill="none" stroke="midnightblue" d="M338.121,-50.7767C350.655,-49.4574 363.73,-48.081 376.56,-46.7305"/>
<polygon fill="midnightblue" stroke="midnightblue" points="377.203,-50.1823 386.781,-45.6546 376.47,-43.2208 377.203,-50.1823"/>
</g>
</g>
</svg>
        <g id="navigator" transform="translate(0 0)" fill="#404254">
                <rect fill="#f2f5e9" fill-opacity="0.5" stroke="#606060" stroke-width=".5" x="0" y="0" width="60" height="60"/>
                <use id="zoomplus" xlink:href="#zoomPlus" x="17" y="9" onmousedown="handleZoom(evt,'in')"/>
                <use id="zoomminus" xlink:href="#zoomMin" x="42" y="9" onmousedown="handleZoom(evt,'out')"/>
                <use id="reset" xlink:href="#resetDef" x="30" y="36" onmousedown="handleReset()"/>
                <g id="arrowUp" xlink:href="#dirArrow" transform="translate(30 24)" onmousedown="handlePan(0,-1)">
                  <use xlink:href="#rim" fill="#404040">
                        <set attributeName="fill" to="#808080" begin="arrowUp.mouseover" end="arrowUp.mouseout"/>
                  </use>
                  <path fill="none" stroke="white" stroke-width="1.5" d="M0,-3.0v7 M-2.5,-0.5L0,-3.0L2.5,-0.5"/>
                </g>
                <g id="arrowRight" xlink:href="#dirArrow" transform="rotate(90) translate(36 -43)" onmousedown="handlePan(1,0)">
                  <use xlink:href="#rim" fill="#404040">
                        <set attributeName="fill" to="#808080" begin="arrowRight.mouseover" end="arrowRight.mouseout"/>
                  </use>
                  <path fill="none" stroke="white" stroke-width="1.5" d="M0,-3.0v7 M-2.5,-0.5L0,-3.0L2.5,-0.5"/>
                </g>
                <g id="arrowDown" xlink:href="#dirArrow" transform="rotate(180) translate(-30 -48)" onmousedown="handlePan(0,1)">
                  <use xlink:href="#rim" fill="#404040">
                        <set attributeName="fill" to="#808080" begin="arrowDown.mouseover" end="arrowDown.mouseout"/>
                  </use>
                  <path fill="none" stroke="white" stroke-width="1.5" d="M0,-3.0v7 M-2.5,-0.5L0,-3.0L2.5,-0.5"/>
                </g>
                <g id="arrowLeft" xlink:href="#dirArrow" transform="rotate(270) translate(-36 17)" onmousedown="handlePan(-1,0)">
                  <use xlink:href="#rim" fill="#404040">
                        <set attributeName="fill" to="#808080" begin="arrowLeft.mouseover" end="arrowLeft.mouseout"/>
                  </use>
                  <path fill="none" stroke="white" stroke-width="1.5" d="M0,-3.0v7 M-2.5,-0.5L0,-3.0L2.5,-0.5"/>
                </g>
        </g>
        <svg viewBox="0 0 15 15" width="100%" height="30px" preserveAspectRatio="xMaxYMin meet">
         <g id="arrow_out" transform="scale(0.3 0.3)">
          <a xlink:href="classcompiler_1_1_compiler_ab49c76c1486c30d921d07022a1be4971_cgraph_org.svg" target="_base">
           <rect id="button" ry="5" rx="5" y="6" x="6" height="38" width="38"
                fill="#f2f5e9" fill-opacity="0.5" stroke="#606060" stroke-width="1.0"/>
           <path id="arrow"
             d="M 11.500037,31.436501 C 11.940474,20.09759 22.043105,11.32322 32.158766,21.979434 L 37.068811,17.246167 C 37.068811,17.246167 37.088388,32 37.088388,32 L 22.160133,31.978069 C 22.160133,31.978069 26.997745,27.140456 26.997745,27.140456 C 18.528582,18.264221 13.291696,25.230495 11.500037,31.436501 z"
             style="fill:#404040;"/>
          </a>
         </g>
        </svg>
</svg>
