<?xml version="1.0" encoding="UTF-8" standalone="no"?>
<!DOCTYPE svg PUBLIC "-//W3C//DTD SVG 1.1//EN"
 "http://www.w3.org/Graphics/SVG/1.1/DTD/svg11.dtd">
<!-- Generated by graphviz version 2.36.0 (20140111.2315)
 -->
<!-- Title: compiler.Compiler.main Pages: 1 -->
<svg width="966pt" height="1030pt"
 viewBox="0.00 0.00 966.00 1030.00" xmlns="http://www.w3.org/2000/svg" xmlns:xlink="http://www.w3.org/1999/xlink">
<g id="graph0" class="graph" transform="scale(1 1) rotate(0) translate(4 1026)">
<title>compiler.Compiler.main</title>
<polygon fill="white" stroke="none" points="-4,4 -4,-1026 962,-1026 962,4 -4,4"/>
<!-- Node1 -->
<g id="node1" class="node"><title>Node1</title>
<polygon fill="#bfbfbf" stroke="black" points="0.5,-721.5 0.5,-740.5 129.5,-740.5 129.5,-721.5 0.5,-721.5"/>
<text text-anchor="middle" x="65" y="-728.5" font-family="Helvetica,sans-Serif" font-size="10.00">compiler.Compiler.main</text>
</g>
<!-- Node2 -->
<g id="node2" class="node"><title>Node2</title>
<g id="a_node2"><a xlink:href="../../db/d93/classcompiler_1_1_compiler.html#a8a90aa273bacff724a034959914a4c2d" target="_top" xlink:title="compiler.Compiler.compile">
<polygon fill="white" stroke="black" points="168.5,-740.5 168.5,-759.5 311.5,-759.5 311.5,-740.5 168.5,-740.5"/>
<text text-anchor="middle" x="240" y="-747.5" font-family="Helvetica,sans-Serif" font-size="10.00">compiler.Compiler.compile</text>
</a>
</g>
</g>
<!-- Node1&#45;&gt;Node2 -->
<g id="edge1" class="edge"><title>Node1&#45;&gt;Node2</title>
<path fill="none" stroke="midnightblue" d="M129.927,-738.021C139.116,-739.03 148.671,-740.079 158.135,-741.119"/>
<polygon fill="midnightblue" stroke="midnightblue" points="158.025,-744.628 168.348,-742.24 158.79,-737.67 158.025,-744.628"/>
</g>
<!-- Node37 -->
<g id="node37" class="node"><title>Node37</title>
<g id="a_node37"><a xlink:href="../../db/d93/classcompiler_1_1_compiler.html#ab0499771820dcb70702d5053f6fce69d" target="_top" xlink:title="compiler.Compiler.Compiler">
<polygon fill="white" stroke="black" points="166,-702.5 166,-721.5 314,-721.5 314,-702.5 166,-702.5"/>
<text text-anchor="middle" x="240" y="-709.5" font-family="Helvetica,sans-Serif" font-size="10.00">compiler.Compiler.Compiler</text>
</a>
</g>
</g>
<!-- Node1&#45;&gt;Node37 -->
<g id="edge49" class="edge"><title>Node1&#45;&gt;Node37</title>
<path fill="none" stroke="midnightblue" d="M129.927,-723.979C138.367,-723.052 147.116,-722.091 155.819,-721.135"/>
<polygon fill="midnightblue" stroke="midnightblue" points="156.437,-724.589 165.995,-720.018 155.672,-717.631 156.437,-724.589"/>
</g>
<!-- Node3 -->
<g id="node3" class="node"><title>Node3</title>
<g id="a_node3"><a xlink:href="../../d5/dcd/classcompiler_1_1_a_s_t.html#a554574e2680c721782f0df2694512842" target="_top" xlink:title="compiler.AST.generate">
<polygon fill="white" stroke="black" points="366,-931.5 366,-950.5 490,-950.5 490,-931.5 366,-931.5"/>
<text text-anchor="middle" x="428" y="-938.5" font-family="Helvetica,sans-Serif" font-size="10.00">compiler.AST.generate</text>
</a>
</g>
</g>
<!-- Node2&#45;&gt;Node3 -->
<g id="edge2" class="edge"><title>Node2&#45;&gt;Node3</title>
<path fill="none" stroke="midnightblue" d="M250.479,-759.734C280.198,-790.252 371.833,-884.35 410.021,-923.564"/>
<polygon fill="midnightblue" stroke="midnightblue" points="407.832,-926.334 417.317,-931.056 412.847,-921.45 407.832,-926.334"/>
</g>
<!-- Node5 -->
<g id="node5" class="node"><title>Node5</title>
<g id="a_node5"><a xlink:href="../../db/d93/classcompiler_1_1_compiler.html#afb38c21dd4d72f5fb04bc01dc892621a" target="_top" xlink:title="compiler.Compiler.initialize">
<polygon fill="white" stroke="black" points="356.5,-827.5 356.5,-846.5 499.5,-846.5 499.5,-827.5 356.5,-827.5"/>
<text text-anchor="middle" x="428" y="-834.5" font-family="Helvetica,sans-Serif" font-size="10.00">compiler.Compiler.initialize</text>
</a>
</g>
</g>
<!-- Node2&#45;&gt;Node5 -->
<g id="edge4" class="edge"><title>Node2&#45;&gt;Node5</title>
<path fill="none" stroke="midnightblue" d="M261.616,-759.643C294.523,-775.035 359.072,-805.227 397.067,-822.999"/>
<polygon fill="midnightblue" stroke="midnightblue" points="396.034,-826.38 406.575,-827.446 399,-820.039 396.034,-826.38"/>
</g>
<!-- Node12 -->
<g id="node12" class="node"><title>Node12</title>
<g id="a_node12"><a xlink:href="../../db/d93/classcompiler_1_1_compiler.html#a21b0cbd48524326ae956fec14de6a853" target="_top" xlink:title="compiler.Compiler.interpreter">
<polygon fill="white" stroke="black" points="350,-740.5 350,-759.5 506,-759.5 506,-740.5 350,-740.5"/>
<text text-anchor="middle" x="428" y="-747.5" font-family="Helvetica,sans-Serif" font-size="10.00">compiler.Compiler.interpreter</text>
</a>
</g>
</g>
<!-- Node2&#45;&gt;Node12 -->
<g id="edge11" class="edge"><title>Node2&#45;&gt;Node12</title>
<path fill="none" stroke="midnightblue" d="M311.584,-750C320.791,-750 330.311,-750 339.75,-750"/>
<polygon fill="midnightblue" stroke="midnightblue" points="339.944,-753.5 349.944,-750 339.944,-746.5 339.944,-753.5"/>
</g>
<!-- Node13 -->
<g id="node13" class="node"><title>Node13</title>
<g id="a_node13"><a xlink:href="../../db/d93/classcompiler_1_1_compiler.html#ab49c76c1486c30d921d07022a1be4971" target="_top" xlink:title="compiler.Compiler.scanner">
<polygon fill="white" stroke="black" points="356.5,-674.5 356.5,-693.5 499.5,-693.5 499.5,-674.5 356.5,-674.5"/>
<text text-anchor="middle" x="428" y="-681.5" font-family="Helvetica,sans-Serif" font-size="10.00">compiler.Compiler.scanner</text>
</a>
</g>
</g>
<!-- Node2&#45;&gt;Node13 -->
<g id="edge12" class="edge"><title>Node2&#45;&gt;Node13</title>
<path fill="none" stroke="midnightblue" d="M281.84,-740.443C292.402,-737.68 303.697,-734.464 314,-731 342.771,-721.325 374.62,-707.812 397.153,-697.757"/>
<polygon fill="midnightblue" stroke="midnightblue" points="398.825,-700.843 406.504,-693.544 395.949,-694.461 398.825,-700.843"/>
</g>
<!-- Node21 -->
<g id="node21" class="node"><title>Node21</title>
<g id="a_node21"><a xlink:href="../../d5/dcd/classcompiler_1_1_a_s_t.html#a8f54e642baf772b6269010527c61f7f7" target="_top" xlink:title="compiler.AST.traverse">
<polygon fill="white" stroke="black" points="368,-290.5 368,-309.5 488,-309.5 488,-290.5 368,-290.5"/>
<text text-anchor="middle" x="428" y="-297.5" font-family="Helvetica,sans-Serif" font-size="10.00">compiler.AST.traverse</text>
</a>
</g>
</g>
<!-- Node2&#45;&gt;Node21 -->
<g id="edge20" class="edge"><title>Node2&#45;&gt;Node21</title>
<path fill="none" stroke="midnightblue" d="M300.941,-740.333C305.745,-737.859 310.2,-734.793 314,-731 344.327,-700.727 406.811,-399.972 423.065,-319.639"/>
<polygon fill="midnightblue" stroke="midnightblue" points="426.5,-320.313 425.044,-309.818 419.638,-318.93 426.5,-320.313"/>
</g>
<!-- Node4 -->
<g id="node4" class="node"><title>Node4</title>
<g id="a_node4"><a xlink:href="../../db/d93/classcompiler_1_1_compiler.html#a4a475133005c58a3a3846315d2f116e4" target="_top" xlink:title="compiler.Compiler.getSymbol\lTable">
<polygon fill="white" stroke="black" points="557.5,-992 557.5,-1022 714.5,-1022 714.5,-992 557.5,-992"/>
<text text-anchor="start" x="565.5" y="-1010" font-family="Helvetica,sans-Serif" font-size="10.00">compiler.Compiler.getSymbol</text>
<text text-anchor="middle" x="636" y="-999" font-family="Helvetica,sans-Serif" font-size="10.00">Table</text>
</a>
</g>
</g>
<!-- Node3&#45;&gt;Node4 -->
<g id="edge3" class="edge"><title>Node3&#45;&gt;Node4</title>
<path fill="none" stroke="midnightblue" d="M453.482,-950.569C476.231,-959.297 511.149,-972.276 542,-982 549.709,-984.43 557.823,-986.833 565.914,-989.134"/>
<polygon fill="midnightblue" stroke="midnightblue" points="565.169,-992.56 575.743,-991.884 567.056,-985.819 565.169,-992.56"/>
</g>
<!-- Node6 -->
<g id="node6" class="node"><title>Node6</title>
<g id="a_node6"><a xlink:href="../../dd/db3/classcompiler_1_1_parse_table.html#a573884bf9b9680a677625168b1b431fc" target="_top" xlink:title="compiler.ParseTable.getLHS">
<polygon fill="white" stroke="black" points="561.5,-953.5 561.5,-972.5 710.5,-972.5 710.5,-953.5 561.5,-953.5"/>
<text text-anchor="middle" x="636" y="-960.5" font-family="Helvetica,sans-Serif" font-size="10.00">compiler.ParseTable.getLHS</text>
</a>
</g>
</g>
<!-- Node5&#45;&gt;Node6 -->
<g id="edge5" class="edge"><title>Node5&#45;&gt;Node6</title>
<path fill="none" stroke="midnightblue" d="M436.26,-846.73C452.604,-867.885 494.586,-918.157 542,-943 547.472,-945.867 553.33,-948.323 559.346,-950.428"/>
<polygon fill="midnightblue" stroke="midnightblue" points="558.304,-953.769 568.894,-953.453 560.418,-947.096 558.304,-953.769"/>
</g>
<!-- Node7 -->
<g id="node7" class="node"><title>Node7</title>
<g id="a_node7"><a xlink:href="../../dd/db3/classcompiler_1_1_parse_table.html#ac4940ea308ddda4d90965b17c578da4a" target="_top" xlink:title="compiler.ParseTable.getNext\lState">
<polygon fill="white" stroke="black" points="560,-904 560,-934 712,-934 712,-904 560,-904"/>
<text text-anchor="start" x="568" y="-922" font-family="Helvetica,sans-Serif" font-size="10.00">compiler.ParseTable.getNext</text>
<text text-anchor="middle" x="636" y="-911" font-family="Helvetica,sans-Serif" font-size="10.00">State</text>
</a>
</g>
</g>
<!-- Node5&#45;&gt;Node7 -->
<g id="edge6" class="edge"><title>Node5&#45;&gt;Node7</title>
<path fill="none" stroke="midnightblue" d="M445.361,-846.599C466.917,-858.927 506.285,-880.357 542,-894 548.401,-896.445 555.136,-898.748 561.934,-900.892"/>
<polygon fill="midnightblue" stroke="midnightblue" points="561.323,-904.364 571.908,-903.917 563.354,-897.665 561.323,-904.364"/>
</g>
<!-- Node8 -->
<g id="node8" class="node"><title>Node8</title>
<g id="a_node8"><a xlink:href="../../dd/db3/classcompiler_1_1_parse_table.html#a1ed63064154778c1dbb59a50178ab98b" target="_top" xlink:title="compiler.ParseTable.getOperation">
<polygon fill="white" stroke="black" points="548,-865.5 548,-884.5 724,-884.5 724,-865.5 548,-865.5"/>
<text text-anchor="middle" x="636" y="-872.5" font-family="Helvetica,sans-Serif" font-size="10.00">compiler.ParseTable.getOperation</text>
</a>
</g>
</g>
<!-- Node5&#45;&gt;Node8 -->
<g id="edge7" class="edge"><title>Node5&#45;&gt;Node8</title>
<path fill="none" stroke="midnightblue" d="M480.717,-846.54C508.756,-851.712 543.602,-858.14 573.079,-863.578"/>
<polygon fill="midnightblue" stroke="midnightblue" points="572.793,-867.084 583.262,-865.456 574.063,-860.2 572.793,-867.084"/>
</g>
<!-- Node9 -->
<g id="node9" class="node"><title>Node9</title>
<g id="a_node9"><a xlink:href="../../dd/db3/classcompiler_1_1_parse_table.html#a6f640afe05fef1c7b36a858e3d831a18" target="_top" xlink:title="compiler.ParseTable.getRHS">
<polygon fill="white" stroke="black" points="561.5,-827.5 561.5,-846.5 710.5,-846.5 710.5,-827.5 561.5,-827.5"/>
<text text-anchor="middle" x="636" y="-834.5" font-family="Helvetica,sans-Serif" font-size="10.00">compiler.ParseTable.getRHS</text>
</a>
</g>
</g>
<!-- Node5&#45;&gt;Node9 -->
<g id="edge8" class="edge"><title>Node5&#45;&gt;Node9</title>
<path fill="none" stroke="midnightblue" d="M499.605,-837C516.254,-837 534.16,-837 551.324,-837"/>
<polygon fill="midnightblue" stroke="midnightblue" points="551.329,-840.5 561.329,-837 551.329,-833.5 551.329,-840.5"/>
</g>
<!-- Node10 -->
<g id="node10" class="node"><title>Node10</title>
<g id="a_node10"><a xlink:href="../../db/d93/classcompiler_1_1_compiler.html#aedc19549c4ed689c6d984394716f563c" target="_top" xlink:title="compiler.Compiler.initGrammar">
<polygon fill="white" stroke="black" points="553,-789.5 553,-808.5 719,-808.5 719,-789.5 553,-789.5"/>
<text text-anchor="middle" x="636" y="-796.5" font-family="Helvetica,sans-Serif" font-size="10.00">compiler.Compiler.initGrammar</text>
</a>
</g>
</g>
<!-- Node5&#45;&gt;Node10 -->
<g id="edge9" class="edge"><title>Node5&#45;&gt;Node10</title>
<path fill="none" stroke="midnightblue" d="M480.717,-827.46C508.756,-822.288 543.602,-815.86 573.079,-810.422"/>
<polygon fill="midnightblue" stroke="midnightblue" points="574.063,-813.8 583.262,-808.544 572.793,-806.916 574.063,-813.8"/>
</g>
<!-- Node11 -->
<g id="node11" class="node"><title>Node11</title>
<g id="a_node11"><a xlink:href="../../dd/db3/classcompiler_1_1_parse_table.html#a077f2722d8fa84bc8903407ee482697a" target="_top" xlink:title="compiler.ParseTable.initialize\lTable">
<polygon fill="white" stroke="black" points="560,-740 560,-770 712,-770 712,-740 560,-740"/>
<text text-anchor="start" x="568" y="-758" font-family="Helvetica,sans-Serif" font-size="10.00">compiler.ParseTable.initialize</text>
<text text-anchor="middle" x="636" y="-747" font-family="Helvetica,sans-Serif" font-size="10.00">Table</text>
</a>
</g>
</g>
<!-- Node5&#45;&gt;Node11 -->
<g id="edge10" class="edge"><title>Node5&#45;&gt;Node11</title>
<path fill="none" stroke="midnightblue" d="M445.361,-827.401C466.917,-815.073 506.285,-793.643 542,-780 548.401,-777.555 555.136,-775.252 561.934,-773.108"/>
<polygon fill="midnightblue" stroke="midnightblue" points="563.354,-776.335 571.908,-770.083 561.323,-769.636 563.354,-776.335"/>
</g>
<!-- Node14 -->
<g id="node14" class="node"><title>Node14</title>
<g id="a_node14"><a xlink:href="../../db/d93/classcompiler_1_1_compiler.html#a490860dbdd9c5c56fe3c578a8bd55c5a" target="_top" xlink:title="compiler.Compiler.translate\lToEnglish">
<polygon fill="white" stroke="black" points="562,-691 562,-721 710,-721 710,-691 562,-691"/>
<text text-anchor="start" x="570" y="-709" font-family="Helvetica,sans-Serif" font-size="10.00">compiler.Compiler.translate</text>
<text text-anchor="middle" x="636" y="-698" font-family="Helvetica,sans-Serif" font-size="10.00">ToEnglish</text>
</a>
</g>
</g>
<!-- Node13&#45;&gt;Node14 -->
<g id="edge13" class="edge"><title>Node13&#45;&gt;Node14</title>
<path fill="none" stroke="midnightblue" d="M499.605,-691.54C516.352,-693.329 534.37,-695.253 551.625,-697.096"/>
<polygon fill="midnightblue" stroke="midnightblue" points="551.366,-700.588 561.681,-698.17 552.109,-693.628 551.366,-700.588"/>
</g>
<!-- Node15 -->
<g id="node15" class="node"><title>Node15</title>
<g id="a_node15"><a xlink:href="../../de/d03/classcompiler_1_1_token_finder.html#a8f4fdc09f838a5cee92938ae555a93dc" target="_top" xlink:title="compiler.TokenFinder.tokenize">
<polygon fill="white" stroke="black" points="557,-652.5 557,-671.5 715,-671.5 715,-652.5 557,-652.5"/>
<text text-anchor="middle" x="636" y="-659.5" font-family="Helvetica,sans-Serif" font-size="10.00">compiler.TokenFinder.tokenize</text>
</a>
</g>
</g>
<!-- Node13&#45;&gt;Node15 -->
<g id="edge14" class="edge"><title>Node13&#45;&gt;Node15</title>
<path fill="none" stroke="midnightblue" d="M499.605,-676.46C514.701,-674.847 530.83,-673.125 546.502,-671.451"/>
<polygon fill="midnightblue" stroke="midnightblue" points="547.148,-674.902 556.72,-670.36 546.405,-667.942 547.148,-674.902"/>
</g>
<!-- Node17 -->
<g id="node17" class="node"><title>Node17</title>
<g id="a_node17"><a xlink:href="../../db/d93/classcompiler_1_1_compiler.html#ae6504512c09bb3ab9064f3b12f0a51ff" target="_top" xlink:title="compiler.Compiler.symbol\lTableGeneration">
<polygon fill="white" stroke="black" points="566,-603 566,-633 706,-633 706,-603 566,-603"/>
<text text-anchor="start" x="574" y="-621" font-family="Helvetica,sans-Serif" font-size="10.00">compiler.Compiler.symbol</text>
<text text-anchor="middle" x="636" y="-610" font-family="Helvetica,sans-Serif" font-size="10.00">TableGeneration</text>
</a>
</g>
</g>
<!-- Node13&#45;&gt;Node17 -->
<g id="edge16" class="edge"><title>Node13&#45;&gt;Node17</title>
<path fill="none" stroke="midnightblue" d="M453.482,-674.431C476.231,-665.703 511.149,-652.724 542,-643 549.709,-640.57 557.823,-638.167 565.914,-635.866"/>
<polygon fill="midnightblue" stroke="midnightblue" points="567.056,-639.181 575.743,-633.116 565.169,-632.44 567.056,-639.181"/>
</g>
<!-- Node16 -->
<g id="node16" class="node"><title>Node16</title>
<g id="a_node16"><a xlink:href="../../de/d03/classcompiler_1_1_token_finder.html#a17a5eca5ffc7312f5eb38cf1504f7b86" target="_top" xlink:title="compiler.TokenFinder.stringType">
<polygon fill="white" stroke="black" points="779,-668.5 779,-687.5 945,-687.5 945,-668.5 779,-668.5"/>
<text text-anchor="middle" x="862" y="-675.5" font-family="Helvetica,sans-Serif" font-size="10.00">compiler.TokenFinder.stringType</text>
</a>
</g>
</g>
<!-- Node15&#45;&gt;Node16 -->
<g id="edge15" class="edge"><title>Node15&#45;&gt;Node16</title>
<path fill="none" stroke="midnightblue" d="M715.03,-667.574C732.234,-668.802 750.619,-670.116 768.339,-671.381"/>
<polygon fill="midnightblue" stroke="midnightblue" points="768.457,-674.899 778.681,-672.12 768.956,-667.916 768.457,-674.899"/>
</g>
<!-- Node18 -->
<g id="node18" class="node"><title>Node18</title>
<g id="a_node18"><a xlink:href="../../dd/d18/classcompiler_1_1_symbol_table_entry.html#a77ced9095e334cd236a57ba558a03e73" target="_top" xlink:title="compiler.SymbolTableEntry.setType">
<polygon fill="white" stroke="black" points="771,-630.5 771,-649.5 953,-649.5 953,-630.5 771,-630.5"/>
<text text-anchor="middle" x="862" y="-637.5" font-family="Helvetica,sans-Serif" font-size="10.00">compiler.SymbolTableEntry.setType</text>
</a>
</g>
</g>
<!-- Node17&#45;&gt;Node18 -->
<g id="edge17" class="edge"><title>Node17&#45;&gt;Node18</title>
<path fill="none" stroke="midnightblue" d="M706.035,-624.78C723.281,-626.474 742.128,-628.325 760.554,-630.135"/>
<polygon fill="midnightblue" stroke="midnightblue" points="760.44,-633.64 770.734,-631.135 761.124,-626.674 760.44,-633.64"/>
</g>
<!-- Node19 -->
<g id="node19" class="node"><title>Node19</title>
<g id="a_node19"><a xlink:href="../../dd/d18/classcompiler_1_1_symbol_table_entry.html#a12657cfb875265be8e008315d81f65bf" target="_top" xlink:title="compiler.SymbolTableEntry.setName">
<polygon fill="white" stroke="black" points="766.5,-592.5 766.5,-611.5 957.5,-611.5 957.5,-592.5 766.5,-592.5"/>
<text text-anchor="middle" x="862" y="-599.5" font-family="Helvetica,sans-Serif" font-size="10.00">compiler.SymbolTableEntry.setName</text>
</a>
</g>
</g>
<!-- Node17&#45;&gt;Node19 -->
<g id="edge18" class="edge"><title>Node17&#45;&gt;Node19</title>
<path fill="none" stroke="midnightblue" d="M706.035,-613.069C721.939,-611.933 739.205,-610.7 756.246,-609.482"/>
<polygon fill="midnightblue" stroke="midnightblue" points="756.517,-612.972 766.242,-608.768 756.018,-605.99 756.517,-612.972"/>
</g>
<!-- Node20 -->
<g id="node20" class="node"><title>Node20</title>
<g id="a_node20"><a xlink:href="../../dd/d18/classcompiler_1_1_symbol_table_entry.html#a9c52435da30816b629f211c707ebbafe" target="_top" xlink:title="compiler.SymbolTableEntry.set\lValue">
<polygon fill="white" stroke="black" points="781.5,-543 781.5,-573 942.5,-573 942.5,-543 781.5,-543"/>
<text text-anchor="start" x="789.5" y="-561" font-family="Helvetica,sans-Serif" font-size="10.00">compiler.SymbolTableEntry.set</text>
<text text-anchor="middle" x="862" y="-550" font-family="Helvetica,sans-Serif" font-size="10.00">Value</text>
</a>
</g>
</g>
<!-- Node17&#45;&gt;Node20 -->
<g id="edge19" class="edge"><title>Node17&#45;&gt;Node20</title>
<path fill="none" stroke="midnightblue" d="M693.578,-602.872C705.606,-599.633 718.227,-596.218 730,-593 746.018,-588.622 749.97,-587.335 766,-583 774.886,-580.597 784.249,-578.095 793.491,-575.644"/>
<polygon fill="midnightblue" stroke="midnightblue" points="794.673,-578.952 803.445,-573.011 792.883,-572.185 794.673,-578.952"/>
</g>
<!-- Node22 -->
<g id="node22" class="node"><title>Node22</title>
<g id="a_node22"><a xlink:href="../../de/d00/classcommands_1_1_command_list.html#a3fa6072b15e6e34c66f5d4e264460553" target="_top" xlink:title="commands.CommandList.clear\lScreen">
<polygon fill="white" stroke="black" points="552.5,-554 552.5,-584 719.5,-584 719.5,-554 552.5,-554"/>
<text text-anchor="start" x="560.5" y="-572" font-family="Helvetica,sans-Serif" font-size="10.00">commands.CommandList.clear</text>
<text text-anchor="middle" x="636" y="-561" font-family="Helvetica,sans-Serif" font-size="10.00">Screen</text>
</a>
</g>
</g>
<!-- Node21&#45;&gt;Node22 -->
<g id="edge21" class="edge"><title>Node21&#45;&gt;Node22</title>
<path fill="none" stroke="midnightblue" d="M430.498,-309.691C436.698,-346.399 463.795,-478.149 542,-544 544.014,-545.696 546.133,-547.278 548.335,-548.754"/>
<polygon fill="midnightblue" stroke="midnightblue" points="546.801,-551.911 557.201,-553.933 550.332,-545.867 546.801,-551.911"/>
</g>
<!-- Node24 -->
<g id="node24" class="node"><title>Node24</title>
<g id="a_node24"><a xlink:href="../../de/d00/classcommands_1_1_command_list.html#a5b320e3a2018fde1a425658bf6f76f71" target="_top" xlink:title="commands.CommandList.forward\lCommand">
<polygon fill="white" stroke="black" points="546.5,-505 546.5,-535 725.5,-535 725.5,-505 546.5,-505"/>
<text text-anchor="start" x="554.5" y="-523" font-family="Helvetica,sans-Serif" font-size="10.00">commands.CommandList.forward</text>
<text text-anchor="middle" x="636" y="-512" font-family="Helvetica,sans-Serif" font-size="10.00">Command</text>
</a>
</g>
</g>
<!-- Node21&#45;&gt;Node24 -->
<g id="edge23" class="edge"><title>Node21&#45;&gt;Node24</title>
<path fill="none" stroke="midnightblue" d="M431.761,-309.91C441.233,-342.019 475.55,-444.053 542,-495 544.363,-496.812 546.848,-498.493 549.426,-500.052"/>
<polygon fill="midnightblue" stroke="midnightblue" points="548.037,-503.278 558.508,-504.899 551.333,-497.103 548.037,-503.278"/>
</g>
<!-- Node25 -->
<g id="node25" class="node"><title>Node25</title>
<g id="a_node25"><a xlink:href="../../de/d00/classcommands_1_1_command_list.html#a10e5a16b6560987b4c7deefa4a12fbdb" target="_top" xlink:title="commands.CommandList.heading">
<polygon fill="white" stroke="black" points="545,-466.5 545,-485.5 727,-485.5 727,-466.5 545,-466.5"/>
<text text-anchor="middle" x="636" y="-473.5" font-family="Helvetica,sans-Serif" font-size="10.00">commands.CommandList.heading</text>
</a>
</g>
</g>
<!-- Node21&#45;&gt;Node25 -->
<g id="edge25" class="edge"><title>Node21&#45;&gt;Node25</title>
<path fill="none" stroke="midnightblue" d="M432.936,-309.585C444.821,-337.239 483.175,-417.638 542,-456 545.839,-458.503 549.938,-460.699 554.196,-462.624"/>
<polygon fill="midnightblue" stroke="midnightblue" points="553.148,-465.974 563.733,-466.421 555.737,-459.47 553.148,-465.974"/>
</g>
<!-- Node26 -->
<g id="node26" class="node"><title>Node26</title>
<g id="a_node26"><a xlink:href="../../de/d00/classcommands_1_1_command_list.html#a787a3850e0d0584213bfe7fdcd011985" target="_top" xlink:title="commands.CommandList.hide\lTurtle">
<polygon fill="white" stroke="black" points="554,-417 554,-447 718,-447 718,-417 554,-417"/>
<text text-anchor="start" x="562" y="-435" font-family="Helvetica,sans-Serif" font-size="10.00">commands.CommandList.hide</text>
<text text-anchor="middle" x="636" y="-424" font-family="Helvetica,sans-Serif" font-size="10.00">Turtle</text>
</a>
</g>
</g>
<!-- Node21&#45;&gt;Node26 -->
<g id="edge27" class="edge"><title>Node21&#45;&gt;Node26</title>
<path fill="none" stroke="midnightblue" d="M436.334,-309.645C452.827,-330.648 495.087,-380.736 542,-407 545.964,-409.219 550.134,-411.249 554.422,-413.104"/>
<polygon fill="midnightblue" stroke="midnightblue" points="553.377,-416.455 563.963,-416.894 555.961,-409.95 553.377,-416.455"/>
</g>
<!-- Node27 -->
<g id="node27" class="node"><title>Node27</title>
<g id="a_node27"><a xlink:href="../../de/d00/classcommands_1_1_command_list.html#a982e66bba41ac1d0773d4dcb92aab824" target="_top" xlink:title="commands.CommandList.penDown">
<polygon fill="white" stroke="black" points="542,-378.5 542,-397.5 730,-397.5 730,-378.5 542,-378.5"/>
<text text-anchor="middle" x="636" y="-385.5" font-family="Helvetica,sans-Serif" font-size="10.00">commands.CommandList.penDown</text>
</a>
</g>
</g>
<!-- Node21&#45;&gt;Node27 -->
<g id="edge29" class="edge"><title>Node21&#45;&gt;Node27</title>
<path fill="none" stroke="midnightblue" d="M441.821,-309.674C462.037,-324.46 503.039,-352.584 542,-368 549.726,-371.057 558.008,-373.685 566.328,-375.934"/>
<polygon fill="midnightblue" stroke="midnightblue" points="565.528,-379.342 576.082,-378.404 567.247,-372.557 565.528,-379.342"/>
</g>
<!-- Node28 -->
<g id="node28" class="node"><title>Node28</title>
<g id="a_node28"><a xlink:href="../../de/d00/classcommands_1_1_command_list.html#aef01a8e42196fc5ae6685ba9f3991e5e" target="_top" xlink:title="commands.CommandList.pen\lDownP">
<polygon fill="white" stroke="black" points="555.5,-329 555.5,-359 716.5,-359 716.5,-329 555.5,-329"/>
<text text-anchor="start" x="563.5" y="-347" font-family="Helvetica,sans-Serif" font-size="10.00">commands.CommandList.pen</text>
<text text-anchor="middle" x="636" y="-336" font-family="Helvetica,sans-Serif" font-size="10.00">DownP</text>
</a>
</g>
</g>
<!-- Node21&#45;&gt;Node28 -->
<g id="edge31" class="edge"><title>Node21&#45;&gt;Node28</title>
<path fill="none" stroke="midnightblue" d="M473.699,-309.547C497.306,-314.59 527.006,-320.933 554.467,-326.799"/>
<polygon fill="midnightblue" stroke="midnightblue" points="553.956,-330.269 564.467,-328.935 555.418,-323.423 553.956,-330.269"/>
</g>
<!-- Node29 -->
<g id="node29" class="node"><title>Node29</title>
<g id="a_node29"><a xlink:href="../../de/d00/classcommands_1_1_command_list.html#a62ca3466760389089ab8a1474d7649da" target="_top" xlink:title="commands.CommandList.penUp">
<polygon fill="white" stroke="black" points="548.5,-290.5 548.5,-309.5 723.5,-309.5 723.5,-290.5 548.5,-290.5"/>
<text text-anchor="middle" x="636" y="-297.5" font-family="Helvetica,sans-Serif" font-size="10.00">commands.CommandList.penUp</text>
</a>
</g>
</g>
<!-- Node21&#45;&gt;Node29 -->
<g id="edge33" class="edge"><title>Node21&#45;&gt;Node29</title>
<path fill="none" stroke="midnightblue" d="M488.031,-300C503.734,-300 521.116,-300 538.265,-300"/>
<polygon fill="midnightblue" stroke="midnightblue" points="538.321,-303.5 548.321,-300 538.321,-296.5 538.321,-303.5"/>
</g>
<!-- Node30 -->
<g id="node30" class="node"><title>Node30</title>
<g id="a_node30"><a xlink:href="../../de/d00/classcommands_1_1_command_list.html#adeb55ad1a5d59a59b3a19582f885d55a" target="_top" xlink:title="commands.CommandList.SetXY">
<polygon fill="white" stroke="black" points="550.5,-252.5 550.5,-271.5 721.5,-271.5 721.5,-252.5 550.5,-252.5"/>
<text text-anchor="middle" x="636" y="-259.5" font-family="Helvetica,sans-Serif" font-size="10.00">commands.CommandList.SetXY</text>
</a>
</g>
</g>
<!-- Node21&#45;&gt;Node30 -->
<g id="edge35" class="edge"><title>Node21&#45;&gt;Node30</title>
<path fill="none" stroke="midnightblue" d="M480.717,-290.46C508.756,-285.288 543.602,-278.86 573.079,-273.422"/>
<polygon fill="midnightblue" stroke="midnightblue" points="574.063,-276.8 583.262,-271.544 572.793,-269.916 574.063,-276.8"/>
</g>
<!-- Node31 -->
<g id="node31" class="node"><title>Node31</title>
<g id="a_node31"><a xlink:href="../../de/d00/classcommands_1_1_command_list.html#a56d90f6038375159ddd4381483313eba" target="_top" xlink:title="commands.CommandList.showingP">
<polygon fill="white" stroke="black" points="542,-214.5 542,-233.5 730,-233.5 730,-214.5 542,-214.5"/>
<text text-anchor="middle" x="636" y="-221.5" font-family="Helvetica,sans-Serif" font-size="10.00">commands.CommandList.showingP</text>
</a>
</g>
</g>
<!-- Node21&#45;&gt;Node31 -->
<g id="edge37" class="edge"><title>Node21&#45;&gt;Node31</title>
<path fill="none" stroke="midnightblue" d="M444.506,-290.498C465.758,-277.873 505.47,-255.691 542,-243 549.832,-240.279 558.178,-237.894 566.533,-235.817"/>
<polygon fill="midnightblue" stroke="midnightblue" points="567.38,-239.214 576.315,-233.52 565.779,-232.399 567.38,-239.214"/>
</g>
<!-- Node32 -->
<g id="node32" class="node"><title>Node32</title>
<g id="a_node32"><a xlink:href="../../de/d00/classcommands_1_1_command_list.html#a84ca20352feab138c22ab7ed8b32f0d1" target="_top" xlink:title="commands.CommandList.show\lTurtle">
<polygon fill="white" stroke="black" points="552.5,-165 552.5,-195 719.5,-195 719.5,-165 552.5,-165"/>
<text text-anchor="start" x="560.5" y="-183" font-family="Helvetica,sans-Serif" font-size="10.00">commands.CommandList.show</text>
<text text-anchor="middle" x="636" y="-172" font-family="Helvetica,sans-Serif" font-size="10.00">Turtle</text>
</a>
</g>
</g>
<!-- Node21&#45;&gt;Node32 -->
<g id="edge39" class="edge"><title>Node21&#45;&gt;Node32</title>
<path fill="none" stroke="midnightblue" d="M437.642,-290.326C455.319,-271.137 497.689,-228.116 542,-205 546.516,-202.644 551.275,-200.494 556.155,-198.536"/>
<polygon fill="midnightblue" stroke="midnightblue" points="557.503,-201.769 565.655,-195.001 555.062,-195.208 557.503,-201.769"/>
</g>
<!-- Node33 -->
<g id="node33" class="node"><title>Node33</title>
<g id="a_node33"><a xlink:href="../../de/d00/classcommands_1_1_command_list.html#af0d3ea536d38493b14ee45fe04848286" target="_top" xlink:title="commands.CommandList.towards">
<polygon fill="white" stroke="black" points="545.5,-126.5 545.5,-145.5 726.5,-145.5 726.5,-126.5 545.5,-126.5"/>
<text text-anchor="middle" x="636" y="-133.5" font-family="Helvetica,sans-Serif" font-size="10.00">commands.CommandList.towards</text>
</a>
</g>
</g>
<!-- Node21&#45;&gt;Node33 -->
<g id="edge41" class="edge"><title>Node21&#45;&gt;Node33</title>
<path fill="none" stroke="midnightblue" d="M433.517,-290.406C446.383,-264.2 485.949,-191.034 542,-156 546.158,-153.401 550.602,-151.136 555.21,-149.163"/>
<polygon fill="midnightblue" stroke="midnightblue" points="556.748,-152.323 564.859,-145.507 554.268,-145.777 556.748,-152.323"/>
</g>
<!-- Node34 -->
<g id="node34" class="node"><title>Node34</title>
<g id="a_node34"><a xlink:href="../../de/d00/classcommands_1_1_command_list.html#a19cc311e99a6fa5e95d0966c09bdc907" target="_top" xlink:title="commands.CommandList.turn\lCommand">
<polygon fill="white" stroke="black" points="554.5,-77 554.5,-107 717.5,-107 717.5,-77 554.5,-77"/>
<text text-anchor="start" x="562.5" y="-95" font-family="Helvetica,sans-Serif" font-size="10.00">commands.CommandList.turn</text>
<text text-anchor="middle" x="636" y="-84" font-family="Helvetica,sans-Serif" font-size="10.00">Command</text>
</a>
</g>
</g>
<!-- Node21&#45;&gt;Node34 -->
<g id="edge43" class="edge"><title>Node21&#45;&gt;Node34</title>
<path fill="none" stroke="midnightblue" d="M432.094,-290.266C442.344,-259.645 478.212,-164.504 542,-117 544.533,-115.114 547.199,-113.369 549.964,-111.757"/>
<polygon fill="midnightblue" stroke="midnightblue" points="551.813,-114.741 559.09,-107.041 548.599,-108.522 551.813,-114.741"/>
</g>
<!-- Node35 -->
<g id="node35" class="node"><title>Node35</title>
<g id="a_node35"><a xlink:href="../../de/d00/classcommands_1_1_command_list.html#a59070aee1fd5b3efa68c63fb3ab6ed6e" target="_top" xlink:title="commands.CommandList.xCor">
<polygon fill="white" stroke="black" points="553.5,-38.5 553.5,-57.5 718.5,-57.5 718.5,-38.5 553.5,-38.5"/>
<text text-anchor="middle" x="636" y="-45.5" font-family="Helvetica,sans-Serif" font-size="10.00">commands.CommandList.xCor</text>
</a>
</g>
</g>
<!-- Node21&#45;&gt;Node35 -->
<g id="edge45" class="edge"><title>Node21&#45;&gt;Node35</title>
<path fill="none" stroke="midnightblue" d="M430.614,-290.097C437.078,-253.81 464.598,-127.12 542,-67 544.318,-65.1994 546.764,-63.5573 549.309,-62.0606"/>
<polygon fill="midnightblue" stroke="midnightblue" points="550.956,-65.1498 558.298,-57.5117 547.795,-58.9039 550.956,-65.1498"/>
</g>
<!-- Node36 -->
<g id="node36" class="node"><title>Node36</title>
<g id="a_node36"><a xlink:href="../../de/d00/classcommands_1_1_command_list.html#a4d30a46927f84016abe3bc1051baf62c" target="_top" xlink:title="commands.CommandList.yCor">
<polygon fill="white" stroke="black" points="553.5,-0.5 553.5,-19.5 718.5,-19.5 718.5,-0.5 553.5,-0.5"/>
<text text-anchor="middle" x="636" y="-7.5" font-family="Helvetica,sans-Serif" font-size="10.00">commands.CommandList.yCor</text>
</a>
</g>
</g>
<!-- Node21&#45;&gt;Node36 -->
<g id="edge47" class="edge"><title>Node21&#45;&gt;Node36</title>
<path fill="none" stroke="midnightblue" d="M429.854,-290.471C433.907,-251.218 454.821,-100.752 542,-29 544.004,-27.3506 546.113,-25.8322 548.308,-24.435"/>
<polygon fill="midnightblue" stroke="midnightblue" points="550.037,-27.4788 557.149,-19.6256 546.692,-21.3297 550.037,-27.4788"/>
</g>
<!-- Node23 -->
<g id="node23" class="node"><title>Node23</title>
<g id="a_node23"><a xlink:href="../../de/d1c/namespacesimulation_objects.html#a02779129356465b8d266330b211f83f1" target="_top" xlink:title="simulationObjects.Turtle">
<polygon fill="white" stroke="black" points="796.5,-271.5 796.5,-290.5 927.5,-290.5 927.5,-271.5 796.5,-271.5"/>
<text text-anchor="middle" x="862" y="-278.5" font-family="Helvetica,sans-Serif" font-size="10.00">simulationObjects.Turtle</text>
</a>
</g>
</g>
<!-- Node22&#45;&gt;Node23 -->
<g id="edge22" class="edge"><title>Node22&#45;&gt;Node23</title>
<path fill="none" stroke="midnightblue" d="M714.678,-553.788C720.154,-551.044 725.341,-547.811 730,-544 810.768,-477.929 846.103,-349.516 857.042,-300.582"/>
<polygon fill="midnightblue" stroke="midnightblue" points="860.495,-301.172 859.164,-290.661 853.65,-299.708 860.495,-301.172"/>
</g>
<!-- Node24&#45;&gt;Node23 -->
<g id="edge24" class="edge"><title>Node24&#45;&gt;Node23</title>
<path fill="none" stroke="midnightblue" d="M712.926,-504.981C718.989,-502.2 724.778,-498.905 730,-495 799.321,-443.166 839.953,-342.871 854.668,-300.572"/>
<polygon fill="midnightblue" stroke="midnightblue" points="858.046,-301.508 857.924,-290.914 851.413,-299.272 858.046,-301.508"/>
</g>
<!-- Node25&#45;&gt;Node23 -->
<g id="edge26" class="edge"><title>Node25&#45;&gt;Node23</title>
<path fill="none" stroke="midnightblue" d="M707.72,-466.483C715.575,-463.795 723.187,-460.367 730,-456 791.65,-416.482 834.787,-337.118 852.295,-300.424"/>
<polygon fill="midnightblue" stroke="midnightblue" points="855.687,-301.428 856.724,-290.884 849.338,-298.481 855.687,-301.428"/>
</g>
<!-- Node26&#45;&gt;Node23 -->
<g id="edge28" class="edge"><title>Node26&#45;&gt;Node23</title>
<path fill="none" stroke="midnightblue" d="M708.067,-416.948C715.694,-414.154 723.158,-410.865 730,-407 780.573,-378.427 826.149,-325.798 847.766,-298.482"/>
<polygon fill="midnightblue" stroke="midnightblue" points="850.545,-300.608 853.918,-290.565 845.018,-296.313 850.545,-300.608"/>
</g>
<!-- Node27&#45;&gt;Node23 -->
<g id="edge30" class="edge"><title>Node27&#45;&gt;Node23</title>
<path fill="none" stroke="midnightblue" d="M697.552,-378.422C708.575,-375.718 719.804,-372.299 730,-368 773.207,-349.782 817.403,-316.85 841.813,-297.147"/>
<polygon fill="midnightblue" stroke="midnightblue" points="844.072,-299.821 849.588,-290.775 839.635,-294.406 844.072,-299.821"/>
</g>
<!-- Node28&#45;&gt;Node23 -->
<g id="edge32" class="edge"><title>Node28&#45;&gt;Node23</title>
<path fill="none" stroke="midnightblue" d="M693.606,-328.974C705.632,-325.729 718.245,-322.284 730,-319 759.799,-310.674 793.304,-300.948 818.97,-293.42"/>
<polygon fill="midnightblue" stroke="midnightblue" points="820.141,-296.724 828.749,-290.547 818.168,-290.008 820.141,-296.724"/>
</g>
<!-- Node29&#45;&gt;Node23 -->
<g id="edge34" class="edge"><title>Node29&#45;&gt;Node23</title>
<path fill="none" stroke="midnightblue" d="M723.604,-292.654C744.247,-290.903 766.104,-289.049 786.167,-287.347"/>
<polygon fill="midnightblue" stroke="midnightblue" points="786.499,-290.832 796.168,-286.499 785.908,-283.857 786.499,-290.832"/>
</g>
<!-- Node30&#45;&gt;Node23 -->
<g id="edge36" class="edge"><title>Node30&#45;&gt;Node23</title>
<path fill="none" stroke="midnightblue" d="M721.685,-269.183C742.979,-270.989 765.676,-272.914 786.434,-274.675"/>
<polygon fill="midnightblue" stroke="midnightblue" points="786.194,-278.167 796.454,-275.525 786.786,-271.192 786.194,-278.167"/>
</g>
<!-- Node31&#45;&gt;Node23 -->
<g id="edge38" class="edge"><title>Node31&#45;&gt;Node23</title>
<path fill="none" stroke="midnightblue" d="M687.362,-233.516C701.23,-236.346 716.24,-239.605 730,-243 760.75,-250.588 795.125,-260.619 820.946,-268.47"/>
<polygon fill="midnightblue" stroke="midnightblue" points="820.161,-271.89 830.747,-271.47 822.21,-265.196 820.161,-271.89"/>
</g>
<!-- Node32&#45;&gt;Node23 -->
<g id="edge40" class="edge"><title>Node32&#45;&gt;Node23</title>
<path fill="none" stroke="midnightblue" d="M701.774,-195.049C711.376,-197.956 721.047,-201.276 730,-205 770.217,-221.727 813.239,-248.63 838.596,-265.535"/>
<polygon fill="midnightblue" stroke="midnightblue" points="836.854,-268.581 847.101,-271.273 840.769,-262.779 836.854,-268.581"/>
</g>
<!-- Node33&#45;&gt;Node23 -->
<g id="edge42" class="edge"><title>Node33&#45;&gt;Node23</title>
<path fill="none" stroke="midnightblue" d="M703.63,-145.624C712.779,-148.282 721.826,-151.673 730,-156 781.141,-183.075 826.468,-235.843 847.9,-263.356"/>
<polygon fill="midnightblue" stroke="midnightblue" points="845.144,-265.514 853.996,-271.337 850.707,-261.265 845.144,-265.514"/>
</g>
<!-- Node34&#45;&gt;Node23 -->
<g id="edge44" class="edge"><title>Node34&#45;&gt;Node23</title>
<path fill="none" stroke="midnightblue" d="M710.996,-107.138C717.675,-109.896 724.125,-113.154 730,-117 788.548,-155.334 832.975,-228.446 851.519,-262.584"/>
<polygon fill="midnightblue" stroke="midnightblue" points="848.463,-264.291 856.243,-271.483 854.646,-261.01 848.463,-264.291"/>
</g>
<!-- Node35&#45;&gt;Node23 -->
<g id="edge46" class="edge"><title>Node35&#45;&gt;Node23</title>
<path fill="none" stroke="midnightblue" d="M712.371,-57.671C718.622,-60.1501 724.603,-63.2157 730,-67 801.2,-116.923 841.015,-219.112 855.098,-261.699"/>
<polygon fill="midnightblue" stroke="midnightblue" points="851.817,-262.931 858.194,-271.392 858.485,-260.801 851.817,-262.931"/>
</g>
<!-- Node36&#45;&gt;Node23 -->
<g id="edge48" class="edge"><title>Node36&#45;&gt;Node23</title>
<path fill="none" stroke="midnightblue" d="M713.587,-19.6622C719.438,-22.157 725.001,-25.2279 730,-29 810.163,-89.4941 845.691,-213.239 856.865,-261.3"/>
<polygon fill="midnightblue" stroke="midnightblue" points="853.508,-262.325 859.094,-271.328 860.341,-260.807 853.508,-262.325"/>
</g>
</g>
</svg>
