<?xml version="1.0" encoding="UTF-8" standalone="no"?>
<!DOCTYPE svg PUBLIC "-//W3C//DTD SVG 1.1//EN"
 "http://www.w3.org/Graphics/SVG/1.1/DTD/svg11.dtd">
<!-- Generated by graphviz version 2.36.0 (20140111.2315)
 -->
<!-- Title: compiler.Compiler.initialize Pages: 1 -->
<svg width="364pt" height="241pt"
 viewBox="0.00 0.00 364.00 241.00" xmlns="http://www.w3.org/2000/svg" xmlns:xlink="http://www.w3.org/1999/xlink">
<g id="graph0" class="graph" transform="scale(1 1) rotate(0) translate(4 237)">
<title>compiler.Compiler.initialize</title>
<polygon fill="white" stroke="none" points="-4,4 -4,-237 360,-237 360,4 -4,4"/>
<!-- Node1 -->
<g id="node1" class="node"><title>Node1</title>
<polygon fill="#bfbfbf" stroke="black" points="0.5,-106.5 0.5,-125.5 143.5,-125.5 143.5,-106.5 0.5,-106.5"/>
<text text-anchor="middle" x="72" y="-113.5" font-family="Helvetica,sans-Serif" font-size="10.00">compiler.Compiler.initialize</text>
</g>
<!-- Node2 -->
<g id="node2" class="node"><title>Node2</title>
<g id="a_node2"><a xlink:href="../../dd/db3/classcompiler_1_1_parse_table.html#a573884bf9b9680a677625168b1b431fc" target="_top" xlink:title="compiler.ParseTable.getLHS">
<polygon fill="white" stroke="black" points="193.5,-213.5 193.5,-232.5 342.5,-232.5 342.5,-213.5 193.5,-213.5"/>
<text text-anchor="middle" x="268" y="-220.5" font-family="Helvetica,sans-Serif" font-size="10.00">compiler.ParseTable.getLHS</text>
</a>
</g>
</g>
<!-- Node1&#45;&gt;Node2 -->
<g id="edge1" class="edge"><title>Node1&#45;&gt;Node2</title>
<path fill="none" stroke="midnightblue" d="M81.7072,-125.529C98.7479,-143.571 138.479,-182.722 180,-203 185.988,-205.925 192.419,-208.431 198.976,-210.577"/>
<polygon fill="midnightblue" stroke="midnightblue" points="198.05,-213.953 208.634,-213.47 200.059,-207.248 198.05,-213.953"/>
</g>
<!-- Node3 -->
<g id="node3" class="node"><title>Node3</title>
<g id="a_node3"><a xlink:href="../../dd/db3/classcompiler_1_1_parse_table.html#ac4940ea308ddda4d90965b17c578da4a" target="_top" xlink:title="compiler.ParseTable.getNext\lState">
<polygon fill="white" stroke="black" points="192,-164 192,-194 344,-194 344,-164 192,-164"/>
<text text-anchor="start" x="200" y="-182" font-family="Helvetica,sans-Serif" font-size="10.00">compiler.ParseTable.getNext</text>
<text text-anchor="middle" x="268" y="-171" font-family="Helvetica,sans-Serif" font-size="10.00">State</text>
</a>
</g>
</g>
<!-- Node1&#45;&gt;Node3 -->
<g id="edge2" class="edge"><title>Node1&#45;&gt;Node3</title>
<path fill="none" stroke="midnightblue" d="M98.3613,-125.502C119.948,-133.471 151.845,-144.965 180,-154 187.365,-156.364 195.114,-158.742 202.827,-161.043"/>
<polygon fill="midnightblue" stroke="midnightblue" points="201.964,-164.438 212.546,-163.909 203.944,-157.723 201.964,-164.438"/>
</g>
<!-- Node4 -->
<g id="node4" class="node"><title>Node4</title>
<g id="a_node4"><a xlink:href="../../dd/db3/classcompiler_1_1_parse_table.html#a1ed63064154778c1dbb59a50178ab98b" target="_top" xlink:title="compiler.ParseTable.getOperation">
<polygon fill="white" stroke="black" points="180,-125.5 180,-144.5 356,-144.5 356,-125.5 180,-125.5"/>
<text text-anchor="middle" x="268" y="-132.5" font-family="Helvetica,sans-Serif" font-size="10.00">compiler.ParseTable.getOperation</text>
</a>
</g>
</g>
<!-- Node1&#45;&gt;Node4 -->
<g id="edge3" class="edge"><title>Node1&#45;&gt;Node4</title>
<path fill="none" stroke="midnightblue" d="M143.587,-122.913C152.167,-123.753 161.046,-124.623 169.925,-125.493"/>
<polygon fill="midnightblue" stroke="midnightblue" points="169.641,-128.981 179.934,-126.473 170.323,-122.015 169.641,-128.981"/>
</g>
<!-- Node5 -->
<g id="node5" class="node"><title>Node5</title>
<g id="a_node5"><a xlink:href="../../dd/db3/classcompiler_1_1_parse_table.html#a6f640afe05fef1c7b36a858e3d831a18" target="_top" xlink:title="compiler.ParseTable.getRHS">
<polygon fill="white" stroke="black" points="193.5,-87.5 193.5,-106.5 342.5,-106.5 342.5,-87.5 193.5,-87.5"/>
<text text-anchor="middle" x="268" y="-94.5" font-family="Helvetica,sans-Serif" font-size="10.00">compiler.ParseTable.getRHS</text>
</a>
</g>
</g>
<!-- Node1&#45;&gt;Node5 -->
<g id="edge4" class="edge"><title>Node1&#45;&gt;Node5</title>
<path fill="none" stroke="midnightblue" d="M143.587,-109.087C156.451,-107.827 169.985,-106.501 183.187,-105.208"/>
<polygon fill="midnightblue" stroke="midnightblue" points="183.591,-108.686 193.202,-104.228 182.908,-101.719 183.591,-108.686"/>
</g>
<!-- Node6 -->
<g id="node6" class="node"><title>Node6</title>
<g id="a_node6"><a xlink:href="../../db/d93/classcompiler_1_1_compiler.html#aedc19549c4ed689c6d984394716f563c" target="_top" xlink:title="compiler.Compiler.initGrammar">
<polygon fill="white" stroke="black" points="185,-49.5 185,-68.5 351,-68.5 351,-49.5 185,-49.5"/>
<text text-anchor="middle" x="268" y="-56.5" font-family="Helvetica,sans-Serif" font-size="10.00">compiler.Compiler.initGrammar</text>
</a>
</g>
</g>
<!-- Node1&#45;&gt;Node6 -->
<g id="edge5" class="edge"><title>Node1&#45;&gt;Node6</title>
<path fill="none" stroke="midnightblue" d="M97.364,-106.354C118.868,-98.0808 151.188,-86.2268 180,-78 189.047,-75.4167 198.71,-72.9878 208.184,-70.786"/>
<polygon fill="midnightblue" stroke="midnightblue" points="208.973,-74.196 217.955,-68.5767 207.429,-67.3684 208.973,-74.196"/>
</g>
<!-- Node7 -->
<g id="node7" class="node"><title>Node7</title>
<g id="a_node7"><a xlink:href="../../dd/db3/classcompiler_1_1_parse_table.html#a077f2722d8fa84bc8903407ee482697a" target="_top" xlink:title="compiler.ParseTable.initialize\lTable">
<polygon fill="white" stroke="black" points="192,-0 192,-30 344,-30 344,-0 192,-0"/>
<text text-anchor="start" x="200" y="-18" font-family="Helvetica,sans-Serif" font-size="10.00">compiler.ParseTable.initialize</text>
<text text-anchor="middle" x="268" y="-7" font-family="Helvetica,sans-Serif" font-size="10.00">Table</text>
</a>
</g>
</g>
<!-- Node1&#45;&gt;Node7 -->
<g id="edge6" class="edge"><title>Node1&#45;&gt;Node7</title>
<path fill="none" stroke="midnightblue" d="M83.7625,-106.441C102.211,-90.5163 141.609,-58.4836 180,-40 184.867,-37.6565 189.996,-35.4917 195.229,-33.4997"/>
<polygon fill="midnightblue" stroke="midnightblue" points="196.49,-36.7658 204.725,-30.0996 194.13,-30.1755 196.49,-36.7658"/>
</g>
</g>
</svg>
