<?xml version="1.0" encoding="UTF-8" standalone="no"?>
<!DOCTYPE svg PUBLIC "-//W3C//DTD SVG 1.1//EN"
 "http://www.w3.org/Graphics/SVG/1.1/DTD/svg11.dtd">
<!-- Generated by graphviz version 2.36.0 (20140111.2315)
 -->
<!-- Title: commands.CommandList.penDownP Pages: 1 -->
<svg width="1422pt" height="207pt"
 viewBox="0.00 0.00 1422.00 207.00" xmlns="http://www.w3.org/2000/svg" xmlns:xlink="http://www.w3.org/1999/xlink">
<g id="graph0" class="graph" transform="scale(1 1) rotate(0) translate(4 203)">
<title>commands.CommandList.penDownP</title>
<polygon fill="white" stroke="none" points="-4,4 -4,-203 1418,-203 1418,4 -4,4"/>
<!-- Node1 -->
<g id="node1" class="node"><title>Node1</title>
<polygon fill="#bfbfbf" stroke="black" points="0.5,-73 0.5,-103 161.5,-103 161.5,-73 0.5,-73"/>
<text text-anchor="start" x="8.5" y="-91" font-family="Helvetica,sans-Serif" font-size="10.00">commands.CommandList.pen</text>
<text text-anchor="middle" x="81" y="-80" font-family="Helvetica,sans-Serif" font-size="10.00">DownP</text>
</g>
<!-- Node2 -->
<g id="node2" class="node"><title>Node2</title>
<g id="a_node2"><a xlink:href="../../d5/dcd/classcompiler_1_1_a_s_t.html#a8f54e642baf772b6269010527c61f7f7" target="_top" xlink:title="compiler.AST.traverse">
<polygon fill="white" stroke="black" points="198,-78.5 198,-97.5 318,-97.5 318,-78.5 198,-78.5"/>
<text text-anchor="middle" x="258" y="-85.5" font-family="Helvetica,sans-Serif" font-size="10.00">compiler.AST.traverse</text>
</a>
</g>
</g>
<!-- Node1&#45;&gt;Node2 -->
<g id="edge1" class="edge"><title>Node1&#45;&gt;Node2</title>
<path fill="none" stroke="midnightblue" d="M171.589,-88C180.475,-88 189.333,-88 197.795,-88"/>
<polygon fill="midnightblue" stroke="midnightblue" points="171.563,-84.5001 161.563,-88 171.563,-91.5001 171.563,-84.5001"/>
</g>
<!-- Node3 -->
<g id="node3" class="node"><title>Node3</title>
<g id="a_node3"><a xlink:href="../../db/d93/classcompiler_1_1_compiler.html#a8a90aa273bacff724a034959914a4c2d" target="_top" xlink:title="compiler.Compiler.compile">
<polygon fill="white" stroke="black" points="354.5,-78.5 354.5,-97.5 497.5,-97.5 497.5,-78.5 354.5,-78.5"/>
<text text-anchor="middle" x="426" y="-85.5" font-family="Helvetica,sans-Serif" font-size="10.00">compiler.Compiler.compile</text>
</a>
</g>
</g>
<!-- Node2&#45;&gt;Node3 -->
<g id="edge2" class="edge"><title>Node2&#45;&gt;Node3</title>
<path fill="none" stroke="midnightblue" d="M328.689,-88C337.172,-88 345.846,-88 354.342,-88"/>
<polygon fill="midnightblue" stroke="midnightblue" points="328.461,-84.5001 318.461,-88 328.461,-91.5001 328.461,-84.5001"/>
</g>
<!-- Node4 -->
<g id="node4" class="node"><title>Node4</title>
<g id="a_node4"><a xlink:href="../../db/d93/classcompiler_1_1_compiler.html#a90d16b98c8e950bbaf772f5b93092a3f" target="_top" xlink:title="compiler.Compiler.main">
<polygon fill="white" stroke="black" points="548.5,-147.5 548.5,-166.5 677.5,-166.5 677.5,-147.5 548.5,-147.5"/>
<text text-anchor="middle" x="613" y="-154.5" font-family="Helvetica,sans-Serif" font-size="10.00">compiler.Compiler.main</text>
</a>
</g>
</g>
<!-- Node3&#45;&gt;Node4 -->
<g id="edge3" class="edge"><title>Node3&#45;&gt;Node4</title>
<path fill="none" stroke="midnightblue" d="M454.232,-102.112C475.53,-112.743 506.107,-127.126 534,-137 545.202,-140.965 557.564,-144.502 569.081,-147.458"/>
<polygon fill="midnightblue" stroke="midnightblue" points="455.647,-98.9049 445.143,-97.5207 452.491,-105.153 455.647,-98.9049"/>
</g>
<!-- Node5 -->
<g id="node5" class="node"><title>Node5</title>
<g id="a_node5"><a xlink:href="../../db/d32/classcontroller_1_1_main_controller.html#a6badeb343877f4b50f069b47afed495c" target="_top" xlink:title="controller.MainController.pass\lInput">
<polygon fill="white" stroke="black" points="534,-98 534,-128 692,-128 692,-98 534,-98"/>
<text text-anchor="start" x="542" y="-116" font-family="Helvetica,sans-Serif" font-size="10.00">controller.MainController.pass</text>
<text text-anchor="middle" x="613" y="-105" font-family="Helvetica,sans-Serif" font-size="10.00">Input</text>
</a>
</g>
</g>
<!-- Node3&#45;&gt;Node5 -->
<g id="edge4" class="edge"><title>Node3&#45;&gt;Node5</title>
<path fill="none" stroke="midnightblue" d="M507.565,-98.8872C516.238,-100.059 525.053,-101.25 533.698,-102.419"/>
<polygon fill="midnightblue" stroke="midnightblue" points="507.847,-95.3935 497.468,-97.5227 506.909,-102.33 507.847,-95.3935"/>
</g>
<!-- Node13 -->
<g id="node13" class="node"><title>Node13</title>
<g id="a_node13"><a xlink:href="../../d8/ded/class_j_unit_test_1_1_compiler_test.html#a4132f77013965dda40f6d62699de349a" target="_top" xlink:title="JUnitTest.CompilerTest.test\lGrammarException">
<polygon fill="white" stroke="black" points="541.5,-49 541.5,-79 684.5,-79 684.5,-49 541.5,-49"/>
<text text-anchor="start" x="549.5" y="-67" font-family="Helvetica,sans-Serif" font-size="10.00">JUnitTest.CompilerTest.test</text>
<text text-anchor="middle" x="613" y="-56" font-family="Helvetica,sans-Serif" font-size="10.00">GrammarException</text>
</a>
</g>
</g>
<!-- Node3&#45;&gt;Node13 -->
<g id="edge14" class="edge"><title>Node3&#45;&gt;Node13</title>
<path fill="none" stroke="midnightblue" d="M507.876,-77.508C519.011,-76.0635 530.374,-74.5893 541.307,-73.171"/>
<polygon fill="midnightblue" stroke="midnightblue" points="507.199,-74.0664 497.732,-78.8239 508.1,-81.0082 507.199,-74.0664"/>
</g>
<!-- Node14 -->
<g id="node14" class="node"><title>Node14</title>
<g id="a_node14"><a xlink:href="../../d8/ded/class_j_unit_test_1_1_compiler_test.html#accbcdde8d934dd7acc552820845d6b0f" target="_top" xlink:title="JUnitTest.CompilerTest.test\lSyntaxException">
<polygon fill="white" stroke="black" points="541.5,-0 541.5,-30 684.5,-30 684.5,-0 541.5,-0"/>
<text text-anchor="start" x="549.5" y="-18" font-family="Helvetica,sans-Serif" font-size="10.00">JUnitTest.CompilerTest.test</text>
<text text-anchor="middle" x="613" y="-7" font-family="Helvetica,sans-Serif" font-size="10.00">SyntaxException</text>
</a>
</g>
</g>
<!-- Node3&#45;&gt;Node14 -->
<g id="edge15" class="edge"><title>Node3&#45;&gt;Node14</title>
<path fill="none" stroke="midnightblue" d="M455.598,-74.1227C476.942,-64.024 506.961,-50.3608 534,-40 543.03,-36.54 552.766,-33.1542 562.196,-30.0473"/>
<polygon fill="midnightblue" stroke="midnightblue" points="453.965,-71.0241 446.444,-78.4871 456.977,-77.3427 453.965,-71.0241"/>
</g>
<!-- Node6 -->
<g id="node6" class="node"><title>Node6</title>
<g id="a_node6"><a xlink:href="../../dd/dea/classgui_1_1_g_u_i_scene.html#a7cb2b00ed820aecde169a5e14cf0d468" target="_top" xlink:title="gui.GUIScene.createGUI">
<polygon fill="white" stroke="black" points="922,-122.5 922,-141.5 1054,-141.5 1054,-122.5 922,-122.5"/>
<text text-anchor="middle" x="988" y="-129.5" font-family="Helvetica,sans-Serif" font-size="10.00">gui.GUIScene.createGUI</text>
</a>
</g>
</g>
<!-- Node5&#45;&gt;Node6 -->
<g id="edge5" class="edge"><title>Node5&#45;&gt;Node6</title>
<path fill="none" stroke="midnightblue" d="M702.389,-129.202C711.02,-130.341 719.664,-131.31 728,-132 793.874,-137.452 869.495,-136.643 921.949,-134.965"/>
<polygon fill="midnightblue" stroke="midnightblue" points="702.67,-125.707 692.283,-127.793 701.704,-132.64 702.67,-125.707"/>
</g>
<!-- Node11 -->
<g id="node11" class="node"><title>Node11</title>
<g id="a_node11"><a xlink:href="../../dd/dea/classgui_1_1_g_u_i_scene.html#a47e424a495817f5806f45064f77a632b" target="_top" xlink:title="gui.GUIScene.getRightBox">
<polygon fill="white" stroke="black" points="736,-103.5 736,-122.5 878,-122.5 878,-103.5 736,-103.5"/>
<text text-anchor="middle" x="807" y="-110.5" font-family="Helvetica,sans-Serif" font-size="10.00">gui.GUIScene.getRightBox</text>
</a>
</g>
</g>
<!-- Node5&#45;&gt;Node11 -->
<g id="edge11" class="edge"><title>Node5&#45;&gt;Node11</title>
<path fill="none" stroke="midnightblue" d="M702.315,-113C713.507,-113 724.84,-113 735.699,-113"/>
<polygon fill="midnightblue" stroke="midnightblue" points="702.094,-109.5 692.094,-113 702.094,-116.5 702.094,-109.5"/>
</g>
<!-- Node12 -->
<g id="node12" class="node"><title>Node12</title>
<g id="a_node12"><a xlink:href="../../d6/d6a/class_j_unit_test_1_1_backend_a_p_i_test.html#a86dd50c40468e1647c7c01614dc7d30d" target="_top" xlink:title="JUnitTest.BackendAPITest.test">
<polygon fill="white" stroke="black" points="728.5,-65.5 728.5,-84.5 885.5,-84.5 885.5,-65.5 728.5,-65.5"/>
<text text-anchor="middle" x="807" y="-72.5" font-family="Helvetica,sans-Serif" font-size="10.00">JUnitTest.BackendAPITest.test</text>
</a>
</g>
</g>
<!-- Node5&#45;&gt;Node12 -->
<g id="edge13" class="edge"><title>Node5&#45;&gt;Node12</title>
<path fill="none" stroke="midnightblue" d="M699.921,-95.9949C719.856,-92.0493 740.377,-87.9878 757.995,-84.5009"/>
<polygon fill="midnightblue" stroke="midnightblue" points="699.014,-92.6064 689.883,-97.9814 700.373,-99.4732 699.014,-92.6064"/>
</g>
<!-- Node7 -->
<g id="node7" class="node"><title>Node7</title>
<g id="a_node7"><a xlink:href="../../dd/dea/classgui_1_1_g_u_i_scene.html#a74967ac937baee81b9eec1b2bc38167c" target="_top" xlink:title="gui.GUIScene.createScene">
<polygon fill="white" stroke="black" points="1090.5,-160.5 1090.5,-179.5 1235.5,-179.5 1235.5,-160.5 1090.5,-160.5"/>
<text text-anchor="middle" x="1163" y="-167.5" font-family="Helvetica,sans-Serif" font-size="10.00">gui.GUIScene.createScene</text>
</a>
</g>
</g>
<!-- Node6&#45;&gt;Node7 -->
<g id="edge6" class="edge"><title>Node6&#45;&gt;Node7</title>
<path fill="none" stroke="midnightblue" d="M1042.51,-143.753C1066.97,-149.126 1095.57,-155.409 1118.66,-160.48"/>
<polygon fill="midnightblue" stroke="midnightblue" points="1043.17,-140.316 1032.66,-141.589 1041.67,-147.153 1043.17,-140.316"/>
</g>
<!-- Node10 -->
<g id="node10" class="node"><title>Node10</title>
<g id="a_node10"><a xlink:href="../../dd/dea/classgui_1_1_g_u_i_scene.html#a16324ddc026310495f84e77bbb311b2c" target="_top" xlink:title="gui.GUIScene.addButtons">
<polygon fill="white" stroke="black" points="1093,-122.5 1093,-141.5 1233,-141.5 1233,-122.5 1093,-122.5"/>
<text text-anchor="middle" x="1163" y="-129.5" font-family="Helvetica,sans-Serif" font-size="10.00">gui.GUIScene.addButtons</text>
</a>
</g>
</g>
<!-- Node6&#45;&gt;Node10 -->
<g id="edge9" class="edge"><title>Node6&#45;&gt;Node10</title>
<path fill="none" stroke="midnightblue" d="M1064.5,-125.299C1073.9,-125.215 1083.46,-125.239 1092.75,-125.371"/>
<polygon fill="midnightblue" stroke="midnightblue" points="1064.36,-121.8 1054.4,-125.432 1064.45,-128.8 1064.36,-121.8"/>
</g>
<!-- Node8 -->
<g id="node8" class="node"><title>Node8</title>
<g id="a_node8"><a xlink:href="../../d6/d0e/classcontroller_1_1_s_logo_main.html#ab5379c32fef791f21ad51abde7d268c0" target="_top" xlink:title="controller.SLogoMain.start">
<polygon fill="white" stroke="black" points="1272,-179.5 1272,-198.5 1414,-198.5 1414,-179.5 1272,-179.5"/>
<text text-anchor="middle" x="1343" y="-186.5" font-family="Helvetica,sans-Serif" font-size="10.00">controller.SLogoMain.start</text>
</a>
</g>
</g>
<!-- Node7&#45;&gt;Node8 -->
<g id="edge7" class="edge"><title>Node7&#45;&gt;Node8</title>
<path fill="none" stroke="midnightblue" d="M1245.82,-178.734C1254.56,-179.666 1263.38,-180.608 1271.96,-181.524"/>
<polygon fill="midnightblue" stroke="midnightblue" points="1245.95,-175.227 1235.63,-177.646 1245.2,-182.188 1245.95,-175.227"/>
</g>
<!-- Node9 -->
<g id="node9" class="node"><title>Node9</title>
<g id="a_node9"><a xlink:href="../../dd/d48/classgui_1_1_g_u_i_start.html#a82d08814fef5331d82c4763a2426ffce" target="_top" xlink:title="gui.GUIStart.start">
<polygon fill="white" stroke="black" points="1292.5,-141.5 1292.5,-160.5 1393.5,-160.5 1393.5,-141.5 1292.5,-141.5"/>
<text text-anchor="middle" x="1343" y="-148.5" font-family="Helvetica,sans-Serif" font-size="10.00">gui.GUIStart.start</text>
</a>
</g>
</g>
<!-- Node7&#45;&gt;Node9 -->
<g id="edge8" class="edge"><title>Node7&#45;&gt;Node9</title>
<path fill="none" stroke="midnightblue" d="M1245.97,-161.25C1261.81,-159.559 1277.95,-157.837 1292.36,-156.298"/>
<polygon fill="midnightblue" stroke="midnightblue" points="1245.2,-157.812 1235.63,-162.354 1245.95,-164.773 1245.2,-157.812"/>
</g>
<!-- Node10&#45;&gt;Node6 -->
<g id="edge10" class="edge"><title>Node10&#45;&gt;Node6</title>
<path fill="none" stroke="midnightblue" d="M1082.59,-138.73C1073.15,-138.784 1063.61,-138.73 1054.4,-138.568"/>
<polygon fill="midnightblue" stroke="midnightblue" points="1082.79,-142.228 1092.75,-138.629 1082.72,-135.228 1082.79,-142.228"/>
</g>
<!-- Node11&#45;&gt;Node6 -->
<g id="edge12" class="edge"><title>Node11&#45;&gt;Node6</title>
<path fill="none" stroke="midnightblue" d="M888.45,-121.539C899.657,-122.729 911.056,-123.939 921.933,-125.093"/>
<polygon fill="midnightblue" stroke="midnightblue" points="888.545,-118.03 878.232,-120.455 887.806,-124.991 888.545,-118.03"/>
</g>
</g>
</svg>
