<?xml version="1.0" encoding="UTF-8" standalone="no"?>
<!DOCTYPE svg PUBLIC "-//W3C//DTD SVG 1.1//EN"
 "http://www.w3.org/Graphics/SVG/1.1/DTD/svg11.dtd">
<!-- Generated by graphviz version 2.36.0 (20140111.2315)
 -->
<!-- Title: commands.CommandList.towards Pages: 1 -->
<svg width="1442pt" height="207pt"
 viewBox="0.00 0.00 1442.00 207.00" xmlns="http://www.w3.org/2000/svg" xmlns:xlink="http://www.w3.org/1999/xlink">
<g id="graph0" class="graph" transform="scale(1 1) rotate(0) translate(4 203)">
<title>commands.CommandList.towards</title>
<polygon fill="white" stroke="none" points="-4,4 -4,-203 1438,-203 1438,4 -4,4"/>
<!-- Node1 -->
<g id="node1" class="node"><title>Node1</title>
<polygon fill="#bfbfbf" stroke="black" points="0.5,-78.5 0.5,-97.5 181.5,-97.5 181.5,-78.5 0.5,-78.5"/>
<text text-anchor="middle" x="91" y="-85.5" font-family="Helvetica,sans-Serif" font-size="10.00">commands.CommandList.towards</text>
</g>
<!-- Node2 -->
<g id="node2" class="node"><title>Node2</title>
<g id="a_node2"><a xlink:href="../../d5/dcd/classcompiler_1_1_a_s_t.html#a8f54e642baf772b6269010527c61f7f7" target="_top" xlink:title="compiler.AST.traverse">
<polygon fill="white" stroke="black" points="218,-78.5 218,-97.5 338,-97.5 338,-78.5 218,-78.5"/>
<text text-anchor="middle" x="278" y="-85.5" font-family="Helvetica,sans-Serif" font-size="10.00">compiler.AST.traverse</text>
</a>
</g>
</g>
<!-- Node1&#45;&gt;Node2 -->
<g id="edge1" class="edge"><title>Node1&#45;&gt;Node2</title>
<path fill="none" stroke="midnightblue" d="M191.655,-88C200.615,-88 209.485,-88 217.925,-88"/>
<polygon fill="midnightblue" stroke="midnightblue" points="191.52,-84.5001 181.52,-88 191.519,-91.5001 191.52,-84.5001"/>
</g>
<!-- Node3 -->
<g id="node3" class="node"><title>Node3</title>
<g id="a_node3"><a xlink:href="../../db/d93/classcompiler_1_1_compiler.html#a8a90aa273bacff724a034959914a4c2d" target="_top" xlink:title="compiler.Compiler.compile">
<polygon fill="white" stroke="black" points="374.5,-78.5 374.5,-97.5 517.5,-97.5 517.5,-78.5 374.5,-78.5"/>
<text text-anchor="middle" x="446" y="-85.5" font-family="Helvetica,sans-Serif" font-size="10.00">compiler.Compiler.compile</text>
</a>
</g>
</g>
<!-- Node2&#45;&gt;Node3 -->
<g id="edge2" class="edge"><title>Node2&#45;&gt;Node3</title>
<path fill="none" stroke="midnightblue" d="M348.689,-88C357.172,-88 365.846,-88 374.342,-88"/>
<polygon fill="midnightblue" stroke="midnightblue" points="348.461,-84.5001 338.461,-88 348.461,-91.5001 348.461,-84.5001"/>
</g>
<!-- Node4 -->
<g id="node4" class="node"><title>Node4</title>
<g id="a_node4"><a xlink:href="../../db/d93/classcompiler_1_1_compiler.html#a90d16b98c8e950bbaf772f5b93092a3f" target="_top" xlink:title="compiler.Compiler.main">
<polygon fill="white" stroke="black" points="568.5,-147.5 568.5,-166.5 697.5,-166.5 697.5,-147.5 568.5,-147.5"/>
<text text-anchor="middle" x="633" y="-154.5" font-family="Helvetica,sans-Serif" font-size="10.00">compiler.Compiler.main</text>
</a>
</g>
</g>
<!-- Node3&#45;&gt;Node4 -->
<g id="edge3" class="edge"><title>Node3&#45;&gt;Node4</title>
<path fill="none" stroke="midnightblue" d="M474.232,-102.112C495.53,-112.743 526.107,-127.126 554,-137 565.202,-140.965 577.564,-144.502 589.081,-147.458"/>
<polygon fill="midnightblue" stroke="midnightblue" points="475.647,-98.9049 465.143,-97.5207 472.491,-105.153 475.647,-98.9049"/>
</g>
<!-- Node5 -->
<g id="node5" class="node"><title>Node5</title>
<g id="a_node5"><a xlink:href="../../db/d32/classcontroller_1_1_main_controller.html#a6badeb343877f4b50f069b47afed495c" target="_top" xlink:title="controller.MainController.pass\lInput">
<polygon fill="white" stroke="black" points="554,-98 554,-128 712,-128 712,-98 554,-98"/>
<text text-anchor="start" x="562" y="-116" font-family="Helvetica,sans-Serif" font-size="10.00">controller.MainController.pass</text>
<text text-anchor="middle" x="633" y="-105" font-family="Helvetica,sans-Serif" font-size="10.00">Input</text>
</a>
</g>
</g>
<!-- Node3&#45;&gt;Node5 -->
<g id="edge4" class="edge"><title>Node3&#45;&gt;Node5</title>
<path fill="none" stroke="midnightblue" d="M527.565,-98.8872C536.238,-100.059 545.053,-101.25 553.698,-102.419"/>
<polygon fill="midnightblue" stroke="midnightblue" points="527.847,-95.3935 517.468,-97.5227 526.909,-102.33 527.847,-95.3935"/>
</g>
<!-- Node13 -->
<g id="node13" class="node"><title>Node13</title>
<g id="a_node13"><a xlink:href="../../d8/ded/class_j_unit_test_1_1_compiler_test.html#a4132f77013965dda40f6d62699de349a" target="_top" xlink:title="JUnitTest.CompilerTest.test\lGrammarException">
<polygon fill="white" stroke="black" points="561.5,-49 561.5,-79 704.5,-79 704.5,-49 561.5,-49"/>
<text text-anchor="start" x="569.5" y="-67" font-family="Helvetica,sans-Serif" font-size="10.00">JUnitTest.CompilerTest.test</text>
<text text-anchor="middle" x="633" y="-56" font-family="Helvetica,sans-Serif" font-size="10.00">GrammarException</text>
</a>
</g>
</g>
<!-- Node3&#45;&gt;Node13 -->
<g id="edge14" class="edge"><title>Node3&#45;&gt;Node13</title>
<path fill="none" stroke="midnightblue" d="M527.876,-77.508C539.011,-76.0635 550.374,-74.5893 561.307,-73.171"/>
<polygon fill="midnightblue" stroke="midnightblue" points="527.199,-74.0664 517.732,-78.8239 528.1,-81.0082 527.199,-74.0664"/>
</g>
<!-- Node14 -->
<g id="node14" class="node"><title>Node14</title>
<g id="a_node14"><a xlink:href="../../d8/ded/class_j_unit_test_1_1_compiler_test.html#accbcdde8d934dd7acc552820845d6b0f" target="_top" xlink:title="JUnitTest.CompilerTest.test\lSyntaxException">
<polygon fill="white" stroke="black" points="561.5,-0 561.5,-30 704.5,-30 704.5,-0 561.5,-0"/>
<text text-anchor="start" x="569.5" y="-18" font-family="Helvetica,sans-Serif" font-size="10.00">JUnitTest.CompilerTest.test</text>
<text text-anchor="middle" x="633" y="-7" font-family="Helvetica,sans-Serif" font-size="10.00">SyntaxException</text>
</a>
</g>
</g>
<!-- Node3&#45;&gt;Node14 -->
<g id="edge15" class="edge"><title>Node3&#45;&gt;Node14</title>
<path fill="none" stroke="midnightblue" d="M475.598,-74.1227C496.942,-64.024 526.961,-50.3608 554,-40 563.03,-36.54 572.766,-33.1542 582.196,-30.0473"/>
<polygon fill="midnightblue" stroke="midnightblue" points="473.965,-71.0241 466.444,-78.4871 476.977,-77.3427 473.965,-71.0241"/>
</g>
<!-- Node6 -->
<g id="node6" class="node"><title>Node6</title>
<g id="a_node6"><a xlink:href="../../dd/dea/classgui_1_1_g_u_i_scene.html#a7cb2b00ed820aecde169a5e14cf0d468" target="_top" xlink:title="gui.GUIScene.createGUI">
<polygon fill="white" stroke="black" points="942,-122.5 942,-141.5 1074,-141.5 1074,-122.5 942,-122.5"/>
<text text-anchor="middle" x="1008" y="-129.5" font-family="Helvetica,sans-Serif" font-size="10.00">gui.GUIScene.createGUI</text>
</a>
</g>
</g>
<!-- Node5&#45;&gt;Node6 -->
<g id="edge5" class="edge"><title>Node5&#45;&gt;Node6</title>
<path fill="none" stroke="midnightblue" d="M722.389,-129.202C731.02,-130.341 739.664,-131.31 748,-132 813.874,-137.452 889.495,-136.643 941.949,-134.965"/>
<polygon fill="midnightblue" stroke="midnightblue" points="722.67,-125.707 712.283,-127.793 721.704,-132.64 722.67,-125.707"/>
</g>
<!-- Node11 -->
<g id="node11" class="node"><title>Node11</title>
<g id="a_node11"><a xlink:href="../../dd/dea/classgui_1_1_g_u_i_scene.html#a47e424a495817f5806f45064f77a632b" target="_top" xlink:title="gui.GUIScene.getRightBox">
<polygon fill="white" stroke="black" points="756,-103.5 756,-122.5 898,-122.5 898,-103.5 756,-103.5"/>
<text text-anchor="middle" x="827" y="-110.5" font-family="Helvetica,sans-Serif" font-size="10.00">gui.GUIScene.getRightBox</text>
</a>
</g>
</g>
<!-- Node5&#45;&gt;Node11 -->
<g id="edge11" class="edge"><title>Node5&#45;&gt;Node11</title>
<path fill="none" stroke="midnightblue" d="M722.315,-113C733.507,-113 744.84,-113 755.699,-113"/>
<polygon fill="midnightblue" stroke="midnightblue" points="722.094,-109.5 712.094,-113 722.094,-116.5 722.094,-109.5"/>
</g>
<!-- Node12 -->
<g id="node12" class="node"><title>Node12</title>
<g id="a_node12"><a xlink:href="../../d6/d6a/class_j_unit_test_1_1_backend_a_p_i_test.html#a86dd50c40468e1647c7c01614dc7d30d" target="_top" xlink:title="JUnitTest.BackendAPITest.test">
<polygon fill="white" stroke="black" points="748.5,-65.5 748.5,-84.5 905.5,-84.5 905.5,-65.5 748.5,-65.5"/>
<text text-anchor="middle" x="827" y="-72.5" font-family="Helvetica,sans-Serif" font-size="10.00">JUnitTest.BackendAPITest.test</text>
</a>
</g>
</g>
<!-- Node5&#45;&gt;Node12 -->
<g id="edge13" class="edge"><title>Node5&#45;&gt;Node12</title>
<path fill="none" stroke="midnightblue" d="M719.921,-95.9949C739.856,-92.0493 760.377,-87.9878 777.995,-84.5009"/>
<polygon fill="midnightblue" stroke="midnightblue" points="719.014,-92.6064 709.883,-97.9814 720.373,-99.4732 719.014,-92.6064"/>
</g>
<!-- Node7 -->
<g id="node7" class="node"><title>Node7</title>
<g id="a_node7"><a xlink:href="../../dd/dea/classgui_1_1_g_u_i_scene.html#a74967ac937baee81b9eec1b2bc38167c" target="_top" xlink:title="gui.GUIScene.createScene">
<polygon fill="white" stroke="black" points="1110.5,-160.5 1110.5,-179.5 1255.5,-179.5 1255.5,-160.5 1110.5,-160.5"/>
<text text-anchor="middle" x="1183" y="-167.5" font-family="Helvetica,sans-Serif" font-size="10.00">gui.GUIScene.createScene</text>
</a>
</g>
</g>
<!-- Node6&#45;&gt;Node7 -->
<g id="edge6" class="edge"><title>Node6&#45;&gt;Node7</title>
<path fill="none" stroke="midnightblue" d="M1062.51,-143.753C1086.97,-149.126 1115.57,-155.409 1138.66,-160.48"/>
<polygon fill="midnightblue" stroke="midnightblue" points="1063.17,-140.316 1052.66,-141.589 1061.67,-147.153 1063.17,-140.316"/>
</g>
<!-- Node10 -->
<g id="node10" class="node"><title>Node10</title>
<g id="a_node10"><a xlink:href="../../dd/dea/classgui_1_1_g_u_i_scene.html#a16324ddc026310495f84e77bbb311b2c" target="_top" xlink:title="gui.GUIScene.addButtons">
<polygon fill="white" stroke="black" points="1113,-122.5 1113,-141.5 1253,-141.5 1253,-122.5 1113,-122.5"/>
<text text-anchor="middle" x="1183" y="-129.5" font-family="Helvetica,sans-Serif" font-size="10.00">gui.GUIScene.addButtons</text>
</a>
</g>
</g>
<!-- Node6&#45;&gt;Node10 -->
<g id="edge9" class="edge"><title>Node6&#45;&gt;Node10</title>
<path fill="none" stroke="midnightblue" d="M1084.5,-125.299C1093.9,-125.215 1103.46,-125.239 1112.75,-125.371"/>
<polygon fill="midnightblue" stroke="midnightblue" points="1084.36,-121.8 1074.4,-125.432 1084.45,-128.8 1084.36,-121.8"/>
</g>
<!-- Node8 -->
<g id="node8" class="node"><title>Node8</title>
<g id="a_node8"><a xlink:href="../../d6/d0e/classcontroller_1_1_s_logo_main.html#ab5379c32fef791f21ad51abde7d268c0" target="_top" xlink:title="controller.SLogoMain.start">
<polygon fill="white" stroke="black" points="1292,-179.5 1292,-198.5 1434,-198.5 1434,-179.5 1292,-179.5"/>
<text text-anchor="middle" x="1363" y="-186.5" font-family="Helvetica,sans-Serif" font-size="10.00">controller.SLogoMain.start</text>
</a>
</g>
</g>
<!-- Node7&#45;&gt;Node8 -->
<g id="edge7" class="edge"><title>Node7&#45;&gt;Node8</title>
<path fill="none" stroke="midnightblue" d="M1265.82,-178.734C1274.56,-179.666 1283.38,-180.608 1291.96,-181.524"/>
<polygon fill="midnightblue" stroke="midnightblue" points="1265.95,-175.227 1255.63,-177.646 1265.2,-182.188 1265.95,-175.227"/>
</g>
<!-- Node9 -->
<g id="node9" class="node"><title>Node9</title>
<g id="a_node9"><a xlink:href="../../dd/d48/classgui_1_1_g_u_i_start.html#a82d08814fef5331d82c4763a2426ffce" target="_top" xlink:title="gui.GUIStart.start">
<polygon fill="white" stroke="black" points="1312.5,-141.5 1312.5,-160.5 1413.5,-160.5 1413.5,-141.5 1312.5,-141.5"/>
<text text-anchor="middle" x="1363" y="-148.5" font-family="Helvetica,sans-Serif" font-size="10.00">gui.GUIStart.start</text>
</a>
</g>
</g>
<!-- Node7&#45;&gt;Node9 -->
<g id="edge8" class="edge"><title>Node7&#45;&gt;Node9</title>
<path fill="none" stroke="midnightblue" d="M1265.97,-161.25C1281.81,-159.559 1297.95,-157.837 1312.36,-156.298"/>
<polygon fill="midnightblue" stroke="midnightblue" points="1265.2,-157.812 1255.63,-162.354 1265.95,-164.773 1265.2,-157.812"/>
</g>
<!-- Node10&#45;&gt;Node6 -->
<g id="edge10" class="edge"><title>Node10&#45;&gt;Node6</title>
<path fill="none" stroke="midnightblue" d="M1102.59,-138.73C1093.15,-138.784 1083.61,-138.73 1074.4,-138.568"/>
<polygon fill="midnightblue" stroke="midnightblue" points="1102.79,-142.228 1112.75,-138.629 1102.72,-135.228 1102.79,-142.228"/>
</g>
<!-- Node11&#45;&gt;Node6 -->
<g id="edge12" class="edge"><title>Node11&#45;&gt;Node6</title>
<path fill="none" stroke="midnightblue" d="M908.45,-121.539C919.657,-122.729 931.056,-123.939 941.933,-125.093"/>
<polygon fill="midnightblue" stroke="midnightblue" points="908.545,-118.03 898.232,-120.455 907.806,-124.991 908.545,-118.03"/>
</g>
</g>
</svg>
