<?xml version="1.0" encoding="UTF-8" standalone="no"?>
<!DOCTYPE svg PUBLIC "-//W3C//DTD SVG 1.1//EN"
 "http://www.w3.org/Graphics/SVG/1.1/DTD/svg11.dtd">
<!-- Generated by graphviz version 2.36.0 (20140111.2315)
 -->
<!-- Title: commands.CommandList.xCor Pages: 1 -->
<svg width="1426pt" height="207pt"
 viewBox="0.00 0.00 1426.00 207.00" xmlns="http://www.w3.org/2000/svg" xmlns:xlink="http://www.w3.org/1999/xlink">
<g id="graph0" class="graph" transform="scale(1 1) rotate(0) translate(4 203)">
<title>commands.CommandList.xCor</title>
<polygon fill="white" stroke="none" points="-4,4 -4,-203 1422,-203 1422,4 -4,4"/>
<!-- Node1 -->
<g id="node1" class="node"><title>Node1</title>
<polygon fill="#bfbfbf" stroke="black" points="0.5,-78.5 0.5,-97.5 165.5,-97.5 165.5,-78.5 0.5,-78.5"/>
<text text-anchor="middle" x="83" y="-85.5" font-family="Helvetica,sans-Serif" font-size="10.00">commands.CommandList.xCor</text>
</g>
<!-- Node2 -->
<g id="node2" class="node"><title>Node2</title>
<g id="a_node2"><a xlink:href="../../d5/dcd/classcompiler_1_1_a_s_t.html#a8f54e642baf772b6269010527c61f7f7" target="_top" xlink:title="compiler.AST.traverse">
<polygon fill="white" stroke="black" points="202,-78.5 202,-97.5 322,-97.5 322,-78.5 202,-78.5"/>
<text text-anchor="middle" x="262" y="-85.5" font-family="Helvetica,sans-Serif" font-size="10.00">compiler.AST.traverse</text>
</a>
</g>
</g>
<!-- Node1&#45;&gt;Node2 -->
<g id="edge1" class="edge"><title>Node1&#45;&gt;Node2</title>
<path fill="none" stroke="midnightblue" d="M175.575,-88C184.494,-88 193.372,-88 201.845,-88"/>
<polygon fill="midnightblue" stroke="midnightblue" points="175.506,-84.5001 165.506,-88 175.506,-91.5001 175.506,-84.5001"/>
</g>
<!-- Node3 -->
<g id="node3" class="node"><title>Node3</title>
<g id="a_node3"><a xlink:href="../../db/d93/classcompiler_1_1_compiler.html#a8a90aa273bacff724a034959914a4c2d" target="_top" xlink:title="compiler.Compiler.compile">
<polygon fill="white" stroke="black" points="358.5,-78.5 358.5,-97.5 501.5,-97.5 501.5,-78.5 358.5,-78.5"/>
<text text-anchor="middle" x="430" y="-85.5" font-family="Helvetica,sans-Serif" font-size="10.00">compiler.Compiler.compile</text>
</a>
</g>
</g>
<!-- Node2&#45;&gt;Node3 -->
<g id="edge2" class="edge"><title>Node2&#45;&gt;Node3</title>
<path fill="none" stroke="midnightblue" d="M332.689,-88C341.172,-88 349.846,-88 358.342,-88"/>
<polygon fill="midnightblue" stroke="midnightblue" points="332.461,-84.5001 322.461,-88 332.461,-91.5001 332.461,-84.5001"/>
</g>
<!-- Node4 -->
<g id="node4" class="node"><title>Node4</title>
<g id="a_node4"><a xlink:href="../../db/d93/classcompiler_1_1_compiler.html#a90d16b98c8e950bbaf772f5b93092a3f" target="_top" xlink:title="compiler.Compiler.main">
<polygon fill="white" stroke="black" points="552.5,-147.5 552.5,-166.5 681.5,-166.5 681.5,-147.5 552.5,-147.5"/>
<text text-anchor="middle" x="617" y="-154.5" font-family="Helvetica,sans-Serif" font-size="10.00">compiler.Compiler.main</text>
</a>
</g>
</g>
<!-- Node3&#45;&gt;Node4 -->
<g id="edge3" class="edge"><title>Node3&#45;&gt;Node4</title>
<path fill="none" stroke="midnightblue" d="M458.232,-102.112C479.53,-112.743 510.107,-127.126 538,-137 549.202,-140.965 561.564,-144.502 573.081,-147.458"/>
<polygon fill="midnightblue" stroke="midnightblue" points="459.647,-98.9049 449.143,-97.5207 456.491,-105.153 459.647,-98.9049"/>
</g>
<!-- Node5 -->
<g id="node5" class="node"><title>Node5</title>
<g id="a_node5"><a xlink:href="../../db/d32/classcontroller_1_1_main_controller.html#a6badeb343877f4b50f069b47afed495c" target="_top" xlink:title="controller.MainController.pass\lInput">
<polygon fill="white" stroke="black" points="538,-98 538,-128 696,-128 696,-98 538,-98"/>
<text text-anchor="start" x="546" y="-116" font-family="Helvetica,sans-Serif" font-size="10.00">controller.MainController.pass</text>
<text text-anchor="middle" x="617" y="-105" font-family="Helvetica,sans-Serif" font-size="10.00">Input</text>
</a>
</g>
</g>
<!-- Node3&#45;&gt;Node5 -->
<g id="edge4" class="edge"><title>Node3&#45;&gt;Node5</title>
<path fill="none" stroke="midnightblue" d="M511.565,-98.8872C520.238,-100.059 529.053,-101.25 537.698,-102.419"/>
<polygon fill="midnightblue" stroke="midnightblue" points="511.847,-95.3935 501.468,-97.5227 510.909,-102.33 511.847,-95.3935"/>
</g>
<!-- Node13 -->
<g id="node13" class="node"><title>Node13</title>
<g id="a_node13"><a xlink:href="../../d8/ded/class_j_unit_test_1_1_compiler_test.html#a4132f77013965dda40f6d62699de349a" target="_top" xlink:title="JUnitTest.CompilerTest.test\lGrammarException">
<polygon fill="white" stroke="black" points="545.5,-49 545.5,-79 688.5,-79 688.5,-49 545.5,-49"/>
<text text-anchor="start" x="553.5" y="-67" font-family="Helvetica,sans-Serif" font-size="10.00">JUnitTest.CompilerTest.test</text>
<text text-anchor="middle" x="617" y="-56" font-family="Helvetica,sans-Serif" font-size="10.00">GrammarException</text>
</a>
</g>
</g>
<!-- Node3&#45;&gt;Node13 -->
<g id="edge14" class="edge"><title>Node3&#45;&gt;Node13</title>
<path fill="none" stroke="midnightblue" d="M511.876,-77.508C523.011,-76.0635 534.374,-74.5893 545.307,-73.171"/>
<polygon fill="midnightblue" stroke="midnightblue" points="511.199,-74.0664 501.732,-78.8239 512.1,-81.0082 511.199,-74.0664"/>
</g>
<!-- Node14 -->
<g id="node14" class="node"><title>Node14</title>
<g id="a_node14"><a xlink:href="../../d8/ded/class_j_unit_test_1_1_compiler_test.html#accbcdde8d934dd7acc552820845d6b0f" target="_top" xlink:title="JUnitTest.CompilerTest.test\lSyntaxException">
<polygon fill="white" stroke="black" points="545.5,-0 545.5,-30 688.5,-30 688.5,-0 545.5,-0"/>
<text text-anchor="start" x="553.5" y="-18" font-family="Helvetica,sans-Serif" font-size="10.00">JUnitTest.CompilerTest.test</text>
<text text-anchor="middle" x="617" y="-7" font-family="Helvetica,sans-Serif" font-size="10.00">SyntaxException</text>
</a>
</g>
</g>
<!-- Node3&#45;&gt;Node14 -->
<g id="edge15" class="edge"><title>Node3&#45;&gt;Node14</title>
<path fill="none" stroke="midnightblue" d="M459.598,-74.1227C480.942,-64.024 510.961,-50.3608 538,-40 547.03,-36.54 556.766,-33.1542 566.196,-30.0473"/>
<polygon fill="midnightblue" stroke="midnightblue" points="457.965,-71.0241 450.444,-78.4871 460.977,-77.3427 457.965,-71.0241"/>
</g>
<!-- Node6 -->
<g id="node6" class="node"><title>Node6</title>
<g id="a_node6"><a xlink:href="../../dd/dea/classgui_1_1_g_u_i_scene.html#a7cb2b00ed820aecde169a5e14cf0d468" target="_top" xlink:title="gui.GUIScene.createGUI">
<polygon fill="white" stroke="black" points="926,-122.5 926,-141.5 1058,-141.5 1058,-122.5 926,-122.5"/>
<text text-anchor="middle" x="992" y="-129.5" font-family="Helvetica,sans-Serif" font-size="10.00">gui.GUIScene.createGUI</text>
</a>
</g>
</g>
<!-- Node5&#45;&gt;Node6 -->
<g id="edge5" class="edge"><title>Node5&#45;&gt;Node6</title>
<path fill="none" stroke="midnightblue" d="M706.389,-129.202C715.02,-130.341 723.664,-131.31 732,-132 797.874,-137.452 873.495,-136.643 925.949,-134.965"/>
<polygon fill="midnightblue" stroke="midnightblue" points="706.67,-125.707 696.283,-127.793 705.704,-132.64 706.67,-125.707"/>
</g>
<!-- Node11 -->
<g id="node11" class="node"><title>Node11</title>
<g id="a_node11"><a xlink:href="../../dd/dea/classgui_1_1_g_u_i_scene.html#a47e424a495817f5806f45064f77a632b" target="_top" xlink:title="gui.GUIScene.getRightBox">
<polygon fill="white" stroke="black" points="740,-103.5 740,-122.5 882,-122.5 882,-103.5 740,-103.5"/>
<text text-anchor="middle" x="811" y="-110.5" font-family="Helvetica,sans-Serif" font-size="10.00">gui.GUIScene.getRightBox</text>
</a>
</g>
</g>
<!-- Node5&#45;&gt;Node11 -->
<g id="edge11" class="edge"><title>Node5&#45;&gt;Node11</title>
<path fill="none" stroke="midnightblue" d="M706.315,-113C717.507,-113 728.84,-113 739.699,-113"/>
<polygon fill="midnightblue" stroke="midnightblue" points="706.094,-109.5 696.094,-113 706.094,-116.5 706.094,-109.5"/>
</g>
<!-- Node12 -->
<g id="node12" class="node"><title>Node12</title>
<g id="a_node12"><a xlink:href="../../d6/d6a/class_j_unit_test_1_1_backend_a_p_i_test.html#a86dd50c40468e1647c7c01614dc7d30d" target="_top" xlink:title="JUnitTest.BackendAPITest.test">
<polygon fill="white" stroke="black" points="732.5,-65.5 732.5,-84.5 889.5,-84.5 889.5,-65.5 732.5,-65.5"/>
<text text-anchor="middle" x="811" y="-72.5" font-family="Helvetica,sans-Serif" font-size="10.00">JUnitTest.BackendAPITest.test</text>
</a>
</g>
</g>
<!-- Node5&#45;&gt;Node12 -->
<g id="edge13" class="edge"><title>Node5&#45;&gt;Node12</title>
<path fill="none" stroke="midnightblue" d="M703.921,-95.9949C723.856,-92.0493 744.377,-87.9878 761.995,-84.5009"/>
<polygon fill="midnightblue" stroke="midnightblue" points="703.014,-92.6064 693.883,-97.9814 704.373,-99.4732 703.014,-92.6064"/>
</g>
<!-- Node7 -->
<g id="node7" class="node"><title>Node7</title>
<g id="a_node7"><a xlink:href="../../dd/dea/classgui_1_1_g_u_i_scene.html#a74967ac937baee81b9eec1b2bc38167c" target="_top" xlink:title="gui.GUIScene.createScene">
<polygon fill="white" stroke="black" points="1094.5,-160.5 1094.5,-179.5 1239.5,-179.5 1239.5,-160.5 1094.5,-160.5"/>
<text text-anchor="middle" x="1167" y="-167.5" font-family="Helvetica,sans-Serif" font-size="10.00">gui.GUIScene.createScene</text>
</a>
</g>
</g>
<!-- Node6&#45;&gt;Node7 -->
<g id="edge6" class="edge"><title>Node6&#45;&gt;Node7</title>
<path fill="none" stroke="midnightblue" d="M1046.51,-143.753C1070.97,-149.126 1099.57,-155.409 1122.66,-160.48"/>
<polygon fill="midnightblue" stroke="midnightblue" points="1047.17,-140.316 1036.66,-141.589 1045.67,-147.153 1047.17,-140.316"/>
</g>
<!-- Node10 -->
<g id="node10" class="node"><title>Node10</title>
<g id="a_node10"><a xlink:href="../../dd/dea/classgui_1_1_g_u_i_scene.html#a16324ddc026310495f84e77bbb311b2c" target="_top" xlink:title="gui.GUIScene.addButtons">
<polygon fill="white" stroke="black" points="1097,-122.5 1097,-141.5 1237,-141.5 1237,-122.5 1097,-122.5"/>
<text text-anchor="middle" x="1167" y="-129.5" font-family="Helvetica,sans-Serif" font-size="10.00">gui.GUIScene.addButtons</text>
</a>
</g>
</g>
<!-- Node6&#45;&gt;Node10 -->
<g id="edge9" class="edge"><title>Node6&#45;&gt;Node10</title>
<path fill="none" stroke="midnightblue" d="M1068.5,-125.299C1077.9,-125.215 1087.46,-125.239 1096.75,-125.371"/>
<polygon fill="midnightblue" stroke="midnightblue" points="1068.36,-121.8 1058.4,-125.432 1068.45,-128.8 1068.36,-121.8"/>
</g>
<!-- Node8 -->
<g id="node8" class="node"><title>Node8</title>
<g id="a_node8"><a xlink:href="../../d6/d0e/classcontroller_1_1_s_logo_main.html#ab5379c32fef791f21ad51abde7d268c0" target="_top" xlink:title="controller.SLogoMain.start">
<polygon fill="white" stroke="black" points="1276,-179.5 1276,-198.5 1418,-198.5 1418,-179.5 1276,-179.5"/>
<text text-anchor="middle" x="1347" y="-186.5" font-family="Helvetica,sans-Serif" font-size="10.00">controller.SLogoMain.start</text>
</a>
</g>
</g>
<!-- Node7&#45;&gt;Node8 -->
<g id="edge7" class="edge"><title>Node7&#45;&gt;Node8</title>
<path fill="none" stroke="midnightblue" d="M1249.82,-178.734C1258.56,-179.666 1267.38,-180.608 1275.96,-181.524"/>
<polygon fill="midnightblue" stroke="midnightblue" points="1249.95,-175.227 1239.63,-177.646 1249.2,-182.188 1249.95,-175.227"/>
</g>
<!-- Node9 -->
<g id="node9" class="node"><title>Node9</title>
<g id="a_node9"><a xlink:href="../../dd/d48/classgui_1_1_g_u_i_start.html#a82d08814fef5331d82c4763a2426ffce" target="_top" xlink:title="gui.GUIStart.start">
<polygon fill="white" stroke="black" points="1296.5,-141.5 1296.5,-160.5 1397.5,-160.5 1397.5,-141.5 1296.5,-141.5"/>
<text text-anchor="middle" x="1347" y="-148.5" font-family="Helvetica,sans-Serif" font-size="10.00">gui.GUIStart.start</text>
</a>
</g>
</g>
<!-- Node7&#45;&gt;Node9 -->
<g id="edge8" class="edge"><title>Node7&#45;&gt;Node9</title>
<path fill="none" stroke="midnightblue" d="M1249.97,-161.25C1265.81,-159.559 1281.95,-157.837 1296.36,-156.298"/>
<polygon fill="midnightblue" stroke="midnightblue" points="1249.2,-157.812 1239.63,-162.354 1249.95,-164.773 1249.2,-157.812"/>
</g>
<!-- Node10&#45;&gt;Node6 -->
<g id="edge10" class="edge"><title>Node10&#45;&gt;Node6</title>
<path fill="none" stroke="midnightblue" d="M1086.59,-138.73C1077.15,-138.784 1067.61,-138.73 1058.4,-138.568"/>
<polygon fill="midnightblue" stroke="midnightblue" points="1086.79,-142.228 1096.75,-138.629 1086.72,-135.228 1086.79,-142.228"/>
</g>
<!-- Node11&#45;&gt;Node6 -->
<g id="edge12" class="edge"><title>Node11&#45;&gt;Node6</title>
<path fill="none" stroke="midnightblue" d="M892.45,-121.539C903.657,-122.729 915.056,-123.939 925.933,-125.093"/>
<polygon fill="midnightblue" stroke="midnightblue" points="892.545,-118.03 882.232,-120.455 891.806,-124.991 892.545,-118.03"/>
</g>
</g>
</svg>
