<?xml version="1.0" encoding="UTF-8" standalone="no"?>
<!DOCTYPE svg PUBLIC "-//W3C//DTD SVG 1.1//EN"
 "http://www.w3.org/Graphics/SVG/1.1/DTD/svg11.dtd">
<!-- Generated by graphviz version 2.36.0 (20140111.2315)
 -->
<!-- Title: commands.CommandList.showTurtle Pages: 1 -->
<svg width="1428pt" height="207pt"
 viewBox="0.00 0.00 1428.00 207.00" xmlns="http://www.w3.org/2000/svg" xmlns:xlink="http://www.w3.org/1999/xlink">
<g id="graph0" class="graph" transform="scale(1 1) rotate(0) translate(4 203)">
<title>commands.CommandList.showTurtle</title>
<polygon fill="white" stroke="none" points="-4,4 -4,-203 1424,-203 1424,4 -4,4"/>
<!-- Node1 -->
<g id="node1" class="node"><title>Node1</title>
<polygon fill="#bfbfbf" stroke="black" points="0.5,-73 0.5,-103 167.5,-103 167.5,-73 0.5,-73"/>
<text text-anchor="start" x="8.5" y="-91" font-family="Helvetica,sans-Serif" font-size="10.00">commands.CommandList.show</text>
<text text-anchor="middle" x="84" y="-80" font-family="Helvetica,sans-Serif" font-size="10.00">Turtle</text>
</g>
<!-- Node2 -->
<g id="node2" class="node"><title>Node2</title>
<g id="a_node2"><a xlink:href="../../d5/dcd/classcompiler_1_1_a_s_t.html#a8f54e642baf772b6269010527c61f7f7" target="_top" xlink:title="compiler.AST.traverse">
<polygon fill="white" stroke="black" points="204,-78.5 204,-97.5 324,-97.5 324,-78.5 204,-78.5"/>
<text text-anchor="middle" x="264" y="-85.5" font-family="Helvetica,sans-Serif" font-size="10.00">compiler.AST.traverse</text>
</a>
</g>
</g>
<!-- Node1&#45;&gt;Node2 -->
<g id="edge1" class="edge"><title>Node1&#45;&gt;Node2</title>
<path fill="none" stroke="midnightblue" d="M178.028,-88C186.784,-88 195.487,-88 203.798,-88"/>
<polygon fill="midnightblue" stroke="midnightblue" points="177.747,-84.5001 167.747,-88 177.747,-91.5001 177.747,-84.5001"/>
</g>
<!-- Node3 -->
<g id="node3" class="node"><title>Node3</title>
<g id="a_node3"><a xlink:href="../../db/d93/classcompiler_1_1_compiler.html#a8a90aa273bacff724a034959914a4c2d" target="_top" xlink:title="compiler.Compiler.compile">
<polygon fill="white" stroke="black" points="360.5,-78.5 360.5,-97.5 503.5,-97.5 503.5,-78.5 360.5,-78.5"/>
<text text-anchor="middle" x="432" y="-85.5" font-family="Helvetica,sans-Serif" font-size="10.00">compiler.Compiler.compile</text>
</a>
</g>
</g>
<!-- Node2&#45;&gt;Node3 -->
<g id="edge2" class="edge"><title>Node2&#45;&gt;Node3</title>
<path fill="none" stroke="midnightblue" d="M334.689,-88C343.172,-88 351.846,-88 360.342,-88"/>
<polygon fill="midnightblue" stroke="midnightblue" points="334.461,-84.5001 324.461,-88 334.461,-91.5001 334.461,-84.5001"/>
</g>
<!-- Node4 -->
<g id="node4" class="node"><title>Node4</title>
<g id="a_node4"><a xlink:href="../../db/d93/classcompiler_1_1_compiler.html#a90d16b98c8e950bbaf772f5b93092a3f" target="_top" xlink:title="compiler.Compiler.main">
<polygon fill="white" stroke="black" points="554.5,-147.5 554.5,-166.5 683.5,-166.5 683.5,-147.5 554.5,-147.5"/>
<text text-anchor="middle" x="619" y="-154.5" font-family="Helvetica,sans-Serif" font-size="10.00">compiler.Compiler.main</text>
</a>
</g>
</g>
<!-- Node3&#45;&gt;Node4 -->
<g id="edge3" class="edge"><title>Node3&#45;&gt;Node4</title>
<path fill="none" stroke="midnightblue" d="M460.232,-102.112C481.53,-112.743 512.107,-127.126 540,-137 551.202,-140.965 563.564,-144.502 575.081,-147.458"/>
<polygon fill="midnightblue" stroke="midnightblue" points="461.647,-98.9049 451.143,-97.5207 458.491,-105.153 461.647,-98.9049"/>
</g>
<!-- Node5 -->
<g id="node5" class="node"><title>Node5</title>
<g id="a_node5"><a xlink:href="../../db/d32/classcontroller_1_1_main_controller.html#a6badeb343877f4b50f069b47afed495c" target="_top" xlink:title="controller.MainController.pass\lInput">
<polygon fill="white" stroke="black" points="540,-98 540,-128 698,-128 698,-98 540,-98"/>
<text text-anchor="start" x="548" y="-116" font-family="Helvetica,sans-Serif" font-size="10.00">controller.MainController.pass</text>
<text text-anchor="middle" x="619" y="-105" font-family="Helvetica,sans-Serif" font-size="10.00">Input</text>
</a>
</g>
</g>
<!-- Node3&#45;&gt;Node5 -->
<g id="edge4" class="edge"><title>Node3&#45;&gt;Node5</title>
<path fill="none" stroke="midnightblue" d="M513.565,-98.8872C522.238,-100.059 531.053,-101.25 539.698,-102.419"/>
<polygon fill="midnightblue" stroke="midnightblue" points="513.847,-95.3935 503.468,-97.5227 512.909,-102.33 513.847,-95.3935"/>
</g>
<!-- Node13 -->
<g id="node13" class="node"><title>Node13</title>
<g id="a_node13"><a xlink:href="../../d8/ded/class_j_unit_test_1_1_compiler_test.html#a4132f77013965dda40f6d62699de349a" target="_top" xlink:title="JUnitTest.CompilerTest.test\lGrammarException">
<polygon fill="white" stroke="black" points="547.5,-49 547.5,-79 690.5,-79 690.5,-49 547.5,-49"/>
<text text-anchor="start" x="555.5" y="-67" font-family="Helvetica,sans-Serif" font-size="10.00">JUnitTest.CompilerTest.test</text>
<text text-anchor="middle" x="619" y="-56" font-family="Helvetica,sans-Serif" font-size="10.00">GrammarException</text>
</a>
</g>
</g>
<!-- Node3&#45;&gt;Node13 -->
<g id="edge14" class="edge"><title>Node3&#45;&gt;Node13</title>
<path fill="none" stroke="midnightblue" d="M513.876,-77.508C525.011,-76.0635 536.374,-74.5893 547.307,-73.171"/>
<polygon fill="midnightblue" stroke="midnightblue" points="513.199,-74.0664 503.732,-78.8239 514.1,-81.0082 513.199,-74.0664"/>
</g>
<!-- Node14 -->
<g id="node14" class="node"><title>Node14</title>
<g id="a_node14"><a xlink:href="../../d8/ded/class_j_unit_test_1_1_compiler_test.html#accbcdde8d934dd7acc552820845d6b0f" target="_top" xlink:title="JUnitTest.CompilerTest.test\lSyntaxException">
<polygon fill="white" stroke="black" points="547.5,-0 547.5,-30 690.5,-30 690.5,-0 547.5,-0"/>
<text text-anchor="start" x="555.5" y="-18" font-family="Helvetica,sans-Serif" font-size="10.00">JUnitTest.CompilerTest.test</text>
<text text-anchor="middle" x="619" y="-7" font-family="Helvetica,sans-Serif" font-size="10.00">SyntaxException</text>
</a>
</g>
</g>
<!-- Node3&#45;&gt;Node14 -->
<g id="edge15" class="edge"><title>Node3&#45;&gt;Node14</title>
<path fill="none" stroke="midnightblue" d="M461.598,-74.1227C482.942,-64.024 512.961,-50.3608 540,-40 549.03,-36.54 558.766,-33.1542 568.196,-30.0473"/>
<polygon fill="midnightblue" stroke="midnightblue" points="459.965,-71.0241 452.444,-78.4871 462.977,-77.3427 459.965,-71.0241"/>
</g>
<!-- Node6 -->
<g id="node6" class="node"><title>Node6</title>
<g id="a_node6"><a xlink:href="../../dd/dea/classgui_1_1_g_u_i_scene.html#a7cb2b00ed820aecde169a5e14cf0d468" target="_top" xlink:title="gui.GUIScene.createGUI">
<polygon fill="white" stroke="black" points="928,-122.5 928,-141.5 1060,-141.5 1060,-122.5 928,-122.5"/>
<text text-anchor="middle" x="994" y="-129.5" font-family="Helvetica,sans-Serif" font-size="10.00">gui.GUIScene.createGUI</text>
</a>
</g>
</g>
<!-- Node5&#45;&gt;Node6 -->
<g id="edge5" class="edge"><title>Node5&#45;&gt;Node6</title>
<path fill="none" stroke="midnightblue" d="M708.389,-129.202C717.02,-130.341 725.664,-131.31 734,-132 799.874,-137.452 875.495,-136.643 927.949,-134.965"/>
<polygon fill="midnightblue" stroke="midnightblue" points="708.67,-125.707 698.283,-127.793 707.704,-132.64 708.67,-125.707"/>
</g>
<!-- Node11 -->
<g id="node11" class="node"><title>Node11</title>
<g id="a_node11"><a xlink:href="../../dd/dea/classgui_1_1_g_u_i_scene.html#a47e424a495817f5806f45064f77a632b" target="_top" xlink:title="gui.GUIScene.getRightBox">
<polygon fill="white" stroke="black" points="742,-103.5 742,-122.5 884,-122.5 884,-103.5 742,-103.5"/>
<text text-anchor="middle" x="813" y="-110.5" font-family="Helvetica,sans-Serif" font-size="10.00">gui.GUIScene.getRightBox</text>
</a>
</g>
</g>
<!-- Node5&#45;&gt;Node11 -->
<g id="edge11" class="edge"><title>Node5&#45;&gt;Node11</title>
<path fill="none" stroke="midnightblue" d="M708.315,-113C719.507,-113 730.84,-113 741.699,-113"/>
<polygon fill="midnightblue" stroke="midnightblue" points="708.094,-109.5 698.094,-113 708.094,-116.5 708.094,-109.5"/>
</g>
<!-- Node12 -->
<g id="node12" class="node"><title>Node12</title>
<g id="a_node12"><a xlink:href="../../d6/d6a/class_j_unit_test_1_1_backend_a_p_i_test.html#a86dd50c40468e1647c7c01614dc7d30d" target="_top" xlink:title="JUnitTest.BackendAPITest.test">
<polygon fill="white" stroke="black" points="734.5,-65.5 734.5,-84.5 891.5,-84.5 891.5,-65.5 734.5,-65.5"/>
<text text-anchor="middle" x="813" y="-72.5" font-family="Helvetica,sans-Serif" font-size="10.00">JUnitTest.BackendAPITest.test</text>
</a>
</g>
</g>
<!-- Node5&#45;&gt;Node12 -->
<g id="edge13" class="edge"><title>Node5&#45;&gt;Node12</title>
<path fill="none" stroke="midnightblue" d="M705.921,-95.9949C725.856,-92.0493 746.377,-87.9878 763.995,-84.5009"/>
<polygon fill="midnightblue" stroke="midnightblue" points="705.014,-92.6064 695.883,-97.9814 706.373,-99.4732 705.014,-92.6064"/>
</g>
<!-- Node7 -->
<g id="node7" class="node"><title>Node7</title>
<g id="a_node7"><a xlink:href="../../dd/dea/classgui_1_1_g_u_i_scene.html#a74967ac937baee81b9eec1b2bc38167c" target="_top" xlink:title="gui.GUIScene.createScene">
<polygon fill="white" stroke="black" points="1096.5,-160.5 1096.5,-179.5 1241.5,-179.5 1241.5,-160.5 1096.5,-160.5"/>
<text text-anchor="middle" x="1169" y="-167.5" font-family="Helvetica,sans-Serif" font-size="10.00">gui.GUIScene.createScene</text>
</a>
</g>
</g>
<!-- Node6&#45;&gt;Node7 -->
<g id="edge6" class="edge"><title>Node6&#45;&gt;Node7</title>
<path fill="none" stroke="midnightblue" d="M1048.51,-143.753C1072.97,-149.126 1101.57,-155.409 1124.66,-160.48"/>
<polygon fill="midnightblue" stroke="midnightblue" points="1049.17,-140.316 1038.66,-141.589 1047.67,-147.153 1049.17,-140.316"/>
</g>
<!-- Node10 -->
<g id="node10" class="node"><title>Node10</title>
<g id="a_node10"><a xlink:href="../../dd/dea/classgui_1_1_g_u_i_scene.html#a16324ddc026310495f84e77bbb311b2c" target="_top" xlink:title="gui.GUIScene.addButtons">
<polygon fill="white" stroke="black" points="1099,-122.5 1099,-141.5 1239,-141.5 1239,-122.5 1099,-122.5"/>
<text text-anchor="middle" x="1169" y="-129.5" font-family="Helvetica,sans-Serif" font-size="10.00">gui.GUIScene.addButtons</text>
</a>
</g>
</g>
<!-- Node6&#45;&gt;Node10 -->
<g id="edge9" class="edge"><title>Node6&#45;&gt;Node10</title>
<path fill="none" stroke="midnightblue" d="M1070.5,-125.299C1079.9,-125.215 1089.46,-125.239 1098.75,-125.371"/>
<polygon fill="midnightblue" stroke="midnightblue" points="1070.36,-121.8 1060.4,-125.432 1070.45,-128.8 1070.36,-121.8"/>
</g>
<!-- Node8 -->
<g id="node8" class="node"><title>Node8</title>
<g id="a_node8"><a xlink:href="../../d6/d0e/classcontroller_1_1_s_logo_main.html#ab5379c32fef791f21ad51abde7d268c0" target="_top" xlink:title="controller.SLogoMain.start">
<polygon fill="white" stroke="black" points="1278,-179.5 1278,-198.5 1420,-198.5 1420,-179.5 1278,-179.5"/>
<text text-anchor="middle" x="1349" y="-186.5" font-family="Helvetica,sans-Serif" font-size="10.00">controller.SLogoMain.start</text>
</a>
</g>
</g>
<!-- Node7&#45;&gt;Node8 -->
<g id="edge7" class="edge"><title>Node7&#45;&gt;Node8</title>
<path fill="none" stroke="midnightblue" d="M1251.82,-178.734C1260.56,-179.666 1269.38,-180.608 1277.96,-181.524"/>
<polygon fill="midnightblue" stroke="midnightblue" points="1251.95,-175.227 1241.63,-177.646 1251.2,-182.188 1251.95,-175.227"/>
</g>
<!-- Node9 -->
<g id="node9" class="node"><title>Node9</title>
<g id="a_node9"><a xlink:href="../../dd/d48/classgui_1_1_g_u_i_start.html#a82d08814fef5331d82c4763a2426ffce" target="_top" xlink:title="gui.GUIStart.start">
<polygon fill="white" stroke="black" points="1298.5,-141.5 1298.5,-160.5 1399.5,-160.5 1399.5,-141.5 1298.5,-141.5"/>
<text text-anchor="middle" x="1349" y="-148.5" font-family="Helvetica,sans-Serif" font-size="10.00">gui.GUIStart.start</text>
</a>
</g>
</g>
<!-- Node7&#45;&gt;Node9 -->
<g id="edge8" class="edge"><title>Node7&#45;&gt;Node9</title>
<path fill="none" stroke="midnightblue" d="M1251.97,-161.25C1267.81,-159.559 1283.95,-157.837 1298.36,-156.298"/>
<polygon fill="midnightblue" stroke="midnightblue" points="1251.2,-157.812 1241.63,-162.354 1251.95,-164.773 1251.2,-157.812"/>
</g>
<!-- Node10&#45;&gt;Node6 -->
<g id="edge10" class="edge"><title>Node10&#45;&gt;Node6</title>
<path fill="none" stroke="midnightblue" d="M1088.59,-138.73C1079.15,-138.784 1069.61,-138.73 1060.4,-138.568"/>
<polygon fill="midnightblue" stroke="midnightblue" points="1088.79,-142.228 1098.75,-138.629 1088.72,-135.228 1088.79,-142.228"/>
</g>
<!-- Node11&#45;&gt;Node6 -->
<g id="edge12" class="edge"><title>Node11&#45;&gt;Node6</title>
<path fill="none" stroke="midnightblue" d="M894.45,-121.539C905.657,-122.729 917.056,-123.939 927.933,-125.093"/>
<polygon fill="midnightblue" stroke="midnightblue" points="894.545,-118.03 884.232,-120.455 893.806,-124.991 894.545,-118.03"/>
</g>
</g>
</svg>
