<?xml version="1.0" encoding="UTF-8" standalone="no"?>
<!DOCTYPE svg PUBLIC "-//W3C//DTD SVG 1.1//EN"
 "http://www.w3.org/Graphics/SVG/1.1/DTD/svg11.dtd">
<!-- Generated by graphviz version 2.36.0 (20140111.2315)
 -->
<!-- Title: commands.CommandList.penUp Pages: 1 -->
<!--zoomable 207 -->
<svg id="main" version="1.1" xmlns="http://www.w3.org/2000/svg" xmlns:xlink="http://www.w3.org/1999/xlink" xml:space="preserve" onload="init(evt)">
<style type="text/css"><![CDATA[
.edge:hover path { stroke: red; }
.edge:hover polygon { stroke: red; fill: red; }
]]></style>
<script type="text/javascript"><![CDATA[
var edges = document.getElementsByTagName('g');
if (edges && edges.length) {
  for (var i=0;i<edges.length;i++) {
    if (edges[i].id.substr(0,4)=='edge') {
      edges[i].setAttribute('class','edge');
    }
  }
}
]]></script>
        <defs>
                <circle id="rim" cx="0" cy="0" r="7"/>
                <circle id="rim2" cx="0" cy="0" r="3.5"/>
                <g id="zoomPlus">
                        <use xlink:href="#rim" fill="#404040">
                                <set attributeName="fill" to="#808080" begin="zoomplus.mouseover" end="zoomplus.mouseout"/>
                        </use>
                        <path d="M-4,0h8M0,-4v8" fill="none" stroke="white" stroke-width="1.5" pointer-events="none"/>
                </g>
                <g id="zoomMin">
                        <use xlink:href="#rim" fill="#404040">
                                <set attributeName="fill" to="#808080" begin="zoomminus.mouseover" end="zoomminus.mouseout"/>
                        </use>
                        <path d="M-4,0h8" fill="none" stroke="white" stroke-width="1.5" pointer-events="none"/>
                </g>
                <g id="dirArrow">
                        <path fill="none" stroke="white" stroke-width="1.5" d="M0,-3.0v7 M-2.5,-0.5L0,-3.0L2.5,-0.5"/>
                </g>
               <g id="resetDef">
                       <use xlink:href="#rim2" fill="#404040">
                               <set attributeName="fill" to="#808080" begin="reset.mouseover" end="reset.mouseout"/>
                       </use>
               </g>
        </defs>

<script type="text/javascript">
var viewWidth = 1436;
var viewHeight = 207;
var sectionId = 'dynsection-13';
</script>
<script xlink:href="../../svgpan.js"/>
<svg id="graph" class="graph">
<g id="viewport">
<title>commands.CommandList.penUp</title>
<polygon fill="white" stroke="none" points="-4,4 -4,-203 1432,-203 1432,4 -4,4"/>
<!-- Node1 -->
<g id="node1" class="node"><title>Node1</title>
<polygon fill="#bfbfbf" stroke="black" points="0.5,-78.5 0.5,-97.5 175.5,-97.5 175.5,-78.5 0.5,-78.5"/>
<text text-anchor="middle" x="88" y="-85.5" font-family="Helvetica,sans-Serif" font-size="10.00">commands.CommandList.penUp</text>
</g>
<!-- Node2 -->
<g id="node2" class="node"><title>Node2</title>
<g id="a_node2"><a xlink:href="../../d5/dcd/classcompiler_1_1_a_s_t.html#a8f54e642baf772b6269010527c61f7f7" target="_top" xlink:title="compiler.AST.traverse">
<polygon fill="white" stroke="black" points="212,-78.5 212,-97.5 332,-97.5 332,-78.5 212,-78.5"/>
<text text-anchor="middle" x="272" y="-85.5" font-family="Helvetica,sans-Serif" font-size="10.00">compiler.AST.traverse</text>
</a>
</g>
</g>
<!-- Node1&#45;&gt;Node2 -->
<g id="edge1" class="edge"><title>Node1&#45;&gt;Node2</title>
<path fill="none" stroke="midnightblue" d="M185.805,-88C194.711,-88 203.543,-88 211.957,-88"/>
<polygon fill="midnightblue" stroke="midnightblue" points="185.736,-84.5001 175.736,-88 185.736,-91.5001 185.736,-84.5001"/>
</g>
<!-- Node3 -->
<g id="node3" class="node"><title>Node3</title>
<g id="a_node3"><a xlink:href="../../db/d93/classcompiler_1_1_compiler.html#a8a90aa273bacff724a034959914a4c2d" target="_top" xlink:title="compiler.Compiler.compile">
<polygon fill="white" stroke="black" points="368.5,-78.5 368.5,-97.5 511.5,-97.5 511.5,-78.5 368.5,-78.5"/>
<text text-anchor="middle" x="440" y="-85.5" font-family="Helvetica,sans-Serif" font-size="10.00">compiler.Compiler.compile</text>
</a>
</g>
</g>
<!-- Node2&#45;&gt;Node3 -->
<g id="edge2" class="edge"><title>Node2&#45;&gt;Node3</title>
<path fill="none" stroke="midnightblue" d="M342.689,-88C351.172,-88 359.846,-88 368.342,-88"/>
<polygon fill="midnightblue" stroke="midnightblue" points="342.461,-84.5001 332.461,-88 342.461,-91.5001 342.461,-84.5001"/>
</g>
<!-- Node4 -->
<g id="node4" class="node"><title>Node4</title>
<g id="a_node4"><a xlink:href="../../db/d93/classcompiler_1_1_compiler.html#a90d16b98c8e950bbaf772f5b93092a3f" target="_top" xlink:title="compiler.Compiler.main">
<polygon fill="white" stroke="black" points="562.5,-147.5 562.5,-166.5 691.5,-166.5 691.5,-147.5 562.5,-147.5"/>
<text text-anchor="middle" x="627" y="-154.5" font-family="Helvetica,sans-Serif" font-size="10.00">compiler.Compiler.main</text>
</a>
</g>
</g>
<!-- Node3&#45;&gt;Node4 -->
<g id="edge3" class="edge"><title>Node3&#45;&gt;Node4</title>
<path fill="none" stroke="midnightblue" d="M468.232,-102.112C489.53,-112.743 520.107,-127.126 548,-137 559.202,-140.965 571.564,-144.502 583.081,-147.458"/>
<polygon fill="midnightblue" stroke="midnightblue" points="469.647,-98.9049 459.143,-97.5207 466.491,-105.153 469.647,-98.9049"/>
</g>
<!-- Node5 -->
<g id="node5" class="node"><title>Node5</title>
<g id="a_node5"><a xlink:href="../../db/d32/classcontroller_1_1_main_controller.html#a6badeb343877f4b50f069b47afed495c" target="_top" xlink:title="controller.MainController.pass\lInput">
<polygon fill="white" stroke="black" points="548,-98 548,-128 706,-128 706,-98 548,-98"/>
<text text-anchor="start" x="556" y="-116" font-family="Helvetica,sans-Serif" font-size="10.00">controller.MainController.pass</text>
<text text-anchor="middle" x="627" y="-105" font-family="Helvetica,sans-Serif" font-size="10.00">Input</text>
</a>
</g>
</g>
<!-- Node3&#45;&gt;Node5 -->
<g id="edge4" class="edge"><title>Node3&#45;&gt;Node5</title>
<path fill="none" stroke="midnightblue" d="M521.565,-98.8872C530.238,-100.059 539.053,-101.25 547.698,-102.419"/>
<polygon fill="midnightblue" stroke="midnightblue" points="521.847,-95.3935 511.468,-97.5227 520.909,-102.33 521.847,-95.3935"/>
</g>
<!-- Node13 -->
<g id="node13" class="node"><title>Node13</title>
<g id="a_node13"><a xlink:href="../../d8/ded/class_j_unit_test_1_1_compiler_test.html#a4132f77013965dda40f6d62699de349a" target="_top" xlink:title="JUnitTest.CompilerTest.test\lGrammarException">
<polygon fill="white" stroke="black" points="555.5,-49 555.5,-79 698.5,-79 698.5,-49 555.5,-49"/>
<text text-anchor="start" x="563.5" y="-67" font-family="Helvetica,sans-Serif" font-size="10.00">JUnitTest.CompilerTest.test</text>
<text text-anchor="middle" x="627" y="-56" font-family="Helvetica,sans-Serif" font-size="10.00">GrammarException</text>
</a>
</g>
</g>
<!-- Node3&#45;&gt;Node13 -->
<g id="edge14" class="edge"><title>Node3&#45;&gt;Node13</title>
<path fill="none" stroke="midnightblue" d="M521.876,-77.508C533.011,-76.0635 544.374,-74.5893 555.307,-73.171"/>
<polygon fill="midnightblue" stroke="midnightblue" points="521.199,-74.0664 511.732,-78.8239 522.1,-81.0082 521.199,-74.0664"/>
</g>
<!-- Node14 -->
<g id="node14" class="node"><title>Node14</title>
<g id="a_node14"><a xlink:href="../../d8/ded/class_j_unit_test_1_1_compiler_test.html#accbcdde8d934dd7acc552820845d6b0f" target="_top" xlink:title="JUnitTest.CompilerTest.test\lSyntaxException">
<polygon fill="white" stroke="black" points="555.5,-0 555.5,-30 698.5,-30 698.5,-0 555.5,-0"/>
<text text-anchor="start" x="563.5" y="-18" font-family="Helvetica,sans-Serif" font-size="10.00">JUnitTest.CompilerTest.test</text>
<text text-anchor="middle" x="627" y="-7" font-family="Helvetica,sans-Serif" font-size="10.00">SyntaxException</text>
</a>
</g>
</g>
<!-- Node3&#45;&gt;Node14 -->
<g id="edge15" class="edge"><title>Node3&#45;&gt;Node14</title>
<path fill="none" stroke="midnightblue" d="M469.598,-74.1227C490.942,-64.024 520.961,-50.3608 548,-40 557.03,-36.54 566.766,-33.1542 576.196,-30.0473"/>
<polygon fill="midnightblue" stroke="midnightblue" points="467.965,-71.0241 460.444,-78.4871 470.977,-77.3427 467.965,-71.0241"/>
</g>
<!-- Node6 -->
<g id="node6" class="node"><title>Node6</title>
<g id="a_node6"><a xlink:href="../../dd/dea/classgui_1_1_g_u_i_scene.html#a7cb2b00ed820aecde169a5e14cf0d468" target="_top" xlink:title="gui.GUIScene.createGUI">
<polygon fill="white" stroke="black" points="936,-122.5 936,-141.5 1068,-141.5 1068,-122.5 936,-122.5"/>
<text text-anchor="middle" x="1002" y="-129.5" font-family="Helvetica,sans-Serif" font-size="10.00">gui.GUIScene.createGUI</text>
</a>
</g>
</g>
<!-- Node5&#45;&gt;Node6 -->
<g id="edge5" class="edge"><title>Node5&#45;&gt;Node6</title>
<path fill="none" stroke="midnightblue" d="M716.389,-129.202C725.02,-130.341 733.664,-131.31 742,-132 807.874,-137.452 883.495,-136.643 935.949,-134.965"/>
<polygon fill="midnightblue" stroke="midnightblue" points="716.67,-125.707 706.283,-127.793 715.704,-132.64 716.67,-125.707"/>
</g>
<!-- Node11 -->
<g id="node11" class="node"><title>Node11</title>
<g id="a_node11"><a xlink:href="../../dd/dea/classgui_1_1_g_u_i_scene.html#a47e424a495817f5806f45064f77a632b" target="_top" xlink:title="gui.GUIScene.getRightBox">
<polygon fill="white" stroke="black" points="750,-103.5 750,-122.5 892,-122.5 892,-103.5 750,-103.5"/>
<text text-anchor="middle" x="821" y="-110.5" font-family="Helvetica,sans-Serif" font-size="10.00">gui.GUIScene.getRightBox</text>
</a>
</g>
</g>
<!-- Node5&#45;&gt;Node11 -->
<g id="edge11" class="edge"><title>Node5&#45;&gt;Node11</title>
<path fill="none" stroke="midnightblue" d="M716.315,-113C727.507,-113 738.84,-113 749.699,-113"/>
<polygon fill="midnightblue" stroke="midnightblue" points="716.094,-109.5 706.094,-113 716.094,-116.5 716.094,-109.5"/>
</g>
<!-- Node12 -->
<g id="node12" class="node"><title>Node12</title>
<g id="a_node12"><a xlink:href="../../d6/d6a/class_j_unit_test_1_1_backend_a_p_i_test.html#a86dd50c40468e1647c7c01614dc7d30d" target="_top" xlink:title="JUnitTest.BackendAPITest.test">
<polygon fill="white" stroke="black" points="742.5,-65.5 742.5,-84.5 899.5,-84.5 899.5,-65.5 742.5,-65.5"/>
<text text-anchor="middle" x="821" y="-72.5" font-family="Helvetica,sans-Serif" font-size="10.00">JUnitTest.BackendAPITest.test</text>
</a>
</g>
</g>
<!-- Node5&#45;&gt;Node12 -->
<g id="edge13" class="edge"><title>Node5&#45;&gt;Node12</title>
<path fill="none" stroke="midnightblue" d="M713.921,-95.9949C733.856,-92.0493 754.377,-87.9878 771.995,-84.5009"/>
<polygon fill="midnightblue" stroke="midnightblue" points="713.014,-92.6064 703.883,-97.9814 714.373,-99.4732 713.014,-92.6064"/>
</g>
<!-- Node7 -->
<g id="node7" class="node"><title>Node7</title>
<g id="a_node7"><a xlink:href="../../dd/dea/classgui_1_1_g_u_i_scene.html#a74967ac937baee81b9eec1b2bc38167c" target="_top" xlink:title="gui.GUIScene.createScene">
<polygon fill="white" stroke="black" points="1104.5,-160.5 1104.5,-179.5 1249.5,-179.5 1249.5,-160.5 1104.5,-160.5"/>
<text text-anchor="middle" x="1177" y="-167.5" font-family="Helvetica,sans-Serif" font-size="10.00">gui.GUIScene.createScene</text>
</a>
</g>
</g>
<!-- Node6&#45;&gt;Node7 -->
<g id="edge6" class="edge"><title>Node6&#45;&gt;Node7</title>
<path fill="none" stroke="midnightblue" d="M1056.51,-143.753C1080.97,-149.126 1109.57,-155.409 1132.66,-160.48"/>
<polygon fill="midnightblue" stroke="midnightblue" points="1057.17,-140.316 1046.66,-141.589 1055.67,-147.153 1057.17,-140.316"/>
</g>
<!-- Node10 -->
<g id="node10" class="node"><title>Node10</title>
<g id="a_node10"><a xlink:href="../../dd/dea/classgui_1_1_g_u_i_scene.html#a16324ddc026310495f84e77bbb311b2c" target="_top" xlink:title="gui.GUIScene.addButtons">
<polygon fill="white" stroke="black" points="1107,-122.5 1107,-141.5 1247,-141.5 1247,-122.5 1107,-122.5"/>
<text text-anchor="middle" x="1177" y="-129.5" font-family="Helvetica,sans-Serif" font-size="10.00">gui.GUIScene.addButtons</text>
</a>
</g>
</g>
<!-- Node6&#45;&gt;Node10 -->
<g id="edge9" class="edge"><title>Node6&#45;&gt;Node10</title>
<path fill="none" stroke="midnightblue" d="M1078.5,-125.299C1087.9,-125.215 1097.46,-125.239 1106.75,-125.371"/>
<polygon fill="midnightblue" stroke="midnightblue" points="1078.36,-121.8 1068.4,-125.432 1078.45,-128.8 1078.36,-121.8"/>
</g>
<!-- Node8 -->
<g id="node8" class="node"><title>Node8</title>
<g id="a_node8"><a xlink:href="../../d6/d0e/classcontroller_1_1_s_logo_main.html#ab5379c32fef791f21ad51abde7d268c0" target="_top" xlink:title="controller.SLogoMain.start">
<polygon fill="white" stroke="black" points="1286,-179.5 1286,-198.5 1428,-198.5 1428,-179.5 1286,-179.5"/>
<text text-anchor="middle" x="1357" y="-186.5" font-family="Helvetica,sans-Serif" font-size="10.00">controller.SLogoMain.start</text>
</a>
</g>
</g>
<!-- Node7&#45;&gt;Node8 -->
<g id="edge7" class="edge"><title>Node7&#45;&gt;Node8</title>
<path fill="none" stroke="midnightblue" d="M1259.82,-178.734C1268.56,-179.666 1277.38,-180.608 1285.96,-181.524"/>
<polygon fill="midnightblue" stroke="midnightblue" points="1259.95,-175.227 1249.63,-177.646 1259.2,-182.188 1259.95,-175.227"/>
</g>
<!-- Node9 -->
<g id="node9" class="node"><title>Node9</title>
<g id="a_node9"><a xlink:href="../../dd/d48/classgui_1_1_g_u_i_start.html#a82d08814fef5331d82c4763a2426ffce" target="_top" xlink:title="gui.GUIStart.start">
<polygon fill="white" stroke="black" points="1306.5,-141.5 1306.5,-160.5 1407.5,-160.5 1407.5,-141.5 1306.5,-141.5"/>
<text text-anchor="middle" x="1357" y="-148.5" font-family="Helvetica,sans-Serif" font-size="10.00">gui.GUIStart.start</text>
</a>
</g>
</g>
<!-- Node7&#45;&gt;Node9 -->
<g id="edge8" class="edge"><title>Node7&#45;&gt;Node9</title>
<path fill="none" stroke="midnightblue" d="M1259.97,-161.25C1275.81,-159.559 1291.95,-157.837 1306.36,-156.298"/>
<polygon fill="midnightblue" stroke="midnightblue" points="1259.2,-157.812 1249.63,-162.354 1259.95,-164.773 1259.2,-157.812"/>
</g>
<!-- Node10&#45;&gt;Node6 -->
<g id="edge10" class="edge"><title>Node10&#45;&gt;Node6</title>
<path fill="none" stroke="midnightblue" d="M1096.59,-138.73C1087.15,-138.784 1077.61,-138.73 1068.4,-138.568"/>
<polygon fill="midnightblue" stroke="midnightblue" points="1096.79,-142.228 1106.75,-138.629 1096.72,-135.228 1096.79,-142.228"/>
</g>
<!-- Node11&#45;&gt;Node6 -->
<g id="edge12" class="edge"><title>Node11&#45;&gt;Node6</title>
<path fill="none" stroke="midnightblue" d="M902.45,-121.539C913.657,-122.729 925.056,-123.939 935.933,-125.093"/>
<polygon fill="midnightblue" stroke="midnightblue" points="902.545,-118.03 892.232,-120.455 901.806,-124.991 902.545,-118.03"/>
</g>
</g>
</svg>
        <g id="navigator" transform="translate(0 0)" fill="#404254">
                <rect fill="#f2f5e9" fill-opacity="0.5" stroke="#606060" stroke-width=".5" x="0" y="0" width="60" height="60"/>
                <use id="zoomplus" xlink:href="#zoomPlus" x="17" y="9" onmousedown="handleZoom(evt,'in')"/>
                <use id="zoomminus" xlink:href="#zoomMin" x="42" y="9" onmousedown="handleZoom(evt,'out')"/>
                <use id="reset" xlink:href="#resetDef" x="30" y="36" onmousedown="handleReset()"/>
                <g id="arrowUp" xlink:href="#dirArrow" transform="translate(30 24)" onmousedown="handlePan(0,-1)">
                  <use xlink:href="#rim" fill="#404040">
                        <set attributeName="fill" to="#808080" begin="arrowUp.mouseover" end="arrowUp.mouseout"/>
                  </use>
                  <path fill="none" stroke="white" stroke-width="1.5" d="M0,-3.0v7 M-2.5,-0.5L0,-3.0L2.5,-0.5"/>
                </g>
                <g id="arrowRight" xlink:href="#dirArrow" transform="rotate(90) translate(36 -43)" onmousedown="handlePan(1,0)">
                  <use xlink:href="#rim" fill="#404040">
                        <set attributeName="fill" to="#808080" begin="arrowRight.mouseover" end="arrowRight.mouseout"/>
                  </use>
                  <path fill="none" stroke="white" stroke-width="1.5" d="M0,-3.0v7 M-2.5,-0.5L0,-3.0L2.5,-0.5"/>
                </g>
                <g id="arrowDown" xlink:href="#dirArrow" transform="rotate(180) translate(-30 -48)" onmousedown="handlePan(0,1)">
                  <use xlink:href="#rim" fill="#404040">
                        <set attributeName="fill" to="#808080" begin="arrowDown.mouseover" end="arrowDown.mouseout"/>
                  </use>
                  <path fill="none" stroke="white" stroke-width="1.5" d="M0,-3.0v7 M-2.5,-0.5L0,-3.0L2.5,-0.5"/>
                </g>
                <g id="arrowLeft" xlink:href="#dirArrow" transform="rotate(270) translate(-36 17)" onmousedown="handlePan(-1,0)">
                  <use xlink:href="#rim" fill="#404040">
                        <set attributeName="fill" to="#808080" begin="arrowLeft.mouseover" end="arrowLeft.mouseout"/>
                  </use>
                  <path fill="none" stroke="white" stroke-width="1.5" d="M0,-3.0v7 M-2.5,-0.5L0,-3.0L2.5,-0.5"/>
                </g>
        </g>
        <svg viewBox="0 0 15 15" width="100%" height="30px" preserveAspectRatio="xMaxYMin meet">
         <g id="arrow_out" transform="scale(0.3 0.3)">
          <a xlink:href="classcommands_1_1_command_list_a62ca3466760389089ab8a1474d7649da_icgraph_org.svg" target="_base">
           <rect id="button" ry="5" rx="5" y="6" x="6" height="38" width="38"
                fill="#f2f5e9" fill-opacity="0.5" stroke="#606060" stroke-width="1.0"/>
           <path id="arrow"
             d="M 11.500037,31.436501 C 11.940474,20.09759 22.043105,11.32322 32.158766,21.979434 L 37.068811,17.246167 C 37.068811,17.246167 37.088388,32 37.088388,32 L 22.160133,31.978069 C 22.160133,31.978069 26.997745,27.140456 26.997745,27.140456 C 18.528582,18.264221 13.291696,25.230495 11.500037,31.436501 z"
             style="fill:#404040;"/>
          </a>
         </g>
        </svg>
</svg>
