<?xml version="1.0" encoding="UTF-8" standalone="no"?>
<!DOCTYPE svg PUBLIC "-//W3C//DTD SVG 1.1//EN"
 "http://www.w3.org/Graphics/SVG/1.1/DTD/svg11.dtd">
<!-- Generated by graphviz version 2.36.0 (20140111.2315)
 -->
<!-- Title: exceptions.ParsingException Pages: 1 -->
<svg width="470pt" height="126pt"
 viewBox="0.00 0.00 470.00 126.00" xmlns="http://www.w3.org/2000/svg" xmlns:xlink="http://www.w3.org/1999/xlink">
<g id="graph0" class="graph" transform="scale(1 1) rotate(0) translate(4 122)">
<title>exceptions.ParsingException</title>
<polygon fill="white" stroke="none" points="-4,4 -4,-122 466,-122 466,4 -4,4"/>
<!-- Node1 -->
<g id="node1" class="node"><title>Node1</title>
<polygon fill="#bfbfbf" stroke="black" points="100,-49.5 100,-68.5 252,-68.5 252,-49.5 100,-49.5"/>
<text text-anchor="middle" x="176" y="-56.5" font-family="Helvetica,sans-Serif" font-size="10.00">exceptions.ParsingException</text>
</g>
<!-- Node3 -->
<g id="node3" class="node"><title>Node3</title>
<g id="a_node3"><a xlink:href="../../d1/d67/classexceptions_1_1_invalid_arguments_exception.html" target="_top" xlink:title="exceptions.InvalidArguments\lException">
<polygon fill="white" stroke="black" points="297.5,-88 297.5,-118 452.5,-118 452.5,-88 297.5,-88"/>
<text text-anchor="start" x="305.5" y="-106" font-family="Helvetica,sans-Serif" font-size="10.00">exceptions.InvalidArguments</text>
<text text-anchor="middle" x="375" y="-95" font-family="Helvetica,sans-Serif" font-size="10.00">Exception</text>
</a>
</g>
</g>
<!-- Node1&#45;&gt;Node3 -->
<g id="edge2" class="edge"><title>Node1&#45;&gt;Node3</title>
<path fill="none" stroke="midnightblue" d="M229.574,-70.7424C253.206,-76.0207 281.383,-82.314 306.548,-87.9346"/>
<polygon fill="midnightblue" stroke="midnightblue" points="230.269,-67.3114 219.746,-68.5473 228.743,-74.1431 230.269,-67.3114"/>
</g>
<!-- Node4 -->
<g id="node4" class="node"><title>Node4</title>
<g id="a_node4"><a xlink:href="../../d8/d47/classexceptions_1_1_syntax_error_exception.html" target="_top" xlink:title="exceptions.SyntaxErrorException">
<polygon fill="white" stroke="black" points="288,-49.5 288,-68.5 462,-68.5 462,-49.5 288,-49.5"/>
<text text-anchor="middle" x="375" y="-56.5" font-family="Helvetica,sans-Serif" font-size="10.00">exceptions.SyntaxErrorException</text>
</a>
</g>
</g>
<!-- Node1&#45;&gt;Node4 -->
<g id="edge3" class="edge"><title>Node1&#45;&gt;Node4</title>
<path fill="none" stroke="midnightblue" d="M262.044,-59C270.634,-59 279.364,-59 287.965,-59"/>
<polygon fill="midnightblue" stroke="midnightblue" points="262.039,-55.5001 252.039,-59 262.039,-62.5001 262.039,-55.5001"/>
</g>
<!-- Node5 -->
<g id="node5" class="node"><title>Node5</title>
<g id="a_node5"><a xlink:href="../../d6/d22/classexceptions_1_1_unbalanced_brackets_exception.html" target="_top" xlink:title="exceptions.UnbalancedBrackets\lException">
<polygon fill="white" stroke="black" points="290,-0 290,-30 460,-30 460,-0 290,-0"/>
<text text-anchor="start" x="298" y="-18" font-family="Helvetica,sans-Serif" font-size="10.00">exceptions.UnbalancedBrackets</text>
<text text-anchor="middle" x="375" y="-7" font-family="Helvetica,sans-Serif" font-size="10.00">Exception</text>
</a>
</g>
</g>
<!-- Node1&#45;&gt;Node5 -->
<g id="edge4" class="edge"><title>Node1&#45;&gt;Node5</title>
<path fill="none" stroke="midnightblue" d="M229.574,-47.2576C253.206,-41.9793 281.383,-35.686 306.548,-30.0654"/>
<polygon fill="midnightblue" stroke="midnightblue" points="228.743,-43.8569 219.746,-49.4527 230.269,-50.6886 228.743,-43.8569"/>
</g>
<!-- Node2 -->
<g id="node2" class="node"><title>Node2</title>
<polygon fill="white" stroke="#bfbfbf" points="0.5,-49.5 0.5,-68.5 63.5,-68.5 63.5,-49.5 0.5,-49.5"/>
<text text-anchor="middle" x="32" y="-56.5" font-family="Helvetica,sans-Serif" font-size="10.00">Exception</text>
</g>
<!-- Node2&#45;&gt;Node1 -->
<g id="edge1" class="edge"><title>Node2&#45;&gt;Node1</title>
<path fill="none" stroke="midnightblue" d="M73.8439,-59C82.079,-59 90.9789,-59 99.9653,-59"/>
<polygon fill="midnightblue" stroke="midnightblue" points="73.8119,-55.5001 63.8119,-59 73.8119,-62.5001 73.8119,-55.5001"/>
</g>
</g>
</svg>
