<?xml version="1.0" encoding="UTF-8" standalone="no"?>
<!DOCTYPE svg PUBLIC "-//W3C//DTD SVG 1.1//EN"
 "http://www.w3.org/Graphics/SVG/1.1/DTD/svg11.dtd">
<!-- Generated by graphviz version 2.36.0 (20140111.2315)
 -->
<!-- Title: compiler.AST.traverse Pages: 1 -->
<!--zoomable 592 -->
<svg id="main" version="1.1" xmlns="http://www.w3.org/2000/svg" xmlns:xlink="http://www.w3.org/1999/xlink" xml:space="preserve" onload="init(evt)">
<style type="text/css"><![CDATA[
.edge:hover path { stroke: red; }
.edge:hover polygon { stroke: red; fill: red; }
]]></style>
<script type="text/javascript"><![CDATA[
var edges = document.getElementsByTagName('g');
if (edges && edges.length) {
  for (var i=0;i<edges.length;i++) {
    if (edges[i].id.substr(0,4)=='edge') {
      edges[i].setAttribute('class','edge');
    }
  }
}
]]></script>
        <defs>
                <circle id="rim" cx="0" cy="0" r="7"/>
                <circle id="rim2" cx="0" cy="0" r="3.5"/>
                <g id="zoomPlus">
                        <use xlink:href="#rim" fill="#404040">
                                <set attributeName="fill" to="#808080" begin="zoomplus.mouseover" end="zoomplus.mouseout"/>
                        </use>
                        <path d="M-4,0h8M0,-4v8" fill="none" stroke="white" stroke-width="1.5" pointer-events="none"/>
                </g>
                <g id="zoomMin">
                        <use xlink:href="#rim" fill="#404040">
                                <set attributeName="fill" to="#808080" begin="zoomminus.mouseover" end="zoomminus.mouseout"/>
                        </use>
                        <path d="M-4,0h8" fill="none" stroke="white" stroke-width="1.5" pointer-events="none"/>
                </g>
                <g id="dirArrow">
                        <path fill="none" stroke="white" stroke-width="1.5" d="M0,-3.0v7 M-2.5,-0.5L0,-3.0L2.5,-0.5"/>
                </g>
               <g id="resetDef">
                       <use xlink:href="#rim2" fill="#404040">
                               <set attributeName="fill" to="#808080" begin="reset.mouseover" end="reset.mouseout"/>
                       </use>
               </g>
        </defs>

<script type="text/javascript">
var viewWidth = 520;
var viewHeight = 592;
var sectionId = 'dynsection-3';
</script>
<script xlink:href="../../svgpan.js"/>
<svg id="graph" class="graph">
<g id="viewport">
<title>compiler.AST.traverse</title>
<polygon fill="white" stroke="none" points="-4,4 -4,-588 516,-588 516,4 -4,4"/>
<!-- Node1 -->
<g id="node1" class="node"><title>Node1</title>
<polygon fill="#bfbfbf" stroke="black" points="0,-271.5 0,-290.5 120,-290.5 120,-271.5 0,-271.5"/>
<text text-anchor="middle" x="60" y="-278.5" font-family="Helvetica,sans-Serif" font-size="10.00">compiler.AST.traverse</text>
</g>
<!-- Node2 -->
<g id="node2" class="node"><title>Node2</title>
<g id="a_node2"><a xlink:href="../../de/d00/classcommands_1_1_command_list.html#a3fa6072b15e6e34c66f5d4e264460553" target="_top" xlink:title="commands.CommandList.clear\lScreen">
<polygon fill="white" stroke="black" points="166.5,-554 166.5,-584 333.5,-584 333.5,-554 166.5,-554"/>
<text text-anchor="start" x="174.5" y="-572" font-family="Helvetica,sans-Serif" font-size="10.00">commands.CommandList.clear</text>
<text text-anchor="middle" x="250" y="-561" font-family="Helvetica,sans-Serif" font-size="10.00">Screen</text>
</a>
</g>
</g>
<!-- Node1&#45;&gt;Node2 -->
<g id="edge1" class="edge"><title>Node1&#45;&gt;Node2</title>
<path fill="none" stroke="midnightblue" d="M61.4276,-290.59C63.6646,-328.791 77.1944,-471.552 156,-544 157.7,-545.563 159.487,-547.03 161.348,-548.407"/>
<polygon fill="midnightblue" stroke="midnightblue" points="159.615,-551.453 169.927,-553.885 163.382,-545.553 159.615,-551.453"/>
</g>
<!-- Node4 -->
<g id="node4" class="node"><title>Node4</title>
<g id="a_node4"><a xlink:href="../../de/d00/classcommands_1_1_command_list.html#a5b320e3a2018fde1a425658bf6f76f71" target="_top" xlink:title="commands.CommandList.forward\lCommand">
<polygon fill="white" stroke="black" points="160.5,-505 160.5,-535 339.5,-535 339.5,-505 160.5,-505"/>
<text text-anchor="start" x="168.5" y="-523" font-family="Helvetica,sans-Serif" font-size="10.00">commands.CommandList.forward</text>
<text text-anchor="middle" x="250" y="-512" font-family="Helvetica,sans-Serif" font-size="10.00">Command</text>
</a>
</g>
</g>
<!-- Node1&#45;&gt;Node4 -->
<g id="edge3" class="edge"><title>Node1&#45;&gt;Node4</title>
<path fill="none" stroke="midnightblue" d="M62.3472,-290.86C67.521,-324.811 89.2889,-437.914 156,-495 157.806,-496.546 159.699,-497.997 161.662,-499.359"/>
<polygon fill="midnightblue" stroke="midnightblue" points="160.306,-502.627 170.68,-504.78 163.913,-496.628 160.306,-502.627"/>
</g>
<!-- Node5 -->
<g id="node5" class="node"><title>Node5</title>
<g id="a_node5"><a xlink:href="../../de/d00/classcommands_1_1_command_list.html#a10e5a16b6560987b4c7deefa4a12fbdb" target="_top" xlink:title="commands.CommandList.heading">
<polygon fill="white" stroke="black" points="159,-466.5 159,-485.5 341,-485.5 341,-466.5 159,-466.5"/>
<text text-anchor="middle" x="250" y="-473.5" font-family="Helvetica,sans-Serif" font-size="10.00">commands.CommandList.heading</text>
</a>
</g>
</g>
<!-- Node1&#45;&gt;Node5 -->
<g id="edge5" class="edge"><title>Node1&#45;&gt;Node5</title>
<path fill="none" stroke="midnightblue" d="M63.2551,-290.839C70.6826,-320.888 97.3315,-412.077 156,-456 159.02,-458.261 162.242,-460.278 165.605,-462.076"/>
<polygon fill="midnightblue" stroke="midnightblue" points="164.252,-465.307 174.796,-466.342 167.2,-458.957 164.252,-465.307"/>
</g>
<!-- Node6 -->
<g id="node6" class="node"><title>Node6</title>
<g id="a_node6"><a xlink:href="../../de/d00/classcommands_1_1_command_list.html#a787a3850e0d0584213bfe7fdcd011985" target="_top" xlink:title="commands.CommandList.hide\lTurtle">
<polygon fill="white" stroke="black" points="168,-417 168,-447 332,-447 332,-417 168,-417"/>
<text text-anchor="start" x="176" y="-435" font-family="Helvetica,sans-Serif" font-size="10.00">commands.CommandList.hide</text>
<text text-anchor="middle" x="250" y="-424" font-family="Helvetica,sans-Serif" font-size="10.00">Turtle</text>
</a>
</g>
</g>
<!-- Node1&#45;&gt;Node6 -->
<g id="edge7" class="edge"><title>Node1&#45;&gt;Node6</title>
<path fill="none" stroke="midnightblue" d="M65.4327,-290.614C76.8548,-314.288 109.676,-375.735 156,-407 158.93,-408.977 162.01,-410.798 165.195,-412.476"/>
<polygon fill="midnightblue" stroke="midnightblue" points="163.878,-415.725 174.415,-416.833 166.869,-409.396 163.878,-415.725"/>
</g>
<!-- Node7 -->
<g id="node7" class="node"><title>Node7</title>
<g id="a_node7"><a xlink:href="../../de/d00/classcommands_1_1_command_list.html#a982e66bba41ac1d0773d4dcb92aab824" target="_top" xlink:title="commands.CommandList.penDown">
<polygon fill="white" stroke="black" points="156,-378.5 156,-397.5 344,-397.5 344,-378.5 156,-378.5"/>
<text text-anchor="middle" x="250" y="-385.5" font-family="Helvetica,sans-Serif" font-size="10.00">commands.CommandList.penDown</text>
</a>
</g>
</g>
<!-- Node1&#45;&gt;Node7 -->
<g id="edge9" class="edge"><title>Node1&#45;&gt;Node7</title>
<path fill="none" stroke="midnightblue" d="M68.4604,-290.615C83.1281,-308.804 117.648,-348.197 156,-368 161.489,-370.834 167.36,-373.267 173.383,-375.356"/>
<polygon fill="midnightblue" stroke="midnightblue" points="172.352,-378.701 182.941,-378.362 174.452,-372.023 172.352,-378.701"/>
</g>
<!-- Node8 -->
<g id="node8" class="node"><title>Node8</title>
<g id="a_node8"><a xlink:href="../../de/d00/classcommands_1_1_command_list.html#aef01a8e42196fc5ae6685ba9f3991e5e" target="_top" xlink:title="commands.CommandList.pen\lDownP">
<polygon fill="white" stroke="black" points="169.5,-329 169.5,-359 330.5,-359 330.5,-329 169.5,-329"/>
<text text-anchor="start" x="177.5" y="-347" font-family="Helvetica,sans-Serif" font-size="10.00">commands.CommandList.pen</text>
<text text-anchor="middle" x="250" y="-336" font-family="Helvetica,sans-Serif" font-size="10.00">DownP</text>
</a>
</g>
</g>
<!-- Node1&#45;&gt;Node8 -->
<g id="edge11" class="edge"><title>Node1&#45;&gt;Node8</title>
<path fill="none" stroke="midnightblue" d="M82.9918,-290.656C102.073,-298.825 130.552,-310.523 156,-319 163.361,-321.452 171.109,-323.837 178.863,-326.098"/>
<polygon fill="midnightblue" stroke="midnightblue" points="178.081,-329.514 188.657,-328.891 180.001,-322.783 178.081,-329.514"/>
</g>
<!-- Node9 -->
<g id="node9" class="node"><title>Node9</title>
<g id="a_node9"><a xlink:href="../../de/d00/classcommands_1_1_command_list.html#a62ca3466760389089ab8a1474d7649da" target="_top" xlink:title="commands.CommandList.penUp">
<polygon fill="white" stroke="black" points="162.5,-290.5 162.5,-309.5 337.5,-309.5 337.5,-290.5 162.5,-290.5"/>
<text text-anchor="middle" x="250" y="-297.5" font-family="Helvetica,sans-Serif" font-size="10.00">commands.CommandList.penUp</text>
</a>
</g>
</g>
<!-- Node1&#45;&gt;Node9 -->
<g id="edge13" class="edge"><title>Node1&#45;&gt;Node9</title>
<path fill="none" stroke="midnightblue" d="M120.226,-286.986C130.444,-288.018 141.301,-289.115 152.207,-290.218"/>
<polygon fill="midnightblue" stroke="midnightblue" points="151.919,-293.706 162.221,-291.23 152.623,-286.742 151.919,-293.706"/>
</g>
<!-- Node10 -->
<g id="node10" class="node"><title>Node10</title>
<g id="a_node10"><a xlink:href="../../de/d00/classcommands_1_1_command_list.html#adeb55ad1a5d59a59b3a19582f885d55a" target="_top" xlink:title="commands.CommandList.SetXY">
<polygon fill="white" stroke="black" points="164.5,-252.5 164.5,-271.5 335.5,-271.5 335.5,-252.5 164.5,-252.5"/>
<text text-anchor="middle" x="250" y="-259.5" font-family="Helvetica,sans-Serif" font-size="10.00">commands.CommandList.SetXY</text>
</a>
</g>
</g>
<!-- Node1&#45;&gt;Node10 -->
<g id="edge15" class="edge"><title>Node1&#45;&gt;Node10</title>
<path fill="none" stroke="midnightblue" d="M120.226,-275.014C131.048,-273.921 142.586,-272.755 154.141,-271.587"/>
<polygon fill="midnightblue" stroke="midnightblue" points="154.685,-275.05 164.282,-270.562 153.981,-268.085 154.685,-275.05"/>
</g>
<!-- Node11 -->
<g id="node11" class="node"><title>Node11</title>
<g id="a_node11"><a xlink:href="../../de/d00/classcommands_1_1_command_list.html#a56d90f6038375159ddd4381483313eba" target="_top" xlink:title="commands.CommandList.showingP">
<polygon fill="white" stroke="black" points="156,-214.5 156,-233.5 344,-233.5 344,-214.5 156,-214.5"/>
<text text-anchor="middle" x="250" y="-221.5" font-family="Helvetica,sans-Serif" font-size="10.00">commands.CommandList.showingP</text>
</a>
</g>
</g>
<!-- Node1&#45;&gt;Node11 -->
<g id="edge17" class="edge"><title>Node1&#45;&gt;Node11</title>
<path fill="none" stroke="midnightblue" d="M81.7458,-271.448C100.739,-263.006 129.794,-250.849 156,-243 165.022,-240.298 174.65,-237.855 184.165,-235.691"/>
<polygon fill="midnightblue" stroke="midnightblue" points="184.988,-239.094 194.008,-233.537 183.491,-232.256 184.988,-239.094"/>
</g>
<!-- Node12 -->
<g id="node12" class="node"><title>Node12</title>
<g id="a_node12"><a xlink:href="../../de/d00/classcommands_1_1_command_list.html#a84ca20352feab138c22ab7ed8b32f0d1" target="_top" xlink:title="commands.CommandList.show\lTurtle">
<polygon fill="white" stroke="black" points="166.5,-165 166.5,-195 333.5,-195 333.5,-165 166.5,-165"/>
<text text-anchor="start" x="174.5" y="-183" font-family="Helvetica,sans-Serif" font-size="10.00">commands.CommandList.show</text>
<text text-anchor="middle" x="250" y="-172" font-family="Helvetica,sans-Serif" font-size="10.00">Turtle</text>
</a>
</g>
</g>
<!-- Node1&#45;&gt;Node12 -->
<g id="edge19" class="edge"><title>Node1&#45;&gt;Node12</title>
<path fill="none" stroke="midnightblue" d="M70.3043,-271.301C86.314,-255.17 120.762,-222.841 156,-205 160.636,-202.653 165.516,-200.507 170.514,-198.549"/>
<polygon fill="midnightblue" stroke="midnightblue" points="172.037,-201.719 180.237,-195.009 169.643,-195.141 172.037,-201.719"/>
</g>
<!-- Node13 -->
<g id="node13" class="node"><title>Node13</title>
<g id="a_node13"><a xlink:href="../../de/d00/classcommands_1_1_command_list.html#af0d3ea536d38493b14ee45fe04848286" target="_top" xlink:title="commands.CommandList.towards">
<polygon fill="white" stroke="black" points="159.5,-126.5 159.5,-145.5 340.5,-145.5 340.5,-126.5 159.5,-126.5"/>
<text text-anchor="middle" x="250" y="-133.5" font-family="Helvetica,sans-Serif" font-size="10.00">commands.CommandList.towards</text>
</a>
</g>
</g>
<!-- Node1&#45;&gt;Node13 -->
<g id="edge21" class="edge"><title>Node1&#45;&gt;Node13</title>
<path fill="none" stroke="midnightblue" d="M65.3586,-271.316C76.6118,-247.497 109.077,-185.837 156,-156 160.055,-153.422 164.389,-151.171 168.887,-149.207"/>
<polygon fill="midnightblue" stroke="midnightblue" points="170.245,-152.435 178.312,-145.565 167.722,-145.905 170.245,-152.435"/>
</g>
<!-- Node14 -->
<g id="node14" class="node"><title>Node14</title>
<g id="a_node14"><a xlink:href="../../de/d00/classcommands_1_1_command_list.html#a19cc311e99a6fa5e95d0966c09bdc907" target="_top" xlink:title="commands.CommandList.turn\lCommand">
<polygon fill="white" stroke="black" points="168.5,-77 168.5,-107 331.5,-107 331.5,-77 168.5,-77"/>
<text text-anchor="start" x="176.5" y="-95" font-family="Helvetica,sans-Serif" font-size="10.00">commands.CommandList.turn</text>
<text text-anchor="middle" x="250" y="-84" font-family="Helvetica,sans-Serif" font-size="10.00">Command</text>
</a>
</g>
</g>
<!-- Node1&#45;&gt;Node14 -->
<g id="edge23" class="edge"><title>Node1&#45;&gt;Node14</title>
<path fill="none" stroke="midnightblue" d="M63.6672,-271.495C72.094,-243.264 100.906,-159.248 156,-117 158.363,-115.188 160.848,-113.507 163.426,-111.947"/>
<polygon fill="midnightblue" stroke="midnightblue" points="165.333,-114.897 172.507,-107.101 162.037,-108.721 165.333,-114.897"/>
</g>
<!-- Node15 -->
<g id="node15" class="node"><title>Node15</title>
<g id="a_node15"><a xlink:href="../../de/d00/classcommands_1_1_command_list.html#a59070aee1fd5b3efa68c63fb3ab6ed6e" target="_top" xlink:title="commands.CommandList.xCor">
<polygon fill="white" stroke="black" points="167.5,-38.5 167.5,-57.5 332.5,-57.5 332.5,-38.5 167.5,-38.5"/>
<text text-anchor="middle" x="250" y="-45.5" font-family="Helvetica,sans-Serif" font-size="10.00">commands.CommandList.xCor</text>
</a>
</g>
</g>
<!-- Node1&#45;&gt;Node15 -->
<g id="edge25" class="edge"><title>Node1&#45;&gt;Node15</title>
<path fill="none" stroke="midnightblue" d="M62.2585,-271.06C67.1429,-236.856 88.0791,-123.099 156,-68 158.629,-65.8671 161.434,-63.9476 164.369,-62.2209"/>
<polygon fill="midnightblue" stroke="midnightblue" points="166.171,-65.2315 173.519,-57.5989 163.015,-58.9833 166.171,-65.2315"/>
</g>
<!-- Node16 -->
<g id="node16" class="node"><title>Node16</title>
<g id="a_node16"><a xlink:href="../../de/d00/classcommands_1_1_command_list.html#a4d30a46927f84016abe3bc1051baf62c" target="_top" xlink:title="commands.CommandList.yCor">
<polygon fill="white" stroke="black" points="167.5,-0.5 167.5,-19.5 332.5,-19.5 332.5,-0.5 167.5,-0.5"/>
<text text-anchor="middle" x="250" y="-7.5" font-family="Helvetica,sans-Serif" font-size="10.00">commands.CommandList.yCor</text>
</a>
</g>
</g>
<!-- Node1&#45;&gt;Node16 -->
<g id="edge27" class="edge"><title>Node1&#45;&gt;Node16</title>
<path fill="none" stroke="midnightblue" d="M61.4635,-271.41C63.8237,-233.876 77.7194,-95.7293 156,-29 157.783,-27.4799 159.655,-26.0701 161.601,-24.763"/>
<polygon fill="midnightblue" stroke="midnightblue" points="163.595,-27.6553 170.553,-19.6661 160.131,-21.572 163.595,-27.6553"/>
</g>
<!-- Node3 -->
<g id="node3" class="node"><title>Node3</title>
<g id="a_node3"><a xlink:href="../../de/d1c/namespacesimulation_objects.html#a02779129356465b8d266330b211f83f1" target="_top" xlink:title="simulationObjects.Turtle">
<polygon fill="white" stroke="black" points="380.5,-271.5 380.5,-290.5 511.5,-290.5 511.5,-271.5 380.5,-271.5"/>
<text text-anchor="middle" x="446" y="-278.5" font-family="Helvetica,sans-Serif" font-size="10.00">simulationObjects.Turtle</text>
</a>
</g>
</g>
<!-- Node2&#45;&gt;Node3 -->
<g id="edge2" class="edge"><title>Node2&#45;&gt;Node3</title>
<path fill="none" stroke="midnightblue" d="M329.987,-553.79C335.035,-551.04 339.777,-547.805 344,-544 418.176,-477.167 438.277,-349.691 443.377,-300.782"/>
<polygon fill="midnightblue" stroke="midnightblue" points="446.882,-300.889 444.334,-290.605 439.913,-300.233 446.882,-300.889"/>
</g>
<!-- Node4&#45;&gt;Node3 -->
<g id="edge4" class="edge"><title>Node4&#45;&gt;Node3</title>
<path fill="none" stroke="midnightblue" d="M328.768,-504.896C334.224,-502.129 339.382,-498.86 344,-495 406.502,-442.758 432.774,-343.063 441.444,-300.763"/>
<polygon fill="midnightblue" stroke="midnightblue" points="444.894,-301.356 443.36,-290.873 438.022,-300.025 444.894,-301.356"/>
</g>
<!-- Node5&#45;&gt;Node3 -->
<g id="edge6" class="edge"><title>Node5&#45;&gt;Node3</title>
<path fill="none" stroke="midnightblue" d="M324.619,-466.372C331.525,-463.677 338.127,-460.279 344,-456 398.474,-416.317 428.07,-337.631 439.448,-300.836"/>
<polygon fill="midnightblue" stroke="midnightblue" points="442.921,-301.433 442.402,-290.851 436.209,-299.448 442.921,-301.433"/>
</g>
<!-- Node6&#45;&gt;Node3 -->
<g id="edge8" class="edge"><title>Node6&#45;&gt;Node3</title>
<path fill="none" stroke="midnightblue" d="M324.989,-416.851C331.669,-414.095 338.122,-410.841 344,-407 386.639,-379.135 419.628,-327.356 435.188,-299.644"/>
<polygon fill="midnightblue" stroke="midnightblue" points="438.399,-301.066 440.117,-290.611 432.254,-297.713 438.399,-301.066"/>
</g>
<!-- Node7&#45;&gt;Node3 -->
<g id="edge10" class="edge"><title>Node7&#45;&gt;Node3</title>
<path fill="none" stroke="midnightblue" d="M315.958,-378.405C325.632,-375.739 335.275,-372.338 344,-368 378.995,-350.599 411.771,-318.296 430.027,-298.325"/>
<polygon fill="midnightblue" stroke="midnightblue" points="432.876,-300.39 436.927,-290.6 427.655,-295.727 432.876,-300.39"/>
</g>
<!-- Node8&#45;&gt;Node3 -->
<g id="edge12" class="edge"><title>Node8&#45;&gt;Node3</title>
<path fill="none" stroke="midnightblue" d="M310.29,-328.988C321.542,-325.877 333.177,-322.482 344,-319 367.038,-311.589 392.542,-301.982 412.158,-294.282"/>
<polygon fill="midnightblue" stroke="midnightblue" points="413.546,-297.497 421.556,-290.562 410.97,-290.988 413.546,-297.497"/>
</g>
<!-- Node9&#45;&gt;Node3 -->
<g id="edge14" class="edge"><title>Node9&#45;&gt;Node3</title>
<path fill="none" stroke="midnightblue" d="M337.504,-291.528C348.453,-290.456 359.583,-289.366 370.327,-288.313"/>
<polygon fill="midnightblue" stroke="midnightblue" points="370.88,-291.776 380.491,-287.318 370.197,-284.809 370.88,-291.776"/>
</g>
<!-- Node10&#45;&gt;Node3 -->
<g id="edge16" class="edge"><title>Node10&#45;&gt;Node3</title>
<path fill="none" stroke="midnightblue" d="M335.527,-270.278C347.019,-271.404 358.748,-272.553 370.055,-273.66"/>
<polygon fill="midnightblue" stroke="midnightblue" points="370.008,-277.172 380.302,-274.664 370.691,-270.205 370.008,-277.172"/>
</g>
<!-- Node11&#45;&gt;Node3 -->
<g id="edge18" class="edge"><title>Node11&#45;&gt;Node3</title>
<path fill="none" stroke="midnightblue" d="M304.957,-233.517C317.846,-236.204 331.491,-239.394 344,-243 367.562,-249.793 393.432,-259.573 413.091,-267.51"/>
<polygon fill="midnightblue" stroke="midnightblue" points="411.902,-270.805 422.482,-271.352 414.552,-264.326 411.902,-270.805"/>
</g>
<!-- Node12&#45;&gt;Node3 -->
<g id="edge20" class="edge"><title>Node12&#45;&gt;Node3</title>
<path fill="none" stroke="midnightblue" d="M319.162,-195.063C327.71,-197.894 336.186,-201.188 344,-205 376.128,-220.672 408.263,-247.171 427.388,-264.373"/>
<polygon fill="midnightblue" stroke="midnightblue" points="425.245,-267.157 434.981,-271.334 429.975,-261.996 425.245,-267.157"/>
</g>
<!-- Node13&#45;&gt;Node3 -->
<g id="edge22" class="edge"><title>Node13&#45;&gt;Node3</title>
<path fill="none" stroke="midnightblue" d="M321.08,-145.604C329.133,-148.274 336.967,-151.673 344,-156 387.175,-182.561 419.94,-234.383 435.323,-262.23"/>
<polygon fill="midnightblue" stroke="midnightblue" points="432.383,-264.154 440.192,-271.314 438.553,-260.847 432.383,-264.154"/>
</g>
<!-- Node14&#45;&gt;Node3 -->
<g id="edge24" class="edge"><title>Node14&#45;&gt;Node3</title>
<path fill="none" stroke="midnightblue" d="M326.915,-107.035C332.98,-109.812 338.773,-113.102 344,-117 395.039,-155.057 426.026,-227.219 438.556,-261.706"/>
<polygon fill="midnightblue" stroke="midnightblue" points="435.372,-263.205 441.978,-271.489 441.98,-260.894 435.372,-263.205"/>
</g>
<!-- Node15&#45;&gt;Node3 -->
<g id="edge26" class="edge"><title>Node15&#45;&gt;Node3</title>
<path fill="none" stroke="midnightblue" d="M325.913,-57.5327C332.407,-60.261 338.563,-63.6931 344,-68 407.61,-118.387 433.274,-218.501 441.613,-261.084"/>
<polygon fill="midnightblue" stroke="midnightblue" points="438.194,-261.844 443.448,-271.045 445.078,-260.576 438.194,-261.844"/>
</g>
<!-- Node16&#45;&gt;Node3 -->
<g id="edge28" class="edge"><title>Node16&#45;&gt;Node3</title>
<path fill="none" stroke="midnightblue" d="M328.909,-19.5555C334.333,-22.0901 339.446,-25.1983 344,-29 417.696,-90.5168 438.058,-213.657 443.303,-261.428"/>
<polygon fill="midnightblue" stroke="midnightblue" points="439.821,-261.788 444.292,-271.394 446.787,-261.097 439.821,-261.788"/>
</g>
</g>
</svg>
        <g id="navigator" transform="translate(0 0)" fill="#404254">
                <rect fill="#f2f5e9" fill-opacity="0.5" stroke="#606060" stroke-width=".5" x="0" y="0" width="60" height="60"/>
                <use id="zoomplus" xlink:href="#zoomPlus" x="17" y="9" onmousedown="handleZoom(evt,'in')"/>
                <use id="zoomminus" xlink:href="#zoomMin" x="42" y="9" onmousedown="handleZoom(evt,'out')"/>
                <use id="reset" xlink:href="#resetDef" x="30" y="36" onmousedown="handleReset()"/>
                <g id="arrowUp" xlink:href="#dirArrow" transform="translate(30 24)" onmousedown="handlePan(0,-1)">
                  <use xlink:href="#rim" fill="#404040">
                        <set attributeName="fill" to="#808080" begin="arrowUp.mouseover" end="arrowUp.mouseout"/>
                  </use>
                  <path fill="none" stroke="white" stroke-width="1.5" d="M0,-3.0v7 M-2.5,-0.5L0,-3.0L2.5,-0.5"/>
                </g>
                <g id="arrowRight" xlink:href="#dirArrow" transform="rotate(90) translate(36 -43)" onmousedown="handlePan(1,0)">
                  <use xlink:href="#rim" fill="#404040">
                        <set attributeName="fill" to="#808080" begin="arrowRight.mouseover" end="arrowRight.mouseout"/>
                  </use>
                  <path fill="none" stroke="white" stroke-width="1.5" d="M0,-3.0v7 M-2.5,-0.5L0,-3.0L2.5,-0.5"/>
                </g>
                <g id="arrowDown" xlink:href="#dirArrow" transform="rotate(180) translate(-30 -48)" onmousedown="handlePan(0,1)">
                  <use xlink:href="#rim" fill="#404040">
                        <set attributeName="fill" to="#808080" begin="arrowDown.mouseover" end="arrowDown.mouseout"/>
                  </use>
                  <path fill="none" stroke="white" stroke-width="1.5" d="M0,-3.0v7 M-2.5,-0.5L0,-3.0L2.5,-0.5"/>
                </g>
                <g id="arrowLeft" xlink:href="#dirArrow" transform="rotate(270) translate(-36 17)" onmousedown="handlePan(-1,0)">
                  <use xlink:href="#rim" fill="#404040">
                        <set attributeName="fill" to="#808080" begin="arrowLeft.mouseover" end="arrowLeft.mouseout"/>
                  </use>
                  <path fill="none" stroke="white" stroke-width="1.5" d="M0,-3.0v7 M-2.5,-0.5L0,-3.0L2.5,-0.5"/>
                </g>
        </g>
        <svg viewBox="0 0 15 15" width="100%" height="30px" preserveAspectRatio="xMaxYMin meet">
         <g id="arrow_out" transform="scale(0.3 0.3)">
          <a xlink:href="classcompiler_1_1_a_s_t_a8f54e642baf772b6269010527c61f7f7_cgraph_org.svg" target="_base">
           <rect id="button" ry="5" rx="5" y="6" x="6" height="38" width="38"
                fill="#f2f5e9" fill-opacity="0.5" stroke="#606060" stroke-width="1.0"/>
           <path id="arrow"
             d="M 11.500037,31.436501 C 11.940474,20.09759 22.043105,11.32322 32.158766,21.979434 L 37.068811,17.246167 C 37.068811,17.246167 37.088388,32 37.088388,32 L 22.160133,31.978069 C 22.160133,31.978069 26.997745,27.140456 26.997745,27.140456 C 18.528582,18.264221 13.291696,25.230495 11.500037,31.436501 z"
             style="fill:#404040;"/>
          </a>
         </g>
        </svg>
</svg>
