<?xml version="1.0" encoding="UTF-8" standalone="no"?>
<!DOCTYPE svg PUBLIC "-//W3C//DTD SVG 1.1//EN"
 "http://www.w3.org/Graphics/SVG/1.1/DTD/svg11.dtd">
<!-- Generated by graphviz version 2.36.0 (20140111.2315)
 -->
<!-- Title: compiler.AST.generate Pages: 1 -->
<svg width="1228pt" height="207pt"
 viewBox="0.00 0.00 1228.00 207.00" xmlns="http://www.w3.org/2000/svg" xmlns:xlink="http://www.w3.org/1999/xlink">
<g id="graph0" class="graph" transform="scale(1 1) rotate(0) translate(4 203)">
<title>compiler.AST.generate</title>
<polygon fill="white" stroke="none" points="-4,4 -4,-203 1224,-203 1224,4 -4,4"/>
<!-- Node1 -->
<g id="node1" class="node"><title>Node1</title>
<polygon fill="#bfbfbf" stroke="black" points="0,-78.5 0,-97.5 124,-97.5 124,-78.5 0,-78.5"/>
<text text-anchor="middle" x="62" y="-85.5" font-family="Helvetica,sans-Serif" font-size="10.00">compiler.AST.generate</text>
</g>
<!-- Node2 -->
<g id="node2" class="node"><title>Node2</title>
<g id="a_node2"><a xlink:href="../../db/d93/classcompiler_1_1_compiler.html#a8a90aa273bacff724a034959914a4c2d" target="_top" xlink:title="compiler.Compiler.compile">
<polygon fill="white" stroke="black" points="160.5,-78.5 160.5,-97.5 303.5,-97.5 303.5,-78.5 160.5,-78.5"/>
<text text-anchor="middle" x="232" y="-85.5" font-family="Helvetica,sans-Serif" font-size="10.00">compiler.Compiler.compile</text>
</a>
</g>
</g>
<!-- Node1&#45;&gt;Node2 -->
<g id="edge1" class="edge"><title>Node1&#45;&gt;Node2</title>
<path fill="none" stroke="midnightblue" d="M134.152,-88C142.784,-88 151.601,-88 160.227,-88"/>
<polygon fill="midnightblue" stroke="midnightblue" points="134.127,-84.5001 124.127,-88 134.127,-91.5001 134.127,-84.5001"/>
</g>
<!-- Node3 -->
<g id="node3" class="node"><title>Node3</title>
<g id="a_node3"><a xlink:href="../../db/d93/classcompiler_1_1_compiler.html#a90d16b98c8e950bbaf772f5b93092a3f" target="_top" xlink:title="compiler.Compiler.main">
<polygon fill="white" stroke="black" points="354.5,-147.5 354.5,-166.5 483.5,-166.5 483.5,-147.5 354.5,-147.5"/>
<text text-anchor="middle" x="419" y="-154.5" font-family="Helvetica,sans-Serif" font-size="10.00">compiler.Compiler.main</text>
</a>
</g>
</g>
<!-- Node2&#45;&gt;Node3 -->
<g id="edge2" class="edge"><title>Node2&#45;&gt;Node3</title>
<path fill="none" stroke="midnightblue" d="M260.232,-102.112C281.53,-112.743 312.107,-127.126 340,-137 351.202,-140.965 363.564,-144.502 375.081,-147.458"/>
<polygon fill="midnightblue" stroke="midnightblue" points="261.647,-98.9049 251.143,-97.5207 258.491,-105.153 261.647,-98.9049"/>
</g>
<!-- Node4 -->
<g id="node4" class="node"><title>Node4</title>
<g id="a_node4"><a xlink:href="../../db/d32/classcontroller_1_1_main_controller.html#a6badeb343877f4b50f069b47afed495c" target="_top" xlink:title="controller.MainController.pass\lInput">
<polygon fill="white" stroke="black" points="340,-98 340,-128 498,-128 498,-98 340,-98"/>
<text text-anchor="start" x="348" y="-116" font-family="Helvetica,sans-Serif" font-size="10.00">controller.MainController.pass</text>
<text text-anchor="middle" x="419" y="-105" font-family="Helvetica,sans-Serif" font-size="10.00">Input</text>
</a>
</g>
</g>
<!-- Node2&#45;&gt;Node4 -->
<g id="edge3" class="edge"><title>Node2&#45;&gt;Node4</title>
<path fill="none" stroke="midnightblue" d="M313.565,-98.8872C322.238,-100.059 331.053,-101.25 339.698,-102.419"/>
<polygon fill="midnightblue" stroke="midnightblue" points="313.847,-95.3935 303.468,-97.5227 312.909,-102.33 313.847,-95.3935"/>
</g>
<!-- Node12 -->
<g id="node12" class="node"><title>Node12</title>
<g id="a_node12"><a xlink:href="../../d8/ded/class_j_unit_test_1_1_compiler_test.html#a4132f77013965dda40f6d62699de349a" target="_top" xlink:title="JUnitTest.CompilerTest.test\lGrammarException">
<polygon fill="white" stroke="black" points="347.5,-49 347.5,-79 490.5,-79 490.5,-49 347.5,-49"/>
<text text-anchor="start" x="355.5" y="-67" font-family="Helvetica,sans-Serif" font-size="10.00">JUnitTest.CompilerTest.test</text>
<text text-anchor="middle" x="419" y="-56" font-family="Helvetica,sans-Serif" font-size="10.00">GrammarException</text>
</a>
</g>
</g>
<!-- Node2&#45;&gt;Node12 -->
<g id="edge13" class="edge"><title>Node2&#45;&gt;Node12</title>
<path fill="none" stroke="midnightblue" d="M313.876,-77.508C325.011,-76.0635 336.374,-74.5893 347.307,-73.171"/>
<polygon fill="midnightblue" stroke="midnightblue" points="313.199,-74.0664 303.732,-78.8239 314.1,-81.0082 313.199,-74.0664"/>
</g>
<!-- Node13 -->
<g id="node13" class="node"><title>Node13</title>
<g id="a_node13"><a xlink:href="../../d8/ded/class_j_unit_test_1_1_compiler_test.html#accbcdde8d934dd7acc552820845d6b0f" target="_top" xlink:title="JUnitTest.CompilerTest.test\lSyntaxException">
<polygon fill="white" stroke="black" points="347.5,-0 347.5,-30 490.5,-30 490.5,-0 347.5,-0"/>
<text text-anchor="start" x="355.5" y="-18" font-family="Helvetica,sans-Serif" font-size="10.00">JUnitTest.CompilerTest.test</text>
<text text-anchor="middle" x="419" y="-7" font-family="Helvetica,sans-Serif" font-size="10.00">SyntaxException</text>
</a>
</g>
</g>
<!-- Node2&#45;&gt;Node13 -->
<g id="edge14" class="edge"><title>Node2&#45;&gt;Node13</title>
<path fill="none" stroke="midnightblue" d="M261.598,-74.1227C282.942,-64.024 312.961,-50.3608 340,-40 349.03,-36.54 358.766,-33.1542 368.196,-30.0473"/>
<polygon fill="midnightblue" stroke="midnightblue" points="259.965,-71.0241 252.444,-78.4871 262.977,-77.3427 259.965,-71.0241"/>
</g>
<!-- Node5 -->
<g id="node5" class="node"><title>Node5</title>
<g id="a_node5"><a xlink:href="../../dd/dea/classgui_1_1_g_u_i_scene.html#a7cb2b00ed820aecde169a5e14cf0d468" target="_top" xlink:title="gui.GUIScene.createGUI">
<polygon fill="white" stroke="black" points="728,-122.5 728,-141.5 860,-141.5 860,-122.5 728,-122.5"/>
<text text-anchor="middle" x="794" y="-129.5" font-family="Helvetica,sans-Serif" font-size="10.00">gui.GUIScene.createGUI</text>
</a>
</g>
</g>
<!-- Node4&#45;&gt;Node5 -->
<g id="edge4" class="edge"><title>Node4&#45;&gt;Node5</title>
<path fill="none" stroke="midnightblue" d="M508.389,-129.202C517.02,-130.341 525.664,-131.31 534,-132 599.874,-137.452 675.495,-136.643 727.949,-134.965"/>
<polygon fill="midnightblue" stroke="midnightblue" points="508.67,-125.707 498.283,-127.793 507.704,-132.64 508.67,-125.707"/>
</g>
<!-- Node10 -->
<g id="node10" class="node"><title>Node10</title>
<g id="a_node10"><a xlink:href="../../dd/dea/classgui_1_1_g_u_i_scene.html#a47e424a495817f5806f45064f77a632b" target="_top" xlink:title="gui.GUIScene.getRightBox">
<polygon fill="white" stroke="black" points="542,-103.5 542,-122.5 684,-122.5 684,-103.5 542,-103.5"/>
<text text-anchor="middle" x="613" y="-110.5" font-family="Helvetica,sans-Serif" font-size="10.00">gui.GUIScene.getRightBox</text>
</a>
</g>
</g>
<!-- Node4&#45;&gt;Node10 -->
<g id="edge10" class="edge"><title>Node4&#45;&gt;Node10</title>
<path fill="none" stroke="midnightblue" d="M508.315,-113C519.507,-113 530.84,-113 541.699,-113"/>
<polygon fill="midnightblue" stroke="midnightblue" points="508.094,-109.5 498.094,-113 508.094,-116.5 508.094,-109.5"/>
</g>
<!-- Node11 -->
<g id="node11" class="node"><title>Node11</title>
<g id="a_node11"><a xlink:href="../../d6/d6a/class_j_unit_test_1_1_backend_a_p_i_test.html#a86dd50c40468e1647c7c01614dc7d30d" target="_top" xlink:title="JUnitTest.BackendAPITest.test">
<polygon fill="white" stroke="black" points="534.5,-65.5 534.5,-84.5 691.5,-84.5 691.5,-65.5 534.5,-65.5"/>
<text text-anchor="middle" x="613" y="-72.5" font-family="Helvetica,sans-Serif" font-size="10.00">JUnitTest.BackendAPITest.test</text>
</a>
</g>
</g>
<!-- Node4&#45;&gt;Node11 -->
<g id="edge12" class="edge"><title>Node4&#45;&gt;Node11</title>
<path fill="none" stroke="midnightblue" d="M505.921,-95.9949C525.856,-92.0493 546.377,-87.9878 563.995,-84.5009"/>
<polygon fill="midnightblue" stroke="midnightblue" points="505.014,-92.6064 495.883,-97.9814 506.373,-99.4732 505.014,-92.6064"/>
</g>
<!-- Node6 -->
<g id="node6" class="node"><title>Node6</title>
<g id="a_node6"><a xlink:href="../../dd/dea/classgui_1_1_g_u_i_scene.html#a74967ac937baee81b9eec1b2bc38167c" target="_top" xlink:title="gui.GUIScene.createScene">
<polygon fill="white" stroke="black" points="896.5,-160.5 896.5,-179.5 1041.5,-179.5 1041.5,-160.5 896.5,-160.5"/>
<text text-anchor="middle" x="969" y="-167.5" font-family="Helvetica,sans-Serif" font-size="10.00">gui.GUIScene.createScene</text>
</a>
</g>
</g>
<!-- Node5&#45;&gt;Node6 -->
<g id="edge5" class="edge"><title>Node5&#45;&gt;Node6</title>
<path fill="none" stroke="midnightblue" d="M848.505,-143.753C872.967,-149.126 901.571,-155.409 924.659,-160.48"/>
<polygon fill="midnightblue" stroke="midnightblue" points="849.173,-140.316 838.655,-141.589 847.671,-147.153 849.173,-140.316"/>
</g>
<!-- Node9 -->
<g id="node9" class="node"><title>Node9</title>
<g id="a_node9"><a xlink:href="../../dd/dea/classgui_1_1_g_u_i_scene.html#a16324ddc026310495f84e77bbb311b2c" target="_top" xlink:title="gui.GUIScene.addButtons">
<polygon fill="white" stroke="black" points="899,-122.5 899,-141.5 1039,-141.5 1039,-122.5 899,-122.5"/>
<text text-anchor="middle" x="969" y="-129.5" font-family="Helvetica,sans-Serif" font-size="10.00">gui.GUIScene.addButtons</text>
</a>
</g>
</g>
<!-- Node5&#45;&gt;Node9 -->
<g id="edge8" class="edge"><title>Node5&#45;&gt;Node9</title>
<path fill="none" stroke="midnightblue" d="M870.504,-125.299C879.896,-125.215 889.463,-125.239 898.754,-125.371"/>
<polygon fill="midnightblue" stroke="midnightblue" points="870.357,-121.8 860.404,-125.432 870.449,-128.8 870.357,-121.8"/>
</g>
<!-- Node7 -->
<g id="node7" class="node"><title>Node7</title>
<g id="a_node7"><a xlink:href="../../d6/d0e/classcontroller_1_1_s_logo_main.html#ab5379c32fef791f21ad51abde7d268c0" target="_top" xlink:title="controller.SLogoMain.start">
<polygon fill="white" stroke="black" points="1078,-179.5 1078,-198.5 1220,-198.5 1220,-179.5 1078,-179.5"/>
<text text-anchor="middle" x="1149" y="-186.5" font-family="Helvetica,sans-Serif" font-size="10.00">controller.SLogoMain.start</text>
</a>
</g>
</g>
<!-- Node6&#45;&gt;Node7 -->
<g id="edge6" class="edge"><title>Node6&#45;&gt;Node7</title>
<path fill="none" stroke="midnightblue" d="M1051.82,-178.734C1060.56,-179.666 1069.38,-180.608 1077.96,-181.524"/>
<polygon fill="midnightblue" stroke="midnightblue" points="1051.95,-175.227 1041.63,-177.646 1051.2,-182.188 1051.95,-175.227"/>
</g>
<!-- Node8 -->
<g id="node8" class="node"><title>Node8</title>
<g id="a_node8"><a xlink:href="../../dd/d48/classgui_1_1_g_u_i_start.html#a82d08814fef5331d82c4763a2426ffce" target="_top" xlink:title="gui.GUIStart.start">
<polygon fill="white" stroke="black" points="1098.5,-141.5 1098.5,-160.5 1199.5,-160.5 1199.5,-141.5 1098.5,-141.5"/>
<text text-anchor="middle" x="1149" y="-148.5" font-family="Helvetica,sans-Serif" font-size="10.00">gui.GUIStart.start</text>
</a>
</g>
</g>
<!-- Node6&#45;&gt;Node8 -->
<g id="edge7" class="edge"><title>Node6&#45;&gt;Node8</title>
<path fill="none" stroke="midnightblue" d="M1051.97,-161.25C1067.81,-159.559 1083.95,-157.837 1098.36,-156.298"/>
<polygon fill="midnightblue" stroke="midnightblue" points="1051.2,-157.812 1041.63,-162.354 1051.95,-164.773 1051.2,-157.812"/>
</g>
<!-- Node9&#45;&gt;Node5 -->
<g id="edge9" class="edge"><title>Node9&#45;&gt;Node5</title>
<path fill="none" stroke="midnightblue" d="M888.585,-138.73C879.154,-138.784 869.609,-138.73 860.404,-138.568"/>
<polygon fill="midnightblue" stroke="midnightblue" points="888.789,-142.228 898.754,-138.629 888.719,-135.228 888.789,-142.228"/>
</g>
<!-- Node10&#45;&gt;Node5 -->
<g id="edge11" class="edge"><title>Node10&#45;&gt;Node5</title>
<path fill="none" stroke="midnightblue" d="M694.45,-121.539C705.657,-122.729 717.056,-123.939 727.933,-125.093"/>
<polygon fill="midnightblue" stroke="midnightblue" points="694.545,-118.03 684.232,-120.455 693.806,-124.991 694.545,-118.03"/>
</g>
</g>
</svg>
