<?xml version="1.0" encoding="UTF-8" standalone="no"?>
<!DOCTYPE svg PUBLIC "-//W3C//DTD SVG 1.1//EN"
 "http://www.w3.org/Graphics/SVG/1.1/DTD/svg11.dtd">
<!-- Generated by graphviz version 2.36.0 (20140111.2315)
 -->
<!-- Title: compiler.AST Pages: 1 -->
<svg width="309pt" height="108pt"
 viewBox="0.00 0.00 309.00 108.00" xmlns="http://www.w3.org/2000/svg" xmlns:xlink="http://www.w3.org/1999/xlink">
<g id="graph0" class="graph" transform="scale(1 1) rotate(0) translate(4 104)">
<title>compiler.AST</title>
<polygon fill="white" stroke="none" points="-4,4 -4,-104 305,-104 305,4 -4,4"/>
<!-- Node1 -->
<g id="node1" class="node"><title>Node1</title>
<polygon fill="#bfbfbf" stroke="black" points="114.5,-0.5 114.5,-19.5 193.5,-19.5 193.5,-0.5 114.5,-0.5"/>
<text text-anchor="middle" x="154" y="-7.5" font-family="Helvetica,sans-Serif" font-size="10.00">compiler.AST</text>
</g>
<!-- Node2 -->
<g id="node2" class="node"><title>Node2</title>
<polygon fill="white" stroke="#bfbfbf" points="0,-69 0,-99 148,-99 148,-69 0,-69"/>
<text text-anchor="start" x="8" y="-87" font-family="Helvetica,sans-Serif" font-size="10.00">List&lt; compiler.SymbolTable</text>
<text text-anchor="middle" x="74" y="-76" font-family="Helvetica,sans-Serif" font-size="10.00">Entry &gt;</text>
</g>
<!-- Node2&#45;&gt;Node1 -->
<g id="edge1" class="edge"><title>Node2&#45;&gt;Node1</title>
<path fill="none" stroke="#9a32cd" stroke-dasharray="5,2" d="M97.5214,-61.8307C113.104,-47.8062 132.73,-30.1426 144.268,-19.7589"/>
<polygon fill="#9a32cd" stroke="#9a32cd" points="94.897,-59.4839 89.8054,-68.7751 99.5798,-64.687 94.897,-59.4839"/>
<text text-anchor="middle" x="155" y="-41.5" font-family="Helvetica,sans-Serif" font-size="10.00"> symbolTable</text>
</g>
<!-- Node3 -->
<g id="node3" class="node"><title>Node3</title>
<polygon fill="white" stroke="#bfbfbf" points="166.5,-74.5 166.5,-93.5 301.5,-93.5 301.5,-74.5 166.5,-74.5"/>
<text text-anchor="middle" x="234" y="-81.5" font-family="Helvetica,sans-Serif" font-size="10.00">Stack&lt; compiler.Node &gt;</text>
</g>
<!-- Node3&#45;&gt;Node1 -->
<g id="edge2" class="edge"><title>Node3&#45;&gt;Node1</title>
<path fill="none" stroke="#9a32cd" stroke-dasharray="5,2" d="M219.404,-66.9036C211.095,-58.0451 200.314,-47.0472 190,-38 182.482,-31.4056 173.482,-24.6556 166.362,-19.5542"/>
<polygon fill="#9a32cd" stroke="#9a32cd" points="216.899,-69.3499 226.256,-74.3203 222.041,-64.5999 216.899,-69.3499"/>
<text text-anchor="middle" x="230.5" y="-41.5" font-family="Helvetica,sans-Serif" font-size="10.00"> syntaxTree</text>
</g>
</g>
</svg>
