<?xml version="1.0" encoding="UTF-8" standalone="no"?>
<!DOCTYPE svg PUBLIC "-//W3C//DTD SVG 1.1//EN"
 "http://www.w3.org/Graphics/SVG/1.1/DTD/svg11.dtd">
<!-- Generated by graphviz version 2.36.0 (20140111.2315)
 -->
<!-- Title: gui.GUIScene Pages: 1 -->
<!--zoomable 545 -->
<svg id="main" version="1.1" xmlns="http://www.w3.org/2000/svg" xmlns:xlink="http://www.w3.org/1999/xlink" xml:space="preserve" onload="init(evt)">
<style type="text/css"><![CDATA[
.edge:hover path { stroke: red; }
.edge:hover polygon { stroke: red; fill: red; }
]]></style>
<script type="text/javascript"><![CDATA[
var edges = document.getElementsByTagName('g');
if (edges && edges.length) {
  for (var i=0;i<edges.length;i++) {
    if (edges[i].id.substr(0,4)=='edge') {
      edges[i].setAttribute('class','edge');
    }
  }
}
]]></script>
        <defs>
                <circle id="rim" cx="0" cy="0" r="7"/>
                <circle id="rim2" cx="0" cy="0" r="3.5"/>
                <g id="zoomPlus">
                        <use xlink:href="#rim" fill="#404040">
                                <set attributeName="fill" to="#808080" begin="zoomplus.mouseover" end="zoomplus.mouseout"/>
                        </use>
                        <path d="M-4,0h8M0,-4v8" fill="none" stroke="white" stroke-width="1.5" pointer-events="none"/>
                </g>
                <g id="zoomMin">
                        <use xlink:href="#rim" fill="#404040">
                                <set attributeName="fill" to="#808080" begin="zoomminus.mouseover" end="zoomminus.mouseout"/>
                        </use>
                        <path d="M-4,0h8" fill="none" stroke="white" stroke-width="1.5" pointer-events="none"/>
                </g>
                <g id="dirArrow">
                        <path fill="none" stroke="white" stroke-width="1.5" d="M0,-3.0v7 M-2.5,-0.5L0,-3.0L2.5,-0.5"/>
                </g>
               <g id="resetDef">
                       <use xlink:href="#rim2" fill="#404040">
                               <set attributeName="fill" to="#808080" begin="reset.mouseover" end="reset.mouseout"/>
                       </use>
               </g>
        </defs>

<script type="text/javascript">
var viewWidth = 1094;
var viewHeight = 545;
var sectionId = 'dynsection-0';
</script>
<script xlink:href="../../svgpan.js"/>
<svg id="graph" class="graph">
<g id="viewport">
<title>gui.GUIScene</title>
<polygon fill="white" stroke="none" points="-4,4 -4,-540.51 1090,-540.51 1090,4 -4,4"/>
<!-- Node1 -->
<g id="node1" class="node"><title>Node1</title>
<polygon fill="#bfbfbf" stroke="black" points="1004.5,-232.01 1004.5,-251.01 1085.5,-251.01 1085.5,-232.01 1004.5,-232.01"/>
<text text-anchor="middle" x="1045" y="-239.01" font-family="Helvetica,sans-Serif" font-size="10.00">gui.GUIScene</text>
</g>
<!-- Node2 -->
<g id="node2" class="node"><title>Node2</title>
<g id="a_node2"><a xlink:href="../../dd/dd2/classsimulation_objects_1_1_pen.html" target="_top" xlink:title="simulationObjects.Pen">
<polygon fill="white" stroke="black" points="751.5,-488.01 751.5,-507.01 874.5,-507.01 874.5,-488.01 751.5,-488.01"/>
<text text-anchor="middle" x="813" y="-495.01" font-family="Helvetica,sans-Serif" font-size="10.00">simulationObjects.Pen</text>
</a>
</g>
</g>
<!-- Node2&#45;&gt;Node1 -->
<g id="edge1" class="edge"><title>Node2&#45;&gt;Node1</title>
<path fill="none" stroke="#9a32cd" stroke-dasharray="5,2" d="M884.653,-499.715C919.285,-497.056 959.197,-487.855 986,-462.51 1017.85,-432.394 1037.93,-289.574 1042.83,-251.085"/>
<polygon fill="#9a32cd" stroke="#9a32cd" points="884.341,-496.227 874.569,-500.32 884.761,-503.214 884.341,-496.227"/>
<text text-anchor="middle" x="942" y="-501.51" font-family="Helvetica,sans-Serif" font-size="10.00"> myPen</text>
</g>
<!-- Node3 -->
<g id="node3" class="node"><title>Node3</title>
<polygon fill="white" stroke="#bfbfbf" points="543.5,-498.01 543.5,-517.01 584.5,-517.01 584.5,-498.01 543.5,-498.01"/>
<text text-anchor="middle" x="564" y="-505.01" font-family="Helvetica,sans-Serif" font-size="10.00">Color</text>
</g>
<!-- Node3&#45;&gt;Node2 -->
<g id="edge2" class="edge"><title>Node3&#45;&gt;Node2</title>
<path fill="none" stroke="#9a32cd" stroke-dasharray="5,2" d="M594.869,-506.301C633.507,-504.737 701.74,-501.974 751.429,-499.962"/>
<polygon fill="#9a32cd" stroke="#9a32cd" points="594.646,-502.807 584.796,-506.709 594.929,-509.801 594.646,-502.807"/>
<text text-anchor="middle" x="699" y="-506.51" font-family="Helvetica,sans-Serif" font-size="10.00"> myColor</text>
</g>
<!-- Node4 -->
<g id="node4" class="node"><title>Node4</title>
<g id="a_node4"><a xlink:href="../../dd/d5e/classgui_1_1_read_and_write.html" target="_top" xlink:title="gui.ReadAndWrite">
<polygon fill="white" stroke="black" points="763.5,-441.01 763.5,-460.01 862.5,-460.01 862.5,-441.01 763.5,-441.01"/>
<text text-anchor="middle" x="813" y="-448.01" font-family="Helvetica,sans-Serif" font-size="10.00">gui.ReadAndWrite</text>
</a>
</g>
</g>
<!-- Node4&#45;&gt;Node1 -->
<g id="edge3" class="edge"><title>Node4&#45;&gt;Node1</title>
<path fill="none" stroke="#9a32cd" stroke-dasharray="5,2" d="M872.853,-451.899C909.521,-449.674 955.382,-440.84 986,-413.51 1035.84,-369.022 1042.91,-280.261 1043.87,-251.064"/>
<polygon fill="#9a32cd" stroke="#9a32cd" points="872.604,-448.406 862.774,-452.361 872.924,-455.399 872.604,-448.406"/>
<text text-anchor="middle" x="942" y="-452.51" font-family="Helvetica,sans-Serif" font-size="10.00"> saver</text>
</g>
<!-- Node5 -->
<g id="node5" class="node"><title>Node5</title>
<polygon fill="white" stroke="#bfbfbf" points="528.5,-460.01 528.5,-479.01 599.5,-479.01 599.5,-460.01 528.5,-460.01"/>
<text text-anchor="middle" x="564" y="-467.01" font-family="Helvetica,sans-Serif" font-size="10.00">FileChooser</text>
</g>
<!-- Node5&#45;&gt;Node4 -->
<g id="edge4" class="edge"><title>Node5&#45;&gt;Node4</title>
<path fill="none" stroke="#9a32cd" stroke-dasharray="5,2" d="M609.842,-466.061C653.152,-462.729 718.566,-457.697 763.173,-454.266"/>
<polygon fill="#9a32cd" stroke="#9a32cd" points="609.306,-462.592 599.604,-466.848 609.843,-469.571 609.306,-462.592"/>
<text text-anchor="middle" x="699" y="-464.51" font-family="Helvetica,sans-Serif" font-size="10.00"> fileChooser</text>
</g>
<!-- Node6 -->
<g id="node6" class="node"><title>Node6</title>
<g id="a_node6"><a xlink:href="../../db/d32/classcontroller_1_1_main_controller.html" target="_top" xlink:title="controller.MainController">
<polygon fill="white" stroke="black" points="746.5,-384.01 746.5,-403.01 879.5,-403.01 879.5,-384.01 746.5,-384.01"/>
<text text-anchor="middle" x="813" y="-391.01" font-family="Helvetica,sans-Serif" font-size="10.00">controller.MainController</text>
</a>
</g>
</g>
<!-- Node6&#45;&gt;Node1 -->
<g id="edge5" class="edge"><title>Node6&#45;&gt;Node1</title>
<path fill="none" stroke="#9a32cd" stroke-dasharray="5,2" d="M890.074,-398.48C922.431,-396.895 958.872,-389.792 986,-369.51 1026.06,-339.562 1039.15,-275.498 1042.78,-251.161"/>
<polygon fill="#9a32cd" stroke="#9a32cd" points="889.612,-394.993 879.729,-398.81 889.835,-401.989 889.612,-394.993"/>
<text text-anchor="middle" x="942" y="-401.51" font-family="Helvetica,sans-Serif" font-size="10.00"> controller</text>
</g>
<!-- Node7 -->
<g id="node7" class="node"><title>Node7</title>
<polygon fill="white" stroke="#bfbfbf" points="522,-422.01 522,-441.01 606,-441.01 606,-422.01 522,-422.01"/>
<text text-anchor="middle" x="564" y="-429.01" font-family="Helvetica,sans-Serif" font-size="10.00">List&lt; String &gt;</text>
</g>
<!-- Node7&#45;&gt;Node6 -->
<g id="edge6" class="edge"><title>Node7&#45;&gt;Node6</title>
<path fill="none" stroke="#9a32cd" stroke-dasharray="5,2" d="M616.32,-424.758C648.452,-420.409 690.694,-414.471 728,-408.51 738.386,-406.851 749.473,-404.958 760.072,-403.089"/>
<polygon fill="#9a32cd" stroke="#9a32cd" points="615.705,-421.309 606.262,-426.112 616.639,-428.246 615.705,-421.309"/>
<text text-anchor="middle" x="699" y="-420.51" font-family="Helvetica,sans-Serif" font-size="10.00"> history</text>
</g>
<!-- Node8 -->
<g id="node8" class="node"><title>Node8</title>
<g id="a_node8"><a xlink:href="../../db/d93/classcompiler_1_1_compiler.html" target="_top" xlink:title="compiler.Compiler">
<polygon fill="white" stroke="black" points="512.5,-384.01 512.5,-403.01 615.5,-403.01 615.5,-384.01 512.5,-384.01"/>
<text text-anchor="middle" x="564" y="-391.01" font-family="Helvetica,sans-Serif" font-size="10.00">compiler.Compiler</text>
</a>
</g>
</g>
<!-- Node8&#45;&gt;Node6 -->
<g id="edge7" class="edge"><title>Node8&#45;&gt;Node6</title>
<path fill="none" stroke="#9a32cd" stroke-dasharray="5,2" d="M625.631,-393.51C662.269,-393.51 708.973,-393.51 746.462,-393.51"/>
<polygon fill="#9a32cd" stroke="#9a32cd" points="625.58,-390.01 615.58,-393.51 625.58,-397.01 625.58,-390.01"/>
<text text-anchor="middle" x="699" y="-396.51" font-family="Helvetica,sans-Serif" font-size="10.00"> compiler</text>
</g>
<!-- Node9 -->
<g id="node9" class="node"><title>Node9</title>
<polygon fill="white" stroke="#bfbfbf" points="246,-514.01 246,-533.01 346,-533.01 346,-514.01 246,-514.01"/>
<text text-anchor="middle" x="296" y="-521.01" font-family="Helvetica,sans-Serif" font-size="10.00">Stack&lt; Integer &gt;</text>
</g>
<!-- Node9&#45;&gt;Node8 -->
<g id="edge8" class="edge"><title>Node9&#45;&gt;Node8</title>
<path fill="none" stroke="#9a32cd" stroke-dasharray="5,2" d="M356.603,-527.953C390.558,-527.152 431.486,-520.039 458,-494.51 484.879,-468.631 449.602,-438.88 476,-412.51 485.625,-402.895 498.913,-397.645 512.209,-394.896"/>
<polygon fill="#9a32cd" stroke="#9a32cd" points="356.293,-524.455 346.313,-528.013 356.333,-531.455 356.293,-524.455"/>
<text text-anchor="middle" x="423" y="-528.51" font-family="Helvetica,sans-Serif" font-size="10.00"> state</text>
</g>
<!-- Node10 -->
<g id="node10" class="node"><title>Node10</title>
<polygon fill="white" stroke="#bfbfbf" points="222.5,-473.01 222.5,-492.01 369.5,-492.01 369.5,-473.01 222.5,-473.01"/>
<text text-anchor="middle" x="296" y="-480.01" font-family="Helvetica,sans-Serif" font-size="10.00">HashMap&lt; String, String &gt;</text>
</g>
<!-- Node10&#45;&gt;Node8 -->
<g id="edge9" class="edge"><title>Node10&#45;&gt;Node8</title>
<path fill="none" stroke="#9a32cd" stroke-dasharray="5,2" d="M379.559,-471.484C406.342,-465.017 435.041,-454.763 458,-438.51 469.471,-430.39 464.323,-420.331 476,-412.51 486.662,-405.37 499.555,-400.862 512.112,-398.031"/>
<polygon fill="#9a32cd" stroke="#9a32cd" points="378.77,-468.074 369.792,-473.699 380.319,-474.9 378.77,-468.074"/>
<text text-anchor="middle" x="423" y="-482.51" font-family="Helvetica,sans-Serif" font-size="10.00"> grammar</text>
<text text-anchor="middle" x="423" y="-471.51" font-family="Helvetica,sans-Serif" font-size="10.00">dictionary</text>
</g>
<!-- Node11 -->
<g id="node11" class="node"><title>Node11</title>
<polygon fill="white" stroke="#bfbfbf" points="222,-423.51 222,-453.51 370,-453.51 370,-423.51 222,-423.51"/>
<text text-anchor="start" x="230" y="-441.51" font-family="Helvetica,sans-Serif" font-size="10.00">List&lt; compiler.SymbolTable</text>
<text text-anchor="middle" x="296" y="-430.51" font-family="Helvetica,sans-Serif" font-size="10.00">Entry &gt;</text>
</g>
<!-- Node11&#45;&gt;Node8 -->
<g id="edge10" class="edge"><title>Node11&#45;&gt;Node8</title>
<path fill="none" stroke="#9a32cd" stroke-dasharray="5,2" d="M380.013,-424.467C423.394,-417.128 475.078,-408.384 512.436,-402.064"/>
<polygon fill="#9a32cd" stroke="#9a32cd" points="379.314,-421.035 370.038,-426.154 380.481,-427.937 379.314,-421.035"/>
<text text-anchor="middle" x="423" y="-426.51" font-family="Helvetica,sans-Serif" font-size="10.00"> symbolTable</text>
</g>
<!-- Node12 -->
<g id="node12" class="node"><title>Node12</title>
<g id="a_node12"><a xlink:href="../../dd/db3/classcompiler_1_1_parse_table.html" target="_top" xlink:title="compiler.ParseTable">
<polygon fill="white" stroke="black" points="241,-338.01 241,-357.01 351,-357.01 351,-338.01 241,-338.01"/>
<text text-anchor="middle" x="296" y="-345.01" font-family="Helvetica,sans-Serif" font-size="10.00">compiler.ParseTable</text>
</a>
</g>
</g>
<!-- Node12&#45;&gt;Node8 -->
<g id="edge11" class="edge"><title>Node12&#45;&gt;Node8</title>
<path fill="none" stroke="#9a32cd" stroke-dasharray="5,2" d="M361.545,-353.819C391.104,-357.248 426.494,-362.113 458,-368.51 466.137,-370.162 467.952,-371.468 476,-373.51 490.121,-377.093 505.602,-380.741 519.54,-383.923"/>
<polygon fill="#9a32cd" stroke="#9a32cd" points="361.679,-350.312 351.349,-352.666 360.892,-357.268 361.679,-350.312"/>
<text text-anchor="middle" x="423" y="-371.51" font-family="Helvetica,sans-Serif" font-size="10.00"> myParseTable</text>
</g>
<!-- Node13 -->
<g id="node13" class="node"><title>Node13</title>
<polygon fill="white" stroke="#bfbfbf" points="0.5,-364.51 0.5,-394.51 119.5,-394.51 119.5,-364.51 0.5,-364.51"/>
<text text-anchor="start" x="8.5" y="-382.51" font-family="Helvetica,sans-Serif" font-size="10.00">ArrayList&lt; HashMap</text>
<text text-anchor="middle" x="60" y="-371.51" font-family="Helvetica,sans-Serif" font-size="10.00">&lt; String, Integer &gt; &gt;</text>
</g>
<!-- Node13&#45;&gt;Node8 -->
<g id="edge14" class="edge"><title>Node13&#45;&gt;Node8</title>
<path fill="none" stroke="#9a32cd" stroke-dasharray="5,2" d="M129.786,-381.428C232.034,-384.28 421.767,-389.571 512.336,-392.097"/>
<polygon fill="#9a32cd" stroke="#9a32cd" points="129.662,-377.924 119.568,-381.144 129.467,-384.921 129.662,-377.924"/>
<text text-anchor="middle" x="296" y="-391.51" font-family="Helvetica,sans-Serif" font-size="10.00"> nextState</text>
</g>
<!-- Node13&#45;&gt;Node12 -->
<g id="edge12" class="edge"><title>Node13&#45;&gt;Node12</title>
<path fill="none" stroke="#9a32cd" stroke-dasharray="5,2" d="M129.869,-369.641C132.615,-369.257 135.333,-368.879 138,-368.51 172.187,-363.782 210.586,-358.643 240.852,-354.632"/>
<polygon fill="#9a32cd" stroke="#9a32cd" points="129.265,-366.191 119.849,-371.048 130.239,-373.123 129.265,-366.191"/>
<text text-anchor="middle" x="171" y="-371.51" font-family="Helvetica,sans-Serif" font-size="10.00"> nextState</text>
</g>
<!-- Node14 -->
<g id="node14" class="node"><title>Node14</title>
<polygon fill="white" stroke="#bfbfbf" points="2.5,-306.51 2.5,-336.51 117.5,-336.51 117.5,-306.51 2.5,-306.51"/>
<text text-anchor="start" x="10.5" y="-324.51" font-family="Helvetica,sans-Serif" font-size="10.00">ArrayList&lt; HashMap</text>
<text text-anchor="middle" x="60" y="-313.51" font-family="Helvetica,sans-Serif" font-size="10.00">&lt; String, String &gt; &gt;</text>
</g>
<!-- Node14&#45;&gt;Node8 -->
<g id="edge15" class="edge"><title>Node14&#45;&gt;Node8</title>
<path fill="none" stroke="#9a32cd" stroke-dasharray="5,2" d="M127.982,-312.59C191.084,-306.073 287.925,-300.957 370,-317.51 411.59,-325.898 423.108,-330.371 458,-354.51 467.566,-361.128 465.901,-367.739 476,-373.51 487.034,-379.816 499.925,-384.134 512.352,-387.091"/>
<polygon fill="#9a32cd" stroke="#9a32cd" points="127.334,-309.139 117.765,-313.687 128.082,-316.099 127.334,-309.139"/>
<text text-anchor="middle" x="296" y="-320.51" font-family="Helvetica,sans-Serif" font-size="10.00"> move</text>
</g>
<!-- Node14&#45;&gt;Node12 -->
<g id="edge13" class="edge"><title>Node14&#45;&gt;Node12</title>
<path fill="none" stroke="#9a32cd" stroke-dasharray="5,2" d="M127.868,-326.875C151.901,-328.992 179.193,-331.613 204,-334.51 215.888,-335.899 228.622,-337.59 240.684,-339.286"/>
<polygon fill="#9a32cd" stroke="#9a32cd" points="128.05,-323.378 117.785,-326 127.445,-330.352 128.05,-323.378"/>
<text text-anchor="middle" x="171" y="-337.51" font-family="Helvetica,sans-Serif" font-size="10.00"> myOperation</text>
</g>
<!-- Node15 -->
<g id="node15" class="node"><title>Node15</title>
<polygon fill="white" stroke="#bfbfbf" points="248.5,-245.01 248.5,-264.01 343.5,-264.01 343.5,-245.01 248.5,-245.01"/>
<text text-anchor="middle" x="296" y="-252.01" font-family="Helvetica,sans-Serif" font-size="10.00">Stack&lt; String &gt;</text>
</g>
<!-- Node15&#45;&gt;Node8 -->
<g id="edge16" class="edge"><title>Node15&#45;&gt;Node8</title>
<path fill="none" stroke="#9a32cd" stroke-dasharray="5,2" d="M354.138,-246.511C388.566,-245.055 430.859,-249.743 458,-275.51 490.116,-306 445.388,-341.511 476,-373.51 485.535,-383.477 498.955,-388.931 512.407,-391.806"/>
<polygon fill="#9a32cd" stroke="#9a32cd" points="353.5,-243.043 343.731,-247.144 353.925,-250.031 353.5,-243.043"/>
<text text-anchor="middle" x="423" y="-278.51" font-family="Helvetica,sans-Serif" font-size="10.00"> symbol</text>
</g>
<!-- Node16 -->
<g id="node16" class="node"><title>Node16</title>
<polygon fill="white" stroke="#bfbfbf" points="476.5,-324.01 476.5,-365.01 651.5,-365.01 651.5,-324.01 476.5,-324.01"/>
<text text-anchor="start" x="484.5" y="-353.01" font-family="Helvetica,sans-Serif" font-size="10.00">Map&lt; String, ArrayList</text>
<text text-anchor="start" x="484.5" y="-342.01" font-family="Helvetica,sans-Serif" font-size="10.00">&lt; commands.Command&lt; Turtle,</text>
<text text-anchor="middle" x="564" y="-331.01" font-family="Helvetica,sans-Serif" font-size="10.00"> Void &gt; &gt; &gt;</text>
</g>
<!-- Node16&#45;&gt;Node6 -->
<g id="edge17" class="edge"><title>Node16&#45;&gt;Node6</title>
<path fill="none" stroke="#9a32cd" stroke-dasharray="5,2" d="M661.549,-363.664C696.664,-370.63 734.834,-378.202 763.942,-383.976"/>
<polygon fill="#9a32cd" stroke="#9a32cd" points="662.226,-360.23 651.736,-361.717 660.863,-367.096 662.226,-360.23"/>
<text text-anchor="middle" x="699" y="-379.51" font-family="Helvetica,sans-Serif" font-size="10.00"> cache</text>
</g>
<!-- Node17 -->
<g id="node17" class="node"><title>Node17</title>
<polygon fill="white" stroke="#bfbfbf" points="543,-286.01 543,-305.01 585,-305.01 585,-286.01 543,-286.01"/>
<text text-anchor="middle" x="564" y="-293.01" font-family="Helvetica,sans-Serif" font-size="10.00">Turtle</text>
</g>
<!-- Node17&#45;&gt;Node6 -->
<g id="edge18" class="edge"><title>Node17&#45;&gt;Node6</title>
<path fill="none" stroke="#9a32cd" stroke-dasharray="5,2" d="M594.999,-300.24C611.995,-303.369 633.494,-308.088 652,-314.51 687.491,-326.827 698.786,-327.89 728,-351.51 738.094,-359.671 735.239,-367.25 746,-374.51 751.733,-378.378 758.256,-381.469 764.917,-383.935"/>
<polygon fill="#9a32cd" stroke="#9a32cd" points="595.52,-296.778 585.065,-298.496 594.31,-303.672 595.52,-296.778"/>
<text text-anchor="middle" x="699" y="-354.51" font-family="Helvetica,sans-Serif" font-size="10.00"> turtle</text>
</g>
<!-- Node18 -->
<g id="node18" class="node"><title>Node18</title>
<polygon fill="white" stroke="#bfbfbf" points="766.5,-346.01 766.5,-365.01 859.5,-365.01 859.5,-346.01 766.5,-346.01"/>
<text text-anchor="middle" x="813" y="-353.01" font-family="Helvetica,sans-Serif" font-size="10.00">ResourceBundle</text>
</g>
<!-- Node18&#45;&gt;Node1 -->
<g id="edge19" class="edge"><title>Node18&#45;&gt;Node1</title>
<path fill="none" stroke="#9a32cd" stroke-dasharray="5,2" d="M870.092,-356.518C905.794,-354.683 951.615,-347.53 986,-325.51 1014.65,-307.16 1032.95,-269.085 1040.31,-251.195"/>
<polygon fill="#9a32cd" stroke="#9a32cd" points="869.693,-353.03 859.836,-356.915 869.964,-360.025 869.693,-353.03"/>
<text text-anchor="middle" x="942" y="-357.51" font-family="Helvetica,sans-Serif" font-size="10.00"> guiText</text>
</g>
<!-- Node19 -->
<g id="node19" class="node"><title>Node19</title>
<g id="a_node19"><a xlink:href="../../d8/df7/classview_1_1_turtle_view.html" target="_top" xlink:title="view.TurtleView">
<polygon fill="white" stroke="black" points="770,-308.01 770,-327.01 856,-327.01 856,-308.01 770,-308.01"/>
<text text-anchor="middle" x="813" y="-315.01" font-family="Helvetica,sans-Serif" font-size="10.00">view.TurtleView</text>
</a>
</g>
</g>
<!-- Node19&#45;&gt;Node1 -->
<g id="edge20" class="edge"><title>Node19&#45;&gt;Node1</title>
<path fill="none" stroke="#9a32cd" stroke-dasharray="5,2" d="M866.292,-314.105C901.376,-310.322 947.951,-302.341 986,-285.51 1004.96,-277.125 1023.43,-261.426 1034.26,-251.225"/>
<polygon fill="#9a32cd" stroke="#9a32cd" points="865.861,-310.631 856.258,-315.107 866.556,-317.596 865.861,-310.631"/>
<text text-anchor="middle" x="942" y="-313.51" font-family="Helvetica,sans-Serif" font-size="10.00"> turtle</text>
</g>
<!-- Node20 -->
<g id="node20" class="node"><title>Node20</title>
<polygon fill="white" stroke="#bfbfbf" points="530,-248.01 530,-267.01 598,-267.01 598,-248.01 530,-248.01"/>
<text text-anchor="middle" x="564" y="-255.01" font-family="Helvetica,sans-Serif" font-size="10.00">ImageView</text>
</g>
<!-- Node20&#45;&gt;Node19 -->
<g id="edge21" class="edge"><title>Node20&#45;&gt;Node19</title>
<path fill="none" stroke="midnightblue" d="M608.278,-252.429C642.933,-250.456 691.597,-252.555 728,-273.51 739.866,-280.341 734.806,-290.627 746,-298.51 753.117,-303.522 761.541,-307.22 769.95,-309.947"/>
<polygon fill="midnightblue" stroke="midnightblue" points="607.73,-248.959 598.002,-253.156 608.224,-255.942 607.73,-248.959"/>
</g>
<!-- Node21 -->
<g id="node21" class="node"><title>Node21</title>
<polygon fill="white" stroke="#bfbfbf" points="783,-270.01 783,-289.01 843,-289.01 843,-270.01 783,-270.01"/>
<text text-anchor="middle" x="813" y="-277.01" font-family="Helvetica,sans-Serif" font-size="10.00">FlowPane</text>
</g>
<!-- Node21&#45;&gt;Node1 -->
<g id="edge22" class="edge"><title>Node21&#45;&gt;Node1</title>
<path fill="none" stroke="#9a32cd" stroke-dasharray="5,2" d="M853.359,-275.608C888.364,-271.815 940.849,-265.334 986,-256.51 993.758,-254.994 1002.02,-253.056 1009.81,-251.08"/>
<polygon fill="#9a32cd" stroke="#9a32cd" points="852.659,-272.163 843.085,-276.699 853.398,-279.124 852.659,-272.163"/>
<text text-anchor="middle" x="942" y="-273.51" font-family="Helvetica,sans-Serif" font-size="10.00"> flow</text>
</g>
<!-- Node22 -->
<g id="node22" class="node"><title>Node22</title>
<polygon fill="white" stroke="#bfbfbf" points="789.5,-232.01 789.5,-251.01 836.5,-251.01 836.5,-232.01 789.5,-232.01"/>
<text text-anchor="middle" x="813" y="-239.01" font-family="Helvetica,sans-Serif" font-size="10.00">Locale</text>
</g>
<!-- Node22&#45;&gt;Node1 -->
<g id="edge23" class="edge"><title>Node22&#45;&gt;Node1</title>
<path fill="none" stroke="#9a32cd" stroke-dasharray="5,2" d="M847.035,-241.51C888.599,-241.51 959.906,-241.51 1004.36,-241.51"/>
<polygon fill="#9a32cd" stroke="#9a32cd" points="846.894,-238.01 836.894,-241.51 846.894,-245.01 846.894,-238.01"/>
<text text-anchor="middle" x="942" y="-244.51" font-family="Helvetica,sans-Serif" font-size="10.00"> supportedLocales</text>
</g>
<!-- Node23 -->
<g id="node23" class="node"><title>Node23</title>
<polygon fill="white" stroke="#bfbfbf" points="795.5,-194.01 795.5,-213.01 830.5,-213.01 830.5,-194.01 795.5,-194.01"/>
<text text-anchor="middle" x="813" y="-201.01" font-family="Helvetica,sans-Serif" font-size="10.00">Text</text>
</g>
<!-- Node23&#45;&gt;Node1 -->
<g id="edge24" class="edge"><title>Node23&#45;&gt;Node1</title>
<path fill="none" stroke="#9a32cd" stroke-dasharray="5,2" d="M840.771,-206.083C874.739,-209.577 935.041,-216.551 986,-226.51 993.758,-228.026 1002.02,-229.964 1009.81,-231.94"/>
<polygon fill="#9a32cd" stroke="#9a32cd" points="841.013,-202.589 830.712,-205.071 840.312,-209.554 841.013,-202.589"/>
<text text-anchor="middle" x="942" y="-229.51" font-family="Helvetica,sans-Serif" font-size="10.00"> statusText</text>
</g>
<!-- Node24 -->
<g id="node24" class="node"><title>Node24</title>
<polygon fill="white" stroke="#bfbfbf" points="789.5,-156.01 789.5,-175.01 836.5,-175.01 836.5,-156.01 789.5,-156.01"/>
<text text-anchor="middle" x="813" y="-163.01" font-family="Helvetica,sans-Serif" font-size="10.00">Scene</text>
</g>
<!-- Node24&#45;&gt;Node1 -->
<g id="edge25" class="edge"><title>Node24&#45;&gt;Node1</title>
<path fill="none" stroke="#9a32cd" stroke-dasharray="5,2" d="M846.965,-167.463C882.573,-170.554 940.334,-178.458 986,-198.51 1004.59,-206.674 1022.88,-221.725 1033.8,-231.677"/>
<polygon fill="#9a32cd" stroke="#9a32cd" points="846.908,-163.948 836.663,-166.65 846.357,-170.926 846.908,-163.948"/>
<text text-anchor="middle" x="942" y="-201.51" font-family="Helvetica,sans-Serif" font-size="10.00"> slogo</text>
</g>
<!-- Node25 -->
<g id="node25" class="node"><title>Node25</title>
<polygon fill="white" stroke="#bfbfbf" points="783.5,-118.01 783.5,-137.01 842.5,-137.01 842.5,-118.01 783.5,-118.01"/>
<text text-anchor="middle" x="813" y="-125.01" font-family="Helvetica,sans-Serif" font-size="10.00">MenuBar</text>
</g>
<!-- Node25&#45;&gt;Node1 -->
<g id="edge26" class="edge"><title>Node25&#45;&gt;Node1</title>
<path fill="none" stroke="#9a32cd" stroke-dasharray="5,2" d="M852.934,-126.62C889.924,-127.549 945.725,-133.72 986,-159.51 1014.05,-177.47 1032.53,-214.276 1040.11,-231.809"/>
<polygon fill="#9a32cd" stroke="#9a32cd" points="852.607,-123.116 842.562,-126.484 852.515,-130.115 852.607,-123.116"/>
<text text-anchor="middle" x="942" y="-162.51" font-family="Helvetica,sans-Serif" font-size="10.00"> topToolBar</text>
</g>
<!-- Node26 -->
<g id="node26" class="node"><title>Node26</title>
<polygon fill="white" stroke="#bfbfbf" points="783.5,-80.0102 783.5,-99.0102 842.5,-99.0102 842.5,-80.0102 783.5,-80.0102"/>
<text text-anchor="middle" x="813" y="-87.0102" font-family="Helvetica,sans-Serif" font-size="10.00">GridPane</text>
</g>
<!-- Node26&#45;&gt;Node1 -->
<g id="edge27" class="edge"><title>Node26&#45;&gt;Node1</title>
<path fill="none" stroke="#9a32cd" stroke-dasharray="5,2" d="M852.743,-82.5612C890.422,-78.0429 947.465,-77.4006 986,-105.51 1028.93,-136.823 1040.35,-206.417 1043.16,-231.911"/>
<polygon fill="#9a32cd" stroke="#9a32cd" points="852.104,-79.1155 842.66,-83.9177 853.037,-86.053 852.104,-79.1155"/>
<text text-anchor="middle" x="942" y="-119.51" font-family="Helvetica,sans-Serif" font-size="10.00"> rightSide</text>
<text text-anchor="middle" x="942" y="-108.51" font-family="Helvetica,sans-Serif" font-size="10.00">playground</text>
</g>
<!-- Node27 -->
<g id="node27" class="node"><title>Node27</title>
<polygon fill="white" stroke="#bfbfbf" points="790,-42.0102 790,-61.0102 836,-61.0102 836,-42.0102 790,-42.0102"/>
<text text-anchor="middle" x="813" y="-49.0102" font-family="Helvetica,sans-Serif" font-size="10.00">Group</text>
</g>
<!-- Node27&#45;&gt;Node1 -->
<g id="edge28" class="edge"><title>Node27&#45;&gt;Node1</title>
<path fill="none" stroke="#9a32cd" stroke-dasharray="5,2" d="M845.935,-44.4738C883.588,-38.15 946.083,-34.0904 986,-65.5102 1039.85,-107.894 1044.24,-201.589 1044.2,-231.869"/>
<polygon fill="#9a32cd" stroke="#9a32cd" points="845.219,-41.0466 836.013,-46.2899 846.48,-47.9322 845.219,-41.0466"/>
<text text-anchor="middle" x="942" y="-68.5102" font-family="Helvetica,sans-Serif" font-size="10.00"> root</text>
</g>
<!-- Node28 -->
<g id="node28" class="node"><title>Node28</title>
<polygon fill="white" stroke="#bfbfbf" points="777,-4.01016 777,-23.0102 849,-23.0102 849,-4.01016 777,-4.01016"/>
<text text-anchor="middle" x="813" y="-11.0102" font-family="Helvetica,sans-Serif" font-size="10.00">BorderPane</text>
</g>
<!-- Node28&#45;&gt;Node1 -->
<g id="edge29" class="edge"><title>Node28&#45;&gt;Node1</title>
<path fill="none" stroke="#9a32cd" stroke-dasharray="5,2" d="M859.599,-3.3863C897.668,2.2418 951.154,3.19427 986,-25.5102 1019.04,-52.7282 1038.19,-193.306 1042.87,-231.771"/>
<polygon fill="#9a32cd" stroke="#9a32cd" points="858.6,-0.0033828 849.299,-5.07694 859.733,-6.91095 858.6,-0.0033828"/>
<text text-anchor="middle" x="942" y="-28.5102" font-family="Helvetica,sans-Serif" font-size="10.00"> layout</text>
</g>
</g>
</svg>
        <g id="navigator" transform="translate(0 0)" fill="#404254">
                <rect fill="#f2f5e9" fill-opacity="0.5" stroke="#606060" stroke-width=".5" x="0" y="0" width="60" height="60"/>
                <use id="zoomplus" xlink:href="#zoomPlus" x="17" y="9" onmousedown="handleZoom(evt,'in')"/>
                <use id="zoomminus" xlink:href="#zoomMin" x="42" y="9" onmousedown="handleZoom(evt,'out')"/>
                <use id="reset" xlink:href="#resetDef" x="30" y="36" onmousedown="handleReset()"/>
                <g id="arrowUp" xlink:href="#dirArrow" transform="translate(30 24)" onmousedown="handlePan(0,-1)">
                  <use xlink:href="#rim" fill="#404040">
                        <set attributeName="fill" to="#808080" begin="arrowUp.mouseover" end="arrowUp.mouseout"/>
                  </use>
                  <path fill="none" stroke="white" stroke-width="1.5" d="M0,-3.0v7 M-2.5,-0.5L0,-3.0L2.5,-0.5"/>
                </g>
                <g id="arrowRight" xlink:href="#dirArrow" transform="rotate(90) translate(36 -43)" onmousedown="handlePan(1,0)">
                  <use xlink:href="#rim" fill="#404040">
                        <set attributeName="fill" to="#808080" begin="arrowRight.mouseover" end="arrowRight.mouseout"/>
                  </use>
                  <path fill="none" stroke="white" stroke-width="1.5" d="M0,-3.0v7 M-2.5,-0.5L0,-3.0L2.5,-0.5"/>
                </g>
                <g id="arrowDown" xlink:href="#dirArrow" transform="rotate(180) translate(-30 -48)" onmousedown="handlePan(0,1)">
                  <use xlink:href="#rim" fill="#404040">
                        <set attributeName="fill" to="#808080" begin="arrowDown.mouseover" end="arrowDown.mouseout"/>
                  </use>
                  <path fill="none" stroke="white" stroke-width="1.5" d="M0,-3.0v7 M-2.5,-0.5L0,-3.0L2.5,-0.5"/>
                </g>
                <g id="arrowLeft" xlink:href="#dirArrow" transform="rotate(270) translate(-36 17)" onmousedown="handlePan(-1,0)">
                  <use xlink:href="#rim" fill="#404040">
                        <set attributeName="fill" to="#808080" begin="arrowLeft.mouseover" end="arrowLeft.mouseout"/>
                  </use>
                  <path fill="none" stroke="white" stroke-width="1.5" d="M0,-3.0v7 M-2.5,-0.5L0,-3.0L2.5,-0.5"/>
                </g>
        </g>
        <svg viewBox="0 0 15 15" width="100%" height="30px" preserveAspectRatio="xMaxYMin meet">
         <g id="arrow_out" transform="scale(0.3 0.3)">
          <a xlink:href="classgui_1_1_g_u_i_scene__coll__graph_org.svg" target="_base">
           <rect id="button" ry="5" rx="5" y="6" x="6" height="38" width="38"
                fill="#f2f5e9" fill-opacity="0.5" stroke="#606060" stroke-width="1.0"/>
           <path id="arrow"
             d="M 11.500037,31.436501 C 11.940474,20.09759 22.043105,11.32322 32.158766,21.979434 L 37.068811,17.246167 C 37.068811,17.246167 37.088388,32 37.088388,32 L 22.160133,31.978069 C 22.160133,31.978069 26.997745,27.140456 26.997745,27.140456 C 18.528582,18.264221 13.291696,25.230495 11.500037,31.436501 z"
             style="fill:#404040;"/>
          </a>
         </g>
        </svg>
</svg>
