<?xml version="1.0" encoding="UTF-8" standalone="no"?>
<!DOCTYPE svg PUBLIC "-//W3C//DTD SVG 1.1//EN"
 "http://www.w3.org/Graphics/SVG/1.1/DTD/svg11.dtd">
<!-- Generated by graphviz version 2.36.0 (20140111.2315)
 -->
<!-- Title: view.TurtleView.setData Pages: 1 -->
<svg width="996pt" height="151pt"
 viewBox="0.00 0.00 996.00 151.00" xmlns="http://www.w3.org/2000/svg" xmlns:xlink="http://www.w3.org/1999/xlink">
<g id="graph0" class="graph" transform="scale(1 1) rotate(0) translate(4 147)">
<title>view.TurtleView.setData</title>
<polygon fill="white" stroke="none" points="-4,4 -4,-147 992,-147 992,4 -4,4"/>
<!-- Node1 -->
<g id="node1" class="node"><title>Node1</title>
<polygon fill="#bfbfbf" stroke="black" points="0.5,-76.5 0.5,-95.5 127.5,-95.5 127.5,-76.5 0.5,-76.5"/>
<text text-anchor="middle" x="64" y="-83.5" font-family="Helvetica,sans-Serif" font-size="10.00">view.TurtleView.setData</text>
</g>
<!-- Node2 -->
<g id="node2" class="node"><title>Node2</title>
<g id="a_node2"><a xlink:href="../../dd/dea/classgui_1_1_g_u_i_scene.html#aec9d26a4fa0613c7c5834bad2392eea1" target="_top" xlink:title="gui.GUIScene.addGrid">
<polygon fill="white" stroke="black" points="328,-76.5 328,-95.5 450,-95.5 450,-76.5 328,-76.5"/>
<text text-anchor="middle" x="389" y="-83.5" font-family="Helvetica,sans-Serif" font-size="10.00">gui.GUIScene.addGrid</text>
</a>
</g>
</g>
<!-- Node1&#45;&gt;Node2 -->
<g id="edge1" class="edge"><title>Node1&#45;&gt;Node2</title>
<path fill="none" stroke="midnightblue" d="M137.751,-86C195.125,-86 274.174,-86 327.971,-86"/>
<polygon fill="midnightblue" stroke="midnightblue" points="137.661,-82.5001 127.661,-86 137.661,-89.5001 137.661,-82.5001"/>
</g>
<!-- Node5 -->
<g id="node5" class="node"><title>Node5</title>
<g id="a_node5"><a xlink:href="../../dd/dea/classgui_1_1_g_u_i_scene.html#a74967ac937baee81b9eec1b2bc38167c" target="_top" xlink:title="gui.GUIScene.createScene">
<polygon fill="white" stroke="black" points="664.5,-104.5 664.5,-123.5 809.5,-123.5 809.5,-104.5 664.5,-104.5"/>
<text text-anchor="middle" x="737" y="-111.5" font-family="Helvetica,sans-Serif" font-size="10.00">gui.GUIScene.createScene</text>
</a>
</g>
</g>
<!-- Node1&#45;&gt;Node5 -->
<g id="edge8" class="edge"><title>Node1&#45;&gt;Node5</title>
<path fill="none" stroke="midnightblue" d="M134.905,-96.8447C144.658,-98.0773 154.566,-99.1822 164,-100 343.373,-115.549 555.48,-116.098 664.054,-115.093"/>
<polygon fill="midnightblue" stroke="midnightblue" points="135.195,-93.3528 124.824,-95.5206 134.283,-100.293 135.195,-93.3528"/>
</g>
<!-- Node8 -->
<g id="node8" class="node"><title>Node8</title>
<g id="a_node8"><a xlink:href="../../dd/dea/classgui_1_1_g_u_i_scene.html#a21fe0ea8ff67b7c2da45e6ad786eab56" target="_top" xlink:title="gui.GUIScene.update">
<polygon fill="white" stroke="black" points="164,-38.5 164,-57.5 282,-57.5 282,-38.5 164,-38.5"/>
<text text-anchor="middle" x="223" y="-45.5" font-family="Helvetica,sans-Serif" font-size="10.00">gui.GUIScene.update</text>
</a>
</g>
</g>
<!-- Node1&#45;&gt;Node8 -->
<g id="edge9" class="edge"><title>Node1&#45;&gt;Node8</title>
<path fill="none" stroke="midnightblue" d="M114.447,-74.032C136.448,-68.7069 161.994,-62.5238 182.667,-57.5201"/>
<polygon fill="midnightblue" stroke="midnightblue" points="113.514,-70.6567 104.618,-76.411 115.16,-77.4602 113.514,-70.6567"/>
</g>
<!-- Node3 -->
<g id="node3" class="node"><title>Node3</title>
<g id="a_node3"><a xlink:href="../../dd/dea/classgui_1_1_g_u_i_scene.html#a7cb2b00ed820aecde169a5e14cf0d468" target="_top" xlink:title="gui.GUIScene.createGUI">
<polygon fill="white" stroke="black" points="496,-47.5 496,-66.5 628,-66.5 628,-47.5 496,-47.5"/>
<text text-anchor="middle" x="562" y="-54.5" font-family="Helvetica,sans-Serif" font-size="10.00">gui.GUIScene.createGUI</text>
</a>
</g>
</g>
<!-- Node2&#45;&gt;Node3 -->
<g id="edge2" class="edge"><title>Node2&#45;&gt;Node3</title>
<path fill="none" stroke="midnightblue" d="M456.767,-74.6769C472.681,-71.9781 489.505,-69.1248 504.885,-66.5165"/>
<polygon fill="midnightblue" stroke="midnightblue" points="455.74,-71.3011 446.466,-76.4239 456.91,-78.2026 455.74,-71.3011"/>
</g>
<!-- Node4 -->
<g id="node4" class="node"><title>Node4</title>
<g id="a_node4"><a xlink:href="../../dd/dea/classgui_1_1_g_u_i_scene.html#a16324ddc026310495f84e77bbb311b2c" target="_top" xlink:title="gui.GUIScene.addButtons">
<polygon fill="white" stroke="black" points="667,-47.5 667,-66.5 807,-66.5 807,-47.5 667,-47.5"/>
<text text-anchor="middle" x="737" y="-54.5" font-family="Helvetica,sans-Serif" font-size="10.00">gui.GUIScene.addButtons</text>
</a>
</g>
</g>
<!-- Node3&#45;&gt;Node4 -->
<g id="edge3" class="edge"><title>Node3&#45;&gt;Node4</title>
<path fill="none" stroke="midnightblue" d="M638.504,-50.2987C647.896,-50.2151 657.463,-50.2391 666.754,-50.3708"/>
<polygon fill="midnightblue" stroke="midnightblue" points="638.357,-46.8002 628.404,-50.4317 638.449,-53.7996 638.357,-46.8002"/>
</g>
<!-- Node3&#45;&gt;Node5 -->
<g id="edge5" class="edge"><title>Node3&#45;&gt;Node5</title>
<path fill="none" stroke="midnightblue" d="M601.824,-69.7919C633.686,-80.2898 678.099,-94.9228 706.949,-104.428"/>
<polygon fill="midnightblue" stroke="midnightblue" points="602.549,-66.3457 591.956,-66.5405 600.359,-72.9941 602.549,-66.3457"/>
</g>
<!-- Node4&#45;&gt;Node3 -->
<g id="edge4" class="edge"><title>Node4&#45;&gt;Node3</title>
<path fill="none" stroke="midnightblue" d="M656.585,-63.7298C647.154,-63.7836 637.609,-63.7298 628.404,-63.5683"/>
<polygon fill="midnightblue" stroke="midnightblue" points="656.789,-67.2281 666.754,-63.6292 656.719,-60.2284 656.789,-67.2281"/>
</g>
<!-- Node6 -->
<g id="node6" class="node"><title>Node6</title>
<g id="a_node6"><a xlink:href="../../dd/d48/classgui_1_1_g_u_i_start.html#a82d08814fef5331d82c4763a2426ffce" target="_top" xlink:title="gui.GUIStart.start">
<polygon fill="white" stroke="black" points="866.5,-123.5 866.5,-142.5 967.5,-142.5 967.5,-123.5 866.5,-123.5"/>
<text text-anchor="middle" x="917" y="-130.5" font-family="Helvetica,sans-Serif" font-size="10.00">gui.GUIStart.start</text>
</a>
</g>
</g>
<!-- Node5&#45;&gt;Node6 -->
<g id="edge6" class="edge"><title>Node5&#45;&gt;Node6</title>
<path fill="none" stroke="midnightblue" d="M819.974,-122.75C835.814,-124.441 851.952,-126.163 866.365,-127.702"/>
<polygon fill="midnightblue" stroke="midnightblue" points="819.945,-119.227 809.63,-121.646 819.202,-126.188 819.945,-119.227"/>
</g>
<!-- Node7 -->
<g id="node7" class="node"><title>Node7</title>
<g id="a_node7"><a xlink:href="../../d6/d0e/classcontroller_1_1_s_logo_main.html#ab5379c32fef791f21ad51abde7d268c0" target="_top" xlink:title="controller.SLogoMain.start">
<polygon fill="white" stroke="black" points="846,-85.5 846,-104.5 988,-104.5 988,-85.5 846,-85.5"/>
<text text-anchor="middle" x="917" y="-92.5" font-family="Helvetica,sans-Serif" font-size="10.00">controller.SLogoMain.start</text>
</a>
</g>
</g>
<!-- Node5&#45;&gt;Node7 -->
<g id="edge7" class="edge"><title>Node5&#45;&gt;Node7</title>
<path fill="none" stroke="midnightblue" d="M819.821,-105.266C828.555,-104.334 837.382,-103.392 845.963,-102.476"/>
<polygon fill="midnightblue" stroke="midnightblue" points="819.202,-101.812 809.63,-106.354 819.945,-108.773 819.202,-101.812"/>
</g>
<!-- Node8&#45;&gt;Node2 -->
<g id="edge10" class="edge"><title>Node8&#45;&gt;Node2</title>
<path fill="none" stroke="midnightblue" d="M275.341,-59.8961C298.393,-65.2374 325.221,-71.4537 346.913,-76.4799"/>
<polygon fill="midnightblue" stroke="midnightblue" points="275.916,-56.4367 265.384,-57.589 274.336,-63.256 275.916,-56.4367"/>
</g>
<!-- Node8&#45;&gt;Node3 -->
<g id="edge11" class="edge"><title>Node8&#45;&gt;Node3</title>
<path fill="none" stroke="midnightblue" d="M292.366,-49.8258C351.84,-51.4141 437.434,-53.7 495.92,-55.262"/>
<polygon fill="midnightblue" stroke="midnightblue" points="292.406,-46.3257 282.316,-49.5574 292.219,-53.3232 292.406,-46.3257"/>
</g>
<!-- Node9 -->
<g id="node9" class="node"><title>Node9</title>
<g id="a_node9"><a xlink:href="../../dd/dea/classgui_1_1_g_u_i_scene.html#a47e424a495817f5806f45064f77a632b" target="_top" xlink:title="gui.GUIScene.getRightBox">
<polygon fill="white" stroke="black" points="318,-0.5 318,-19.5 460,-19.5 460,-0.5 318,-0.5"/>
<text text-anchor="middle" x="389" y="-7.5" font-family="Helvetica,sans-Serif" font-size="10.00">gui.GUIScene.getRightBox</text>
</a>
</g>
</g>
<!-- Node8&#45;&gt;Node9 -->
<g id="edge12" class="edge"><title>Node8&#45;&gt;Node9</title>
<path fill="none" stroke="midnightblue" d="M275.341,-36.1039C298.393,-30.7626 325.221,-24.5463 346.913,-19.5201"/>
<polygon fill="midnightblue" stroke="midnightblue" points="274.336,-32.744 265.384,-38.411 275.916,-39.5633 274.336,-32.744"/>
</g>
<!-- Node9&#45;&gt;Node3 -->
<g id="edge13" class="edge"><title>Node9&#45;&gt;Node3</title>
<path fill="none" stroke="midnightblue" d="M434.357,-22.1916C462.964,-30.0545 499.641,-40.1351 526.154,-47.4224"/>
<polygon fill="midnightblue" stroke="midnightblue" points="435.174,-18.7866 424.604,-19.5112 433.319,-25.5363 435.174,-18.7866"/>
</g>
</g>
</svg>
