<?xml version="1.0" encoding="UTF-8" standalone="no"?>
<!DOCTYPE svg PUBLIC "-//W3C//DTD SVG 1.1//EN"
 "http://www.w3.org/Graphics/SVG/1.1/DTD/svg11.dtd">
<!-- Generated by graphviz version 2.36.0 (20140111.2315)
 -->
<!-- Title: compiler.TokenFinder.stringType Pages: 1 -->
<svg width="1644pt" height="207pt"
 viewBox="0.00 0.00 1644.00 207.00" xmlns="http://www.w3.org/2000/svg" xmlns:xlink="http://www.w3.org/1999/xlink">
<g id="graph0" class="graph" transform="scale(1 1) rotate(0) translate(4 203)">
<title>compiler.TokenFinder.stringType</title>
<polygon fill="white" stroke="none" points="-4,4 -4,-203 1640,-203 1640,4 -4,4"/>
<!-- Node1 -->
<g id="node1" class="node"><title>Node1</title>
<polygon fill="#bfbfbf" stroke="black" points="0,-78.5 0,-97.5 166,-97.5 166,-78.5 0,-78.5"/>
<text text-anchor="middle" x="83" y="-85.5" font-family="Helvetica,sans-Serif" font-size="10.00">compiler.TokenFinder.stringType</text>
</g>
<!-- Node2 -->
<g id="node2" class="node"><title>Node2</title>
<g id="a_node2"><a xlink:href="../../de/d03/classcompiler_1_1_token_finder.html#a8f4fdc09f838a5cee92938ae555a93dc" target="_top" xlink:title="compiler.TokenFinder.tokenize">
<polygon fill="white" stroke="black" points="202,-78.5 202,-97.5 360,-97.5 360,-78.5 202,-78.5"/>
<text text-anchor="middle" x="281" y="-85.5" font-family="Helvetica,sans-Serif" font-size="10.00">compiler.TokenFinder.tokenize</text>
</a>
</g>
</g>
<!-- Node1&#45;&gt;Node2 -->
<g id="edge1" class="edge"><title>Node1&#45;&gt;Node2</title>
<path fill="none" stroke="midnightblue" d="M176.505,-88C184.932,-88 193.414,-88 201.699,-88"/>
<polygon fill="midnightblue" stroke="midnightblue" points="176.27,-84.5001 166.27,-88 176.27,-91.5001 176.27,-84.5001"/>
</g>
<!-- Node3 -->
<g id="node3" class="node"><title>Node3</title>
<g id="a_node3"><a xlink:href="../../db/d93/classcompiler_1_1_compiler.html#ab49c76c1486c30d921d07022a1be4971" target="_top" xlink:title="compiler.Compiler.scanner">
<polygon fill="white" stroke="black" points="396.5,-78.5 396.5,-97.5 539.5,-97.5 539.5,-78.5 396.5,-78.5"/>
<text text-anchor="middle" x="468" y="-85.5" font-family="Helvetica,sans-Serif" font-size="10.00">compiler.Compiler.scanner</text>
</a>
</g>
</g>
<!-- Node2&#45;&gt;Node3 -->
<g id="edge2" class="edge"><title>Node2&#45;&gt;Node3</title>
<path fill="none" stroke="midnightblue" d="M370.4,-88C379.133,-88 387.915,-88 396.434,-88"/>
<polygon fill="midnightblue" stroke="midnightblue" points="370.189,-84.5001 360.189,-88 370.188,-91.5001 370.189,-84.5001"/>
</g>
<!-- Node4 -->
<g id="node4" class="node"><title>Node4</title>
<g id="a_node4"><a xlink:href="../../db/d93/classcompiler_1_1_compiler.html#a8a90aa273bacff724a034959914a4c2d" target="_top" xlink:title="compiler.Compiler.compile">
<polygon fill="white" stroke="black" points="576.5,-78.5 576.5,-97.5 719.5,-97.5 719.5,-78.5 576.5,-78.5"/>
<text text-anchor="middle" x="648" y="-85.5" font-family="Helvetica,sans-Serif" font-size="10.00">compiler.Compiler.compile</text>
</a>
</g>
</g>
<!-- Node3&#45;&gt;Node4 -->
<g id="edge3" class="edge"><title>Node3&#45;&gt;Node4</title>
<path fill="none" stroke="midnightblue" d="M549.646,-88C558.599,-88 567.666,-88 576.479,-88"/>
<polygon fill="midnightblue" stroke="midnightblue" points="549.606,-84.5001 539.606,-88 549.606,-91.5001 549.606,-84.5001"/>
</g>
<!-- Node5 -->
<g id="node5" class="node"><title>Node5</title>
<g id="a_node5"><a xlink:href="../../db/d93/classcompiler_1_1_compiler.html#a90d16b98c8e950bbaf772f5b93092a3f" target="_top" xlink:title="compiler.Compiler.main">
<polygon fill="white" stroke="black" points="770.5,-147.5 770.5,-166.5 899.5,-166.5 899.5,-147.5 770.5,-147.5"/>
<text text-anchor="middle" x="835" y="-154.5" font-family="Helvetica,sans-Serif" font-size="10.00">compiler.Compiler.main</text>
</a>
</g>
</g>
<!-- Node4&#45;&gt;Node5 -->
<g id="edge4" class="edge"><title>Node4&#45;&gt;Node5</title>
<path fill="none" stroke="midnightblue" d="M676.232,-102.112C697.53,-112.743 728.107,-127.126 756,-137 767.202,-140.965 779.564,-144.502 791.081,-147.458"/>
<polygon fill="midnightblue" stroke="midnightblue" points="677.647,-98.9049 667.143,-97.5207 674.491,-105.153 677.647,-98.9049"/>
</g>
<!-- Node6 -->
<g id="node6" class="node"><title>Node6</title>
<g id="a_node6"><a xlink:href="../../db/d32/classcontroller_1_1_main_controller.html#a6badeb343877f4b50f069b47afed495c" target="_top" xlink:title="controller.MainController.pass\lInput">
<polygon fill="white" stroke="black" points="756,-98 756,-128 914,-128 914,-98 756,-98"/>
<text text-anchor="start" x="764" y="-116" font-family="Helvetica,sans-Serif" font-size="10.00">controller.MainController.pass</text>
<text text-anchor="middle" x="835" y="-105" font-family="Helvetica,sans-Serif" font-size="10.00">Input</text>
</a>
</g>
</g>
<!-- Node4&#45;&gt;Node6 -->
<g id="edge5" class="edge"><title>Node4&#45;&gt;Node6</title>
<path fill="none" stroke="midnightblue" d="M729.565,-98.8872C738.238,-100.059 747.053,-101.25 755.698,-102.419"/>
<polygon fill="midnightblue" stroke="midnightblue" points="729.847,-95.3935 719.468,-97.5227 728.909,-102.33 729.847,-95.3935"/>
</g>
<!-- Node14 -->
<g id="node14" class="node"><title>Node14</title>
<g id="a_node14"><a xlink:href="../../d8/ded/class_j_unit_test_1_1_compiler_test.html#a4132f77013965dda40f6d62699de349a" target="_top" xlink:title="JUnitTest.CompilerTest.test\lGrammarException">
<polygon fill="white" stroke="black" points="763.5,-49 763.5,-79 906.5,-79 906.5,-49 763.5,-49"/>
<text text-anchor="start" x="771.5" y="-67" font-family="Helvetica,sans-Serif" font-size="10.00">JUnitTest.CompilerTest.test</text>
<text text-anchor="middle" x="835" y="-56" font-family="Helvetica,sans-Serif" font-size="10.00">GrammarException</text>
</a>
</g>
</g>
<!-- Node4&#45;&gt;Node14 -->
<g id="edge15" class="edge"><title>Node4&#45;&gt;Node14</title>
<path fill="none" stroke="midnightblue" d="M729.876,-77.508C741.011,-76.0635 752.374,-74.5893 763.307,-73.171"/>
<polygon fill="midnightblue" stroke="midnightblue" points="729.199,-74.0664 719.732,-78.8239 730.1,-81.0082 729.199,-74.0664"/>
</g>
<!-- Node15 -->
<g id="node15" class="node"><title>Node15</title>
<g id="a_node15"><a xlink:href="../../d8/ded/class_j_unit_test_1_1_compiler_test.html#accbcdde8d934dd7acc552820845d6b0f" target="_top" xlink:title="JUnitTest.CompilerTest.test\lSyntaxException">
<polygon fill="white" stroke="black" points="763.5,-0 763.5,-30 906.5,-30 906.5,-0 763.5,-0"/>
<text text-anchor="start" x="771.5" y="-18" font-family="Helvetica,sans-Serif" font-size="10.00">JUnitTest.CompilerTest.test</text>
<text text-anchor="middle" x="835" y="-7" font-family="Helvetica,sans-Serif" font-size="10.00">SyntaxException</text>
</a>
</g>
</g>
<!-- Node4&#45;&gt;Node15 -->
<g id="edge16" class="edge"><title>Node4&#45;&gt;Node15</title>
<path fill="none" stroke="midnightblue" d="M677.598,-74.1227C698.942,-64.024 728.961,-50.3608 756,-40 765.03,-36.54 774.766,-33.1542 784.196,-30.0473"/>
<polygon fill="midnightblue" stroke="midnightblue" points="675.965,-71.0241 668.444,-78.4871 678.977,-77.3427 675.965,-71.0241"/>
</g>
<!-- Node7 -->
<g id="node7" class="node"><title>Node7</title>
<g id="a_node7"><a xlink:href="../../dd/dea/classgui_1_1_g_u_i_scene.html#a7cb2b00ed820aecde169a5e14cf0d468" target="_top" xlink:title="gui.GUIScene.createGUI">
<polygon fill="white" stroke="black" points="1144,-122.5 1144,-141.5 1276,-141.5 1276,-122.5 1144,-122.5"/>
<text text-anchor="middle" x="1210" y="-129.5" font-family="Helvetica,sans-Serif" font-size="10.00">gui.GUIScene.createGUI</text>
</a>
</g>
</g>
<!-- Node6&#45;&gt;Node7 -->
<g id="edge6" class="edge"><title>Node6&#45;&gt;Node7</title>
<path fill="none" stroke="midnightblue" d="M924.389,-129.202C933.02,-130.341 941.664,-131.31 950,-132 1015.87,-137.452 1091.49,-136.643 1143.95,-134.965"/>
<polygon fill="midnightblue" stroke="midnightblue" points="924.67,-125.707 914.283,-127.793 923.704,-132.64 924.67,-125.707"/>
</g>
<!-- Node12 -->
<g id="node12" class="node"><title>Node12</title>
<g id="a_node12"><a xlink:href="../../dd/dea/classgui_1_1_g_u_i_scene.html#a47e424a495817f5806f45064f77a632b" target="_top" xlink:title="gui.GUIScene.getRightBox">
<polygon fill="white" stroke="black" points="958,-103.5 958,-122.5 1100,-122.5 1100,-103.5 958,-103.5"/>
<text text-anchor="middle" x="1029" y="-110.5" font-family="Helvetica,sans-Serif" font-size="10.00">gui.GUIScene.getRightBox</text>
</a>
</g>
</g>
<!-- Node6&#45;&gt;Node12 -->
<g id="edge12" class="edge"><title>Node6&#45;&gt;Node12</title>
<path fill="none" stroke="midnightblue" d="M924.315,-113C935.507,-113 946.84,-113 957.699,-113"/>
<polygon fill="midnightblue" stroke="midnightblue" points="924.094,-109.5 914.094,-113 924.094,-116.5 924.094,-109.5"/>
</g>
<!-- Node13 -->
<g id="node13" class="node"><title>Node13</title>
<g id="a_node13"><a xlink:href="../../d6/d6a/class_j_unit_test_1_1_backend_a_p_i_test.html#a86dd50c40468e1647c7c01614dc7d30d" target="_top" xlink:title="JUnitTest.BackendAPITest.test">
<polygon fill="white" stroke="black" points="950.5,-65.5 950.5,-84.5 1107.5,-84.5 1107.5,-65.5 950.5,-65.5"/>
<text text-anchor="middle" x="1029" y="-72.5" font-family="Helvetica,sans-Serif" font-size="10.00">JUnitTest.BackendAPITest.test</text>
</a>
</g>
</g>
<!-- Node6&#45;&gt;Node13 -->
<g id="edge14" class="edge"><title>Node6&#45;&gt;Node13</title>
<path fill="none" stroke="midnightblue" d="M921.921,-95.9949C941.856,-92.0493 962.377,-87.9878 979.995,-84.5009"/>
<polygon fill="midnightblue" stroke="midnightblue" points="921.014,-92.6064 911.883,-97.9814 922.373,-99.4732 921.014,-92.6064"/>
</g>
<!-- Node8 -->
<g id="node8" class="node"><title>Node8</title>
<g id="a_node8"><a xlink:href="../../dd/dea/classgui_1_1_g_u_i_scene.html#a74967ac937baee81b9eec1b2bc38167c" target="_top" xlink:title="gui.GUIScene.createScene">
<polygon fill="white" stroke="black" points="1312.5,-160.5 1312.5,-179.5 1457.5,-179.5 1457.5,-160.5 1312.5,-160.5"/>
<text text-anchor="middle" x="1385" y="-167.5" font-family="Helvetica,sans-Serif" font-size="10.00">gui.GUIScene.createScene</text>
</a>
</g>
</g>
<!-- Node7&#45;&gt;Node8 -->
<g id="edge7" class="edge"><title>Node7&#45;&gt;Node8</title>
<path fill="none" stroke="midnightblue" d="M1264.51,-143.753C1288.97,-149.126 1317.57,-155.409 1340.66,-160.48"/>
<polygon fill="midnightblue" stroke="midnightblue" points="1265.17,-140.316 1254.66,-141.589 1263.67,-147.153 1265.17,-140.316"/>
</g>
<!-- Node11 -->
<g id="node11" class="node"><title>Node11</title>
<g id="a_node11"><a xlink:href="../../dd/dea/classgui_1_1_g_u_i_scene.html#a16324ddc026310495f84e77bbb311b2c" target="_top" xlink:title="gui.GUIScene.addButtons">
<polygon fill="white" stroke="black" points="1315,-122.5 1315,-141.5 1455,-141.5 1455,-122.5 1315,-122.5"/>
<text text-anchor="middle" x="1385" y="-129.5" font-family="Helvetica,sans-Serif" font-size="10.00">gui.GUIScene.addButtons</text>
</a>
</g>
</g>
<!-- Node7&#45;&gt;Node11 -->
<g id="edge10" class="edge"><title>Node7&#45;&gt;Node11</title>
<path fill="none" stroke="midnightblue" d="M1286.5,-125.299C1295.9,-125.215 1305.46,-125.239 1314.75,-125.371"/>
<polygon fill="midnightblue" stroke="midnightblue" points="1286.36,-121.8 1276.4,-125.432 1286.45,-128.8 1286.36,-121.8"/>
</g>
<!-- Node9 -->
<g id="node9" class="node"><title>Node9</title>
<g id="a_node9"><a xlink:href="../../d6/d0e/classcontroller_1_1_s_logo_main.html#ab5379c32fef791f21ad51abde7d268c0" target="_top" xlink:title="controller.SLogoMain.start">
<polygon fill="white" stroke="black" points="1494,-179.5 1494,-198.5 1636,-198.5 1636,-179.5 1494,-179.5"/>
<text text-anchor="middle" x="1565" y="-186.5" font-family="Helvetica,sans-Serif" font-size="10.00">controller.SLogoMain.start</text>
</a>
</g>
</g>
<!-- Node8&#45;&gt;Node9 -->
<g id="edge8" class="edge"><title>Node8&#45;&gt;Node9</title>
<path fill="none" stroke="midnightblue" d="M1467.82,-178.734C1476.56,-179.666 1485.38,-180.608 1493.96,-181.524"/>
<polygon fill="midnightblue" stroke="midnightblue" points="1467.95,-175.227 1457.63,-177.646 1467.2,-182.188 1467.95,-175.227"/>
</g>
<!-- Node10 -->
<g id="node10" class="node"><title>Node10</title>
<g id="a_node10"><a xlink:href="../../dd/d48/classgui_1_1_g_u_i_start.html#a82d08814fef5331d82c4763a2426ffce" target="_top" xlink:title="gui.GUIStart.start">
<polygon fill="white" stroke="black" points="1514.5,-141.5 1514.5,-160.5 1615.5,-160.5 1615.5,-141.5 1514.5,-141.5"/>
<text text-anchor="middle" x="1565" y="-148.5" font-family="Helvetica,sans-Serif" font-size="10.00">gui.GUIStart.start</text>
</a>
</g>
</g>
<!-- Node8&#45;&gt;Node10 -->
<g id="edge9" class="edge"><title>Node8&#45;&gt;Node10</title>
<path fill="none" stroke="midnightblue" d="M1467.97,-161.25C1483.81,-159.559 1499.95,-157.837 1514.36,-156.298"/>
<polygon fill="midnightblue" stroke="midnightblue" points="1467.2,-157.812 1457.63,-162.354 1467.95,-164.773 1467.2,-157.812"/>
</g>
<!-- Node11&#45;&gt;Node7 -->
<g id="edge11" class="edge"><title>Node11&#45;&gt;Node7</title>
<path fill="none" stroke="midnightblue" d="M1304.59,-138.73C1295.15,-138.784 1285.61,-138.73 1276.4,-138.568"/>
<polygon fill="midnightblue" stroke="midnightblue" points="1304.79,-142.228 1314.75,-138.629 1304.72,-135.228 1304.79,-142.228"/>
</g>
<!-- Node12&#45;&gt;Node7 -->
<g id="edge13" class="edge"><title>Node12&#45;&gt;Node7</title>
<path fill="none" stroke="midnightblue" d="M1110.45,-121.539C1121.66,-122.729 1133.06,-123.939 1143.93,-125.093"/>
<polygon fill="midnightblue" stroke="midnightblue" points="1110.55,-118.03 1100.23,-120.455 1109.81,-124.991 1110.55,-118.03"/>
</g>
</g>
</svg>
