<?xml version="1.0" encoding="UTF-8" standalone="no"?>
<!DOCTYPE svg PUBLIC "-//W3C//DTD SVG 1.1//EN"
 "http://www.w3.org/Graphics/SVG/1.1/DTD/svg11.dtd">
<!-- Generated by graphviz version 2.36.0 (20140111.2315)
 -->
<!-- Title: simulationObjects.TurtleList.init Pages: 1 -->
<svg width="476pt" height="87pt"
 viewBox="0.00 0.00 476.00 87.00" xmlns="http://www.w3.org/2000/svg" xmlns:xlink="http://www.w3.org/1999/xlink">
<g id="graph0" class="graph" transform="scale(1 1) rotate(0) translate(4 83)">
<title>simulationObjects.TurtleList.init</title>
<polygon fill="white" stroke="none" points="-4,4 -4,-83 472,-83 472,4 -4,4"/>
<!-- Node1 -->
<g id="node1" class="node"><title>Node1</title>
<polygon fill="#bfbfbf" stroke="black" points="0.5,-24 0.5,-54 131.5,-54 131.5,-24 0.5,-24"/>
<text text-anchor="start" x="8.5" y="-42" font-family="Helvetica,sans-Serif" font-size="10.00">simulationObjects.Turtle</text>
<text text-anchor="middle" x="66" y="-31" font-family="Helvetica,sans-Serif" font-size="10.00">List.init</text>
</g>
<!-- Node2 -->
<g id="node2" class="node"><title>Node2</title>
<g id="a_node2"><a xlink:href="../../dd/d5b/classsimulation_objects_1_1_turtle_list.html#a24b4ae281441829ddd85e2203fdf3d5b" target="_top" xlink:title="simulationObjects.Turtle\lList.addActiveTurtle">
<polygon fill="white" stroke="black" points="168.5,-49 168.5,-79 299.5,-79 299.5,-49 168.5,-49"/>
<text text-anchor="start" x="176.5" y="-67" font-family="Helvetica,sans-Serif" font-size="10.00">simulationObjects.Turtle</text>
<text text-anchor="middle" x="234" y="-56" font-family="Helvetica,sans-Serif" font-size="10.00">List.addActiveTurtle</text>
</a>
</g>
</g>
<!-- Node1&#45;&gt;Node2 -->
<g id="edge1" class="edge"><title>Node1&#45;&gt;Node2</title>
<path fill="none" stroke="midnightblue" d="M131.655,-48.7372C140.386,-50.0521 149.402,-51.4099 158.29,-52.7485"/>
<polygon fill="midnightblue" stroke="midnightblue" points="157.838,-56.2199 168.248,-54.2482 158.881,-49.2979 157.838,-56.2199"/>
</g>
<!-- Node3 -->
<g id="node3" class="node"><title>Node3</title>
<g id="a_node3"><a xlink:href="../../dd/d5b/classsimulation_objects_1_1_turtle_list.html#ad06d2036ca5498681bed071040fb5e3c" target="_top" xlink:title="simulationObjects.Turtle\lList.createTurtle">
<polygon fill="white" stroke="black" points="168.5,-0 168.5,-30 299.5,-30 299.5,-0 168.5,-0"/>
<text text-anchor="start" x="176.5" y="-18" font-family="Helvetica,sans-Serif" font-size="10.00">simulationObjects.Turtle</text>
<text text-anchor="middle" x="234" y="-7" font-family="Helvetica,sans-Serif" font-size="10.00">List.createTurtle</text>
</a>
</g>
</g>
<!-- Node1&#45;&gt;Node3 -->
<g id="edge2" class="edge"><title>Node1&#45;&gt;Node3</title>
<path fill="none" stroke="midnightblue" d="M131.655,-29.6523C140.386,-28.39 149.402,-27.0865 158.29,-25.8015"/>
<polygon fill="midnightblue" stroke="midnightblue" points="158.852,-29.2567 168.248,-24.3617 157.85,-22.3287 158.852,-29.2567"/>
</g>
<!-- Node4 -->
<g id="node4" class="node"><title>Node4</title>
<g id="a_node4"><a xlink:href="../../de/d1c/namespacesimulation_objects.html#a02779129356465b8d266330b211f83f1" target="_top" xlink:title="simulationObjects.Turtle">
<polygon fill="white" stroke="black" points="336.5,-5.5 336.5,-24.5 467.5,-24.5 467.5,-5.5 336.5,-5.5"/>
<text text-anchor="middle" x="402" y="-12.5" font-family="Helvetica,sans-Serif" font-size="10.00">simulationObjects.Turtle</text>
</a>
</g>
</g>
<!-- Node3&#45;&gt;Node4 -->
<g id="edge3" class="edge"><title>Node3&#45;&gt;Node4</title>
<path fill="none" stroke="midnightblue" d="M299.655,-15C308.292,-15 317.208,-15 326.003,-15"/>
<polygon fill="midnightblue" stroke="midnightblue" points="326.248,-18.5001 336.248,-15 326.248,-11.5001 326.248,-18.5001"/>
</g>
</g>
</svg>
