<?xml version="1.0" encoding="UTF-8" standalone="no"?>
<!DOCTYPE svg PUBLIC "-//W3C//DTD SVG 1.1//EN"
 "http://www.w3.org/Graphics/SVG/1.1/DTD/svg11.dtd">
<!-- Generated by graphviz version 2.36.0 (20140111.2315)
 -->
<!-- Title: compiler.ParseTable Pages: 1 -->
<svg width="259pt" height="108pt"
 viewBox="0.00 0.00 259.00 108.00" xmlns="http://www.w3.org/2000/svg" xmlns:xlink="http://www.w3.org/1999/xlink">
<g id="graph0" class="graph" transform="scale(1 1) rotate(0) translate(4 104)">
<title>compiler.ParseTable</title>
<polygon fill="white" stroke="none" points="-4,4 -4,-104 255,-104 255,4 -4,4"/>
<!-- Node1 -->
<g id="node1" class="node"><title>Node1</title>
<polygon fill="#bfbfbf" stroke="black" points="71,-0.5 71,-19.5 181,-19.5 181,-0.5 71,-0.5"/>
<text text-anchor="middle" x="126" y="-7.5" font-family="Helvetica,sans-Serif" font-size="10.00">compiler.ParseTable</text>
</g>
<!-- Node2 -->
<g id="node2" class="node"><title>Node2</title>
<polygon fill="white" stroke="#bfbfbf" points="-0.5,-69 -0.5,-99 118.5,-99 118.5,-69 -0.5,-69"/>
<text text-anchor="start" x="7.5" y="-87" font-family="Helvetica,sans-Serif" font-size="10.00">ArrayList&lt; HashMap</text>
<text text-anchor="middle" x="59" y="-76" font-family="Helvetica,sans-Serif" font-size="10.00">&lt; String, Integer &gt; &gt;</text>
</g>
<!-- Node2&#45;&gt;Node1 -->
<g id="edge1" class="edge"><title>Node2&#45;&gt;Node1</title>
<path fill="none" stroke="#9a32cd" stroke-dasharray="5,2" d="M79.0592,-61.4438C92.0508,-47.4827 108.275,-30.0473 117.849,-19.7589"/>
<polygon fill="#9a32cd" stroke="#9a32cd" points="76.4871,-59.0701 72.237,-68.7751 81.6116,-63.8387 76.4871,-59.0701"/>
<text text-anchor="middle" x="126.5" y="-41.5" font-family="Helvetica,sans-Serif" font-size="10.00"> nextState</text>
</g>
<!-- Node3 -->
<g id="node3" class="node"><title>Node3</title>
<polygon fill="white" stroke="#bfbfbf" points="136.5,-69 136.5,-99 251.5,-99 251.5,-69 136.5,-69"/>
<text text-anchor="start" x="144.5" y="-87" font-family="Helvetica,sans-Serif" font-size="10.00">ArrayList&lt; HashMap</text>
<text text-anchor="middle" x="194" y="-76" font-family="Helvetica,sans-Serif" font-size="10.00">&lt; String, String &gt; &gt;</text>
</g>
<!-- Node3&#45;&gt;Node1 -->
<g id="edge2" class="edge"><title>Node3&#45;&gt;Node1</title>
<path fill="none" stroke="#9a32cd" stroke-dasharray="5,2" d="M176.489,-61.0518C170.236,-53.5467 163.002,-45.2266 156,-38 149.759,-31.5586 142.259,-24.8086 136.319,-19.669"/>
<polygon fill="#9a32cd" stroke="#9a32cd" points="173.784,-63.2727 182.831,-68.7855 179.196,-58.8338 173.784,-63.2727"/>
<text text-anchor="middle" x="199" y="-41.5" font-family="Helvetica,sans-Serif" font-size="10.00"> myOperation</text>
</g>
</g>
</svg>
